<?xml version="1.0" encoding="UTF-8"?>
<svg id="Layer_1" xmlns="http://www.w3.org/2000/svg" xmlns:xlink="http://www.w3.org/1999/xlink" version="1.1" viewBox="0 0 170.08 226.77">
  <!-- Generator: Adobe Illustrator 29.0.0, SVG Export Plug-In . SVG Version: 2.1.0 Build 186)  -->
  <defs>
    <style>
      .st0, .st1 {
        fill: none;
      }

      .st2 {
        fill: #eee6e1;
      }

      .st3 {
        fill: #985624;
      }

      .st4 {
        fill: #d3a57f;
      }

      .st5, .st6 {
        fill: #dec2a4;
      }

      .st1 {
        stroke: #d3a57f;
        stroke-dasharray: 3.14 4.18;
        stroke-linecap: round;
        stroke-linejoin: round;
        stroke-width: 1.05px;
      }

      .st7 {
        fill: #6a773b;
      }

      .st8 {
        fill: #e8d4bf;
      }

      .st6 {
        opacity: .3;
      }

      .st9 {
        clip-path: url(#clippath);
      }

      .st10 {
        fill: #b5692a;
      }
    </style>
    <clipPath id="clippath">
      <rect class="st0" width="170.08" height="226.77"/>
    </clipPath>
  </defs>
  <g class="st9">
    <path class="st2" d="M171.01,128.73c-10.12,1.77-30.76,4.6-40.39,8.17-9.63,3.57-18.78,9.08-25.14,17.14-3.92,4.97-6.68,10.75-10.39,15.88-4.36,6.02-10.04,11.09-16.52,14.74-10.58,5.96-22.92,8.03-33.92,13.19-21.65,10.16-36.78,32.96-37.71,56.86-.71,18.27,6.16,35.88,13.08,52.81l181.9-48.98-30.9-129.8Z"/>
    <path class="st8" d="M11.65,236.43c19-22.54,46.22-36.88,74.4-45.54,35.82-11.01,74.2-13.59,111.17-7.49v85.41H9.21l2.44-32.39Z"/>
    <path class="st6" d="M21.54,183.98c-1.63-.89-3.39-1.47-5.2-1.75-1.43.61-2.91,1.1-4.42,1.46,1.51-.35,2.99-.84,4.42-1.46-.93-.14-1.86-.21-2.8-.18.94-.03,1.87.04,2.8.18,2.4-1.03,4.67-2.41,6.71-4.1.33-.27.68-.59.78-1.03.15-.68-.37-1.31-.87-1.77-2.53-2.35-5.62-3.99-8.89-4.77-1.02.35-2.05.63-3.1.83,1.05-.2,2.08-.48,3.1-.83-.91-.22-1.84-.37-2.77-.45.93.08,1.86.23,2.77.45,1.87-.64,3.66-1.51,5.34-2.61,1.03-.67,2.06-1.51,2.46-2.73.41-1.28,0-2.74-.82-3.77-.81-1.03-1.97-1.68-3.16-2.13-2.56-.97-5.31-1.09-8.03-.79.49,12.33.56,24.67.22,37.01,4.25-1.36,8.34-3.29,12.14-5.75.72-.46,1.47-1.01,1.74-1.85.53-1.63-.99-3.17-2.42-3.95Z"/>
    <g>
      <polygon class="st5" points="29.66 163.69 36.87 154.25 25.82 149.79 25.29 151.13 34.69 154.82 28.52 162.81 29.66 163.69"/>
      <path class="st7" d="M20.43,165.03l7.14-6.94c.84-.82.56-2.24-.54-2.67l-9.27-3.64c-1.19-.47-2.43.57-2.18,1.83l2.13,10.58c.25,1.26,1.8,1.74,2.72.84Z"/>
    </g>
    <path class="st1" d="M169.07,165.46c-10.72-2.44-22.67,1.73-29.53,10.31-4.21,5.26-6.62,11.96-11.69,16.41-5.38,4.73-12.93,6.13-20.1,6.24-7.16.11-14.35-.89-21.48-.14-14.77,1.55-28.6,11.28-34.34,24.97-5.74,13.7-2.75,30.82,7.84,41.23"/>
    <g>
      <path class="st2" d="M142.45,175.67c.18-.21.42-.89.46-1.16.1-.72-.09-1.15-.6-1.67-.38-.38-.96-.47-1.49-.44-.61.04-1.22.23-1.67.65s-.69,1.08-.5,1.65c.09.29.29.55.51.76.6.57,1.12.88,1.94.79,0,0,.79.07,1.35-.58Z"/>
      <path class="st4" d="M142.82,176.04c.29-.36.47-.83.57-1.28.12-.52.08-1.07-.16-1.55s-.69-.94-1.21-1.15-1.13-.21-1.69-.12c-1.16.19-2.21,1.04-2.28,2.28-.03.63.28,1.2.72,1.62.38.37.82.7,1.33.85.38.12.8.11,1.2.08.58-.05,1.12-.29,1.51-.73.19-.21.21-.53,0-.74-.19-.19-.55-.21-.74,0-.25.28-.45.37-.8.43.12-.02.01,0-.04,0-.03,0-.07,0-.1,0-.12,0-.24.02-.37.01-.33,0-.6-.12-.91-.35-.25-.19-.6-.49-.71-.82-.11-.31-.02-.64.18-.94s.55-.49.89-.59.79-.16,1.14-.09c.37.07.63.26.84.55.13.19.17.26.21.48.01.06.01.1.01.21,0,.05,0,.11,0,.16,0,.03,0,.07,0,.1,0-.05,0-.05,0,0-.04.17-.09.34-.16.51-.02.04-.03.09-.05.13.03-.07-.04.07-.04.07-.01.03-.03.06-.04.09s-.12.18-.03.06c-.18.22-.22.52,0,.74.18.18.56.22.74,0Z"/>
    </g>
    <g>
      <path class="st8" d="M109.33,199.99c.18-.21.42-.89.46-1.16.1-.72-.09-1.15-.6-1.67-.38-.38-.96-.47-1.49-.44-.61.04-1.22.23-1.67.65s-.69,1.08-.5,1.65c.09.29.29.55.51.76.6.57,1.12.88,1.94.79,0,0,.79.07,1.35-.58Z"/>
      <path class="st4" d="M109.7,200.35c.29-.36.47-.83.57-1.28.12-.52.08-1.07-.16-1.55s-.69-.94-1.21-1.15-1.13-.21-1.69-.12c-1.16.19-2.21,1.04-2.28,2.28-.03.63.28,1.2.72,1.62.38.37.82.7,1.33.85.38.12.8.11,1.2.08.58-.05,1.12-.29,1.51-.73.19-.21.21-.53,0-.74-.19-.19-.55-.21-.74,0-.25.28-.45.37-.8.43.12-.02.01,0-.04,0-.03,0-.07,0-.1,0-.12,0-.24.02-.37.01-.33,0-.6-.12-.91-.35-.25-.19-.6-.49-.71-.82-.11-.31-.02-.64.18-.94s.55-.49.89-.59.79-.16,1.14-.09c.37.07.63.26.84.55.13.19.17.26.21.48.01.06.01.1.01.21,0,.05,0,.11,0,.16,0,.03,0,.07,0,.1,0-.05,0-.05,0,0-.04.17-.09.34-.16.51-.02.04-.03.09-.05.13.03-.07-.04.07-.04.07-.01.03-.03.06-.04.09s-.12.18-.03.06c-.18.22-.22.52,0,.74.18.18.56.22.74,0Z"/>
    </g>
    <g>
      <path class="st10" d="M141.11,164.54c-1.98,1.37-4.05,2.66-6.24,3.67l1.18.68c-.04-2.37-.17-4.73-.39-7.08l-1.18.68c2.21,1.13,4.42,2.28,6.63,3.41.38.19.85.1,1.07-.28.2-.35.1-.88-.28-1.07-2.21-1.13-4.42-2.28-6.63-3.41-.48-.25-1.24.04-1.18.68.22,2.36.35,4.72.39,7.08.01.63.65.92,1.18.68,2.19-1.01,4.26-2.3,6.24-3.67.35-.24.51-.69.28-1.07-.2-.34-.72-.52-1.07-.28h0Z"/>
      <path class="st10" d="M132.5,164.67c-1.98,1.37-4.05,2.66-6.24,3.67l1.18.68c-.04-2.37-.17-4.73-.39-7.08l-1.18.68c2.21,1.13,4.42,2.28,6.63,3.41.38.19.85.1,1.07-.28.2-.35.1-.88-.28-1.07-2.21-1.13-4.42-2.28-6.63-3.41-.48-.25-1.24.04-1.18.68.22,2.36.35,4.72.39,7.08.01.63.65.92,1.18.68,2.19-1.01,4.26-2.3,6.24-3.67.35-.24.51-.69.28-1.07-.2-.34-.72-.52-1.07-.28h0Z"/>
    </g>
  </g>
  <g>
    <path class="st5" d="M44.31,25.7c-.08-6.78-4.52-12.83-11.01-14.86-6.19-1.94-13.22.07-17.48,4.95-4.46,5.12-5.09,12.72-1.52,18.49,3.5,5.67,10.35,8.41,16.83,7.13,7.47-1.48,13.1-7.93,13.19-15.6,0-.02-.01-.03-.02-.05,0-.02.02-.04.02-.06Z"/>
    <g>
      <path class="st3" d="M32.46,26.58h0s0,0,.01,0c0,0,0,0,0,0,0,0,0,0-.01,0Z"/>
      <polygon class="st3" points="32.47 26.57 32.47 26.57 32.47 26.57 32.47 26.57"/>
      <path class="st3" d="M32.47,26.57s0,0,0,0c.02-.01.03-.02.05-.03,0,0-.03.02-.05.03Z"/>
      <path class="st3" d="M33.91,22.15c-.65.13-1.21.5-1.65.98-.43.48-.71,1.06-1.04,1.61-.29.5-.65,1.08-.46,1.68.18.55.76.75,1.29.73.52-.02.97-.21,1.38-.52.55-.41,1.05-.89,1.54-1.37,0,0,0,0,0-.01.44-.32.83-.73.99-1.26.15-.52.04-1.14-.38-1.5-.46-.4-1.12-.45-1.69-.34Z"/>
      <path class="st3" d="M31.26,27.58c-.13-.16-.24-.33-.4-.47-.06-.06-.13-.12-.21-.16-.14-.08-.29-.1-.45-.1-.35,0-.7.15-.97.37-.17.14-.33.29-.42.49-.08.18-.09.39,0,.57.08.18.22.32.36.46.16.16.33.26.56.28.4.03.79-.14,1.12-.34.2-.12.41-.27.53-.47,0,0,.15-.3-.11-.63Z"/>
      <path class="st3" d="M25.31,22.08c-.62.15-1.17.52-1.59,1-.42.48-.7,1.07-1.03,1.62-.29.48-.63,1.08-.4,1.66.22.56.85.68,1.39.63.48-.05.9-.24,1.28-.53.53-.41,1.03-.88,1.51-1.34,0,0,0,0,0,0,.46-.32.88-.77,1.02-1.32.13-.52,0-1.13-.44-1.47-.49-.38-1.16-.39-1.74-.25Z"/>
      <path class="st3" d="M22.74,27.43c-.1-.17-.24-.32-.39-.45-.08-.07-.16-.14-.26-.19-.17-.09-.35-.12-.53-.1-.33.02-.61.2-.86.4-.17.14-.3.31-.38.52-.08.2-.08.43.01.62.09.19.23.34.37.48.19.19.4.31.67.32.35.02.67-.13.96-.31.2-.13.44-.3.55-.52,0,0,.17-.22-.15-.77ZM21.41,27.45s0,0,0,0c.02-.03.01-.02,0,0ZM21.9,28.19s0,0,0,0c0,0,0,0,0,0ZM21.9,28.19s0,0,0,0c0,0,0-.01,0-.02,0,0,0,0,0,0,0,.01,0,.01,0,.02ZM21.89,28.07s0,0,0,0c0,0,0,0,0,0,0,0,0,0,0,0ZM21.27,27.33s-.02,0-.02,0c0,0,0,0,.02,0Z"/>
      <path class="st3" d="M23.47,30.99c-.43.48-.72,1.07-1.05,1.62-.29.5-.65,1.08-.45,1.68.18.55.76.76,1.29.74.52-.02.97-.21,1.38-.52.55-.41,1.05-.89,1.54-1.37,0,0,0,0,0,0,.44-.32.83-.73.99-1.27.15-.52.04-1.15-.38-1.51-1.01-.87-2.55-.23-3.33.63ZM23.65,34.44s0,0,.02,0c.04,0,0,.01-.02,0ZM23.67,34.43c.1-.06.03,0,0,0h0Z"/>
      <path class="st3" d="M22.46,35.44c-.1-.18-.24-.33-.4-.48-.07-.06-.13-.11-.21-.16-.14-.08-.29-.11-.46-.11-.35,0-.7.16-.97.38-.17.14-.33.29-.42.5-.08.18-.09.39,0,.57.08.18.22.33.36.47.15.16.33.27.56.28.37.03.74-.11,1.05-.29.22-.13.45-.28.59-.5,0,0,.14-.23-.1-.66Z"/>
      <path class="st3" d="M35.9,15c-1.01-.87-2.55-.28-3.32.61-.43.49-.73,1.08-1.06,1.64-.29.5-.65,1.09-.45,1.7.19.59.81.79,1.37.76.46-.02.88-.2,1.24-.47.57-.43,1.09-.92,1.6-1.41.45-.33.84-.75,1-1.29.15-.52.04-1.16-.39-1.52Z"/>
      <path class="st3" d="M32.79,19.05s0,0,0,0c0,0,.01,0,.02-.01,0,0-.02.01-.03.02t0,0Z"/>
      <path class="st3" d="M31.51,20.08c-.11-.17-.24-.31-.39-.45-.08-.07-.16-.15-.26-.2-.17-.09-.35-.13-.54-.12-.3.02-.56.16-.78.35-.18.15-.36.33-.44.55-.08.22-.1.45,0,.67.09.19.23.34.38.49.19.19.4.32.67.34.35.02.67-.13.96-.31.21-.13.44-.3.55-.53,0,0,.11-.39-.15-.8ZM30.09,20.02s-.01,0-.02,0c0,0,0,0,0,0,0,0,0,0,0,0ZM30.48,20.97s0,0,0,0c0,0,0,0,0,0,0,0,0,0,0,0ZM30.46,20.97s-.08.03,0,0h0ZM30.66,20.83s0,0,0,0c0,0,0,0,0,0ZM30.66,20.83s0,0,0,0c0,0,0-.01.01-.02,0,0,0,0,0,0,0,0,0,0,0,.01ZM30.07,20.01s0,0,0,0c0,0,0,0,0,0Z"/>
    </g>
  </g>
</svg>