<?xml version="1.0" encoding="UTF-8"?>
<svg xmlns="http://www.w3.org/2000/svg" xmlns:xlink="http://www.w3.org/1999/xlink" version="1.1" viewBox="0 0 170.08 226.77">
  <!-- Generator: Adobe Illustrator 29.0.0, SVG Export Plug-In . SVG Version: 2.1.0 Build 186)  -->
  <defs>
    <style>
      .st0 {
        fill: none;
      }

      .st1 {
        fill: #ebdac9;
      }

      .st2 {
        fill: #eee6e1;
      }

      .st3 {
        mix-blend-mode: multiply;
      }

      .st3, .st4 {
        fill: #dec2a4;
      }

      .st3, .st5 {
        opacity: .4;
      }

      .st6 {
        fill: #173c2e;
      }

      .st7 {
        isolation: isolate;
      }

      .st8 {
        fill: #6a773b;
      }

      .st9 {
        clip-path: url(#clippath-1);
      }

      .st10 {
        fill: #e2b138;
      }

      .st11 {
        clip-path: url(#clippath);
      }

      .st12 {
        fill: #b5692a;
      }
    </style>
    <clipPath id="clippath">
      <rect class="st0" x="-201" width="170.08" height="226.77"/>
    </clipPath>
    <clipPath id="clippath-1">
      <rect class="st0" width="170.08" height="226.77"/>
    </clipPath>
  </defs>
  <g class="st7">
    <g id="Layer_1">
      <g class="st11">
        <path class="st2" d="M-29.99,128.73c-10.12,1.77-30.76,4.6-40.39,8.17-9.63,3.57-18.78,9.08-25.14,17.14-3.92,4.97-6.68,10.75-10.39,15.88-4.36,6.02-10.04,11.09-16.52,14.74-10.58,5.96-22.92,8.03-33.92,13.19-21.65,10.16-36.78,32.96-37.71,56.86-.71,18.27,6.16,35.88,13.08,52.81L.92,258.53l-30.9-129.8Z"/>
      </g>
      <g class="st9">
        <path class="st2" d="M-7.66,188.25c53.82-41.44,124.04-60.95,191.53-53.19v100.54H-10.96l3.3-47.35Z"/>
        <path class="st1" d="M176.55,151.13c-15.01-2.44-30.97,1.69-42.91,11.1-4.89,3.85-9.08,8.5-13.71,12.65-8.59,7.71-18.71,13.7-29.59,17.54-9.56,3.37-19.62,5.07-29.44,7.59s-19.65,5.99-27.55,12.34c-7.9,6.35-13.67,16.04-13.21,26.17h160.42l-4-87.4Z"/>
        <path class="st4" d="M183.29,117.36c-25.07-.25-49.98,11.95-63.95,32.97-7.44,11.19-13.39,25.9-26.89,31.08-6.6,2.53-13.87,2.31-20.59,4.4-5.86,1.82-10.7,5.55-13.89,10.8-7.81,12.8-3.33,28.63,6.51,38.92.59.61,2.26-.13,1.62-.8-8.86-9.27-13.56-23.12-7.84-35.27,2.65-5.62,7.23-10.06,13.15-12.1,6.35-2.18,13.2-2.1,19.61-4.06,13.01-3.97,19.92-16.19,26.5-27.1,3.43-5.69,7.17-11.1,11.87-15.83,4.31-4.34,9.22-8.1,14.5-11.19,11.86-6.95,25.53-10.58,39.28-10.44,1.04.01,1.33-1.36.14-1.37h0Z"/>
        <g>
          <path class="st3" d="M147.63,180.32c-.02-3.02-.09-6.12-.57-9.11-.38-2.34-1.17-4.72-2.97-6.35-2.07-1.87-4.95-2.29-7.63-2.44-6.74-.37-13.49-.51-20.24-.76-3.42-.13-6.84-.25-10.26-.38-2.89-.11-5.84-.33-8.72.09-2.46.36-4.87,1.19-6.73,2.89-1.74,1.6-2.74,3.75-3.27,6.02-.6,2.59-.59,5.28-.54,7.93.07,3.34.21,6.68.55,10.01.18,1.82.42,3.63.74,5.43.25,1.41.47,2.96,1.73,3.84,1.77,1.23,4.51.89,6.57.95,3.29.09,6.58.18,9.86.26-.33,3.16-1.56,6.1-3.65,8.52-.64.74.44,1.1,1.02.97,5.74-1.2,10.75-4.93,13.52-10.08,3.28-.24,6.56-.49,9.84-.73,2.99-.22,6.02-.34,8.99-.74,4.31-.58,9.5-2.08,11.01-6.69.98-2.98.76-6.53.73-9.63Z"/>
          <g>
            <path class="st12" d="M104.41,196.59c-.18,3.55-1.6,7.03-3.97,9.69,5.69-1.13,10.75-5.04,13.27-10.26,5.78-.43,11.56-.86,17.34-1.29,4.85-.36,10.65-1.37,12.52-5.86.53-1.27.65-2.66.73-4.03.26-4.26.22-8.54-.12-12.79-.26-3.22-.85-6.75-3.33-8.83-2.21-1.85-5.33-2.05-8.21-2.15-10.76-.4-21.52-.8-32.28-1.2-4.22-.16-8.88-.16-12.06,2.61-3.57,3.11-3.87,8.46-3.79,13.19.1,5.74.39,11.5,1.48,17.14.15.8.34,1.64.88,2.26.87,1,2.35,1.11,3.67,1.15,3.95.13,13.86.38,13.86.38Z"/>
            <path class="st12" d="M103.37,196.67c-.22,3.47-1.51,6.68-3.78,9.31-.65.75.45,1.12,1.04.99,6.05-1.26,11.31-5.3,14.07-10.84l-1.07.63c3.63-.27,7.27-.54,10.9-.81,3.03-.23,6.08-.34,9.09-.75,4.16-.57,9.17-1.96,10.94-6.22.59-1.42.72-2.96.8-4.47.11-1.88.16-3.77.15-5.66-.01-3.1-.08-6.27-.55-9.34-.37-2.43-1.16-4.93-3.03-6.64-1.99-1.81-4.74-2.3-7.33-2.47-6.97-.46-13.98-.54-20.96-.79-3.48-.13-6.95-.26-10.43-.39-2.85-.11-5.75-.32-8.59.03-2.58.32-5.15,1.13-7.12,2.89-1.84,1.64-2.9,3.86-3.45,6.23-.6,2.57-.61,5.24-.56,7.86.06,3.26.2,6.51.5,9.75.18,1.9.41,3.8.73,5.69.25,1.45.4,3.22,1.62,4.23,1.76,1.45,4.66,1.08,6.81,1.14,3.63.1,7.27.2,10.9.29.45.01,1.16-.12,1.34-.63.16-.44-.14-.84-.62-.85-3.14-.08-6.28-.16-9.43-.25-1.92-.05-4,.09-5.9-.25-2.04-.36-2.28-2.01-2.59-3.77s-.54-3.46-.72-5.21c-.35-3.43-.5-6.87-.56-10.32-.05-2.62-.04-5.29.56-7.86.65-2.78,2.16-5.33,4.84-6.55s5.52-1.16,8.28-1.08c7.05.2,14.09.52,21.13.78,3.48.13,6.95.26,10.43.39,2.91.11,6.3-.05,8.8,1.7,2.36,1.66,3.08,4.66,3.41,7.37.41,3.36.47,6.78.41,10.16-.05,3,.26,6.85-1.75,9.33-1.5,1.85-3.9,2.65-6.15,3.12-3.21.67-6.57.73-9.83.97-1.98.15-3.96.3-5.95.44s-4.04.08-5.95.44c-1.32.25-1.75,1.99-2.45,2.99-.87,1.24-1.9,2.39-3.05,3.37-2.32,1.98-5.06,3.32-8.05,3.94l1.04.99c2.45-2.83,3.91-6.33,4.15-10.06.07-1.05-2.02-.76-2.08.16Z"/>
          </g>
          <g class="st5">
            <path class="st2" d="M140.46,186.28c-.71,1.46-1.8,2.72-3.11,3.66-.6.44-1.23.78-1.91,1.05-.71.29-1.37.45-2.15.54-.35.04-1.09.25-1.17.67s.62.42.87.39c4.02-.48,7.73-2.93,9.51-6.59.2-.41-.69-.42-.87-.39-.44.06-.97.25-1.17.67h0Z"/>
          </g>
          <g class="st5">
            <path class="st2" d="M86.59,168.37c-.99,4.75-.95,9.66.11,14.39.15.69,1.82.26,1.66-.45-1.04-4.65-1.07-9.44-.1-14.11.15-.74-1.54-.51-1.68.16h0Z"/>
          </g>
        </g>
        <path class="st8" d="M12.4,170.72c-1.64,3.45-1.77,7.49-.86,11.2.29,1.16.69,2.32,1.45,3.23.89,1.06,2.19,1.68,3.5,2.12,4.69,1.57,10.03,1.03,14.34-1.38-3.09-7.81-6.18-15.62-9.27-23.43-3.87,1.67-7.37,4.46-9.17,8.26Z"/>
        <g>
          <path class="st10" d="M25.56,181.32c2.3-.96,4.52-2.24,6.46-3.79.23-.18.12-.54-.09-.67-1.97-1.29-4.29-1.85-6.31-3.04-.3-.17-.62.05-.65.37-.15,2.24-.04,4.48.04,6.72.02.55.88.55.86,0-.09-2.24-.19-4.48-.04-6.72l-.65.37c2.02,1.18,4.34,1.74,6.31,3.04l-.09-.67c-1.82,1.46-3.94,2.68-6.08,3.57-.22.09-.36.28-.3.53.05.2.31.39.53.3Z"/>
          <path class="st10" d="M34.79,181.32c2.3-.96,4.52-2.24,6.46-3.79.23-.18.12-.54-.09-.67-1.97-1.29-4.29-1.85-6.31-3.04-.3-.17-.62.05-.65.37-.15,2.24-.04,4.48.04,6.72.02.55.88.55.86,0-.09-2.24-.19-4.48-.04-6.72l-.65.37c2.02,1.18,4.34,1.74,6.31,3.04l-.09-.67c-1.82,1.46-3.94,2.68-6.08,3.57-.22.09-.36.28-.3.53.05.2.31.39.53.3Z"/>
        </g>
        <g>
          <path class="st10" d="M138.09,155.39c-.13-1.26-.17-2.52-.1-3.79.02-.41-.46-.52-.79-.48-.23.03-.48.1-.67.24-.13.1-.31.24-.32.42-.07,1.36-.03,2.73.11,4.08.02.16.24.26.36.3.2.06.47.04.67-.02.35-.1.79-.34.75-.76h0Z"/>
          <path class="st10" d="M144.32,156.76c.5-1.53,1.12-3.02,1.87-4.44.2-.38-.18-.69-.53-.72-.43-.03-.94.13-1.15.54-.75,1.43-1.37,2.91-1.87,4.44-.06.17-.09.32.03.48.11.14.33.23.5.24.36.03,1.02-.12,1.15-.54h0Z"/>
          <path class="st10" d="M148.61,159.64c.56-.44,1.14-.86,1.73-1.26.15-.1.3-.19.45-.29.08-.05.15-.09.23-.14.07-.05.08-.05,0,0,.04-.02.08-.05.11-.07.31-.18.62-.36.93-.53.17-.09.59-.42.2-.54s-.9.02-1.24.21c-1.33.72-2.61,1.55-3.79,2.49-.08.06-.23.18-.2.3s.23.16.32.17c.4.03.93-.08,1.25-.34h0Z"/>
          <path class="st10" d="M148.16,164.6c1.31.43,2.63.85,3.94,1.28.15.05.41,0,.56-.03.22-.04.47-.11.68-.21.17-.08.59-.3.23-.42-1.31-.43-2.63-.85-3.94-1.28-.15-.05-.41,0-.56.03-.22.04-.47.11-.68.21-.17.08-.59.3-.23.42h0Z"/>
        </g>
      </g>
      <g>
        <path class="st10" d="M43.49,25.7c-.08-6.6-4.41-12.5-10.73-14.48-6.04-1.89-12.88.06-17.03,4.82-4.35,4.98-4.96,12.39-1.49,18.02,3.41,5.53,10.08,8.2,16.4,6.95,7.28-1.44,12.76-7.73,12.85-15.2,0-.02-.01-.03-.02-.05,0-.02.02-.04.02-.06Z"/>
        <g>
          <path class="st6" d="M37.27,15.99c-.96-1.15-2.73-1.3-4.11-1.13-.95.12-1.87.4-2.75.8-.37.17-.86.32-1.06.69-.04.08-.17.51-.29.92-.06-.14-.16-.26-.31-.32-.4-.16-.69.07-1,.3-1.14.8-2.22,1.68-3.22,2.64-1,.96-1.93,1.99-2.77,3.09-.33.43-.91.99-.96,1.54-.05.57.03,1.22.11,1.82-.32-.31-.69-.53-.98-.01-.6,1.08-.7,2.61-.65,3.82.02.37.02.56.4.69.26.09.54.09.63-.22.06-.22-.03-.58-.03-.82,0-.32.02-.64.06-.96.06-.52.15-1.06.34-1.56.24.19.49.37.78.45.42.1.66.02.61-.42-.08-.71-.15-1.43-.22-2.14-.04-.44,0-.63.26-1,.22-.31.45-.62.68-.92.82-1.05,1.72-2.04,2.69-2.96.83-.78,1.74-1.64,2.72-2.26.12.34.27.68.42.99.12.26.27.37.55.43.71.14.59-.98.69-1.41.1-.43.22-1.13.58-1.41.4-.32,1.02-.51,1.5-.67,1.17-.4,2.64-.7,3.81-.16,2.22,1.05.27,3.72-.84,4.79-.7.68-1.51,1.23-2.2,1.92-.77.77-1.44,1.64-2.16,2.47-.29.33-.6.34-1.02.33-.29,0-.57,0-.86,0-.27,0-.92-.12-1.09.18-.29.52,1.09,1.16,1.59,1.41-.2.39-.57.76-.84,1.1-.3.37-.61.74-.93,1.1-.58.64-1.21,1.26-1.9,1.78-.68.52-1.42.96-2.23,1.24-.44.16-.9.26-1.36.31-.21.02-.53,0-.59.26-.23,1.03,2.82,0,3.13-.13,1.52-.68,2.79-1.82,3.9-3.06.68-.77,1.36-1.57,1.95-2.41.14-.2.21-.36-.01-.53-.12-.1-1.11-.42-1.27-.58.4.02.8.04,1.21.06.26.01.52,0,.75-.14.33-.19.54-.55.77-.84.3-.38.6-.76.92-1.12,1.28-1.42,2.98-2.44,4.13-3.98.83-1.11,1.48-2.74.47-3.95Z"/>
          <path class="st6" d="M30.27,20.8c.66-.55,1.33-1.08,2.03-1.58.36-.26.72-.51,1.09-.76.3-.2.79-.41,1.02-.7.27-.34-.05-.75-.44-.72-.25.02-.5.23-.7.36-.38.24-.75.49-1.12.75-2.88,2.02-5.48,4.45-7.7,7.18-1.23,1.51-2.34,3.11-3.33,4.79-.99,1.68-2.01,3.5-2.61,5.36-.02.03-.02.07-.01.1,0,0,0,.02.01.02,0,.01,0,.03.02.04,0,0,0,0,.01.01,0,0,0,0,0,0,.24.33.73.41.97.02.21-.34.32-.78.48-1.14.19-.43.38-.85.58-1.27.78-1.62,1.68-3.19,2.69-4.68,1.96-2.9,4.32-5.54,7.01-7.79Z"/>
        </g>
      </g>
    </g>
  </g>
</svg>