<?xml version="1.0" encoding="UTF-8"?>
<svg xmlns="http://www.w3.org/2000/svg" xmlns:xlink="http://www.w3.org/1999/xlink" version="1.1" viewBox="0 0 170.08 226.77">
  <!-- Generator: Adobe Illustrator 29.0.0, SVG Export Plug-In . SVG Version: 2.1.0 Build 186)  -->
  <defs>
    <style>
      .st0, .st1, .st2 {
        fill: none;
      }

      .st3 {
        fill: #eee6e1;
      }

      .st4 {
        fill: #326848;
      }

      .st5 {
        mix-blend-mode: multiply;
        opacity: .6;
      }

      .st6 {
        fill: #d3a57f;
      }

      .st7 {
        fill: #173c2e;
      }

      .st8 {
        fill: #dec2a4;
      }

      .st9 {
        isolation: isolate;
      }

      .st1 {
        stroke: #173c2e;
        stroke-width: 2.03px;
      }

      .st1, .st2 {
        stroke-linecap: round;
        stroke-linejoin: round;
      }

      .st10 {
        clip-path: url(#clippath-1);
      }

      .st11 {
        fill: #27613f;
      }

      .st12 {
        fill: #fff;
      }

      .st2 {
        stroke: #d3a57f;
        stroke-dasharray: 3.11 4.14;
        stroke-width: 1.55px;
      }

      .st13 {
        opacity: .5;
      }

      .st14 {
        fill: #528065;
      }

      .st15 {
        clip-path: url(#clippath);
      }
    </style>
    <clipPath id="clippath">
      <rect class="st0" width="170.08" height="226.77"/>
    </clipPath>
    <clipPath id="clippath-1">
      <rect class="st0" x="116.53" y="123.27" width="64.28" height="86.2" transform="translate(165.82 388.83) rotate(-142.62)"/>
    </clipPath>
  </defs>
  <g class="st9">
    <g id="Layer_1">
      <g class="st15">
        <path class="st3" d="M164.05,193.44c-18.83-22.33-45.8-36.54-73.73-45.13-35.49-10.91-73.52-13.47-110.16-7.42v94.99s186.31,0,186.31,0l-2.42-42.45Z"/>
        <g class="st13">
          <path class="st8" d="M-2.91,172.67c7.77-.75,15.6-1.5,23.38-.82s15.6,2.86,21.89,7.49c3.88,2.85,7.07,6.53,10.82,9.54,4.41,3.53,9.6,6.1,15.08,7.47,8.96,2.23,18.43,1.26,27.53,2.82,17.92,3.07,33.62,16.74,39.13,34.07,4.21,13.25,2.73,27.55,1.07,41.35l-143.23.82,4.32-102.74Z"/>
        </g>
        <g>
          <g class="st5">
            <path class="st8" d="M126.92,156.6c-4.28,2.77-1.18,10.31,3.82,9.24-.28-4-1.21-6.2-3.82-9.24h0Z"/>
          </g>
          <g class="st5">
            <path class="st8" d="M119.2,178.25c6.04,11.75,23.44,9.68,33.9,5.96-5.8-1.67-11.84-1.6-17.66-1.91-5.82-.31-10.99-1.08-16.24-4.05h0Z"/>
          </g>
          <g class="st5">
            <path class="st8" d="M137.03,202.56c3.76,8.94,13.83,6.97,19.04.5-3.52-.38-6.48.8-9.83.76-1.44.03-2.76-.05-4.13-.25-1.58-.2-3.3-1.06-5.08-1.02h0Z"/>
          </g>
        </g>
        <g class="st10">
          <g>
            <path class="st11" d="M129.91,195.45c1.6-3.13,5.27-5.35,8.34-6.82,2.66-1.28,5.5-2.1,8.42-2.47-3.79-.83-7.57-1.67-11.36-2.5-4.07-.9-8.22-1.64-12.24-2.75-3.07-.85-6.31-2.47-7.38-5.71-.94-2.85.7-5.43,3.02-6.99,3.1-2.09,6.88-2.25,10.34-3.37-1.71-2.44-3.58-5.36-2.5-8.44.81-2.29,3.03-3.3,5.33-3.31,5.28-.03,10.72,1.85,15.3,4.6-2.72-3.84-5.44-7.67-8.16-11.51-2.16-3.05-5.11-7.04-1.72-10.38,2.65-2.61,6.52-2.7,9.88-1.64,4.61,1.46,9.07,3.93,13.23,6.36,4.64,2.71,9.04,5.8,13.18,9.21.15-1.57.3-3.13.45-4.7.13-1.34,0-3.14.99-4.19,1.41-1.5,3.59-1.01,5.12.01,2.18,1.46,3.88,3.82,5.33,5.96,1.72,2.55,3.14,5.3,4.32,8.14,1.26,3.05,2.25,6.23,2.78,9.49.03.18-.41.38-.71.44l-4.67,5.03c.21-.05.38-.06.35-.01-6.36,12.99-16.98,23.71-29.8,30.38-3.11,1.62-6.34,2.99-9.67,4.1-2.96.99-6.05,1.85-9.2,1.79-2.87-.05-5.64-1-7.6-3.16-1.86-2.06-2.7-5-1.39-7.57Z"/>
            <path class="st14" d="M180.81,171.36c-11.59-13.49-24.77-25.72-40.58-34.1-.37-.2-.98-.01-1.35.13-.09.03-.94.41-.63.58,15.81,8.39,28.98,20.61,40.58,34.1.33.38,2.28-.35,1.97-.71h0Z"/>
            <path class="st14" d="M179.51,179.55c-5.48-3.12-10.69-6.68-16.1-9.91-5.82-3.48-11.92-6.36-18.36-8.48-4.85-1.59-9.81-2.81-14.82-3.8-.62-.12-2.45.85-1.3,1.08,8.12,1.6,16.13,3.83,23.66,7.3,5.57,2.57,10.75,5.81,15.91,9.09,3.07,1.95,6.16,3.88,9.32,5.69.55.31,2.49-.51,1.68-.97h0Z"/>
            <path class="st14" d="M177.5,181.28c-19.17-3.97-38.57-8.55-58.29-7.1-1.19.09-1.6,1.67-.18,1.57,19.53-1.44,38.76,3.15,57.75,7.08,1.05.22,2.1-1.27.72-1.56h0Z"/>
            <path class="st14" d="M160.69,193.27c-9.6.1-18.57,3.69-27.8,5.88-1.28.3-.97,1.43.3,1.13,8.84-2.09,17.5-5.65,26.7-5.75.41,0,1.21-.13,1.38-.59.16-.43-.14-.68-.58-.67h0Z"/>
          </g>
        </g>
        <g>
          <path class="st7" d="M165.48,264.59c-.92-1.88-1.91-3.72-2.94-5.53l-2.81-16.19c.11-.16.16-.35.11-.58-.16-.74-.37-1.45-.58-2.16l-.11-.64.49-1.04c.79-.04,1.39-.26,1.19-.69-.14-.3-.3-.58-.45-.87l13.13-8.35c1.09.26-2.53-9.01-2.38-9.83,2.69-14.64.92-30.05-4.94-43.73-1.66-3.87-3.65-7.59-5.92-11.13-.4-.62-1.55-.85-2.22-.85-.41,0-1.72.14-1.66.79,1.19,12.77-3.08,25.26-2.95,37.98-3.25-7.73-5.93-15.68-7.12-24.03-.16-1.14-3.46-1.69-3.92-.62-3.61,8.29-4.82,17.37-3.58,26.33.62,4.47,1.86,8.86,3.72,12.97.07.15.15.31.22.46-3.7-3.04-7.51-5.96-11.15-9.02-2.53-2.12-4.98-4.36-7.05-6.94-.5-.63-4.24-1.23-3.82.04,1.56,4.74,3.45,9.37,5.87,13.73,2.39,4.31,5.36,8.16,8.57,11.88,6.48,7.51,12.49,15.33,17.99,23.6,3.05,4.59,5.91,9.31,8.34,14.26.54,1.09,4.48,1.17,3.99.19Z"/>
          <path class="st4" d="M159.52,168.96c12.53,17.07-.63,38.68,3.4,57.59-7.94-18.46,5.41-39.22-3.4-57.59h0Z"/>
          <path class="st4" d="M143.31,183.03c1.95,17.75,10.09,33.88,19.22,48.96-11.85-11.84-21.46-31.99-19.22-48.96h0Z"/>
          <path class="st4" d="M122.72,201.03c4.18,5.6,9.72,10.93,14.59,15.94,8.24,8.66,17.24,17.76,21.32,29.23-5.18-8.18-11.78-15.09-18.32-22.13-6.41-7.14-13.59-14.15-17.58-23.05h0Z"/>
        </g>
        <path class="st1" d="M79.03,158.62c-.56-1.77-1.73-3.36-3.21-4.47-1.53-1.14-3.35-1.82-5.27-1.85-1.9-.02-3.82.61-5.38,1.7-1.64,1.15-2.83,2.78-3.43,4.69-.63,2-.57,4.17-.09,6.19,1.02,4.31,4.05,7.73,7.08,10.79.38.38.76.76,1.14,1.14.2.2.44.19.62.07.01,0,.02-.01.03-.02,0,0,.02-.01.03-.02.07-.05.13-.11.18-.18,1.34-1.91,2.91-3.64,4.35-5.48.72-.92,1.4-1.88,2.04-2.86.64-.96,1.21-1.96,1.62-3.04.8-2.12.99-4.5.29-6.67ZM74.8,162.06c-.27,1.58-1.22,2.98-2.75,3.55-1.29.45-2.72.33-3.89-.39-1.1-.68-1.89-1.76-2.13-3.04-.26-1.38.18-2.66,1.15-3.66.65-.66,1.47-1.09,2.38-1.24,1.13-.19,2.4-.11,3.37.54.49.32.93.75,1.27,1.23.31.44.48.99.58,1.51.1.52.11.98.02,1.5Z"/>
        <g>
          <path class="st3" d="M73.06,186.28c.28-.33.68-1.43.74-1.86.16-1.15-.14-1.85-.96-2.66-.61-.6-1.53-.75-2.39-.7-.97.06-1.96.37-2.67,1.03s-1.1,1.72-.8,2.65c.15.47.46.87.82,1.21.96.91,1.78,1.4,3.1,1.26,0,0,1.26.12,2.16-.93Z"/>
          <path class="st6" d="M73.65,186.87c.46-.58.75-1.33.92-2.05.19-.83.13-1.7-.25-2.47s-1.1-1.5-1.93-1.84-1.81-.34-2.7-.19c-1.85.31-3.53,1.66-3.64,3.64-.05,1,.45,1.91,1.16,2.59.61.59,1.3,1.11,2.12,1.36.61.19,1.28.18,1.92.13.93-.08,1.79-.47,2.41-1.17.3-.34.33-.85,0-1.18-.31-.31-.88-.34-1.18,0-.4.45-.72.59-1.28.69.19-.03.02,0-.07,0-.05,0-.11,0-.16,0-.2,0-.39.03-.59.02-.54-.01-.95-.19-1.45-.56-.39-.3-.95-.78-1.14-1.31-.17-.5-.03-1.03.29-1.5s.87-.78,1.42-.94,1.27-.25,1.81-.15c.59.11,1.01.41,1.34.88.21.3.27.42.34.77.02.09.02.16.02.33,0,.08,0,.17-.01.25,0,.05,0,.11-.02.16.01-.08,0-.08,0,0-.06.28-.15.55-.25.81-.03.07-.05.14-.08.21.05-.11-.06.12-.06.12-.02.05-.05.09-.07.14s-.2.29-.04.1c-.28.35-.34.84,0,1.18.29.29.9.35,1.18,0Z"/>
        </g>
        <path class="st2" d="M-1.96,160.82c9.79-3.77,22.28-1.77,28.56,6.63,2.31,3.09,3.65,6.77,5.5,10.15,3.2,5.84,8.14,10.9,14.34,13.36,6.2,2.46,13.68,2.03,19.06-1.9"/>
        <path class="st6" d="M79.71,153.57c3.02,2.43,3.29,6.85,2.45,10.35-.25,1.05,1.36,1.49,1.61.44.97-4.03.6-9.18-2.88-11.98-.35-.28-.83-.34-1.18,0-.3.29-.35.9,0,1.18h0Z"/>
      </g>
      <g>
        <path class="st7" d="M44.02,25.7c-.08-6.72-4.48-12.71-10.91-14.73-6.14-1.92-13.1.07-17.32,4.91-4.42,5.07-5.04,12.6-1.51,18.32,3.47,5.62,10.25,8.34,16.67,7.06,7.4-1.47,12.98-7.86,13.07-15.45,0-.02-.01-.03-.02-.05,0-.02.02-.04.02-.06Z"/>
        <g>
          <path class="st12" d="M28.36,34.77c-2.2-2.04-3.85-4.59-4.69-7.47-.73-2.49-1.3-6.33.47-8.53s4.96-1.82,6.83-.11c2.31,2.11,2.34,5.24,1.13,7.95-.72,1.62-1.73,3.06-2.85,4.43-1.06,1.29-2.16,2.57-2.86,4.1-.44.97,1.66.78,1.97.1.74-1.63,1.93-2.96,3.05-4.33s2.15-2.96,2.85-4.66c1.26-3.08,1.01-6.59-1.75-8.77-2.42-1.91-5.85-1.92-8.48-.43-3.04,1.72-3.39,5.24-2.98,8.41.51,3.89,2.49,7.5,5.35,10.16.58.54,2.57-.28,1.95-.85h0Z"/>
          <path class="st12" d="M28.56,19.86c-1.44-.22-2.92.64-3.53,1.95-.51,1.09-.22,2.4.61,3.25,1.04,1.07,2.75,1.44,4.07.65,1.23-.74,1.85-2.22,1.3-3.59-.42-1.06-1.3-2.03-2.45-2.26-.45-.09-1.13.17-1.3.63-.18.49.17.81.63.9.21.04-.14-.06-.02,0,.05.02.1.04.15.06.11.05,0-.02-.03-.02.01,0,.08.05.1.07.08.05.16.12.23.18,0,0,.08.06.08.07-.09-.09-.1-.1-.04-.04l.03.04c.15.17.3.37.43.56.07.1.14.21.19.33-.06-.12.04.12.06.17.04.12.07.24.09.37,0,.05.02.1.02.15-.02-.14,0,.07,0,.1,0,.13-.03.25-.04.38,0,.03-.04.15,0,0-.01.04-.03.09-.04.13-.04.11-.09.2-.14.31-.03.05-.09.1.01-.02-.04.05-.08.11-.12.16,0,0-.16.17-.05.06s-.05.04-.06.05c-.03.02-.09.06-.11.08.06-.1.15-.08.05-.03-.05.02-.1.05-.15.07-.13.07.26-.07.04-.02-.07.02-.11.07.04,0-.06.03-.2.02-.26.02.2,0,.01,0-.04-.01-.07-.01-.14-.02-.21-.04.18.04-.04-.02-.1-.05-.05-.02-.1-.05-.15-.07-.12-.05.17.11,0,0-.09-.06-.19-.12-.27-.19-.03-.03-.07-.06-.1-.08-.02-.02-.17-.18-.04-.04-.06-.07-.12-.13-.17-.2-.07-.09-.13-.18-.19-.27-.02-.04-.04-.08-.07-.11-.1-.18.05.14-.02-.05s-.12-.37-.16-.57,0,.1,0-.03c0-.05,0-.11,0-.16,0-.11.02-.22.04-.33.02-.14,0-.02,0,0,.02-.06.04-.13.07-.19.02-.05.04-.1.07-.15.02-.04.15-.25.03-.07.06-.09.13-.18.2-.27.01-.01.07-.09.09-.1-.09.09-.1.1-.03.03l.05-.04s.09-.07.13-.1c.03-.02.05-.04.08-.06-.12.07-.14.09-.08.05.05-.02.1-.05.15-.08.18-.1-.22.06-.02,0,.04-.01.08-.02.12-.04.2-.07-.22,0-.02,0,.05,0,.11,0,.16,0,.08,0,.04,0-.1,0,.04,0,.09,0,.13.02.46.07,1.13-.16,1.3-.63s-.17-.83-.63-.9Z"/>
        </g>
      </g>
    </g>
  </g>
</svg>