<?xml version="1.0" encoding="UTF-8"?>
<svg xmlns="http://www.w3.org/2000/svg" xmlns:xlink="http://www.w3.org/1999/xlink" version="1.1" viewBox="0 0 170.08 226.77">
  <!-- Generator: Adobe Illustrator 29.0.0, SVG Export Plug-In . SVG Version: 2.1.0 Build 186)  -->
  <defs>
    <style>
      .st0 {
        fill: none;
      }

      .st1 {
        fill: #eee6e1;
      }

      .st2 {
        opacity: .3;
      }

      .st2, .st3 {
        mix-blend-mode: multiply;
      }

      .st3 {
        opacity: .6;
      }

      .st4 {
        fill: #dec2a4;
      }

      .st5 {
        isolation: isolate;
      }

      .st6 {
        fill: #6a773b;
      }

      .st7 {
        fill: #808c59;
      }

      .st8 {
        clip-path: url(#clippath-1);
      }

      .st9 {
        fill: #27613f;
      }

      .st10 {
        fill: #fff;
      }

      .st11 {
        opacity: .5;
      }

      .st12 {
        fill: #528065;
      }

      .st13 {
        fill: #8ca33a;
      }

      .st14 {
        clip-path: url(#clippath);
      }
    </style>
    <clipPath id="clippath">
      <rect class="st0" width="170.08" height="226.77"/>
    </clipPath>
    <clipPath id="clippath-1">
      <rect class="st0" x="106.16" y="122.7" width="66.88" height="119.12"/>
    </clipPath>
  </defs>
  <g class="st5">
    <g id="Layer_1">
      <g class="st14">
        <path class="st1" d="M-.12,140.83c49.62-4.01,98.97,15.49,139.1,44.97,20.34,14.94,39.64,33.88,45.75,58.36H.02l-.14-103.33Z"/>
        <g class="st11">
          <path class="st4" d="M-7.55,172.71c42.42-12.56,88.9-4.62,129.18,13.68,20.41,9.27,40.66,22.22,50.45,42.39L-.91,261.7l-6.64-88.99Z"/>
        </g>
        <g>
          <path class="st7" d="M63.17,224.77c-4.49-22.45-9.49-45.7-23.7-64.27-3.18-4.16-6.8-8.01-10.85-11.34-3.1-2.55-8.96-7.39-12.71-3.12-1.74,1.98-1.58,5.33-1.75,7.8-.2,2.87-.28,5.75-.23,8.63.11,5.94.73,11.86,1.71,17.72,2.22,13.28,9.04,35.07,13.18,47.85.18.55.76.78,1.37.75,9.63,2.24,17.34-1.87,27.11-.39,1.8.27,3.42-1.63,5.15-2.49.38-.19.79-.68.7-1.14Z"/>
          <path class="st6" d="M137.95,168.27c-2.51-1.59-5.94,1.48-7.78,2.87-5.62,4.26-10.52,9.39-15.32,14.53-11.41,12.24-22.48,24.8-33.53,37.36-1,1.13-1.99,2.26-2.98,3.4-.53.6.58.68.99.64-.01,0-.01,0,.02,0,.02,0,.06,0,.07,0-.03,0-.04,0-.06,0,.02,0,.05,0,.1,0,.38.03.76.07,1.14.12,1.13.14,2.26.31,3.39.49,3.26.51,6.52,1.07,9.78,1.59,7.38,1.19,14.83,2.45,22.32,2.73,3.14.12,6.41-.04,9.28-1.46,2.31-1.14,3.58-3.17,4.27-5.59.86-3.04,1.24-6.26,1.8-9.37,2.43-13.55,4.87-27.11,7.3-40.66.33-1.84,1.2-5.39-.79-6.66Z"/>
          <path class="st9" d="M16.21,147.33c11.79,18.42,21.9,37.91,30.13,58.17,2.33,5.73,4.5,11.52,6.53,17.37.25.73,1.98.24,1.73-.46-7.19-20.68-16.25-40.7-27.08-59.73-3.1-5.44-6.34-10.8-9.72-16.08-.38-.6-2.05.02-1.6.73h0Z"/>
          <path class="st9" d="M37.27,182.12c-6.48-1.49-13.04-2.62-19.64-3.4-.72-.08-1.82.92-.65,1.06,6.47.76,12.9,1.88,19.25,3.34.38.09.96-.02,1.23-.33.23-.27.22-.58-.18-.68h0Z"/>
          <path class="st9" d="M36.06,179.94c-6.33-1.8-12.76-3.26-19.25-4.36-.39-.07-.95.01-1.23.33-.22.25-.23.58.17.65,6.49,1.1,12.92,2.56,19.25,4.36.58.17,2.04-.7,1.05-.98h0Z"/>
          <path class="st9" d="M44.29,195.86c2.07-3.87,4.58-7.49,7.44-10.81.27-.31-.23-.44-.45-.44-.39,0-.89.15-1.15.46-2.93,3.39-5.46,7.09-7.57,11.04-.18.34.6.33.73.31.37-.05.81-.21.99-.55h0Z"/>
          <path class="st9" d="M46.28,198.65c2.46-3.67,4.92-7.34,7.38-11.01.23-.35-.2-.55-.49-.58-.4-.03-.91.14-1.14.49-2.46,3.67-4.92,7.34-7.38,11.01-.23.35.2.55.49.58.4.03.91-.14,1.14-.49h0Z"/>
          <path class="st9" d="M51.49,214.05c-4.29-2.34-8.85-4.06-13.43-5.73-5-1.82-10-3.64-15-5.46-.71-.26-2.03.76-1.01,1.14,4.85,1.77,9.71,3.54,14.56,5.31s9.22,3.37,13.53,5.73c.64.35,2.17-.53,1.34-.98h0Z"/>
          <path class="st9" d="M51.92,216.84c-4.27-2.33-8.81-4.04-13.37-5.7-5-1.82-10-3.64-15-5.46-.41-.15-1.97.5-1.42.71,4.85,1.77,9.71,3.54,14.56,5.31,4.63,1.69,9.26,3.39,13.59,5.76.46.25,1.9-.46,1.63-.61h0Z"/>
          <g>
            <path class="st6" d="M101.68,182.54c.29-4.35.48-8.7.56-13.05.08-3.96.45-8.22-.37-12.12-.66-3.12-2.57-5.92-5.77-6.79-3.32-.9-6.76.27-8.89,2.92-2.54,3.16-4.68,6.72-6.92,10.09-2.35,3.54-4.66,7.11-6.92,10.71-4.49,7.14-8.8,14.38-12.93,21.73-4.02,7.15-8.4,14.41-10.84,22.29-.6,1.94-1.34,7.76-1.64,9.76-.01.07.33-3.71.44-3.66.08.06-.06,3.95.12,3.97,8.01,1.14,15.94.64,23.97,1.58,3,.35,6.37-1.62,9.37-1.32,1.36.14,2.71.26,4.07.38,1.47.13,2.97.34,4.45.15,1.6-.2,3.45-.86,4.45-2.21.52-.7.63-1.66.82-2.48.25-1.12.49-2.23.72-3.35.88-4.19,1.66-8.41,2.34-12.64,1.39-8.6,2.38-17.26,2.96-25.96Z"/>
            <g>
              <path class="st9" d="M94.7,152.64c-8.78,18.63-17.37,37.58-22.05,57.72-1.29,5.55-2.26,11.18-2.87,16.84-.03.25,1.68.07,1.73-.46,2.2-20.45,9.36-39.93,17.65-58.62,2.35-5.29,4.79-10.53,7.26-15.77.14-.29-1.5-.16-1.71.3h0Z"/>
              <path class="st9" d="M71.65,225.09c-3.82-7.75-7.79-15.42-14.28-21.29-.55-.49-2.18.21-1.59.74,6.42,5.8,10.37,13.35,14.14,21.01.35.71,2.06.2,1.73-.46h0Z"/>
              <path class="st9" d="M72.6,218.54c-1.21-3.57-3.18-6.83-5.41-9.85-1.02-1.39-2.11-2.72-3.25-4.01-1.35-1.53-2.82-2.95-3.98-4.64-.28-.41-1.86.29-1.73.46,1.04,1.51,2.32,2.81,3.55,4.16,1.3,1.43,2.53,2.93,3.68,4.49,2.23,3.02,4.2,6.29,5.41,9.85.13.38,1.85-.13,1.73-.46h0Z"/>
              <path class="st9" d="M75.41,205.97c7.54-5.06,15.46-9.28,24.04-12.29,1.04-.36.72-1.63-.34-1.26-8.89,3.11-17.06,7.46-24.87,12.69-.97.65.43,1.35,1.17.86h0Z"/>
              <path class="st9" d="M74.59,209.38c4.38-3.05,9.31-5.39,14.06-7.79,3.72-1.88,7.64-3.55,11.23-5.68,1.01-.6-.49-.97-1.1-.6-3.64,2.16-7.62,3.84-11.39,5.75-4.7,2.38-9.57,4.71-13.9,7.72-.96.67.5,1.02,1.1.6h0Z"/>
              <path class="st9" d="M83.28,181.89c-2.72-3.07-5-6.54-6.96-10.13-.22-.41-1.86.23-1.73.46,1.99,3.64,4.31,7.14,7.06,10.25.28.31,1.88-.3,1.64-.58h0Z"/>
              <path class="st9" d="M81.4,185.47c-2.28-3.63-4.56-7.27-6.83-10.9-.39-.62-2.05.01-1.59.74,2.28,3.63,4.56,7.27,6.83,10.9.39.62,2.05-.01,1.59-.74h0Z"/>
            </g>
          </g>
          <path class="st9" d="M136.91,170.18c-10.4,14.81-19.56,30.49-27.32,46.85-2.15,4.53-4.19,9.11-6.13,13.73-.24.58,1.49.38,1.74-.2,6.95-16.58,15.29-32.56,24.93-47.74,2.7-4.26,5.51-8.44,8.4-12.57.47-.66-1.28-.55-1.62-.06h0Z"/>
          <path class="st9" d="M110.64,217.71c-.84-6.96-2.16-13.74-3.98-20.51-.13-.47-1.86-.01-1.73.46,1.83,6.77,3.14,13.55,3.98,20.51.05.43,1.8.07,1.73-.46h0Z"/>
          <path class="st9" d="M112.78,213.33c-1.13-6.59-2.29-13.17-3.42-19.76-.13-.74-1.87-.31-1.73.46,1.13,6.59,2.29,13.17,3.42,19.76.13.74,1.87.31,1.73-.46h0Z"/>
          <path class="st9" d="M119.22,200.49c4.8-1.18,9.61-2.33,14.5-3.03.3-.04.94-.21.98-.59s-.5-.42-.75-.38c-5.05.72-10.02,1.91-14.97,3.13-.26.06-.85.31-.75.67s.74.27.99.21h0Z"/>
          <path class="st9" d="M118.19,203.05c5.06-.78,10.1-1.66,15.09-2.8.27-.06.84-.33.74-.7s-.73-.29-.99-.23c-4.84,1.11-9.72,1.96-14.62,2.71-.31.05-.93.22-.98.61s.49.45.76.41h0Z"/>
          <path class="st9" d="M128.58,184.84c-.59-3.25-.94-6.57-.99-9.87,0-.32-1.74-.06-1.73.46.04,3.3.4,6.62.99,9.87.07.39,1.82,0,1.73-.46h0Z"/>
          <path class="st9" d="M101.29,201.72c1.64,6.85,3.62,13.6,5.82,20.29.28.84,2.01.36,1.73-.46-2.2-6.69-4.19-13.44-5.82-20.29-.2-.85-1.94-.39-1.73.46h0Z"/>
        </g>
        <g>
          <g class="st2">
            <path class="st9" d="M110.14,195.69c3.2,2.38,6.09,5.77,9.03,8.2,3.01,2.19,6.9,4.12,10.11,6.23,3.45,2.14,6.81,4.33,10.24,6.42,3.42,2.12,6.91,4.09,10.61,6.15-8.48-.07-16.51-3.89-23.55-8.25-3.63-2.42-7.09-4.38-10.18-7.67-2.85-3.51-4.46-7.09-6.26-11.08h0Z"/>
          </g>
          <g class="st2">
            <path class="st9" d="M128.57,183.71c5.53,6.35,12.28,11.28,14.74,19.67-7.12-2.89-16.2-11.29-14.74-19.67h0Z"/>
          </g>
          <g class="st2">
            <path class="st9" d="M141.67,160.75c4.49,5.03,6.44,11.42,6.05,18.02-.05.15-.02.93-.21.98-.05.02-.15.11-.1.14.03.01.12-.05.05-.07.05-.1.2.03.19.13-.11.51-.71.01-.84-.06-5.91-4.07-8.4-12.59-5.14-19.14h0Z"/>
          </g>
          <g class="st3">
            <path class="st13" d="M23.97,165.11c5.3-1.28,8.86,6.67,4.35,9.76-2.9-3.16-3.91-5.5-4.35-9.76h0Z"/>
          </g>
          <g class="st3">
            <path class="st13" d="M46.45,175.06c4.66,13.33-9.75,25.31-20.34,30.68,2.98-5.73,7.48-10.36,11.52-15.1,4.04-4.74,7.25-9.32,8.82-15.58h0Z"/>
          </g>
          <g class="st3">
            <path class="st13" d="M52.17,206.79c4.16,9.49-4.78,15.85-13.63,15.14,2.29-3.01,5.39-4.44,7.83-7.07,1.08-1.09,2-2.18,2.85-3.38,1.01-1.38,1.61-3.34,2.95-4.69h0Z"/>
          </g>
        </g>
        <g class="st8">
          <g>
            <g>
              <path class="st13" d="M173.67,190.73c-5.49-23.07-20.08-43.84-39.92-56.83,5.48,9.66,7.84,20.7,10.98,31.35,3.14,10.65,7.39,21.47,15.57,28.97-13.21-11.27-26.64-22.78-35.81-37.53.05,17.49,8.27,34.78,21.8,45.86,8.84,7.24,19.91,12.09,26.64,21.32"/>
              <path class="st13" d="M176.17,190.07c-4.34-18.05-14.15-34.67-27.71-47.33-3.84-3.58-7.97-6.83-12.36-9.71-.76-.5-5.46.45-4.84,1.54,8.7,15.5,9.52,34.02,18.2,49.53,2.28,4.06,5.08,7.83,8.5,11l4.69-1.75c-13.09-11.17-26.44-22.59-35.66-37.33-.71-1.14-5-.04-4.99,1.34.07,11.33,3.47,22.52,9.57,32.05,3.02,4.72,6.67,9.04,10.87,12.74s9.11,6.78,13.81,9.96c5.3,3.58,10.49,7.44,14.33,12.64.74,1,5.53-.62,4.69-1.75-6.78-9.18-17.47-13.96-26.18-20.95-8.82-7.08-15.4-16.74-19-27.45-2.01-5.99-3.07-12.26-3.11-18.57l-4.99,1.34c9.31,14.9,22.72,26.45,35.96,37.74,1.03.88,5.59-.92,4.69-1.75-12.86-11.91-15.28-30.24-20.45-46.1-1.58-4.84-3.46-9.58-5.96-14.02l-4.84,1.54c15.44,10.16,27.66,24.89,34.9,41.89,2.03,4.77,3.65,9.7,4.87,14.74.29,1.2,5.3-.06,4.99-1.34h0Z"/>
            </g>
            <g>
              <path class="st13" d="M171.74,218.08c-18.23-15.69-45.17-15.76-60.09-23.61,5.67,6.28,12,12.02,19.18,16.5,6.86,4.28,14.81,7.21,21.91,11.08,12.5,6.82,27.14,15.29,38.04,24.45"/>
              <path class="st13" d="M174.07,217.17c-13.84-11.81-31.92-14.55-48.84-19.42-3.96-1.14-7.9-2.45-11.56-4.35-.9-.47-5.48.75-4.36,1.99,4.16,4.6,8.65,8.91,13.6,12.65s10.47,6.75,16.15,9.42c5.59,2.63,11.09,5.33,16.49,8.34s10.76,6.14,15.99,9.46c5.86,3.72,11.58,7.69,16.91,12.15.8.67,2.41.21,3.26-.13.41-.16,2.2-1.04,1.42-1.69-9.52-7.97-20.23-14.46-31.01-20.55-5.3-2.99-10.63-5.83-16.15-8.41s-11.29-5.35-16.43-8.99c-5.72-4.06-10.84-8.89-15.54-14.07l-4.36,1.99c6.72,3.5,14.31,5.15,21.6,6.99,8.56,2.16,17.17,4.42,25.2,8.18,4.67,2.19,9.05,4.92,12.98,8.27,1.16.99,5.73-.92,4.67-1.82h0Z"/>
            </g>
            <path class="st9" d="M137.53,138.93c23.07,13.18,18.99,44.7,33.25,64.33-18.52-17.13-13.78-47.75-33.25-64.33h0Z"/>
            <path class="st9" d="M126.11,163.33c11.28,19.37,28.84,33.72,47,46.38-19.47-7.42-41.06-25.91-47-46.38h0Z"/>
            <path class="st9" d="M111.65,194.47c7.65,4.3,16.72,7.58,24.86,10.85,13.87,5.74,28.83,11.58,39.35,22.67-12.55-8.35-26.94-13.55-40.62-19.67-8.24-3.79-16.83-7.66-23.59-13.85h0Z"/>
          </g>
        </g>
        <g>
          <path class="st9" d="M48.36,204.76c-3.54-1.65-8.27-1.08-11.96-.27-3.2.7-6.25,1.92-9.05,3.59,2.74-3.31,5.49-6.63,8.23-9.94,2.95-3.57,6.08-7.04,8.84-10.76,2.11-2.84,3.84-6.47,2.56-10.04-1.12-3.13-4.32-4.27-7.42-4.06-4.14.29-7.56,2.73-11.35,4.11-.16-3.31-.52-7.14-3.58-9.1-2.27-1.46-4.91-.82-6.93.74-4.64,3.57-8.12,8.94-10.25,14.47-.24-5.21-.47-10.43-.71-15.64-.19-4.15-.34-9.65-5.58-10.26-4.1-.48-7.56,2.09-9.77,5.3-3.04,4.42-5.25,9.63-7.24,14.6-2.21,5.53-3.95,11.25-5.25,17.06-1.2-1.27-2.4-2.54-3.6-3.8-1.02-1.08-2.15-2.75-3.73-2.99-2.26-.35-3.83,1.57-4.47,3.5-.91,2.76-.79,5.99-.59,8.85.24,3.41.87,6.79,1.77,10.07.98,3.53,2.28,6.98,4.04,10.2.1.18.61.05.92-.1l7.52,1.22c-.21.1-.37.21-.32.23,14.44,7.03,31.04,9.17,46.82,6.25,3.82-.71,7.6-1.71,11.26-3.01,3.26-1.15,6.56-2.51,9.28-4.71,2.48-2,4.26-4.72,4.49-7.95.22-3.07-1.05-6.22-3.95-7.57Z"/>
          <path class="st12" d="M-10.38,217.88c.73-15.28,2.73-30.58,7.48-45.18,1.37-4.21,2.96-8.33,4.77-12.37.26-.59-2-.35-2.31.34-6.27,14.01-9.68,29.05-11.26,44.27-.46,4.41-.77,8.84-.98,13.28-.04.83,2.28.34,2.31-.34h0Z"/>
          <path class="st12" d="M-3.7,224.36c2.64-6.41,4.76-13.01,7.25-19.47,2.67-6.91,5.96-13.52,10.06-19.71,3.16-4.77,6.71-9.26,10.45-13.58.34-.39-.3-.42-.56-.41-.46,0-1.23.19-1.55.56-6,6.94-11.51,14.34-15.77,22.49-3.19,6.12-5.56,12.59-7.87,19.08-1.37,3.84-2.76,7.67-4.31,11.44-.18.43,2.04.22,2.3-.4h0Z"/>
          <path class="st12" d="M-1.15,225.63c10.89-12.82,21.55-26.02,34.38-36.99,3.62-3.09,7.41-5.98,11.37-8.63.44-.29.54-.89.12-1.23-.47-.38-1.22-.16-1.67.13-14.14,9.43-25.73,22.03-36.72,34.87-3.16,3.69-6.29,7.42-9.44,11.13-.96,1.12,1.25,1.55,1.95.72h0Z"/>
          <path class="st12" d="M21.44,224.52c8.21-6.28,18.28-9.11,27.56-13.37,1.46-.67.13-1.54-.94-1.04-9.45,4.34-19.71,7.25-28.08,13.64-1.25.95.7,1.35,1.46.77h0Z"/>
        </g>
      </g>
      <g>
        <path class="st6" d="M42.92,25.71c-.08-6.49-4.33-12.28-10.54-14.22-5.93-1.85-12.65.06-16.72,4.74-4.27,4.89-4.87,12.17-1.46,17.69,3.35,5.43,9.9,8.05,16.1,6.82,7.15-1.42,12.53-7.59,12.62-14.92,0-.02-.01-.03-.02-.05,0-.02.02-.04.02-.06Z"/>
        <g>
          <path class="st10" d="M22.32,31.61c-.02-7.12,4.94-13.81,12.09-15.12l-.55-.05c.34,2.04.74,4.11.62,6.19s-.99,3.65-2.27,5.18c-2.36,2.82-5.68,5.41-9.56,4.88-.3-.04-.67.04-.94.18-.09.04-.48.28-.17.32,4.07.55,7.93-1.42,10.75-4.25,1.49-1.5,3.01-3.29,3.42-5.42.47-2.45-.08-5.03-.48-7.45-.02-.15-.48-.06-.55-.05-3.65.67-7.11,2.42-9.62,5.19-2.66,2.93-4.1,6.8-4.09,10.75,0,.18,1.35,0,1.35-.36h0Z"/>
          <path class="st10" d="M33.73,16.55c-5.05,6.21-9.93,12.59-14.57,19.11-.29.4,1.03.23,1.24-.06,4.64-6.52,9.52-12.9,14.57-19.11.3-.37-1.01-.22-1.24.06h0Z"/>
          <path class="st10" d="M29.46,23.06c-.25-.61-.31-1.34-.39-1.99-.08-.69-.14-1.39-.21-2.08,0-.11-.18-.17-.26-.19-.16-.04-.35-.02-.51.03-.23.07-.61.22-.59.52.06.69.12,1.39.21,2.08.08.65.13,1.37.39,1.99.11.27.54.23.77.16.16-.05.7-.25.59-.52h0Z"/>
          <path class="st10" d="M27.3,26.13c-.38-1.55-.81-3.12-1.04-4.71-.06-.4-1.42-.1-1.35.36.23,1.59.65,3.15,1.04,4.71.1.42,1.46.07,1.35-.36h0Z"/>
          <path class="st10" d="M24.85,29c-.32-1.12-.64-2.24-.95-3.35l-.14-.48c-.09-.32-.53-.37-.8-.29s-.65.32-.55.65c.32,1.12.64,2.24.95,3.35l.14.48c.09.32.53.37.8.29s.65-.32.55-.65h0Z"/>
          <path class="st10" d="M29.27,23.26c1.79-.23,3.59-.25,5.38-.03.33.04.71-.02.96-.26.19-.18.17-.46-.13-.5-2.01-.25-4.02-.25-6.03,0-.25.03-.72.17-.77.47s.39.33.59.31h0Z"/>
          <path class="st10" d="M26.26,27.46c2.2-.22,4.39-.43,6.59-.65l.95-.09c.31-.03.71-.22.74-.57s-.35-.52-.64-.49c-2.2.22-4.39.43-6.59.65l-.95.09c-.31.03-.71.22-.74.57s.35.52.64.49h0Z"/>
          <path class="st10" d="M23.16,31.18c2.2-.36,4.42-.58,6.64-.77.27-.02.72-.1.91-.32s-.17-.23-.32-.21c-2.33.2-4.66.44-6.97.81-.19.03-.73.14-.79.37s.46.14.54.12h0Z"/>
        </g>
      </g>
    </g>
  </g>
</svg>