<svg width="171" height="228" viewBox="0 0 171 228" fill="none" xmlns="http://www.w3.org/2000/svg">
<rect width="170.08" height="226.77" transform="translate(0 0.620117)" fill="#8CA33A"/>
<rect x="65.04" y="56.6201" width="40" height="40" rx="20" fill="#27613F"/>
<path d="M76.54 83.6201C76.9379 83.6201 77.3194 83.7782 77.6007 84.0595C77.882 84.3408 78.04 84.7223 78.04 85.1201C78.04 85.5179 77.882 85.8995 77.6007 86.1808C77.3194 86.4621 76.9379 86.6201 76.54 86.6201C76.1422 86.6201 75.7607 86.4621 75.4794 86.1808C75.1981 85.8995 75.04 85.5179 75.04 85.1201C75.04 84.7223 75.1981 84.3408 75.4794 84.0595C75.7607 83.7782 76.1422 83.6201 76.54 83.6201ZM81.54 80.6201C82.2031 80.6201 82.839 80.8835 83.3078 81.3524C83.7766 81.8212 84.04 82.4571 84.04 83.1201C84.04 83.7832 83.7766 84.419 83.3078 84.8879C82.839 85.3567 82.2031 85.6201 81.54 85.6201C80.877 85.6201 80.2411 85.3567 79.7723 84.8879C79.3034 84.419 79.04 83.7832 79.04 83.1201C79.04 82.4571 79.3034 81.8212 79.7723 81.3524C80.2411 80.8835 80.877 80.6201 81.54 80.6201ZM87.54 79.6201C86.35 79.6201 85.27 79.1201 84.54 78.2701C83.81 79.1201 82.73 79.6201 81.54 79.6201C79.58 79.6201 77.95 78.2101 77.61 76.3601C76.8548 76.0681 76.2054 75.5548 75.7469 74.8874C75.2883 74.2201 75.0419 73.4298 75.04 72.6201C75.04 71.5593 75.4615 70.5418 76.2116 69.7917C76.9618 69.0415 77.9792 68.6201 79.04 68.6201L79.81 68.6901C80.54 68.0301 81.49 67.6201 82.54 67.6201C83.73 67.6201 84.81 68.1201 85.54 68.9701C86.27 68.1201 87.35 67.6201 88.54 67.6201C90.5 67.6201 92.13 69.0301 92.47 70.8801C93.2252 71.1722 93.8746 71.6855 94.3332 72.3528C94.7918 73.0202 95.0381 73.8104 95.04 74.6201C95.04 75.681 94.6186 76.6984 93.8685 77.4485C93.1183 78.1987 92.1009 78.6201 91.04 78.6201L90.27 78.5501C89.54 79.2101 88.59 79.6201 87.54 79.6201ZM79.04 70.6201C78.5096 70.6201 78.0009 70.8308 77.6258 71.2059C77.2508 71.581 77.04 72.0897 77.04 72.6201C77.04 73.1506 77.2508 73.6593 77.6258 74.0343C78.0009 74.4094 78.5096 74.6201 79.04 74.6201C79.37 74.6201 79.68 74.5401 79.96 74.4001C79.6891 74.7492 79.5414 75.1782 79.54 75.6201C79.54 76.1505 79.7508 76.6593 80.1258 77.0343C80.5009 77.4094 81.0096 77.6201 81.54 77.6201C82.14 77.6201 82.68 77.3501 83.04 76.9301L84.51 75.2501L86.04 76.9601C86.42 77.3601 86.95 77.6201 87.54 77.6201C88.54 77.6201 89.37 76.8801 89.54 75.9201C89.88 76.3501 90.43 76.6201 91.04 76.6201C91.5705 76.6201 92.0792 76.4094 92.4543 76.0343C92.8293 75.6593 93.04 75.1506 93.04 74.6201C93.04 74.0897 92.8293 73.581 92.4543 73.2059C92.0792 72.8308 91.5705 72.6201 91.04 72.6201C90.71 72.6201 90.4 72.7001 90.12 72.8401C90.391 72.491 90.5387 72.062 90.54 71.6201C90.54 71.0897 90.3293 70.581 89.9543 70.2059C89.5792 69.8308 89.0705 69.6201 88.54 69.6201C87.95 69.6201 87.42 69.8801 87.04 70.2801L85.51 71.9901L84.04 70.3101C83.68 69.8901 83.14 69.6201 82.54 69.6201C81.54 69.6201 80.71 70.3601 80.54 71.3201C80.2 70.8901 79.65 70.6201 79.04 70.6201ZM81.54 82.1201C81.2748 82.1201 81.0205 82.2255 80.8329 82.413C80.6454 82.6005 80.54 82.8549 80.54 83.1201C80.54 83.3853 80.6454 83.6397 80.8329 83.8272C81.0205 84.0148 81.2748 84.1201 81.54 84.1201C81.8053 84.1201 82.0596 84.0148 82.2471 83.8272C82.4347 83.6397 82.54 83.3853 82.54 83.1201C82.54 82.8549 82.4347 82.6005 82.2471 82.413C82.0596 82.2255 81.8053 82.1201 81.54 82.1201Z" fill="white"/>
</svg>
