<svg width="264" height="397" viewBox="0 0 264 397" fill="none" xmlns="http://www.w3.org/2000/svg">
<rect width="264" height="396" transform="translate(0 0.620117)" fill="#8CA33A"/>
<rect x="100" y="56.6201" width="64" height="64" rx="32" fill="#27613F"/>
<path d="M120.667 97.9535C121.197 97.9535 121.706 98.1642 122.081 98.5392C122.456 98.9143 122.667 99.423 122.667 99.9535C122.667 100.484 122.456 100.993 122.081 101.368C121.706 101.743 121.197 101.953 120.667 101.953C120.136 101.953 119.628 101.743 119.253 101.368C118.877 100.993 118.667 100.484 118.667 99.9535C118.667 99.423 118.877 98.9143 119.253 98.5392C119.628 98.1642 120.136 97.9535 120.667 97.9535ZM127.333 93.9535C128.217 93.9535 129.065 94.3046 129.69 94.9298C130.316 95.5549 130.667 96.4027 130.667 97.2868C130.667 98.1708 130.316 99.0187 129.69 99.6438C129.065 100.269 128.217 100.62 127.333 100.62C126.449 100.62 125.602 100.269 124.976 99.6438C124.351 99.0187 124 98.1708 124 97.2868C124 96.4027 124.351 95.5549 124.976 94.9298C125.602 94.3046 126.449 93.9535 127.333 93.9535ZM135.333 92.6201C133.747 92.6201 132.307 91.9535 131.333 90.8201C130.36 91.9535 128.92 92.6201 127.333 92.6201C124.72 92.6201 122.547 90.7401 122.093 88.2735C121.086 87.884 120.221 87.1996 119.609 86.3099C118.998 85.4201 118.669 84.3664 118.667 83.2868C118.667 81.8723 119.229 80.5157 120.229 79.5155C121.229 78.5154 122.586 77.9535 124 77.9535L125.027 78.0468C126 77.1668 127.267 76.6201 128.667 76.6201C130.253 76.6201 131.693 77.2868 132.667 78.4201C133.64 77.2868 135.08 76.6201 136.667 76.6201C139.28 76.6201 141.453 78.5001 141.907 80.9668C142.914 81.3562 143.78 82.0406 144.391 82.9304C145.002 83.8202 145.331 84.8738 145.333 85.9535C145.333 87.3679 144.772 88.7245 143.771 89.7247C142.771 90.7249 141.415 91.2868 140 91.2868L138.973 91.1935C138 92.0735 136.733 92.6201 135.333 92.6201ZM124 80.6201C123.293 80.6201 122.615 80.9011 122.114 81.4012C121.614 81.9013 121.333 82.5795 121.333 83.2868C121.333 83.994 121.614 84.6723 122.114 85.1724C122.615 85.6725 123.293 85.9535 124 85.9535C124.44 85.9535 124.853 85.8468 125.227 85.6601C124.866 86.1256 124.669 86.6976 124.667 87.2868C124.667 87.994 124.948 88.6723 125.448 89.1724C125.948 89.6725 126.626 89.9535 127.333 89.9535C128.133 89.9535 128.853 89.5935 129.333 89.0335L131.293 86.7935L133.333 89.0735C133.84 89.6068 134.547 89.9535 135.333 89.9535C136.667 89.9535 137.773 88.9668 138 87.6868C138.453 88.2601 139.187 88.6201 140 88.6201C140.707 88.6201 141.386 88.3392 141.886 87.8391C142.386 87.339 142.667 86.6607 142.667 85.9535C142.667 85.2462 142.386 84.5679 141.886 84.0678C141.386 83.5677 140.707 83.2868 140 83.2868C139.56 83.2868 139.147 83.3935 138.773 83.5801C139.135 83.1147 139.332 82.5426 139.333 81.9535C139.333 81.2462 139.052 80.5679 138.552 80.0678C138.052 79.5677 137.374 79.2868 136.667 79.2868C135.88 79.2868 135.173 79.6335 134.667 80.1668L132.627 82.4468L130.667 80.2068C130.187 79.6468 129.467 79.2868 128.667 79.2868C127.333 79.2868 126.227 80.2735 126 81.5535C125.547 80.9801 124.813 80.6201 124 80.6201ZM127.333 95.9535C126.98 95.9535 126.641 96.0939 126.391 96.344C126.141 96.594 126 96.9332 126 97.2868C126 97.6404 126.141 97.9795 126.391 98.2296C126.641 98.4796 126.98 98.6201 127.333 98.6201C127.687 98.6201 128.026 98.4796 128.276 98.2296C128.526 97.9795 128.667 97.6404 128.667 97.2868C128.667 96.9332 128.526 96.594 128.276 96.344C128.026 96.0939 127.687 95.9535 127.333 95.9535Z" fill="white"/>
</svg>
