<?xml version="1.0" encoding="UTF-8"?>
<svg xmlns="http://www.w3.org/2000/svg" xmlns:xlink="http://www.w3.org/1999/xlink" version="1.1" viewBox="0 0 170.08 226.77">
  <!-- Generator: Adobe Illustrator 29.0.0, SVG Export Plug-In . SVG Version: 2.1.0 Build 186)  -->
  <defs>
    <style>
      .st0 {
        fill: none;
      }

      .st1 {
        fill: #eee6e1;
      }

      .st2 {
        mix-blend-mode: multiply;
        opacity: .6;
      }

      .st3 {
        fill: #dec2a4;
      }

      .st4 {
        isolation: isolate;
      }

      .st5 {
        clip-path: url(#clippath-1);
      }

      .st6 {
        clip-path: url(#clippath-2);
      }

      .st7 {
        fill: #27613f;
      }

      .st8 {
        fill: #fff;
      }

      .st9 {
        opacity: .5;
      }

      .st10 {
        fill: #528065;
      }

      .st11 {
        fill: #c88f5f;
      }

      .st12 {
        clip-path: url(#clippath);
      }

      .st13 {
        fill: #b5692a;
      }
    </style>
    <clipPath id="clippath">
      <rect class="st0" width="170.08" height="226.77"/>
    </clipPath>
    <clipPath id="clippath-1">
      <rect class="st0" x="86.16" y="161.32" width="59.54" height="79.85" transform="translate(-65.44 346.32) rotate(-98.71)"/>
    </clipPath>
    <clipPath id="clippath-2">
      <rect class="st0" x="116.57" y="142.23" width="57.33" height="102.11"/>
    </clipPath>
  </defs>
  <g class="st4">
    <g id="Layer_1">
      <g class="st12">
        <path class="st1" d="M-4.8,197.03c18.73-22.22,45.56-36.35,73.34-44.89,35.31-10.85,73.14-13.4,109.59-7.38v84.2H-7.21l2.41-31.93Z"/>
        <g class="st9">
          <path class="st3" d="M173.54,155.55c-7.73-.74-15.52-1.49-23.26-.82-7.74.67-15.52,2.85-21.78,7.45-3.86,2.84-7.03,6.5-10.77,9.49-4.39,3.52-9.55,6.07-15.01,7.43-8.92,2.22-18.33,1.25-27.39,2.81-17.83,3.06-33.44,16.65-38.92,33.89-4.19,13.18-2.71,27.41-1.07,41.14l142.49.82-4.3-102.21Z"/>
        </g>
        <path class="st3" d="M164.43,184.55c-13.34-4.19-27.47-8.39-41.45-4.72-3.41.89-6.62,2.29-9.68,4.04s-5.84,3.66-8.92,5.2c-6.54,3.28-13.78,4.25-21.01,3.54s-14.47-2.56-21.83-2.73c-5.77-.13-11.57.79-17.05,2.59-11.04,3.62-21,10.75-27.49,20.44-8.48,12.67-10.12,28.31-11.45,43.11-.1,1.1,2.89.52,2.98-.41,1.16-12.94,2.5-26.37,8.53-38.11,5.21-10.13,14.15-18.15,24.66-22.5,5.19-2.15,10.76-3.4,16.38-3.55,6.95-.19,13.75,1.43,20.6,2.34s13.75.86,20.43-1.15c3.16-.95,6.18-2.26,9.05-3.88s5.6-3.47,8.51-5.01c14.28-7.54,31-2.36,45.34,2.15.68.21,1.5.06,2.11-.3.31-.19.99-.85.29-1.07h0Z"/>
        <g>
          <g class="st2">
            <path class="st3" d="M108.14,180.35c-4.29-1.52-7.94,4.77-4.46,7.72,2.68-2.37,3.73-4.23,4.46-7.72h0Z"/>
          </g>
          <g class="st2">
            <path class="st3" d="M88.63,186.65c-5.03,10.66,5.9,21.85,14.22,27.23-1.98-5.01-5.31-9.25-8.25-13.54-2.94-4.28-5.21-8.36-5.96-13.69h0Z"/>
          </g>
          <g class="st2">
            <path class="st3" d="M81.13,212.5c-4.28,7.52,2.59,13.57,10,13.75-1.64-2.7-4.09-4.16-5.89-6.54-.8-1-1.47-1.98-2.07-3.06-.71-1.23-1.04-2.91-2.04-4.15h0Z"/>
          </g>
        </g>
        <g class="st5">
          <g>
            <path class="st7" d="M84.73,208.6c3.08-1.06,6.95-.18,9.95.81,2.6.86,5.02,2.13,7.2,3.76-1.99-2.99-3.98-5.98-5.97-8.97-2.14-3.22-4.43-6.37-6.4-9.7-1.5-2.54-2.62-5.7-1.25-8.55,1.2-2.5,3.96-3.17,6.51-2.72,3.41.6,6.04,2.92,9.07,4.4.42-2.73,1.05-5.88,3.76-7.24,2.01-1.01,4.14-.25,5.69,1.22,3.54,3.37,5.97,8.12,7.25,12.9.65-4.31,1.3-8.61,1.95-12.92.52-3.42,1.12-7.98,5.52-8.03,3.44-.04,6.09,2.39,7.65,5.25,2.14,3.94,3.52,8.45,4.74,12.74,1.36,4.79,2.3,9.68,2.88,14.62,1.11-.95,2.21-1.9,3.32-2.85.94-.81,2.02-2.09,3.36-2.16,1.9-.09,3.04,1.64,3.4,3.3.52,2.37.14,5.04-.28,7.4-.49,2.81-1.31,5.56-2.35,8.21-1.12,2.85-2.5,5.6-4.24,8.11-.1.14-.51-.01-.76-.16l-6.35.36c.17.1.29.2.24.22-12.59,4.58-26.56,4.91-39.4,1.12-3.11-.92-6.16-2.08-9.09-3.47-2.61-1.24-5.23-2.65-7.29-4.71-1.88-1.88-3.12-4.29-3.04-6.99.08-2.57,1.41-5.07,3.94-5.94Z"/>
            <path class="st10" d="M141.29,225.9c4.97-6.1,8.8-13.05,11.31-20.51.1-.31-1.75-.12-1.91.36-2.51,7.46-6.34,14.41-11.31,20.51-.21.26.72.16.77.15.38-.07.89-.19,1.14-.51h0Z"/>
            <path class="st10" d="M134.27,224.74c.93-16.51,0-33.19-5.18-49-.27-.83-2.21-.3-1.94.52,5.14,15.71,6.08,32.25,5.16,48.65-.05.95,1.91.64,1.96-.17h0Z"/>
            <path class="st10" d="M128.14,229.38c-1.63-5.56-2.82-11.24-4.34-16.83-1.62-5.99-3.79-11.78-6.68-17.28-2.22-4.24-4.78-8.28-7.52-12.2-.32-.46-2.08.31-1.94.52,4.36,6.26,8.27,12.85,11.08,19.96,2.11,5.33,3.5,10.87,4.85,16.43.81,3.32,1.63,6.64,2.6,9.91.12.42,2.06-.11,1.94-.52h0Z"/>
            <path class="st10" d="M125.75,229.61c-10.19-14.89-20.14-30.36-34.16-42.01-.54-.45-2.35.31-1.8.77,14.03,11.65,23.97,27.11,34.16,42.01.38.55,2.26-.1,1.8-.77h0Z"/>
            <path class="st10" d="M106.9,226.69c-6.38-6.02-14.6-9.32-22.05-13.72-.58-.34-2.36.49-1.53.98,7.35,4.35,15.5,7.59,21.79,13.53.52.49,2.35-.25,1.8-.78h0Z"/>
          </g>
        </g>
        <g class="st6">
          <g>
            <path class="st13" d="M191.1,247.57c-1.73-1.44-3.5-2.82-5.31-4.16l-9.84-14.69c.04-.2,0-.41-.15-.62-.48-.65-.99-1.27-1.52-1.87l-.39-.59.03-1.24c.76-.38,1.25-.87.87-1.2-.27-.23-.55-.44-.83-.66l.46-20.76c1.18-.22,2.38-.95,2.17-1.81-3.75-15.57-12.23-29.96-23.97-40.85-3.32-3.08-6.91-5.87-10.69-8.36-.67-.44-1.89-.15-2.56.13-.41.18-1.63.88-1.28,1.5,6.75,12.04,8.01,26.18,13.7,38.63-6.57-6.19-12.68-12.83-17.5-20.52-.66-1.05-4.14-.15-4.13,1.11.07,9.73,2.85,19.19,7.98,27.46,2.56,4.12,5.7,7.9,9.33,11.13.14.12.28.24.42.36-4.96-1.37-9.99-2.58-14.91-3.99-3.41-.98-6.8-2.1-9.96-3.75-.77-.4-4.7.64-3.74,1.71,3.6,3.97,7.49,7.7,11.78,10.94,4.23,3.19,8.84,5.68,13.62,7.94,9.65,4.55,18.99,9.62,28,15.35,5,3.18,9.88,6.57,14.43,10.37,1,.84,4.91-.8,4.01-1.56Z"/>
            <path class="st11" d="M143.46,156.14c19.79,11.31,16.28,38.31,28.51,55.14-15.87-14.69-11.82-40.93-28.51-55.14h0Z"/>
            <path class="st11" d="M133.67,177.06c9.67,16.6,24.73,28.91,40.29,39.75-16.77-6.42-35.13-22.13-40.29-39.75h0Z"/>
            <path class="st11" d="M121.27,203.76c6.56,3.69,14.33,6.5,21.31,9.3,11.89,4.92,24.71,9.93,33.73,19.43-8.67-5.78-18.18-9.69-27.69-13.76-9.43-4.22-19.54-7.98-27.36-14.98h0Z"/>
          </g>
        </g>
      </g>
      <g>
        <path class="st13" d="M43.86,25.7c-.08-6.68-4.46-12.65-10.86-14.65-6.11-1.91-13.03.07-17.23,4.88-4.4,5.04-5.02,12.54-1.5,18.23,3.45,5.59,10.2,8.29,16.59,7.03,7.36-1.46,12.91-7.82,13-15.37,0-.02-.01-.03-.02-.05,0-.02.02-.04.02-.06Z"/>
        <g>
          <path class="st8" d="M27.21,17.47c-1.56,2.6-4.78-.43-6.7,1.5-.8.81-.37,1.82-.25,2.79.11.86-.26,1.13-.95,1.57-.42.26-.77.59-.95,1.06-.45,1.19.26,2.33,1.15,3.08.99.82,2.2,1.7,3.48,1.95.6.12,1.19.06,1.79-.04,1.1-.19,1.81-.16,2.71.57.95.77,1.77,1.64,3.05,1.78,1.16.12,2.28-.43,2.71-1.55.22-.58.27-1.9.95-1.98.37-.04,1.01.3,1.38.41.51.16,1.03.31,1.54.47.35.11.89-.08,1.1-.38.84-1.21-.1-2.33-.25-3.58-.03-.27-.08-.91.17-1.13.15-.13.53-.1.71-.14.41-.11.8-.32,1.07-.65.62-.76.46-1.95-.18-2.65-.96-1.05-2.49-.9-3.75-1.16-1.65-.35-.8-2.19-1.5-3.31-.62-1.01-1.96-1.1-3.03-1.11-1.85-.01-3.34.89-4.26,2.5-.35.6,1.09.49,1.33.06.81-1.41,2.44-2.34,4.06-1.44,1.09.61.66,1.95.97,2.93.29.92,1.07,1.13,1.95,1.24,1.17.14,2.86.17,3.27,1.54.11.37.17,1.06-.21,1.3-.29.19-.83.12-1.17.31-2.21,1.25.55,3.71-.52,5.24l1.1-.38c-1.19-.37-2.74-1.17-4.01-.94-.94.17-1.53.9-1.81,1.77-.23.73-.27,1.83-1.31,1.7-.66-.08-1.25-.73-1.72-1.14-.85-.74-1.71-1.33-2.88-1.31-.71.01-1.41.3-2.12.28-.78-.02-1.5-.47-2.13-.89-1.04-.69-2.74-1.78-2.31-3.29.3-1.05,1.82-1.04,2.01-2.28.12-.78-.88-2.89.37-3.04.56-.07,1.23.21,1.79.28.61.08,1.22.08,1.83-.03,1.18-.21,2.22-.82,2.85-1.86.36-.59-1.08-.49-1.33-.06Z"/>
          <path class="st8" d="M25.41,32.81c-.08.02-.17.03-.25.06.19-.07.1-.02.03,0-.04,0-.08,0-.13.01-.04,0-.09,0-.13,0,.12-.03.12,0,.06,0-.04,0-.08,0-.12,0-.03,0-.05,0-.08-.01.1.02.11.02.04,0-.06-.02-.18-.03-.23-.08l.06.03s-.05-.02-.07-.04c-.02-.01-.05-.03-.07-.04-.03-.02-.07-.05-.1-.07.09.08,0,0-.02-.02-.06-.07-.11-.14-.16-.22-.07-.1.03.09-.01-.02,0-.02-.02-.05-.03-.07-.03-.07-.05-.15-.06-.22,0-.04-.01-.08-.02-.11-.02-.12,0,.1,0-.03,0-.08,0-.15.02-.23,0-.04.02-.07.03-.11.03-.12-.05.09,0-.02.02-.03.03-.07.05-.1l.02-.03c.03-.05.03-.04-.02.03.01-.06.11-.11.15-.16-.09.12-.04.04,0,0,.02-.02.05-.03.07-.05-.1.05-.11.06-.04.03.03-.01.09-.03.12-.05l-.1.04s.05-.02.08-.03c.03,0,.06-.02.1-.02.1-.02-.2.02-.06.01.04,0,.08,0,.12-.01h.04c.07,0,.05,0-.07,0,.03,0,.08,0,.12,0,.05,0,.11.03.15.02-.12.01-.1-.02-.03,0,.03,0,.06.02.09.03.04.01.07.02.11.04h.04c.06.04.05.03-.03,0,.05,0,.16.09.21.11.07.04.13.09.19.14-.1-.08,0,0,.01.02.03.03.05.06.08.08.05.06.1.12.14.18.01.02.03.04.04.07.06.08-.03-.01-.02-.04,0,0,0,.02,0,.03,0,.04.02.08.02.11,0,.03,0,.06.01.09,0,.06-.02.05,0-.06,0,.02,0,.05,0,.07,0,.09-.01.18-.03.27,0,.02-.01.04-.02.07-.02.09.05-.12.01-.04-.02.05-.05.11-.07.16,0,.02-.04.05-.04.07.06-.08.07-.1.04-.06-.01.01-.02.03-.04.04-.02.02-.03.03-.05.05-.09.1.12-.09.02-.02-.03.02-.05.04-.08.06-.09.07.17-.09,0,0-.03.02-.07.03-.1.05-.07.03-.05.02.07-.02-.03,0-.05.02-.08.03-.17.05-.35.13-.47.27-.08.09-.17.25-.12.37.11.32.56.34.83.26.74-.22,1.47-.72,1.55-1.55.02-.18,0-.38-.03-.56-.05-.24-.25-.46-.42-.62-.77-.71-1.84-.85-2.81-.48-.47.18-.94.53-1.14,1.01-.16.39-.18.85-.02,1.25.47,1.13,1.82,1.26,2.87.96.17-.05.35-.13.47-.27.08-.09.17-.25.12-.37-.11-.32-.56-.34-.83-.26Z"/>
          <path class="st8" d="M21.45,32.8c-.35-.3-.87-.39-1.31-.33-.54.06-1.05.28-1.44.67-.56.56-.68,1.57-.15,2.19.58.68,1.64.8,2.42.42.4-.2.76-.52,1.01-.9.18-.28.25-.61.2-.94-.06-.46-.4-.82-.73-1.11-.11-.1-.35-.12-.48-.11-.18.01-.4.08-.54.2-.11.09-.24.22-.25.37s.06.25.17.35c.02.02.04.03.06.05l-.1-.09c.16.15.3.32.4.51l-.06-.12c.06.12.1.26.11.39v-.13c0,.11-.02.22-.05.32l.04-.13c-.03.11-.08.21-.15.3l.09-.13c-.04.06-.08.11-.13.16-.02.02-.05.05-.07.07-.08.08.16-.13.06-.05-.05.04-.1.08-.15.11-.03.02-.05.04-.08.06-.05.04-.12.05.07-.04-.03.01-.05.03-.08.04-.07.03-.16.04.08-.03-.02,0-.05.01-.07.02s-.05.01-.07.02c.15-.03.19-.03.12-.02-.01,0-.02,0-.04,0-.03,0-.06,0-.09,0-.11,0,.19,0,.08,0-.05,0-.11-.01-.16-.02-.13-.02.16.04.05.01-.02,0-.05-.01-.07-.02-.06-.02-.11-.04-.16-.07l.14.07c-.11-.06-.21-.12-.31-.21l.1.09c-.09-.09-.17-.19-.23-.3l.06.12c-.07-.15-.11-.31-.13-.48v.13c0-.16.02-.31.06-.47l-.04.13c.04-.12.09-.24.16-.35l-.09.13c.04-.05.08-.1.12-.15.11-.11-.11.08-.02.02.02-.02.04-.03.07-.05.01-.01.03-.02.05-.03.06-.04.03-.02-.09.05.03-.01.05-.03.07-.04.03-.02.07-.03.1-.04-.14.05-.18.06-.11.04.01,0,.03,0,.04-.01.03,0,.06-.02.1-.02.12-.03-.22.03-.07.01.03,0,.06,0,.1,0,.12,0-.2,0-.06,0,.03,0,.06,0,.1,0,.14.02-.09-.03-.04-.01.07.02.13.04.19.07l-.14-.07c.07.04.14.08.2.13.11.1.35.12.48.11.18-.01.4-.08.54-.2.11-.09.24-.22.25-.37s-.06-.25-.17-.35Z"/>
        </g>
      </g>
    </g>
  </g>
</svg>