<?xml version="1.0" encoding="UTF-8"?>
<svg id="Layer_1" xmlns="http://www.w3.org/2000/svg" version="1.1" xmlns:xlink="http://www.w3.org/1999/xlink" viewBox="0 0 159.2 221.8">
  <!-- Generator: Adobe Illustrator 29.1.0, SVG Export Plug-In . SVG Version: 2.1.0 Build 142)  -->
  <defs>
    <style>
      .st0 {
        fill: #d93832;
      }

      .st1 {
        fill: #438e7f;
      }

      .st2 {
        fill: #eaca65;
      }

      .st3 {
        fill: #ae3034;
      }

      .st4 {
        fill: #fff;
      }

      .st5 {
        fill: #c1ddde;
      }

      .st6 {
        fill: #3e776e;
      }

      .st7 {
        fill: none;
      }

      .st8 {
        fill: #221f20;
      }

      .st9 {
        fill: #382417;
      }

      .st10 {
        fill: #c28d7b;
      }

      .st11 {
        fill: #896231;
      }

      .st12 {
        fill: #f8e5da;
      }

      .st12, .st13 {
        isolation: isolate;
      }

      .st14 {
        clip-path: url(#clippath-1);
      }

      .st15 {
        fill: #e6c147;
      }

      .st16 {
        fill: #c89987;
      }

      .st17 {
        fill: #00a9e8;
      }

      .st18 {
        opacity: .4;
      }

      .st18, .st19 {
        mix-blend-mode: multiply;
      }

      .st19 {
        opacity: .7;
      }

      .st20 {
        fill: #01816f;
      }

      .st21 {
        fill: #3b605a;
      }

      .st22 {
        fill: #5a3a1b;
      }

      .st23 {
        clip-path: url(#clippath);
      }

      .st24 {
        fill: #e48152;
      }

      .st25 {
        fill: #42342b;
      }
    </style>
    <clipPath id="clippath">
      <rect class="st7" x=".2" y="76.3" width="44.5" height="59.6"/>
    </clipPath>
    <clipPath id="clippath-1">
      <rect class="st7" x="114.3" y="18.9" width="44.5" height="59.6"/>
    </clipPath>
  </defs>
  <g class="st13">
    <g id="Layer_11" data-name="Layer_1">
      <g>
        <rect class="st12" x=".4" y="0" width="158.8" height="221.8"/>
        <g>
          <path class="st16" d="M74.4,108.4c0,.6,0,1.2.2,1.7,0,.6.3,1.3.9,1.5.4.2.8.2,1.3,0,.2,0,.5,0,.7-.2s.2-.5.2-.8c0-.8-.3-1.5-.5-2.2,0,0,0-.2-.2-.3h-2.6c.6,0,1.2,0,1.9,0"/>
          <path class="st16" d="M88.3,107.8c0,1.3-.2,2.6,0,3.9,0,0,0,.3.2.4h2.2v-4.6c0,0,0-.3,0-.4,0-.2-.3-.2-.5-.2-.5,0-1,0-1.6.2"/>
          <path class="st16" d="M53.8,79.3c-2.9,2.5-5,6-5.1,9.8,0,0-.5.6-.5.7,0,0,.3.9.8,1.2.8.5,1.9.5,2.1.6,0,0-1.1-1.5-1.1-1.6.8-1.2,1.7-2.3,2.8-3.4.8-.9,1.8-1.7,2.9-2.1,0,0,.2,0,.3-.2v-3.1c0-.5,0-.9-.3-1.3s-.6-.7-1.1-.8l-.7.2h-.1Z"/>
          <path class="st16" d="M48.1,89.8c-.4,1.4,0,3.1,1.1,4.1.4.4.9.6,1.4.5-.2-.6-.3-1.3-.5-1.9v-.4c.2-.2.5.2.7.2,0-.2,0-.5,0-.7"/>
          <path class="st11" d="M96.2,99.1c-1.4,2.7-2.8,5.3-4.2,8,0,.3-.3.5-.6.6-.2,0-2.9.4-3.9.2,0,0-.2,0-.3,0,0,0,0-.2,0-.3-.2-1.2-.2-3.3-.2-4.6s0-.7.4-.6"/>
          <path class="st11" d="M69.4,101.2c.9,2.4,1.9,4.7,3,7,0,.2.2.4.3.5.2,0,.4,0,.6.2,1.3,0,2.6.2,3.9.3h.3c0,0,0-.2,0-.4,0-1.7,0-3.4-.3-5.1,0-.3,0-.7-.3-.9-.3-.4-.8-.5-1.3-.5-1.1-.2-2.3-.3-3.5-.3"/>
          <path class="st2" d="M53.7,78.6c2.2-1.4,4.7-2.3,7.3-2.6.3,2.6,1.4,4.6,1.5,7.2,0,0-.9.9-.9.9,0,0-.3,0-.4,0-1.7,0-3.3.6-4.6,1.6,0,0-.3.2-.4,0h0c-.7-2.4-2.4-7.4-2.4-7.4v.2Z"/>
          <path class="st2" d="M70.4,79.7c-1.3-.6-2.7-1-4-1.3h-.4c-.2,0-.3.3-.4.5-.7,2.3-1.3,4.6-1.6,7-.4,3.1-.4,6.3.6,9.3s2.9,5.7,5.7,7.1c1.1.6,2.3.9,3.6,1.2,4.2.9,8.6,1.1,12.9.5,3.9-.5,8-1.9,10.4-5,.4-.5.7-1,.8-1.6,0-.5,0-.9.2-1.4.2-5.1.4-10.5-2-15.1,0-.3-.3-.5-.6-.7-.2,0-.5,0-.8,0-3.6.3-7.1.6-10.6,1.3-1.4.3-2.9.6-4.3.7-1.4,0-2.8,0-4.1-.3-2.6-.4-5.1-1.1-7.5-2"/>
          <path class="st1" d="M60.2,72.8c-.2,1-.9,2-1.1,3,.9-.4,1.6.7,1.9,1.6.4,1.5.7,3,.8,4.5,0,1.3-.2,2.9-1.3,3.4-.2,0-.5.2-.7.4v.6c1.2,4.1,2.7,8.1,4.5,12,0,.3.3.6.5.7.7.6,1.8.7,2.5.7.4-6,.4-12,0-18,0-.6,0-1.2-.3-1.7s-.7-1-1.2-1.5l-5.9-5.9.2.2Z"/>
          <g>
            <path class="st1" d="M70.8,82.5c-1.6-.5,2.4,3.3,3.8,4.1,4.2,2.4,9.7,2.7,13.7,0,1.4-.9,2.6-2.2,3.7-3.4-4.4.9-10,3-21.2-.8h0Z"/>
            <path class="st1" d="M71,82.3c-.3,0-.9,0-1,.3s.8,1.1,1,1.4c1.5,1.6,3.2,3,5.3,3.8s5.6,1.3,8.4.6,5.4-2.8,7.5-5-.2-.3-.3-.2c-2.6.5-5.2,1.2-7.9,1.3-4.4.2-8.8-.7-13-2.1s-.9.2-.6.3c4.3,1.4,8.8,2.4,13.3,2.2s5.5-.8,8.2-1.4l-.3-.2c-1.9,2-3.8,3.8-6.4,4.6s-5.3.6-7.7-.2-3.1-1.4-4.5-2.6-1.1-1-1.6-1.6-.4-.4-.5-.6,0-.3-.2-.3c0,0-.5,0-.2,0s.8-.3.4-.4h0Z"/>
          </g>
          <g>
            <path class="st1" d="M79.9,87.4c-.9,3.2-2.3,6.3-3.9,9.1.3.2.6.2.9.2,1.3,0,2.6-.6,3.5-1.5s1.6-2.1,1.9-3.4c.2-.9.2-1.8,0-2.6-.4-1-1.4-1.7-2.3-2.3"/>
            <path class="st1" d="M79.6,87.4c-.9,3.2-2.3,6.2-3.9,9.1s0,.2,0,.2c1.1.6,2.7,0,3.7-.5s2-1.6,2.6-2.7.9-2.6.6-3.8-1.4-2.1-2.5-2.8-.9.2-.6.4c.9.6,1.8,1.3,2.2,2.3s.2,2.3-.2,3.3-1.1,2-2,2.7-1,.6-1.6.8-1.3.3-1.9,0v.2c1.7-2.9,3.1-6,4-9.2s-.6-.2-.7,0h.3Z"/>
          </g>
          <g>
            <path class="st1" d="M82.2,87.7c.3,1.5,1.3,2.8,2.4,3.9,1.5,1.8,3.2,3.6,5.3,4.5.5-2.4-.4-4.9-1.8-6.9-.3-.5-.7-1-1.1-1.3-.6-.5-1.5-.6-2.2-.8-.8-.2-1.6-.3-2.4-.5"/>
            <path class="st1" d="M81.8,87.8c.4,2,1.9,3.5,3.2,4.9s2.8,2.8,4.6,3.6.5,0,.6-.3c.5-2.3-.4-4.7-1.6-6.7s-1.3-1.8-2.4-2.2-2.5-.6-3.8-.9-.4,0-.5,0,0,.3,0,.3c1.1.2,2.3.4,3.4.7s1.9,1.1,2.5,2.2c1.2,1.9,1.9,4.2,1.5,6.4l.6-.3c-1.8-.8-3.2-2.1-4.5-3.6s-2.7-2.8-3.1-4.7-.8,0-.7.2h0l.2.3Z"/>
          </g>
          <g>
            <path class="st20" d="M83,85.3c-1-.6-2.4-.3-3,.6s-.3,2.4.6,3.1c.4.3.8.4,1.2.5,1.1.2,2.4-.3,2.8-1.4.4-1-.2-2.2-1-3-.4-.3-1-.6-1.3-.3"/>
            <path class="st20" d="M83.4,85.2c-1-.6-2.4-.5-3.3.3s-1,2.1-.4,3.1c1.4,2.1,5.9,1.1,5.4-1.7s-.6-1.4-1.1-1.9-1.4-.7-2-.2,0,.2,0,.2c0,0,.4,0,.5,0h0c0,0,.2,0,.4.2.2,0,.4.3.6.5.3.4.6.9.7,1.4.2,1-.3,1.9-1.2,2.2s-2,0-2.6-.7-.7-1.7-.2-2.5,1.6-1.1,2.4-.6.3,0,.5,0,.3-.2.2-.3h0Z"/>
          </g>
          <path class="st8" d="M48.7,89.4h-.2.2-.2.2-.2.2-.2.3,0c.2,0,.4.2.6.4h0,0s0,0,.2,0h.2c.2,0,.4,0,.6,0s.3-.2.4-.3,0-.3,0-.4c-.2,0-.3-.3-.5-.4s-.4-.2-.5-.3-.4,0-.6,0c-.3,0-.7,0-1,.2s-.3.2-.4.3,0,.3,0,.4c.2.3.7.2,1,0h0v.2Z"/>
          <g>
            <path class="st4" d="M49.2,88.5c-.3,0-.6.4-.5.8s.5.5.8.4c.3-.2.3-.5.2-.8s-.2-.3-.5-.3"/>
            <path class="st4" d="M49.3,88.4c-.3,0-.7.3-.8.6s0,.5.2.7.7.2.9,0,.4-.4.4-.7,0-.3-.2-.4c0,0-.3-.2-.5-.2s-.3,0-.3,0,0,0,0,0h0v.3q0,.1,0,0h0s0,0-.2-.2,0-.2,0-.3v-.2h0s.2,0,.3-.2,0,0-.2,0h0l.3.4Z"/>
          </g>
          <path class="st8" d="M49,88.8v.5c0,.2,0,0,0,0h.2q.1,0,0,0h0v-.6c0-.2,0,0,0,0h-.2q-.1,0,0,0h0Z"/>
          <path class="st11" d="M65.2,85.9c0,0-.3.2-.4.2s0,0,0,0h0s-.2.2-.3.2,0,0,0,0h0s0,.2-.2.3,0,0,0,0h0v.4c0,0,0,0,0,0h0v.3h0s0,.2,0,.3,0,0,0,0l.2.2h.3c0,0,.2,0,.2,0h.2c0,0,0,0,0,0h.4c0,0,0,0,0,0h.4s.3,0,.4,0,0,0,0,0h0l.3-.2h0c0,0,0,0,0,0h0c0,0,.2-.4.2-.4v-.2h0c0,0,0-.3,0-.2s0,0,0-.2,0,0,0,0c0-.2,0-.3-.2-.4s-.2-.2-.4-.3h-1.5l-.6.6-.2.3c0,.2,0,.4,0,.6h0v-.3h0v-.3h0l.2-.3h0l.2-.2h0l.3-.2h.4c0,0,.4,0,.4,0h1c0,0,.2.3.2.3h0v.3h0v.3h0v.3h0l-.2.3h0l-.2.2h0l-.3.2h0c.2,0,.3-.2.4-.3,0,0,.2-.2.3-.4v-.4c0,0,0-.3,0-.4l-.2-.2c-.2,0-.4-.2-.6-.2h-.4c-.3,0-.5,0-.8.2h0l.2-.2Z"/>
          <path class="st11" d="M65.4,91.6c1.6,0,2.2-2.1.3-2.1s-2.2,2.1-.3,2.1h0Z"/>
          <g>
            <g>
              <path class="st9" d="M75.9,111.9s-1.5-1.5-1.6-1.4,0,.2,0,.3c0,1.5,0,2.9.2,4.4,0,.8.4,1.6,1.1,1.9.6.3,2.5.2,2.7,0,.3,0,.4-.5.4-.8.2-1.4.3-2.8.2-4.2,0-.4,0-.8-.2-1.2s-.5-.7-.9-.8"/>
              <path class="st9" d="M76.3,111.8c-.2-.3-.6-.6-.8-.8s-.6-.6-.9-.7-.6.2-.6.5v1.6c0,1,0,2,.3,3s.4,1.4,1,1.8,1.1.3,1.7.3h1.5c.8-.2.8-1.2.9-1.8,0-1.1.2-2.3,0-3.4s-.2-1.9-1.2-2.2-.4,0-.5,0,0,.2,0,.3c.6,0,.8.7.9,1.3s0,1.3,0,1.9,0,1.3,0,2,0,.6,0,.9,0,.2,0,.3v.2q0,0,0,0c0,0,0,0,0,0h-1.9c-1-.2-1.3-1.1-1.4-2s-.2-1.4-.3-2.2,0-.8,0-1.2,0-.8,0-1.1h-.2c0,0-.4,0-.4,0h0l.2.2.5.5c.2.2.5.4.7.7s.9,0,.7-.3h0Z"/>
            </g>
            <path class="st8" d="M76,113.9c0-.2.2-.2.3-.3s0,0,0,0h0s0,0,0,0h0c0,0,0,0,0,0h0s0,0,0,0,0,0,0,0h0c-.4,0-.9.2-1.3.4s-.4.3-.4.5c0,.3.2.4.5.4s.3,0,.4-.2,0,0,.2,0h0c0,0,0,0,0,0h0s.2,0,.2,0v-.3c-.4.4-.9.8-1.3,1.1h.7c0,0,0-.3,0-.3,0,0-.4,0-.5,0s0,.2,0,.3,0,.2.2.2.3,0,.4-.2c.4-.4.9-.8,1.3-1.1s0-.2,0-.3c-.3-.2-.7-.2-1-.2s-.4,0-.5.2-.2,0-.2,0,0,0,0,0h.3c.2,0,.3,0,.5,0s.4,0,.6-.3c.3-.3,0-.7-.4-.8s-.8,0-1.2,0-.7.4-.9.7,0,.2.2.3.4,0,.5-.2h0l1-.2Z"/>
            <path class="st8" d="M77,112.4c-.2-.7,0-1.4.6-1.8h-.6c.2.4.3.8.2,1.2s0,.4-.2.5,0,0,0,0c0,0,0,0,.4,0h0l-.2-.2c-.2-.3-.5-.7-.8-.9s-.9-.3-1.4-.2-.4,0-.3.3c.4.5.9,1,1.5,1.3s.3,0,.5,0,.3-.2.2-.2c-.6-.3-1.1-.8-1.5-1.3l-.3.3s0,0,0,0,0,0,0,0h.2c.2,0,.3,0,.4.2.3.2.5.5.7.8s.2.3.4.3.6,0,.7-.2.4-.6.4-.9,0-.8-.2-1.1-.5,0-.6,0c-.7.5-1,1.3-.8,2.1s.8,0,.7-.2h0Z"/>
          </g>
          <g>
            <g>
              <path class="st9" d="M89,111.9s-1.5-1.5-1.6-1.4,0,.2,0,.3c0,1.5,0,2.9.2,4.4,0,.8.4,1.6,1.1,1.9.6.3,2.5.2,2.7,0,.3,0,.4-.5.4-.8.2-1.4.3-2.8.2-4.2,0-.4,0-.8-.2-1.2s-.5-.7-.9-.8"/>
              <path class="st9" d="M89.3,111.8c-.2-.3-.6-.6-.8-.8s-.6-.6-.9-.7-.6.2-.6.5v1.6c0,1,0,2,.3,3s.4,1.4,1,1.8,1.1.3,1.7.3h1.5c.8-.2.8-1.2.9-1.8,0-1.1.2-2.3,0-3.4s-.2-1.9-1.2-2.2-.4,0-.5,0,0,.2,0,.3c.6,0,.8.8.9,1.3s0,1.3,0,1.9,0,1.3,0,2,0,.6,0,.9,0,.2,0,.3v.2q0,0,0,0c0,0,0,0,0,0h-1.9c-1-.2-1.3-1.1-1.4-2s-.2-1.4-.3-2.2,0-.8,0-1.2,0-.8,0-1.1h-.2c0,0-.4,0-.4,0h0l.2.2.5.5c.2.2.5.4.7.7s.9,0,.7-.3h0Z"/>
            </g>
            <path class="st8" d="M89.1,113.9h0s0,0,0,0h0c0,0,0,0,0,0,0,0,0,0,0,0h0c0,0,0,0,0,0h0c0,0,0,0,0,0h0c-.4,0-.9.2-1.3.4s-.4.3-.4.5v.4c0,0,.3.2.5.2s.3,0,.4-.2,0,0,.2,0h.6v-.4c-.4.4-.8.8-1.3,1.1l.6.2h0c0,0,0-.3,0-.4s-.4,0-.5,0,0,.2,0,.3c0,.3.4.3.6.2.4-.4.9-.8,1.3-1.1s.2-.3,0-.4c-.3-.2-.6-.2-1-.2s-.4,0-.5.2-.2,0-.2,0,0,0,0,0h.3s0,0,0,0h.2c.2,0,.3,0,.5,0s.4,0,.6-.3c.3-.3,0-.8-.4-.9s-.8,0-1.1,0-.8.4-1,.8,0,.3.2.3.4,0,.5-.2h0l1.1-.7Z"/>
            <path class="st8" d="M90.1,112.4v-1c0-.3,0-.3.2-.4l.3-.3h-.6c.2.3.2.7,0,1.1s0,.3-.2.5,0,0,0,0h.3l-.2-.2c-.2-.3-.5-.7-.8-.9s-.9-.3-1.3-.2-.4.2-.3.4c.4.5,1,1,1.5,1.3s.4,0,.5,0,.2-.3,0-.4c-.5-.3-1-.8-1.4-1.3l-.3.4s0,0,0,0h.3c.2,0,.3,0,.4.2.3.2.5.5.6.8s.2.3.4.3.5,0,.7-.2.4-.6.4-1,0-.8-.2-1.1-.5,0-.6,0c-.7.5-1,1.4-.8,2.2s.3.2.4,0,.4-.2.3-.3h.3Z"/>
          </g>
          <g class="st19">
            <path class="st16" d="M59.4,74.5c5,9.8,16.7,11.8,26.6,10.7s1.6-.2,1.9-.7-.3-.4-.7-.4c-9.4,1.1-20.3-1.2-25-10.4s-3.1.4-2.9.8h0Z"/>
          </g>
          <path class="st17" d="M69.1,102.4c1.7,1.7,3.9,2.8,6.3,3.4s.6,0,.9,0,.8-.2,1.1-.3,1-.6.4-.7c-2.2-.5-4.3-1.7-6-3.3s-.6,0-.7,0c-.4,0-.8,0-1.1.3s-1.2.5-.9.8h0v-.2Z"/>
          <path class="st17" d="M88,104.9h7.4c2.4,0,1.5-.5,1.6-1.1s-.8-.9-1.3-.9h-7.4c-2.4,0-1.5.5-1.6,1.1s.8.9,1.3.9h0Z"/>
          <path class="st2" d="M98.3,76.6c1.8.6,3.6,1.3,5.4,1.9,1.1.4,2.3,1,2.5,2.1,0,.5,0,1-.4,1.5-.6,1.4-1.1,2.7-1.7,4.1,0,.3-.2.6-.5.8-.2.2-.6.3-.9.3-2.3.3-4.3-1.1-6.2-2.5-.5-.4-1.1-.9-1.2-1.5,0-.3,0-.7.2-1,.6-2.1,1.2-4.1,1.8-6.2"/>
          <path class="st24" d="M44.6,56.4c.3,0,.8-.4.3-.4s-.8.4-.3.4h0Z"/>
          <path class="st16" d="M51.3,65.8c-1.3.2-2.3,1.4-2.4,2.7s.5,2.6,1.4,3.5c1.1,1.2,2.8,1.9,4.5,1.8s3.2-1.3,3.8-2.8c1.8,2,3.7,4.1,5.5,6.1,1,1.1,2,2.2,3.2,3.1,1.4,1.1,3,1.8,4.6,2.4,6,2.2,12.7,2.6,18.8.7,6.1-1.9,11.5-6.1,14.6-11.7-3.7,1.1-7.6-1-10.7-3.3-6.4-4.9-11.6-11.9-12-19.9,0-2.3.2-4.6.3-6.8,0-2,0-4,0-6.1s0-.4,0-.6c-.4-.7-1.5-.2-2.1.4-1.9,1.8-3.8,3.5-5.6,5.3-.8.7-1.5,1.4-2.4,2s-2,1.1-3,1.7c-8.4,4.4-15,12.1-18.1,21.1"/>
          <path class="st10" d="M54.4,68.8c0-.3-.5-.3-.8-.3s-.8.2-1,.6,0,.6,0,.9.3.2.4.2c.3,0,.6,0,.9-.2s.5-.6.2-.9,0,0-.2,0h-.3c0,0-.3,0-.2.2s0,0,0,0h0v.2h0v.2c0,0,0,0,0,0h0s-.2,0-.2-.2h0c0,0-.2-.4-.2-.6h0c0-.2,0,0,0,0h0c0,0,0,0,0,0h0q0,0,0,0h.3c0,0,.2,0,.2,0s0,0,0,0h.6Z"/>
          <path class="st8" d="M67,68c1.1,2.3,2.6,4.6,4.6,6.2s4.9,2.8,7.7,3.1c5.2.6,11.8.6,15.1-4.2s-1.1-.4-1.3,0c-3.1,4.5-9.9,4.1-14.7,3.1s-7.9-4.5-9.9-8.7-1.6,0-1.4.4h0Z"/>
          <path class="st8" d="M81.9,67.8h0q0,0,0,0h0s0,0,0,0h0c0,0-.2,0,0,0h0s.2,0,0,0,0,0,0,0c0,0-.2,0,0,0h0,0s0,0,0,0h0s0,0,.2,0h0c0,0,.2,0,.3.3h0c0,.4.6.4.8.3s.4,0,.5-.2.2-.2,0-.3c0-.3-.3-.6-.6-.7s-.7-.3-1.1-.3c-.8,0-1.6.5-1.8,1.3s0,.2.2.3h.5c.3,0,.7-.2.8-.5h0v-.2Z"/>
          <path class="st8" d="M71.3,60.6s.2-.2,0,0c0,0,.2,0,.2,0s.2,0,.2,0h0c0,0,.3,0,.4,0h.7c-.2,0,0,0,0,0h1.1c.3.2.8,0,1,0s.4-.6,0-.7c-1.7-.9-3.7-.7-5.2.3s-.4.5,0,.7.8,0,1,0h.3Z"/>
          <path class="st25" d="M44.6,55.6c-1.4.4-2.3,2-1.9,3.5.3,1.4,1.8,2.4,3.3,2.2-.2,1.6.3,3.5,1.7,4.3.8.4,2.8.2,3.6.2,2.5,0,4.2,1,6.7,1s.6,0,.7-.3v-.5c-.5-1.7-1.4-4.4-1.9-6.1,1.4.3,2.8-.6,3.5-1.9s.6-2.8.2-4.2c1.6,1,4.1-.5,4-2.4,0-.9-.4-2.1.3-2.5.2,0,.5,0,.8,0,2.2,0,4.4-.9,5.9-2.5s2.3-3.9,1.8-6.1c-5.5,3.2-11.2,6.1-17.1,8.6-4.3,1.9-8.8,3.8-11.8,7.4"/>
          <path class="st1" d="M95.5,81.3c.8,6,.9,12.6,1.7,18.6,1.6-2.3,3.4-3.4,4.3-6,0-.4.3-.8.3-1.3s0-.5,0-.8c-.4-1.8-.9-5.4-1.3-7.2,0-.3,0-.6-.3-.9-.3-.4-.9-.5-1.4-.6-1-.3-2-1.4-2.5-2.3l-.7.4h0Z"/>
          <g class="st23">
            <g>
              <g>
                <path class="st21" d="M-4.5,85.2c4.2-4,11.5-7.9,17.3-8.4,1.5,0,3.5.3,3.6,1.8,0,.6-.3,1.2-.6,1.7-1,1.6-2,3.2-3,4.9,7.2-.3,14.4.3,21.4,2,2,.5,4.1,1.1,5.6,2.5s2.3,3.8,1.2,5.6c-.9,1.4-2.6,2-4.2,2.5-4.4,1.4-8.7,2.7-13.1,4.1,4.4,0,8.9,1.5,12.6,3.8.8.5,1.7,1.2,2.1,2.1.6,1.4,0,3.2-1.3,4.2-1.2,1-2.7,1.5-4.2,2,1.1,1.8,2.7,3.3,3.9,5,1.2,1.8,1.8,4.2.7,6-.9,1.6-3,2.3-4.8,2.2-1.8,0-3.6-.9-5.3-1.7-5.2-2.4-10.4-4.8-15.6-7.3,3.2,2.7,5.5,6.4,6.5,10.5.3,1.3.5,2.7,0,3.9-1,2.8-4.6,3.9-7.4,3-2.8-.9-4.9-3.3-6.6-5.7-7.9-11.2-10.9-25.6-8.2-39"/>
                <path class="st21" d="M-4.1,85.2c3.7-3.5,8.4-6.2,13.3-7.6,4.9-1.4,5.6-1.7,6.7.4s-.5,2.4-1.1,3.3c-.8,1.3-1.6,2.6-2.4,3.9s.2,0,.2,0c4.7-.2,9.5,0,14.2.7s4.4.7,6.6,1.2c2.2.5,3.9,1,5.5,2.2s2.3,2.7,2.1,4.4-2.4,3.3-4.4,3.9c-4.4,1.4-8.7,2.7-13.1,4.1s-.4.2-.1.2c4.3,0,8.5,1.3,12.1,3.6s3.2,2.5,2.4,4.6-3.1,3-5.2,3.6-.3,0-.3.2c1.6,2.4,4.1,4.4,4.9,7.2s.3,3.1-.7,4.3-3.8,1.6-5.8,1c-3.2-1-6.2-2.7-9.2-4.1s-6.4-3-9.6-4.5-.9.2-.7.3c3.5,2.9,6.3,7.4,6.7,12,.4,4.6-1.6,5.2-4.6,5.4s-4.5-1.1-6.2-2.7c-3.4-3.3-5.8-7.8-7.7-12.1s-3.2-9-3.8-13.7c-.6-4.7-.5-11,.5-16.4s-.7,0-.8,0c-2.1,10.7-.7,22,4,31.9,4.7,9.9,2.6,4.9,4.2,7.1,1.6,2.2,3,4,5.2,5.1s7.7,1.3,9.4-2,0-5.9-1.1-8.2-3-4.9-5.2-6.8l-.7.3c4,1.9,8,3.7,12,5.6s6.3,3.6,9.7,3.4,4.8-1.4,5.2-3.9c.6-3.9-3.2-6.6-5.1-9.6l-.3.2c2.5-.8,6.9-2.5,5.8-6s-2.3-2.6-3.7-3.3-3.5-1.7-5.4-2.2-5.4-.9-5.4-.8c0,0,5.8-1.8,6.5-2,2.2-.7,4.4-1.3,6.6-2.1s2.6-.9,3.5-1.9c2.5-2.8-.3-6.4-3-7.6s-3.6-1.2-5.5-1.6-4.5-.9-6.8-1.1-4.3-.4-6.5-.5-2.1,0-3.1,0h-1.7c-.6,0-.9.2-.7-.5.4-1,1.2-2,1.8-2.8s1.3-1.8,1.5-2.7-.9-1.9-2-2.1-3,0-4.4.3-3.5,1-5.2,1.7c-3.7,1.6-7.1,3.7-10,6.5s.6,0,.7,0h.2Z"/>
              </g>
              <path class="st6" d="M-1.5,89.5c4.3-4.7,9.3-8.6,15-11.6,5.7-3,.2-.3,0-.3-.3,0-.8,0-1.1.3-5.7,3-10.9,6.9-15.2,11.7s.2.2.4.2c.3,0,.8,0,1.1-.4h-.2Z"/>
              <path class="st6" d="M-.3,95.4c12.9-2.7,26.2-4,39.4-1.8s1.9-.7,1-.8c-13.5-2.2-27.2-.9-40.5,1.9s-.8.9.2.7c0,0-.1,0-.1,0Z"/>
              <path class="st6" d="M-3.8,101.1c5.9.8,11.8,1,17.7,1.9s14.7,3.9,21.5,7.2c6.8,3.3,2-.5,1.2-.8-6.9-3.4-14-6-21.6-7.3s-12.2-1.2-18.3-2-1.6.9-.6,1h0Z"/>
              <path class="st6" d="M-4.1,102.8c13.2,6.4,26.8,12.4,37.9,22.3,11.1,9.9,1.8-.3,1.5-.6-11.1-9.9-24.8-16-38.1-22.4s-1.8.4-1.3.7h0Z"/>
              <path class="st6" d="M.5,117.6c5.6,4.4,9.2,10.5,13.7,16,4.5,5.5,1.9-.1,1.5-.6-4.4-5.4-8.1-11.6-13.7-16s-1.9.3-1.5.6h0Z"/>
            </g>
          </g>
          <path class="st11" d="M65.3,83.3h0c0,0-.2,0-.3.2h0s-.2,0-.3.2h0l-.2.2h0s0,0,0,.2,0,0,0,0h0v.2c0,0,0,0,0,0h0s0,0,0,.2,0,0,0,0c0,0,.3.2.5.2h.7c.3,0,.5,0,.8-.2.2,0,.4-.2.6-.4l.2-.2c0,0,0,0,0,0h0s0-.2,0-.3,0,0,0,0v-.3c0-.1,0,0,0,0s0,0,0,0h0s0,0,0-.2,0,0,0,0h-.2c0-.2-.3-.2-.4-.2h-1.3c0,.2-.2.2-.3.3,0,0-.3.2-.4.3,0,0-.2.2-.2.3v.6c0,0,0,.2.2.2h1.3c.2,0,.5-.2.7-.4l.3-.2c0,0,.2-.2.3-.4v-.3l-2.8.7h0v-.2.2-.2h0c0,0,0,0,0,0h0l.2-.2h0c.8,0,1.7-.2,2.5-.3h0v.2h0v.2h0v.2h0l-.2.2h0l-.3.2h0l-.3.2h0c.2,0,.3,0,.5-.3,0,0,.2-.2.3-.3,0,0,0-.2,0-.3s0-.2,0-.3h-.2c-.2-.2-.4-.2-.6-.2h-.4c-.3,0-.5,0-.8.2h0v.2Z"/>
          <g class="st19">
            <path class="st16" d="M45.1,64.4c-1.6-1.8-1.5-4.7-.4-6.8s3.1-3.7,5.1-5c6.8-4.6,15.3-9.5,23.4-10.9-9.5,5.8-16.1,10.1-20.8,17.4-.8,1.2-1.5,2.5-1.9,4-.2.8-.4,1.8-1.2,2.3-.6.3-1.3.2-2,0-2-.8-3.3-3-3.2-5.1"/>
          </g>
          <path class="st25" d="M83.2,37.5c-2.1,0-4.3-.3-6.4-.4h-2.3c-.7,0-1.5.6-1.9,1.3-.6,1-.2,2.4.6,3.2s1.9,1.3,3,1.7,2.3.7,3.5.7,2.4-.4,3.3-1.3c.8-.9,1.1-2.3.5-3.3"/>
          <path class="st2" d="M35.8,64.3c-.9-.2-2-.6-2.2-1.5-.2-.7.3-1.4.7-2,1.5-2.1,3.5-3.8,5.6-5.2,1-.7,2.2-1.4,2.5-2.5,0-.5,0-1,0-1.6-.7-6.6,0-13.5,2.4-19.6,2.5-6.2,7.2-11.6,13.3-14.3,7.3-3.2,15.9-2.2,23.4.5,2.1.7,6.6,2.4,8,4.1,0,.2.2.3.3.5,0,.3-.2.6-.4.8-4.3,5.4-4.7,10.5-10.2,14.7-2,1.6-22.9,9.9-29.5,16-.9.9-4.4,4.2-4.3,5.4.2,1.8,1.4,4.3,2.3,6,0,0-8.2-.4-11.9-1.2h0Z"/>
          <path class="st15" d="M36.6,61.4c9.5-10.8,22-19.2,35.4-24.4s6.4-2.3,9.7-3.1,1.4-.4,1.3-.9-1.3-.2-1.6,0c-13.8,3.4-26.9,10.4-37.8,19.4s-6.7,6-9.7,9.3.4.6.7.5c.6,0,1.5-.2,1.9-.7h0Z"/>
          <path class="st15" d="M55.8,18.4c-2.6,7.9-1.4,16.7.8,24.6s3.1-.2,2.9-.8c-2.2-7.8-3.5-16.5-.9-24.3s-2.6-.2-2.9.5h.1Z"/>
          <path class="st15" d="M57.2,19.1c6.6,1.8,11.8,6.5,14.6,12.7,2.8,6.2.8,1.9,1.1,2.9s3.1,0,2.9-.8c-1.5-5.3-5.1-10.2-9.7-13.2s-4.2-2.2-6.5-2.8-1.4,0-2,.3-1,.8-.3,1h-.1Z"/>
          <path class="st15" d="M61.2,18.2c8.1-1.7,16.9,1.9,22.6,7.6s3.3-.5,2.7-1.1c-6.6-6.6-16.4-9.7-25.6-7.7-9.2,2-1.4.4-1.3,1s1.3.2,1.6.2h0Z"/>
          <path class="st15" d="M50.9,47.5c-1.8-5.4-2.2-11.1-.6-16.5s4.4-9.2,8.2-12.5-.4-.5-.7-.5c-.7,0-1.4.3-1.9.7-3.9,3.4-7,7.8-8.5,12.8s-1.3,11.4.5,16.8,3.1,0,2.9-.8h0Z"/>
          <g class="st19">
            <path class="st16" d="M76.7,40.3c-1.5,7.1-.6,14.6,2.7,21s8.3,10.9,14.4,13.7,7.1,2.6,10.9,2.9,1.6,0,2-.5.4-.7-.2-.7c-13.6-1.1-24.9-11.6-27.3-25s-.6-7.9.2-11.8-2.7-.3-2.9.5h.2Z"/>
          </g>
          <g>
            <path class="st5" d="M105.9,93.4c.2,1.4.4,2.7.6,4.1,0,.5.2,1,.5,1.3.3.2.6.3,1,.3,1.3,0,2.6.4,3.1-.9s.4-4.1.2-5.8"/>
            <path class="st5" d="M87.4,23.3c2.2-1.3,4.2-2.7,6.5-3.8,7.8-3.8,17.3-3.7,25.1.2,7.8,3.9,13.5,11.4,15.5,19.8,2,8.4.1,17.7-4.8,24.8-1.3,1.9-2.9,3.7-4.7,5.2-5,4-10,5.5-16.4,6.5-3,.4-7.8.3-10.7-.4-2.2-.6-4.1-1.8-6-3.2-2.4-1.8-4.5-3.8-6.3-6.1-4.5-5.7-6.3-13.1-6.8-20.4-.8-12.6,6.9-21.6,8.5-22.6h.1Z"/>
            <path class="st16" d="M113,75.6c-1.1-.5-7.8.3-11.3,2.1-1.2.6-2.3,1.4-2.9,2.6s-.4,2.8.7,3.5c1.3.8,3,0,4.6.2-1.5,0-3,.9-3.9,2.1-.5.7-.7,1.9,0,2.2.2,0,.5,0,.7,0,1.1,0,2.3,0,3.4,0-.8.6-1.7,1.3-2.5,1.9-.3.2-.5.4-.6.7-.2.7.5,1.2,1.2,1.5,2.1.9,4.5,1.1,6.8.7,1.1-.2,2.2-.6,2.7-1.6s0-2.5-1.1-2.4c1.4-.7,2.3-2.2,2.3-3.7s-.9-3-2.2-3.7c1.4-.9,2.4-2.3,2.9-3.9.3-.8.4-1.9-.8-2.4h0Z"/>
            <path class="st16" d="M89.4,32.5c2-3.6,5.7-5.9,9.5-7.5,2-.8,4-1.5,6.1-1.6,2.5,0,5,.6,7.3,1.4,3.4,1,6.9,2.1,9.5,4.5,2.8,2.6,4.3,6.4,5.1,10.1,1.3,5.5,1.6,11.5-1,16.5-3.5,6.8-11.3,10.2-18.7,12-1.3.3-2.7.6-4.1.5-1.8,0-3.6-.7-5.2-1.5-4-1.9-7.6-4.7-9.9-8.5-2.6-4.2-3.3-9.5-2.5-14.3s3.1-9.5,6.2-13.4"/>
            <path class="st10" d="M96.1,28.4c5.5-2.6,12-2.5,17.3.5s8.3,7.3,9.7,12.6,3.2.4,2.9-.8c-1.6-6-5.7-11.2-11.3-13.9s-13.6-2.9-19.8.1-1.1.8-.7,1.4,1.4.4,1.9.1h0Z"/>
            <g>
              <path class="st4" d="M88,36.8c4.9-1.5,10.1,1.3,13.8,4.8,2.6,2.5,4.8,5.5,6.2,8.8,2.3,5.6,2,12.2-.6,17.6-.4.9-10.5-2.7-11.1-1.9,0-.4-8.4-4.6-10-11.5s1.7-17.8,1.7-17.8Z"/>
              <path class="st4" d="M88.3,37.7c4.3-1.2,8.8,1.3,11.9,4.2s6,6.9,7.2,11.3.9,9.3-.8,13.5-.3.5-.3.8v.2c-.4.6,0,.4,1.1-.5,0,0,0,0,0,0-.4,0-.9,0-1.3-.2-1.3-.3-2.5-.6-3.7-.9-1.8-.5-5.4-2-7-.3h2.6c0-.5-.6-.7-1-1-.7-.5-1.3-.9-2-1.4-2-1.4-3.8-3.1-5.2-5.1-3.3-4.8-2.3-11.3-1.3-16.6s.7-3.3,1.2-4.9-2.6-.9-2.9.3c-1.2,4.1-2,8.4-2.1,12.6s.2,5.8,1.5,8.3,3,4.2,5,5.9,1.8,1.4,2.8,2.1.6.4.9.6.2.2.3.2,0,0,0-.2c.3,1.1,2.1.6,2.6,0l-1.1.5h0s-.2,0,0,0,.5,0,.7,0c.6,0,1.2.3,1.7.4,1.4.3,2.8.7,4.2,1.1s2.1.6,3.2.6c1.9,0,2.5-1.1,3.1-2.7,1.7-4.6,2-9.7.6-14.4s-4.3-8.7-7.9-11.9-9.2-5.7-14.4-4.2-1.3,2.3.5,1.8v-.2Z"/>
            </g>
            <g>
              <path class="st22" d="M98.5,39.4c-1.7.9-2.9,2.7-3.3,4.6-.4,1.9,0,3.9.4,5.8.3.8.6,1.6,1.1,2.3,1.4,2,4.1,2.9,6.6,2.7,1.2,0,2.5-.4,3.4-1.1,1-.7,1.6-3.1,1.6-3.1-5.1-10.3-9.9-11.1-9.9-11.1h.1Z"/>
              <path class="st22" d="M97.6,39c-4.1,2.2-4.7,7.1-3.4,11.2s1.8,3.5,3.6,4.4,3.9,1.1,5.9.8,4.2-1.1,5.3-3,.6-1.2.7-1.9-.5-1.6-.9-2.2c-1.6-2.9-3.5-5.7-6.1-7.8s-2.2-1.6-3.4-1.9-1.5,0-2,.5-.4.8.2.9-.2,0,0,0,.3,0,.4,0c.5.2,1,.5,1.3.7,1.9,1.3,3.5,3.1,4.8,5s.9,1.4,1.3,2.1.5.9.8,1.4.2.3.3.5c0,.2.2.3.3.5,0,.2,0,.3.3.4,0,.3-.2.7-.3,1-.2.5-.4,1.2-.9,1.7-1,.9-3.1.7-4.3.4s-3-1.4-3.7-2.9c-1.7-3.3-2.1-9,1.7-11.1s.8-.7.3-1-1.5,0-2,.3h-.1Z"/>
            </g>
            <g>
              <path class="st8" d="M102.8,45.6c-2-1.7-3.6.9-3.2,1.9s1.7,1.4,2.7,1.1c.8-.3,1.4-1.1,1.3-1.9s-1-1.5-1.8-1.1c-.5.2-.7.9-.3,1.3s1.1,0,.9-.5"/>
              <path class="st8" d="M104.1,45.1c-.8-.6-1.7-.8-2.6-.6s-2,.6-2.7,1.3-.6.9-.7,1.4,0,.4,0,.7c0,.3.4.6.6.8.8.6,1.8.7,2.8.6s2.4-.7,3.1-1.6.4-.7.4-1.1,0-.7-.4-1c-.8-1-2.3-.7-3.3-.4s-1.3.6-1.5,1.2,0,.8.3,1.1.7.2,1.1.2c.6,0,1.2-.2,1.7-.5s1.1-.6.9-1.2-.4-.2-.5-.2c-.3,0-.7,0-1.1,0s-.7.2-1,.4-.4.3-.3.5,0,0,0,.2h0v-.2h0q.2,0,0,0c.2,0,.3-.2.5-.2s.4,0,.6-.2c.6,0,.7,0,.5,0,0,0,.3,0,0,0h.2-.2c0,0,0-.2,0-.4h0s0-.2.2-.3v.2h0c0-.2,0,0,0,0h0c0,0-.2,0-.3.2-.2,0-.5,0-.7.2h-.2q0,0,0,0c.2,0-.2,0,0,0h.3-.2c.2,0,.4.2.6.4h0c.2.2.3.4.2.8h0c0,.2,0,.4-.3.7v-.2s0,.2,0,.3h0c0,0,0,0,0,0h0s-.2,0,0,0c0,0-.2,0,0,0,.4-.2-.3,0,.2,0s.2,0,0,0c.3,0,.4,0,.3,0h0c.5,0,.3,0,.2,0,.3,0,.2,0,0,0h-.2c-.2,0,.2,0,0,0h-.2c0,0-.2,0-.3,0h.2c-.3,0-.6-.3-.8-.5h0c-.2,0-.3-.4-.3-.7h0c0-.3.2-.6.4-.9v.2c0,0,0-.3.2-.4s0,0,0,0h0s.3,0,0,0h0c-.4.2-.3,0-.2,0-.5.2-.4,0-.2,0-.3,0-.4,0-.3,0-.3,0-.4,0-.3,0,.2,0-.3,0,0,0s0,0,0,0c-.3,0-.2,0,0,0s.2,0,.3,0h-.2c.2,0,.4.2.6.3s.5,0,.7,0c.4,0,.8,0,1.1-.2s1.3-.5.8-.9h0v-.2Z"/>
            </g>
            <path class="st5" d="M99.1,25.9c3-1,5.7-1.7,8.8-1.5s4.9.8,7.1,1.9c3.9,1.8,7.2,4.5,8.9,8.5s3.1,11,2.2,16.3c-.9,5.2-4.3,9.8-8.4,13-4.1,3.2-4.2,2.7-6.7,3.4s-5,.4-7.4,0c-4.6-.9-8.9-3.2-12.2-6.5s-5.5-10.4-4.5-16.5,4.1-15.8,12.1-18.5,1.4-.6,1.2-1.3-1.2-.6-1.7-.5c-4.6,1.5-8.3,4.5-10.8,8.6s-2.9,6.7-3.5,10.2c-1.2,6.4-.9,12.7,3.4,18,6.7,8.1,19.2,11.4,28.6,6.3,4.9-2.6,9.2-7.1,11.4-12.2s1.8-12.2,0-18-2.3-6.2-4.7-8.4-3.4-2.7-5.3-3.6-5.5-2.2-8.5-2.5-7.1.4-10.7,1.6-1.4.6-1.2,1.3,1.2.6,1.7.5h0Z"/>
          </g>
          <g class="st18">
            <path class="st6" d="M124.2,32.6c-3.3-.4-8.4,1.3-8.4,5.3s1.3,3.4,3,4.3,4,1.2,6.1,1.4,2.2.2,3.3.3,1.6,0,2.5,0,1,0,0,0c.7,0-.5,0-.6-.4l.9-1.7c-.5.4.5-.2,0,0s-.3.2-.4.2c-.4.3.9-.4.2,0s-.3,0-.5.2c1.3-.6.1,0-.3,0s-.7.2-1.1.3c-1.8.4-3.7.9-5.4,1.6s-4.3,2.2-5.3,4.3-.2,3.7.9,5.1,1.7.6,2.3.6c1.1,0,2.4-.3,3.4-.7s3.5-1.7,2.4-3.1-.6-1.1-.7-1.7,0-.5,0-.9.2-.5,0-.3.2-.2.2-.2c.2-.3-.4.3,0,0s.3-.2.4-.3c.4-.3-.6.3-.2,0s.7-.3,0,0,.4,0,.5-.2c.5-.2-1,.3-.4,0s.4,0,.6-.2c3.5-.9,7-1.6,10-3.9s1.2-1.1.9-1.7c-.5-1-1.5-1.4-2.5-1.6s-1.3,0-2,0-.4,0-.7,0c.4,0,.3,0,0,0-1.9,0-3.7-.3-5.6-.6s-.4,0-.5,0-.6,0-.3,0-.2,0-.3,0c-.2,0-.4,0-.6-.2s-.3,0-.5-.2c.2,0,0,0,0,0-.3-.2-.6-.5-.8-.7s0,.2,0,0,0-.3-.2-.4c0-.3-.2-.6-.2-1s0-.3,0,0v-.4c0-.1,0-.5,0-.3s0,0,0,0c.3-.4,0-.2-.8.6l-5.3,1.1h.2c2,.3,4.6-.3,6.1-1.6s1.1-1,.9-1.7-1.1-.9-1.6-1h0l.5-.2Z"/>
          </g>
          <g class="st18">
            <path class="st6" d="M122.8,56.5c-2.4,3.2-6,9-1.7,12.2s1.8.7,2.6.6,2.1-.4,2.9-1.1,1.3-1.2,1.3-2.1-.3-1.5-.9-1.9-.2-.2-.3-.2l.6.5c-.2-.2-.4-.5-.5-.7l.3.7c-.2-.4-.3-.7-.3-1.1v.7c0-.6,0-1.2.3-1.7l-.2.7c.3-1.2.9-2.3,1.6-3.3l-.5.7c.4-.6.8-1.1,1.2-1.7s.8-1.4.6-2.2-.9-1.3-1.6-1.6-2-.3-2.9,0-1.9.7-2.5,1.5h0Z"/>
          </g>
          <g class="st14">
            <g>
              <g>
                <path class="st21" d="M159.8,29.5c-3.9-3.7-10.6-7.3-15.9-7.7-1.4-.1-3.2.3-3.3,1.6,0,.6.3,1.1.6,1.5.9,1.5,1.9,3,2.8,4.5-6.6-.3-13.2.3-19.6,1.9-1.8.4-3.7,1-5.1,2.3s-2.1,3.5-1.1,5.1c.8,1.3,2.4,1.8,3.8,2.3,4,1.2,8,2.5,12,3.7-4.1,0-8.1,1.3-11.6,3.5-.8.5-1.5,1.1-1.9,1.9-.6,1.3,0,2.9,1.1,3.8,1.1.9,2.5,1.4,3.9,1.8-1,1.7-2.5,3-3.6,4.6s-1.7,3.8-.7,5.5c.9,1.5,2.7,2.1,4.4,2s3.3-.8,4.8-1.6c4.8-2.2,9.6-4.4,14.3-6.7-3,2.4-5.1,5.9-5.9,9.6-.3,1.2-.4,2.5,0,3.6.9,2.6,4.2,3.6,6.8,2.7s4.5-3,6.1-5.3c7.2-10.2,10-23.5,7.5-35.8"/>
                <path class="st21" d="M160.1,29.4c-3.9-3.7-9.1-6.5-14.4-7.5s-3.5-.5-4.8.5-.7,1.8-.1,2.7c.9,1.5,1.9,3,2.8,4.5l.6-.2c-4.6-.2-9.1,0-13.6.7s-4.4.8-6.6,1.3-3.2.9-4.5,1.9-2.1,2.5-2,4.1,1.6,2.8,3.1,3.4c4.3,1.6,8.8,2.8,13.2,4.2l.5-.3c-4,0-7.9,1.2-11.3,3.2s-3.1,1.9-2.9,3.8,2.1,3.2,3.9,3.9.9.2,1,.3c.3.5-.4,1.1-.7,1.4-.7.9-1.6,1.8-2.3,2.7-1.1,1.5-2,3.6-1.3,5.5,1.3,3.4,5.7,2.7,8.3,1.7,5.5-2.2,10.7-5,16.1-7.4h-.5c-1.8,1.5-3.3,3.3-4.4,5.4-1.1,2.1-2.1,4.7-1.8,7,.5,3.7,5,4.6,8,3.4s6.8-6.2,8.8-10,3.9-9,4.8-13.8,1-11.6-.2-17.2-.8,0-.7.2c1.7,8.7.9,17.7-2.3,25.9s-3.5,7.8-6.2,11.1-3.9,4.2-6.7,4.1-3.8-1.1-4.5-2.8.3-5.3,1.3-7.5,2.7-4.2,4.6-5.8-.5,0-.5,0c-3,1.4-6,2.8-9,4.2s-2.8,1.3-4.3,2-3.4,1.7-5.3,1.9c-3.1.3-5.6-2-4.8-5.2s3.1-4.5,4.6-6.8,0,0,0,0c-1.6-.5-3.5-1.1-4.5-2.6s-.8-3.2.6-4.3c3.2-2.6,7.8-3.8,11.8-3.9s.8-.2.5-.3c-3.8-1.2-7.7-2.4-11.5-3.6s-3.3-1-4.2-2.4-.4-3.2.5-4.4c1.4-1.8,3.7-2.4,5.8-2.9s4.3-.9,6.4-1.2c4.1-.6,8.3-.7,12.4-.5s.7-.1.6-.2c-.7-1.1-1.4-2.2-2-3.3s-1.7-2.2-1.2-3.2,1.9-1,2.8-.9.9.1,1.4.2c1.2.2,2.3.6,3.4,1,3.9,1.4,7.7,3.6,10.7,6.5,3,2.9.8-.1.7-.2h0v-.3Z"/>
              </g>
              <path class="st6" d="M158.4,33.3c-3.9-4.4-8.6-8-13.9-10.7s-.7,0-.9,0-.6.3-.4.4c5.2,2.7,9.9,6.3,13.9,10.7s1.6-.3,1.4-.5h-.1Z"/>
              <path class="st6" d="M156.4,38.2c-12.2-2.6-24.6-3.7-37-1.7s-1.2.9-.2.7c12.1-2,24.4-.8,36.3,1.7s1.7-.5.9-.7h0Z"/>
              <path class="st6" d="M159,43.3c-5.6.8-11.4.9-17,1.9s-13.6,3.7-19.9,6.8.5.4.8.2c6.3-3.1,12.8-5.5,19.7-6.6s10.7-1,16.1-1.7,1.3-.7.3-.6h0Z"/>
              <path class="st6" d="M158.5,44.9c-12.2,5.9-24.8,11.5-35,20.6s.4,1.2,1,.7c10.2-9,22.6-14.6,34.7-20.4.9-.4,0-1.2-.6-.9h0Z"/>
              <path class="st6" d="M154,58.8c-5.2,4-8.5,9.8-12.6,14.8s.2.4.4.5c.4,0,.7,0,1-.4,4-4.9,7.4-10.6,12.4-14.5s.1-.5-.1-.6-.8,0-1,.3h0Z"/>
              <g>
                <path class="st24" d="M123.2,31.8c.8,0,.8-1.2,0-1.2s-.8,1.2,0,1.2h0Z"/>
                <path class="st8" d="M127.7,31.7c0,.4,0,.9-.2,1.3h1.2c-.1-1-1.1-1.9-2.1-1.9s-1,.4-1.2.9,0,.5,0,.7v.3l.9.5c0-.9-.5-1.8-1.5-1.9s-1.4.8-1.6,1.5l1.2.2c0-.8-.2-1.7-1.2-1.8s-1.3.9-1.8,1.6l1.2.3c0-.7-.4-1.5-1.2-1.5s-1.2.8-.9,1.5,1.4,0,1.1-.6c0,.2,0,.4-.2.4h0v.3c0,.6.8.8,1.2.3s.3-.7.6-.9,0,0,0,0v.5c0,.3.3.6.5.6s.6-.2.7-.4.2-.6.4-.6c.3,0,.3.5.3.6,0,.5.5.8.9.5.6-.3.7-1.1.7-1.8s0,0,0,0h0c0,0,.3,0,.4.2.3.2.4.5.4.8s.4.5.6.5.5-.2.6-.5c.2-.6.3-1.3.2-2s-.5-.5-.8-.4-.5.4-.4.8h0Z"/>
                <g>
                  <path class="st0" d="M123.9,27.8c-3.1.4-3.4,2.4-3.7,3.2v.4l.2.2c1.3.7,2.9.8,4.4.7,1.5-.2,2.9-.7,4.3-1.3,0,0-.6-3.6-5.1-3.1h-.1Z"/>
                  <path class="st0" d="M123.9,27.4c-1,.1-2,.4-2.7,1.1s-.9,1.1-1.1,1.7-.2.5-.2.7c-.2.6.2.9.7,1.1,1.3.5,2.7.7,4,.6s3.2-.7,4.6-1.4.2-.3.2-.4c-.1-.7-.5-1.4-1-1.9-1.1-1.3-2.9-1.6-4.5-1.4s-.5.8,0,.8c1.5-.2,3,0,4,1.3s.6,1,.7,1.6l.2-.4c-1.4.7-2.9,1.2-4.4,1.3s-1.5,0-2.2-.1-.7-.2-1-.3-.7-.1-.6-.4c0-.5.4-1.1.7-1.6.6-.8,1.6-1.2,2.6-1.3s.5-.8,0-.8v-.2Z"/>
                </g>
                <path class="st3" d="M128.9,30.6c-1.1-.8-2.4-1.2-3.8-1.4s-2.7-.1-4,.4-.3.9.2.7c1.2-.4,2.5-.5,3.7-.3s2.5.5,3.5,1.3c1,.8.8-.4.4-.6h0Z"/>
                <path class="st8" d="M124.6,31.5c.6,0,.6-.9,0-.9s-.6.9,0,.9h0Z"/>
                <path class="st8" d="M123.1,32c.6,0,.6-.9,0-.9s-.6.9,0,.9h0Z"/>
                <path class="st8" d="M126.5,31.6c.6,0,.6-.9,0-.9s-.6.9,0,.9h0Z"/>
                <path class="st8" d="M124.8,28.9c.5,0,.5-.7,0-.7s-.5.7,0,.7h0Z"/>
                <path class="st8" d="M123.6,28.5h.2v-.2h0v-.3h0s0-.1-.2-.1h-.2v.2h0v.3h0s0,.1.2.1h0Z"/>
                <path class="st8" d="M126.6,28.9c.5,0,.5-.7,0-.7s-.5.7,0,.7h0Z"/>
                <g>
                  <path class="st8" d="M119.8,29.8c.2-.1.5,0,.7,0s.3.4.3.6,0,.5-.2.7c0,.1-.2.3-.3.4s-.3.1-.5,0c0,0-.2-.2-.3-.3-.2-.4,0-.8,0-1.2h0c0-.2,0-.1.2-.1"/>
                  <path class="st8" d="M120,30.3s0,0,0,0,0,0,0,0h0,.2,0,0v.2h0v.3c0-.1,0,0,0,0h0c0,.2,0,.1,0,.1h0,0,0v-.2h0v-.2h0c0-.2,0-.1,0-.1h0s-.2,0,0,0h-.2s0,0-.2-.1c.2.2.5.2.7,0s.2-.5,0-.7-.4-.2-.6-.2-.3.2-.5.4-.2.5-.2.8c0,.5,0,1.1.6,1.4s.6,0,.9,0,.4-.3.5-.5c.3-.4.4-1,.2-1.5s-.3-.5-.6-.7-.7-.2-1,0-.3.5-.2.7.4.3.7.2h-.2Z"/>
                </g>
                <path class="st8" d="M120.1,29.8c0-.4-.4-.7-.7-1s-.6-.5-1-.6-.5,0-.5.3,0,.5.3.5,0,0,.2,0h0c.2,0,.3.1.5.2h0c0,0,.3.2.4.3h0c0,0,.2.2.3.4h0c0,.1,0,.2.2.3s.2,0,.3,0c.2,0,.4-.3.3-.5h-.2Z"/>
                <path class="st8" d="M120.4,29.9v-1.4c0-.5-.2-.8-.6-1.1s-.2-.1-.3-.1-.2,0-.3.1c0,.2-.2.5,0,.6s0,0,0,0h0s0,.1,0,.2h0v.3h0v1c0,.2.2.5.4.4s.4-.2.4-.4h0l.3.4Z"/>
              </g>
            </g>
          </g>
        </g>
      </g>
    </g>
  </g>
</svg>