<?xml version="1.0" encoding="UTF-8"?>
<svg id="Layer_1" xmlns="http://www.w3.org/2000/svg" version="1.1" xmlns:xlink="http://www.w3.org/1999/xlink" viewBox="0 0 159.2 221.8">
  <!-- Generator: Adobe Illustrator 29.1.0, SVG Export Plug-In . SVG Version: 2.1.0 Build 142)  -->
  <defs>
    <style>
      .st0 {
        fill: #d9c3a8;
      }

      .st1 {
        fill: #f6e7d5;
      }

      .st2 {
        fill: #3e776e;
      }

      .st3 {
        opacity: .4;
      }

      .st4 {
        fill: none;
      }

      .st5 {
        fill: #365f42;
      }

      .st6 {
        clip-path: url(#clippath-1);
      }

      .st7 {
        fill: #fbefe2;
      }

      .st8 {
        fill: #377a64;
      }

      .st9 {
        fill: #056e50;
      }

      .st10 {
        fill: #d73a51;
      }

      .st11 {
        fill: #28663d;
      }

      .st12 {
        fill: #98c455;
      }

      .st13 {
        fill: #5eb157;
      }

      .st14 {
        clip-path: url(#clippath-2);
      }

      .st15 {
        fill: #f1bac2;
      }

      .st16 {
        fill: #ede7e2;
      }

      .st17 {
        fill: #3b605a;
      }

      .st18 {
        clip-path: url(#clippath);
      }
    </style>
    <clipPath id="clippath">
      <rect class="st4" x="122.4" y="13.1" width="36.6" height="65.1"/>
    </clipPath>
    <clipPath id="clippath-1">
      <rect class="st4" x=".4" y="11.3" width="37.2" height="130.9"/>
    </clipPath>
    <clipPath id="clippath-2">
      <rect class="st4" x="114.6" y="58.9" width="44.5" height="59.6"/>
    </clipPath>
  </defs>
  <rect class="st15" x=".2" y="0" width="158.8" height="221.8"/>
  <g class="st3">
    <path class="st10" d="M113.9,108.4c7.1-4.1,12.1-11.4,14.1-19.3,1.4-5.5,1.3-11.4.4-17-1.3-7.2-3.9-14-7.1-20.6-4.1-8.3-9.2-16.4-17-21.4-5.8-3.7-12.7-5.4-19.5-6.7-9.7-1.8-20.2-2.7-29,1.6-7.3,3.6-12.5,10.5-16.3,17.8-5.1,9.9-7.9,21.1-6.6,32.1,1.3,11,7,21.7,16.3,27.8,0,0,30.5,25.5,64.8,5.6h0Z"/>
  </g>
  <g class="st18">
    <g>
      <g>
        <path class="st13" d="M159.4,50.3c-3-12.6-11-24-21.8-31.1,3,5.3,4.3,11.3,6,17.1s4,11.7,8.5,15.8c-7.2-6.2-14.6-12.5-19.6-20.5,0,9.6,4.5,19,11.9,25.1,4.8,4,10.9,6.6,14.6,11.7"/>
        <path class="st13" d="M160.7,49.9c-3.1-12.7-11-24-21.9-31.2s-2.9.4-2.7.8c5.9,10.5,5.3,24.4,14.6,33.1l2.6-.9c-7.2-6.1-14.4-12.4-19.5-20.4s-2.7.1-2.7.7c0,7.9,3,15.5,8.2,21.5,2.6,3,5.8,5.3,9.1,7.5s6.8,4.5,9.2,7.8,2.9-.5,2.7-.7c-4.7-6.3-12.6-9.1-17.9-14.9s-8.5-13.9-8.6-21.9l-2.7.7c5.1,8.1,12.4,14.4,19.7,20.6s2.9-.6,2.6-.9c-9.2-8.6-8.6-22.4-14.4-32.9l-2.7.8c10.8,7.2,18.7,18.4,21.8,31s2.9-.2,2.7-.7h-.1Z"/>
      </g>
      <g>
        <path class="st12" d="M158.3,65.2c-10-8.6-24.7-8.6-32.9-12.9,3.1,3.4,6.6,6.6,10.5,9,3.8,2.3,8.1,3.9,12,6.1,6.8,3.7,14.8,8.4,20.8,13.4"/>
        <path class="st12" d="M159.6,64.7c-4.9-4.2-11-6.4-17.1-8.1s-11-2.3-15.9-4.9-3,.4-2.4,1.1c2.9,3.2,6.1,6.2,9.8,8.6s7.7,3.9,11.5,5.9c7.7,3.9,15.4,8.5,22,14s3.1-.5,2.6-1c-6.5-5.4-14.1-9.8-21.6-13.8-4-2.1-8.2-3.7-12-6.1s-6.8-5.3-9.8-8.6l-2.4,1.1c4.8,2.5,10.4,3.4,15.6,4.8s12.2,3.9,17.1,8c4.9,4.1,3.1-.5,2.6-1h0Z"/>
      </g>
      <path class="st11" d="M139.6,21.9c12.6,7.2,10.4,24.4,18.2,35.2-10.1-9.4-7.5-26.1-18.2-35.2h0Z"/>
      <path class="st11" d="M133.3,35.3c6.2,10.6,15.8,18.4,25.7,25.4-11-4.3-22.2-13.8-25.7-25.4h0Z"/>
      <path class="st11" d="M125.4,52.3c11.6,6.3,25.6,8.6,35.1,18.3-5.5-3.7-11.6-6.2-17.7-8.8-6-2.7-12.5-5.1-17.5-9.6h0Z"/>
    </g>
  </g>
  <g class="st6">
    <g>
      <g>
        <g>
          <g>
            <path class="st9" d="M24.3,79.8c-2.1,4.8-3.5,9.8-4.7,14.9-1,4.5-1.8,9-3,13.4-1.3,4.4-3.1,8.7-6.2,12.2-4.3,4.9-10.6,7.6-16.7,9.9,0-3.2-.3-6.4-.4-9.6,0-2-.2-4.1.3-6.1.5-2.1,1.5-3.9,2.5-5.8,2.7-5,5.3-9.9,8-14.9,1-1.8,2-3.7,3.1-5.5,1.4-2.2,2.9-4.3,4.4-6.4,5.2-7.2,10.5-14.4,17-20.5,0,0-1.2,11.4-4.2,18.4h0Z"/>
            <path class="st9" d="M23.6,79.7c-3.4,7.9-4.9,16.2-6.8,24.5s-2.1,7.9-4.1,11.5-4.5,6.2-7.8,8.4-7.6,4-11.6,5.6l1,.4c0-2.6-.2-5.3-.3-7.9s-.3-5.1.2-7.6,1.9-4.9,3.2-7.2,2.5-4.7,3.8-7c2.5-4.7,4.9-9.6,7.9-14,3-4.4,5.7-8,8.7-11.9,3-3.9,7.1-8.8,11.2-12.7l-1.2-.3c-.6,6.1-1.7,12.6-4.2,18.3s1.1.8,1.4.2c2.5-5.8,3.6-12.3,4.2-18.5s-.9-.6-1.2-.3c-7.3,6.9-13.3,15.2-19.1,23.4s-5.4,9-7.9,13.6-2.7,5-4,7.5c-1.3,2.5-2.7,4.6-3.6,7.1s-.9,5.4-.8,8.2.3,6.3.4,9.4c0,3.1.6.6,1,.4,7.1-2.7,14.4-5.9,18.8-12.4s5.7-15.4,7.5-23.3,2.6-10.1,4.7-15-1.1-.8-1.4-.2v-.2Z"/>
          </g>
          <g>
            <path class="st8" d="M28.1,61.3c-5.4,9.1-10.6,18.4-15.5,27.7-5,9.4-9.9,19-14.2,28.7s-3.3,7.7-4.5,11.7.6.2.7,0c2.4-8.3,6.4-16.1,10.2-23.8,4.9-10,10.2-19.9,15.6-29.6s5.5-9.8,8.4-14.6-.5-.3-.7,0h0Z"/>
            <g>
              <path class="st9" d="M16.7,82c-.2-1.9,0-4.8,0-6.7"/>
              <path class="st8" d="M17,81.9c-.2-2.2,0-4.5,0-6.7s-.7,0-.7.2c0,2.2-.2,4.5,0,6.7s.7,0,.7-.2h0Z"/>
            </g>
            <g>
              <path class="st9" d="M14.8,84.9c-.2-2.2-.3-4.4-.5-6.6"/>
              <path class="st8" d="M15.2,84.8c-.2-2.2-.3-4.4-.5-6.6s-.7,0-.7.2c.2,2.2.3,4.4.5,6.6s.7,0,.7-.2h0Z"/>
            </g>
            <g>
              <path class="st9" d="M27.1,71.2c-1.6.7-4.3,1.8-5.8,2.7"/>
              <path class="st8" d="M26.9,71c-2,.9-4,1.6-5.9,2.7s-.2.2,0,.3.4,0,.5,0c1.8-1.1,3.8-1.8,5.7-2.6s.3-.2.2-.3-.4,0-.5,0h0Z"/>
            </g>
            <g>
              <path class="st9" d="M26.3,73.8c-1.7.7-5.8,3-7.2,4.1"/>
              <path class="st8" d="M26.2,73.6c-1.3.5-2.5,1.2-3.7,1.9s-2.4,1.4-3.6,2.2.2.4.5.3c1.1-.8,2.3-1.5,3.5-2.2s2.4-1.3,3.7-1.9.3-.2.2-.3-.4,0-.5,0h-.1Z"/>
            </g>
            <g>
              <path class="st9" d="M18.6,96.9c-2.6,1.5-11.4,5.5-12.9,6.3"/>
              <path class="st8" d="M18.4,96.7c-2.2,1.3-4.6,2.4-7,3.5s-4.1,1.8-6,2.9.2.5.5.3c1.9-1.1,4-2,6-2.9s4.6-2.1,6.8-3.4,0-.6-.3-.4h0Z"/>
            </g>
            <g>
              <path class="st9" d="M18.5,99.3c-3.9,1.6-10.9,5.4-14.4,7.4"/>
              <path class="st8" d="M18.4,99.1c-5,2.1-9.8,4.7-14.4,7.4s.2.4.4.2c4.6-2.7,9.4-5.3,14.3-7.4s0-.4-.3-.3h0Z"/>
            </g>
            <g>
              <path class="st9" d="M11.6,117.2c-4.6.9-10.7,2-14,3.3h-.2"/>
              <path class="st8" d="M11.6,117c-2.5.5-5.1,1-7.6,1.5s-2.4.6-3.6.9-1,.3-1.5.5-.5.2-.8.3-.5.2-.4.2c-.3,0-.8.3-.4.5s.7,0,1.1-.2c.5-.2,1-.3,1.5-.5,1.3-.4,2.5-.7,3.8-1,2.7-.6,5.4-1.1,8.1-1.6s.3-.6-.1-.5h-.1Z"/>
            </g>
          </g>
        </g>
        <g>
          <path class="st8" d="M13.6,131.4c1.3-.8,2.6-1.7,3.7-2.8,1.5-1.4,2.6-3.2,3.6-5,2.1-3.4,4.2-6.8,6.3-10.2,2.5-4,5-8.2,8.7-11.1-8.4-.5-16.3,3.8-22.6,9.4-8.1,7.2-14.5,17.2-14.4,28,0,0,10.8-5.8,14.7-8.3Z"/>
          <path class="st8" d="M14.2,131.4c2.6-1.6,4.6-3.4,6.3-6s3.3-5.4,5-8.1c3.2-5.3,6.2-11.1,11.1-15s.2-.3,0-.4c-7.7-.4-15,2.9-21,7.5s-11.6,10.8-14.7,18-2.7,8.2-2.7,12.5,1,0,1.1,0c5-2.7,10-5.4,14.8-8.4,4.8-3-.8-.3-1.1-.1-4.7,2.9-9.7,5.6-14.6,8.2H-.4c0-7.2,2.7-14,6.8-19.7,4.1-5.7,9.9-11.1,16.4-14.3s8.3-3.2,12.8-2.9v-.4c-4.6,3.7-7.4,8.8-10.4,13.6-1.8,2.9-3.5,5.8-5.3,8.6s-3.9,5-6.7,6.9.8.3,1.1.1h0Z"/>
        </g>
        <g>
          <path class="st9" d="M35.4,102.3c-12.3,6.1-23.5,15.3-31.2,26.8s-4,6.6-5.4,10.1.6,0,.7-.1c5.1-12.6,15-23,26.1-30.6,11.1-7.6,6.7-4.2,10.2-6s-.2-.2-.4,0h0Z"/>
          <path class="st9" d="M4.7,129.4c2.1-1.4,4.5-2.3,6.9-2.9s5-1.1,7.5-.9.8-.4.3-.5c-2.6-.2-5.3.2-7.8.9s-5.1,1.6-7.3,3.1.2.4.5.3h0Z"/>
          <path class="st9" d="M6.9,126.3c2-1.1,4.3-1.6,6.6-1.9s4.5-.5,6.7-.6.5-.6,0-.6c-2.4,0-4.8.3-7.1.7s-4.6.9-6.6,1.9,0,.7.3.5h0Z"/>
          <path class="st9" d="M21.1,111.6c.2-1.8.2-3.6.2-5.4s-.7,0-.7.2c0,1.8,0,3.5-.2,5.3s.7,0,.7,0h0Z"/>
          <path class="st9" d="M23.3,109.8c.1-1.3,0-2.7,0-4s-.7-.3-.7,0v4c0,1.3.7.3.7,0h0Z"/>
        </g>
      </g>
      <g>
        <g>
          <path class="st7" d="M20.5,25.1c3.7.4,7.3.7,11,1.1.6,0,1.2.1,1.8.4.7.5,1.1,1.3,1.4,2.1.2.5.4,1,.2,1.5-.3.6-1,.9-1.7.9-9.8-.2-35.7,1.2-38.8-.5l-.6-.6c-.7-.7-.5-1.9.2-2.6s1.7-.9,2.7-1,2,0,2.9-.2c2.5-.6,4.1-3.2,6.2-4.6,2-1.3,4.5-1.7,6.8-1.1,1.8.5,3.4,1.7,5,2.7,2.3,1.4,4.9,2.6,7.6,3.1"/>
          <path class="st7" d="M20.2,25.6c2.1.2,4.3.4,6.4.6l3.1.3c1.2.1,2.6,0,3.4,1s.5.8.6,1.2.2.4.2.5c0,.5-.2,1.1-.8,1.3s-1.1,0-1.4,0h-3.2c-5.4,0-10.8.2-16.3.3s-9.7.2-14.6-.2-1.4-.1-2.1-.2-.8-.2-1.2-.6c-.6-.6-.7-1.4,0-2.1s2-.8,3.1-.8c1.7,0,3.1-.4,4.5-1.4s2.6-2.5,4.1-3.6,4.5-1.6,6.7-.7,3.7,2.2,5.6,3.3,4,1.9,6.2,2.3,1.9-.8.9-1c-2.4-.5-4.6-1.4-6.7-2.6s-3.5-2.4-5.5-3.1c-3.9-1.4-7.6.3-10.4,3s-1.4,1.4-2.1,1.9-2.3.8-3.6.9c-1.3.1-3.6.3-4.4,1.8-.8,1.5.6,3.5,2.4,3.8,4.9.9,10.2.5,15.1.4s12.7-.3,19.1-.3,2.7.2,4,0,1.6-.5,2-1.2,0-2-.4-2.8c-1.1-2.2-3.3-2-5.5-2.3s-5.9-.6-8.8-.9-1.7,1-.6,1.1h.3Z"/>
        </g>
        <g>
          <path class="st1" d="M1.6,30.9c4-1.4,8.4-.9,12.7-1.2,3-.2,6-.9,9-1.2,3-.3,6.1-.2,8.9,1-2.2,1.2-4.9,1.1-7.4,1-3.3,0-6.7,0-10,.2-3.7.1-7.4.3-11.1.4"/>
          <path class="st1" d="M2.2,31.4c2.3-.8,4.9-.8,7.3-.8s4.8-.1,7.1-.5c4.7-.6,9.6-1.8,14.2.1l.3-1c-1.9.9-4.3.6-6.3.6s-4.5,0-6.7.1c-4.6.2-9.3.4-13.9.5s-1.8.2-2.1.8.3.7.8.7c5.3-.2,10.6-.5,15.8-.6,5.2-.1,9.9.7,14.3-1.5s1-.7.3-1c-5.1-2.1-10.6-1-15.8-.3s-11.2,0-16.6,1.8C-4.5,32.1-.4,30.9,0,31.4s1.7,0,2.1,0h.1Z"/>
        </g>
      </g>
    </g>
  </g>
  <g class="st14">
    <g>
      <g>
        <path class="st17" d="M159.9,69.5c-3.9-3.7-10.6-7.3-15.9-7.7-1.4,0-3.2.3-3.3,1.6,0,.6.3,1.1.6,1.5.9,1.5,1.9,3,2.8,4.5-6.6-.3-13.2.3-19.6,1.9-1.8.4-3.7,1-5.1,2.3s-2.1,3.5-1.1,5.1c.8,1.3,2.4,1.8,3.8,2.3,4,1.2,8,2.5,12,3.7-4.1,0-8.1,1.3-11.6,3.5-.8.5-1.5,1.1-1.9,1.9-.6,1.3,0,2.9,1.1,3.8s2.5,1.4,3.9,1.8c-1,1.7-2.5,3-3.6,4.6s-1.7,3.8-.7,5.5c.9,1.5,2.7,2.1,4.4,2,1.7,0,3.3-.8,4.8-1.6,4.8-2.2,9.6-4.4,14.3-6.7-3,2.4-5.1,5.9-5.9,9.6-.3,1.2-.4,2.5,0,3.6.9,2.6,4.2,3.6,6.8,2.7s4.5-3,6.1-5.3c7.2-10.2,10-23.5,7.5-35.8"/>
        <path class="st17" d="M160.3,69.4c-3.9-3.7-9.1-6.5-14.4-7.5s-3.5-.5-4.8.5-.7,1.8-.1,2.7c.9,1.5,1.9,3,2.8,4.5l.6-.2c-4.6-.2-9.1,0-13.6.7s-4.4.8-6.6,1.3-3.2.9-4.5,1.9-2.1,2.5-2,4.1,1.6,2.8,3.1,3.4c4.3,1.6,8.8,2.8,13.2,4.2l.5-.3c-4,0-7.9,1.2-11.3,3.2s-3.1,1.9-2.9,3.8,2.1,3.2,3.9,3.9.9.2,1,.3c.3.5-.4,1.1-.7,1.4-.7.9-1.6,1.8-2.3,2.7-1.1,1.5-2,3.6-1.3,5.5,1.3,3.4,5.7,2.7,8.3,1.7,5.5-2.2,10.7-5,16.1-7.4h-.5c-1.8,1.5-3.3,3.3-4.4,5.4s-2.1,4.7-1.8,7c.5,3.7,5,4.6,8,3.4s6.8-6.2,8.8-10,3.9-9,4.8-13.8,1-11.6-.2-17.2-.8,0-.7.2c1.7,8.7.9,17.7-2.3,25.9s-3.5,7.8-6.2,11.1-3.9,4.2-6.7,4.1-3.8-1.1-4.5-2.8.3-5.3,1.3-7.5,2.7-4.2,4.6-5.8-.5,0-.5,0c-3,1.4-6,2.8-9,4.2s-2.8,1.3-4.3,2-3.4,1.7-5.3,1.9c-3.1.3-5.6-2-4.8-5.2s3.1-4.5,4.6-6.8,0,0,0,0c-1.6-.5-3.5-1.1-4.5-2.6s-.8-3.2.6-4.3c3.2-2.6,7.8-3.8,11.8-3.9s.8-.2.5-.3c-3.8-1.2-7.7-2.4-11.5-3.6s-3.3-1-4.2-2.4-.4-3.2.5-4.4c1.4-1.8,3.7-2.4,5.8-2.9s4.3-.9,6.4-1.2c4.1-.6,8.3-.7,12.4-.5s.7,0,.6-.2c-.7-1.1-1.4-2.2-2-3.3s-1.7-2.2-1.2-3.2,1.9-1,2.8-.9.9,0,1.4.2c1.2.2,2.3.6,3.4,1,3.9,1.4,7.7,3.6,10.7,6.5s.8,0,.7-.2h0v-.3Z"/>
      </g>
      <path class="st2" d="M158.6,73.2c-3.9-4.4-8.6-8-13.9-10.7s-.7,0-.9,0-.6.3-.4.4c5.2,2.7,9.9,6.3,13.9,10.7s1.6-.3,1.4-.5h-.1Z"/>
      <path class="st2" d="M156.6,78.2c-12.2-2.6-24.6-3.7-37-1.7s-1.2.9-.2.7c12.1-2,24.4-.8,36.3,1.7s1.7-.5.9-.7h0Z"/>
      <path class="st2" d="M159.1,83.3c-5.6.8-11.4.9-17,1.9s-13.6,3.7-19.9,6.8.5.4.8.2c6.3-3.1,12.8-5.5,19.7-6.6s10.7-1,16.1-1.7,1.3-.7.3-.6h0Z"/>
      <path class="st2" d="M158.7,84.9c-12.2,5.9-24.8,11.5-35,20.6s.4,1.2,1,.7c10.2-9,22.6-14.6,34.7-20.4s0-1.2-.6-.9h0Z"/>
      <path class="st2" d="M154.1,98.8c-5.2,4-8.5,9.8-12.6,14.8s.2.4.4.5c.4,0,.7,0,1-.4,4-4.9,7.4-10.6,12.4-14.5s.1-.5-.1-.6-.8,0-1,.3h0Z"/>
    </g>
  </g>
  <g>
    <path class="st5" d="M49.9,111.2c2.5-4.1,5.8-7.7,9.7-10.5s7.8-4.6,11.8-5.5c9.2-2.1,19,.5,26.7,5.7s8.5,7.1,11.3,11.8,6.3-.7,5.8-1.6c-5.5-9.2-14.9-15.8-25.4-18.2s-23.3.2-32.9,6.3-9.5,7.6-12.7,12.8,2.1.6,2.3.6c1.1-.2,2.8-.6,3.4-1.6h0v.2Z"/>
    <path class="st5" d="M61.3,58.2c-1.3,5.2-1.7,10.8-.4,16.1s4,10.4,8.8,12.5,5.4,1.3,8.1,1.4,5.8,0,8.5-1.3c4.7-2.1,8-6.4,9.8-11.1s3-11.3,2.5-16.8-.8-5.4-2.2-7.8-2.9-3.6-4.7-4.8-4.1-2.4-6.4-2.8-1,0-1.5-.2-1.2,0-1,0h-.3c-1.7,0-3.4,0-5.1,0-3.3.5-6.4,1.6-9.1,3.6s-5.8,6.6-6.9,10.8,2.8,2,3.2.5c1.6-5.9,5.3-10.6,11.3-12s1.6-.3,2.7-.4.8,0,1.2,0h.5c.2,0,.7,0,.3,0,1.7,0,3.4,0,5,.6,3.9,1.3,7.5,4.4,8.9,8.4s1.1,10.1,0,15-2.6,9.5-6.3,12.7-8.6,3.4-13.5,2.7-5.1-1.6-6.8-4-2.7-4.5-3.4-7.1c-1.5-5.3-1.1-10.9.2-16.2s-.9-1.2-1.6-1.2-1.6.6-1.8,1.4h0Z"/>
    <path class="st16" d="M76.4,57.7c.3-.7,1-1.7,1.8-1.9-.4,0,.2,0,.3,0,.4,0,.8.2,1.2.3,1.8.9,2.6,3.1,2.3,5s-2.8,3.2-4.5,4.7-2.4,3.9-2,6.2,3.4-.2,3.3-.9c-.4-2.1.2-4.4,1.9-5.9s3.7-2.1,4.3-4.3.2-3.6-1-4.9-3.3-1.8-5.2-1.5-4.8,1.4-5.8,3.6,1.1.3,1.3.3c.5,0,1.7-.3,1.9-.9h0l.2.2Z"/>
    <path class="st16" d="M76.6,77.4l.6,1c0,0,.2.2.4.2h1.1c.2,0,.4,0,.7-.2l.4-.2c.2,0,.4-.2.5-.4v-.2c.2-.2,0-.3,0-.4l-.6-1c0,0-.2-.2-.4-.2h-1.1c-.2,0-.4,0-.7.2l-.4.2c-.2,0-.4.2-.5.4v.2c-.2.2,0,.3,0,.4h0Z"/>
    <g>
      <path class="st0" d="M69.4,38.9c-.3-1.6-.6-3.3-.8-4.9s-.4-.4-.6-.4h-1.2c-.3,0-.8.3-1.1.5s-.4.4-.3.7c.3,1.6.6,3.3.8,4.9s.4.4.6.4h1.2c.3,0,.8-.3,1.1-.5s.4-.4.3-.7h0Z"/>
      <path class="st0" d="M63.1,40.7c-1.7-1.8-3.4-3.5-5.2-5.2s-.6-.2-.9-.2-.9,0-1.3.3-1.4.7-.9,1.1c1.8,1.7,3.5,3.4,5.2,5.2s.6.2.9.2.9,0,1.3-.3,1.4-.6.9-1.1h0Z"/>
      <path class="st0" d="M58.6,46.5l-6.5-.6c-.4,0-.8,0-1.2.2s-.8.2-1.1.5-.4.3-.4.5.4.2.6.2l6.5.6c.4,0,.8,0,1.2-.2s.8-.2,1.1-.5.4-.3.4-.5-.4-.2-.6-.2h0Z"/>
      <path class="st0" d="M56,52.8c-.5,0-1,.2-1.5.3s-.2,0-.4,0c-.4,0,.4,0,0,0s-.5,0-.8,0c-1,.2-2,.3-3.1.4s-.9.2-1.2.4-.6.5-.6.8c0,.8.9.9,1.5.9,2.2-.2,4.5-.6,6.7-1.1s.8-.3,1.1-.6.4-.5.3-.8c-.3-.7-1.3-.7-1.9-.5h0Z"/>
    </g>
  </g>
</svg>