<?xml version="1.0" encoding="UTF-8"?>
<svg xmlns="http://www.w3.org/2000/svg" xmlns:xlink="http://www.w3.org/1999/xlink" version="1.1" viewBox="0 0 159.2 221.8">
  <!-- Generator: Adobe Illustrator 29.0.0, SVG Export Plug-In . SVG Version: 2.1.0 Build 186)  -->
  <defs>
    <style>
      .st0 {
        fill: none;
      }

      .st1 {
        fill: #6d7071;
      }

      .st2 {
        fill: #fcecc4;
      }

      .st3 {
        fill: #009b65;
      }

      .st4 {
        fill: #056e50;
      }

      .st5 {
        fill: #d9a83f;
      }

      .st6 {
        fill: #2f308c;
      }

      .st7 {
        fill: #5eb157;
      }

      .st8 {
        fill: #fbefe2;
      }

      .st9 {
        fill: #c55f5f;
      }

      .st10 {
        fill: #674a26;
      }

      .st11 {
        fill: #e48152;
      }

      .st12 {
        fill: #97a48d;
      }

      .st13 {
        fill: #6f4e2f;
      }

      .st14 {
        fill: #f6e7d5;
      }

      .st15 {
        fill: #764b33;
      }

      .st16 {
        fill: #bc9b72;
      }

      .st17 {
        fill: #fdf2d7;
      }

      .st18 {
        fill: #2d388a;
      }

      .st19 {
        fill: #b7c1de;
      }

      .st20 {
        isolation: isolate;
      }

      .st21 {
        fill: #98c455;
      }

      .st22 {
        fill: #835f41;
      }

      .st23 {
        fill: #3b4516;
      }

      .st24 {
        fill: #574b43;
      }

      .st25 {
        mix-blend-mode: multiply;
      }

      .st26 {
        fill: #4ca87c;
      }

      .st27 {
        fill: #a27d56;
      }

      .st28 {
        clip-path: url(#clippath-1);
      }

      .st29 {
        clip-path: url(#clippath-2);
      }

      .st30 {
        fill: #939e4c;
      }

      .st31 {
        font-family: Barlow-Italic, Barlow;
        font-style: italic;
      }

      .st32 {
        fill: #e58c75;
      }

      .st33 {
        fill: #3973b5;
      }

      .st34 {
        fill: #3c404a;
      }

      .st35 {
        fill: #fff;
      }

      .st36 {
        fill: #b33137;
      }

      .st37 {
        fill: #e89981;
      }

      .st38 {
        fill: #c77247;
      }

      .st39 {
        fill: #de5f3b;
      }

      .st40, .st41 {
        fill: #221f20;
      }

      .st42 {
        opacity: .6;
      }

      .st43 {
        fill: #26225e;
      }

      .st44 {
        fill: #28663d;
      }

      .st45 {
        font-family: Barlow-Regular, Barlow;
        letter-spacing: 0em;
      }

      .st46 {
        fill: #f4c561;
      }

      .st47 {
        fill: #6c2c36;
      }

      .st48 {
        fill: #ba4e52;
      }

      .st49 {
        fill: #f8f1f1;
      }

      .st50 {
        fill: #13314b;
      }

      .st51 {
        fill: #8d8c89;
      }

      .st52 {
        fill: #59b278;
      }

      .st53 {
        fill: #384431;
      }

      .st54 {
        fill: #b6d2d4;
      }

      .st55 {
        fill: #d93832;
      }

      .st56 {
        clip-path: url(#clippath);
      }

      .st57 {
        fill: #00a259;
      }

      .st41 {
        font-size: 7.8px;
      }

      .st58 {
        fill: #c99d3a;
      }
    </style>
    <clipPath id="clippath">
      <path class="st0" d="M113.2,65.2c0,3.8-.1,7.6,0,11.3,0,.2,0,.3,0,.4.1.2.4.2.7.3,7.4.5,14.9,1,22.3,1.4.3,0,.7,0,.9-.3,0-.1,0-.3.1-.5,0-4.4,0-8.9,0-13.3,0-.3,0-.7-.3-.9-.2-.1-.4,0-.6,0-7.7.6-15.4,1.2-23,1.8"/>
    </clipPath>
    <clipPath id="clippath-1">
      <rect class="st0" x="0" y="17.3" width="16.6" height="13.7"/>
    </clipPath>
    <clipPath id="clippath-2">
      <polygon class="st0" points="100.9 95.2 159.2 94.8 159.2 126.2 100.9 126.6 100.9 95.2"/>
    </clipPath>
  </defs>
  <g class="st20">
    <g id="Layer_1">
      <g>
        <rect class="st54" x=".3" y="0" width="158.8" height="221.8"/>
        <g>
          <path class="st4" d="M12.4,141.8v-1l.9-.2v-6.2l-.9-.2v-1h3.7c.8,0,1.4.2,2,.5s1,.9,1.4,1.5.5,1.4.5,2.2v.2c0,.8-.2,1.5-.5,2.2s-.8,1.1-1.3,1.5-1.2.5-2,.5h-3.7ZM14.9,140.6h1.1c.5,0,.9-.1,1.2-.4s.6-.6.8-1.1.3-1,.3-1.5v-.2c0-.6,0-1.1-.3-1.5s-.4-.8-.8-1-.8-.4-1.2-.4h-1.1v6.1Z"/>
          <path class="st4" d="M20.5,141.8v-1l.8-.2v-4.1l-.9-.2v-1h2.5v5.2l.8.2v1h-3.3ZM21.3,134.1v-1.4h1.7v1.4h-1.7Z"/>
          <path class="st4" d="M24.4,141.8v-1l.9-.2v-4.1h-1v-1.1h1v-.7c0-.7.2-1.3.6-1.6s1-.6,1.7-.6.3,0,.5,0,.4,0,.5,0v1.2c-.2,0-.3,0-.5,0s-.2,0-.4,0c-.3,0-.5,0-.7.2s-.2.4-.2.7v.7h1.4v1.1h-1.4v4.1l1.1.2v1h-3.6Z"/>
          <path class="st4" d="M31.8,142c-.6,0-1.1-.1-1.6-.4s-.8-.6-1-1.1-.4-1-.4-1.6v-.2c0-.6.1-1.2.4-1.7s.6-.9,1-1.1.9-.4,1.5-.4,1.1.1,1.4.3.7.6.9,1,.3.9.3,1.5v.9h-3.8c0,.3,0,.6.2.8s.3.4.5.6.5.2.8.2.6,0,.9-.1.5-.2.8-.4l.5,1c-.3.2-.6.4-1,.5s-.8.2-1.4.2ZM30.5,138h2.3v-.2c0-.3,0-.5-.1-.7s-.2-.4-.4-.5-.4-.2-.6-.2-.4,0-.6.2-.3.3-.4.5-.2.5-.2.7h0Z"/>
          <path class="st4" d="M35,141.8v-1l.8-.2v-4.1l-.9-.2v-1h2.4v.8c0,0,0,.1,0,.1.2-.3.4-.6.6-.8s.5-.3.8-.3.2,0,.3,0,.2,0,.3,0l-.2,1.5h-.8c-.3,0-.5,0-.6,0s-.3.3-.4.5v3.2l.8.2v1h-3.3Z"/>
          <path class="st4" d="M42.9,142c-.6,0-1.1-.1-1.6-.4s-.8-.6-1-1.1-.4-1-.4-1.6v-.2c0-.6.1-1.2.4-1.7s.6-.9,1-1.1.9-.4,1.5-.4,1.1.1,1.4.3.7.6.9,1,.3.9.3,1.5v.9h-3.8c0,.3,0,.6.2.8s.3.4.5.6.5.2.8.2.6,0,.9-.1.5-.2.8-.4l.5,1c-.3.2-.6.4-1,.5s-.8.2-1.4.2ZM41.5,138h2.3v-.2c0-.3,0-.5-.1-.7s-.2-.4-.4-.5-.4-.2-.6-.2-.4,0-.6.2-.3.3-.4.5-.2.5-.2.7h0Z"/>
          <path class="st4" d="M46,141.8v-1l.8-.2v-4.1l-.9-.2v-1h2.4v.9c.3-.3.5-.6.9-.8s.7-.3,1.1-.3c.6,0,1.1.2,1.5.6s.5,1,.5,1.9v2.8l.8.2v1h-3.2v-1l.8-.2v-2.8c0-.5,0-.8-.3-1s-.4-.3-.8-.3-.5,0-.7.2-.4.3-.5.5v3.4l.8.2v1h-3.2Z"/>
          <path class="st4" d="M55.8,142c-.6,0-1-.2-1.3-.5s-.5-.8-.5-1.5v-3.4h-.9v-1.1h.9v-1.5h1.6v1.5h1.2v1.1h-1.2v3.4c0,.3,0,.4.2.6s.3.2.4.2.2,0,.3,0,.2,0,.3,0l.2,1.1c-.2,0-.4,0-.6.1s-.4,0-.6,0Z"/>
          <path class="st4" d="M60.4,142c-.6,0-1.1-.1-1.6-.4s-.8-.6-1-1.1-.4-1-.4-1.6v-.2c0-.6.1-1.2.4-1.7s.6-.9,1-1.1.9-.4,1.5-.4,1.1.1,1.4.3.7.6.9,1,.3.9.3,1.5v.9h-3.8c0,.3,0,.6.2.8s.3.4.5.6.5.2.8.2.6,0,.9-.1.5-.2.8-.4l.5,1c-.3.2-.6.4-1,.5s-.8.2-1.4.2ZM59.1,138h2.3v-.2c0-.3,0-.5-.1-.7s-.2-.4-.4-.5-.4-.2-.6-.2-.4,0-.6.2-.3.3-.4.5-.2.5-.2.7h0Z"/>
          <path class="st4" d="M66.3,142c-.5,0-.9,0-1.3-.1s-.8-.2-1.2-.4v-1.7s1.1,0,1.1,0l.2.9c.2,0,.3.1.5.2s.4,0,.6,0c.4,0,.7,0,.9-.2s.2-.3.2-.5,0-.4-.3-.5-.5-.3-1-.4c-.8-.2-1.3-.4-1.7-.7s-.5-.7-.5-1.2,0-.7.3-1,.5-.5.8-.7.8-.3,1.4-.3.9,0,1.3.1.7.2,1,.4v1.7s-1.1,0-1.1,0l-.2-.8c-.1,0-.2-.1-.4-.2s-.3,0-.5,0c-.3,0-.6,0-.7.2s-.3.3-.3.5,0,.2,0,.3.2.2.3.3.4.2.7.2c.8.2,1.4.4,1.7.7s.5.7.5,1.2-.2,1-.6,1.4-1.1.5-1.9.5Z"/>
          <path class="st4" d="M72.4,141.8v-1l.9-.2v-6.3l-.9-.2v-1h2.5l3.8,6.1h0v-4.9l-1.1-.2v-1h3.4v1l-.9.2v7.4h-1.5l-3.9-6h0v4.9l1.1.2v1h-3.4Z"/>
          <path class="st4" d="M84.6,142c-.6,0-1.1-.1-1.6-.4s-.8-.6-1-1.1-.4-1-.4-1.6v-.2c0-.6.1-1.2.4-1.7s.6-.9,1-1.1.9-.4,1.5-.4,1.1.1,1.4.3.7.6.9,1,.3.9.3,1.5v.9h-3.8c0,.3,0,.6.2.8s.3.4.5.6.5.2.8.2.6,0,.9-.1.5-.2.8-.4l.5,1c-.3.2-.6.4-1,.5s-.8.2-1.4.2ZM83.3,138h2.3v-.2c0-.3,0-.5-.1-.7s-.2-.4-.4-.5-.4-.2-.6-.2-.4,0-.6.2-.3.3-.4.5-.2.5-.2.7h0Z"/>
          <path class="st4" d="M90.8,142c-.6,0-1.1-.1-1.6-.4s-.8-.6-1-1.1-.4-1-.4-1.7v-.2c0-.6.1-1.2.4-1.6s.6-.9,1-1.1,1-.4,1.5-.4,1,0,1.5.3.7.4,1,.6v1.8h-1.2l-.2-1.1c-.1-.1-.2-.2-.4-.2s-.3,0-.5,0c-.3,0-.6,0-.8.2s-.4.4-.5.7-.2.7-.2,1.1v.2c0,.4,0,.8.2,1.1s.3.5.5.7.4.2.7.2.6,0,.8-.3.3-.4.4-.7h1.4c0,.5-.2.8-.4,1.2s-.5.6-.8.8-.8.3-1.4.3Z"/>
          <path class="st4" d="M97.1,142c-.6,0-1.1-.1-1.6-.4s-.8-.6-1-1.1-.4-1-.4-1.6v-.2c0-.6.1-1.2.4-1.7s.6-.9,1-1.1.9-.4,1.5-.4,1.1.1,1.4.3.7.6.9,1,.3.9.3,1.5v.9h-3.8c0,.3,0,.6.2.8s.3.4.5.6.5.2.8.2.6,0,.9-.1.5-.2.8-.4l.5,1c-.3.2-.6.4-1,.5s-.8.2-1.4.2ZM95.8,138h2.3v-.2c0-.3,0-.5-.1-.7s-.2-.4-.4-.5-.4-.2-.6-.2-.4,0-.6.2-.3.3-.4.5-.2.5-.2.7h0Z"/>
          <path class="st4" d="M103,142c-.5,0-.9,0-1.3-.1s-.8-.2-1.2-.4v-1.7s1.1,0,1.1,0l.2.9c.2,0,.3.1.5.2s.4,0,.6,0c.4,0,.7,0,.9-.2s.2-.3.2-.5,0-.4-.3-.5-.5-.3-1-.4c-.8-.2-1.3-.4-1.7-.7s-.5-.7-.5-1.2,0-.7.3-1,.5-.5.8-.7.8-.3,1.4-.3.9,0,1.3.1.7.2,1,.4v1.7s-1.1,0-1.1,0l-.2-.8c-.1,0-.2-.1-.4-.2s-.3,0-.5,0c-.3,0-.6,0-.7.2s-.3.3-.3.5,0,.2,0,.3.2.2.3.3.4.2.7.2c.8.2,1.4.4,1.7.7s.5.7.5,1.2-.2,1-.6,1.4-1.1.5-1.9.5Z"/>
          <path class="st4" d="M108.9,142c-.5,0-.9,0-1.3-.1s-.8-.2-1.2-.4v-1.7s1.1,0,1.1,0l.2.9c.2,0,.3.1.5.2s.4,0,.6,0c.4,0,.7,0,.9-.2s.2-.3.2-.5,0-.4-.3-.5-.5-.3-1-.4c-.8-.2-1.3-.4-1.7-.7s-.5-.7-.5-1.2,0-.7.3-1,.5-.5.8-.7.8-.3,1.4-.3.9,0,1.3.1.7.2,1,.4v1.7s-1.1,0-1.1,0l-.2-.8c-.1,0-.2-.1-.4-.2s-.3,0-.5,0c-.3,0-.6,0-.7.2s-.3.3-.3.5,0,.2,0,.3.2.2.3.3.4.2.7.2c.8.2,1.4.4,1.7.7s.5.7.5,1.2-.2,1-.6,1.4-1.1.5-1.9.5Z"/>
          <path class="st4" d="M112.1,141.8v-1l.8-.2v-4.1l-.9-.2v-1h2.5v5.2l.8.2v1h-3.3ZM112.8,134.1v-1.4h1.7v1.4h-1.7Z"/>
          <path class="st4" d="M118.3,142c-.5,0-.9-.1-1.3-.4s-.6-.6-.8-1.1-.3-1-.3-1.6h0c0-.8,0-1.4.3-1.9s.5-.9.8-1.2.8-.4,1.3-.4.7,0,.9.2.5.3.7.6v-2.3l-.9-.2v-1h2.5v8l.8.2v1h-2.2v-.8c-.3.3-.6.5-.8.7s-.6.2-1,.2ZM118.8,140.7c.3,0,.5,0,.7-.2s.3-.3.5-.5v-2.7c-.1-.2-.3-.4-.5-.5s-.4-.2-.7-.2-.5,0-.7.3-.3.4-.4.7-.1.7-.1,1.1h0c0,.7.1,1.2.3,1.5s.5.5,1,.5Z"/>
          <path class="st4" d="M124.9,142c-.6,0-1.1-.2-1.5-.5s-.5-.8-.5-1.4.1-.7.3-1.1.5-.5,1-.7.9-.3,1.5-.3h.9v-.5c0-.3,0-.6-.3-.8s-.5-.3-.8-.3-.4,0-.5,0-.3.1-.4.2v.8h-1.3v-1.6c.3-.2.7-.4,1-.5s.8-.2,1.3-.2c.8,0,1.5.2,1.9.6s.7.9.7,1.6v2.7c0,0,0,.2,0,.3s0,.2,0,.2h.7v1.1h-2c0-.1,0-.2-.1-.4s0-.3,0-.4c-.2.3-.5.5-.7.6s-.6.2-1,.2ZM125.3,140.8c.3,0,.5,0,.8-.2s.4-.3.5-.5v-1h-.9c-.4,0-.7,0-.9.3s-.3.4-.3.7,0,.4.2.5.4.2.6.2Z"/>
          <path class="st4" d="M131.9,142c-.5,0-.9-.1-1.3-.4s-.6-.6-.8-1.1-.3-1-.3-1.6h0c0-.8,0-1.4.3-1.9s.5-.9.8-1.2.8-.4,1.3-.4.7,0,.9.2.5.3.7.6v-2.3l-.9-.2v-1h2.5v8l.8.2v1h-2.2v-.8c-.3.3-.6.5-.8.7s-.6.2-1,.2ZM132.4,140.7c.3,0,.5,0,.7-.2s.3-.3.5-.5v-2.7c-.1-.2-.3-.4-.5-.5s-.4-.2-.7-.2-.5,0-.7.3-.3.4-.4.7-.1.7-.1,1.1h0c0,.7.1,1.2.3,1.5s.5.5,1,.5Z"/>
          <path class="st4" d="M139.4,142c-.6,0-1.1-.1-1.6-.4s-.8-.6-1-1.1-.4-1-.4-1.6v-.2c0-.6.1-1.2.4-1.7s.6-.9,1-1.1.9-.4,1.5-.4,1.1.1,1.4.3.7.6.9,1,.3.9.3,1.5v.9h-3.8c0,.3,0,.6.2.8s.3.4.5.6.5.2.8.2.6,0,.9-.1.5-.2.8-.4l.5,1c-.3.2-.6.4-1,.5s-.8.2-1.4.2ZM138.1,138h2.3v-.2c0-.3,0-.5-.1-.7s-.2-.4-.4-.5-.4-.2-.6-.2-.4,0-.6.2-.3.3-.4.5-.2.5-.2.7h0Z"/>
          <path class="st4" d="M145.3,142c-.5,0-.9,0-1.3-.1s-.8-.2-1.2-.4v-1.7s1.1,0,1.1,0l.2.9c.2,0,.3.1.5.2s.4,0,.6,0c.4,0,.7,0,.9-.2s.2-.3.2-.5,0-.4-.3-.5-.5-.3-1-.4c-.8-.2-1.3-.4-1.7-.7s-.5-.7-.5-1.2,0-.7.3-1,.5-.5.8-.7.8-.3,1.4-.3.9,0,1.3.1.7.2,1,.4v1.7s-1.1,0-1.1,0l-.2-.8c-.1,0-.2-.1-.4-.2s-.3,0-.5,0c-.3,0-.6,0-.7.2s-.3.3-.3.5,0,.2,0,.3.2.2.3.3.4.2.7.2c.8.2,1.4.4,1.7.7s.5.7.5,1.2-.2,1-.6,1.4-1.1.5-1.9.5Z"/>
        </g>
        <g>
          <path class="st37" d="M26.1,100.2c-.4,0-.8,0-1.2.1s-.2,0-.2.1c0,0,0,0,0,.1.1.8.2,2.2.3,3,0,0,0,.2.1.2,0,0,.1,0,.2,0,.6,0,1.2-.6,1.8-.7,0,0,.1,0,.1,0,0,0,0,0,0-.1,0-.9-.3-1.9-.6-2.8"/>
          <g>
            <g>
              <path class="st19" d="M24.3,102.7c-.5-.2-1.2,0-1.6.5s-.7.9-1.2,1.2c-.4.2-.8.3-1.2.5s-.7.6-.5,1c.2.4.8.4,1.3.4,2.1,0,4.2,0,6.2-.1.6,0,1.3,0,1.5-.6,0-.1,0-.3,0-.4,0-.9-.1-1.9-.5-2.8,0,0,0-.1-.1-.2-.2-.2-.5,0-.7.2s-.4.5-.7.4"/>
              <path class="st19" d="M24.5,102.5c-.6-.2-1.3,0-1.9.3s-1,1.2-1.7,1.5-1.4.4-1.7,1.1.4.9.9,1c.9.1,1.8,0,2.7,0s2,0,2.9,0,1.6,0,2.3-.2.9-.6.9-1.3,0-1-.1-1.5-.2-.9-.4-1.3-.5-.2-.8-.2-.3.1-.5.2-.4.4-.4.4c-.3,0-.8.4-.3.4s.6,0,.8-.2.2-.2.3-.3c.2-.1.1-.2.3.1.3.7.5,1.8.4,2.6s-.2.6-.6.6-.8,0-1.2,0c-.9,0-1.7,0-2.6,0s-1.7,0-2.6,0-.8,0-1.2,0-.3-.6,0-.9.7-.3,1-.4.6-.3.9-.6c.5-.4,1.1-1.5,1.8-1.2s.4,0,.5,0,.2-.2,0-.3h0Z"/>
            </g>
            <g>
              <path class="st33" d="M20,106.2c.1-.2.5-.3.7-.3,2.2-.3,4.4-.5,6.6-.6.3,0,.6,0,.8.1s.3.5,0,.6l-8.1.2Z"/>
              <path class="st33" d="M20.4,106.2c.1-.2.6-.2.9-.2.3,0,.7,0,1-.1.7,0,1.4-.2,2-.2s1.3-.1,2-.2.6,0,.9,0,.4,0,.6,0,.3.3,0,.4l.5-.2c-2.4,0-4.7.1-7.1.2h-1c-.1,0-.5,0-.5.2s0,.2.2.2c1.8,0,3.5,0,5.3-.1h2.6c.3,0,.7-.1.9-.4s0-.6-.3-.7c-.5-.2-1.1,0-1.6,0-1.3,0-2.6.2-3.9.3s-1.4.1-2,.2-.9.1-1.2.5.6.1.7,0Z"/>
            </g>
            <path class="st40" d="M22,104.2s0,0,0,0h-.6c.3.3.6.6.8.9s.8,0,.7-.2-.2-.4-.3-.6,0-.2,0-.3,0-.1,0-.2c0,0-.1,0-.2,0,0,0,0,0,0,0,0,0,0,0,.1,0,.1,0,.2,0,.3.1.2.1.4.2.6.4s.3,0,.5,0,.3-.2.2-.3-.3-.3-.4-.5-.1-.2-.2-.3,0,0,0-.1c0-.1,0-.1-.2,0s-.2,0,0,0,0,0,.1,0c.1,0,.2,0,.3.1s.2,0,.3.1,0,0,0,0,0,0,0,0h.6c-.2-.3-.5-.4-.7-.6s-.5-.2-.8-.2-.5-.1-.7-.2-.2-.1-.3-.2-.2-.1-.3-.2h0s0,0,0,0,0,0,0,0c0,0,.3,0,.4.1s.2.2.2.4,0,.3,0,.4-.2.2,0,.3.4,0,.5,0c.4-.2.5-.7.2-1s-.7-.5-1.2-.4-.5.1-.7.3-.2.2-.2.3,0,.2.1.3c.4.3.8.5,1.3.6s.5,0,.8.2.5.3.7.5.5,0,.6,0,.2-.2,0-.4-.2-.2-.4-.2-.3-.1-.5-.2-.3-.1-.5,0-.4,0-.5.3,0,.3,0,.4c.2.3.4.6.6.8l.7-.3c-.5-.4-1.2-.9-1.8-.6s-.4.3-.4.7.2.6.4.9l.7-.2c-.2-.4-.6-.6-.9-.8s-.4,0-.6.1-.1.1-.2.2c0,.3.7.2.7,0h0Z"/>
            <path class="st40" d="M23.5,102.9c0-.2,0-.5.1-.7s0-.2.1-.3,0,0,0-.1c0,0,0,0,0,0s0,0,0,0,0,0,0,0,0,0,0,0,0,0,0,0,0,0,0,0c0,0,0,0,0,0,0,0,0,0,0,0,0,0,0,0,0,0,0,0,0,0,0,0s0,0,0,0c0,0,0,0,0,0,0,0,0,0,0,0,0,0,0,0,0,0,0,0,0,0,0,0s0,0,0,0,0,0,0,0c0,0,0,0,0,0,0,0,0,0,0,.1s0,0,0,0,0,0,0,0c0,0,0,0,0,0,0,0,0,0,0,.1s0,0,0,0c0,0,0,0,0,0,0,0,0,0,0,0,0,0,0,0,0,0,0,0,0,0,0,0,0,0,0,0,0,0s0,0,0,0,0,0,0,0c0,0,0,0,0,0,0,0,0,0,0,0s0,0,0,0c0,0,0,0,0,0s0,0,0,0c0,0,0,0,0,0s-.2,0-.3,0-.1,0-.1.1c0,.2.2.2.3.1.3,0,.7-.2,1-.4s.3-.4.3-.7,0-.2-.1-.3c-.1-.1-.3-.2-.5-.1-.4,0-.7.3-.9.6s-.3.7-.2,1,.1,0,.1,0c0,0,.2,0,.3,0,.1,0,.3-.1.3-.3h0Z"/>
            <path class="st33" d="M27.2,102.6c-.9.3-1.8.8-2.6,1.2s-1.5.9-2,1.6,0,.3.2.3.4,0,.5-.2c.4-.6,1.1-1.1,1.8-1.4s1.6-.8,2.4-1.1.3-.2.2-.4-.4,0-.5,0h0Z"/>
          </g>
          <g>
            <path class="st11" d="M117.7,76.9c.4,5.5.9,10.9,1.5,16.4,0,.2,0,.4.2.6.1.1.3.1.5.2.4,0,.9,0,1.2-.3.1,0,.3-.1.3-.2,0,0,0-.2,0-.3.4-5.2.5-10.4,1.6-15.4,0-.3,0-.6-.2-.7,0,0-.2,0-.2,0-1.7.1-3.4.2-5.1.3"/>
            <path class="st38" d="M118.8,83.7c-.1,0-.3.2-.3.4s0,.1,0,.2,0,.1,0,.2c0,.1.2.2.4.2s.2,0,.3,0,.2,0,.3,0c.1,0,.3-.2.3-.4s0,0,0-.1c0,0-.2-.1-.3,0s-.2,0-.3,0-.1.1-.1.2c0,.2.2.2.3.2h0s0,0,0,0h0s0,0,0,0c0,0,0,0,0,0h0s0,0,0,0h0s0,0,0,0h0s0,0,0,0h0s0,0,0,0h0s0,0,0,0h0c0,0,0,0,0,0h0s0,0,0,0h0s0,0,0,0h0s0,0,0,0h0s0,0,0,0h0s0,0,0,0h0s0,0,0,0h0s0,0-.1,0h0s0,0,0,0h0s0,0,0-.1h0s0,0,0,0h0s0,0,0,0h0s0,0,0,0h0s0,0,0,0c0,0,.1-.1.1-.2s0-.1,0-.2c-.2,0-.4,0-.5,0h0Z"/>
            <path class="st11" d="M129,77.7c0,1.4,0,2.7.3,4.1.2,1.4.6,2.8.9,4.2.5,2.8.7,5.8,1.3,8.6,0,0,0,.2.1.2,0,0,.1,0,.2,0,.3,0,.6,0,.9,0,.1,0,.3,0,.4,0,0,0,.1-.2.1-.3,1-5.4,1.6-10.9,1.9-16.4,0-.2,0-.4,0-.6,0,0,0-.2,0-.2,0,0,0,0-.2,0-1.7-.4-3.4-.7-5.1-.7"/>
            <path class="st38" d="M133.3,85.5c0,0,0,.1,0,.2h0c0,0,0,.2-.2.3h0s0,0,0,0,0,0,0,0c0,0,0,0,0,0s0,0,0,0c0,0,0,0,0,0s.1,0,.1,0c0,0,.2,0,.3,0s.2,0,.2,0c.1,0,.3-.2.4-.4s0-.3,0-.4-.1,0-.1,0c0,0-.2,0-.3,0s-.2,0-.2,0,0,0,0,0h0Z"/>
            <path class="st53" d="M119.4,93.3c.3.3.7.4,1.1.3s.7-.3.9-.6c0-.1.2-.2.3-.3s.3,0,.3,0c0,0,0,.1,0,.2,0,.6-.1,1.1-.2,1.7,0,0,0,.2,0,.2,0,0-.2.1-.2.2-1.4.5-2.9,1-4.4,1.3-.4,0-.8.1-1.2.2-.2,0-.4,0-.5-.1,0,0-.1-.2-.1-.3,0-.3-.1-.6-.1-1s.1-.7.4-.9c.1-.1.3-.2.5-.3.5-.2,1.1-.4,1.6-.7,0,0,0,0,.1,0,0,0,0,0,0,0,0-.5.2-1,.6-1.3,0,0,0,0,.1,0,0,0,.2,0,.2.2.2.4.4.8.5,1.2"/>
            <g>
              <path class="st40" d="M115.7,96.1c.1,0,3.9-1.1,5.6-1.3.1,0,.2,0,.3,0,0,0,0-.2,0-.2-.1.3-.5.4-.8.5-1.2.3-2.4.7-3.5,1-.3,0-.7.2-1,.2s-.6-.2-.5-.2Z"/>
              <path class="st40" d="M115.9,96.1c0,0,0,0,0,0,0,0,0,0,.1,0,.2,0,.3,0,.5-.1.5-.1,1-.3,1.6-.4s1.2-.3,1.8-.4.5-.1.8-.2.5-.2.7,0,.6,0,.6-.2,0-.2,0-.2c-.1-.1-.5,0-.6.1s-.2.3-.4.3-.4.1-.6.2c-.5.1-1,.3-1.5.4s-1,.3-1.5.4-.5.1-.7.2-.3,0-.4,0-.3-.1-.2-.1c.1-.1,0-.1-.2-.1-.1,0-.3,0-.4.2s0,.2.1.3c.2.1.5,0,.8,0,.7,0,1.4-.3,2.1-.5s1.4-.4,2.2-.6.5-.1.8-.3.2-.1.3-.2.1-.2.2-.2h-.6c0,.2,0,.2,0,.3l.6-.2c-.2-.2-.5-.1-.8,0s-.6.1-.9.2c-.7.1-1.4.3-2,.5s-1.2.3-1.8.5-.7.1-.9.3-.2.1,0,.2.4,0,.5,0Z"/>
            </g>
            <path class="st53" d="M130.9,93.4c-.1.5-.6.8-.7,1.3,0,.3.1.6.4.9s.6.3.9.5c1.2.5,2.4.9,3.7,1.2.5,0,1.1.1,1.4-.3.3-.4.1-1-.3-1.4s-.9-.5-1.3-.8-.9-.6-1-1.1c0-.2,0-.4,0-.6,0-.2-.3-.3-.5-.4s-.4,0-.7,0c0,.5.4,1,.1,1.4-.2.3-.6.3-.9.2s-.5-.5-.6-.7c0,0,0-.1-.1-.1-.2-.1-.3,0-.4.3"/>
            <path class="st40" d="M130.2,95.5c1.1.4,2.2.8,3.3,1.1s2.1.6,3.1.3l-.3-.2c0,0-.2.1-.3.2s-.3,0-.3.2.3,0,.4,0c.3,0,.5-.2.7-.4s-.2-.2-.3-.2c-1,.2-2.1-.2-3-.4s-1.9-.6-2.8-1-.7.2-.5.3h0Z"/>
          </g>
          <path class="st12" d="M113.2,65.2c0,3.8-.1,7.6,0,11.3,0,.2,0,.3,0,.4.1.2.4.2.7.3,7.4.5,14.9,1,22.3,1.4.3,0,.7,0,.9-.3,0-.1,0-.3.1-.5,0-4.4,0-8.9,0-13.3,0-.3,0-.7-.3-.9-.2-.1-.4,0-.6,0-7.7.6-15.4,1.2-23,1.8"/>
          <g class="st56">
            <g class="st25">
              <g>
                <path class="st12" d="M122.4,50.1c-6.6,7.1-13.4,13.9-20.4,20.6s-.4.9.3,1.1,1.8-.1,2.3-.6c7.1-6.8,14.1-13.9,20.8-21.1s-.5-.9-.9-.9c-.8,0-1.6.3-2.2.9h0Z"/>
                <path class="st12" d="M126.3,53.2c-6.7,7.1-13.5,14.1-20.6,20.9s-.3,1,.3,1.2,1.8-.1,2.3-.6c7-6.8,13.9-13.7,20.6-20.9s.4-1-.3-1.2-1.8,0-2.3.6h0Z"/>
                <path class="st12" d="M129.9,56.4c-6.7,7.1-13.5,14.1-20.6,20.9s-.2,1.3.4,1.5,1.7,0,2.3-.6c7-6.8,13.9-13.7,20.6-20.9s.3-1.3-.4-1.5-1.8,0-2.3.6h0Z"/>
                <path class="st12" d="M133.6,59.7c-6.7,7.1-13.5,14.1-20.6,20.9s-.2,1.3.4,1.5,1.7,0,2.3-.6c7-6.8,13.9-13.7,20.6-20.9s.3-1.2-.4-1.5-1.8,0-2.3.6h0Z"/>
                <path class="st12" d="M137.3,63.2c-6.7,7.1-13.5,14.1-20.6,20.9s-.4,1,.3,1.1,1.8-.1,2.3-.6c7-6.8,13.9-13.7,20.6-20.9s-1.9-1.3-2.6-.5h0Z"/>
                <path class="st12" d="M141,66.5c-6.7,7.1-13.5,14.1-20.6,20.9s-.3,1.2.4,1.4,1.7,0,2.3-.6c7-6.8,13.9-13.7,20.6-20.9s.3-1.2-.4-1.4-1.8,0-2.3.6h0Z"/>
                <path class="st12" d="M144.5,70.2c-6.7,7.1-13.5,14.1-20.6,20.9s.5.7.8.7c.7,0,1.6-.3,2.2-.8,7-6.8,13.9-13.7,20.6-20.9s-.5-.7-.8-.7c-.7,0-1.7.3-2.2.8h0Z"/>
              </g>
              <g>
                <path class="st12" d="M102.2,71.3c7.1,6.7,14.1,13.5,20.9,20.6s3.7-.5,3.1-1.2c-6.8-7-13.7-13.9-20.9-20.6s-3.7.6-3.1,1.2h0Z"/>
                <path class="st12" d="M105.8,68c7.1,6.6,14,13.4,20.7,20.3s1.5.6,2.2.3,1.3-1.1.8-1.7c-6.9-7.1-13.9-14-21.1-20.8s-3.9.6-2.5,1.9h0Z"/>
                <path class="st12" d="M108.9,63.9c7.1,6.7,14.1,13.5,20.9,20.6s3.9-.4,3-1.3c-6.8-7-13.7-13.9-20.9-20.6s-3.9.5-3,1.3h0Z"/>
                <path class="st12" d="M112.2,60.2c7.1,6.7,14.1,13.5,20.9,20.6.5.6,3.5-.6,3.1-1.1-6.8-7-13.7-13.9-20.9-20.6-.6-.6-3.5.7-3.1,1.1h0Z"/>
                <path class="st12" d="M115.5,56.6c7.1,6.7,14.1,13.5,20.9,20.6s3.9-.4,3-1.3c-6.8-7-13.7-13.9-20.9-20.6s-3.9.4-3,1.3h0Z"/>
                <path class="st12" d="M119.1,53.2c7.1,6.6,14,13.4,20.7,20.3s1.5.6,2.2.2,1.3-1.1.8-1.7c-6.9-7.1-13.9-14-21.1-20.8-1.1-1-3.9.6-2.5,1.9h0Z"/>
                <path class="st12" d="M122.2,49.2c7.1,6.7,14.1,13.5,20.9,20.6s4-.3,3-1.4c-6.8-7-13.7-13.9-20.9-20.6s-1.5-.5-2.2-.2-1.4,1-.8,1.5h0Z"/>
              </g>
            </g>
          </g>
          <path class="st11" d="M95.8,28.2c-.7,1.8-.9,3.7-.8,5.6,0,1.1.4,2.3,1.1,3.2,1.1,1.3,2.9,1.6,4.6,1.3,0,.7,0,1.3,0,2,.4,0,.8.2,1.1.1s.8-.2.9-.6c0-.2.1-.4.2-.6.2-.3.5-.5.9-.7,1.6-.9,2.7-2.5,3.2-4.3s.6-3.6.4-5.4c0-.3-.1-.7-.3-.9-.4-.4-1-.4-1.5-.4-3.3.1-6.6.3-10,.4"/>
          <path class="st11" d="M89,86.6c0,.9.2,1.7.3,2.6,0,.1,0,.3.1.3,0,0,.2,0,.3,0,1,.1,2,0,2.9-.2,0,0,0,0,.1,0,0,0,0,0,0-.1,0-1.2.1-2.4.1-3.7,0,0,0-.2,0-.2,0,0-.2,0-.3,0-1.1.2-2.2.4-3.3.6"/>
          <path class="st11" d="M99,85.7c-.2,1-.3,2.1-.3,3.1,0,.1,0,.3.1.4,0,0,.2,0,.2,0,.9.2,1.9.2,2.9.2.1,0,.2,0,.3,0,.2-.1.3-.4.3-.6.2-1.2.2-2.4,0-3.5,0,0,0-.1,0-.2,0,0-.2,0-.2,0-.9,0-1.7.4-2.5.2-.1,0-.3-.1-.4,0s-.3.2-.2.3"/>
          <g>
            <path class="st43" d="M85.2,60.7c-.2,2.2.7,4.2,1.1,6.4.5,2.7.4,5.4.5,8.2.1,3.8.6,7.6,1.2,11.3,0,.1,0,.2,0,.3.2.3.6,0,.9,0,1.9.1,3.8-.3,5.8-.3-.3-2,0-4.4-.2-6.4-.2-2.4-.4-4.8-.5-7.2,0-1.1.6-2.3.7-3.3.2-1.3.6-2.5.9-3.7.2-.8-.3-1.7-1-2.3-.2-.2-.5-.3-.7-.4-1.6-.6-3.3-1-5-1.3-.7-.1-1.5-.2-1.9-.7"/>
            <path class="st43" d="M84.8,60.7c-.1,2.8,1.1,5.5,1.4,8.3s.1,6.2.4,9.2.3,3,.5,4.4.2,1.6.3,2.5,0,1.5.3,1.8c.5.5,1.6.2,2.2.2,1.6,0,3.2-.3,4.8-.3s.4-.1.4-.3c-.4-2.6-.2-5.4-.4-8.1s-.2-3-.3-4.6.4-2.6.6-4.1.8-2.7,1-4-.4-1.7-1.1-2.3-2.4-1-3.5-1.2-3.2-.3-4.2-1.1-.9.1-.6.4c.7.6,1.6.7,2.6.8,1.4.2,2.9.5,4.2,1.1s1.6.9,1.8,1.9-.3,1.6-.5,2.3c-.4,1.2-.6,2.5-.9,3.8-.7,2.3,0,5.1,0,7.5s0,5.3.4,7.8l.4-.3c-1.4,0-2.7.2-4.1.3s-1.3.1-1.9,0-.6-.8-.7-1.5c-.4-2.8-.7-5.6-.9-8.4s0-5.3-.3-8-1.5-5.4-1.4-8.2-.7-.2-.7,0h0Z"/>
          </g>
          <g>
            <path class="st43" d="M97.2,61.9c-.5,1.1-.1,2.3.2,3.4,1.7,6.7.8,13.8,1,20.7,0,.1,0,.3.1.4,0,0,.2,0,.3,0,1.6,0,3.3.2,4.9.2,0-1,.2-2,.3-3,.3-2.8.7-5.5,1-8.3.1-1.1.3-2.2.5-3.3.2-.9.4-1.8.5-2.6.4-2.3.2-4.6.1-6.9-1.7,0-3.5-.1-5.2-.2-1.3,0-2.6-.1-3.8-.7"/>
            <path class="st43" d="M96.9,61.9c-.4,1.1-.2,2.1,0,3.3s.6,2.7.8,4.1c.3,2.9.4,5.8.3,8.7s-.1,5.1,0,7.6.2,1,1.2,1.1c1.5,0,2.9.1,4.4.2s.5,0,.5-.3c.4-4.2.9-8.3,1.5-12.5s.8-3.9,1-5.9,0-3.9,0-5.8-.2-.1-.2-.1c-1.4,0-2.9,0-4.3-.1s-3.1,0-4.6-.7-.9.2-.6.4c2.2,1,4.9.8,7.2.8s1.5-.2,1.7.7,0,1.4,0,2.1c0,1.5,0,3-.3,4.5-1,5.6-1.7,11.2-2.2,16.8l.5-.3c-1.3,0-2.7,0-3.9-.2-.5,0-.9,0-1.2-.4,0-.3,0-.6,0-.9,0-.5,0-.9,0-1.4,0-2.5,0-5,0-7.6s0-4.6-.3-6.9-.3-2.3-.6-3.5-.7-2.5-.3-3.8-.6-.2-.7,0h0Z"/>
          </g>
          <path class="st4" d="M99.6,38.5c1.1,1.1,3,.9,4.6.8.2,0,.4,0,.5,0,.1,0,.2.2.2.4.2.9,0,1.8,0,2.8-.7,6.9-1.5,13.8-2.2,20.8-1.3.5-2.7,0-4-.4-1.1-.3-2.2-.7-3.1-1.4-.2-.1-.4-.3-.4-.5,0-.2,0-.5,0-.7.3-1.6.5-3.2.8-4.8.9-5.6,1.9-11.1,3.8-16.4"/>
          <g>
            <g>
              <path class="st8" d="M141.1,14.6c3.3.3,6.7.7,10,1,.5,0,1.1.1,1.6.4.7.4,1,1.2,1.3,1.9.2.4.3.9.2,1.4-.2.6-.9.8-1.5.8-8.9-.1-32.5,1-35.3-.4l-.5-.6c-.6-.6-.5-1.7.1-2.4s1.6-.8,2.4-.9,1.8,0,2.6-.2c2.3-.6,3.7-2.9,5.7-4.2,1.8-1.2,4.1-1.6,6.2-1,1.7.5,3.1,1.6,4.6,2.5,2.1,1.3,4.4,2.4,6.9,2.8"/>
              <path class="st8" d="M140.9,15.1c1.9.2,3.8.4,5.7.6l2.9.3c1.2.1,2.6,0,3.3,1.1s1.3,2.2,0,2.6-.7,0-1,0c-1,0-2,0-3,0-4.9,0-9.8.2-14.6.3s-8.7.2-13-.1-2.6,0-3.2-.6-.9-1.1-.6-1.8,1.6-1,2.5-1c1.6,0,3-.2,4.3-1.1s2.4-2.3,3.8-3.3,3.9-1.6,6-.9,3.7,2.2,5.5,3.2,3.6,1.6,5.5,2,1.7-.7.9-.9c-2.2-.5-4.2-1.3-6.2-2.4s-3.4-2.4-5.5-2.9c-3.6-.9-6.6.6-9.1,3.1s-1.3,1.3-2.1,1.8-2.2.5-3.4.6-3.2.6-3.7,2.2,1.1,2.7,2.6,2.9c4.6.7,9.5.4,14.1.4s11.5-.3,17.3-.3,2.6.2,3.7-.1c1.9-.6,1.6-2.2.8-3.7s-3-1.7-4.8-1.9c-2.7-.3-5.4-.5-8.1-.8s-1.5.9-.5,1h0Z"/>
            </g>
            <g>
              <path class="st14" d="M123.9,19.9c3.7-1.3,7.7-.8,11.5-1.1,2.7-.2,5.4-.8,8.1-1.1s5.6-.2,8.1.9c-2,1.1-4.5,1-6.8,1-3,0-6.1,0-9.1.2-3.4.1-6.7.3-10.1.4"/>
              <path class="st14" d="M124.5,20.3c2-.7,4.2-.7,6.4-.7s4.4-.1,6.6-.4c4.4-.6,8.9-1.7,13.1,0l.3-.9c-1.7.9-3.9.6-5.8.6s-4.1,0-6.2.1c-4.1.1-8.3.3-12.4.5s-1.6.2-1.9.7.3.7.7.7c4.8-.2,9.6-.4,14.4-.5s9,.6,13-1.4.9-.7.3-.9c-4.7-2-9.7-.9-14.5-.2s-10.1,0-15,1.6-1.1.5-.8,1,1.6,0,1.9,0h0Z"/>
            </g>
          </g>
          <g>
            <path class="st46" d="M94.9,31.7c-1.4-.2-2.9.4-4.1,1.3s-2,2.1-2.8,3.4c-1.1,1.6-2.1,3.4-2.7,5.2-.3,1-.5,1.9-.7,2.9-.6,2.8-1.2,5.7-1.8,8.5-.5,2.1-.9,4.3-1,6.5,0,.2,0,.4,0,.5.1.2.3.2.5.3,1.3.5,12.8,4.1,14,4.6.3-2.4.6-4.7,1-7.1.1-1,.4-2.2,1.3-2.6.4-.2,1.7-.2,1.7-.2l.5-2.7-2.1-.5s1.6-9,2.1-13.6c-1.4,0-2.8-.2-4-.8-.3-.2-.7-.4-.9-.7-.2-.3-.3-.7-.4-1.1-.2-1.3-.3-2.7-.4-4.1"/>
            <path class="st46" d="M95,31.5c-4-.4-6.4,3.2-8.2,6.2s-3,8.9-4,13.5-1.1,4.9-1.3,7.5,0,1.7,1.1,2.1c2.2.8,4.5,1.5,6.7,2.2s4.6,1.3,6.8,2.3.5,0,.6-.3c.3-2,.6-4.1.8-6.1s.2-1.8.5-2.6,1.2-.9,2.1-.9.5,0,.5-.3l.5-2.7c0,0,0-.2-.2-.2l-1.4-.4c-.2,0-.5,0-.7-.2.1,0,.1.3.1,0,.2-1,.4-2.1.5-3.1.6-3.4,1.2-6.9,1.5-10.4s-.2-.2-.3-.2c-1.5,0-4-.2-4.7-1.7s-.5-3.3-.6-4.7-.7-.2-.7,0c0,1.1.1,2.2.2,3.2s.1,1.7.8,2.3c1.2,1.1,3.4,1.4,4.9,1.3l-.3-.2c-.5,4.6-1.3,9.1-2.1,13.6s0,.2.2.2l1.3.3c.2,0,.4.1.6.1.4,0,0,0,0,0,0,.8-.3,1.8-.5,2.6l.5-.3c-1.5,0-2.7.1-3.2,1.7s-.5,2.5-.6,3.7-.4,3.1-.6,4.7l.6-.3c-3.6-1.6-7.6-2.5-11.3-3.7s-1.5-.4-2.2-.7-.8-.8-.7-1.5c0-1.2.3-2.3.5-3.5.8-4.2,1.6-8.4,2.6-12.5s1.7-4.4,3-6.4,3.4-4.7,6.4-4.4.7-.4.3-.5h0Z"/>
          </g>
          <path class="st5" d="M98.3,52.1c-.2,1-.4,2.1-.6,3.1s.2.3.3.2.4-.1.4-.3c.2-1,.4-2.1.6-3.1s-.2-.3-.3-.2-.4.1-.4.3h0Z"/>
          <g>
            <path class="st40" d="M99.5,53.2c0,.1.1.2.3.2s.2-.2,0-.3-.3,0-.3,0"/>
            <path class="st40" d="M99.4,53.3c0,0,0,.2.2.2s.2,0,.3,0,.2,0,.3-.1,0-.2,0-.2,0,0,0,0c0,0-.1,0-.2,0s-.1,0-.2,0-.1,0-.2,0-.1,0-.1.1.1,0,.1,0c0,0,0,0,.1,0h0s0,0,0,0c0,0,0,0,0,0h0s0,0,0,0,0,0,0,0c0,0,0,0,0,0s0,0,0,0c0,0,0,0,0,0h0s0,0,0,0,0,0,0,0,0,0,0,0,0,0,0,0c0,0,0,0,0,0,0,0,0,0,0,0,0,0,0,0,0,0,0,0,0,0,0,0,0,0,0,0,0,0,0,0,0,0,0,0h0s0,0,0,0h0s0,0,0,.2h0s0,0,0,0h0s0,0,0,0c0,0,0,0,0,0,0,0,0,0,0,0,0,0,0,0,0,0,0,0,0,0,0,0,0,0,0,0,0,0,0,0,0,0,0,0s0,0,0,0,0,0,0,0,0,0,0,0,0,0,0,0c0,0,0,0,0,0s0,0,0,0c0,0,0,0,0,0h0s0,0,0,0h0s0,0,0-.1,0,0,0,0c0,0,0,0-.1,0s0,0-.1,0,0,0,0,0h0Z"/>
          </g>
          <g>
            <path class="st46" d="M106.9,32.9c.3,2.3-1.3,4.7-3.6,5.3-.1,0-.2,0-.3.2,0,0,0,.2,0,.3-1.1,8.1-2.2,16.2-3.4,24.4,0,.7-.2,1.4,0,2,2.6,0,5.2,0,7.8,0,.1,0,.3,0,.4,0,.1,0,.1-.2.2-.4,1.8-7.4,3.5-14.9,5.1-22.4,1.7.2,3.3.4,5,.5.2,0,.5,0,.7,0,.2-.1.4-.3.5-.5.6-.9,1.1-1.8,1.5-2.8,0-.2.1-.3,0-.5,0-.2-.2-.3-.4-.4-3.9-2-8.1-3.7-12.3-5-.5-.1-1-.3-1.2-.8"/>
            <path class="st46" d="M106.6,33c.1,1.4-.4,2.8-1.4,3.9s-1.2.8-1.9,1.1-.4.2-.6.4c-.3.4-.2,1.3-.3,1.8-.1.8-.2,1.6-.3,2.4-.2,1.5-.4,3.1-.6,4.6-.4,3.1-.8,6.2-1.3,9.3s-.4,3.1-.6,4.6-.6,2.7-.2,4,.2.2.3.2c1.5,0,2.9,0,4.4,0s1.5,0,2.2,0,1.1.1,1.5,0,.6-.7.8-1.2c.4-1.5.7-3,1.1-4.5,1.4-5.8,2.6-11.6,3.9-17.4l-.5.3c1.3.2,2.6.3,3.9.4s1.6.3,2.2,0,1.2-1.6,1.6-2.4.9-1.4.3-2-2-1.1-2.8-1.4c-1.2-.6-2.4-1.1-3.6-1.6s-2.4-.9-3.6-1.4-3-.6-3.7-1.5-.9,0-.7.3c.4.5.8.7,1.4.8,1,.3,2,.6,3.1,1,1.9.7,3.7,1.4,5.5,2.2s1.8.8,2.7,1.3c.2.1.4.2.6.3.6.3.8.7.4,1.2-.1.4-.4.9-.6,1.2-.4.8-.7,1.4-1.7,1.5s-1.1,0-1.6-.2c-1.1-.1-2.1-.2-3.2-.4s-.4,0-.5.3c-1.1,5-2.2,10-3.3,15s-.6,2.4-.8,3.6-.3,1.3-.5,1.9-.2,1.7-.6,2-1.6,0-1.9,0c-.6,0-1.3,0-1.9,0-1.3,0-2.6,0-3.9,0l.3.2c-.5-1.5.1-3.4.3-4.9s.4-3.2.7-4.9c.4-3.2.9-6.3,1.3-9.5s.4-3.1.6-4.6,0-2.2.8-2.7.8-.3,1.1-.6c1.7-1.1,2.6-3,2.4-5s-.8-.2-.7.2h0Z"/>
          </g>
          <g>
            <path class="st5" d="M92.6,36.6c-.8,3-.2,6.2,1,9s1.3,2.6,2.1,3.8,1.4,2.2,2.7,2.6.9-.2.6-.3c-1.3-.4-2-1.6-2.7-2.7s-1.5-2.5-2.1-3.9c-1.2-2.7-1.7-5.7-.9-8.7s-.7-.1-.7.1h0Z"/>
            <path class="st5" d="M86.4,45.1c0,3.1,1.3,6.2,3.5,8.4s2.7,1.7,4.2,2.1,2.8.5,4.1-.2-.2-.2-.4-.1c-1.4.7-3.1,0-4.4-.4s-2.5-1.3-3.4-2.4c-1.8-2.1-2.7-4.8-2.7-7.5s-.7,0-.7.2h0Z"/>
            <path class="st5" d="M95.6,39.9c-.5,0-.8.3-1.1.7s-.4.8-.6,1.3c-.3.9-.4,1.9-.2,2.8s.8,0,.7-.2c-.1-.8,0-1.5.1-2.3s.2-.7.4-1.1.2-.3.3-.5.1-.2.2-.3c0,0,0,0,0,0,0,0,0,0-.1,0,.2,0,.4,0,.5-.2s0-.2-.2-.2h0Z"/>
            <path class="st5" d="M92.1,47.3c-.7,1.3-1.2,2.7-1.5,4.1s.2.3.3.3.4-.1.4-.3c.3-1.4.8-2.7,1.5-4s0-.3-.2-.3-.4,0-.5.2h0Z"/>
            <path class="st5" d="M83.5,55.4c.5.9,1.3,1.6,2.1,2.3s1.8,1.6,2.6,2.4.9,0,.7-.3c-.8-.8-1.7-1.6-2.5-2.4s-1.6-1.3-2.1-2.2-.9,0-.7.2h0Z"/>
            <path class="st5" d="M89.2,57.3c1.5.4,3.1.4,4.7.2s.4,0,.4-.2-.2,0-.3,0c-1.4.2-2.8.1-4.2-.2s-.4,0-.5,0-.2.2,0,.2h0Z"/>
            <path class="st5" d="M108.5,46.1c1-.9,2-1.7,3-2.6s.2-.3,0-.4-.4,0-.5,0c-1,.9-2,1.7-3,2.6s-.2.3,0,.4.4,0,.5,0h0Z"/>
            <path class="st5" d="M112.6,41.2c0-1.3.2-2.6.6-3.8s-.6-.4-.7,0c-.4,1.3-.6,2.6-.6,4s.7.3.7,0h0Z"/>
            <path class="st5" d="M112.7,40.7c.5-.7,1.1-1.4,1.6-2.1s0-.3,0-.3-.4,0-.5.1c-.5.7-1.1,1.4-1.6,2.1s0,.3,0,.3.4,0,.5-.1h0Z"/>
          </g>
          <g>
            <path class="st58" d="M88.9,89.6l.3-.8c0,0,0-.1,0-.2,0,0,.2,0,.2,0,.4,0,.8,0,1.3,0,0,0,.2,0,.2,0,0,0,0,.1.1.2,0,.3.1.7.1,1,.4-.3.8-.6,1.2-.8.1,0,.3-.2.5-.2.4,0,.6.5.6.8-.1.7-.9,1.1-1.5,1.4-1.5.7-3.1,1.3-4.6,2-.1,0-.2,0-.3,0,0,0-.1-.1-.1-.2-.2-.5-.1-1,0-1.4.5-.9,1.6-1.2,2.2-2"/>
            <path class="st58" d="M89.3,89.5c0-.2.1-.6.3-.8-.1,0,0,0,0,0,0,0,.1,0,.2,0,.1,0,.3,0,.4,0s.3,0,.4,0c0,0,.1,0,.1,0,0,0,0,.1,0,.2,0,.3,0,.6.1.9s.5,0,.6,0c.3-.2.5-.4.8-.6s.3-.2.4-.3.2-.1.3,0c.4.4,0,1-.4,1.3s-1.1.5-1.6.8-1.3.5-1.9.8-.6.3-.9.4-.3.1-.5.2-.4.2-.5.2c.2,0,0-.2,0-.3s0-.3,0-.5c0-.3.1-.6.3-.8.3-.4.7-.7,1.1-.9s.8-.5,1-.9,0-.2-.2-.2c-.2,0-.4,0-.5.2-.6.8-1.7,1.1-2.2,1.9s-.4,1-.2,1.6.9.3,1.4.1c1.3-.6,2.6-1.1,3.9-1.7s2.1-.9,2.1-1.9-.5-.9-1-.8-.6.2-.8.4-.7.5-1,.7h.6c0-.3,0-1-.3-1.2s-.8,0-1.1,0-.9,0-1.2.2-.4.8-.5,1.1.6.2.7,0h0Z"/>
          </g>
          <g>
            <path class="st24" d="M87.2,93.1c2-1.1,5.7-2.4,6.2-3.9.2.1.1.5,0,.7s-.3.4-.5.5c-1.8,1.1-3.7,1.9-5.7,2.7"/>
            <path class="st24" d="M87.5,93.2c1.2-.7,2.5-1.2,3.8-1.9s2.2-1.1,2.6-2.2l-.7.2c.2.1,0,.4,0,.6-.1.2-.4.4-.7.5-.6.3-1.2.6-1.7.9-1.2.6-2.4,1.1-3.6,1.6s-.3.2-.2.3.4,0,.5,0c1.4-.6,2.8-1.2,4.2-1.9s1.3-.6,1.9-1.1.8-.9.4-1.3-.6,0-.7.2c-.2.4-.5.8-.9,1-.5.4-1.1.7-1.6,1-1.2.6-2.4,1.1-3.5,1.7s-.2.2,0,.3.4,0,.5,0h0Z"/>
          </g>
          <path class="st40" d="M86,67.4c.4,3.1,1,6.4,3.2,8.7s.9,0,.7-.3c-2.2-2.3-2.8-5.6-3.2-8.6s-.8,0-.7.2h0Z"/>
          <path class="st40" d="M92.2,80.2c-.7,1-1.8,1.8-3,2.1s-.3.1-.3.3.3.1.4.1c1.4-.5,2.6-1.3,3.5-2.5s0-.2-.2-.2c-.2,0-.4,0-.5.2h0Z"/>
          <path class="st40" d="M105.2,72.6c-.2,1.1-.7,2.1-1.3,3.1s-.7.9-1,1.3-.9.8-1.2,1.2.3,0,.3,0c.1,0,.3,0,.4-.2.4-.5.9-.8,1.3-1.3s.7-.8,1-1.3c.6-.9,1-2,1.2-3.1s-.7,0-.7.2h0Z"/>
          <path class="st40" d="M98.8,84.4c0-.3.2-.6.4-.9s0-.1.2-.2,0,0,0,0,0,0,0,0c0,0,0,0,0,0s0,0,0,0,0,0,0,0c0,0,0,0,0,0,0,0,.1,0,.2-.1s.2-.2,0-.3-.4,0-.5,0c-.7.4-1.2,1.1-1.3,1.8s.7.2.7,0h0Z"/>
          <g>
            <path class="st58" d="M98.1,91.6c.3.4,1.7.3,2.3.4,1.4.3,2.9-.1,4.3-.2.3,0,.6,0,.8-.3,0-.4-.4-.6-.7-.6s-.7,0-1-.3c-.2-.2-.3-.5-.3-.8-.1-.7-.2-1.4-.3-2.1-.8,0-1.5.1-2.3.2,0,0,0,0-.1,0,0,0,0,.1,0,.2,0,.4,0,.7,0,1.1s-.6.6-.8.3c-.1-.1,0-.3-.1-.5,0-.3-.3-.5-.6-.7s-.6-.2-.9-.2c0,0-.2,0-.3,0,0,0,0,.2,0,.3.1,1,.3,1.9.4,2.9"/>
            <path class="st58" d="M97.8,91.7c.2.3.7.3,1,.3s1,0,1.4.1c1.4.3,2.8,0,4.2-.2s1.1,0,1.4-.4-.3-.7-.6-.8-.5,0-.8-.2c-.4-.1-.5-.5-.5-.8-.1-.7-.2-1.5-.3-2.2s-.2,0-.2,0c-.6,0-1.2.1-1.8.2s-.9,0-1.1.3,0,1.4-.3,1.4c.1,0,0-.2,0-.3,0-.1,0-.2,0-.3,0-.2-.1-.3-.3-.5-.3-.3-.8-.4-1.2-.5s-.8,0-1,.3,0,.3,0,.5c0,.3,0,.6.1.8,0,.6.2,1.3.3,1.9s.8,0,.7-.2c0-.6-.2-1.1-.2-1.7s0-.5-.1-.8,0-.3,0-.4c0-.2,0-.2-.3-.2.5,0,1.1.2,1.3.6s0,.7.3.9c.5.3,1.3-.2,1.4-.8s0-.4,0-.6h0c0-.2,0-.2-.1-.2,0,0,.4,0,.5,0,.6,0,1.1-.1,1.7-.2h-.2c0,.6.2,1.2.3,1.9s.1.9.6,1.1.9,0,1.3.4.2.1.2.3c0,.2,0,.1-.2.2-.2,0-.6,0-.8,0-.6,0-1.2.2-1.7.2s-1.2,0-1.9-.1-.7,0-1.1,0-.8,0-1-.3-.8.1-.7.3h0Z"/>
          </g>
          <g>
            <path class="st24" d="M98.2,91.3c0,.5,0,.6.3.8s.6.2.9.2c1.6,0,3.7,0,5.4-.2s.6,0,.8-.2c0,0-6.8.8-7.4-.5Z"/>
            <path class="st24" d="M97.8,91.4c0,.3,0,.5.2.7s.6.2.9.3c.8,0,1.6,0,2.5,0s1.7,0,2.6-.1,1.5,0,2-.5-.2-.1-.3-.1c.2,0,0,0-.1,0-.2,0-.3,0-.5,0-.5,0-1.1,0-1.6.1-1.2,0-2.5.1-3.8,0s-1-.2-1.1-.5-.8,0-.7.2c.2.3.6.5.9.6.6.1,1.2.2,1.8.2,1.3,0,2.7,0,4-.2s.6,0,1,0h-.3c-.1,0-.6,0-.8,0-.3,0-.6,0-.9,0-.7,0-1.4,0-2.1,0s-1.3,0-1.9,0-.6,0-.8-.2-.2-.4-.2-.6-.7,0-.7.2Z"/>
          </g>
          <path class="st40" d="M103.4,44.6v.3s0,0,0,0c0,0,0,0,.1,0,.1,0,.2,0,.3,0s.2-.1.3-.2,0,0,0,0,0,0,0,0c0,0,0,0,0,0,0,0,0,0-.1,0,0,0-.1,0-.2,0,0,0-.1,0-.2,0,0,0-.1,0-.1.1s0,0,0,0,0,0,0,0,0,0,0,0c0,0,0,0,0,0,0,0,0,0,0,0,0,0,0,0,.1,0,0,0,0,0,.1,0h0c0,0,.1,0,.1-.1h0c0,0,0-.1,0-.1,0,0,0,0,0,0h0s0,0,0,0h0s0,0,0,0h0s0,0,0,0h0s0,0,0,0h-.6s0,0,0,0h0s0,0,0,0h0s0,0,0,0h0s0,0,0,0h0s0,0,0,0h0s0,0,0,0h.5c0,0,0-.2,0-.2,0,0,0,0,0,0,0,0,0,0,0,0,0,0,0,0-.1,0,0,0,0,0-.1,0h0c0,0-.1,0-.1.1h0c0,0,0,.1,0,.1h0Z"/>
          <path class="st40" d="M102.5,50.6h0c0,.2,0,.2,0,.2,0,0,0,0,0,0,0,0,0,0,.1,0,0,0,0,0,.1,0h0c0,0,.1,0,.2,0h0c0,0,0-.1,0-.2h0c0-.2,0-.2,0-.2,0,0,0,0,0,0,0,0,0,0-.1,0,0,0,0,0-.1,0h0c0,0-.1,0-.2,0h0c0,0,0,.1,0,.2h0Z"/>
          <path class="st40" d="M101.8,57.3s0,0,0,0,0,0,0,0c0,0,0,0,0,0s0,0,0,0,0,0,0,0c0,0,0,0,0,0,0,0,0,0,0,0s0,0,0,0,0,0,0,0c0,0,0,0,0,0s0,0,0,0c0,0,0,0,0,0s0,0,0,0h0c0,0,0,0,.1,0,0,0,0,0,0,0,0,0,0,0,.1,0h0c0,0,0,0,0-.1,0,0,0,0,0-.1,0,0,0,0,0-.1,0,0,0,0,0,0,0,0,0,0,0-.1s0,0,0,0c0,0,0,0,0,0s0,0,0,0c0,0,0,0-.1,0,0,0,0,0-.1,0,0,0,0,0-.1,0,0,0,0,0-.1,0h0c0,0,0,.1,0,.2h0c0,.1,0,.2,0,.2,0,0,0,0,0,0h0s0,0,0,0h0s0,0,0,0l.6-.3s0,0,0,0h0s0,0,0,0h0c0,0,0,0,0,0h0c0,0,0,0,0,0h0c0,0,0,0,0,0h0c0,0,0,0,0,0h0c0,0,0,0,0,0h0s0,0,0,0c0,0,0,0,.1,0,0,0,0,0,0,0,0,0,0,0,0-.1,0,0,0,0,0,0h0c0,0,0-.1-.2-.1h0c0,0-.1,0-.2,0h0Z"/>
          <path class="st40" d="M103.5,31.3c0,.4,0,.7,0,1.1s0,.6.3.9.5.3.7.5.1.1,0,.2-.1.1-.2.2c-.1.1-.3.2-.4.3s0,0,0,.1.2,0,.3,0c.1,0,.3-.2.4-.3s.3-.2.3-.4-.2-.2-.3-.3c-.1,0-.3-.2-.4-.2-.3-.2-.4-.5-.4-.8s0-.8,0-1.2-.4,0-.4.1h0Z"/>
          <path class="st40" d="M102.4,34.8c.2.4.2.9.4,1.2s.6.4,1,.4c.9,0,1.5-.8,1.8-1.6s-.4,0-.4,0c-.2.6-.6,1.3-1.3,1.3s-.6-.2-.7-.5-.2-.7-.3-1-.5,0-.4.1h0Z"/>
          <g>
            <path class="st9" d="M65.2,72.2c5.9,13.4,9.4,27.7,16.1,40.7.1.2.3.5.5.6.2.1,1.5,1.6,1.7,1.5,1.4-.6.3-4.1,0-5.6-2-9.8-3.9-19.6-5.9-29.3-.5-2.3-.9-4.6-1.4-6.8-.2-1-.4-2-.8-2.9-.1-.3-.3-.5-.5-.7-.3-.1-.6,0-.9,0-2.3.7-4.6,1.4-7,2.1"/>
            <path class="st15" d="M76.4,93.4c.4.4,1,.3,1.4.1s.8-.6.9-1.1.1-.8,0-1.2-.2-.3-.4-.4-.5,0-.7,0c-.4,0-1,.4-.8.9s.3.1.4,0,.4-.1.3-.3,0-.2,0-.3,0,0,0,0c0,0,0,0,0,0,0,0,0,0,0,0,0,0,0,0,0,0,0,0,0,0,0,0s0,0,0,0c0,0,0,0,0,0,0,0,0,0,0,0s0,0,0,0c0,0,0,0,.1,0,.1,0,.2.2.2.3.1.3.1.6,0,.9s-.2.6-.4.8,0,0,0,0c0,0,0,0,0,0,0,0,0,0,0,0,0,0,0,0,0,0s0,0,0,0c0,0,0,0,0,0s0,0,0,0c0,0,0,0,0,0s0,0,0,0c0,0,0,0,0,0,0,0,0,0,0,0,0,0-.1,0-.2-.1-.2-.2-.9,0-.7.3h0Z"/>
            <path class="st9" d="M54.8,70.8c.9,3.5,1.9,7,3.2,10.4.3.7.6,1.5,1.2,1.9,1,.7,2.3.3,3.5-.1.3-.1.6-.3.8-.5.2-.3.2-.7.2-1,0-3.7,0-7.5,0-11.2"/>
            <g>
              <path class="st13" d="M79.7,113.1c.2.5.9.6,1.3,1,.1.2.2.4.3.6.6,1.7,1.1,3.4,1.7,5.1.1.4.3.8.6,1,.2.1.5.2.8.1.9,0,1.7-.6,2.5-1.1,1.1-.7,1.7-1.7,2.8-2.5.8-.5,1.5-1.3,2.2-1.9s.5-1.6-.3-2c-.6-.3-1.3-.1-1.9,0-1.1.2-2.2.3-3.2.3-.2,0-.4,0-.6-.1-.3-.2-.4-.6-.5-1-.1-.8,0-1.7.1-2.5-.6-.2-2.1.5-2.1,1.1s.6,1.4.5,2.1c-1.2-.1-3.1-1-3.9-.3"/>
              <path class="st13" d="M79.3,113.2c.1.3.4.4.6.6.6.3.8.6,1,1.2.4,1.2.8,2.4,1.2,3.7s.4,2.2,1.4,2.4,1.7-.2,2.4-.6,1.7-1.1,2.4-1.9,1.7-1.4,2.5-2.2,1.5-1.1,1.5-2-.7-1.3-1.5-1.4-1.2.1-1.8.2-1.6.2-2.3.2-1,0-1.2-.4-.1-.5-.2-.8c0-.8,0-1.5.2-2.3s0-.1-.1-.1c-.8-.1-1.7.2-2.3.7-.9.8.2,1.8.1,2.7l.6-.2c-1.4-.2-3.1-1.1-4.5-.2s0,.2,0,.2.4,0,.5-.1c.5-.3,1.3,0,1.8,0s1.1.3,1.6.3.6,0,.6-.2c0-.7-.5-1.3-.5-2s.9-1,1.5-.9h-.1c-.2.8-.3,1.8-.1,2.7s.9.9,1.7.9,2.2-.2,3.3-.4,1.2-.1,1.6.3.4.8.2,1.2-.7.7-1,1-.7.7-1.1,1c-.7.6-1.4,1.1-2,1.8s-1.7,1.4-2.7,1.7-1.2,0-1.4-.6-.4-1.1-.6-1.7c-.4-1.2-.8-2.4-1.2-3.6s-.3-.8-.6-1-.8-.3-1-.7-.8,0-.7.2h0Z"/>
            </g>
            <g>
              <path class="st40" d="M83.3,118.9c.2.7.5,1.5,1.2,1.8.7.2,1.5-.3,2.1-.8,1.7-1.5,3.4-3,5-4.4.2-.2.4-.3.4-.5.2-.5-.4-1-.9-1.3-.2,0-.3-.2-.5-.2-.1,0-.3.1-.4.2-2.5,1.9-5,3.8-7.5,5.7"/>
              <path class="st40" d="M83,119c.2.6.4,1.3,1,1.7s1.2.2,1.8,0,1.3-.9,1.9-1.4,1.5-1.3,2.3-2,1.5-1.3,2.2-2,.4-1.1-.1-1.5-1.1-.7-1.7-.3-.7.5-1.1.8-.8.6-1.3,1c-1.8,1.4-3.6,2.8-5.4,4.1s.4.2.6,0c2.5-1.9,4.9-3.8,7.4-5.6s.2-.2.4,0,.2.1.3.2c.2.2.5.4.6.7s-.3.7-.6.9-.6.5-.9.8c-1.1,1-2.3,2-3.4,3s-1.5,1.6-2.3,1.1-.8-1-1-1.6-.8,0-.7.2h0Z"/>
            </g>
            <path class="st40" d="M86.9,115.5c.1-1.2-.9-2-2-2.2s-2.6.1-3.8-.4-.8.2-.6.3c1.1.5,2.3.2,3.5.4s2.2.8,2.1,2,.7,0,.7-.1h0Z"/>
            <path class="st35" d="M85.8,114.2c0-.3,0-.5.2-.7s.2-.2.3-.3,0,0,0,0c0,0,0,0,0,0,0,0,0,0,0,0,0,0,0,0,0,0,0,.1,0,.2,0,.3,0,.2-.1.3-.2.5-.1.3-.2.6-.4,1s.1,0,.1,0c0,0,.2,0,.3-.1.5-.4,1-.7,1.5-1s.1,0,0-.1-.2,0-.3,0c-.6.3-1.1.7-1.6,1.1h.4c.1-.4.2-.7.3-1s.1-.3.2-.5,0-.2,0-.3c0-.3-.4-.3-.6-.2s-.4.3-.6.5-.2.5-.2.8.4,0,.4-.1h0Z"/>
            <path class="st40" d="M87.9,113.7c-.7.3-1.3.9-1.6,1.7s.2.1.3.1c.1,0,.4,0,.4-.2.2-.4.5-.7.8-1s.2-.1.2-.2,0,0,.1-.1,0,0,0,0c0,0,0,0,0,0,0,0,.2-.1.3-.2s0,0,.1,0c0,0,0,0,0,0,0,0,0,0,0,0,0,0,.3-.2.2-.3s-.4,0-.5,0c-.9.4-1.7,1.1-2.2,1.9h.7c.1-.4.3-.6.5-.9s.2-.2.3-.3,0,0,0,0,0,0,0,0,0,0,0,0c0,0,0,0,0,0,0,0,0,0,.1,0s0,0,0,0c0,0,0,0,0,0s.3-.2.2-.3-.4,0-.5,0h0Z"/>
            <g>
              <g>
                <path class="st50" d="M66.9,112.6c0-.9.6-1.7,1.5-2s1.8,0,2.5.5c.1.1.3.2.3.4,0,.2,0,.3,0,.5,0,.8-.1,1.8-.7,2.3-.7.6-2,.4-2.6-.3s-.7-1.8-.4-2.8"/>
                <path class="st50" d="M67.3,112.5c0-.8.6-1.6,1.4-1.8s.9,0,1.3.1.9.4,1,.9,0,.9,0,1.3-.2.8-.6,1.1c-.5.4-1.4.2-1.8-.3-.7-.7-.8-1.9-.4-2.8s-.2-.2-.3-.2c-.2,0-.3.1-.4.3-.3,1-.3,2.2.5,3s1.9.9,2.8.4,1.1-1.8,1.1-2.8,0-.5-.3-.7-.4-.3-.7-.5c-.5-.2-1.1-.4-1.7-.3-1.2.1-2.3,1.1-2.3,2.4s.7.2.7,0h0Z"/>
              </g>
              <g>
                <path class="st50" d="M62.7,85.3c2.4,8.8,6.4,26.5,6.4,26.5"/>
                <path class="st50" d="M61.9,85.5c2.4,8.8,4.4,17.7,6.4,26.5.1.6,1.6.3,1.4-.4-2-8.9-4-17.8-6.4-26.5s-1.6-.3-1.4.4h0Z"/>
              </g>
              <g>
                <path class="st50" d="M58.3,82.6s.8,2.2,1.8,2.7c.7.4,1.7.7,2.5.4.8-.3,1.5-.9,1.8-1.7.4-.8.4-1.9,0-2.6,0,0-.1-.2-.2-.2-.3-.1-.5.2-.7.4-1,1.6-3.1,2.3-5.2,1Z"/>
                <path class="st50" d="M58,82.7c.3.7.6,1.5,1.1,2.1.8,1.1,2.4,1.5,3.6,1s2.3-1.7,2.3-3.1,0-.6,0-1-.2-.6-.5-.8-.6,0-.9.1-.5.5-.7.8c-.5.6-1.1,1-1.9,1.1s-1.7-.1-2.4-.6-.9.2-.6.3c1.1.7,2.4.9,3.7.4s1-.5,1.5-.9.4-.4.6-.6.3-.3.3-.4h-.1s0,0,0,0c0,.1.1.2.2.4.4,1.2,0,2.6-1,3.4s-1.3.6-2,.4-1-.4-1.3-.9c-.5-.6-.9-1.4-1.2-2.1s-.8,0-.7.2Z"/>
              </g>
            </g>
            <g>
              <path class="st9" d="M82.4,33.9c1.5.3,1.6,2.4,1.6,2.5.6,7.2.5,14.4-.5,21.5-.4,2.7-.8,5.5-.2,8.2.3,1.4,1,2.8,1.2,4.3.3,1.7,0,3.6-1,5.1-.2-1.2-.2-2.5,0-3.8,0,1.4-.6,2.9-1.6,3.9.3-1.5.5-3,.8-4.6,0,1.4-.8,2.8-1.9,3.7.4-1.5.8-3,1.2-4.5-.6.4-1.2.8-1.7,1.2,1.2-2.5.9-5.5.6-8.3-1-8.3-2-16.5-3-24.8v-1.7l4.6-2.8Z"/>
              <path class="st9" d="M82.2,34.1c1,.3,1.4,1.4,1.5,2.4.2,1.9.3,3.9.3,5.8.1,3.9,0,7.8-.4,11.7s-1.3,7.2-.8,10.8.9,3.3,1.3,5,.1,3.9-.9,5.6h.7c-.2-1.3-.2-2.5,0-3.8h-.7c0,1.5-.6,2.8-1.5,3.9h.7c.3-1.5.5-3,.8-4.5h-.7c-.1,1.5-.8,2.7-1.9,3.7h.7c.4-1.4.8-2.9,1.2-4.4s-.5-.2-.6-.1c-.6.4-1.2.8-1.7,1.2l.6.2c1.7-3.7.6-8,.2-11.9s-1.1-9.2-1.7-13.9-.6-4.6-.9-6.9,0-1.1,0-1.6,0-.7-.1-.3c0,0,.1,0,.2-.1.7-.6,1.7-1,2.4-1.5l2-1.2c.4-.3-.2-.4-.5-.3l-2,1.2c-.8.5-1.8.9-2.4,1.5s-.3,1-.3,1.7c0,1.8.4,3.6.6,5.3.6,4.8,1.2,9.6,1.8,14.4s.6,4.5.8,6.7.3,4.7-.7,6.9.4.3.6.2c.6-.4,1.2-.8,1.7-1.2h-.6c-.4,1.4-.8,2.9-1.2,4.4s.6.1.7,0c1.2-1,1.9-2.3,2-3.8s-.7-.2-.7,0c-.3,1.5-.5,3-.8,4.6s.5.2.7,0c1-1.2,1.6-2.5,1.6-4s-.7-.2-.7,0c-.1,1.3,0,2.5,0,3.8s.6,0,.7,0c.8-1.4,1.2-3,1.1-4.6s-1.2-3.8-1.5-5.8,0-4.2.2-6.3.5-4.2.7-6.3c.3-4.1.4-8.2.2-12.3s.4-5.8-2-6.6-.9.3-.4.4Z"/>
            </g>
            <path class="st48" d="M66.1,26.4c.6.3,1.4.2,1.9-.3s.7-1.3.4-1.9c1.3,0,2.5-.6,3.4-1.4s1.7-1.9,2.4-2.9c1,1.4.1,3.4.7,5,.4,1.2,1.6,1.9,2.7,2.5.3.2.6.3.8.6.4.7-.3,1.5-.9,2-1.1.8-2.2,1.6-3.4,2.3-1.8,1-3.9,1.9-5.8,1.1-1.2-.5-2.1-1.7-2.6-2.9-.7-1.5-1.4-2.2-.6-3.6,0-.2.3-.7.5-.6"/>
            <path class="st9" d="M65.8,15.7c-.2,2.9.5,5.9,2.3,8.3.3.3.6.7,1,.7.3,0,.8,0,1.1-.2,1.4-.6,2.6-1.6,3.5-2.8.2-.2.4-.5.6-.6.6-.3,1.3.2,2,0,.5-.1.9-.6,1-1.2s0-.9-.2-1.3-1.2-4-1.3-4.1"/>
            <path class="st40" d="M75.2,19.9c0,0,.1,0,.2,0s.2,0,.3,0c.1,0,.3-.1.4-.2s.2-.2.2-.4,0-.1,0-.2c0,0,0,0,0,0,0,0,0,0-.1,0,0,0-.2,0-.3,0h0c0,0,0,0-.1.1h0c0,0,0,0,0,.1,0,0,0,0,0,0h0s0,0,0,.2h0s0,0,0,.1h0s0,0,0,0h0s0,0,0,0h0s0,0,0,0c0,0,.1,0,0,0s.1,0,0,0,.1,0,0,0,.1,0,0,0,0,0,0,0h0s0,0,0,0h0s0,0,0,0c0,0-.2,0-.2,0s-.2,0-.3,0h0c0,0,0,0,0,.1h0c0,0,0,0,0,0h0Z"/>
            <g>
              <path class="st47" d="M72.8,16.1c.3,1.3,1.5,2.3,2.8,2.3.6,0,1.2-.1,1.6.2.5.4.4,1.3-.1,1.8s-1.2.5-1.9.5c-.2,0-.4,0-.5.1-.1,0-.2.3-.2.4-.2,1.5.2,3.1,1.3,4.2.6.6,1.3,1.1,2,1.6,2.2,1.5,4.7,3,7.4,2.6,2.6-.3,4.8-2.7,5-5.3.2-2.6-1.7-5.3-4.2-5.9-.5-.1-1-.2-1.4-.5-.9-.5-1.1-1.7-1.1-2.7,0-1-.2-2.2-1-2.8-.8-.7-2-.5-3.1-.3-1,.2-2.2.5-3.1,0-.4-.2-.7-.5-1-.7-1-.7-2.2-1.1-3.5-1"/>
              <path class="st47" d="M72.4,16.2c.2.8.7,1.5,1.4,2s.7.3,1,.4c.6.1,1.8-.1,2.2.4.6.8-.5,1.6-1.2,1.7s-.7,0-1,0c-.8.3-.7,1.3-.6,2,.2,2.3,1.8,3.7,3.7,4.8s3.9,2.5,6.2,2.6c3.7.2,7-3.2,6.4-6.9s-1.6-3.6-3.2-4.5-1.9-.4-2.6-1-.8-2.3-.9-3.3-.4-1.8-1.3-2.3-2.1-.4-3.1-.2-1.7.4-2.6.2-1.2-.8-1.8-1.2c-1-.6-2.1-.8-3.2-.8s-.6.6,0,.5c1.2,0,2.4.3,3.4,1.1s1.3,1,2.3,1c2,0,4.9-1.6,5.5,1.4s0,3.5,1.6,4.3,1.6.4,2.4.8,1.6,1.2,2.1,2c2.3,3.8-.9,8.8-5.3,8.2s-4.4-1.7-6.2-3-1.6-1.3-2.1-2.3-1-2.8,0-3.1,1.5,0,2.1-.7.7-1.1.4-1.7-1.2-.7-1.9-.7c-1.3,0-2.4-.8-2.8-2.1s-.8-.1-.7.2h0Z"/>
            </g>
            <g>
              <path class="st9" d="M62.3,26.8c-.1,0-3.5.8-3.6.8-2.5.5-4.9,1.4-7.1,2.8.2-.5.5-.9.8-1.3,1.1-1.5,2.3-3,3.6-4.3,1.3-1.3,2.9-2.4,4.7-3,.5-.2,2-.8,1.8-1.2-.3-.3-1.7.3-2.2.4,1.5-.9,4.2-3,3.9-3.3-.2-.2-1.8.8-2.3,1.2.8-.5,2-1.9,2.4-2.8-1,.3-1.9.9-2.6,1.7.5-.4,1.7-2,1.6-2.1-.1,0-2.8,2.1-3.6,2.1.4-.5,1.8-1.6,1.5-1.6-.2,0-1.4.8-1.7,1.3-1,1.5-2.5,2.6-3.9,3.6-3.5,2.6-7.1,5.2-10.2,8.3-1.2,1.1-2.3,2.5-2.5,4.1,0,.4,0,.8.1,1.2.2.4.6.7,1,1,2.4,1.5,5.5,1.5,8.3,1.1,2.4-.3,5.8-1.1,8.2-1.8l1.8-8.1Z"/>
              <path class="st9" d="M62.2,26.5c-3.8.8-7.6,1.6-10.9,3.7l.6.2c.9-1.8,2.5-3.5,3.9-5s3.1-2.7,5.2-3.5,2.1-.7,1.9-1.4-2.1.1-2.5.2l.2.4c.9-.6,1.8-1.3,2.7-2s1.3-.9,1.3-1.4c0-1.1-2.6.7-2.9,1s.2.5.5.3c1-.7,2-1.8,2.5-2.9s-.2-.3-.4-.3c-1.1.4-2,.9-2.8,1.8s.4.4.6.2c.5-.4,1.7-1.6,1.7-2.3s-.3-.2-.4-.2c-.4,0-.9.6-1.2.8-.6.4-1.5,1.2-2.2,1.3l.3.3c.4-.5,1.4-1.1,1.6-1.7,0,0,0,0,0-.1-.5-.4-1.4.3-1.7.7s-.7.8-1.1,1.3c-.6.8-1.4,1.4-2.1,2-3,2.4-6.2,4.5-9.1,7.1s-5.4,4.2-5,7.1,1.7,2,2.8,2.4,2.9.6,4.4.6c3.7,0,7.4-1,10.9-2s.3-.1.3-.3c.6-2.7,1.2-5.4,1.8-8.1s-.7-.2-.7,0c-.6,2.7-1.2,5.4-1.8,8.1l.3-.3c-2.8.8-5.6,1.5-8.4,1.8s-3.1.2-4.6,0-3.8-.8-4.2-2.3.9-3.2,1.8-4.2,2.6-2.5,3.9-3.6c2.5-2.1,5.2-4,7.8-6s2.1-2,3.2-3.2.6-.4.8-.7.1-.3-.2-.1c-.4.2-.9.8-1.2,1.1s0,.4.3.3c.7,0,1.3-.5,1.8-.9s1.3-1.2,1.8-1.3l-.4-.2c0,.6-1.1,1.6-1.5,2l.6.2c.7-.7,1.4-1.2,2.3-1.5l-.4-.3c-.5,1-1.4,2-2.3,2.7l.5.3c.5-.4,1.1-.6,1.6-1s.3-.3,0-.1-.3.3-.5.5c-1,.9-2.1,1.7-3.2,2.4s0,.4.2.4c.5,0,.9-.3,1.4-.3s.4,0,.2.1-.7.3-.9.4c-1.2.5-2.4,1-3.5,1.8s-2.2,2-3.2,3.1-2.2,2.5-2.9,4,.4.3.6.2c3.2-2,6.9-2.8,10.6-3.6s.3-.6-.1-.5Z"/>
            </g>
            <path class="st15" d="M44.3,33.7c0,.1,0,.2-.1.4s0,.1,0,.2,0,.1,0,.2c0,.1.2.2.3.2.2,0,.4,0,.6,0s.2,0,.2-.2,0-.1,0-.2c-.1-.1-.3-.1-.5,0,0,0,0,0,0,0h0s0,0,0,0h0s0,0,0,0h0s0,0,0,0h0s0,0,0,0h0s0,0,0,0h0s0,0,0,0h0s0,0,0,0h0s0-.1,0-.2h0s0,0,0,0,0-.1,0-.2-.1,0-.2-.1-.2,0-.3,0-.2,0-.2.2h0Z"/>
            <path class="st40" d="M68.8,17.5c0,.5,0,.9,0,1.4s-.1.9,0,1.3,0,.4.2.4.4,0,.5-.1c.3-.2.3-.5.6-.7s0,0-.1,0c-.1,0-.2,0-.3.1-.2.1-.3.4-.5.6,0,0,0,0,0,0,0,0,0,0,0,0,0,0,0,0,0,0,0,0,0-.2,0-.2,0-.2,0-.4,0-.5,0-.3,0-.7,0-1s0-.8,0-1.2-.4,0-.4.1h0Z"/>
            <path class="st40" d="M68.3,21.8c.5.3,1.1.3,1.7.3s.6,0,.8-.2.4-.3.6-.5.2-.1.1-.2-.2,0-.3,0c-.2.1-.4.2-.5.4s-.4.2-.6.3c-.5,0-1,0-1.4-.2s-.2,0-.3,0-.1.2,0,.2h0Z"/>
            <path class="st17" d="M60.2,46.9c-.8-4.3-1-8.7-.5-13.1,0,.8-1.2,1.2-1.7.6s0-1.6.7-1.7c-.7.3-1.7-.5-1.5-1.3s1.3-1.2,2-.7c-.8.3-1.6-.8-1.2-1.5s1.4-1,2.2-.6c-.4.3-1-.1-1-.6s.4-.9.9-1,1,.1,1.3.4c-.4-.4-.8-.9-1-1.5h5.5c.3,2,.8,4.2,2.6,5.2.7.4,1.4.5,2.2.5,1.7,0,3.4-.3,4.9-1.2.9-.6,1.7-1.4,2.7-1.7,1.8-.6,3.9.5,4.9,2.2,1,1.6,1.1,3.7,1.1,5.6,0,.3,0,.8-.4.9-.6.2-.7-1.9-.7-1.9,0,0,.2.9.1,1.6s-.7,1.4-1.3,1.2c-.5-.1-.7-1.3-.9-1.9,0,.6.5,1.9,0,2.1-.7.5-1.2-.9-1.3-1.6-.2.8.3,2.2-.5,2.4-.5.2-1.1-1-1.3-1.7.2,1.8-1.1,3.4-1.8,5-.6,1.5-.8,3.2-1,4.8-.1,1-.7,2.4-1.7,2.2"/>
            <path class="st2" d="M64.5,48.1c-.8-.9-1.3-2.1-1.3-3.3s-.3-.1-.4-.1c-.1,0-.3.1-.3.3,0,1.3.6,2.5,1.4,3.4s.9,0,.7-.3h0Z"/>
            <path class="st2" d="M68.1,48.3c.4-1,.7-2.1,1.1-3.1h-.7c-.4,1.2-.7,2.4-.9,3.7s.4.3.5.2c2.6-1.3,4.6-3.8,5.1-6.7s-.7-.3-.7,0c-.4,2.7-2.2,5-4.7,6.2l.5.2c.2-1.2.5-2.5.9-3.7s-.6-.4-.7,0c-.4,1-.7,2.1-1.1,3.1s.6.4.7,0h0Z"/>
            <g>
              <path class="st43" d="M65.8,14.6c.4-2.1,2-4,4.1-4.6s4.5.1,5.9,1.7c.6.7,1.1,1.7,1.1,2.6,0,.1,0,.2,0,.3,0,0-.2,0-.3,0-3.6,0-7.3.1-10.9.2h.4"/>
              <path class="st43" d="M66.2,14.6c.6-3.2,3.7-5.4,6.9-4.3s2.8,1.6,3.3,3.1.1.4.1.6,0,.5,0,.5h0c0,0-.1,0-.2,0-.1,0-.2,0-.3,0-.3,0-.6,0-.9,0-1,0-1.9,0-2.9,0-2.2,0-4.4,0-6.6.1v.3c.1,0,.2,0,.3-.1.5-.2,0-.4-.3-.3h-.4c-.2.2-.3.5,0,.5,2.4,0,4.9,0,7.3-.1s2.4,0,3.6,0,1-.5.9-1.3c-.3-1.8-1.9-3.2-3.6-3.8s-3.4-.4-4.9.3-3,2.5-3.4,4.4.7.1.8-.1h0Z"/>
            </g>
            <g>
              <path class="st30" d="M60,47c-3.6,6.1-6.9,12.5-9.8,18.9-.2.4-.4.9-.4,1.4,0,.6.5,1.1,1,1.5,3.4,3,8.3,3.3,12.8,3.4.5-4.6,1-9.3,1.5-13.9-.4,4.9-.7,9.8-.7,14.8,4.2.1,8.6.2,12.4-1.8-1.2-6.9-2-14-2.2-21,0-.2,0-.3-.1-.5-.1-.1-.3-.1-.5-.2-4.7-.4-9.4-1.3-13.9-2.5"/>
              <path class="st30" d="M59.7,47c-1.9,3.3-3.7,6.6-5.5,10s-1.6,3.2-2.4,4.9-1.8,3.1-2.2,4.8c-.6,2.5,3.2,4.1,5,4.7,2.9,1,5.9,1.1,9,1.2s.5,0,.5-.3c.5-4.6,1-9.3,1.5-13.9h-.7c-.4,5-.7,9.9-.7,14.8s.1.2.2.2c4.3.1,8.7.2,12.6-1.9s.2-.2.2-.3c-1.2-6.6-1.9-13.3-2.2-20s.2-1.5-.6-1.8-1.5-.2-2.1-.2-1.4-.2-2.1-.3c-3.3-.5-6.6-1.1-9.8-2s-.9.4-.4.5c2.8.7,5.6,1.4,8.4,1.8s3,.4,4.4.6,1,0,1.2.1c.4.2.3.4.4.9,0,.8,0,1.6.1,2.5.3,6.1,1,12.1,2.1,18.1l.2-.3c-3.7,1.9-8,1.9-12.1,1.8l.2.2c0-4.9.3-9.9.7-14.8s-.7-.3-.7,0c-.5,4.6-1,9.3-1.5,13.9l.5-.3c-2.8,0-5.7-.2-8.4-1.1s-2.6-1-3.6-1.8-1.6-1.2-1.5-2.2.7-1.7,1-2.4c2.8-6,5.8-11.8,9.1-17.4s-.5-.4-.7,0h0Z"/>
            </g>
            <path class="st23" d="M75,56.7c-1.6,0-3.2,0-4.8.3s-.4,0-.4.3c0,2.9.1,5.9.5,8.8s0,1.4.3,2,.5.4.9.4c1.4-.1,2.9-.5,4.2-.9s.3-.5-.1-.4c-1.2.4-2.5.6-3.7.8s-.5.1-.6-.2,0-.6-.1-.8c0-.7-.2-1.3-.3-2-.3-2.6-.4-5.2-.4-7.8l-.4.3c1.5-.3,3.1-.4,4.7-.3s.8-.4.3-.4h0Z"/>
            <path class="st23" d="M74.7,56.7c-1.1,0-2.1,0-3.2,0s-1,.1-1.6.2-.4,0-.6.2,0,.4,0,.6c0,.6.1,1.2.2,1.7s0,.5.1.8,0,.5.1.7c.2.4.6.3,1,.3s.9,0,1.3,0c1,0,2.1-.1,3.1-.3s.4,0,.4-.2-.2-.1-.3,0c-1.3.2-2.7.3-4,.3s-.7.1-.8-.2-.1-.8-.2-1.1-.1-.8-.2-1.3,0-.4,0-.7-.1-.5,0-.6h-.2c-.2.2,0,.1,0,.1.1,0,.2,0,.3,0,.2,0,.4,0,.6,0,.4,0,.8,0,1.2,0,.8,0,1.6,0,2.4,0s.4,0,.5-.2,0-.1-.2-.1h0Z"/>
            <path class="st23" d="M58.5,49.7c4.7,2.7,10.6,2.8,15.8,3.1s.7-.5.2-.5c-2.6-.1-5.2-.3-7.7-.7s-5.4-1-7.8-2.4-.9.2-.6.4h0Z"/>
            <path class="st23" d="M66,50.1c-.2,0-.5,0-.6.2s-.1.1-.2.2,0,.1,0,.2,0,.1.1.2c.2.1.4,0,.6,0s.3-.1.3-.2.1-.3.1-.5-.1-.3-.3-.4-.2,0-.2,0-.2,0-.3,0-.1,0-.1.1,0,0,0,.1,0,0,0,0h0s0,0,.1,0h0c0,0,0,.2,0,.3h0s0,.1,0,.2h0s0,0,0,0,0,0,0,0c0,0,0,0,0,0s0,0,0,0c0,0,0,0,0,0,0,0,0,0,0,0,0,0,0,0,0,0,.1,0,0,0,0,0h.2s0,0,0,0,0,0,0,0,0,0,0,0h0s0,0,0,0h0s0,0,0-.2h0s0,0,0,0h0s0,0,0,0,0,0,0,0c0,0,0,0,0,0,0,0-.1,0-.2,0s0,0-.1,0c0,0,0,0,0,0,0,0,0,0,0,0,0,0,.2,0,.3,0s.2,0,.2-.1,0,0,0-.1,0,0-.1,0h0Z"/>
            <path class="st23" d="M62.1,47.8c-.9,1-1.3,2.2-1.4,3.5s.7,0,.7-.2,0-.2,0-.3c0-.2-.7,0-.7.1s0,.2,0,.3l.7-.2c0-1.2.5-2.4,1.3-3.4s0-.2-.2-.2c-.2,0-.4,0-.5.2h0Z"/>
            <path class="st23" d="M69.3,49.4v2.1c-.1.3-.1.7-.1,1s0,.3,0,.4,0,0,0,.1c0,0,0,0,0,0,.4,0,.5,0,.4-.1-.1,0-.3,0-.5,0s-.3.1-.2.2c.3.2.8,0,1-.2s.2-.7.2-1c0-.9,0-1.9.1-2.8s-.7,0-.7.2h0Z"/>
            <path class="st23" d="M72.2,58.8c0,0-.1.2-.1.3s0,.1,0,.2,0,0,0,.1c0,.1.1.2.2.2.2,0,.3,0,.5,0s.2,0,.3-.2,0-.1.1-.2,0-.1,0-.2,0,0,0-.1,0-.1,0-.2,0,0,0-.1c-.1-.1-.4-.1-.5-.1s-.2,0-.3.2-.1.1-.1.2,0,0,0,.1,0,0,0,0c0,0,0,.1.1.2,0,0,0,0,.1,0,0,0,0,0,.1,0,0,0,.2,0,.3,0s.1,0,.1-.2h0c0,0,0-.1,0-.1h0s0,0,0,0c0,0,0,0,0,0h0s0,0,0,0h0s0,0,0,0h0s0,0,0,0h0s0,0,0,0h0s0,0,0,0h0s0,0,0,0h0s0,0,0,0h0s0,0,0,0h0s0,0,0,0h0s0,0,0,0h0s0,0,0,0h0s0,0,.1.1h0s0,0,0,.2h0s0,0,0,0h0s0,0,0,0h0s0,0,0,0h0s0,0,0,0h0s0,0,0,0h0s0,0,0,0h0s0,0,0,0h0s0,0,0,0h0s0,0,0,0h0s0,0,0,0h0s0,0,0,0h0s0,0,0-.1h0s0,0,0-.1h0s0,0,0,0,0-.1,0-.2-.1,0-.2,0c0,0-.2,0-.3,0s-.1,0-.2.1h0Z"/>
            <path class="st23" d="M64.8,58.4c-.7,4.6-1.1,9.2-1.1,13.8s.7.2.7,0c0-4.6.4-9.2,1.1-13.8s-.7-.2-.7,0h0Z"/>
            <path class="st18" d="M70.8,10c-1.2,1.4-1.9,3.2-1.9,5.1s.4,0,.4-.1c0-1.8.6-3.6,1.9-5s-.3,0-.4,0h0Z"/>
            <path class="st18" d="M70.9,10c2,.8,3.3,2.7,3.4,4.8s.4,0,.4-.1c0-2.2-1.5-4.1-3.5-4.9s-.2,0-.3,0-.1.1,0,.2h0Z"/>
            <path class="st18" d="M70.3,9.6c-2.5.5-4.5,2.6-4.8,5.1s.4,0,.4,0c.3-2.4,2-4.4,4.4-4.8s.2,0,.2-.2-.2,0-.2,0h0Z"/>
            <path class="st18" d="M71.4,9.9c1.4-.2,2.9.3,4,1.3s1.4,2.5,1.7,3.9.5,0,.4-.1c-.3-1.5-.7-3.1-1.9-4.1s-2.6-1.3-4.1-1.2-.4.3,0,.2h0Z"/>
            <path class="st6" d="M71.1,9.1c-.1,0-.3,0-.4,0s-.2.1-.3.2-.1.3,0,.4,0,.1,0,.2,0,.1.2.2c.2.1.4.1.6,0s.4-.2.5-.4,0-.3,0-.4c-.1-.3-.5-.5-.8-.5s-.4,0-.5.2-.1.2-.2.3c0,.2,0,.4.2.5s.2,0,.3,0,.2,0,.3,0,.1,0,.1-.2,0-.1,0-.1,0,0,0,0h0s0,0,0,0h0s0,0,0,0h0s0,0,0,0h0s0,0,0,0h0s0,0,0,0h0s0,0,0,0h0c0,0-.1,0,0,0h0s0,0,0,0h0s0,0,0,0h0s0,0,0,0h0c0,0,.1,0,.2,0h0c0,0,.1,0,.1.1h0s0,0,0,.2h0s0,0,0,.1h0s0,0,0,0h0s0,0,0,0h0s0,0,0,0h0s0,0,0,0c0,0,0,0,0,0,0,0,0,0,0,0h0s0,0,0,0c0,0,0,0,0,0h0s0,0,0,0h0s0,0,0,0h0s0,0,0,0h0s0,0-.1-.1h0s0-.1,0-.2h0s0,0,0,0h0s0,0,0,0h0s0,0,0,0h0s0,0,0,0h0s0,0,0,0c0,0,0,0,0,0,0,0,0,0,0,0,0,0,0,0,0,0h0s0,0,0,0c0,0,.2,0,.3,0s.2,0,.2-.2,0-.1,0-.2-.1,0-.2,0h0Z"/>
            <g>
              <path class="st6" d="M77.3,14.9c-.8,0-6.8,1.2-9.7,1.6-1.3.2-4.6.5-5.9.3,1.2-1,2.7-1.7,4.2-1.9h11.3Z"/>
              <path class="st6" d="M77.3,14.7c-.9,0-1.8.2-2.7.4-1.4.2-2.9.5-4.3.8-2.7.5-5.6,1-8.4.8v.4c1.4-1.1,3-1.8,4.7-1.8h3.9c2.3,0,4.6,0,6.8,0s.6-.6,0-.5c-3.7,0-7.5,0-11.2,0s-3.4.9-4.7,2-.2.4.1.4c2.7.3,5.5-.2,8.2-.7s3.1-.5,4.6-.8,1.9-.4,2.9-.4.6-.5,0-.5Z"/>
            </g>
            <g>
              <path class="st13" d="M66.4,112.6c.6.6,1.2,1.2,2,1.5s1.8.1,2.3-.5c.9-1,.5-2.8,1.5-3.6,0,.7,0,1.3-.3,2-.2,0-.4,0-.6.1.8,1.9.8,4.2-.1,6.1-.2.3-.4.7-.8.8-.2,0-.4,0-.6,0-1.4-.3-2.9,0-4.3.3s-2.8.8-4.2.8-3-.5-3.8-1.7c-.2-.3-.3-.7-.1-1,.1-.2.3-.2.5-.3,3.1-1,5.8-2.9,8.4-4.8.1.4.4.8.7,1"/>
              <path class="st13" d="M66.1,112.8c1.1,1.2,2.7,2.2,4.3,1.3s.9-3,2.1-4.1h-.7c0,.7,0,1.3-.3,1.9l.4-.3h-.6c0,.1-.5.2-.4.4.5,1.2.7,2.5.5,3.9s-.2,1.1-.4,1.7-.3.9-.8,1-.6-.1-.8-.2c-2.6-.3-5,1-7.5,1.2s-2.7-.2-3.6-1.2-.3-.3-.4-.5c-.4-.6.1-.9.6-1.1s1-.4,1.5-.6c2.3-1.1,4.5-2.6,6.6-4.1h-.6c.2.4.4.7.7,1s.9,0,.7-.3c-.3-.3-.5-.6-.7-1s-.5-.1-.6,0c-2.1,1.5-4.2,3-6.5,4s-1.2.5-1.8.7-.7.3-.8.6c-.3.7.6,1.5,1.1,1.9,1.8,1.3,4.1.9,6.1.4s2.7-.8,4.1-.8,1.9.5,2.7,0,1.1-2.1,1.2-3,0-2.6-.5-3.8l-.4.3c.4,0,.8,0,1.1-.4.4-.5.3-1.4.3-2s-.6,0-.7,0c-.8.8-.8,1.9-1.1,2.9-.8,2.2-3.1.8-4.1-.3s-.9,0-.7.3h0Z"/>
            </g>
            <g>
              <path class="st40" d="M57.2,118.1c.3-.2.2-.8.5-.9.2,0,.4.2.5.4.8,1,2.3.9,3.5.7,2.9-.4,5.9-.9,8.8-1.3,0,0,.2,0,.3,0,0,0,.1,0,.2.2.4.6-.2,1.5-.9,1.7s-1.5,0-2.2,0c-.9,0-1.7.1-2.6.3-1.6.4-3.2,1-4.8,1s-3.4-1.2-3.5-2.8"/>
              <path class="st40" d="M57.5,118.2c.1-.1.2-.2.2-.3.1-.3,0-.3.2-.1.4.2.6.6,1,.7,1,.3,2,.2,3,0,1.5-.2,2.9-.4,4.4-.7s1.5-.2,2.2-.3,1.7-.5,2-.2.1.6,0,.8c-.3.5-.8.6-1.4.6s-1.2-.1-1.9-.1c-1.3,0-2.6.5-3.9.9s-2.8.7-4.1.2-1.9-1.2-2.1-2.4-.8-.1-.7.2c.2,2,2.3,3,4.1,3s2.6-.4,3.9-.8,1.4-.4,2.1-.5,1.5,0,2.3,0,1.9-.2,2.3-1,.2-1.5-.6-1.5-1.3.2-1.9.3-1.6.2-2.3.3c-1.5.2-2.9.4-4.4.7s-1.3.2-2,.1-1.1-.4-1.6-.9-.6-.3-.9-.2-.3.6-.6,1,.4.4.6.2h0Z"/>
            </g>
            <path class="st40" d="M64.2,118.1c-.6-.9-.3-2,.2-2.8s1.8-1.4,2.9-1.6.4,0,.4-.3-.2-.2-.3-.2c-1.3.2-2.7.7-3.6,1.9s-.9,2.3-.3,3.3.8,0,.7-.3h0Z"/>
            <path class="st35" d="M63,114.4c.6.4,1,.9,1.2,1.5s.4,0,.4,0c.1-.3.1-.7,0-1s-.4-.5-.6-.8,0-.1,0-.2c0,0,0-.1,0,0,0,0,.1,0,.2,0,.2,0,.3.2.5.3.3.2.6.6.8.9s.4,0,.4-.1c0-.8-.7-1.3-1.1-1.9s-.5-.7-.7-1.1,0-.5,0-.7,0-.3,0-.4,0-.3.1-.3h-.2c.5,0,.7.8.7,1.2s0,1,0,1.5h.4c0-.3.1-.5.2-.6.2-.2.4-.4.6-.6s.4-.3.6-.4c-.1,0,0,0,0,0,0,0,.1,0,.2,0,0,0,.1,0,.2.1.1.1.3.3.3.5.1.4-.6.7-.9.8-.4.2-.9.4-1.4.5s-.3,0-.3.1,0,0,.1,0c.5,0,1-.2,1.4-.4s1-.4,1.4-.8.2-.3,0-.4c-.1-.3-.5-.7-.8-.7s-.9.3-1.3.5-.5.4-.7.7-.3.3-.2.5.4,0,.4-.1c.1-.7.2-1.6-.2-2.2s-.4-.5-.7-.5-.6.4-.6.7c-.2.8.2,1.5.7,2.1s1.1,1.1,1.1,1.8h.4c-.2-.5-.6-.9-1-1.2s-.8-.4-1.2-.2-.1.6,0,.8c.4.4.5.9.3,1.5h.4c-.3-.7-.7-1.3-1.3-1.7s-.5.1-.4.1h0Z"/>
          </g>
          <path class="st11" d="M100.7,52.4c.9,0,1.5-.8,2.4-1,0,.4-.2.7-.4,1,.9,0,1.5-1.1,2.4-1s0,0,.1,0c0,0,0,.2,0,.2-.5.8-1.3,1.3-2.1,1.7.8-.4,1.6-.7,2.3-1.1s.1,0,.2,0c0,0,0,0,0,.1,0,.3-.2.6-.5.7-.8.4-1.6.8-2.4,1.1,1-.2,1.8-.6,2.7-1,0,.1,0,.3,0,.4s-.2.2-.3.3c-.7.4-1.4.7-2.1,1.1.4-.1.8-.2,1.2-.4,0,0,0,0,0,0,0,0,0,.1,0,.2-.3.4-.8.7-1.3.8s-1.1,0-1.6-.1c-.4,0-.9-.2-1.2-.5,0-.1.2-.2.3-.3"/>
          <path class="st11" d="M111.3,65.5c-.3,1.6.7,2.4.8,3.3,0,.1,0,.2-.1.3,0,0-.1,0-.2,0-.6-.2-1.1-.6-1.2-1.1,0,.9.4,1.8.9,2.5.2.3.4.6.4.9,0,.1,0,.2-.1.3,0,0-.2,0-.2,0-.3-.2-.5-.5-.7-.8-.3-.4-.6-.8-.9-1.2.4.6.7,1.2.9,1.9-.6-.4-1-1.2-1.3-1.9,0,.5.3,1,.5,1.4-.9-.7-1.4-1.8-1.5-3s.3-2.3.6-3.4"/>
          <path class="st39" d="M119.1,44.8c-2.1-.9-4.7.4-6,2.3s-1.6,4.3-2.1,6.6c-.5,2.7-1.3,5.3-2.2,7.8-.4,1.1-.9,2.3-.9,3.5,1.6.5,3.2.9,4.8,1.4l.2-.6c1.3.2,2.7-.2,4-.5.9-.2,1.8-.2,2.7-.3,6.3-.4,12.7-.5,19-.2,0-1,0-2,.1-3.1,0-.2,0-.4.1-.6.2-.3.5-.4.7-.5.9-.3,1.8-.8,2.2-1.6.2-.6.1-1.2,0-1.8-.6-3.4-1.3-6.8-1.9-10.2-.2-1.1-.2-.8-.5-1.8-.1-.4-1-1.5-1.7-1.9-1.9-.9-3.3-.8-5-.8s-3.7,0-5.6.2c-.8,0-1.6.1-2.3.5-.6.4-1.1,1-1.7,1.3-.8.5-1.9.5-2.8.5"/>
          <path class="st36" d="M116.3,58.4c0,.4.2.7.6.7s1,.1,1.5.2c.7,0,1.6,0,2.1-.5s.3-.7.3-1,0-1,0-1.5,0-1.1,0-1.6,0-.5,0-.8,0-.3-.2-.4-.2,0-.3,0c-.2,0-.4,0-.7,0-.5,0-1,0-1.6,0s-.9,0-1.2.2-.2.6-.2.9c-.1,1.3-.3,2.5-.3,3.8s.7,0,.7-.2c0-1,.1-2,.2-3s0-.8.1-1.1,0-.1,0-.2,0-.3,0,0h0c0,0-.2,0-.3,0,0,0,0,0,0,0,0,0,0,0,0,0,.8,0,1.6,0,2.4,0s.2,0,.3,0,0,0,0,0c0,0,0,.1,0,.2,0,.2,0,.5,0,.7,0,.9,0,1.8,0,2.6s0,.9,0,1.3-.4.4-.8.4-.9,0-1.3-.1-.5,0-.7-.1-.2-.4-.2-.5-.7,0-.7.2Z"/>
          <path class="st36" d="M117.1,55.1h3.1c.2,0,.4-.1.4-.3s-.2-.2-.3-.2h-3.1c-.2,0-.4.1-.4.3s.2.2.3.2h0Z"/>
          <path class="st36" d="M115.3,47.7c-.6,6.1-1.4,12.2-2.4,18.3s.7.2.7,0c1-6.1,1.8-12.2,2.4-18.3s-.7-.2-.7,0h0Z"/>
          <path class="st36" d="M112.8,53.8c.3.4.5.9.8,1.4s.4,1,.6,1.5.8,0,.7-.2c-.1-.5-.3-1-.6-1.5s-.5-1-.8-1.4-.8.1-.7.2h0Z"/>
          <path class="st36" d="M108.4,63.4c1.6.1,3.1.3,4.7.5s.4,0,.5-.2,0-.2-.2-.3c-1.6-.1-3.1-.3-4.7-.5s-.4,0-.5.2,0,.2.2.3h0Z"/>
          <path class="st36" d="M111.5,65.3s0,0,0,.1,0,0,0,0,0,0,0,0,0,0,0,0c0,0,.2,0,.2,0s.2,0,.3,0,.1,0,.2-.1,0,0,0,0c0,0,0,0,0-.1s0,0,0-.1,0,0,0,0,0,0,0,0c0,0,0,0-.1,0s0,0,0,0,0,0-.1,0c-.1,0-.2,0-.3,0s-.1,0-.1,0,0,0,0,0,0,0,0,0c0,0,0,0,0,0s0,0,0,0,0,0,0,0c0,0,0,0,0,0,0,0,0,0,.1,0,0,0,0,0,.1,0,0,0,0,0,.1,0h0c0,0,0,0,.1-.1,0,0,0,0,0,0s0,0,0,0h0s0,0,0,0h0s0,0,0,0h0s0,0,0,0h0s0,0,0,0h0s0,0,0,0h0s0,0,0,0h0s0,0,0,0h0s0,0,0,0h0s0,0,0,0h0s0,0,0,0h0s0,0,0,0h0s0,0,0,0h0s0,0,0,.1h0s0,0,0,.1l.6-.2s0,0,0,0h0s0,0,0,0h0s0,0,0,0h0s0,0,0,0h0s0,0,0,0c0,0,0,0,0,0,0,0,0,0,0,0,0,0,0,0-.1,0,0,0,0,0-.1,0,0,0-.2,0-.3,0h0c0,0,0,0,0,.1h0Z"/>
          <path class="st36" d="M136.4,50.3c.9,3.1-.7,6.4-3.7,7.5s-.2.1-.2.3c.3,1,.5,1.9.8,2.9s.2,1.4.9,1.4,1.7-.4,2.5-.6,1.9-.6,2.8-.9.3-.5-.1-.4c-1.4.5-2.9.9-4.3,1.3s-.3.1-.4.1c-.3,0-.3-.3-.4-.6s-.2-.7-.3-1c-.2-.8-.5-1.6-.7-2.4l-.2.3c3.2-1.2,5.1-4.6,4.1-8s-.8,0-.7.2h0Z"/>
          <path class="st36" d="M134.2,57.3c.4,1.5.9,2.9,1.5,4.4s.9.1.7-.2c-.6-1.4-1.1-2.9-1.5-4.4s-.8-.1-.7.2h0Z"/>
          <path class="st36" d="M133.7,58.2c0,0-.1,0-.2,0s0,0,0,0,0,0,0,0c0,0,0,0,0,0s0,0,0,0c0,0,0,0,0,0,0,0,0,0,0,0s0,0,0,0c0,0,0,0,0,.1s0,0,0,0,0,0,0,0c0,0,0,0,0,0s0,0,0,0c0,0,0,0,0,0s0,0,0,0c0,0,0,0,0,0s0,0,.1,0,0,0,0,0c0,0,0,0,0,0s0,0,0,0,0,0,0,0c0,0,0,0,.1,0s0,0,0,0,0,0,0,0c0,0,.1,0,.2-.1s0,0,0,0c0,0,0,0,0,0s0,0,0,0c0,0,0,0,0,0s0,0,0,0,0,0,0,0c0,0,0,0,0,0s0,0,0,0,0,0,0,0c0,0,0,0,0,0s0,0,0,0c0,0,0,0,0,0s0,0,0,0c0,0,0,0-.1,0,0,0,0,0-.1,0,0,0,0,0-.1,0,0,0,0,0-.1,0h0c0,.1,0,.2,0,.2h0c0,.1,0,.1.1.2,0,0,0,0,0,0h0s0,0,0,0h0s0,0,0,0h0s0,0,0,0h0c0,0,0,0,0,0h0c0,0,0,0,0,0h0c0,0,0,0,0,0h0c0,0,0,0,0,0h0s0,0,0,0h0s0,0,0,0h0s0,0,0,0h0s0,0,0,0h0s0,0,0,0h0s0,0,0,0h0s0,0,0,0h0s0,0,0,0h0c0,0,0,0,0,0h0c0,0,0,0,0,0h0c0,0,0,0,0,0h0c0,0,0,0,0,0h0s0,0,0,0h0s0,0,0,0c0,0,0,0,.1,0,0,0,0,0,.1,0,0,0,0,0,0-.1,0,0,0,0,0-.1h0c0-.1,0-.1-.1-.2h0c0,0-.1,0-.2,0h0Z"/>
          <path class="st35" d="M124.3,48.9c-.1,5.3,0,10.6-.2,15.9s.7,0,.7-.2c.1-5.3,0-10.6.2-15.9s-.7,0-.7.2h0Z"/>
          <path class="st35" d="M122.5,54.5s0,0,0,0,0,0,0,0,0,0,0,0c0,0,0,0,0,.1s0,0,0,.1,0,0,0,0c0,0,0,0,0,.1,0,0,.2.1.2.1s.2,0,.2,0,0,0,0,0c0,0,0,0,.1,0s0,0,.1,0,0,0,0,0c0,0,.1,0,.2-.1s.1-.2.1-.2,0,0,0-.1,0,0,0,0,0,0,0,0,0,0,0,0c0,0,0,0,0,0,0,0,0,0-.1,0-.2,0-.4,0-.6.1,0,0,0,0,0,0,0,0,0,0,0,0,0,0,0,.1,0,.2.2,0,.4,0,.5,0,0,0,0,0,0,0h0s0,0,0,0h0s0,0,0,0h0s0,0,0,0h0s0,0,0,0h0s0,0,0,0h0s0,0,0,0h0s0,0,0,0h0s0,0,0,0h0s0,0,0,0h0s0,0,0,0h0s0,0,0,0h0s0,0,0,0h0s0,0,0,0h0s0,0,0,0h0s0,0,0,0h0s0,0,0,0h0s0,0,0,0h0s0,0,0,0h0s0,0,0,0h0s0,0,0,0h0s0,0,0,0h0s0,0,0,0h0s0,0,0,0h0c0,0,0,0,0,0,0,0,.1-.1.1-.2s0-.1,0-.2-.2,0-.2,0-.2,0-.3,0h0Z"/>
          <path class="st35" d="M123.4,58.7s0,0,0,0c0,0,0,0,0,0s0,0-.1,0c0,0-.1,0-.2,0,0,0,0,0-.1,0,0,0,0,0-.1,0,0,0-.1,0-.1.1s0,.2,0,.3,0,.1,0,.2c0,0,0,0,0,0,0,0,0,0,.1,0,0,0,0,0,.1,0,0,0,.1,0,.2,0,0,0,.1,0,.2,0s0,0,0,0,0,0,0-.1,0,0,0-.1,0,0,0-.1c0,0,0,0-.1,0,0,0,0,0-.1,0,0,0,0,0-.1,0,0,0-.2,0-.2.1h0c0,0,0,0,0,.1,0,0,0,0,0,.1h0s0,0,0,0h0s0,0,0,0h0s0,0,0,0h0s0,0,0,0h0s0,0,0,0h.5c0,0,0-.2,0-.3h0s0,0,0,0l-.4.2h0s0,0,0,0c0,0,0,0,0,0h0s0,0,0,0h0s0,0,0,0h0s0,0,0,0c0,0,0,0,0,0,0,0,0,0,.1,0,0,0,0,0,.1,0,0,0,0,0,.1,0h0c0,0,0,0,.1-.1,0,0,0,0,0-.1h0Z"/>
          <path class="st35" d="M123.4,62.9h-.1c0-.1,0-.1,0-.2,0,0,0,0-.1,0,0,0,0,0,0,0,0,0,0,0-.1,0,0,0-.1,0-.2,0,0,0,0,0,0,0,0,0,0,0,0,0,0,0,0,0,0,.1s0,.1,0,.2h0c0,0,0,0,0,0,0,0,0,0,0,0,0,0,0,0,.1,0,0,0,0,0,0,0,0,0,0,0,.1,0s0,0,0,0c0,0,0,0,.1,0s0,0,0,0c0,0,0,0,0,0s0,0,0,0,0,0,0,0c0,0,0,0,0,0s0,0,0,0c0,0,0,0,0-.1s0,0,0-.1,0,0,0,0,0,0,0,0,0,0,0,0c0,0,0,0,0,0,0,0,0,0-.1,0,0,0,0,0-.1,0,0,0,0,0-.1,0,0,0,0,0-.1,0h0c0,0,0,.1,0,.2h0c0,0,0,.1,0,.1,0,0,0,0,0,0h0s0,0,0,0h0s0,0,0,0h0s0,0,0,0h0s0,0,0,0h0s0,0,0,0h0s0,0,0,0h0s0,0,0,0h0s0,0,0,0h0s0,0,0,0h.3c0,0,0,0,0,0h0s0,0,0,0l-.7.2h.1c0,.2.1.2.2.2,0,0,0,0,.1,0,0,0,0,0,.1,0h0c0,0,0-.1.1-.1h0c0,0,0-.1,0-.2h0Z"/>
          <g class="st42">
            <path class="st35" d="M121.3,45.5c0,.6-.2,1.1-.3,1.7-.2,1.1-.3,2.4.3,3.4.2.3.4.5.7.6.6.3,1.4-.1,1.7-.7s.5-1.2.6-1.9c0,.7.2,1.4.7,2s1.2.9,1.8.7c.5-.2.8-.5,1-1s.3-.9.3-1.4c.1-1,.3-2,.4-2.9,0-.3,0-.8-.2-.9-.1,0-.3,0-.4,0-1.9,0-3.9-.1-5.7-.7-.1,0-.3,0-.4,0,0,0,0,.1,0,.2-.1.4-.3.8-.4,1.2"/>
          </g>
          <path class="st39" d="M123.3,46.1c-.1.7,0,1.5.5,2.1s1.4.7,2,.2c.2-.2.3-.5.4-.8.1-.5.2-1.1.2-1.7-1.1.2-2.3.2-3.3-.2,0,0,0,0,.1-.1"/>
          <path class="st11" d="M122.8,38.1c-.6-.1-1.3.3-1.6.8s-.5,1.2-.6,1.8c-.1-.3-.5-.4-.8-.3s-.5.4-.6.7c-.1.4,0,.9.2,1.2s.8.3,1.1,0c-.2.7.2,1.4.6,2,.2.4.5.7.8,1.1.7.7,1.8,1,2.8,1s2-.3,2.9-.6c.5-.2,1.1-.4,1.3-.9.2-.4,0-.8,0-1.2,0-.8.3-1.6.4-2.3s0-1.7-.7-2.1c-.3-.2-.6-.3-.9-.3-1.7-.4-3.4-.8-5.2-.7"/>
          <path class="st40" d="M123.4,40.3c0,.3,0,.6-.2.9s-.2.6-.3.9,0,.5.2.7.6,0,.8,0,.2-.1.2-.2-.2-.1-.3,0c-.2,0-.4.1-.5,0s0-.4,0-.6c.1-.5.3-1,.4-1.6s-.4-.2-.4,0h0Z"/>
          <path class="st40" d="M121.5,43.5c.5.5,1.3.9,2,.9s1.5-.4,2.2-.8.1-.1,0-.2-.2,0-.3,0c-.6.4-1.1.8-1.8.7s-1.3-.3-1.7-.8-.5,0-.4.2h0Z"/>
          <path class="st40" d="M125.7,43c0,0,.1.1.2.2s0,0,0,0c0,0,0,0,0,0,0,0,0,0,0,0,0,0,0,0,0,.1,0,.2,0,.3,0,.5s.1.2.2.2.2,0,.2-.2c0-.4,0-.9-.3-1.2s-.2,0-.3,0-.2.1,0,.2h0Z"/>
          <path class="st40" d="M121.2,42.6c-.3.2-.5.6-.5.9s0,0,0,0,.1,0,.1,0,.1,0,.2,0,0,0,0-.1c0,0,0-.2,0-.2s0,0,0,0,0,0,0,0c0,0,0,0,0,0,0,0,0,0,0-.1s0,0,0,0,0,0,0,0c0,0,0,0,0,0s0,0,0,0c0,0,0,0,0,0,0,0,0,0,0,0s0,0,0,0c0,0,0,0,0,0,0,0,.1-.1,0-.2s-.2,0-.3,0h0Z"/>
          <g>
            <path class="st49" d="M121.5,45.3c-.6.3-1.5.4-2.3.5s-1.5-.3-1.9-.9-.4-1.5.2-2c0,0,.1,0,.1-.1.1-.2,0-.4-.3-.6-.6-.6-.6-1.7,0-2.2.4-.4,1-.6,1.5-1,.6-.6.7-1.4,1.2-2.1.3-.4.9-.7,1.4-.8.1,0,.2,0,.3,0,.4.1.4.8.8.9.2,0,.3-.1.5-.3.5-.5,1.1-.8,1.7-1,.3,0,.6-.1.8.1.1.2,0,.4.2.6.2.5.8.6,1.2.5.6,0,1.2-.2,1.7-.1s1.2.3,1.4.9c.1.4.1.8.4,1,.3.2.7,0,1,.2.2.1.3.4.3.7s0,.5,0,.8c.1.6.7,1.1,1,1.6.3.6.3,1.3,0,1.9s-.8,1-1.4,1.3c-.4.2-.9.3-1.3.4-.6.1-1.2.2-1.7,0-.6-.2-1-.6-1.2-1.2s0-1.2.3-1.7c.5-.7,1.5-1,1.7-1.9,0-.4,0-.8-.2-1.1,0,0-.1-.2-.2-.2,0,0-.1,0-.2.1-.4.4-1.1.2-1.3-.2,0-.1-.1-.3-.3-.3,0,0-.2,0-.3.1-.4.3-.9.3-1.4,0s-.8-.6-.9-1.1c0,0,0-.2-.2-.3-.1,0-.3,0-.4.1-.8.7-1.9,1-2.9,1.1l-.5,1.5-.5-.2s-1.7,0-1.2,1.7c.3,1,1.6.3,1.6.3-.3,1.9,1.1,3,1.1,3Z"/>
            <path class="st49" d="M121.3,45.2c-1,.5-2.5.7-3.4-.1s-.5-.6-.5-1,0-.6.2-.8.4-.3.4-.5,0-.4-.2-.6c-.3-.4-.6-.8-.5-1.4.1-1.1,1.3-1.3,2-2s.6-1.5,1.2-2.1.8-.7,1.2-.4.1.3.2.4c.2.2.3.3.6.3.7,0,1.3-.9,1.9-1.2s.7-.2.9.2,0,.3.1.5c.2.3.5.4.7.5.9.2,1.8-.3,2.7,0s.8.7,1,1.3.2.5.6.6.9,0,1.1.5,0,.8.1,1.2c.3,1,1.3,1.4,1.1,2.7s-1.7,1.9-3,2.1-2.5-.8-2.1-2.2,1.1-1.1,1.6-1.7.6-1.4.1-1.9-1.2.4-1.6-.1-.2-.5-.6-.5-.4.1-.6.2c-1.2.4-1.3-.4-1.8-1.1s-.3-.2-.5-.2c-.4,0-.7.3-1,.5-.7.4-1.4.6-2.2.7s-.4.1-.4.3l-.5,1.5.6-.2c-.4-.2-.7-.3-1.2-.2s-1,.4-1.2.9,0,1.6.7,1.7,1-.1,1.5-.3h-.6c-.1,1,.2,2.3,1.1,3s.9-.1.7-.3c-.9-.7-1.2-1.8-1.1-2.9s-.5-.1-.6,0-.5.2-.8.1c-.4-.2-.4-1.1-.2-1.4s.4-.3.6-.3-.2-.1,0,0,.3.1.4.2c.2,0,.6,0,.6-.2l.5-1.5-.4.3c.6,0,1.1-.1,1.7-.3s.5-.2.8-.3.7-.5.7-.5c0,0,.2.5.2.5.1.2.3.4.4.5.3.2.6.4.9.4s.7-.1,1.1-.2c0,0,.2,0,.3-.2,0,0,0,.2,0,.2,0,.1.1.2.3.3.6.5,1.1,0,1.7-.2h-.4c.6.2.4,1.3.2,1.6s-.7.6-1,.9c-.6.5-1,1.2-.8,2,.4,1.9,2.5,1.7,3.9,1.4s3.2-1.7,2.6-3.5-.4-.7-.6-1c-.4-.5-.5-.8-.5-1.4s0-.7-.4-1-1.1,0-1.3-.6-.3-1.1-1-1.4-.7-.2-1.1-.2c-.6,0-1.6.4-2.1,0s-.2-.8-.6-1.1-.4-.1-.6-.1c-.7,0-1.5.5-2,.9s-.4.4-.4.4-.2-.3-.2-.4c-.2-.2-.3-.4-.6-.4-.7-.1-1.5.3-1.9.8s-.7,1.3-1.1,2-1.7.9-2.1,1.9-.2.8,0,1.1.7.9.6,1.3-.4.5-.5.8,0,.8.1,1.2c.8,1.7,3.4,1.4,4.8.7s0-.5-.3-.3Z"/>
          </g>
          <g class="st28">
            <g>
              <path class="st8" d="M-20.7,27.6c-.7-.8-.4-2.4.7-2.8.8-.3,1.7,0,2.5.1,1.6.1,3.2-.8,4.5-1.7,1.3-1,2.6-2.1,4.1-2.6,1.8-.6,3.7-.2,5.5.4,1.8.6,3.4,1.5,5.2,2,3.5,1,7.5.6,10.8,2.1.5.2,1,.6,1.1,1.1,0,.5-.3.9-.7,1.1s-.9.2-1.4.2c-1.7,0-3.4,0-5,0-7.4,0-14.7.1-22,.7-1.7.1-3.5.3-5.1-.2"/>
              <path class="st8" d="M-20.1,27.3c-.3-.3-.4-.7-.3-1.2.1-.8,1-.8,1.7-.8,1,0,1.8.2,2.8,0,1.9-.5,3.3-1.8,4.9-3,2.3-1.6,4.5-1.7,7.1-.8s4.1,1.8,6.2,2.2,4.1.5,6.1.8,2.1.4,3.1.8.7.2.9.4,0,1.1-.1,1.3-1.6,0-1.9,0c-4.7,0-9.5,0-14.2.2s-5.6.2-8.3.3-5.6.8-8.2,0-1.7.7-.8.9c2.6.8,5.3.3,7.9.1s6.4-.3,9.6-.4,6.2,0,9.3-.1,2.8,0,4.2,0,2.5.2,3.5-.4,1.3-1.1,1-2-1.5-1.2-2.3-1.5c-2.6-.9-5.3-.9-7.9-1.3-5-.8-9.9-5-15-2s-2.3,1.7-3.5,2.5-1.8,1-2.9,1-1.3-.2-1.9-.2c-1.9,0-3.5,1.9-2.2,3.7s1.8,0,1.3-.6h0Z"/>
            </g>
            <g>
              <path class="st14" d="M.9,23.6c1.3,1,5.1,2.2,6.7,2.4.7,0,1.5.2,2.2-.2,0,0,.2,0,.2-.2,0-.1,0-.2-.2-.3-.5-.3-1-.3-1.6-.4-2.4-.3-4.9-.8-7.2-1.4"/>
              <path class="st14" d="M0,24c.8.6,1.9,1,2.8,1.4s2.2.7,3.3,1,3.1.3,4.4-.4.6-.4.3-.7-.6-.3-.9-.4c-.8-.2-1.6-.3-2.5-.4-1.9-.3-3.9-.7-5.8-1.2s-1,.1-1.4.3-.7.4-.3.5c1.8.5,3.7.8,5.5,1.1s1.8.2,2.6.4.4.2.6.2c0,.1.2.2.4,0,.3,0,.3,0,.2,0-.1,0-.4,0-.6,0s-.3,0-.4,0c-1.1-.2-2.3-.5-3.4-.9s-2.2-.8-3.1-1.5-1,0-1.3.1-.9.3-.6.5H0Z"/>
            </g>
          </g>
          <g>
            <path class="st16" d="M22.5,66.7c-.7,11.5,1.4,23.1,1,34.7,1.2.3,2.4.4,3.6.3.2,0,.5,0,.7-.2.1-.2.2-.4.2-.6,1.2-11.1-.4-23.3,2.3-34.2h-7.7Z"/>
            <path class="st16" d="M22.1,66.7c-.6,11.6,1.3,23.1,1,34.7s0,.2.2.2c1.2.3,3,.7,4.2.3s.9-1.9,1-2.8c.3-3.6.3-7.2.4-10.8,0-7.2,0-14.6,1.7-21.6s-.1-.2-.2-.2h-7.7c-.3,0-.8.5-.3.5h7.7l-.2-.2c-2.1,8.8-1.6,18-1.8,26.9s0,2.3-.1,3.4,0,2.3-.3,3.4-.6,1-1.6,1-1.6,0-1.9-.2-.3-1.1-.3-1.6c0-.7,0-1.5,0-2.2,0-4.7-.4-9.3-.7-14s-.6-11.2-.3-16.8-.7-.2-.7,0Z"/>
          </g>
          <g>
            <path class="st16" d="M38.4,67.9c-.2,3.9-1.7,7.7-1.3,11.7.3,3.2,1.7,6.1,3.4,8.8,1.7,2.7,3.7,5.2,5.2,7.9,0,.1.2.3.1.5,0,0-.1.1-.2.2-1.3,1-2.6,2.1-4,3.1-2.1-1.8-8-13-9.6-16.1-.6-1.3-1.1-2.6-1.6-3.9-.3-.9-.6-1.8-.7-2.8,0-1.1.1-2.2.4-3.2.5-2.5,1.1-5.1,1.6-7.6,2,.2,4.1.4,6.1.9"/>
            <path class="st16" d="M38,67.9c-.2,3-1.1,5.9-1.3,9s.3,5.7,1.6,8.3,2.9,4.9,4.5,7.2,2.4,2.8,2.3,4.1-1.1,1.3-1.7,1.8-1.3,1-2,1.6h.5c-1.5-1.4-2.5-3.5-3.6-5.2s-2.8-4.9-4.1-7.3-2.7-5.1-3.6-7.9-.5-4.2,0-6.5.9-4.4,1.4-6.6l-.5.3c2,.2,4.1.5,6.1.9s.7-.4.3-.5c-2-.4-4-.7-6.1-.9s-.4,0-.5.3c-.5,2.4-1,4.7-1.5,7.1s-.6,4,.1,6.2,2.2,5.2,3.5,7.8,2.8,5.1,4.2,7.6,2.1,3.8,3.7,5.2.4,0,.5,0c1.3-1,2.8-2,4-3.1s0-1.3-.4-2c-1.7-2.8-3.7-5.3-5.3-8.1s-2.8-6-2.7-9.4,1.2-6.5,1.4-9.9-.7-.3-.7,0h0Z"/>
          </g>
          <path class="st37" d="M42.1,98.2l1.2,2.2c0,.1.2.3.3.4.2.1.5,0,.8,0,.2,0,.4-.2.7-.2.1,0,.2,0,.3-.2.2-.2,0-.5,0-.7-.4-.9-.9-1.8-1.3-2.6,0,0,0,0,0,0,0,0,0,0-.1,0-.4.3-.8.4-1.2.6,0,0-.1,0-.1,0"/>
          <g>
            <path class="st52" d="M21.7,67.6c-2.2-4.6-2.2-9.9-2-15,0-1.2.1-2.5.4-3.7.9-3.5,4-6.4,7.5-7.1,0,1.3,1.2,2.4,2.5,2.5,1.3,0,2.5-1,2.7-2.2,1.7-.2,3.6-.3,4.7.9.5.5.8,1.2,1.1,1.9,1.4,4,1.3,8.3,1.3,12.5,0,1.6,0,3.2,0,4.8,0,1.9,0,3.8-.5,5.7,0,.2-.1.4-.3.6-.2.1-.4.2-.7.2-2.7,0-5.5.2-8.2.2-.4,0-.8,0-1.1.3-.2.1-.3.4-.5.5-.4.3-.9.2-1.3-.1s-.6-.7-.8-1.1c-.2-.3-.3-.7-.2-1-1.6.2-3.3.2-5,0"/>
            <path class="st52" d="M22.1,67.5c-2.1-4.7-2.2-9.9-2-14.9s.5-4.8,2-6.8,3.4-3.1,5.7-3.6l-.4-.2c.4,3.4,5.2,3.3,5.9,0l-.4.3c1.8-.2,3.8-.3,4.9,1.4s1.2,3.4,1.5,5c.6,3.7.4,7.4.3,11.1s0,3.7-.2,5.5,0,2.5-1,3-1.1,0-1.4,0-1,0-1.4,0c-1.9,0-3.8,0-5.7.2s-.7.2-1,.4-.9.5-1.4,0-.8-1.1-.7-1.6-.2-.3-.3-.2c-1.6.1-3.2.2-4.9,0s-.7.5-.2.5c1.7.1,3.4,0,5,0l-.3-.2c-.2,1.2,1,2.7,2.3,2.5s.4-.1.6-.2c.1-.1.2-.2.3-.3.5-.3,1-.4,1.5-.4,1.3-.1,2.6,0,3.9-.1s2.6,0,3.9-.1.9-.1,1.2-.6c.5-.7.5-2,.6-2.8.1-1.3.1-2.5.2-3.8,0-4.6.4-9.3-.4-13.9s-.7-4.2-2.2-5.3-3.2-.9-4.7-.7-.4.1-.4.3c-.6,2.7-4.1,2.2-4.4-.3s-.3-.2-.4-.2c-4.5.9-7.7,4.6-8.2,9.2s-.5,11.8,1.8,16.9.9.1.7-.2h0Z"/>
          </g>
          <path class="st57" d="M23.1,48.9c.7,2.9.7,6,.1,8.9s-1.5,5.3-1.2,8.1.7,0,.7-.2c-.4-3,.8-5.8,1.3-8.7s.4-5.6-.2-8.4-.8,0-.7.2h0Z"/>
          <path class="st57" d="M33,47.6c.3,7-1,14.7-6.6,19.6s.4.2.6,0c5.7-5,7-12.6,6.7-19.8s-.7,0-.7.2h0Z"/>
          <path class="st57" d="M29.8,69.3c4.5-3.7,7.8-8.8,9.3-14.4s-.7-.1-.7.1c-1.4,5.6-4.6,10.6-9.1,14.2s.4.2.6,0h0Z"/>
          <path class="st40" d="M24.2,70.6c-7.5,11.3-15.2,22.5-23.1,33.5s.5.2.7,0c7.9-11,15.7-22.2,23.1-33.5s-.5-.2-.7,0h0Z"/>
          <path class="st32" d="M29.3,38.3c0,.8,0,1.6-.1,2.4,0,.1,0,.2,0,.3-.1.2-.4.4-.6.4s-.5,0-.8.1c0,0-.2,0-.2.2,0,0,0,.2,0,.3,0,.8,0,1.6.4,2.3.5.9,1.5,1.3,2.5,1.2.6,0,1.1-.2,1.6-.6.9-.7,1-1.9,1.2-3.1,0,0,0-.1,0-.1,0,0-.1,0-.2,0-.2,0-.3-.2-.4-.4s0-.4,0-.6c.1-1.1.2-2.2.1-3.3-1,.5-2.2.8-3.3.9"/>
          <path class="st37" d="M26.6,32.5c0,1.3-.1,2.6-.1,3.9,0,.7,0,1.4.3,2,.4,1,1.4,1.6,2.5,1.6.8,0,1.6-.4,2.3-.9.6-.4,1.2-.8,1.2-1.5,0-.2,0-.5.2-.6,0,0,.2,0,.2-.1.4-.2.4-.7.4-1.1,0-.3,0-.5-.2-.7s-.4-.4-.7-.3c-.2,0-.4.3-.5.2,0,0-.1-.1-.1-.2-.2-.6-.4-1.2-.8-1.7-.5-.5-1.2-.7-1.9-.9-.8-.2-1.7-.4-2.5-.1-.1,0-.3.2-.2.3"/>
          <g>
            <path class="st40" d="M26.6,34.6c-.3.1-.5.4-.4.7s.5.4.7.2c.1-.1.2-.3.2-.5,0-.2,0-.4-.1-.6s-.3-.3-.5-.3c-.3,0-.5.3-.6.6,0,.3,0,.6.1.8s.6.3.8,0c0,0,.1-.2.2-.3,0-.1,0-.3,0-.4s-.2-.2-.3-.2c0,0,0,0,0,0,0,0,.1.1.2,0,.7-.1,1.3-.2,2-.3,0,0,.2,0,.2-.1-.3.2-.3.7,0,.9s.7,0,.8-.3c0-.1,0-.3,0-.4,0-.2-.2-.3-.3-.4,0,0-.2-.1-.3,0-.2,0-.3.3-.4.5,0,.2,0,.5.2.7.2.2.7.1.9-.2s0-.7-.3-.9c-.1,0-.3-.1-.4,0s0,.4,0,.4"/>
            <path class="st40" d="M26.5,34.4c-.4.2-.8.7-.5,1.1s.8.4,1.2.2.4-.9.2-1.3-.8-.6-1.2-.4-.7.7-.6,1.2.5.8,1,.8,1-.5.9-1-.9-.6-1.1-.2.2.4.5.4.6-.1.9-.2.7-.1,1-.2.7-.2.6-.5-.5-.1-.6,0c-.3.2-.4.6-.3.9s.6.5,1,.4.8-.4.8-.8-.3-.8-.7-1-.9.1-1.1.6,0,.8.2,1.1c.6.5,1.8-.1,1.5-1s-.6-.7-1.1-.6-.5.2-.5.5.2.4.4.4.4,0,.5-.2,0-.3-.2-.3h0c0,0,.1,0,.2,0,0,0,0,0,0,0,0,0,0,0,0,0,0,0-.2,0-.2,0s0,0,.1,0,0,0,0,.1c0,.1.1.4,0,.5s-.2,0-.2,0c-.1-.2-.1-.5,0-.7s0,0,0-.1c0,0,0,0,0,0-.2,0-.2,0-.1,0,0,0,0,0,.1,0s0,0,.1.1c0,.1.2.5,0,.6s-.4-.4-.2-.6h-.6s0,0,0,0h0c.2-.2.2-.2,0-.2h-.2c0,0-.2,0-.2,0h-.5c-.2.1-.4.1-.5.2h-.2c0,0-.1,0-.2,0,0,0,0,0,.1,0h0c-.3.1-.4.1-.3.2,0,0,0,0,0,0,0,0,0,0,0,.2s0,.1,0,.1,0,.1,0,.1c0,0,0,0,0,0,0,0,0,0,0,0,0,0-.1,0-.2-.1-.1-.2-.1-.4,0-.6s0-.2.1-.2,0,0,0,0,0,0,0,0c.2,0,.3.3.3.5s0,.2,0,.3,0,.2,0,.2c0,0,0,0,0,0s0,0,0,0c0,0,0,0-.1-.1,0-.1,0-.4.1-.4s.3-.2.2-.3-.4-.1-.5,0h0Z"/>
          </g>
          <path class="st40" d="M27.6,35.7c0,.2,0,.4,0,.6s0,.4,0,.6.2.3.4.3.4-.1.4-.4-.4,0-.4.1,0,0,0,0c0,0,0-.1.2,0,0,0,0,0,0,0s0-.1,0-.2,0-.2,0-.2c0-.3,0-.6,0-.9s-.4,0-.4.1h0Z"/>
          <path class="st40" d="M27.5,38.2c.8.3,1.7.3,2.5,0s.2,0,.2-.2-.2,0-.2,0c-.7.2-1.4.2-2.1,0s-.2,0-.3,0-.1.1,0,.2h0Z"/>
          <path class="st40" d="M32.2,35.8s0,0,0,0h0s0,0,0,0h0s0,0,0,0h0s0,0,0,0h0s0,0,0,0h0s0,0,0,0h0s0,0,0,0h0s0,0,0,0h0s0,0,0,0h0s0,0,0,0h0s0,0,0,0h0s0,0,0,0h.2s0,0,0,0h0s0,0,0,0h0c0,0,0,0,0,0h0c0,0,0,0,0,0h0c0,0,0,0,0,0h0c0,0,0,0,0,0h0c0,0,0,0,0,0h-.2c0,0,0,0,0,0h-.2s0,0,0,0h-.2c0,0,0,0,0,0,0,0,0,0,0,0,0,0,0,0,.1,0,0,0,.2,0,.3,0s.2,0,.2-.2,0-.1,0-.2c0,0,0,0,0,0,0,0,0,0-.2,0,0,0-.1,0-.2,0-.1,0-.3.1-.3.3s0,.2.2.2.3,0,.4,0,.2-.1.2-.2.1-.2.1-.3,0-.1,0-.2,0-.1,0-.2c0-.1-.2-.2-.3-.3s-.2,0-.3,0-.2,0-.2.1,0,.1,0,.2,0,.1.2.1h0Z"/>
          <g>
            <path class="st40" d="M27.1,33c-.5.2-1.1,0-1.3-.5s-.2-1,0-1.5c0,0,0-.1.2-.2,0,0,.1,0,.2,0,.2,0,.4.1.6.2-.5-.7-.3-1.7.3-2.3.1-.1.3-.2.4-.2.6,0,.9.7,1.5.9,0,0,0,0,.1,0,0,0,0,0,.1-.1.1-.3.2-.6.3-.9,0,0,0-.2,0-.2,0,0,.2,0,.3,0,.4.2.7.7.7,1.1,0-.2.3-.4.5-.5s.5.1.6.4c0,.2,0,.5.2.7.4-.5,1.2-.7,1.7-.3s.7,1.2.3,1.7c.3-.3.8,0,.9.4s-.2.8-.5,1.1c.1-.2.3-.3.5-.4s.5,0,.5.2c0,.2,0,.3-.2.5-.5.6-.8,1.3-1,2-.3,1-.6,1.8-1.4,2.5,0-.3.1-.6.2-.9s.4.2.4,0c.2-.5.3-1,.2-1.5,0-.3-.2-.5-.4-.6-.2-.1-.5,0-.8,0-.5,0-.8-.4-1.1-.8s-.5-.8-.7-1.2c-.5-.6-1.2-1-1.9-1.1-.7,0-1.8.1-2.1.6s.4.6.4.6Z"/>
            <path class="st40" d="M27,32.8c-.4.1-.8-.4-.9-.7s-.1-1,.2-1.2h-.4c.2,0,.4.2.6.3s.8,0,.6-.3c-.3-.5-.3-1.1,0-1.6s.3-.5.6-.4.4.3.6.5c.3.3.7.5,1.1.4s.2-.2.3-.3.3-.9.3-.9h-.4c.5.1.7.7.7,1.2s.7,0,.7-.1h.3c0,0,0,0,0,0,0,0,0,.2,0,.3,0,.2,0,.3.2.4s.6,0,.7-.1c.4-.5,1-.3,1.3.1s.3.9,0,1.3.5.2.6.1c0,0,.1.1.1.1,0,0,.1.2.2.3,0,.3-.2.7-.4.9h.6s0,0,.2,0c.1,0,.1,0,0,.1,0,.2-.1.3-.2.4-.2.2-.3.4-.4.7-.2.4-.4.9-.5,1.3-.3.9-.6,1.7-1.3,2.3h.7c0-.2,0-.7.2-.9l-.4.2c-.1,0,.1,0,.2,0,.1,0,.2,0,.3,0,.2,0,.3-.2.4-.4.2-.6.3-1.4,0-1.9s-.5-.3-.8-.3-.7-.1-1-.5c-.5-.5-.7-1.3-1.3-1.8-.9-.8-2.3-1-3.5-.5s-.9.4-.9.9.4.5.6.5.4,0,.5-.1.1-.2,0-.3-.4-.1-.3-.3c0-.4.7-.4,1-.5,1,0,1.9.4,2.4,1.2s.7,1.5,1.6,1.7,1,0,1.2.5,0,.5,0,.8,0,.6-.2.8l.4-.2c.1,0-.2,0-.2,0-.1,0-.3,0-.4.1-.3.2-.3.8-.4,1.1s.6,0,.7,0c.5-.4.9-.9,1.2-1.6s.4-1.6.9-2.3,1.1-1.2.4-1.5-1.1.2-1.4.6.5.2.6,0c.4-.4.8-1,.4-1.5s-.9-.4-1.3-.1h.6c.5-.6.3-1.6-.5-1.9s-1.7,0-2.2.6h.7c-.2-.3,0-.7-.2-.9s-.4-.3-.6-.3c-.5,0-1,.3-1.2.7h.7c0-.7-.4-1.4-1.1-1.5s-.5,0-.6.2c-.3.3-.1.9-.4,1.1h.5c-.5-.2-.8-.8-1.2-1s-.9,0-1.2.2c-.8.6-1,1.7-.5,2.6l.6-.3c-.4-.1-.9-.4-1.3-.1s-.5.8-.5,1.2c0,1.1,1.1,1.5,2,1.2s.3-.2.2-.3-.4,0-.5,0Z"/>
          </g>
          <g>
            <path class="st37" d="M26.5,68.2c-.2.4-.7.7-1.1,1-.7.5-1.3,1.3-1.5,2.1.4-.3.8-.5,1.2-.7.1.2,0,.4-.1.5-.4.4-1.1.9-1.1,1.1.6,0,1.2-.1,1.7-.5-.1.3-.5.5-.8.6s-.7.2-1,.3c0,0,0,0,0,0,0,0,0,.2.1.2.4.2.8.2,1.2,0s.7-.4,1.1-.7c-.2.4-.6.6-1,.7s-.8.2-1.2.3c0,0-.1,0-.1.1,0,0,.1.1.2.1.9,0,1.9,0,2.6-.6.4-.4.6-.9.8-1.5.2-.6.2-1.3.3-1.9"/>
            <path class="st37" d="M26.1,68.2c-.2.3-.5.5-.8.7s-.6.4-.8.7c-.5.5-.8,1.1-1,1.8s.5.2.6.1c.3-.3.7-.5,1.1-.7h-.5c.1.2-.5.7-.7.8s-.5.3-.6.6.1.3.3.3c.7,0,1.4-.2,2-.6l-.6-.2c-.2.4-.8.5-1.2.6s-.5.2-.7.4,0,.4.2.5c1,.6,2.1,0,2.8-.7h-.6c-.2.3-.7.4-1.1.5s-1,.1-1.2.5.5.4.7.4c.4,0,.8,0,1.2,0,.8-.2,1.6-.6,2-1.3s.6-1.9.6-2.8-.7-.2-.7,0c0,.8-.1,1.6-.4,2.4s-.7,1.1-1.4,1.2-.7,0-1,0-.2,0-.2,0h0c0,.2,0,.2,0,.2,0,0,.2,0,.3,0s.2,0,.3,0c.7-.2,1.4-.4,1.8-1s0-.2-.2-.3c-.2,0-.3,0-.5.1-.3.2-.6.5-.9.6s-.4,0-.5,0-.2,0-.2-.1h0c0,0,.1,0,.2,0,.6-.2,1.4-.3,1.7-1s-.4-.3-.6-.2c-.4.3-.9.3-1.4.4l.3.3c0-.1.2-.2.3-.3.2-.1.4-.3.5-.4.3-.3.7-.6.5-1.1s-.4,0-.5,0c-.4.2-.8.5-1.2.8h.6c.2-.6.5-1.2,1.1-1.6s1.2-.7,1.5-1.3-.5-.3-.7,0h0Z"/>
          </g>
          <g>
            <g>
              <path class="st19" d="M42.6,101.2c-.6.3-1,.8-1.3,1.4-.1.3-.2.7-.3,1-.3.6-1.1,1.2-1,1.9,0,0,0,.2,0,.2.1.2.4.1.6,0,.6-.1,1.2-.4,1.7-.8,1.2-.7,2.4-1.4,3.6-2,.5-.3,1-.7,1-1.2,0-.2-.1-.4-.3-.6-.3-.5-.7-1.1-1-1.6-.3.2-.4.5-.7.8-.4.5-1.2.8-1.9.6.3.1.6,0,.9,0"/>
              <path class="st19" d="M42.4,101c-.5.2-.9.6-1.2,1s-.3,1.1-.6,1.6-.7.8-.9,1.3-.2.9.3,1.1,1.1,0,1.6-.2,1.2-.6,1.8-1,1.2-.7,1.8-1.1,1.1-.6,1.6-1,.7-.8.5-1.4-.4-.6-.6-.9-.4-.7-.6-1-.4,0-.6,0c-.4.3-.5.7-.9,1s-.8.4-1.3.3-.8.4-.3.5.9.1,1.3,0,.3-.2.2-.4-.4-.1-.5,0-.4,0-.5,0l-.3.5c.6.1,1.2,0,1.7-.3s.4-.3.6-.5.3-.5.6-.7h-.6c.4.6.8,1.2,1.1,1.8s-.2,1-.7,1.2c-1.2.7-2.4,1.4-3.7,2.1s-.6.3-.9.5-.6.3-.8.2,0-.6,0-.7c.1-.2.3-.4.5-.6.3-.4.5-.9.6-1.4s.6-1.1,1.1-1.3,0-.6-.3-.4h0Z"/>
            </g>
            <g>
              <path class="st33" d="M46.3,102.9c1.2-.8.9-1.4.8-1.3s-1.1.6-1.2.7c-1.6,1.1-3.2,2.1-4.8,3.2s-.5.3-.6.4c0,0,4.6-2.1,5.7-3Z"/>
              <path class="st33" d="M46.5,103.1c.4-.3,1.3-1.1.9-1.6s-1.2.3-1.5.5c-.9.6-1.8,1.2-2.7,1.8s-1.9,1.3-2.9,1.9-.2.3,0,.4.4,0,.5,0c.8-.4,1.6-.8,2.5-1.2s2.3-1.1,3.3-1.8.2-.3,0-.4-.4,0-.6,0c-1,.7-2.2,1.2-3.2,1.8s-1.6.8-2.4,1.1l.4.4c1.7-1.1,3.4-2.3,5.1-3.4s.5-.3.7-.4.5-.2.7-.4c0,0,0,0,0,0-.2.1-.4.1-.6,0,0,0,0,0,0,0s0,0,0,.2c0,.3-.5.6-.7.8s-.2.3,0,.4.4,0,.6,0Z"/>
            </g>
            <path class="st40" d="M42.1,101.6c-.3-.3-.7-.5-1-.6s-.7-.4-.9-.7h0c0,0,.2,0,.2-.1s.1,0,.2-.1,0,0,0,0c0,0,0,0,0,0,0,0,0,0,0,0,0,0,0,0-.1,0,0,0-.1,0-.2,0,0,0,0,0,0,0,0,0,.1,0,.2,0,.1,0,.3.2.4.2.2.2.5.4.6.7s.3.5.2.8l.7-.2c-.2,0-.3,0-.5,0s-.3,0-.4,0-.2,0-.2.1c0,.1.2.1.3.1.2,0,.4,0,.5-.2s0-.1-.2-.1h0s0,0,.1,0c0,0,0,0,0,0l-.5.2s.1,0,.1,0c.1,0,.3,0,.4,0s.1,0,.2,0,.1,0,.2-.1c.1-.5-.3-1-.7-1.4s-.4-.4-.7-.5-.3,0-.4,0-.4,0-.5.2c-.2.1-.5.3-.7.4,0,0,0,0,0,0,.2.3.6.5,1,.7s.8.4,1.1.7.2,0,.2,0c0,0,.2,0,.3,0s.3-.1.2-.2h0Z"/>
            <path class="st40" d="M42.3,101.7c-.1-.5-.1-.9,0-1.4s0-.2,0-.2,0-.1,0-.1h-.2s0,0,0,0c0,0,0,0,0,0,0,0,.1,0,.2.1s0,0,0,0c0,0,0,0,0,0,0,0,0,0,0,0,0,0,0,0,0,.1,0,.2,0,.3-.2.5-.2.3-.5.6-.8.8s-.2.3,0,.4.3.1.5,0,.3,0,.4.1c.2.1.3.3.4.5l.5-.4c-.7-.3-1.4,0-2.1,0s-.3,0-.4.2,0,.2,0,.3c.4.3.9.5,1.4.6v-.5c.1,0,.1,0,0,0s0,0,0,0c0,0,0,0,0,0-.2,0-.3,0-.5,0-.3,0-.6,0-.9.1s-.3.2-.3.4.3.2.4.2,0,0,.1,0,.1,0,0,0c0,0,0,0,.1,0,.2,0,.4,0,.5,0s.3,0,.5,0,.3,0,.4,0c.2,0,.3-.4,0-.5-.4-.1-.9-.3-1.3-.6l-.3.5c.6,0,1.2-.2,1.7,0s.8-.1.5-.4-.4-.6-.8-.7-.8-.2-1.1,0l.4.4c.4-.3.9-.7,1.1-1.3s.2-.5.1-.8-.2-.3-.4-.4-.4-.2-.7-.2-.5.3-.6.6c-.2.6-.2,1.3,0,1.9s.8.2.7-.2h0Z"/>
            <path class="st33" d="M44.7,100.2c-.6.6-1.1,1.3-1.5,2s-.7,1.3-.9,2,.6.5.8.1c.2-.7.5-1.3.8-1.9s.8-1.3,1.3-1.8-.2-.7-.5-.4h0Z"/>
          </g>
          <path class="st5" d="M99.2,52.2c.3,0,.6.1,1,.2s.2,0,.2,0,0,0,0,0c0,0,0,.1,0,.1,0,.2,0,.3,0,.5,0,.7-.1,1.4-.3,2s.7.2.7,0c.1-.8.2-1.5.3-2.3s0-.4,0-.5-.3-.2-.5-.2c-.4,0-.8-.2-1.2-.2s-.4,0-.5.2,0,.2.2.3h0Z"/>
          <g>
            <path class="st49" d="M105.7,28.9c-.2.7,0,1.4.2,2.1.2.7.6,1.3,1.1,1.9,0,0,0,.1.1.1,0,0,.2,0,.3,0,.3-.3.4-.7.5-1.1.1-.9.2-1.7.2-2.6,0-.2,0-.4-.1-.5,0,0-.2-.1-.3-.1-.6-.1-1.2,0-1.7.2"/>
            <path class="st49" d="M105.4,28.9c-.2.8,0,1.7.3,2.5s.4.8.6,1.1.4.8.8.7c.9,0,1-1.2,1.1-1.9s0-.9.1-1.4,0-.4,0-.6,0-.4,0-.6c-.2-.4-.7-.5-1.1-.5s-1,0-1.5.3-.3.2-.2.4.4.1.5,0c.3-.1.6-.2.9-.2s.3,0,.5,0,.2,0,.2.2c0,.3,0,.7,0,1s0,.7,0,1.1,0,.6-.1,1,0,.3-.1.4,0,.1,0,.1,0,0,0,0c0,0,0,0,0,0,.1,0,.1,0,0,0,0,0-.1-.1-.1-.2,0,0,0-.1-.1-.2,0-.1-.2-.3-.3-.4-.2-.3-.3-.6-.4-.9-.3-.7-.4-1.5-.2-2.2s-.7-.3-.7,0h0Z"/>
          </g>
          <g>
            <path class="st49" d="M95.3,28.4l-.3,2.9c0,0,0,.2,0,.2,0,0,.2,0,.3,0,1.2-.3,2.2-1.2,2.7-2.3,0,0,0-.1,0-.2,0-.2-.2-.2-.4-.2-.8,0-2.3-.4-2.3-.4Z"/>
            <path class="st49" d="M94.9,28.4l-.2,1.5c0,.5-.1,1-.2,1.4,0,.9,1.7,0,2-.3.6-.4,1.2-1,1.6-1.6s.2-.3.2-.5-.2-.3-.3-.3-.3,0-.4,0-.4,0-.5,0c-.3,0-.7-.1-1-.2s-.2,0-.4,0,0,0,0,0c0,0,0,0,0,0s0,0,0,0c-.2,0-.4,0-.5,0s-.2.2,0,.2c.4,0,.7.2,1.1.2s.6.1.9.1.3,0,.4,0,.3,0,.3.1,0,.3-.1.4c0,.1-.2.3-.3.4-.2.3-.4.5-.7.7s-.5.4-.8.5-.3.1-.4.2-.2,0-.2,0h0c0,0,.1,0,0,0,0,0,0,0,0-.1,0-.5.1-.9.2-1.4l.2-1.5c0-.2-.7-.1-.7.1Z"/>
          </g>
          <g>
            <path class="st22" d="M95,28.8c.4-1.8,2.5-3.4,4.4-3.4,0-.5,0-1.1.3-1.1s.2.7.3,1c0,0,0,0,0,0,1.9,0,4.8.6,6.4,1.6.3.2.6.4.8.7.3.4.3,1,.4,1.5-.9,0-2.3,0-3.2,0-2.8-.2-9.3-.3-9.3-.3Z"/>
            <path class="st22" d="M95.3,28.7c.4-1.7,2.2-3.1,4-3.1s.4-.1.4-.3,0-.3,0-.5c0,0,0-.2,0-.3,0-.2,0-.2-.3,0,0,0,.1.7,0,.7-.2.2,0,.4.3.4,1.4,0,2.8.2,4.2.7s1.3.5,1.9.8c.9.5,1.1,1.2,1.2,2.2l.4-.4c-1.3,0-2.6,0-3.9-.1s-2.4-.1-3.5-.1-3.3,0-4.9-.1-.7.5-.3.5c1.7,0,3.4,0,5.1.1s2.4,0,3.6.1,2.6.2,3.9.1.4-.1.4-.4c0-.9-.3-1.6-1.1-2.2s-1.4-.8-2.1-1c-1.5-.5-3.1-.8-4.7-.8l.3.4c.2-.2,0-.6,0-.8s0-.5-.4-.6c-.8-.2-.9.8-.9,1.4l.4-.3c-2.1,0-4.3,1.6-4.8,3.7s.7.3.7,0Z"/>
          </g>
          <path class="st40" d="M101.2,34c-.1.2-.2.5-.3.7s-.2.5,0,.7.2,0,.3,0,.2-.1.1-.2,0,0,0-.1,0,0,0-.1c0-.1,0-.2,0-.3,0-.2.1-.4.2-.6s0-.2-.1-.2-.2,0-.3.1h0Z"/>
          <path class="st40" d="M105.7,34c.1.2.2.3.2.5s0,0,0,0c0,0,.1,0,.2,0s.1,0,.1,0,0,0,0,0c0-.2-.1-.4-.2-.5s0,0,0,0-.1,0-.2,0-.1,0-.1,0,0,0,0,0h0Z"/>
          <g class="st29">
            <g>
              <path class="st26" d="M126.5,125.3c5.1-.4,31.9.2,34.4.3.6-1.9.8-3.9,1-5.9.2-2.5.4-5,.6-7.5l.5-3.8c-.8-1.1-1.3-2.5-1.9-3.7s-1.5-2.5-2.7-3.1c-.5-.3-1.1-.5-1.5-.8-.7-.5-1-1.4-1.5-2.1-.8-1.1-2.1-1.8-3.4-1.6-.5,0-1,.3-1.5.4-1.5.2-2.8-1-4.3-.9-1.4,0-2.5,1.3-3.8,1.7-.7.2-1.4.2-2.1.5-1,.5-1.4,1.8-2.3,2.5-1,.9-2.4,1.1-3.2,2.1-.7,1-.7,2.4-1.5,3.3-.8,1-2.4,1.2-3.3,2.2-.5.6-.7,1.5-1,2.2-.4,1.2-.7,1.1-4.1,4.7s1.6,9.4,1.6,9.4Z"/>
              <g>
                <g>
                  <path class="st7" d="M120.7,112.5c-2.3-3.1-3.3-7.2-2.8-11,.6,1.7,1.7,3.2,2.7,4.7,1,1.5,1.9,3.2,1.9,5,0-2.8,0-5.7-.8-8.5,2.2,1.9,3.4,4.7,3.4,7.6,0,1.9-.6,3.8-.2,5.6"/>
                  <path class="st7" d="M121.1,112.4c-2.3-3.2-3.3-7.1-2.8-11l-.8.2c1.3,3.4,4.5,6,4.7,9.7s.8,0,.8-.2c0-2.8,0-5.7-.8-8.5l-.8.2c1.7,1.5,2.8,3.5,3.2,5.8s-.6,4.9,0,7.4.9,0,.8-.2c-.5-2.5.5-5.1,0-7.6s-1.6-4.1-3.2-5.6-.8,0-.8.2c.8,2.7.8,5.6.8,8.5l.8-.2c-.2-3.8-3.4-6.4-4.7-9.7s-.8,0-.8.2c-.5,3.9.5,7.8,2.8,11s.9-.1.8-.2h0Z"/>
                </g>
                <g>
                  <path class="st21" d="M124.3,115.2c0-3.9,2.9-7.3,3.5-10,.2,1.4.2,2.8,0,4.1-.2,1.3-.7,2.6-1,3.9-.5,2.3-1,5-1,7.3"/>
                  <path class="st21" d="M124.7,115.1c0-2,.7-3.8,1.6-5.5s1.5-2.9,1.9-4.4l-.8.2c.2,1.5.2,2.9,0,4.4s-.7,2.6-1,3.9c-.5,2.3-.9,4.7-1,7.1s.8,0,.8-.2c0-2.5.5-5.1,1.1-7.6s.8-2.6.9-3.9.1-2.6,0-3.9-.8,0-.8.2c-.4,1.6-1.3,3.1-2,4.6s-1.4,3.5-1.5,5.4.8,0,.8-.2h0Z"/>
                </g>
                <path class="st44" d="M118.2,102.5c0,4.2,4.3,6.9,4.4,11-.9-3.9-5.3-6.7-4.4-11h0Z"/>
                <path class="st44" d="M122.4,103.7c1.9,3.2,1.9,7.3.7,10.8.4-3.6.5-7.3-.7-10.8h0Z"/>
                <path class="st44" d="M127.8,105.2c0,4-2.3,7.6-2.7,11.6-.4-4.1,1.9-7.7,2.7-11.6h0Z"/>
                <g>
                  <path class="st1" d="M109.4,120.5c1-2.9,3.1-5.4,5.7-7.1.8-.5,1.6-.9,2.5-1,.9,0,1.7.1,2.5.4,1.4.4,2.8.8,3.8,1.8,1,1,1.4,2.5,1.7,4,.4,2.1.7,4.1.9,6.2,0,.1,0,.3,0,.4,0,.2-.3.2-.5.2-5.2,0-10.4,0-15.6.1"/>
                  <path class="st1" d="M109.8,120.4c.9-2.4,2.4-4.6,4.5-6.1s2.7-1.8,4.4-1.5,2.7.6,3.9,1.3c2.4,1.4,2.7,4.6,3.1,7.1s.2,1.4.3,2.1,0,.7.1,1,.1.6,0,.7c-.1.2-.5.2-.7.2-1.5.1-3.1,0-4.6,0-3.4,0-6.9,0-10.3,0s-.9.5-.3.5c3.8,0,7.7,0,11.5-.1s1.8,0,2.7,0,1.4.1,2-.1.5-.4.5-.8c0-.9-.2-1.9-.3-2.8-.4-2.9-.6-6.7-3.4-8.3s-2.8-1.1-4.1-1.4-2.9.2-4.2,1c-2.7,1.7-4.7,4.3-5.8,7.3s.7.2.8,0h0Z"/>
                </g>
                <g>
                  <path class="st51" d="M119.4,114.1c1.2-.2,2.5.5,3.2,1.5.7,1,1,2.3,1,3.5,0-.6-1.6-2.9-2.1-3.4-.6-.5-1.5-1.2-2.1-1.6h0Z"/>
                  <path class="st51" d="M119.3,114.3c1.1-.2,2.2.5,2.8,1.4s1,2.3,1,3.6l.8-.2c0-.4-.3-.8-.5-1.1-.3-.5-.6-1-1-1.5s-.6-.7-.9-1c-.6-.5-1.2-.9-1.9-1.4s-.4,0-.5,0-.4.2-.2.3c.6.5,1.2.9,1.8,1.4s.7.7,1,1,.7.9.9,1.4.5.7.5,1.1.8,0,.8-.2c0-1.3-.3-2.8-1.2-3.8s-2.1-1.5-3.3-1.3-.4,0-.5.3.2.2.3.2Z"/>
                </g>
                <g>
                  <path class="st34" d="M103.2,125.7c0-2.2,1.3-4.4,3.4-5.6.8-.5,1.8-.8,2.7-.4.9.4,1.3,1.2,1.6,2.1.3,1.1.5,2.2.5,3.3,0,.2,0,.3-.2.4,0,0-.2,0-.3,0-2.3.1-5.5.5-7.8.1"/>
                  <path class="st34" d="M103.6,125.5c0-1.4.5-2.7,1.4-3.8s2.6-2.6,4-1.9,1.7,2.5,1.8,3.8,0,.8.1,1.2,0,.5,0,.5c0,0,.5,0,.1,0s-.2,0-.3,0c-.7,0-1.4.1-2.1.2-1.7.1-3.4.2-5.1,0s-.4,0-.6.1-.3.2-.1.2c1.7.3,3.5.2,5.3,0s1.8-.1,2.7-.2.8,0,.9-.4,0-.9,0-1.2c0-1-.3-2-.6-2.9s-.7-1.4-1.5-1.7c-1.6-.6-3.5.4-4.7,1.4s-2.3,3-2.3,4.8.9,0,.9-.2h0Z"/>
                </g>
              </g>
              <g>
                <path class="st55" d="M139.5,109.6c0,0-.2.2-.2.3s.1.2.2.2.2-.2,0-.3"/>
                <path class="st55" d="M139.1,109.5c0,0-.1,0-.1.1s0,.1,0,.2,0,.1,0,.2,0,.1,0,.1,0,0,0,0c0,0,0,0,.1,0,.2,0,.3,0,.5,0s.2,0,.2,0,0,0,.1,0c0,0,.1-.1.1-.2s0,0,0-.1,0,0,0-.1c0,0,0,0,0,0,0,0,0,0-.1,0,0,0-.1,0-.2,0,0,0-.1,0-.2,0h0c0,0,0,.1-.1.1h0c0,0,0,.1,0,.1,0,0,0,0,0,0h0s0,0,0,0h0s0,0,0,0h0s0,0,0,0h0s0,0,0,0h0s0,0,0,0h0s0,0,0,0h.1s0,0,0,0h.1s0,0,0,0h.1s0,0,0,0h0s0,0,0,0h0s0,0,0,0h0s0,0,0,0h0s0,0,0,0h0s0,0,0,0h0s0,0,0,0h0s0,0,0,0c0,0,.1,0,0-.2s-.1,0-.2,0c-.1,0-.2,0-.3,0s-.2,0-.3.1h0Z"/>
              </g>
              <g>
                <path class="st55" d="M153.1,112.8c-.1.2-.2.4-.1.7s.3.4.5.4c.1,0,.2,0,.3-.1.2-.1.3-.3.3-.6s0-.5-.3-.6-.5,0-.5.2"/>
                <path class="st55" d="M152.7,112.9c0,.1-.1.3-.1.5s0,.3.1.5c.3.4.8.3,1.2.1s.6-.5.6-.8,0-.6-.4-.7-.5,0-.8,0-.4.2-.5.4,0,.1,0,.1c0,0,.2,0,.3,0s.2,0,.3-.1.1,0,.2-.2,0,0,0,0h0s0,0,0,0,0,0,0,0c0,0,0,0,0,0s0,0,0,0,0,0,0,0c0,0,0,0,0,0,0,0-.1,0,0,0s-.1,0,0,0-.1,0,0,0,0,0,0,0,0,0,0,0c0,0,0,0,0,0s0,0,0,0h0c0,0,.1,0,.2.1h0c0,0,0,.2,0,.3h0c0,0,0,.2,0,.3h0s0,0-.1.1,0,0,0,0,0,0,0,0c0,0,0,0,0,0s0,0,0,0,0,0,0,0,.1,0,0,0c0,0,0,0,.1,0,0,0,0,0,0,0,0,0,0,0,0,0s0,0,0,0c0,0,0,0,0,0h0c0,0-.1,0-.2-.1h0c0,0,0-.2,0-.3h0c0-.1,0-.3.1-.4s0-.1,0-.1c0,0-.2,0-.3,0-.2,0-.4,0-.5.3h0Z"/>
              </g>
              <g>
                <path class="st55" d="M129.5,112.8c-.1.3,0,.7,0,1,0,.2.2.4.4.4.3,0,.4-.3.5-.6,0-.2,0-.5,0-.7s-.4-.3-.6-.2"/>
                <path class="st55" d="M129.1,112.8c-.2.6,0,1.7.9,1.6s.7-.3.8-.7.2-.7,0-1-.3-.3-.4-.3c-.3,0-.6,0-.8.1s-.2.3,0,.4.4,0,.6,0c0,0,0,0,0,0,0,0,0,0,0,0,0,0-.1,0,0,0,0,0,0,0,0,0,0,0,0,0,0,0,0,0,0,0,0,0,0,0,0,0,0,0,0,0,0,0,0,0,0,0,0,0,0,0h0s0,0,0,0c0,0,0,.1,0,.1h0s0,.1,0,.2h0c0,0,0,.2,0,.4s0,0,0,0c0,0,0,0,0,0s0,0,0,0,0,0,0,0,0,0,0,0c0,0,0,0,0,0s0,0,0,0c0,0,0,0,0,0,0,0,0,0,0,0,0,0,0,0,0,0s.1,0,0,0c0,0,.1,0,0,0s0,0,0,0,0,0,0,0,0,0,0,0c0,0,0,0,0,0,0,0,0,0,0,0,0,0,0,0,0,0,0,0,0-.1-.1-.2h0c0-.1-.1-.3-.1-.5h0c0-.1,0-.3,0-.5s0-.2,0-.2-.2,0-.3,0c-.2,0-.4.1-.5.3h0Z"/>
              </g>
              <g>
                <path class="st55" d="M139.7,106.7c0,.2,0,.3,0,.5s.2.3.4.2c.2-.1.1-.4,0-.6"/>
                <path class="st55" d="M139.3,106.8c0,.2,0,.3,0,.5s.1.3.3.3.3,0,.4,0,.3,0,.4-.1.1,0,.2-.1.1-.1.1-.2,0-.1,0-.2c0-.1,0-.3-.2-.4,0,0,0,0,0,0,0,0,0,0-.1,0-.1,0-.2,0-.3,0s-.2,0-.2.1h0c0,0,0,.1,0,.1,0,0,0,0,0,0h0c0,0,.1.2.1.3h0s0,0,0,0h0s0,0,0,0h0s0,0,0,0h0s0,0,0,0c0,0,0,0,0,0,0,0,0,0,0,0,0,0,.1,0,0,0,.1,0,.1,0,0,0h0s0,0,0,0h0s0,0,0,0h0c0,0,0,0-.1,0h0c0,0,0-.1,0-.2h0c0,0,0-.1,0-.2s0,0,0-.1c0,0-.2,0-.3,0s-.2,0-.3.1-.1,0-.2.1h0Z"/>
              </g>
              <g>
                <path class="st55" d="M152.8,100.4c0,.1.3.2.4,0s0-.3-.2-.4"/>
                <path class="st55" d="M152.3,100.5s0,0,0,.1,0,0,0,0,0,0,0,0c0,0,0,0,.1,0,0,0,.2,0,.3,0s.2,0,.3,0,.2,0,.2-.2,0-.1.1-.2,0-.1,0-.2,0-.1,0-.2,0,0-.1-.1c0,0-.2,0-.3,0,0,0-.1,0-.2,0,0,0-.1,0-.2,0,0,0,0,0-.1,0,0,0,0,0,0,.1h0c0,.1,0,.2,0,.2h0c0,0,.1.1.2.1,0,0,0,0,0,0h0s0,0,0,0h0s0,0,0,0h0s0,0,0,0h0s0,0,0,0h0c0,0,0,0,0,0h0c0,0,0,0,0,0h0c0,0,0,0,0,0h0c0,0,0,0,0,0h0s0,0,0,0h.1s0,0,0,0h.1s0,0,0,0h.1s0,0,0,0h0s0,0,0,0h0s0,0,0,0h0s0,0,0,0h0c0,0,0,0,0,0,0,0,0,0,0,0,0,0,0,0-.1,0,0,0,0,0-.1,0,0,0-.1,0-.2,0,0,0-.2,0-.3.2h0c0,.1,0,.2,0,.2h0Z"/>
              </g>
              <path class="st3" d="M146.1,103.1l.9-.9c.1-.1.3-.3.4-.4.3-.2,0-.2-.6,0-.7,0-.9,0-.6.1,0,.2.2.3.2.6s-.2.7-.3,1.1,0,.8.4,1,1.1.1,1.7-.1,1-.4,1.6-.6.4-.2.6-.2c.4-.1,0,0,0,0,.6.6.9,1.3.8,2.1s.6.8,1.2.8,1.4-.3,1.8-.9.5-.6.6-.7.3-.2.4-.2c-.1,0-.2,0-.3,0s.1.3.1.4c0,.2,0,.5,0,.7,0,.4,0,1-.3,1.4l.8-.7h-.1c.7,0,1.3.1,2,.2h0c0,.1,0,.3.1.4h0c-.7.3-1.4.7-2.1,1.1h0c.7,0,1.6-.2,2-.9s-.3-1-.9-1.1h0c-.8,0-1.8.3-2.1,1.1s0,.4.1.6c.4.6,1.5.4,2,.1,1.1-.4,1.4-1.7,1.4-2.8s-.2-1.9-1.2-2.4c-2-.9-4.6.6-5.6,2.3h2.9c0-1.5-.5-3.2-2.1-3.7s-3.6.6-5.2,1.2l2,.9c.3-.7.7-1.4.5-2.2s-.7-1.2-1.3-1.4c-1.9-.6-3.2,1-4.4,2.3s-.3,1.1.3,1.3,1.6,0,2.1-.6h0Z"/>
              <path class="st3" d="M131.4,121c-.6-.8-1-1.9-.4-2.8,0,0,.1-.2.2-.2.5-.4.1-.3-1.1.2.1.1.4.2.5.3.4.3.6.7.9,1.1.4.6,3.2-.3,3-.8-.3-.8-.8-1.8-.4-2.7s.3-.3.3-.4l-1.4.4c.1,0,.2,0,.4.1.4.2.7.5,1,.8.5.5,3.2-.3,3-.8s-.5-1.1-.6-1.6,0-.5.1-.8c0-.1.1-.2.2-.3.2-.2.2-.2-.2,0l-1.2.3c.3,0,.8.8.9,1,.4.7,3.2-.4,3-.8-.6-1.1-.4-2.2.3-3.2s.2-.2.2-.2-.7.2-.7.2c0,0,.6.1.6.2.6.2,1,.7,1.3,1.2s3.2-.4,3-.8c-1.1-2.1-3.9-2-5.8-1.1s-3,2.7-2,4.5l3-.8c-.3-.6-.8-1.1-1.5-1.3s-2.1,0-2.9.5-1.2.8-1.4,1.6.2,1.6.5,2.3l3-.8c-1.3-1.5-3.1-1.5-4.9-.7s-1.7,2.6-1,4.2l3-.8c-.4-.7-.8-1.4-1.6-1.6s-2.3,0-3.3.4-1.5.8-1.7,1.6,0,1.8.5,2.6,3.2-.5,3-.8h0Z"/>
              <path class="st3" d="M150.1,116.6c.3,0,.6-.2.9-.3s0,0-.3,0c-.2-.1-.2-.1,0,0,0,0,0,0,0,0,0,.2,0,.4-.1.6-.3,1-.7,2-1.1,2.9s0,.9.7,1.1,1.4-.1,1.9-.6c.8-.8,1.7-1.4,2.7-1.9s.3-.1,0,0,0,0,0,.2c.2.4,0,1-.2,1.4s.1,1,.7,1.1,1.5-.1,1.9-.6,1.3-1.3,1.9-1.5l-.8.2c-.6.1-.4-.2-.3,0s.2.2.3.3c.2.2.3.5.4.7s0,.4,0,.7,0,0,0,0l.3-.2c.9,0,1.2,0,.8-.1-.7-.3-1.7,0-2.1.6s-.3,1,.3,1.3c1.2.5,2.8-.2,3.5-1.2s.3-2.1-.4-3-2.2-1.5-3.5-.9-2.1,1.4-2.9,2.3l2.6.5c.3-.8.6-1.7.3-2.5s-1.6-1.4-2.7-1.2-2.1.7-3.1,1.3-1.7,1.2-2.4,1.9l2.6.5c.3-.8.6-1.5.8-2.3s.6-1.4.5-2.1-.9-1.3-1.7-1.3-1.7.3-2.5.5-1.4.6-1.3,1.3,1.2.6,1.7.5h0Z"/>
            </g>
          </g>
          <path class="st10" d="M126.8,59.8c.8-.8,1.9-2,3.1-2.4s1.1-.4,1.4.2,0,.4.1.6,0,.4,0,.6c0,.8,0,1.5,0,2.3-.1,2.5-.3,5-.5,7.4-.5,6.5-1.1,13.1-1.7,19.6s-.6,5.7-1,8.5.7.1.7-.1c.9-6.3,1.4-12.7,2-19s1.1-11.9,1.3-17.9.3-2.3-.6-2.7-1.3,0-1.9.4c-1.3.7-2.4,1.6-3.4,2.5s.4.2.6,0h0Z"/>
          <path class="st11" d="M132.6,58.4c-.7,0-1.3,0-2,0-.5,0-1.1,0-1.6.3.8.7,1.9.7,3,.6-1,0-2.1.2-3.1.3-.1,0-.3,0-.3.2,0,0,0,0,0,.1.5.4,1.2.6,1.9.7s1.3,0,2,0c-.9,0-1.8.1-2.6.5,0,0,0,0-.1,0,0,.1.1.3.3.3.6,0,1.2,0,1.8,0-.4.1-.8.2-1.1.4-.2,0-.4.2-.4.4.8,0,1.6-.1,2.4-.2.1,0,.4,0,.5,0,0,0,.2-.3.2-.3l-.9-3.1"/>
          <path class="st57" d="M26.6,67c-.2.1-.4.2-.5.4s0,0,0,.1c.6.8,1.1,1.6,1.7,2.4s.2.4.4.4.6,0,.7-.2c.4-.3.7-.6,1-1s-.1-.2-.2-.2c-.2,0-.4,0-.5.2-.3.3-.5.5-.8.8s0,0-.1,0c-.1,0,0,0,.3,0h0c0-.1-.1-.2-.2-.3-.1-.2-.2-.3-.3-.5-.5-.7-.9-1.3-1.4-2h0c0,0,.2,0,.3,0s.2-.2,0-.2-.4,0-.5,0h0Z"/>
          <path class="st57" d="M27.4,67.7s0,0,0,0h0c0,0,.1,0,.2-.1h0c0,0,.1,0,.2,0h0s0,0,0,0c0,0,.2,0,.2-.1s0-.1,0-.2-.1,0-.2,0-.2,0-.3,0c-.2,0-.3.2-.4.3s-.2.2-.3.3,0,.1,0,.2.1,0,.2,0c.2,0,.4,0,.5-.2h0Z"/>
          <path class="st57" d="M27.6,68.5c0,0,.1-.2.2-.3s0,0,.1-.1,0,0,0,0c0,0,0,0,0,0s0,0,0,0c0,0,.2-.1.3-.2s0,0,0,0c0,0,0,0,0,0s0,0,0,0c0,0,0,0,.2,0s.2,0,.2-.2,0-.1,0-.2c-.1-.1-.3-.1-.5,0-.5.2-.9.5-1.2,1s0,.1,0,.2,0,.1.2.1.2,0,.3,0,.2,0,.2-.1h0Z"/>
          <path class="st57" d="M27.7,69.3c.3-.2.7-.4,1-.6s0,0,0-.1,0,0-.1,0c0,0-.2,0-.3,0s-.2,0-.2.1c-.1.1-.3.2-.4.3s-.1,0-.2.1,0,0,0,0c0,0,0,0,0,0,0,0,0,0,0,0,0,0,0,0-.1,0s-.1,0-.1.1,0,0,0,0c0,0,.2,0,.2,0s.2,0,.3,0h0Z"/>
          <path class="st57" d="M27.3,67c.7.5,1.3,1.2,1.6,2s.3.2.4.1.4-.2.3-.3c-.4-.9-1-1.6-1.8-2.2s-.4,0-.5,0-.2.3,0,.4h0Z"/>
          <path class="st27" d="M32.3,82.9c.8,1.6,2.8,2,4,3.3s.9,0,.7-.3c-.6-.6-1.4-1.1-2.1-1.5s-1.4-.9-1.8-1.7-.8,0-.7.2h0Z"/>
          <path class="st27" d="M22.5,82.9c.1,2.6.7,5.1,1.8,7.4s.8,0,.7-.2c-1.1-2.3-1.7-4.8-1.8-7.4s-.7,0-.7.2h0Z"/>
          <path class="st27" d="M27.9,94.3c-.2,1-.7,1.9-1.3,2.7s0,.2,0,.3.4,0,.5-.1c.7-.9,1.2-1.9,1.5-2.9s-.7-.2-.7,0h0Z"/>
        </g>
        <text class="st41" transform="translate(12 154.6)"><tspan class="st45"><tspan x="0" y="0">Escreve a histria atravs da perspectiva </tspan></tspan><tspan class="st45"><tspan x="18.2" y="9.4">de algum com habilidades ou </tspan></tspan><tspan class="st45"><tspan x="25.9" y="18.7">necessidades diferentes.</tspan></tspan><tspan class="st31"><tspan x="26.6" y="35">O que gostas na jornada? </tspan></tspan><tspan class="st31"><tspan x="15.6" y="44.3">Que desafios tens de enfrentar? </tspan></tspan><tspan class="st31"><tspan x="27.4" y="53.7">O que precisa de mudar? </tspan></tspan></text>
      </g>
    </g>
  </g>
</svg>