<?xml version="1.0" encoding="UTF-8"?>
<svg id="Layer_1" xmlns="http://www.w3.org/2000/svg" xmlns:xlink="http://www.w3.org/1999/xlink" version="1.1" viewBox="0 0 159.2 221.8">
  <!-- Generator: Adobe Illustrator 29.0.0, SVG Export Plug-In . SVG Version: 2.1.0 Build 186)  -->
  <defs>
    <style>
      .st0 {
        fill: none;
      }

      .st1 {
        fill: #bcd89d;
      }

      .st2 {
        fill: #c0bcb4;
      }

      .st3 {
        fill: #58595b;
      }

      .st4 {
        fill: #056e50;
      }

      .st5 {
        fill: #6d6e70;
      }

      .st6 {
        fill: #b0a39a;
      }

      .st7 {
        fill: #172c26;
      }

      .st8 {
        fill: #929496;
      }

      .st9 {
        fill: #b8d6a0;
      }

      .st10 {
        fill: #8a7a6f;
      }

      .st11 {
        fill: #575247;
      }

      .st12 {
        fill: #f6f1f1;
      }

      .st13 {
        fill: #a6a8aa;
      }

      .st14 {
        fill: #0d5744;
      }

      .st15 {
        fill: #bc9b72;
      }

      .st16 {
        fill: #192e28;
      }

      .st17 {
        fill: #e5ca85;
      }

      .st18 {
        fill: #de653a;
      }

      .st19 {
        fill: #98c56a;
      }

      .st20 {
        fill: #286157;
      }

      .st21 {
        fill: #4ca87c;
      }

      .st22 {
        fill: #a27d56;
      }

      .st23 {
        clip-path: url(#clippath-1);
      }

      .st24 {
        clip-path: url(#clippath-3);
      }

      .st25 {
        clip-path: url(#clippath-4);
      }

      .st26 {
        clip-path: url(#clippath-2);
      }

      .st27 {
        font-family: Barlow-Italic, Barlow;
        font-style: italic;
      }

      .st28 {
        fill: #3973b5;
      }

      .st29 {
        fill: #fff;
      }

      .st30 {
        fill: #377a64;
      }

      .st31 {
        fill: #a0d6f4;
      }

      .st32 {
        fill: #5e308b;
      }

      .st33 {
        fill: #e9e5e5;
      }

      .st34, .st35 {
        fill: #221f20;
      }

      .st36 {
        opacity: .5;
      }

      .st37 {
        opacity: .5;
      }

      .st38 {
        opacity: 0;
      }

      .st39 {
        fill: #141c1b;
      }

      .st40 {
        font-family: Barlow-Regular, Barlow;
        letter-spacing: 0em;
      }

      .st41 {
        fill: #852f8a;
      }

      .st42 {
        fill: #509f80;
      }

      .st43 {
        fill: #382417;
      }

      .st44 {
        fill: #bfbbb3;
      }

      .st45 {
        clip-path: url(#clippath);
      }

      .st35 {
        font-size: 7.8px;
      }
    </style>
    <clipPath id="clippath">
      <rect class="st0" x="-171.7" y="3.7" width="158.8" height="126.9"/>
    </clipPath>
    <clipPath id="clippath-1">
      <rect class="st0" x="121.9" y="5.1" width="37.2" height="86.8"/>
    </clipPath>
    <clipPath id="clippath-2">
      <rect class="st0" x=".1" y="3.4" width="57.8" height="99.2"/>
    </clipPath>
    <clipPath id="clippath-3">
      <path class="st0" d="M28.5,78.6c-.2-2.9,0-7.6-3.7-8-1.9-.2-3.7-.1-5.6-.2-6.2-.1-12.4-.2-18.6,0-6.1,0-12.5,0-18.5,1.2-.5,0-.8.6-.7.8,0,0-.1.1-.2.2-.9,2.9-1.2,5.9-1.1,8.9,0,.2.3.2.4.2,10.6.7,21.1,2.1,31.6,3.4,2.6.3,5.2.6,7.7.9,1.2.1,2.4.3,3.6.4,1,.1,2.5.6,3.4.3,2.6-.9,1.6-6.1,1.5-8.2Z"/>
    </clipPath>
    <clipPath id="clippath-4">
      <path class="st0" d="M124.7,106.4c-.5.9-.5,2,0,3,.4.9,1.2,1.7,2.1,2.3.4.3.8.5,1.2.4.5-.1.7-.7.7-1.2s0-1.7-.4-2.1c-.5-.7-1.7-1.8-2.4-2.3-.3-.2-.6-.3-.9-.2"/>
    </clipPath>
  </defs>
  <g class="st45">
    <g>
      <path class="st21" d="M-54,57.5c6.9,3.5,14.4,1.6,20.6-2.3s6.2-4.6,9.2-6.9,6.6-4.4,10.4-5.9,4.2-1.4,6.3-2,3.7-1.1,5.1.2,3.6-.4,2.7-1.2c-2.5-2.3-6-1.3-8.9-.5s-7.6,2.4-11.2,4.3c-6.9,3.7-12.2,9.9-19.4,13s-8.6,2-12.7-.1-1.5-.2-2.1.2-.8,1-.2,1.3h0Z"/>
      <path class="st21" d="M-54.9,58.8c4.2,1.5,8.5,2.7,12.9,1.6s7.7-3.8,11-6.3,6.7-6.3,10.6-8.6,8.2-3.7,12.4-5.2,5-1.8,7.6-2.3,4.7-.6,6.9.6,3.5-.7,2.3-1.4c-3.6-2.1-7.9-1.2-11.7-.1s-8.7,3-13,4.6-7.8,3.6-11.1,6.6-6.8,6-10.7,8.4-4.4,2.5-7,2.6-5.4-.9-7.9-1.8-1.5-.1-2.1.3-.9.9-.3,1.1h0Z"/>
      <path class="st30" d="M-57.7,84.8c1.6,1.6,3.6,2.5,5.9,2.7s4.2-.5,6.2-1.6,1.5-.3,1.9.7.4,1.2.5,1.7c.3,1.3.3,2.6.4,3.9,0,2.3,0,4.7,1.1,6.8,2.1,4.6,8.1,5.5,12.7,4.9s5.1-1.3,7.3-2.7,4.2-3.5,6.2-5.5,4.6-4.3,7.6-4.9,6.4,1.1,8.7,3.2,2.6-.4,1.7-1.3c-3.9-3.5-9.2-4.8-14-2.3s-7.8,7.6-12.6,10.2-11.9,3.2-15-1.5-.5-9.5-2.6-13.7-1.6-1.8-2.9-1.6-2.3,1.1-3.6,1.6c-2.5,1-5.6.3-7.5-1.6s-2.8.2-2,1h0Z"/>
      <path class="st21" d="M-28.6,108.7c3.2-.7,6.9-1.3,9.4,1.2s1.7,5.3,4,7.1,5.4.5,7.7-.4,5.3-2.7,7.6-4.7.3-.7-.2-.9-1.6.2-2,.5c-2.1,1.9-4.5,3.3-7.1,4.3s-2.7.7-3.8-.6-1.3-2.5-1.8-3.8c-2.3-5.9-9.1-5.1-14.1-4s-1.4.5-1.3,1,1.3.3,1.6.2h0Z"/>
      <path class="st21" d="M-68.6,51.7c1.2-1.7,3-3,5.1-3.2s4.1.8,5.6,2.2c3.4,3.1,3,7.8,2.2,11.9s-2,8.5-.5,12.6,4.7,8.2,8.7,5.8,1.6-1.3,2.3-2,2-1.9,2.9-2.8,1.6-1.9,2.6-2.4c1.4-.8,1.9,1.3,2.1,2.3s.3,2.3.3,3.5-.3,2.6,0,3.8c.5,1.8,2.1,2.5,3.9,2.2s1.8-.6,2.5-1.2,1.4-1.6,2.4-2c2.1-.9,4.7.3,5.4,2.4s0,3.9,1,5.7,2.5,2.3,4.3,1.9,3.7-2.1,4.7-4.1,2.3-3.9,4.2-5.5c3.5-2.9,7.9-4.4,12.1-5.9s1.1-.6.8-1.1-1.5-.1-1.9,0c-3.9,1.3-7.9,2.8-11.3,5.1s-3.1,2.3-4.3,3.7-2,3.6-3.2,5.3-.7,1-1.2.9-.8-.6-1-.9c-.6-.9-.8-2-.9-3.1-.2-2.1-.2-4.2-2.2-5.5s-3.8-1.2-5.7-.8-3.6,1.5-5.2,3-.4.6-.7.1-.6-.7-.7-1.2c-.4-1.2,0-2.6,0-3.8,0-1.8,0-5.3-1.8-6.4s-4.1-.3-5.6.8-3.9,3.6-5.7,5.4-.9.9-1.3,1.3h-.1c-.3.4-.4.4,0,.3.5,0-.3-.4-.4-.5-.9-.7-1.6-1.5-2.3-2.3-1.3-1.8-2.1-4-2.2-6.3-.3-4.5,1.6-8.9,1.8-13.4s-2.2-8.9-6.8-10.3-9.6.5-12.2,4.3,2.2.7,2.7,0h0Z"/>
    </g>
  </g>
  <g>
    <rect class="st17" x=".1" width="158.8" height="221.8"/>
    <text class="st35" transform="translate(17.1 150.9)"><tspan class="st40"><tspan x="0" y="0">Escreve a história pela perspectiva de </tspan></tspan><tspan class="st40"><tspan x=".6" y="9.4">trabalhador local, ou guia turístico, ou </tspan></tspan><tspan class="st40"><tspan x="23.2" y="18.7">outro especialista local.</tspan></tspan><tspan class="st27"><tspan x="5.7" y="35">O que torna este lugar tão especial </tspan></tspan><tspan class="st27"><tspan x="12.9" y="44.3">para ti? Como estás ligado/a à </tspan></tspan><tspan class="st27"><tspan x="9.4" y="53.7">população local e à sua história?</tspan></tspan></text>
    <path class="st16" d="M56,60.8c.3-5.9.6-11.7,1-17.6.3-4.1.7-8.5,3.2-11.9,1.6-2.2,3.9-3.7,6.3-4.9,4-1.9,8.4-2.9,12.8-2.9,0,2.3,0,4.5,0,6.8,0,.6,0,1.2-.2,1.8-.2.5-.5,1-.9,1.5-6.6,9.2-15.8,16.8-20.5,27.1"/>
    <path class="st7" d="M56.4,61.9c-.2-8.7-.5-17.5,1.2-26.1.4-1.9.5-4.1,1.9-5.3,9.2-7.8,16.7-6.9,19.3-6.9.5,2.4.7,4.9.7,7.4,0,1.4-.1,2.8-.7,4.1-.8,2-2.7,3.5-4.4,4.8-7.4,5.9-14.5,12.8-17.9,21.6"/>
    <g>
      <path class="st4" d="M28.6,138.1v-1l.9-.2v-6.3l-.9-.2v-1h6.6v2.2h-1.2v-1h-2.8v2.3h2.9v1.2h-2.9v2.6h2.9v-1h1.3v2.3h-6.7Z"/>
      <path class="st4" d="M38.9,138.2c-.5,0-.9,0-1.3-.1s-.8-.2-1.2-.4v-1.7s1.1,0,1.1,0l.2.9c.2,0,.3.1.5.2s.4,0,.6,0c.4,0,.7,0,.9-.2s.2-.3.2-.5,0-.4-.3-.5-.5-.3-1-.4c-.8-.2-1.3-.4-1.7-.7s-.5-.7-.5-1.2,0-.7.3-1,.5-.5.8-.7.8-.3,1.4-.3.9,0,1.3.1.7.2,1,.4v1.7s-1.1,0-1.1,0l-.2-.8c-.1,0-.2-.1-.4-.2s-.3,0-.5,0c-.3,0-.6,0-.7.2s-.3.3-.3.5,0,.2,0,.3.2.2.3.3.4.2.7.2c.8.2,1.4.4,1.7.7s.5.7.5,1.2-.2,1-.6,1.4-1.1.5-1.9.5Z"/>
      <path class="st4" d="M42.2,140.5v-1l.8-.2v-6.5l-.9-.2v-1h2.4v.7c.3-.3.5-.5.8-.6s.6-.2,1-.2,1,.1,1.3.4.6.7.8,1.2.3,1.1.3,1.8h0c0,.7,0,1.3-.3,1.8s-.5.8-.8,1.1-.8.4-1.3.4-.7,0-.9-.2-.5-.3-.7-.6v1.9l.9.2v1h-3.3ZM45.8,137c.5,0,.8-.2,1-.5s.3-.8.3-1.4h0c0-.5,0-.9-.1-1.2s-.2-.6-.4-.7-.5-.3-.8-.3-.5,0-.7.2-.3.3-.5.5v2.8c.1.2.3.3.5.5s.4.2.7.2Z"/>
      <path class="st4" d="M52.6,138.2c-.6,0-1.1-.1-1.6-.4s-.8-.6-1-1.1-.4-1-.4-1.6v-.2c0-.6.1-1.2.4-1.7s.6-.9,1-1.1.9-.4,1.5-.4,1.1.1,1.4.3.7.6.9,1,.3.9.3,1.5v.9h-3.8c0,.3,0,.6.2.8s.3.4.5.6.5.2.8.2.6,0,.9-.1.5-.2.8-.4l.5,1c-.3.2-.6.4-1,.5s-.8.2-1.4.2ZM51.3,134.3h2.3v-.2c0-.3,0-.5-.1-.7s-.2-.4-.4-.5-.4-.2-.6-.2-.4,0-.6.2-.3.3-.4.5-.2.5-.2.7h0Z"/>
      <path class="st4" d="M58.9,138.2c-.6,0-1.1-.1-1.6-.4s-.8-.6-1-1.1-.4-1-.4-1.7v-.2c0-.6.1-1.2.4-1.6s.6-.9,1-1.1,1-.4,1.5-.4,1,0,1.5.3.7.4,1,.6v1.8h-1.2l-.2-1.1c-.1-.1-.2-.2-.4-.2s-.3,0-.5,0c-.3,0-.6,0-.8.2s-.4.4-.5.7-.2.7-.2,1.1v.2c0,.4,0,.8.2,1.1s.3.5.5.7.4.2.7.2.6,0,.8-.3.3-.4.4-.7h1.4c0,.5-.2.8-.4,1.2s-.5.6-.8.8-.8.3-1.4.3Z"/>
      <path class="st4" d="M62.2,138.1v-1l.8-.2v-4.1l-.9-.2v-1h2.5v5.2l.8.2v1h-3.3ZM63,130.3v-1.4h1.7v1.4h-1.7Z"/>
      <path class="st4" d="M68.2,138.2c-.6,0-1.1-.2-1.5-.5s-.5-.8-.5-1.4.1-.7.3-1.1.5-.5,1-.7.9-.3,1.5-.3h.9v-.5c0-.3,0-.6-.3-.8s-.5-.3-.8-.3-.4,0-.5,0-.3.1-.4.2v.8h-1.3v-1.6c.3-.2.7-.4,1-.5s.8-.2,1.3-.2c.8,0,1.5.2,1.9.6s.7.9.7,1.6v2.7c0,0,0,.2,0,.3s0,.2,0,.2h.7v1.1h-2c0-.1,0-.2-.1-.4s0-.3,0-.4c-.2.3-.5.5-.7.6s-.6.2-1,.2ZM68.6,137c.3,0,.5,0,.8-.2s.4-.3.5-.5v-1h-.9c-.4,0-.7,0-.9.3s-.3.4-.3.7,0,.4.2.5.4.2.6.2Z"/>
      <path class="st4" d="M72.8,138.1v-1l.9-.2v-6.9l-.9-.2v-1h2.5v8l.9.2v1h-3.3Z"/>
      <path class="st4" d="M76.6,138.1v-1l.8-.2v-4.1l-.9-.2v-1h2.5v5.2l.8.2v1h-3.3ZM77.4,130.3v-1.4h1.7v1.4h-1.7Z"/>
      <path class="st4" d="M83.2,138.2c-.5,0-.9,0-1.3-.1s-.8-.2-1.2-.4v-1.7s1.1,0,1.1,0l.2.9c.2,0,.3.1.5.2s.4,0,.6,0c.4,0,.7,0,.9-.2s.2-.3.2-.5,0-.4-.3-.5-.5-.3-1-.4c-.8-.2-1.3-.4-1.7-.7s-.5-.7-.5-1.2,0-.7.3-1,.5-.5.8-.7.8-.3,1.4-.3.9,0,1.3.1.7.2,1,.4v1.7s-1.1,0-1.1,0l-.2-.8c-.1,0-.2-.1-.4-.2s-.3,0-.5,0c-.3,0-.6,0-.7.2s-.3.3-.3.5,0,.2,0,.3.2.2.3.3.4.2.7.2c.8.2,1.4.4,1.7.7s.5.7.5,1.2-.2,1-.6,1.4-1.1.5-1.9.5Z"/>
      <path class="st4" d="M89,138.2c-.6,0-1-.2-1.3-.5s-.5-.8-.5-1.5v-3.4h-.9v-1.1h.9v-1.5h1.6v1.5h1.2v1.1h-1.2v3.4c0,.3,0,.4.2.6s.3.2.4.2.2,0,.3,0,.2,0,.3,0l.2,1.1c-.2,0-.4,0-.6.1s-.4,0-.6,0Z"/>
      <path class="st4" d="M93,138.2c-.6,0-1.1-.2-1.5-.5s-.5-.8-.5-1.4.1-.7.3-1.1.5-.5,1-.7.9-.3,1.5-.3h.9v-.5c0-.3,0-.6-.3-.8s-.5-.3-.8-.3-.4,0-.5,0-.3.1-.4.2v.8h-1.3v-1.6c.3-.2.7-.4,1-.5s.8-.2,1.3-.2c.8,0,1.5.2,1.9.6s.7.9.7,1.6v2.7c0,0,0,.2,0,.3s0,.2,0,.2h.7v1.1h-2c0-.1,0-.2-.1-.4s0-.3,0-.4c-.2.3-.5.5-.7.6s-.6.2-1,.2ZM93.4,137c.3,0,.5,0,.8-.2s.4-.3.5-.5v-1h-.9c-.4,0-.7,0-.9.3s-.3.4-.3.7,0,.4.2.5.4.2.6.2Z"/>
      <path class="st4" d="M100.5,138.1v-1l.9-.2v-6.3l-.9-.2v-1h3.5v1l-1,.2v6.2h2.5v-1.3h1.3v2.5h-6.4Z"/>
      <path class="st4" d="M110.6,138.2c-.6,0-1.2-.1-1.6-.4s-.8-.7-1-1.1-.4-1-.4-1.7h0c0-.8.1-1.3.4-1.8s.6-.9,1-1.1,1-.4,1.6-.4,1.1.1,1.6.4.8.7,1,1.1.4,1,.4,1.7h0c0,.8-.1,1.3-.4,1.8s-.6.9-1,1.1-1,.4-1.6.4ZM110.6,137c.3,0,.6,0,.8-.3s.4-.4.4-.7.1-.7.1-1h0c0-.5,0-.9-.1-1.2s-.2-.5-.5-.7-.5-.3-.8-.3-.6,0-.8.3-.4.4-.4.7-.1.6-.1,1h0c0,.5,0,.9.1,1.2s.2.5.5.7.5.3.8.3Z"/>
      <path class="st4" d="M117.4,138.2c-.6,0-1.1-.1-1.6-.4s-.8-.6-1-1.1-.4-1-.4-1.7v-.2c0-.6.1-1.2.4-1.6s.6-.9,1-1.1,1-.4,1.5-.4,1,0,1.5.3.7.4,1,.6v1.8h-1.2l-.2-1.1c-.1-.1-.2-.2-.4-.2s-.3,0-.5,0c-.3,0-.6,0-.8.2s-.4.4-.5.7-.2.7-.2,1.1v.2c0,.4,0,.8.2,1.1s.3.5.5.7.4.2.7.2.6,0,.8-.3.3-.4.4-.7h1.4c0,.5-.2.8-.4,1.2s-.5.6-.8.8-.8.3-1.4.3Z"/>
      <path class="st4" d="M122.9,138.2c-.6,0-1.1-.2-1.5-.5s-.5-.8-.5-1.4.1-.7.3-1.1.5-.5,1-.7.9-.3,1.5-.3h.9v-.5c0-.3,0-.6-.3-.8s-.5-.3-.8-.3-.4,0-.5,0-.3.1-.4.2v.8h-1.3v-1.6c.3-.2.7-.4,1-.5s.8-.2,1.3-.2c.8,0,1.5.2,1.9.6s.7.9.7,1.6v2.7c0,0,0,.2,0,.3s0,.2,0,.2h.7v1.1h-2c0-.1,0-.2-.1-.4s0-.3,0-.4c-.2.3-.5.5-.7.6s-.6.2-1,.2ZM123.3,137c.3,0,.5,0,.8-.2s.4-.3.5-.5v-1h-.9c-.4,0-.7,0-.9.3s-.3.4-.3.7,0,.4.2.5.4.2.6.2Z"/>
      <path class="st4" d="M127.4,138.1v-1l.9-.2v-6.9l-.9-.2v-1h2.5v8l.9.2v1h-3.3Z"/>
    </g>
    <g>
      <path class="st6" d="M68.5,76.5c-1.6,13.7-2,26.6-1,40.4,10.7-1.4,20.8-.4,31.2-1.2,1.1,0,2.4-.3,3.1-1.2.8-.9.7-2.3.6-3.5-1.4-14.8-1.8-29.7-1.2-44.5,0-.4,0-.8-.3-1.1-.3-.2-.7-.2-1-.2-5.4.5-10.7.9-16.1,1.4-1,0-2.1.2-3,.6-.8.3-1.5.8-2.2,1.3-3.8,2.7-7.9,5-12.2,6.9"/>
      <path class="st6" d="M68.1,76.6c-1.6,13.4-1.9,26.9-1,40.4s.2,0,.2,0c8.7-1.1,17.4-.6,26.1-1s3.9-.1,5.8-.4,2.1-.4,2.8-1.1c1.1-1.1.8-2.8.7-4.2-.2-2.1-.4-4.3-.5-6.4-.6-8.9-.9-17.8-.9-26.7s0-4.3,0-6.4,0-2.1,0-3.2.3-1.9-.3-2.3-.8-.2-1.2-.2c-1.1,0-2.3.2-3.4.3-2.2.2-4.4.4-6.6.6s-4.8.3-7.2.6-2.8.7-4.1,1.6c-4,2.8-8.1,5.2-12.6,7.2s.2.1.4,0c4.2-1.8,8.2-4,11.9-6.7s3-1.8,4.9-2,2.7-.2,4.1-.4c2.6-.2,5.2-.4,7.8-.7s2.3-.3,3.4-.3,2-.1,2.1.9,0,1.4,0,2c0,2.6-.1,5.3-.2,7.9,0,5.2,0,10.4.2,15.6s.5,10.5.9,15.8.2,2.4.3,3.6.2,2.7-.8,3.5-3.2.8-4.6.9-3,.1-4.5.2c-5,.1-10,0-15,.2s-4.9.2-7.4.5-1.4.3-1.7.2c-.5-.3-.4-1.4-.4-1.9,0-1.4-.2-2.8-.2-4.1-.5-11.5,0-22.9,1.4-34.3s-.7,0-.7.2h0Z"/>
    </g>
    <path class="st10" d="M87.7,115.5c.5-13.3.4-26.7.9-40s-.7,0-.7.2c-.5,13.3-.4,26.7-.9,40s.7,0,.7-.2h0Z"/>
    <path class="st10" d="M81.4,76.1c-1.9,3.3-4.3,6.2-7,8.8h.7s0,0,0,0c.4,0,.6-.5,0-.5s-.8.2-.8.7.5.2.7,0c2.8-2.6,5.2-5.6,7.1-8.9s-.5-.3-.7,0h0Z"/>
    <path class="st22" d="M83.9,29.7c1.4,1.3,4.1,2.2,6,2.6.3,0,.7.2.8.5,0,.3,0,.6-.2.8-.3.5-.7,1.1-1,1.6-.2.4-.4.7-.7,1-.4.4-.9.6-1.4.8-1.7.5-3.6.2-5-.9-.1,0-.2-.2-.3-.3,0-.2,0-.3,0-.5.2-.9.7-1.8,1.2-2.6.5-.8,0-1.8.4-2.5"/>
    <path class="st15" d="M94.5,17.3c.3-.2.7,0,.9.3s.2.6.3,1c.3,2.9.6,5.8.6,8.7,0,1.3,0,2.6-.4,3.8-.2.6-.6,1.3-1.1,1.6-.4.2-.8.3-1.3.4-2.7.3-5.6-.3-7.9-1.8-.9-.6-2.4-1.6-2.2-2.6-.8-.2-.9-.6-1.4-1.3-.6-.7-.9-1.7-.7-2.5s.9-1.7,1.8-1.8,1.9.6,1.9,1.5"/>
    <path class="st22" d="M83.8,25.6s0,0,0,0h0s0,0,0,0h0s0,0-.1,0h0s0,0-.1,0h0s0,0-.1,0h0s0,0-.1,0h0s0,0-.1-.1h0s0,0,0-.2h0s0,0,0-.1h0s0,0,0,0h0c0,0,0,0,0,0h-.6c0,.1.1.2.2.2h0c0,0,.1,0,.2.2h0s0,0,0,0c0,0,0,.1.2.2s.2,0,.3,0,.2,0,.2-.1,0-.1,0-.2c0-.2-.3-.4-.5-.5s-.2,0-.3,0-.2,0-.3.2-.2.3-.2.4,0,.3,0,.4.1.3.3.4.3.1.4.2.4,0,.6-.1.2,0,.2-.2,0-.1,0-.2c-.1-.1-.3-.1-.5,0h0Z"/>
    <path class="st34" d="M94.2,21.6c0,1.7.4,3.3,1.3,4.7h0c-.4.2-.8.6-.9,1.1s.6,0,.7-.1c.2-.4.4-.8.8-1.1s.1,0,0-.1c-.9-1.4-1.4-3-1.3-4.7s-.7,0-.7.2h0Z"/>
    <path class="st34" d="M92.4,28.7c.8.6,1.8.8,2.8.5s.3-.2.3-.3-.3-.2-.4-.1-.1,0-.2,0c0,0,0,0,0,0,0,0-.1,0-.2,0s-.1,0-.1,0c-.2,0-.4,0-.5,0-.4,0-.7-.3-1.1-.5s-.9.2-.6.4h0Z"/>
    <path class="st15" d="M106.7,49.1c1.6,1.1,3.2,2.1,4.8,3.2-.5-4.2-1.1-8.4-1.6-12.6-.1-1.2-.3-2.3-.6-3.5-.6-2.6-1.8-4.9-2.6-7.4-.8-2.5-.9-6.4.2-8.8,1.7,2.3,3.7,2.5,6.2,4.7,1.4,1.2,2.5,2.1,3.5,3.7.8,1.2.9,7.4,1.2,8.8,1.8,8.5,2.7,17.2,2.8,26,0,.9,0,1.9-.6,2.7-1.1,1.5-3.4,1.2-5.2.6-4.3-1.4-13-5.3-16.9-7.5"/>
    <g>
      <path class="st30" d="M96.8,9.5c3.6-.7,7.3-1.3,11-1.6s1,0,1.5,0,.2,0,.4,0,.1,0,.2,0c.1,0,0,0,0,0l-.2-.3c-1.9,3.2-4.2,6-6.9,8.5s.3.5.5.5c.5,0,1-.2,1.3-.5,2.8-2.6,5.2-5.5,7.1-8.8s0-.3-.2-.3c-.7-.2-1.5-.2-2.3-.1-1.2,0-2.4.2-3.6.4-2.4.3-4.7.7-7,1.1s-1.1.2-1.6.3-1.1.2-1.2.6.6.3.8.3h0Z"/>
      <path class="st9" d="M97,8.4c1.7,2.3,3.4,4.6,5.1,6.9,0,.1.2.2.3.3.1,0,.2,0,.3-.2,2.6-2.3,5-4.9,7.1-7.6-1.2-.2-2.4,0-3.7,0-2.6.2-5.2.5-7.9.7"/>
      <path class="st30" d="M96.1,10c8.1,9.9,16.9,19.1,26.4,27.8s2.4-.3,1.9-.8c-9.4-8.6-18.2-17.9-26.4-27.8s-2.4.2-1.9.8h0Z"/>
    </g>
    <path class="st20" d="M90.5,34.4c2.6-.4,4.8,1.6,6.6,3.5,3.2,3.5,6.5,6.9,9.7,10.4.2.2.4.5.5.8,0,.3-.2.7-.4.9-1.3,1.9-2.6,3.8-3.9,5.7-1.1,1.6-2.2,3.3-3.6,4.7-4.8,4.7-12,5.9-18.8,5.9-1.7,0-3.4,0-4.9-.6-1.7-.6-3.9-3.3-5.6-2.9s-10.9,1.1-14.2,1.1c-.3-2.8.9-7,1.9-9.6,1.3-3.7,2.7-7.5,4.8-10.9s5.1-6.3,8.9-7.6c1.5-.5,3.3-.7,4.5.2.3.2,4.8-2.1,6.4-3.2,2,1.6,6,3,8.1,1.5"/>
    <path class="st14" d="M79.6,35.8c1.5,2.2,4.5,3.5,7.1,3.6s2.4,0,2.9-1.2.4-2.3.7-3.4-.7-.2-.7,0c-.2.9-.3,1.9-.5,2.8s-.3,1.1-.8,1.2-1.2.1-1.8,0c-2.3-.3-4.8-1.4-6.1-3.4s-.9,0-.7.3h0Z"/>
    <g>
      <path class="st14" d="M83.9,34.2c-.8.9-1.5,1.8-2.3,2.7s0,.2,0,.3.4,0,.5-.1c.8-.9,1.5-1.8,2.3-2.7s0-.2,0-.3-.4,0-.5.1h0Z"/>
      <path class="st14" d="M85.8,34.8c-.8,1.1-1.6,2.2-2.4,3.2s0,.3,0,.4.4,0,.5-.1c.8-1.1,1.6-2.2,2.4-3.2s0-.3,0-.4-.4,0-.5.1h0Z"/>
      <path class="st14" d="M88,35.3c-.7,1.2-1.3,2.4-2,3.5s.3,0,.3,0c.1,0,.4,0,.4-.2.7-1.2,1.3-2.4,2-3.5s-.3,0-.3,0c-.1,0-.4,0-.4.2h0Z"/>
    </g>
    <g>
      <path class="st7" d="M71.4,35.4c.9-.5,2.1-.6,3.1-.1,1.8.9,2.3,3.2,2.8,5.2.8,3.1,1.8,7.8,2.3,10.8,0,.2,0,.3,0,.5,0,.2-.3.2-.5.3-.7.1-2-1.7-2.6-1.8-.2,0-.3,0-.4-.2-.1-.1-.2-.4-.2-.6-.5-3.1-1.1-6.3-1.9-9.3-.5-1.9-1.2-3.8-2.6-5.2"/>
      <path class="st7" d="M71.6,35.5c1.5-.8,3.1-.3,4,1.1s1,2.1,1.3,3.3c.6,2.4,1.2,4.8,1.7,7.2s.5,2.4.7,3.6.2.6,0,.8-.3.1-.5,0c-.4-.3-.8-.7-1.2-1.1s-.5-.3-.7-.5c-.7-.5-.7-1.5-.8-2.3-.3-1.5-.5-3-.9-4.5-.7-2.9-1.3-6.3-3.4-8.5s-.9,0-.7.3c1.2,1.2,1.8,2.8,2.3,4.4s1,3.6,1.3,5.4.4,1.8.5,2.7,0,1.8.4,2.4.8.4,1.2.7.8.8,1.2,1.1,1.5.7,1.9,0,0-1.2-.2-1.7c-.1-.8-.3-1.5-.4-2.2-.6-3-1.2-5.9-2-8.8s-.9-2.7-2-3.6-2.8-.9-4.1-.2,0,.6.3.4h0Z"/>
    </g>
    <g>
      <path class="st7" d="M90.4,34.2c2.3,2.5,4,10.4,6.8,12.3.4-.4.3-1.1.2-1.7-.4-1.8-2.2-6.5-2.9-8.2-.5-1.1-1.2-2.4-2.4-2.6-.5-.1-1.1,0-1.6.2"/>
      <path class="st7" d="M90.1,34.3c.7.8,1.2,1.8,1.7,2.8s1,2.4,1.6,3.7,1,2.4,1.7,3.5,1.1,1.7,1.9,2.3.5,0,.7-.1c.7-1,0-2.6-.4-3.6s-1-2.8-1.5-4.2-.9-2.5-1.5-3.5-2.3-1.7-3.8-1.1,0,.4.3.3c1.9-.7,2.9.9,3.5,2.4s.8,1.9,1.1,2.9.8,2.3,1.2,3.4,1.1,2.6.4,3.4h.7c-.9-.8-1.5-1.7-2-2.6s-1.1-2.4-1.6-3.6c-.9-2.1-1.6-4.5-3.2-6.3s-.8,0-.7.3h0Z"/>
    </g>
    <g class="st37">
      <path class="st20" d="M58.1,36.4c1.8,0,4.3.2,6.1.3.7,0,1.3,0,2,.1,1.1-2.3.4-5.2-1.5-6.9-.7-.6-1.7-1-2.5-.6-.3.2-.6.4-.8.7-1.5,1.9-2.6,4.1-3.3,6.4"/>
      <path class="st20" d="M57.9,36.5c1.3,0,2.6.1,3.9.2s2.7,0,4.1.2.5,0,.6-.2c1-2.1.5-4.8-1.1-6.5s-1.9-1.5-3.1-1.1-1,.7-1.4,1.2-.8,1.1-1.2,1.7c-.9,1.4-1.5,2.9-2,4.5s.7,0,.7-.1c.7-2.3,1.8-4.7,3.4-6.5s.5-.5.9-.5.6.1.8.3c.5.3.9.6,1.2,1,.7.8,1.1,1.8,1.3,2.8s0,2.3-.4,3.4l.6-.2c-1.4-.1-2.7-.1-4.1-.2s-2.6-.1-3.9-.2-.4,0-.5.1-.1.2,0,.2h0Z"/>
    </g>
    <g class="st37">
      <path class="st20" d="M69.2,26.2c1.9,3.3,2.4,7.2,1.5,10.9s.7.2.7,0c1-3.8.4-7.8-1.5-11.1s-.8,0-.7.3h0Z"/>
    </g>
    <g class="st37">
      <path class="st20" d="M73.7,25.4c.8,1.7,1.1,3.7.9,5.6s.7.2.7,0c.2-1.9-.1-3.9-.9-5.7s-.8,0-.7.2h0Z"/>
    </g>
    <g>
      <path class="st30" d="M63.7,116.8c-4.3-8.8-8.5-17.9-8.8-27.7,0-.6,0-1.2.4-1.6.6-.7,1.8-.4,2.7,0,5.5,2.8,9.7,7.6,12.9,12.9,3.1,5.3,5.2,11.1,7.3,16.9-.8.6-14.4-.6-14.4-.6Z"/>
      <path class="st30" d="M64.4,116.6c-4-8.1-7.9-16.5-8.7-25.7,0-.9-.5-2.6.3-3.2s2.3.6,3,1c1.8,1.1,3.4,2.4,4.9,3.9,3.1,3,5.6,6.6,7.6,10.4s4.2,9.6,6,14.5l.3-.4c.3-.2.2,0,0,0s-.4,0-.6,0c-.6,0-1.2,0-1.8,0-1.6,0-3.2-.1-4.7-.2s-4.3-.3-6.4-.5-1.6.6-.8.7c2.5.2,5,.4,7.5.5s3.4.2,5.1.2,2,.1,2.7-.3.3-.2.3-.4c-3.3-9.3-6.9-19-14.4-25.8s-3.4-2.7-5.3-3.8-3-1.4-4.3-.3-.6,1.2-.6,2c0,1.3.2,2.7.3,4,.3,2.5.9,5,1.7,7.4,1.7,5.6,4.2,11,6.8,16.2s1.5,0,1.4-.4Z"/>
    </g>
    <g>
      <path class="st30" d="M98.4,97.8c1.9-2.8,3.9-5.6,6.3-7.7.3-.3.6-.5,1-.5.7.1.8,1.3.8,2.2-.2,6.8-.5,13.5-.7,20.3,0,1,0,2.2-.6,3-.4.7-1.1,1-1.8,1.2-3.3,1.2-16.9.3-17.7.6,0,0,7.8-12.1,12.6-19Z"/>
      <path class="st30" d="M98.9,97.8c1.3-1.9,2.6-3.7,4.1-5.4s2-2.5,2.5-2.3.4,2.4.3,2.9c-.2,5.2-.3,10.4-.5,15.6s0,2.5-.1,3.7-.2,3-1.7,3.7-2.1.5-3.1.5c-2.9.2-5.7.1-8.6,0s-2.7,0-4.1,0-1.4,0-2.1.1l.6.2c4.1-6.4,8.3-12.8,12.6-19s-.9-.2-1.1,0c-4.3,6.3-8.5,12.6-12.6,19s.5.3.6.2c.4-.1,1.7,0,2.3,0,1.6,0,3.1,0,4.7,0,3.1,0,6.3.2,9.3-.3s2.8-.6,3.6-1.8.6-1.8.7-2.7c0-1.5.1-2.9.1-4.4,0-3,.2-5.9.3-8.9s0-3,.1-4.5.3-2.8,0-4c-.5-2.2-2.5-.9-3.5.1-2.2,2.1-4,4.7-5.7,7.2s.9.2,1.1,0Z"/>
    </g>
    <g class="st23">
      <g>
        <g>
          <g>
            <path class="st4" d="M135.2,29.4c2.1,4.8,3.5,9.8,4.7,14.9,1,4.5,1.8,9,3,13.4s3.1,8.7,6.2,12.2c4.3,4.9,10.6,7.6,16.7,9.9.1-3.2.3-6.4.4-9.6,0-2,.2-4.1-.3-6.1-.5-2.1-1.5-3.9-2.5-5.8-2.7-5-5.3-9.9-8-14.9-1-1.8-2-3.7-3.1-5.5-1.4-2.2-2.9-4.3-4.4-6.4-5.2-7.2-10.5-14.4-17-20.5,0,0,1.2,11.4,4.2,18.4Z"/>
            <path class="st4" d="M134.5,29.6c1.8,4.1,3.1,8.4,4.2,12.8s1.8,8.8,2.9,13.2,2.2,7.5,4.2,10.9,4.6,6,7.8,8.1,7.7,4.1,11.8,5.6,1.1,0,1.1-.5c.1-2.7.2-5.5.3-8.2s.3-5.2-.2-7.7-1.7-4.5-2.9-6.6-2.7-5-4-7.5c-2.6-4.8-4.9-9.7-8-14.2s-6-8.4-9.1-12.4-7.1-8.7-11.2-12.6-1.3,0-1.3.6c.6,6.2,1.8,12.7,4.2,18.4s1.7.3,1.4-.4c-2.4-5.7-3.6-12.2-4.2-18.4l-1.3.6c7.2,6.8,13.1,14.9,18.8,23s5.4,8.8,7.9,13.4,2.6,4.8,3.9,7.2,2.6,4.6,3.6,7,1,5.6.9,8.6-.3,6.1-.4,9.1l1.1-.5c-7.1-2.7-14.3-5.9-18.6-12.5s-5.4-15.6-7.3-23.5-2.5-9.4-4.5-14-1.7-.3-1.4.4Z"/>
          </g>
          <g>
            <path class="st30" d="M130.7,11.2c5.4,9.1,10.6,18.4,15.5,27.7,5,9.4,9.9,18.9,14.2,28.7,1.7,3.8,3.3,7.6,4.4,11.6s.8.1.7-.2c-2.3-8.2-6.3-16-10-23.6-4.9-10-10.2-19.9-15.6-29.7s-5.6-10-8.6-14.9-.8,0-.7.3h0Z"/>
            <g>
              <path class="st4" d="M142.8,31.6c.2-1.9,0-4.8,0-6.7"/>
              <path class="st30" d="M143.2,31.5c.2-2.2,0-4.5,0-6.7s-.7,0-.7.2c0,2.2.2,4.5,0,6.7s.7,0,.7-.2h0Z"/>
            </g>
            <g>
              <path class="st4" d="M144.7,34.6c.2-2.2.3-4.4.5-6.6"/>
              <path class="st30" d="M145,34.5c.2-2.2.3-4.4.5-6.6s-.7,0-.7.2c-.2,2.2-.3,4.4-.5,6.6s.7,0,.7-.2h0Z"/>
            </g>
            <g>
              <path class="st4" d="M132.4,20.8c1.6.7,4.3,1.8,5.8,2.7"/>
              <path class="st30" d="M132.1,21c1.9.8,4,1.6,5.8,2.7s.9-.2.6-.4c-1.8-1.1-3.9-1.8-5.8-2.7s-.4,0-.5,0-.2.3,0,.3h0Z"/>
            </g>
            <g>
              <path class="st4" d="M133.2,23.4c1.7.7,5.8,3,7.2,4.1"/>
              <path class="st30" d="M132.9,23.6c1.3.5,2.5,1.2,3.7,1.9s2.4,1.4,3.5,2.2.9-.1.6-.4c-1.1-.8-2.3-1.5-3.5-2.2s-2.4-1.4-3.7-1.9-.4,0-.5,0-.2.2,0,.3h0Z"/>
            </g>
            <g>
              <path class="st4" d="M140.9,46.6c2.6,1.5,11.4,5.5,12.9,6.3"/>
              <path class="st30" d="M140.6,46.8c2.2,1.3,4.6,2.3,6.9,3.4s4.1,1.8,6,2.9.9-.2.6-.4c-1.9-1.1-4-2-6-2.9s-4.7-2.1-6.9-3.4-.9.2-.6.4h0Z"/>
            </g>
            <g>
              <path class="st4" d="M140.9,48.9c3.9,1.6,10.9,5.4,14.4,7.4"/>
              <path class="st30" d="M140.6,49.1c4.9,2.1,9.7,4.7,14.4,7.4s.9-.2.6-.3c-4.6-2.7-9.4-5.3-14.4-7.4s-.9.2-.6.3h0Z"/>
            </g>
            <g>
              <path class="st4" d="M147.8,66.9c4.6.9,10.7,2,14,3.3,0,0,.1,0,.2,0"/>
              <path class="st30" d="M147.7,67.1c2.7.5,5.4,1,8.1,1.6s2.6.6,3.8,1,1,.3,1.5.5.7.3,1.1.2,0-.6-.3-.4c.2,0-.4-.2-.4-.3-.3,0-.5-.2-.8-.3-.5-.2-1-.3-1.5-.5-1.2-.3-2.4-.6-3.6-.9-2.5-.6-5.1-1-7.6-1.5s-.7.5-.2.5h0Z"/>
            </g>
          </g>
        </g>
        <g>
          <path class="st30" d="M145.8,81c-1.3-.8-2.6-1.7-3.7-2.8-1.5-1.4-2.6-3.2-3.6-5-2.1-3.4-4.2-6.8-6.3-10.2-2.5-4-5-8.2-8.7-11.1,8.4-.5,16.3,3.8,22.6,9.4,8.1,7.2,14.5,17.2,14.4,28,0,0-10.8-5.8-14.7-8.3Z"/>
          <path class="st30" d="M146.5,80.8c-2.8-1.8-4.8-3.8-6.6-6.6s-3.5-5.7-5.3-8.6c-3-4.9-5.9-10.2-10.5-14l-.9.6c7.8-.4,15.1,3.4,21,8.2,5.6,4.6,10.4,10.5,13.2,17.2s2.4,7.8,2.4,11.8l1.3-.4c-4.9-2.7-9.9-5.3-14.7-8.3s-1.5.3-1.3.5c4.8,3,9.8,5.6,14.7,8.3s1.3,0,1.3-.4c0-7.5-3-14.5-7.4-20.5s-10.7-11.5-17.7-14.6-8.1-2.7-12.4-2.4-1.2.3-.9.6c4.8,3.9,7.7,9.5,10.9,14.7s3.4,5.7,5.2,8.5,3.7,4.4,6.2,6,1.5-.3,1.3-.5Z"/>
        </g>
        <g>
          <path class="st4" d="M123.5,52.1c12.3,6.2,23.6,15.4,31.2,26.9s3.8,6.4,5.2,9.8.8,0,.7-.2c-5.1-12.7-15.1-23.1-26.2-30.8s-6.7-4.3-10.3-6.1-.8.2-.7.3h0Z"/>
          <path class="st4" d="M155.3,78.8c-2.2-1.4-4.8-2.4-7.3-3.1s-5.1-1.1-7.7-.9-.6.5,0,.4c2.5-.2,5.1.3,7.6.9s4.8,1.6,6.9,3,.9-.2.6-.4h0Z"/>
          <path class="st4" d="M153,75.5c-2-1.1-4.3-1.6-6.6-1.9s-4.7-.6-7-.7-.7.5-.2.6c2.3,0,4.6.3,6.8.6s4.6.8,6.6,1.9.8-.3.4-.5h0Z"/>
          <path class="st4" d="M139.1,61.2c-.2-1.8-.2-3.5-.2-5.3s-.7,0-.7.2c0,1.8,0,3.5.2,5.3s.8,0,.7-.2h0Z"/>
          <path class="st4" d="M136.9,59.4c-.1-1.3,0-2.6,0-3.9s-.7-.3-.7,0c0,1.4,0,2.7,0,4.1s.3.2.4.2.3-.2.3-.3h0Z"/>
        </g>
      </g>
    </g>
    <path class="st22" d="M111.4,52.4c.3,2.7.7,5.4,1.5,8s.8.1.7-.2c-.7-2.6-1.2-5.3-1.5-8s-.8-.2-.7.2h0Z"/>
    <g>
      <path class="st43" d="M94.9,16.3c-.6,3.8-5.7,7.2-9.6,8.2,0-1-.9-1.3-1.9-1.3s-1.8.9-2,1.8,0,1.2.5,2c.6,1,1.7,1.8,1.8,3,0,.6-.1,1.3-.4,1.9-.5,1.2-1.1,2.4-2.2,3.2-1.6,1.1-4,.7-5.3-.7s-1.4-3.8-.4-5.4c1-1.7,3.1-2.6,5-2.3-.3-1.1.4-2.4,1.3-3.1s2.1-1.1,3.2-1.6c.9-.5,1.7-1.1,2.5-1.7,2.2-1.6,4.3-3.3,6.5-4.9h1.7l-.7,1Z"/>
      <path class="st43" d="M94.6,16.4c-.7,4.1-5.5,7-9.3,8h.4c0-2-3.1-1.4-4-.4-2.3,2.5,1.8,4.2,1.7,6.7s-1.1,3.3-2.2,4.2c-1.6,1.3-4.1.7-5.2-.9-2.3-3.1.4-7.5,4.2-7.2s.7,0,.7-.2c-.7-3.2,3.8-4.1,5.7-5.4s5.2-3.9,7.7-5.8l-.6.2c.4,0,1.2-.2,1.5,0s0-.1,0,0-.1.2-.2.3c-.2.2-.3.5-.4.7s.6,0,.7-.1l.7-1c0,0,0,0-.1,0-.7,0-1.5-.2-2.2.1s-1.7,1.2-2.4,1.8l-2.9,2.2c-1,.7-2,1.5-3,2.2s-1.8.9-2.7,1.3c-1.5.7-2.9,2-2.5,3.8l.7-.2c-1.9-.2-4,.5-5.2,1.9s-1.5,4.7.3,6.3,3.7,1.4,5.4.5,3.6-4.1,2.6-6.1-2-2.1-2.1-3.4.3-1.6.9-2c.9-.6,2.4-.3,2.4.9s.4,0,.4,0c4-1,9.2-3.9,10-8.4s-.7,0-.7.2Z"/>
    </g>
    <path class="st39" d="M95.4,17.6c1.1-1.1,2.7-2.7,3.9-3.6.5-.4,1.1-.8,1.5-1.3,0,0,.1-.1.1-.2,0-.2-.3-.2-.5-.1-1.9.9-3.7,1.8-5.6,2.8,0,0-.1,0-.2.2,0,0,0,.2,0,.2.7,0,.2,1.8.2,1.8l.4.3Z"/>
    <path class="st42" d="M100.1,12.5c-2.5.1-5,.3-7.4.4-.3,0-.7,0-1,0-.3,0-.6-.2-.9-.4-1.2-.6-2.3-1.2-3.5-1.8-.2,0-.3-.2-.5-.2-.3,0-.6.3-.8.5-3.1,3.7-5.9,7.5-8.5,11.5-.1.2-.2.4-.2.6,0,.2,0,.4.2.5.4,1,.9,1.9,1.3,2.9l2.5-.2s-.2-.9,0-1.5c.9-2.5,2.7-1.8,2.7-1.8l16.1-10.6Z"/>
    <path class="st4" d="M79.2,25.9c1.6-2.5,3.4-5,5.3-7.2s4-4.3,6.6-5.7-.2-.3-.4-.2c-2.6,1.4-4.7,3.3-6.6,5.5s-3.9,4.9-5.5,7.6.5.2.7,0h0Z"/>
    <path class="st4" d="M78.1,22.7c0,.1,0,.3.1.4s.3.2.5.2.3,0,.4-.2,0,0,0-.1c0,0,0-.1,0-.2,0-.1,0-.3,0-.4s-.1-.3-.3-.4-.2,0-.2,0-.2,0-.3,0-.1.1-.2.2,0,.1,0,.2c0,.1,0,.3.1.4s.1,0,.2.1.2,0,.3,0,.2,0,.2-.2,0-.1,0-.2,0,0,0,0h0s0,0,0,0h0s0,0,0,0h0s0,0,0,0h0s0,0,0,0h0c0,0,0,0,0,0h-.5c0,0,0,0,0,0h0s0,0,.1.1h0s0,0,0,.2h0s0,0,0,.1h0s0,0,0,0h0s0,0,0,0l.4-.2s0,0,0,0h0s0,0,0,0h0s0,0,0,0h0s0,0,0,0h0s0,0,0,0h0s0,0,0,0c0,0,0-.1,0-.2s-.2,0-.2,0c-.2,0-.4.1-.4.3h0Z"/>
    <path class="st22" d="M110.7,20.9c0-.2-.4,0-.5.1-1.2,1.8-1.5,4.2-.7,6.2,0,.1.1.3.3.3.2,0,.3-.1.5-.2,1-1.2,1.4-2,1.8-3.5-.2,2.2-.9,4.2,0,6.3,0,.2.2.3.3.4.2,0,.4-.1.5-.3,1.3-1.5,2-3.5,2.2-5.5-.4,1.5-.8,3-1.1,4.5-.2,1-.4,2.2.3,2.8.6.3,1.7-2.9,2-4.5-.4,1.7-.8,3.4-1,5.2,0,.3,0,.6,0,.9s.5.5.8.4c.2,0,.3-.2.4-.4.6-1,1-2.1,1.2-3.3.1-.7.1-1.5-.1-2.2-.2-.6-.6-1.1-.9-1.6-1.3-1.7-2.9-3.2-4.6-4.5"/>
    <g>
      <path class="st12" d="M71.9,48.1l-.2-2c5.3,2.8,10.7,5.5,16,8.3"/>
      <path class="st12" d="M73.4,47.7l-.2-2-2.8.9c5.3,2.8,10.7,5.5,16,8.3s1.4,0,1.9-.2,1.3-.6.9-.8c-5.3-2.8-10.7-5.5-16-8.3s-2.9.1-2.8.9l.2,2c0,.5,3,0,2.9-.8h0Z"/>
    </g>
    <g>
      <path class="st12" d="M74.7,47.4c0-.7,0-1.1,0-1.8,5.9,2.5,10.4,5.9,15.8,9.3"/>
      <path class="st12" d="M76.2,47c0-.5,0-1.1,0-1.6l-2.6.9c5.7,2.4,10.7,6,15.8,9.3s3.5-.7,2.3-1.4c-5.2-3.3-10.2-6.9-15.8-9.3s-1.1-.1-1.5,0-1.1.4-1.1.8c0,.7,0,1.4,0,2.1s2.9.3,2.9-.8h0Z"/>
    </g>
    <g>
      <path class="st12" d="M90.5,54.9c.6-1.4,1.4-2.7,2.4-3.9,1.5-1.8,3.3-3.3,4.9-5.1-1.9,2.6-3.7,5.2-5.6,7.9"/>
      <path class="st12" d="M91.8,55c.7-1.7,1.7-3.3,3-4.6s2.8-2.6,4-4.1l-2.6-.4c-1.9,2.6-3.7,5.2-5.6,7.9s.4,1,.8,1c.7,0,1.5-.2,1.9-.8,1.9-2.6,3.7-5.2,5.6-7.9s-.2-.9-.7-1-1.5,0-1.9.6c-1.3,1.5-2.8,2.8-4.1,4.2s-2.5,3.1-3.3,5,2.3,1.2,2.7.2h0Z"/>
    </g>
    <g>
      <path class="st12" d="M93.9,51.8c1.7-2.5,3.9-4.6,6.4-6.3-1,1.6-2.1,3.3-3.1,4.9"/>
      <path class="st12" d="M95.2,51.8c.2-.3.4-.6.6-.9s.2-.3.3-.4.2-.3,0-.1c0,0,0-.1.1-.2.5-.6,1-1.1,1.5-1.6s1.1-1,1.6-1.4.1-.1.2-.2c.2-.2,0,0,0,0s.3-.2.4-.3c.3-.2.6-.4.9-.7l-2.3-.6c-1,1.6-2.1,3.3-3.1,4.9s.3.9.8,1,1.5-.2,1.9-.8c1-1.6,2.1-3.3,3.1-4.9s0-.8-.5-.9-1.3,0-1.8.3c-2.7,1.8-5,4-6.8,6.7s.3.9.8,1c.7,0,1.5-.2,1.9-.8h0Z"/>
    </g>
    <g class="st26">
      <g>
        <g>
          <path class="st32" d="M-16.7,68.7c-2.2,2.5-3.1,5.9-3.1,9.3s.9,6.6,1.8,9.8c3.2,1.3,29.4,7.5,38.7,8.7,8.2,1.1,15.3,1.4,22.6-2.5,1.2-.6,2.4-1.5,2.5-2.8,0-.5-1.1-10.9-2.6-15.5-.5-1.7-1.1-3.5-2.4-4.7-1.6-1.4-4.1-1.7-6.3-1.8-4.4-.2-8.9,0-13.3-.2-5.3-.3-38-.1-38-.1Z"/>
          <path class="st32" d="M-17.3,68.8c-2.6,3-3.4,7-3.1,10.8s.7,4.7,1.4,7,.2,1.2.6,1.5.5.2.7.2c4.2,1.3,8.5,2.3,12.8,3.3s11.7,2.7,17.6,3.8,12.1,2.2,18.2,2,7.6-.9,11.1-2.5,3.2-1.4,4.1-2.7.5-1.4.4-2.3c-.3-2.7-.6-5.3-1.1-8s-1-6.3-2.3-9.2-5.3-4-8.8-4.1-8.6,0-13-.2-7.5-.1-11.3-.1c-8.6,0-17.3,0-25.9,0s-.4,0-.5,0c-.4,0-1.5.7-.6.6,6.9,0,13.9,0,20.8,0s8.9,0,13.3,0,2.8,0,4.2.1c4.5.2,9,0,13.5.2s3.9.4,5.3,1.7,1.9,3.1,2.5,4.9c.8,2.7,1.2,5.5,1.6,8.3s.7,4.4.8,6.6-1.3,2.5-2.6,3.1c-1.9,1-3.9,1.7-6,2.2-6.5,1.4-13.4.4-19.8-.8s-10.9-2.2-16.2-3.4-9.7-2.2-14.5-3.5-1.4-.4-2.1-.6-.5-.1-.7-.2c-.5-.3-.4-.3-.6-1-1-4.2-2.2-8.5-1.1-12.8s1.3-3.7,2.6-5.2-1.1-.2-1.3,0Z"/>
        </g>
        <g>
          <path class="st34" d="M18.8,91.4c-1,.3-1.8,1.1-2.2,2s-.5,2-.4,3c.2,1.3.8,2.7,1.8,3.5s2.5,1.2,3.8.8c.4-.2.8-.4,1.1-.8.3-.4.3-.9.4-1.3.2-1.6.2-3.3-.5-4.7-.9-1.7-2.1-2.6-4-2.5"/>
          <path class="st34" d="M18.7,91c-2.1.7-3.3,2.5-3.3,4.6s.8,3.9,2.5,5,1.9.8,2.9.7,2.2-.5,2.7-1.3.5-2.1.6-3.1-.1-2.1-.6-3.1c-.9-1.8-2.4-2.9-4.5-2.9s-.8,0-.9.4.1.4.4.4c1.4,0,2.4.6,3.2,1.7s1.1,3.2.9,4.9-.2,1.7-1,2-1.5,0-2.2-.3c-1.4-.7-2.3-2.3-2.5-3.8s.1-4.1,2-4.7.7-.2.6-.6-.6-.2-.8-.2h0Z"/>
        </g>
        <g>
          <path class="st3" d="M20.1,93.7c-1.1.2-2,1.3-2.1,2.4,0,1.1.6,2.3,1.7,2.7.3.1.7.2,1,0,.1,0,.2-.2.3-.3.9-1.3.9-3.4-.2-4.5l-.7-.3Z"/>
          <path class="st3" d="M20,93.4c-1.2.3-2.2,1.1-2.6,2.3s0,2.2.8,3,1,.7,1.6.8,1.5-.3,1.9-1,.8-2,.6-3.1-.4-1.1-.7-1.5-.6-.3-.9-.4-.7,0-1,.1-.4.5-.1.6.4.2.6.2,0,0,0,0c0,0,.1.2.2.2.1.2.2.3.3.5.3.8.3,1.7,0,2.4s-.1.3-.2.5-.3.5-.3.5h0c0,0,0,0,.1,0,0,0,.2,0,0,0s-.2,0-.2,0c-.2,0-.4-.2-.5-.3-.7-.5-1.1-1.4-1-2.2s.2-.9.5-1.2.3-.3.5-.4.3-.1.5-.2.7-.3.6-.6-.6-.2-.8-.2Z"/>
        </g>
        <path class="st8" d="M19.1,96.1c0,0-.1.1-.1.2s0,.2,0,.3,0,.1,0,.2,0,0,0,.1,0,0,0,0,0,0,0,0c.1,0,.3,0,.4,0,.3,0,.5,0,.8-.2s.2-.1.3-.2,0-.1.1-.2,0-.1.1-.2,0-.2,0-.3-.1-.2-.2-.2-.2,0-.3,0-.1,0-.2,0c-.1,0-.3,0-.4,0,0,0-.2,0-.3,0,0,0-.1,0-.2.1,0,0,0,0-.1.1,0,0,0,0,0,.1h0c0,0,.1.1.2.1.2,0,.4,0,.5,0h0c0,0-.1,0-.2,0,0,0,0,0,0,0h-.2s0,0,0,0h-.2s0,0,0,0h-.1s0,0,0,0h0c0,0,0,0,.1,0h0c0,0,0,.1,0,.2h0s0,.1-.1.2h0s0,0,0,0h0c0,0,0,0,0,0h.1c0,0,0,0,0,0h.2c0,0,0,0,0,0h.2c0,0,0,0,0,0h.2s0,0,0,0h.2s0,0,0,0h.2s0,0,0,0h.1s0,0,0,0h0s0,0,0,0h0s0,0,0-.2,0-.1,0-.2h0s0-.1,0-.2h0c0,0,0,0,0,0,0,0,0,0,0-.1,0,0,0,0,0,0,0,0,0,0-.1,0,0,0-.1,0-.2,0-.2,0-.4,0-.6.1h-.2c0,.1-.2.2-.2.2h0Z"/>
        <g>
          <path class="st32" d="M37.3,69.7c1.3,0,3.8-.1,5.1,0s4.4,1.5,4.8,3.9c.2,1,.1,2,.1,3,0,.3,0,.5-.2.7-.3.3-.9,0-1.1-.3s0-.8,0-1.3c.1-1.8-1.1-3.6-2.8-4.3-.7-.3-1.5-.4-2.3-.5-.9-.1-1.7-.2-2.6-.3"/>
          <path class="st32" d="M37.2,70.3c1.6,0,3.3-.2,5,0s2.5.9,3.4,1.8.8,1.2,1,1.9,0,1.2.1,1.7,0,.6,0,.9,0,.2,0,.3c0,0,0,.1,0,.2.3,0,.4,0,.3-.2,0,0-.1-.2-.1-.2,0-.1,0-.2,0-.3,0-.2,0-.5,0-.7,0-.5,0-.9-.1-1.4-.2-.8-.7-1.6-1.3-2.2-1.8-1.7-4.5-1.7-6.8-1.9s-.8.1-.9.5.1.6.5.6c1.3.1,2.6.2,3.9.5s2,.8,2.7,1.7.7,1.8.7,2.9,0,1,.4,1.4.9.5,1.4.3c1.3-.4,1-1.9,1-2.9s-.1-2.1-.7-3c-.9-1.4-2.5-2.3-4-2.7s-1.8-.2-2.7-.2-2.2,0-3.4,0-.8.3-.8.6.4.5.7.5h0Z"/>
        </g>
        <g>
          <path class="st3" d="M27.7,70.3c1.9,2.2,2,4.7,2.7,7.5.6,2.8.3,6,.5,8.9,4.5-.3,8.9-.9,13.3-1.7.3,0,.6-.1.8-.4.1-.2,0-.4,0-.7-.6-2.5-1.1-5-1.8-7.5-.2-.9-.5-1.8-.9-2.6-1.3-2.6-3.1-3-5.9-3.5-2.9-.5-5.7-.4-8.5,0"/>
          <path class="st3" d="M27.1,70.6c1.7,2.1,2.1,4.8,2.6,7.4s.3,5.9.5,8.9.5.2.6.2c3.3-.2,6.6-.6,9.8-1.1s1.5-.2,2.3-.4,1.4-.2,2-.4c1.3-.6.6-2,.4-3.1-.4-1.6-.7-3.2-1.1-4.7s-.7-2.9-1.5-4.2-2.7-2.6-4.6-3c-3.4-.7-6.8-.7-10.2-.2s-1.2.9-.2.8c2.8-.4,5.6-.4,8.5,0s3.5.7,4.7,2.2,2,5,2.6,7.5.3,1.3.4,2,.5,1.4.4,2,0,.2-.2.3-.4,0-.5,0c-.3,0-.7.1-1,.2-.7.1-1.4.2-2.1.3-3.1.5-6.3.8-9.5,1l.6.2c-.1-3.1.1-6.1-.5-9.2s-.9-5.2-2.6-7.3-1.6.1-1.3.5h0Z"/>
        </g>
        <g class="st36">
          <path class="st8" d="M35.6,72.1c-1.2,3-2.2,6.1-2.9,9.3s.4.5.7.5c1.1.1,2.3-.1,3.4-.5s.9-.4,1.4-.6.3-.2.4-.2c.3-.1.3,0,0,0-1.6,0-.9,0-.9.7s0,.9-.2,1.3c-.2.9-.4,1.9-.6,2.8s1.3.5,1.7.4c.5-.1,1.1-.3,1.6-.5s.8-.4.8-.7c.3-1,.5-2.1.7-3.2s.4-2-.7-2.4-2.7,0-3.9.5-1,.4-1.5.7-.4.1-.5.3c.2-.1.4-.2.7-.2.5,0,.5,0,.2,0l.7.5c.7-3.2,1.7-6.3,2.9-9.3s-1.4-.5-1.7-.4c-.5.1-1.1.3-1.6.5s-.7.3-.8.7h0Z"/>
        </g>
        <path class="st41" d="M-19.3,84.1c9.7,1.1,19.5,2.4,29.2,3.6s10.1,1.3,15.1,1.9,5.5.8,8.4.5,2.7-.4,4.1-.5-.4,0-.3,0c.3,0,.6,0,.9.3.5.3.6.8.7,1.4s0,1.6.7,1.8,2.1-.5,2.8-.7,2.2-.5,2.9-1.2.4-1.3,0-2.1-.3-.5.2-.8l.7-.3c.8-.4-.5-.3-.8-.2-1,.4-1.9.6-1.5,1.8s.4.7.3,1c0,.9-1.3,1.1-2,1.3s-1.6.7-1.8.6-.2-1-.3-1.2c-.2-1.4-.9-2.2-2.4-2.1s-2,.3-2.9.4c-3,.3-5.6,0-8.6-.4-10.5-1.3-21.1-2.7-31.6-4s-8.6-1.1-12.9-1.6-.7,0-1,.2-.5.3-.2.3h0Z"/>
        <g>
          <g>
            <path class="st29" d="M33,91.8c-.2.3-.3.6-.2,1,0,.3.4.5.6.5.2,0,.5,0,.6-.3,0-.1.1-.3.1-.5,0-.2,0-.5-.2-.6-.1-.1-.3-.2-.4-.2-.2,0-.4,0-.4.1"/>
            <path class="st29" d="M32.5,91.9c-.2.3-.3.7-.2,1.1s.2.3.3.4.4.2.7.2c.3,0,.7-.1,1-.3s.3-.3.4-.5c0-.3,0-.8-.2-1.1s-.5-.2-.7-.2-.5,0-.7.2-.3.2-.4.3,0,.1,0,.1c0,0,.2,0,.3,0s.3,0,.4-.1.2,0,.2-.2,0,0,0,0,0,0,0,0c0,0-.2.1-.3.1,0,0-.2,0,0,0,0,0-.1,0,0,0,0,0,0,0,0,0,0,0,0,0,0,0s0,0,0,0c0,0,0,0,0,0s0,0,.1,0,0,0,0,0c0,0,0,0,0,0,0,0,.1,0,.2.1h0c.1.1.1.4.1.6h0s0,0,0,.2,0,0,0,0,0,0,0,0c0,0,0,0,0,0,0,0,0,0,0,0,0,0,0,0,0,0,0,0,0,0,0,0s0,0,0,0c0,0,.1,0,0,0s.1,0,0,0,.2,0,0,0c0,0,.1,0,0,0s0,0,0,0c0,0,0,0,0,0,0,0,0,0,0,0,0,0,0,0,0,0s0,0,0,0c0,0,0,0,0,0-.1,0-.2-.1-.3-.2h0c-.1-.1-.2-.3-.1-.5h0c0-.2.1-.4.2-.6s0-.1,0-.1c0,0-.2,0-.3,0-.2,0-.5.1-.6.3h0Z"/>
          </g>
          <g>
            <path class="st18" d="M35.5,92.5c0,0,0,.2,0,.3s0,.2.2.2c0,0,.2,0,.3,0,0,0,0,0,0-.1,0-.1,0-.2-.1-.3s-.2,0-.3,0"/>
            <path class="st18" d="M35.1,92.6c0,0,0,.1,0,.2s0,.2,0,.2,0,0,0,.1,0,0,.1,0c.1,0,.3,0,.4,0s.3,0,.4-.2.2-.1.2-.2,0-.2,0-.2,0-.1,0-.2c-.2-.2-.4-.2-.7-.2,0,0,0,0-.1,0,0,0,0,0-.1,0,0,0,0,0,0,0,0,0,0,0,0,0,0,.2.2.2.3.2s0,0,0,0h0s0,0,.1,0h0s0,0,0,0h0s0,0,0,0h0s0,0,0,0h0s0,0,0,0h0s0,0,0,0h0s0,0,0,0h0s0,0,0,0h0s0,0,0,0h0s0,0,0,0h0s0,0,0,0h0s0,0,0,0h0s0,0,0,0h0s0,0,0,0h0s0,0,0,0h0s0,0,0,0h0s0,0,0-.1h0s0-.1,0-.2,0-.1,0-.1-.2,0-.2,0-.2,0-.3,0-.1,0-.1.2h0Z"/>
          </g>
        </g>
        <g>
          <g>
            <path class="st29" d="M40.6,90c1.2-.3,2.4-.6,3.5-1,.2.5.3.9.4,1.4,0,0,0,.2,0,.3,0,.1-.2.2-.3.2-.6.4-3.4,1-3.4.8l-.2-1.7Z"/>
            <path class="st29" d="M40.7,90.4c1.2-.3,2.4-.6,3.5-1l-.7-.2c.2.4.3.9.4,1.3s0,.1,0,.1c0,0,0,0,0,0s0,0,0,0c0,0,0,0,0,0,0,0-.2,0-.2.1s0,0,0,0c0,0,.2,0,0,0s0,0-.1,0c-.1,0-.3,0-.4.1-.3,0-.5.1-.8.2s-.5.1-.8.2c.2,0,0,0,0,0s0,0-.1,0c0,0-.2,0-.3,0s0,0,0,0c0,0,.2,0,0,0s0,0,0,0c0,0,0,0,0,0s.2.1.2.2c0,0,0,0,0,0,0-.1,0-.3,0-.5,0-.4-.1-.8-.2-1.2s-.5-.3-.7-.2-.5.2-.5.5c0,.4.1.8.2,1.2s0,.3,0,.5c0,.2.3.3.5.3.6,0,1.1-.1,1.7-.3s1.2-.3,1.8-.5.8-.4.9-.8,0-.6-.1-.8-.2-.6-.3-.9-.5-.3-.7-.2c-1.2.4-2.3.7-3.5,1s-.6.3-.5.5.5.2.7.2Z"/>
          </g>
          <path class="st5" d="M40.7,90.6c0,.2.1.4.3.6s.6.1.7-.1.2-.4.3-.5h-.6c.2.2.3.4.5.5s.4.1.6,0,.2-.2.3-.4,0-.3.2-.3h-.2c0,0,0,0,0,0h-.2s0,0,0,0h-.1c.1,0,.3.3.3.4s.3.1.4,0,.3-.1.3-.3,0-.2.1-.3,0,0,0-.1,0,0,0,0h-.2s0,0,0,0,0,0,0,0c0,0,.1,0,.2.1.1,0,.3.1.5.2s.4,0,.5-.2,0-.3-.2-.3-.3-.1-.4-.2c-.2-.2-.4-.2-.6-.1-.4.1-.5.6-.6.9l.7-.2c-.1-.2-.2-.3-.4-.5s-.5-.2-.7,0-.2.3-.3.4,0,.2-.2.3h.6c-.2-.2-.3-.3-.5-.5s-.5-.1-.6,0-.2.4-.3.6h.7c-.1-.2-.2-.4-.2-.5,0-.3-.8-.2-.7.2h0Z"/>
        </g>
        <g>
          <g>
            <path class="st3" d="M-18,72.5c-.9,2.8-1.3,5.8-1.1,8.8,6.8.5,13.5,1.3,20.3,2,8.5,1,17,2,25.5,3,.2,0,.4,0,.5,0,.1,0,.2-.2.3-.4.6-1.4.6-3,.5-4.6,0-1.4-.2-2.8-.3-4.3-.1-1.4-.3-2.9-.8-4.3-.2-.6-.6-1.3-1.2-1.5-.3-.1-.7-.2-1-.2-5.4-.3-33.7-.8-42.7.9"/>
            <path class="st3" d="M-18.7,72.4c-.9,2.9-1.3,5.9-1.1,9s.2.4.5.5c10.3.7,20.5,2.1,30.8,3.3s5.1.6,7.6.9,2.4.3,3.7.4,2.7.5,3.9.5,1.9-1.8,2-3.1c.2-2.3,0-4.7-.3-7s-.2-4.2-1.5-5.6-1.8-.7-2.8-.8c-2,0-3.9-.1-5.9-.2-6.1-.1-12.2-.2-18.3,0s-12.1,0-18,1.2-.6,1.1.3,1c4.7-.9,9.5-.9,14.3-1.1s11.7-.2,17.5,0,4.7,0,7,.1,1.6,0,2.4,0c1.1,0,2.2,0,2.8,1.2.9,2,.9,4.6,1,6.7s.1,2.1.1,3.2,0,1,0,1.5-.2,1.6-.4,1.7c-.4.2-2.2-.3-2.9-.3-1.3-.2-2.6-.3-3.9-.5-2.3-.3-4.6-.5-6.9-.8-10.7-1.3-21.3-2.7-32-3.4l.5.5c-.1-2.9.2-5.9,1-8.7s-1.1-.8-1.3-.2h0Z"/>
          </g>
          <g class="st24">
            <path class="st32" d="M7.1,86.3c-.5-5.4-.5-10.9-.2-16.3s-1.4-.2-1.4.2c-.4,5.5-.3,11,.2,16.5s1.4,0,1.4-.4h0Z"/>
            <path class="st32" d="M18.7,86.3c-.5-5.4-.5-10.9-.2-16.3s-1.4-.2-1.4.2c-.4,5.5-.3,11,.2,16.5s1.4,0,1.4-.4h0Z"/>
            <g class="st36">
              <path class="st8" d="M-1,69.3c-1.1,1.9-2.1,3.9-3,5.9s.5.8.8.9c1.3.4,2.8,0,4.1-.5s-.6.2-.5,0,.4.5.4.5c.2.6,0,1.2,0,1.8-.6,2.6-1.8,5.1-3.3,7.4s.5,1.3,1.1,1.3,2.2-.3,2.7-1.2c.9-1.4,1.7-2.8,2.3-4.3s1.2-3,1.4-4.6-.4-2.9-2-3.3-1.8,0-2.7.2-.6.2-.9.3c0,0-.1,0-.2,0-.1,0-.1,0,0,0,0,0,.8.1.2,0l.8.9c.8-1.8,1.7-3.6,2.7-5.3s-.4-1.3-1.1-1.3-2.2.3-2.7,1.2h0Z"/>
            </g>
            <g class="st36">
              <path class="st8" d="M10.8,69.3c-1.1,1.9-2.1,3.9-3,5.9s.5.8.8.9c1.3.4,2.8,0,4.1-.5s-.6.2-.5,0,.4.5.4.5c.2.6,0,1.2,0,1.8-.6,2.6-1.8,5.1-3.3,7.4s.5,1.3,1.1,1.3,2.2-.3,2.7-1.2c.9-1.4,1.7-2.8,2.3-4.3s1.2-3,1.4-4.6-.4-2.9-2-3.3-1.8,0-2.7.2-.6.2-.9.3c0,0-.1,0-.2,0-.1,0-.1,0,0,0,0,0,.8.1.2,0l.8.9c.8-1.8,1.7-3.6,2.7-5.3s-.4-1.3-1.1-1.3-2.2.3-2.7,1.2h0Z"/>
            </g>
            <g class="st36">
              <path class="st8" d="M22.2,69.3c-1.1,1.9-2.1,3.9-3,5.9s.5.8.8.9c1.3.4,2.8,0,4.1-.5s-.6.2-.5,0,.4.5.4.5c.2.6,0,1.2,0,1.8-.6,2.6-1.8,5.1-3.3,7.4s.5,1.3,1.1,1.3,2.2-.3,2.7-1.2c.9-1.4,1.7-2.8,2.3-4.3s1.2-3,1.4-4.6-.4-2.9-2-3.3-1.8,0-2.7.2-.6.2-.9.3c0,0-.1,0-.2,0-.1,0-.1,0,0,0,0,0,.8.1.2,0l.8.9c.8-1.8,1.7-3.6,2.7-5.3s-.4-1.3-1.1-1.3-2.2.3-2.7,1.2h0Z"/>
            </g>
          </g>
        </g>
        <g>
          <path class="st32" d="M25.8,69.6c1.5.2,3,.4,4.5.7.5,0,1,.2,1.4.5.5.3.7.9,1,1.4.9,2.1,1.3,4.5,1,6.8,0,.5-.3,1.1-.8,1.1-.4,0-.7,0-1.2-.3,0-2.3-.4-4.6-1.2-6.8-.2-.5-.4-1.1-.8-1.5-.6-.7-2.9-1.7-4-1.9"/>
          <path class="st32" d="M25.3,70c1.1.1,2.2.3,3.3.5s2,.2,2.7,1,1,1.9,1.2,2.8.4,2,.5,3,0,1.1,0,1.6,0,.4,0,.6,0,.2,0,.2c-.1.1,0,.2,0,0,.2,0,.2,0,0,0,0,0-.2,0-.3,0-.2-.1-.2-.3-.2-.4,0-.3,0-.5,0-.8,0-.6,0-1.1-.2-1.7-.2-1.1-.4-2.1-.7-3.2s-.5-1.8-1.1-2.4-1.2-.8-1.9-1.1-1.5-.6-2.2-.8-.8,0-1,.3-.2.3.1.4c.8.1,1.5.5,2.2.8s1.5.8,1.9,1.5.8,2.2,1.1,3.3.4,2.4.5,3.6,0,.7,0,.9.4.2.5.3c.5.1,1,.1,1.5,0,1.1-.3,1.3-1.1,1.3-2.1.2-2.3-.2-4.7-1.3-6.8s-1.5-1.4-2.7-1.6-2.8-.5-4.2-.6-.8,0-1,.3-.2.4.1.4h0Z"/>
        </g>
      </g>
      <g>
        <g>
          <g>
            <path class="st30" d="M-4,35.1c.9-7.1,8.3-11.7,15.3-13.1,7.1-1.4,14.5-.8,21.4-2.7,3.9-1.1,7.5-3,11-5,4.2-2.5,8.3-5.1,12.2-8-1.2,11.5-7.4,22.5-16.6,29.5-9.2,7.1-21.4,10.1-32.8,8.3-4.8-.8-10-2.3-14.4,0"/>
            <path class="st30" d="M-3.2,35.1c1.2-8.5,10.4-12.2,18-13.1s9.9-.6,14.7-1.4,8.8-2.6,12.8-4.8,9.7-5.8,14.2-9.1l-1.2-.2c-1.2,10.6-6.3,20.5-14.3,27.6-8.4,7.3-19.7,11-30.8,10.1s-12.4-3.1-18.2-.3,0,1.1.6.7c3.1-1.5,6.5-1.1,9.7-.5s5.5,1,8.3,1.2c5.5.3,11.1-.5,16.3-2.2,10.2-3.4,18.8-10.3,24.2-19.6s5-11.1,5.6-17.1-1-.4-1.2-.2c-4.2,3.1-8.5,5.9-13,8.5s-9.4,4.7-14.7,5.4c-8.9,1.2-18.3.3-26,5.7s-5.9,5.6-6.5,9.7,1.4.4,1.5-.2h0Z"/>
          </g>
          <g>
            <g>
              <path class="st4" d="M55.5,6.3c-4.4,8.6-12.9,14.8-21.4,19s-9.2,3.8-14.1,4.9-11.4,2.2-16.8,4.2-9.8,4.9-12.9,9.4.6.2.7,0c7-10,20-11.1,30.9-13.7,9-2.2,17.8-6.6,24.9-12.5s7.3-7,9.5-11.5-.7-.1-.8.1h0Z"/>
              <path class="st4" d="M35.9,24.9c2.3-3.3,4.5-6.7,6.8-10s-.5-.6-.7-.3c-2.3,3.3-4.5,6.7-6.8,10s.5.6.7.3h0Z"/>
              <path class="st4" d="M32.5,26.4c2.3-3.3,4.6-6.5,6.9-9.8s-.6-.2-.7,0c-2.3,3.3-4.6,6.5-6.9,9.8s.6.2.7,0h0Z"/>
              <path class="st4" d="M19.4,30.7c1.4,1.1,2.5,2.5,3.7,3.7s3.2,3.5,4.9,5.2,1.1,1.2,1.7,1.7,1-.1.7-.3c-1.4-1.1-2.5-2.5-3.7-3.7s-3.2-3.5-4.9-5.2-1.1-1.2-1.7-1.7-1,.1-.7.3h0Z"/>
              <path class="st4" d="M17.9,31.4c3.5,3.5,6.9,7.2,10.4,10.7s1,0,.7-.4c-3.5-3.5-6.9-7.2-10.4-10.7s-1,0-.7.4h0Z"/>
            </g>
            <path class="st4" d="M7,33.4c.5-3.8,1.1-7.7,2.9-11.1s-.6-.3-.8,0c-1.8,3.5-2.4,7.4-3,11.2s.8.2.8,0h0Z"/>
            <path class="st4" d="M8.3,32.7c.4-2,.8-4,1.4-5.9s.9-3.5,2-5-.6-.2-.8,0c-1.1,1.5-1.6,3.2-2,4.9s-1,4.1-1.4,6.1.8.1.8-.1h0Z"/>
            <path class="st4" d="M15.9,31.5c3.3,3.9,7,7.6,10.9,11s1-.1.8-.3c-3.9-3.4-7.5-7-10.9-11s-.9,0-.8.3h0Z"/>
          </g>
        </g>
        <g>
          <g>
            <path class="st4" d="M-8.5,31.6c7.5,3.2,14,6.5,14.4,6.6,10.4,5.5,19.3,13.9,25.2,24.1-2.9-2.5-6.5-4.2-10.3-4.9-3-.6-6-.6-9-1-7.4-.9-14.5-4-20.1-8.8"/>
            <path class="st4" d="M-9.3,31.8c5.3,2.3,10.6,4.5,15.6,7.3s11.8,7.9,16.6,13.2,5.3,6.5,7.4,10.2l1.5-.5c-2.6-2.1-5.5-3.7-8.8-4.6s-7.6-.9-11.5-1.5c-7.1-1-13.7-4.1-19.2-8.7s-1.7.3-1.5.5c5.3,4.5,11.7,7.5,18.6,8.6s7.7.5,11.5,1.4,6.6,2.5,9.4,4.7,1.7-.2,1.5-.5c-6.6-11.2-16.4-20-28-25.6s-7.7-3.6-11.6-5.3-1.6.5-1.5.5h0Z"/>
          </g>
          <g>
            <g>
              <path class="st4" d="M-8.8,40.1c14.7,4.8,29.4,11.2,40.3,22.2"/>
              <path class="st30" d="M-9.1,40.3c14.6,4.8,29.2,11.1,40.2,22.1s1,0,.7-.3c-11.1-11.1-25.7-17.5-40.5-22.3s-1,.3-.5.5h0Z"/>
            </g>
            <g>
              <path class="st4" d="M4.4,45.8c.9,3.7,2.1,6.8,4.2,10"/>
              <path class="st30" d="M4,46c.9,3.6,2.2,7,4.3,10.1s1,0,.7-.4c-2-3-3.3-6.4-4.2-9.9s-.9-.2-.8.2h0Z"/>
            </g>
            <g>
              <path class="st4" d="M7.4,46.8c.9,3.7,1.8,6.3,3.9,9.4"/>
              <path class="st30" d="M7,46.9c.4,1.7.9,3.4,1.5,5s1.5,3.1,2.4,4.5,1,0,.8-.3c-1-1.4-1.8-2.9-2.4-4.5s-1.1-3.2-1.5-4.9-.9,0-.8.2h0Z"/>
            </g>
            <g>
              <path class="st4" d="M-3.9,41c2.3-2.3,5-4.2,7.9-5.5,0,0-.2.1-.3.2"/>
              <path class="st30" d="M-3.5,41c2.2-2.3,4.8-4.1,7.7-5.4l-.5-.2c0,0-.2.1-.3.2-.1.1,0,.2,0,.2s.4,0,.6-.2.2-.1.3-.2.1-.2,0-.2-.4,0-.5,0c-3,1.4-5.8,3.3-8.1,5.7s.1.2.2.2c.2,0,.4,0,.5-.2h0Z"/>
            </g>
            <g>
              <path class="st4" d="M-2.7,41.9c2.2-2.3,4.9-4.1,7.8-5.4,0,0,.2,0,.2,0s0,.2,0,.1"/>
              <path class="st30" d="M-2.3,41.9c1.1-1.1,2.3-2.1,3.6-3s1.3-.8,1.9-1.2,1.3-.8,2-1h-.4s0,0,0,0h.6c0-.1,0-.2,0-.2-.2,0-.9.2-.7.3h0c.2.1.5,0,.6-.1.3-.2,0-.4-.2-.4-.4,0-.9.3-1.3.5-.9.4-1.7.9-2.6,1.4-1.7,1.1-3.2,2.3-4.6,3.7s.1.2.2.2c.2,0,.4,0,.5-.2h0Z"/>
            </g>
            <g>
              <path class="st4" d="M14.5,49.6c2-.9,4.7-1.2,6.1-1.2"/>
              <path class="st30" d="M14.6,49.7c1-.4,2.1-.7,3.1-.9s1.8-.3,2.6-.2.5,0,.5-.2,0-.2-.2-.2c-1,0-2,0-2.9.3s-2.4.5-3.5,1-.3.2-.2.3.4,0,.5,0h0Z"/>
            </g>
            <g>
              <path class="st4" d="M16.7,51c1.8-.6,3.7-.9,5.5-.8"/>
              <path class="st30" d="M16.8,51.3c1.7-.6,3.5-.8,5.3-.8s.4,0,.5-.2,0-.3-.2-.3c-2,0-3.9.3-5.8.9s-.4.2-.3.4.3.2.5.2h0Z"/>
            </g>
          </g>
        </g>
      </g>
    </g>
    <g>
      <path class="st1" d="M70.1,67.3c-.6-6.9-.6-13.8,0-20.7,6.3,3.8,13.1,6.8,20.2,8.8.3,0,.6.2.9.1.4,0,.7-.4.9-.6,3-2.9,6-5.9,9-8.8-.2,7.1-.4,14.1-.7,21.2,0,.7,0,1.4-.4,2.1-.3.6-.9,1-1.4,1.4-3.4,2.5-7.1,5.1-11.2,4.9-2.8-.1-5.5-1.5-7.9-2.9-3.3-1.9-6.5-4-9.6-6.3"/>
      <path class="st1" d="M70.5,67.2c-.6-6.9-.6-13.8,0-20.7l-.6.2c5.5,3.3,11.4,6,17.5,7.9s2.7,1.2,3.9,1,1.9-1.4,2.6-2.1c2.5-2.5,5.1-5,7.6-7.5h-.7c-.2,4.9-.3,9.8-.5,14.7s0,4.6-.2,6.8-1.1,2.4-2.3,3.4-1.6,1.2-2.4,1.7c-2,1.3-4.2,2.4-6.6,2.6s-4.6-.6-6.7-1.6c-4.2-2.1-8.1-4.8-11.8-7.6s-.9.2-.6.4c3.4,2.5,6.9,4.8,10.5,6.8s6,2.9,9.4,2.3,6.4-2.7,9.2-4.8,2-1.9,2.1-3.6.1-4.4.2-6.6c.2-4.9.3-9.8.5-14.8s-.5-.2-.7,0c-2.1,2.1-4.3,4.2-6.4,6.3s-2.5,3.1-4.4,2.8-2.8-.8-4.1-1.3c-5.5-1.9-10.7-4.4-15.6-7.3s-.6,0-.6.2c-.6,6.9-.6,13.9,0,20.8s.8.1.7-.2h0Z"/>
    </g>
    <g class="st36">
      <path class="st19" d="M91.3,74.9c.2-6.2,1.4-20.9.6-20s-4-.2-4-.2c-.6,6.3-1,20.8-1,20.8,2.1.5,4.4-.6,4.4-.6Z"/>
      <path class="st19" d="M91.6,74.9c.1-4.2.5-8.4.7-12.5s.2-3.7.2-5.5.2-1.9-.3-2.2-.4,0-.5,0c-.4.1-.7.3-1.2.3-.8,0-1.7-.2-2.5-.5s-.6,0-.6.2c-.7,6.9-.8,13.9-1,20.8s0,.1.1.2c1.6.3,3.3,0,4.8-.7s0-.5-.3-.3-.8.3-1.2.5-.8.2-1.2.2-1.5,0-1.5,0c0-.2,0-.8,0-.9,0-1.8.1-3.6.2-5.4.2-4.8.3-9.7.8-14.5l-.6.2c1.2.4,2.7.8,3.9.4s.8-.5.3-.3-.2,0-.2.3,0,1,0,1.4c0,3.9-.3,7.9-.5,11.8s-.3,4.3-.3,6.4.7.2.7,0Z"/>
    </g>
    <path class="st15" d="M73.9,78.6c5.4-3,10.7-6,16-9.1s5.4-3.2,8.1-4.8c1-.6,2.1-1.3,3.1-1.9,3.2-2,1.3-2,1.8-2.3l-3.5,1.8c1.7-1.3,3.9-3.1,4.3-4.6-.7-.5-3.2,1.1-4.5,2.1.6-.6,3.3-3.3,3.3-4.2-.9-1.1-4.2,1-5.4,1.8,1-1,2.1-2.1,3.1-3.1.4-.4.8-1.3.3-1.6-10,5-20.7,9.9-30.7,14.9-.3-1.7-.4-3.2-.4-5-3.9.6-7.2.9-11.2.9-1.1,0-1.7-.2-2.2.6s0,2.2,0,2.8c0,1.8.3,3.5.7,5.2.9,3.8,3.2,7.7,6.9,8.8,3.4.9,7-.8,10.1-2.5Z"/>
    <path class="st33" d="M73.5,45.9c5.1,2.5,9.8,5.7,15,8.1s.8-.3.4-.5c-5.2-2.4-9.9-5.6-15-8.1s-.8.3-.4.5h0Z"/>
    <path class="st33" d="M72.4,46.9c5.2,2.2,10.2,5.1,15.5,7.2s.8-.3.4-.5c-5.3-2-10.2-5-15.5-7.2s-.8.3-.4.5h0Z"/>
    <path class="st33" d="M98.7,45.5c-2.2,3.1-4.7,5.9-7.4,8.5s.1.1.2.1c.2,0,.4,0,.5-.2,2.7-2.6,5.2-5.4,7.4-8.5s-.5-.1-.7,0h0Z"/>
    <path class="st33" d="M97.6,45.4c-2.4,2.9-4.7,5.8-7,8.7s.5.1.7,0c2.3-2.9,4.6-5.8,7-8.7s-.5-.1-.7,0h0Z"/>
    <path class="st33" d="M96,45.8c-2.1,2.7-4.1,5.5-6.2,8.2s0,.2.2.2c.2,0,.4,0,.5-.2,2.1-2.7,4.1-5.5,6.2-8.2s0-.2-.2-.2c-.2,0-.4,0-.5.2h0Z"/>
    <path class="st4" d="M54.7,88c7.7,8.9,14.3,18.6,19.7,29.1.1.3.8,0,.7-.3-5.4-10.4-12-20.2-19.7-29.1s-.9,0-.7.3h0Z"/>
    <path class="st4" d="M65.5,101.1c-2.8-.2-5.6-.3-8.3-.2s-.6.6,0,.5c2.7,0,5.4,0,8.1.2s.4,0,.5-.2,0-.3-.2-.3h0Z"/>
    <path class="st4" d="M64.9,100.3c-2.8-.4-5.5-.6-8.3-.6s-.5.5,0,.5c2.7,0,5.4.3,8.1.6s.7-.5.2-.5h0Z"/>
    <path class="st4" d="M69.3,106.4c.6-1.7,1.5-3.4,2.4-5s-.3,0-.3,0c-.1,0-.3,0-.4.2-1,1.6-1.8,3.2-2.4,5s.6,0,.7-.1h0Z"/>
    <path class="st4" d="M70.3,107.5c.8-1.7,1.6-3.3,2.4-5s-.6-.4-.7,0c-.8,1.7-1.6,3.3-2.4,5s.6.4.7,0h0Z"/>
    <path class="st4" d="M73.4,113.5c-1.9-.7-3.9-1.2-6-1.6s-4.3-.9-6.5-1.3-.8.3-.4.4c2.1.4,4.1.9,6.2,1.3s4.1.9,6.1,1.6.9-.2.6-.3h0Z"/>
    <path class="st4" d="M73.7,114.6c-1.9-.7-3.9-1.2-6-1.6s-4.3-.9-6.5-1.3-.8.3-.4.4c2.1.4,4.1.9,6.2,1.3s4.1.9,6.1,1.6.9-.2.6-.3h0Z"/>
    <g>
      <g>
        <path class="st4" d="M73.3,117.7c0-3.1,1-6,2.1-8.9,2.7-7.5,5.9-14.8,9.5-22,.3-.7.7-1.4,1.4-1.8,1.1-.6,2.5,0,3.2.9.7,1,1,2.2,1.1,3.4,1.3,8.7,1.6,17.5.9,26.2,0,.3,0,.5-.2.7-.3.5-.8.8-1.4.8-5.9.4-16.6.4-16.6.4Z"/>
        <path class="st4" d="M74,117.5c0-3.2,1.1-6.3,2.2-9.3s2.3-6,3.5-8.9,2.5-5.9,3.9-8.7,1.3-2.9,2.1-4.2,1.2-1.5,2.2-.9,1.1,1.1,1.4,1.8c.5,1.3.6,2.9.8,4.3s.4,3.2.5,4.8c.3,3.2.4,6.5.5,9.7s0,3.1,0,4.6,0,3.5-.3,5.1-1.9,1.2-3,1.2-2.5.1-3.7.1c-3.4,0-6.8.2-10.3.2s-1.6.6-.9.6c3.8,0,7.5,0,11.3-.2s2.3,0,3.4-.1,2.2,0,3.2-.4,1.4-1.4,1.5-2.7c.1-1.9.2-3.9.3-5.8,0-3.9,0-7.8-.4-11.7s-.3-3.6-.6-5.3-.3-3.6-1.1-5.2-3.5-2.6-5.3-1.2-1.6,2.6-2.2,3.8c-.9,1.9-1.8,3.7-2.6,5.6-1.7,3.8-3.3,7.6-4.8,11.5s-3,7.6-3.1,11.6,1.4,0,1.4-.4Z"/>
      </g>
      <g>
        <path class="st30" d="M87.5,85.4c-3.2,10.5-6.2,21.2-5.8,32.3s.7,0,.7-.2c-.4-11,2.6-21.8,5.8-32.2s-.7-.1-.7.1h0Z"/>
        <path class="st30" d="M82.3,116.8c-2-3-4.2-5.9-7.2-7.9s-.9.2-.6.4c3,2,5.1,4.9,7.1,7.8s.9,0,.7-.3h0Z"/>
        <path class="st30" d="M82.4,114.1c-.7-1.4-1.7-2.6-2.8-3.7s-1.1-1.1-1.7-1.5-1.3-1-1.9-1.7-.8,0-.7.3c.5.6,1.2,1.1,1.8,1.6s1.1,1,1.7,1.5c1.1,1.1,2.1,2.3,2.8,3.7s.8,0,.7-.2h0Z"/>
        <path class="st30" d="M82.8,108.5c2.8-2.6,5.9-4.8,9.2-6.5s-.2-.2-.4-.1c-3.5,1.8-6.6,4.1-9.5,6.7s.1.2.2.2c.2,0,.4,0,.5-.2h0Z"/>
        <path class="st30" d="M82.6,110.2c1.6-1.5,3.5-2.8,5.3-4s3-1.9,4.3-3-.2-.6-.5-.4c-1.4,1.1-2.9,2-4.3,3s-3.7,2.5-5.3,4,.2.6.5.4h0Z"/>
        <g>
          <path class="st4" d="M84.2,98.4c-1.3-1.1-2.5-2.5-3.5-3.8"/>
          <path class="st30" d="M84.5,98.2c-1.3-1.1-2.4-2.4-3.5-3.7s-.9,0-.7.3c1,1.4,2.2,2.7,3.6,3.8s.9-.2.6-.4h0Z"/>
        </g>
        <g>
          <path class="st4" d="M83.7,100.1c-1.3-1.5-2.2-2.6-3.5-4.1"/>
          <path class="st30" d="M84,99.9c-1.2-1.4-2.3-2.7-3.5-4.1s-.9,0-.7.3c1.2,1.4,2.3,2.7,3.5,4.1s.9,0,.7-.3h0Z"/>
        </g>
      </g>
    </g>
    <path class="st4" d="M106,90.2c-4.3,8.6-7.7,17.7-10.2,27s.7.1.7-.1c2.4-9.3,5.8-18.4,10.2-27s-.6,0-.7.1h0Z"/>
    <path class="st4" d="M98,111.5c-.8-2.8-1.7-5.5-2.9-8.2s-.8,0-.7.2c1.2,2.7,2.1,5.4,2.9,8.2s.8.1.7-.2h0Z"/>
    <path class="st4" d="M98.7,109.5c-.9-2.7-1.7-5.3-2.6-8s-.8,0-.7.2c.9,2.7,1.7,5.3,2.6,8s.8,0,.7-.2h0Z"/>
    <path class="st4" d="M100.6,103.8c1.9-.8,3.8-1.5,5.8-2.1s.4-.1.3-.3-.3-.1-.4-.1c-2,.6-4,1.4-6,2.2s-.3.2-.2.3.4,0,.5,0h0Z"/>
    <path class="st4" d="M100.3,104.8c2-.6,4.1-1.3,6.1-2.1s.3-.1.2-.2-.4,0-.5,0c-1.9.8-3.9,1.4-5.9,2s-.4,0-.3.2.3,0,.4,0h0Z"/>
    <path class="st4" d="M103.5,96.8c-.4-1.3-.8-2.7-1-4s-.8,0-.7.2c.2,1.4.6,2.7,1,4s.8,0,.7-.2h0Z"/>
    <path class="st4" d="M93.2,105.3c1.1,2.8,2.3,5.4,3.7,8.1s.8,0,.7-.3c-1.3-2.6-2.5-5.3-3.6-8s-.9-.1-.7.2h0Z"/>
    <g>
      <path class="st29" d="M121.1,98.6c.2,0,.4-.1.5,0,.2,0,.4.2.6.4,3.9,4.1,7.8,8.2,11.7,12.3-9.9,5.1-20.3,7.7-30,12.6-3.5-4.5-6.2-8.2-10-13.3.9-.4,18.4-8.8,27.2-11.9Z"/>
      <path class="st29" d="M121.1,98.8c.7-.2,1.5,1.1,1.9,1.5s1,1.1,1.5,1.6c1,1.1,2,2.1,3,3.2,2,2.1,4,4.2,6,6.3l.2-.3c-9.7,5-20.3,7.8-30,12.6h.5c-3.4-4.4-6.7-8.9-10-13.3l-.2.3c9.1-4,17.9-8.6,27.2-11.9s0-.5-.3-.3c-9.4,3.3-18.2,7.9-27.2,11.9s-.3.2-.2.3c3.4,4.4,6.7,8.9,10,13.3s.4,0,.5,0c9.7-4.9,20.3-7.7,30-12.6s.3-.2.2-.3c-2.5-2.6-4.9-5.2-7.4-7.7s-2.5-2.6-3.7-3.9-1.1-1.4-2.2-1.1-.3.5.1.4Z"/>
    </g>
    <g>
      <path class="st31" d="M95.7,110.9c2.5,3.4,5.2,7.6,7.7,11,.2.2.4.5.6.6.3.1.7,0,1.1-.1,7.5-2.9,17.3-7.6,24.8-10.5.6-.2,1.2-.6,1.2-1.2,0-.3-.4-.8-.4-.8l-8.3-9s-.5-.7-.9-.9c-.5-.2-1.1-.1-1.6,0-1.9.6-24.2,10.8-24.2,10.8Z"/>
      <path class="st31" d="M95.4,111.1c1.6,2.2,3.1,4.4,4.6,6.6s1.4,2,2.1,3,1,1.9,1.9,2.1,1.4-.2,2-.5c1.1-.4,2.2-.9,3.2-1.3,2.3-1,4.6-2,6.9-3,4.4-1.9,8.8-3.9,13.3-5.7s2.9-1.1,1.7-2.6-.7-.8-1.1-1.2l-5.5-5.9c-.5-.6-1.1-1.2-1.6-1.8-.8-.9-1.4-1.3-2.6-1.1s-3,1.1-4.3,1.8c-2.6,1.1-5.1,2.3-7.7,3.4-4.2,1.9-8.5,3.8-12.7,5.8s0,.5.3.4c7.4-3.4,14.9-6.9,22.4-10.1s1.1-.5,1.6-.7c1.2-.3,1.8.2,2.5,1,1.4,1.6,2.9,3.1,4.3,4.7s2.6,2.6,3.7,4-2.7,2.6-3.8,3c-2,.8-4.1,1.7-6.1,2.6-4.6,2-9.1,4.1-13.8,5.9s-.9.4-1.4.6c-1.4.3-1.6-.5-2.3-1.4s-1.5-2.1-2.2-3.1c-1.6-2.3-3.1-4.6-4.7-6.8s-.9,0-.7.3Z"/>
    </g>
    <g>
      <path class="st29" d="M101.6,112.2c0-.5,0-1.2.2-1.6,0,0,0-.1.1-.2.1,0,.3,0,.4.1.2.2.4.4.6.5,0-.4,0-.9.2-1.2,0,0,.1-.2.2-.2.3-.1.5.4.8.5.2-.6.5-1.4,1.2-1.5.2,0,.5,0,.7,0,.6,0,1.2.2,1.8.3-2.1,1-4.3,2.1-6.2,3.3"/>
      <path class="st29" d="M102,112.1c0-.4,0-.8,0-1.1s.1-.2,0-.2c0-.1,0,0-.2,0,0,0,0,0,.1,0,.2.2.4.3.6.5s.8,0,.7-.3,0-.4,0-.6,0-.2,0-.3c0,0,0,0,0-.1,0,0,0-.1-.2,0,0,0,.2.2.3.2.1.1.2.2.4.3s.5,0,.6-.2c.2-.4.4-1.2.9-1.3s.8,0,1.1,0,.8.1,1.2.2v-.5c-2.2,1-4.3,2.1-6.4,3.4s-.2.3,0,.4.4,0,.6,0c2-1.2,4-2.3,6.1-3.3s.3-.5,0-.5c-.5,0-1-.2-1.5-.2s-1-.1-1.4,0c-.7.3-1.1,1-1.3,1.7l.6-.2c-.2-.1-.3-.3-.6-.4s-.5,0-.8,0c-.5.3-.6,1.2-.5,1.7l.7-.3c-.5-.4-1.2-1.2-1.7-.4s-.3,1.2-.2,1.8.8.2.8-.2h0Z"/>
    </g>
    <g>
      <path class="st29" d="M116.6,106.1c0-.3,0-.6,0-.9,0,0,0-.2.1-.2,0,0,.2,0,.2,0,.2.1.4.2.6.3,0-.2,0-.4,0-.6s.3-.4.5-.3c.2,0,.4.3.5.5,0-.4.2-.7.4-1,0-.1.2-.2.3-.3s.3,0,.4,0c.1.1.2.4.4.3,0,0,0,0,.1-.1,0,0,.2-.1.3-.1s.2.1.2.2c0,.2-.2.3-.3.3-1.5.7-3,1.4-4.5,2.1.8-.4,1.6-.8,2.4-1.2"/>
      <path class="st29" d="M116.9,106.1c0-.2,0-.3,0-.5s0-.1,0-.2,0-.2,0-.1h-.3c0,0,.2.2.3.3.1,0,.2.1.3.2.2,0,.6,0,.6-.2s0-.2,0-.3,0-.1,0-.2,0-.1,0-.2c0,0,0,0,0,0,0,0,0,0,0,0,0,0,0,0,0,0,0,0,.1.2.2.3.1.2.6,0,.7-.1,0-.3.2-.7.3-.9s0-.1.2-.2,0,0,0,0,.1.2.2.3c.2.2.6,0,.8,0,0,0,0,0,0,0,0,0,0,0,0,0,0,0,0,0,0,0,0,0,0,0,0,0,0,.1-.3.2-.4.2-1.4.6-2.8,1.3-4.2,1.9l.3.2c.8-.4,1.5-.8,2.3-1.2s.3-.1.2-.3-.3,0-.4,0c-.8.4-1.7.8-2.5,1.2s-.2.2,0,.2.3,0,.4,0c1.3-.6,2.5-1.2,3.8-1.8s.6-.3.9-.4.4-.3.4-.5-.3-.3-.5-.3-.3,0-.4,0-.2.2-.3.2h.3c.1-.1,0,0,0-.2s0,0,0-.1c0,0-.2-.1-.3-.2-.3,0-.6,0-.8.1-.5.3-.7.9-.8,1.4h.7c-.2-.6-.6-.8-1.1-.6s-.6.6-.6,1.2l.6-.2c-.4-.2-.9-.6-1.3-.3s-.3.8-.2,1.2.7,0,.7-.2h0Z"/>
    </g>
    <g>
      <path class="st28" d="M103.8,119.4c.5.9.3,1.8,1.1,1.8.3,0,.4.5.7.4,3.1-1.7,6.5-2.8,9.8-4.1s6.5-3.2,8.7-5.9c.9-1.2,1.6-2.5,2.3-3.8.2-.4-1.2.7-1.2.3s-.1-.6-.6-.7c-.2,0,.3-1.6,0-1.5-3.5,1.1-6,2.6-8.8,4.9-2.1,1.7-3.9,3.6-6,5.3s-3.4,2.9-6.1,3.4"/>
      <path class="st28" d="M102.3,119.8c.2.5.3,1.1.6,1.6s.5.4.9.7.6.5,1.1.5c.7,0,1.4-.3,2-.6,2.8-1.4,5.8-2.4,8.7-3.6s5.1-2.4,7.3-4.2,1.9-1.8,2.7-2.8,1.8-2.4,2.2-3.7c0-.2,0-.3-.1-.4-.5-.4-1.1-.4-1.6-.2s-.6.2-.8.3-.4,0,.2,0h1c.2.4.2.4.2.2,0-.1,0-.2,0-.3-.1-.2-.2-.3-.4-.5h-.2c-.4-.3-.4-.2,0,.1,0-.1,0-.3,0-.5.2-1,0-1.5-1.2-1.4s-2.8.9-4,1.5-2.4,1.3-3.5,2c-2.5,1.7-4.8,3.8-7,5.9s-4,3.7-6.7,4.3-1.4.6-1.2,1.2,1.2.5,1.7.4c4.1-.8,7.2-4,10.2-6.7s6.5-5.5,10.7-6.9h-1.4c-.2-.4-.3-.5-.3-.2,0,.1,0,.3,0,.4,0,.2-.1.5,0,.8s.2.3.4.5c.2,0,.3,0,.3.1,0,.1,0,.2,0,.3.4.6,1.1.6,1.8.4s.5-.2.8-.3,1.1-.4.2-.2l-1.5-.2c-.2-.3-.3-.3-.4.2-.1.2-.3.5-.4.7-.3.5-.5.9-.9,1.4-.6.9-1.3,1.6-2,2.4-1.4,1.3-3.1,2.4-4.9,3.2-3.9,1.9-8,3-11.7,5.1l1.1-.4h-.1c.3,0,.6.1,1,.1-.1,0-.2-.3-.4-.3s-.4,0-.5-.2c-.3-.3-.4-1-.5-1.4-.4-1.1-3.3-.2-2.9.8h0Z"/>
    </g>
    <g>
      <path class="st21" d="M103.1,121.2c-.4-.8-1.2-1.4-1.7-2.1s-1.1-1.6-.8-2.5c.2-1,1.4-1.7,2.4-1.8s2.1.1,3.2.2,2.2,0,3-.8c.7-.7.9-1.6,1.2-2.5s1.1-1.7,2-1.7c.9,0,1.9,1,2.7.5.5-.3.5-1.1.6-1.7.4-1.6,2.6-2.3,3.9-1.4-1.1.8-2.3,1.7-3,2.9-.5.9-.7,1.9-1.5,2.5-.8.6-2.1.5-2.6,1.3-.3.4-.3.9-.4,1.4-.4,1.3-1.6,2.1-2.8,2.9-.4.2-1.1,2.5-1.5,2.5s-3.4,1.9-3.5,1.5l-1-1.3Z"/>
      <path class="st21" d="M103.4,121.1c-.7-1.2-2-2-2.5-3.3-.7-2.1,1.7-2.7,3.2-2.6s4.4.7,5.6-1.4.7-2.6,1.8-3.2,2.2.8,3.3.4.8-1.2,1.1-2c.4-1.4,2-1.9,3.2-1.2v-.3c-1,.7-2,1.5-2.7,2.5s-.6,1.1-.9,1.7c-.4.9-.9,1.2-1.8,1.5s-1.7.6-2,1.6-.3,1.4-1,2.1-1.1.9-1.7,1.3-.9,1.2-1.2,1.9-.3.6-.5.7-.6.3-.8.4c-.4.2-.8.4-1.2.6s-.8.5-1.1.5c.2,0-.2-.3-.3-.5l-.6-.8c-.2-.2-.9,0-.7.3s.6,1.2,1.1,1.4,1.3-.3,1.7-.5c.7-.4,1.5-.7,2.2-1.1s.9-1.2,1.2-1.8.5-.8,1.1-1.2,1-.7,1.4-1.1.7-.9.9-1.5.1-1.1.5-1.5.9-.4,1.3-.6c1.1-.4,1.8-1,2.3-2.1.8-1.7,1.9-2.7,3.3-3.8s.2-.2,0-.3c-1.7-1.1-4.1,0-4.6,1.9s0,.8-.3,1.1c-.4.5-1,.1-1.4,0s-1-.4-1.5-.3c-1.1.2-1.8,1.3-2.2,2.3s-.5,1.5-1,2-1.9.7-2.9.6c-1.4-.1-2.9-.5-4.3.2s-1.7,1.4-1.4,2.6,1.8,2.5,2.6,3.7.8,0,.7-.3Z"/>
    </g>
    <g>
      <path class="st4" d="M123.1,106c.8-.8,1-.7,1.8-1.4.3-.3,1.5,1.1,1.6,1.3.9.7,1.7,1.5,2.5,2.4.3.4.7.8.8,1.3.2,1-.4,1.9-1.1,2.6-1,.9-2.2,1.4-3.4,1.9-3.9,1.7-7.8,3.3-11.9,4,0-1.4.8-2.7,1.9-3.4s2.6-1,3.9-.5c.4-3,1.7-5.9,3.9-8.1"/>
      <path class="st4" d="M123.4,106c.3-.3.7-.6,1.1-.9s.4-.5.7-.2.9.9,1.4,1.3c.9.7,1.8,1.6,2.4,2.6s.2,2.5-.9,3.4-2.2,1.3-3.3,1.8-2.5,1-3.7,1.5c-2.5,1-5.1,1.8-7.7,2.3l.3.2c.2-2.7,2.6-4.5,5.3-3.7s.6,0,.6-.2c.4-3,1.7-5.8,3.8-8s-.4-.3-.6-.1c-2.1,2.3-3.5,5.1-3.9,8.2l.6-.2c-3-.9-6.2,1.1-6.4,4.2s.2.2.3.2c2.4-.4,4.7-1.1,7-2s4.7-1.8,6.9-2.9,3.6-2.4,2.8-4.3-1.3-1.8-2.1-2.5-1.2-1.1-1.7-1.6-.8-.8-1.4-.6-.6.5-.9.7-.7.5-1.1.9.4.3.6.1h0Z"/>
    </g>
    <g>
      <path class="st2" d="M119.7,89.5c-.8.6-2.4,1.9-3.3,2.6-.1,0-.2.2-.3.3,0,.1,0,.3,0,.4.2,4.4.4,8.9.6,13.3,4.8.6,9.4,2.3,14.1,3.6,3.7,1,7.5,1.8,11.3,2.6.2,0,.4,0,.7,0,.2,0,.4-.1.5-.2.7-.4,1.4-.9,2.1-1.3.2-.1.4-.2.5-.4.1-.2.1-.4.1-.6,0-4.4,0-8.9-.3-13.3,0-.1,0-.3,0-.4,0-.1-.2-.1-.4-.2-4-.7-25.6-6.5-25.6-6.5Z"/>
      <g>
        <path class="st2" d="M139.8,94.4c-.1.7-.2,1.4,0,2.1,0,.3.1.6.4.8.2.1.4.2.6.2.4,0,.9,0,1.3,0,.3,0,.6,0,.9,0,.5-.2,1-.6,1.2-1.1s.1-.8,0-1.2"/>
        <path class="st13" d="M139.5,94.5c-.1.7-.2,1.4,0,2.1s0,.5.2.8.4.3.7.4c.7.1,1.4.2,2.1,0s1.2-.3,1.6-.8.6-1.2.4-1.9-.8,0-.7.2c.2.6,0,1.3-.4,1.8s-1.2.4-1.8.4-.7,0-1-.1-.4-.4-.4-.7c-.1-.7,0-1.5,0-2.2s-.7-.1-.7.1h0Z"/>
      </g>
      <g>
        <path class="st2" d="M140.7,95.8c0,.4,0,1.1,0,1.5"/>
        <path class="st13" d="M140.4,95.8c0,.5,0,1,0,1.5s0,.1,0,.2.2,0,.2,0,.2,0,.3-.1.1-.1.1-.2c0-.5,0-1,0-1.5s0-.1,0-.2-.2,0-.2,0-.2,0-.3.1-.1.1-.1.2h0Z"/>
      </g>
      <g>
        <path class="st2" d="M141.9,95.5c0,.6,0,1.2,0,1.8"/>
        <path class="st13" d="M141.5,95.6c0,.6,0,1.3,0,1.9s0,.1.1.1c0,0,.2,0,.3,0,.1,0,.3-.1.3-.3,0-.6,0-1.2,0-1.8s-.2-.2-.3-.2-.2,0-.3,0-.1,0-.1.2h0Z"/>
      </g>
      <path class="st13" d="M142.6,95.8v1.7s.1,0,.1,0c0,0,.2,0,.3,0s.2,0,.2-.1,0,0,0-.1v-1.7s-.1,0-.1,0c0,0-.2,0-.3,0s-.2,0-.2.1,0,0,0,.1h0Z"/>
      <path class="st13" d="M116.4,92.7c1.1,0,2.2.4,3.2.7,2.1.5,4.3,1,6.4,1.6,4.6,1.2,9.1,2.4,13.6,3.8s1.6.6,2.3.9c1.4.4,2.7-.9,3.8-1.6s-.2-.6-.5-.4c-1.2.8-2.3,1.7-3.8,1.1s-1.5-.5-2.2-.8c-2-.6-4-1.2-6-1.8-4.3-1.2-8.6-2.3-12.9-3.3s-2.5-.7-3.7-.8-.7.5-.2.6h0Z"/>
      <g>
        <path class="st2" d="M121.1,90.7c-.2-.1-.4-.2-.7-.2s-.5.2-.5.4c0,.1,0,.2,0,.3.3.6.8.8,1.3.5,0,0,.4-.7-.2-1"/>
        <path class="st13" d="M121.3,90.4c-.2-.1-.5-.2-.8-.2s-.6.1-.8.3-.2.5-.1.7.2.4.4.5.3.3.6.3.5,0,.7,0,.3,0,.4-.2.1-.1.1-.2c0,0,0-.2.1-.3s0-.3,0-.5c0-.2-.3-.4-.5-.5s-.2,0-.3,0-.2,0-.2.1,0,.1,0,.2,0,.1.2.1c0,0,0,0,0,0s0,0,0,0,0,0,0,0c0,0,0,0,0,0,0,0,0,0,0,0s0,0,0,0c0,0,0,0,0,0s0,0,0,0c0,0,0,0,0,0s0,0,0,0c0,0,0,0,0,0s0,0,0,0c0,0,0,0,0,.1s0,0,0,0,0,0,0,0c0,0,0,0,0,0s0,0,0,0,0,0,0,0,0,0,0,0c0,0,0,0,0,0s0,0,0,0c0,0,0,0,0,0s0,0,0,0,0,0,0,0c0,0,0,0,0,0s0,0,0,0c0,0,0,0,0,0,0,0,0,0-.1,0,0,0,0,0,0,0s0,0,0,0c0,0,0,0,0,0,0,0,0,0,0,0s0,0,0,0c0,0,0,0,0,0s0,0,0,0c0,0,0,0,0,0,0,0-.1-.1-.2-.2s0,0,0,0,0,0,0,0c0,0,0,0,0,0,0,0,0,0,0-.1,0,0,0,0,0,0h0s0,0,0,0c0,0,0,0,0,0,0,0,0,0,0,0,0,0,0,0,0,0h0s0,0,0,0c0,0,0,0,0,0,0,0,0,0,0,0,0,0,0,0,0,0,0,0,0,0,0,0,0,0,0,0,0,0,0,0-.1,0,0,0s0,0,0,0,0,0,0,0,0,0,0,0c0,0,0,0,0,0,.1,0,.2,0,.3.1s.2,0,.3,0,.2,0,.2-.1,0-.1,0-.2,0-.1-.2-.1h0Z"/>
      </g>
      <g>
        <g>
          <path class="st2" d="M122.8,91c.2-1.1,1-1,1.7-1.1s1.4.2,1.9.7c.1.1.3.3.3.5,0,.4-.3.8-.7,1s-.9,0-1.3,0c-1.8-.1-1.8-.6-1.9-1"/>
          <path class="st13" d="M123.2,90.9c0-.3.1-.5.4-.7s0,0,0,0c.1,0,0,0,0,0s0,0,0,0,0,0,0,0c0,0,0,0,0,0,0,0,.1,0,.2,0,.3,0,.6,0,.8,0s.7.2,1,.4.5.6.4.9-.5.4-.8.4-.8,0-1.2-.1-.5,0-.7-.2-.3-.3-.4-.6-.8,0-.7.2.2.6.5.8.7.2,1,.3.5,0,.7,0,.6,0,.9,0c.5,0,1-.3,1.3-.7s.2-.9-.2-1.2-.7-.6-1.2-.7-.8,0-1.3,0-.8,0-1.1.3-.6.6-.7,1,.7.2.7,0h0Z"/>
        </g>
        <path class="st13" d="M122.5,91.5c0,.4.2.8.5,1s.7.4,1.1.4c.9.1,1.9,0,2.6-.8s.4-.6.5-.9-.7-.1-.7,0c-.1.7-.6,1.2-1.3,1.2s-.9,0-1.3-.2-.5-.6-.5-1-.8,0-.7.2h0Z"/>
      </g>
      <path class="st44" d="M125.3,95c1.5-1.8,3.1-2.6,4.6-4.4,1.2,0,3.6-.4,4.1-.1.5.2,2.1,2.7,2.5,3.2,0,.1.2.2.2.3,0,.2,0-.1,0,0-.7,1.3-1.6,2.5-2.7,3.5,0-.4-6.3-1.4-8.9-2.3"/>
      <path class="st13" d="M127.8,92.6c1.3.3,2.6.6,3.9.8s1-.4,1.4-.8,1-.9,1.4-1.4,0-.3,0-.3-.4,0-.5.1c-.4.4-.8.8-1.2,1.2s-.3.3-.5.5-.1.2-.3.2-.2,0-.4,0l-3.3-.7c-.2,0-.4,0-.5.1s0,.3,0,.3h0Z"/>
      <path class="st13" d="M131.6,93.4c1.1,1.2,2,2.4,2.7,3.8s.8,0,.7-.3c-.7-1.4-1.7-2.7-2.7-3.8s-.3-.1-.5,0-.3.2-.2.4h0Z"/>
      <path class="st13" d="M125.3,95.1c2.5.7,5,1.3,7.6,2l1.1.3h-.1c.3,1.7.6,3.6,1.1,5.3s.8,0,.7-.2c-.5-1.8-.8-3.6-1.1-5.4s0,0-.1,0c-2.5-.7-5-1.3-7.6-2l-1.1-.3c-.2,0-.8.3-.4.4h0Z"/>
      <path class="st13" d="M124.9,95.1c-.7,2-1.3,4-2,6s-.2.6-.3.9.6.2.7,0c.7-2,1.3-4,2-6s.2-.6.3-.9-.6-.2-.7,0h0Z"/>
      <path class="st11" d="M124.7,99c-.5,1.8-.8,1.9-1.5,3.7-.4.9-1.5,4.3-1.5,4.3l-5-.8-.4-8.5s6.4,1,8.4,1.3Z"/>
      <path class="st11" d="M135.4,101.6s.6,2.5.6,5.3c0,2.8-1.1,3.8-1.1,3.8,0,0,7.6,1.8,7.9,1.6,1-.4,3.1-1.7,3.3-2.2.3-1.1.2-7,0-8.3-1,.9-2.5,1-2.5,1l-8-1.3Z"/>
      <path class="st44" d="M125,100.8c3.2-.8,5.3.8,7.6,3.1,1.7,1.7,2.6,4.1,2.3,6.5,0,.3,0,.6-.2.8-.2.3-.4.5-.7.7-1.7,1.4-3.3,2.9-5,4.3-.4.3-.8.6-1.2.8-.4.1-.8.1-1.2,0-2.1-.2-4.2-1.2-5.6-2.9-1.4-1.6-2-3.9-1.6-6,.2-1.2,3.3-6.3,4.4-7.4h1.2Z"/>
      <g>
        <path class="st34" d="M124.7,106.4c-.5.9-.5,2,0,3,.4.9,1.2,1.7,2.1,2.3.4.3.8.5,1.2.4.5-.1.7-.7.7-1.2s0-1.7-.4-2.1c-.5-.7-1.7-1.8-2.4-2.3-.3-.2-.6-.3-.9-.2"/>
        <path class="st34" d="M124.3,106.4c-.6,1.1-.5,2.4.1,3.4s.7,1,1.2,1.4.9.8,1.5,1,1.2,0,1.6-.4.3-.8.3-1.3,0-1-.2-1.4-.4-.8-.8-1.1-.9-.9-1.4-1.2-1.1-.8-1.8-.5-.4.1-.3.3.3.2.5.1c.3-.1.9.4,1.1.6.4.3.7.6,1.1.9s.6.6.8.9.2.8.2,1.1.1.7,0,1.1,0,.4-.2.5-.4,0-.6,0c-.4-.2-.8-.6-1.2-.9s-.7-.7-1-1.1c-.6-1-.8-2.2-.2-3.2s-.6-.3-.7,0h0Z"/>
      </g>
      <g>
        <path class="st13" d="M130.1,105c.7-.4,1.4-.8,2-1.3s.2-.3,0-.4-.4,0-.5,0c-.3.2-.6.5-.9.7s-.2.1-.2.2,0,0-.1,0,0,0,0,0,0,0,0,0c-.2,0-.3.2-.5.3s-.3.2-.2.4.4.1.5,0h0Z"/>
        <path class="st13" d="M131,105.5c.8-.3,1.5-.6,2.2-1.1s0,0,0-.1,0,0-.1,0c-.2,0-.4,0-.5.1-.3.2-.6.4-.9.5s-.2,0-.2.1,0,0-.1,0c0,0,0,0,0,0,0,0,0,0,0,0-.2,0-.3.1-.5.2s-.3.1-.2.2.4,0,.5,0h0Z"/>
        <path class="st13" d="M131.7,106.3l2-.9c0,0,.2-.2,0-.2s-.4,0-.5,0l-2,.9c0,0-.2.2,0,.2s.4,0,.5,0h0Z"/>
        <path class="st13" d="M132.3,107l1.7-.6s.3-.1.2-.2-.1,0-.2,0c0,0-.2,0-.3,0l-1.7.6s-.3.1-.2.2.1,0,.2,0c0,0,.2,0,.3,0h0Z"/>
        <path class="st13" d="M132.8,108.3l1.8-.9c.1,0,.3-.2.2-.4s-.4-.1-.5,0l-1.8.9c-.1,0-.3.2-.2.4s.4.1.5,0h0Z"/>
        <path class="st13" d="M133.8,109.7l1.2-.6c0,0,.2,0,.2-.2s0-.2,0-.2c-.1-.1-.3-.1-.5,0l-1.2.6c0,0-.2,0-.2.2s0,.2,0,.2c.1.1.3.1.5,0h0Z"/>
      </g>
      <path class="st13" d="M143.1,100.3c.3,4,.4,7.9.2,11.9s.7.1.7,0c.1-4,0-8-.2-12s-.7,0-.7.2h0Z"/>
      <path class="st13" d="M127.3,92.5c-.3.3-.6.6-.9.9s-.7.7-1.1,1.1-.2.2-.2.2c-.1.1,0,.3,0,.3s.4,0,.5-.1c.6-.6,1.2-1.2,1.8-1.9s.3-.3.4-.4,0-.3,0-.3-.4,0-.5.1h0Z"/>
      <path class="st13" d="M128.2,92.1c.3-.3.7-.6,1.1-.9s.4-.3.6-.4.4-.3.7-.3c1,0,1.9.1,2.9.2s.4,0,.5-.1.1-.2,0-.2c-.6,0-1.2-.1-1.8-.2s-1.2-.1-1.7,0-1,.5-1.4.8-.9.7-1.3,1.1.1.1.2.1c.2,0,.4,0,.5-.2h0Z"/>
      <path class="st13" d="M133.8,91.2c.8,1.1,1.6,2.2,2.5,3.2s.9,0,.7-.3c-.9-1-1.7-2.1-2.5-3.2s-.9,0-.7.3h0Z"/>
      <g>
        <path class="st2" d="M140.4,93.6c-.6.2-.9,1.1-.4,1.6.3.3.7.4,1.1.5.8.1,1.6,0,2.4-.2.3,0,.7-.3.7-.6,0-.4-.3-.7-.7-.8-1-.4-1.9-.7-3.1-.5"/>
        <path class="st13" d="M140.3,93.5c-.6.2-1,.9-.8,1.5s1.3.9,2,.9,1,0,1.5-.1.9-.2,1.2-.4.5-.6.3-.9-.6-.5-.9-.6c-1-.4-2-.6-3-.4s-.4,0-.4.3.2.2.3.2c.7-.1,1.4,0,2.1.2s.6.2.9.4.5.4.4.6-.4.3-.6.4c-.3,0-.7.1-1.1.1-.6,0-1.5,0-1.8-.5s-.2-1.1.3-1.3.3-.2.2-.3-.4,0-.5,0h0Z"/>
      </g>
      <path class="st13" d="M124.4,100.9c1.8-1.1,4.5-.7,6.4,0s1.8.9,2.6,1.5,1.5,1.3,1.8,2.3.8,0,.7-.2c-.2-1.1-1.1-1.9-2-2.6s-2-1.2-3.1-1.6c-2.1-.7-4.9-.9-6.8.3s.2.4.4.2h0Z"/>
      <g>
        <path class="st13" d="M122.3,104.8c1.4-.2,2.8-.5,4.2-.2s2.1.9,2.9,1.8,1.3,2,1.6,3.1.3,1.3.3,2,0,.7,0,1.1,0,.8,0,.9h.6c0-.1,0-.1,0-.1v.2c0,0,0,0,0,0l-.3.3h0c.4-.1.3-.6-.1-.5h0c-.1,0-.3.1-.3.3s0,.2.1.2c.2.1.4,0,.6-.1.2-.2.2-.5.2-.8,0-.4,0-.8,0-1.2,0-.7-.1-1.4-.3-2.1-.3-1.3-.9-2.6-1.8-3.6s-1.9-1.6-3.1-1.9-3-.1-4.5.1-.4,0-.4.3.2.2.3.2h0Z"/>
        <path class="st13" d="M121,106.4c1.3-.3,2.6-.7,4-.4s2.4,1.3,3.1,2.5c1.2,2.2,1.3,5,.3,7.3s.6.2.7,0c1.1-2.6.9-5.6-.6-8s-1.9-2-3.3-2.2-2.9.1-4.2.5-.3.5,0,.4h0Z"/>
        <path class="st13" d="M123.8,106.2c-1,.1-1.9.7-2.4,1.6s-.4,2.1.1,2.9.9,0,.7-.3c-.5-.7-.5-1.7-.2-2.4s.9-1.2,1.7-1.3.4-.1.4-.3-.2-.3-.3-.2h0Z"/>
        <path class="st13" d="M126,115.1c.7.2,1.4,0,2-.3s1.1-.8,1.5-1.3,0-.2,0-.3-.4,0-.5.1c-.6.7-1.5,1.6-2.5,1.3s-.4,0-.5.1,0,.2,0,.3h0Z"/>
      </g>
      <g class="st25">
        <g class="st38">
          <path class="st29" d="M124.8,105.7c-.2.6-.3,1.2-.4,1.7s-.3,1.2-.4,1.8c0,.9.9,1.1,1.6,1s.6-.2.9-.4.2-.1.4-.2.6-.3.4-.2l-.6.2c0,0-.4-.1-.5-.1s0,.1,0,.1c0,.2,0,.4,0,.6,0,.4-.1.8-.2,1.2s-.3.7-.4,1-.5.8-.5,1.2c.2.8,1.4.5,1.8.2s.3-.3.4-.5c.1-.5-.2-.9-.7-1s-1.3.2-1.4.7h0c.1,0,.2-.2.3-.3h0c.6.1,1.2.2,1.8.3h0c0,.2-.1.4-.2.6.8-1.2,1.3-2.5,1.3-4s-.2-1.5-1.1-1.7-.9,0-1.3.3-.3.2-.5.3c0,0-.2,0-.3.1-.2,0-.2,0,0,0h.6s0,0,0,0l.5.2h0c0,0,.2.2.3.3,0,0,0,0,0,0,0,0,0-.1,0-.2,0-.1,0-.3,0-.4,0-.3.1-.6.2-.9.1-.6.3-1.3.5-1.9s-.6-.8-1-.7c-.6,0-1,.4-1.2.9h0Z"/>
        </g>
      </g>
    </g>
  </g>
</svg>