<?xml version="1.0" encoding="UTF-8"?>
<svg id="Layer_1" xmlns="http://www.w3.org/2000/svg" xmlns:xlink="http://www.w3.org/1999/xlink" version="1.1" viewBox="0 0 159.23 221.82">
  <!-- Generator: Adobe Illustrator 29.0.0, SVG Export Plug-In . SVG Version: 2.1.0 Build 186)  -->
  <defs>
    <style>
      .st0 {
        fill: none;
      }

      .st1 {
        fill: #6e7a86;
      }

      .st2 {
        fill: #7a8692;
      }

      .st3 {
        fill: #9ca6ae;
      }

      .st4 {
        fill: #8f9ca8;
      }

      .st5 {
        fill: #9aa4ac;
      }

      .st6 {
        fill: #9cdbe5;
      }

      .st7 {
        fill: #596773;
      }

      .st8 {
        fill: #86929e;
      }

      .st9 {
        fill: #4ca87c;
      }

      .st10 {
        fill: #86939e;
      }

      .st11 {
        fill: #72808b;
      }

      .st12 {
        fill: #61becc;
      }

      .st13 {
        fill: #377a64;
      }

      .st14 {
        fill: #6f7a81;
      }

      .st15 {
        fill: #97a2ab;
      }

      .st16 {
        fill: #494f55;
      }

      .st17 {
        fill: #383b3f;
      }

      .st18 {
        fill: #bfc4c6;
      }

      .st19 {
        fill: #717c83;
      }

      .st20 {
        fill: #a4adb5;
      }

      .st21 {
        clip-path: url(#clippath);
      }
    </style>
    <clipPath id="clippath">
      <rect class="st0" x="-171.74" y="3.74" width="158.8" height="126.95"/>
    </clipPath>
  </defs>
  <g class="st21">
    <g>
      <path class="st9" d="M-53.98,57.55c6.87,3.54,14.37,1.57,20.61-2.33,3.26-2.04,6.18-4.56,9.25-6.88,3.23-2.44,6.63-4.43,10.41-5.89,2.06-.8,4.18-1.45,6.31-2.05,1.6-.45,3.69-1.12,5.08.16.86.79,3.6-.36,2.67-1.21-2.47-2.26-5.99-1.32-8.87-.49-3.82,1.1-7.63,2.4-11.15,4.28-6.89,3.67-12.17,9.9-19.38,13-4.14,1.78-8.59,1.97-12.66-.12-.63-.33-1.5-.18-2.07.22-.41.29-.85.99-.2,1.33h0Z"/>
      <path class="st9" d="M-54.85,58.81c4.19,1.45,8.5,2.75,12.92,1.57,4.09-1.09,7.67-3.8,11-6.3,3.63-2.73,6.67-6.33,10.59-8.64s8.23-3.69,12.37-5.2c2.47-.9,4.99-1.76,7.56-2.33,2.35-.52,4.73-.61,6.87.63.81.47,3.48-.71,2.31-1.4-3.56-2.07-7.93-1.19-11.67-.13-4.42,1.25-8.71,2.95-12.98,4.65s-7.79,3.62-11.11,6.6-6.81,5.95-10.66,8.42c-2.12,1.36-4.39,2.55-6.97,2.55-2.72,0-5.38-.94-7.92-1.82-.66-.23-1.46-.1-2.05.27-.33.21-.94.89-.26,1.12h0Z"/>
      <path class="st13" d="M-57.66,84.84c1.61,1.55,3.64,2.49,5.89,2.66s4.21-.49,6.17-1.59c.96-.53,1.53-.27,1.94.68.24.56.41,1.15.53,1.75.27,1.28.33,2.58.38,3.88.08,2.29.08,4.71,1.06,6.83,2.14,4.63,8.13,5.53,12.66,4.85,2.59-.39,5.06-1.28,7.28-2.69,2.34-1.49,4.24-3.53,6.21-5.46,2.14-2.09,4.61-4.3,7.64-4.87,3.26-.61,6.39,1.06,8.74,3.19.73.66,2.61-.42,1.67-1.27-3.9-3.53-9.16-4.78-13.96-2.31s-7.76,7.62-12.6,10.19c-4.25,2.25-11.91,3.15-15.03-1.48-2.71-4.01-.48-9.47-2.65-13.72-.59-1.15-1.56-1.78-2.88-1.62s-2.34,1.11-3.55,1.59c-2.53,1-5.57.29-7.51-1.58-.72-.69-2.77.21-1.99.97h0Z"/>
      <path class="st9" d="M-28.62,108.72c3.16-.67,6.87-1.29,9.45,1.18,2.03,1.95,1.74,5.34,4.04,7.09s5.42.48,7.72-.44c2.77-1.11,5.33-2.69,7.57-4.66.46-.4.32-.72-.23-.86-.59-.15-1.6.15-2.05.55-2.11,1.86-4.49,3.34-7.14,4.3-1.46.53-2.67.75-3.78-.55-.93-1.09-1.26-2.54-1.77-3.84-2.31-5.91-9.09-5.06-14.14-3.98-.36.08-1.43.47-1.29,1s1.29.29,1.61.22h0Z"/>
      <path class="st9" d="M-68.64,51.68c1.2-1.72,2.98-3.05,5.13-3.18s4.13.83,5.62,2.23c3.36,3.15,2.97,7.81,2.16,11.94s-1.98,8.46-.5,12.55c1.21,3.34,4.71,8.18,8.7,5.78.86-.52,1.55-1.32,2.27-2.01.98-.94,1.96-1.88,2.93-2.82.79-.76,1.65-1.88,2.62-2.42,1.43-.8,1.86,1.33,2.05,2.34.22,1.15.33,2.32.34,3.49,0,1.25-.27,2.61.08,3.84.5,1.77,2.13,2.51,3.86,2.17.94-.18,1.79-.62,2.52-1.23.81-.67,1.44-1.56,2.43-1.98,2.05-.88,4.71.3,5.35,2.44.57,1.88.1,3.93.99,5.73.84,1.71,2.49,2.32,4.32,1.94,2.31-.48,3.66-2.09,4.67-4.1s2.33-3.93,4.15-5.45c3.48-2.9,7.9-4.42,12.13-5.87.42-.14,1.11-.57.8-1.07s-1.54-.1-1.9.02c-3.92,1.34-7.87,2.79-11.34,5.09-1.59,1.06-3.06,2.28-4.3,3.74-1.37,1.62-1.97,3.62-3.21,5.29-.27.36-.66.97-1.17.89-.39-.05-.81-.56-1.02-.86-.62-.89-.78-2.03-.86-3.08-.16-2.14-.25-4.24-2.25-5.5-1.66-1.04-3.76-1.19-5.65-.81-2.15.43-3.6,1.53-5.18,2.97-.48.44-.4.57-.72.12-.3-.42-.58-.72-.73-1.23-.36-1.23-.07-2.58-.08-3.84,0-1.85.02-5.25-1.8-6.35-1.72-1.04-4.12-.26-5.62.81-2.09,1.49-3.87,3.58-5.72,5.36-.44.43-.88.87-1.33,1.28l-.13.12c-.33.24-.36.29-.09.15.51.09-.31-.39-.45-.5-.86-.65-1.63-1.47-2.26-2.34-1.33-1.84-2.07-4.04-2.21-6.29-.27-4.53,1.62-8.86,1.78-13.36s-2.23-8.89-6.83-10.27-9.62.52-12.24,4.29c-.7,1,2.18.7,2.68-.02h0Z"/>
    </g>
  </g>
  <g>
    <rect class="st6" x=".1" width="158.8" height="221.82"/>
    <path class="st12" d="M13.64,58c2.59-.82,5.24-1.69,7.97-1.8s5.1.79,7.45,2.16c1.84,1.07,3.72,2.23,5.88,2.47s4.22-.35,6.12-1.2,3.59-2.17,5.56-2.7c2.31-.63,4.56,1.05,6.42,2.2,4.27,2.66,8.95,3.13,13.83,2.11,5.27-1.1,9.87-3.79,14.84-5.71,1.23-.47,2.5-.84,3.81-.43,1.1.35,1.92,1.2,2.7,2,1.58,1.64,3.06,2.68,5.43,2.61,5.05-.16,9.25-3.46,14.15-4.17s8.46,3.18,12.95,4.16c2.34.51,4.69.09,6.84-.91,1.09-.51,2.11-1.17,3.18-1.73,1.24-.64,2.14-.65,3.4.05,2.2,1.21,3.75,2.89,6.43,2.86,2.37-.02,4.88-.95,6.44-2.77.42-.49-.37-.55-.7-.53-.58.02-1.53.23-1.94.71-1.86,2.17-3.97,1.17-5.98-.25-1.72-1.22-3.34-2.06-5.5-1.79s-3.92,1.31-5.75,2.33c-.86.48-1.74,1-2.75,1.02-1.1.01-2.18-.34-3.19-.74-2.04-.81-3.91-2-5.94-2.82s-4.32-1.09-6.59-.8-4.62,1.13-6.82,2-4.7,2.21-7.1,2.14-3.55-2.41-5.26-3.69-4.04-1.28-6.1-.83c-5.03,1.1-9.44,4.19-14.35,5.68-2.54.77-5.24,1.14-7.88.7-2.49-.41-4.48-1.65-6.59-2.94-1.8-1.1-3.69-1.95-5.84-1.84s-4.1.89-5.95,1.85-3.95,2.56-6.23,2.14c-2.5-.46-4.55-2.21-6.8-3.29-5.25-2.52-11.15-.91-16.4.76-.29.09-1.45.4-1.32.88s1.34.18,1.58.1h0Z"/>
    <path class="st12" d="M46.98,81.07l-9.24,1.54c-1.01.17-2.1.37-2.81,1.11-1.81,1.87.39,5.01,2.82,5.92s5.38,1.07,7.03,3.08c1.62,1.98,1.3,5.03,2.86,7.05.69.89,1.69,1.5,2.72,1.95,5.91,2.57,12.95.42,19.06,2.46,3.91,1.3,7.25,4.26,11.34,4.75,5.97.71,11.04-3.93,16.46-6.54,4.86-2.34,10.3-3.1,15.44-4.74s10.31-4.55,12.51-9.47c.87-1.96,1.15-4.42-.16-6.12-.65-.84-1.61-1.38-2.56-1.85-6.84-3.34-14.69-3.86-22.3-3.82-9,.06-17.98.83-26.95,1.61-8.28.72-16.55,1.43-24.83,2.15"/>
    <path class="st12" d="M7.69,72.15c1.53-1.37,3.65-3.57,5.83-3.67,1.91-.09,3.66,1.14,5.26,2.02,1.41.77,2.86,1.43,4.5,1.41,1.73-.03,3.4-.69,4.84-1.62.39-.25.76-.52,1.15-.77.19-.12.39-.24.59-.35-.36.07-.23.13.4.2.81.31,1.52.93,2.19,1.46,1.42,1.13,2.79,2.45,4.48,3.17,1.59.67,3.27.63,4.93.22,1.76-.44,3.78-2.01,5.59-1.45.59.18,1.49-.14,2.02-.39.27-.13.97-.5.37-.69-1.5-.46-3.12-.14-4.58.34s-3.02,1.62-4.61,1.31-3.04-1.49-4.3-2.52c-1.2-.98-2.51-2.31-4.07-2.63-1.4-.29-2.94.15-4.21.76-.66.32-1.25.73-1.85,1.13-.73.49-1.16.81-2.05.61-3.05-.7-5.25-3.26-8.54-3.31-4.12-.06-7.6,2.43-10.53,5.05-.48.43.43.43.67.41.61-.05,1.47-.25,1.94-.68h0Z"/>
    <path class="st12" d="M118.27,69.25c2.18-1.45,4.92-1.86,7.43-1.12s4.53,2.6,6.79,3.88,4.61,1.83,7.18,1.28c2.7-.58,5.59-2.84,8.38-1.64,1.17.5,3.37-1.18,1.69-1.89-3.12-1.33-6.17.18-9.11,1.21-1.48.52-2.86.68-4.36.14-1.36-.5-2.57-1.34-3.76-2.14-2.39-1.6-4.79-2.99-7.72-3.2s-5.93.59-8.42,2.25c-.52.34-.72,1.03-.17,1.44.59.44,1.53.17,2.07-.19h0Z"/>
    <path class="st12" d="M104.25,109.19c1.68-.86,3.54-1.83,5.46-1.91s3.27.94,4.71,1.99c1.13.82,2.29,1.64,3.71,1.86,1.52.24,3.07-.22,4.36-1.01.92-.56,2.14-2.06,3.24-2.1,1.25-.05,2.68,1.48,3.8,1.94,1.5.61,3.12.44,4.61-.15,1.27-.51,3.42-2.57,4.8-1.65.56.37,1.32.26,1.91,0,.23-.1,1.33-.76.78-1.13-1.49-1-3.25-.85-4.89-.27-.98.35-1.84.9-2.74,1.4-.95.53-1.59.71-2.6.21-1.47-.73-2.67-1.86-4.39-1.96s-3.15.58-4.47,1.53c-.64.46-1.25,1.1-1.97,1.44s-1.24.11-1.91-.24c-1.55-.8-2.77-2.14-4.39-2.84-3.92-1.71-8.3.27-11.81,2.06-.47.24-.78.75-.26,1.09.55.37,1.55-.03,2.05-.28h0Z"/>
    <path class="st12" d="M139.23,92.21c2.06-.72,4.2-1.48,6.41-1.54s4.02.86,6,1.68c3.78,1.56,7.83.85,11.58-.43.35-.12,1.12-.44.84-.9-.25-.41-1.6.03-1.88.12-2.1.72-4.35,1.15-6.55.59-1.97-.5-3.68-1.68-5.68-2.09-3.98-.82-8.04.52-11.76,1.81-.35.12-1.12.44-.84.9.25.41,1.6-.03,1.88-.12h0Z"/>
    <path class="st12" d="M52.33,109.79c-1.62-2.62-4.57-3.87-7.6-3.79-1.52.04-3.04.41-4.41,1.07-.77.38-1.44.86-2.08,1.43-.14.13-.28.26-.43.38-.2.16-.19.16.03,0-.48-.02-1.14-.48-1.57-.67-1.97-.83-3.92-1.16-6-.51-.85.27-1.64.68-2.42,1.1-1.04.56-1.53.69-2.67.3-1.95-.68-3.49-1.24-5.58-.79s-3.74,1.5-5.41,2.64l2.58-.25c-.17-.53-.18-.94-.02-1.48.25-.79-2.61-.42-2.88.44-.2.65-.21,1.17,0,1.81.27.83,2.17.04,2.58-.25,1.64-1.13,3.05-2.11,5.07-1.37,1.45.52,2.77,1.1,4.34.9s2.94-1,4.38-1.7c1.82-.88,3.53.54,5.24,1.08,1.39.44,2.93.15,4.13-.65,1.05-.69,1.76-1.71,3.05-2,2.54-.57,5.42.92,6.75,3.07.52.83,3.25-.21,2.9-.78h0Z"/>
    <path class="st12" d="M28.89,90.24c-1.59-.77-2.89-2-4.46-2.8-1.69-.86-3.54-.89-5.33-.31s-3.4,1.74-5.13,2.56c-2.09,1-3.84.34-5.67-.94-.55-.38-1.33-.25-1.91,0-.24.1-1.32.74-.79,1.11,1.68,1.17,3.49,2.06,5.59,1.97s3.93-.97,5.71-1.96c1.61-.9,3.09-2.06,4.96-1.2,1.69.78,3.05,2.12,4.73,2.93.6.29,1.51.05,2.05-.29.38-.23.89-.78.27-1.08h0Z"/>
    <g>
      <path class="st14" d="M128.87,89.46v2.37c-.19-.04-.14.1-.19.21-.29.58-.59,1.02-.91,1.57-.06.04-.16.02-.27.14-.09.1-.07.18-.1.23-.2.12-.13.13-.15.15-.11.09-.11.11-.15.15s-.26.01-.22.22l-.15.07c-.24.13-.67.33-.74.59-.02,0-.05,0-.07,0-.16.06-.37.04-.37.3-.04.01-.11-.01-.15,0-1.25.49-2.28,1.27-3.66,1.63-.18.05-.21-.09-.18.22-.05,0-.1,0-.15,0,0,0-.09-.11-.16-.06l-1.32.51c-.07,0-.15,0-.22,0-.15,0-.28.01-.37.15-.05,0-.1,0-.15,0-.17,0-.34-.01-.44.15-.05,0-.1,0-.15,0-.35-.01-.97.25-1.33.37-.07,0-.15,0-.22,0-.17,0-.35,0-.52,0v.22c-.1,0-.2,0-.3,0-.14,0-.67-.23-.67.15-.1,0-.2,0-.3,0-.15,0-.67-.23-.67.15-.07,0-.15,0-.22,0-.62.02-1.1.09-1.7.15-.05,0-.1,0-.15,0-.41.04-.87-.08-1.26.15-.2,0-.39,0-.59,0-.62,0-1.43.11-2,.07-.06,0-.26-.23-.22.07-.22,0-.44,0-.67,0-1.5-.01-3.01-.02-4.51,0-.22,0-.44,0-.67,0v-.15c-.08-.03-.14.07-.15.07-.39.03-.83-.08-1.26-.07-.15,0-.3,0-.44,0-.25-.18-.59-.14-.89-.15-.05,0-.1,0-.15,0-.09-.11-.22-.11-.34-.14-.46-.1-.93-.17-1.36-.16-.05,0-.1,0-.15,0,.01-.27.04-.2-.18-.22-.56-.06-1.24-.39-1.81-.67-.05-.03-.19-.03-.22-.07-.02-.02.02-.13,0-.15s-.13.02-.15,0c-.02-.02-.05-.11-.07-.15-.22-.41-.1-.71.07-1.11.04-.01.13.02.15,0s-.01-.12,0-.15c0-.01.05,0,.07,0,.29-.13.65-.3.96-.37v.22c-.27-.05-.36.14-.52.23-.25.14-.49.12-.56.52-.09.49.13.37.27.45,0,0-.03.11.06.14,2.97,1.22,7.16,1.03,10.37.97.07,0,.15,0,.22,0l.06.05.09-.05c.07,0,.15,0,.22,0,2.12-.06,4.24-.24,6.31-.29.07-.01.04-.15.05-.15.04-.03.71-.04.89-.07.04,0,.1,0,.15,0v-.15c.12-.01.25,0,.37,0,.91-.01,1.86-.25,2.78-.44,2.42-.51,5.04-1.23,7.27-2.35,1.66-.83,3.18-2,3.86-3.84.08-.23.23-1.53.15-1.66h.15Z"/>
      <path class="st3" d="M128.87,91.83v.22c-.21.35-.36.73-.6,1.06-.18.24-.28.34-.51.49-.05.08-.02.16-.14.27-.1.09-.18.07-.23.1-.12.2-.13.13-.15.15-.09.11-.11.11-.15.15s-.01.25-.22.22c-.04-.21.18-.18.22-.22s.04-.06.15-.15c.02-.02-.05-.02.15-.15.03-.05.02-.13.1-.23.11-.12.2-.1.27-.14.32-.55.62-.98.91-1.57.05-.1,0-.25.19-.21Z"/>
      <path class="st3" d="M128.58,88.87c.21-.05.14.2.3.3v.3h-.15s-.13.03-.15-.05c-.03-.11,0-.4,0-.54Z"/>
      <path class="st2" d="M56.92,27.42c.24-.06,1.57.35,1.89.44.38.1.77.18,1.15.25l2.02.94c.23.02.06-.19-.04-.26l-1.55-1.22c1.24.29,2.31.75,3.51,1.04.13.03.18.08.33,0-.01.22.43,1.03.63,1.04.06,0,.02-.21.19-.15,0,0,.1-.02.14.06.08.16.15.37.23.53v.07h-.15s.22.52.22.52c-.15.01-.3,0-.45-.03-.65-.18-1.19-.63-1.94-.47-.3.06-.35.36-.3.64.2,1.13,2.61,3.48,3.64,3.99.69.34,2,.52,2.67.12.05-.03.4-.3.42-.32.39-.64-.99-2.07-1.51-2.41-.08-.26.33-.34.51-.33.01-.07,0-.15,0-.22,0-.05,0-.1,0-.15.28-.07.51-.13.52-.44.17.04.16-.08.2-.2.25-.75.11-1.14-.2-1.8.36.18,1.03.21,1.43.13.15-.03,1.14-.43,1.26-.51.2-.13.22-.41.49-.43.68.77.82,1.35,1.33,2.14-.21,0-.24-.06-.22.18.03.33.25.65.29.97.04.28,0,.59,0,.88.02.3.22,1.65-.33,1.66-.5.01-.74-1.47-.9-1.84-.06-.13-.6-1.1-.66-1.12-.17,0-.17.13-.19.26-.08.65.28,2.61.64,3.14.61.91,1.38.67,2.18.15-.09.43.04,1.25.08,1.73.51,5.65-.25,10.62-1.03,16.14-.56,3.94-.9,7.89-.53,11.9.09.97.52,2.1.83,3.01.19.54.31,1.21.79,1.54.11.27.17.24.37.37-.03.16.08.16.18.22.27.17.66.37.97.37.15,0,.2-.07.25-.08.09-.01.23.02.3,0,.23.81.02,1.67.53,2.39.41.59,1.01.96,1.73.94,1.98-.05,3.88-2.28,5.59-3.21.69-.38,1.48-.46,2.21-.64-.61.93-1.3,1.82-1.85,2.77-.85,1.13-1.84,2.69-1.92,4.14,0,.1-.07.46.11.41l1.22-1.37c1.22-1.56,2.62-3.5,4.71-3.8.22-.03.97,0,1.03-.08.08-.8-.98-2.26-1.79-2.29-.45-.02-1.02.12-1.44.22.16-.33.45-.69.7-.96.73-.81,1.99-1.95,3-2.32.32-.12.59-.08.88-.19.49.04.89.08,1.41.07.26.07.69.21.94.22.11,0,.16-.07.17-.07.05,0,.1,0,.15,0v.15c.15,0,.3-.01.44,0,.12,0,.25,0,.37,0,.13,0,.27,0,.3,0,.11,0,.24.06.37.07.09,0,.08,0,.15,0,.05,0,.21,0,.22,0,.07.06-.16.11.22.15.1,0,.2-.01.3,0,0,0,.02.06.15.07.24.02.5-.01.74,0v.15c.09.03.14-.07.15-.07.03,0,.14,0,.15,0,.06.07-.1.03.15.15.17.08.27.1.44.15,0,0,.05.05.15.07,2.45.73,4.98,1.62,7.17,3,.38.24.85.69,1.19.84.05.02.1.05.15.07-.02.2.13.18.23.25.23.15.45.35.73.42.04.05.1.09.15.15.16.2.13.19.37.3.1.04.12.05.22.07-.03.14,0,.17.15.15.65.72,1.52,1.3,2.22,1.96,3.3,3.11,5.64,6.55,7.28,10.76.23.6.4,1.1.68,1.69.04.08,0,.21.06.31s.21.1.26.15c.02.02.05.05.07.07,0,0-.02.1.02.13.47.38,1.48.57,2.09.61,2.16.15,4.5-.1,6.65.22.34.05.46.25.63.51,0,.07,0,.15,0,.22,0,.15-.03.43,0,.54.02.08.14.04.15.05.08.13-.07,1.44-.15,1.66-.67,1.84-2.2,3-3.86,3.84-2.23,1.12-4.85,1.84-7.27,2.35-.92.19-1.86.43-2.78.44.77-.46,1.62-.73,2.41-1.18,1.28-.73,4.22-2.94,4.98-4.12.07-.11.36-.48.12-.54-.27-.07-.49.37-.77.44-.94.24-.97.46-1.71.92-2,1.26-4.07,2.49-5.98,3.86-.13.09-.17.16-.15.33-.15.1-.39.28-.37.47l.07.04s.03.14-.05.15c-2.07.05-4.19.23-6.31.29-.04-.25.13-.12.26-.14,3-.63,6.65-2.38,8.84-4.55.15-.15.56-.56.59-.74.05-.25-.44-.01-.52.04.02-.26-.06-.12-.19-.08-1.89.69-3.6,1.98-5.38,2.83-.89.42-1.64.8-2.5,1.27-.35.19-.91.37-1.25.6-.13.09-.17.17-.15.33-.27.11-.46.08-.3.44-3.22.06-7.4.25-10.37-.97-.09-.04-.05-.14-.06-.14l.3-.96c.16-.09.25-.28.51-.23v-.22c1.14-.25,2.33-.63,3.52-.89.16-.03.26,0,.26-.22.05,0,.1,0,.15,0,.9.02,1.62-.23,2.49-.43.22-.05.6.1.61-.24.05,0,.1,0,.15,0,.54.02,1.62-.13,2.07-.48.08-.06.06-.18.07-.18.1-.08.14-.14.15-.15.01-.01.22-.11.3-.15.43-.25.85-.36,1.18-.78.89-1.13.65-3.24.67-4.62,0-.17,0-.35,0-.52,0-.37-.02-.74,0-1.11.02-.28,0-.55.1-.83s.63-.93.13-1.02c0,.22-.27.92-.44,1-.13.06-.28.01-.39.05-1,.39-2.22,1.01-3.21,1.52-.16.08-.42.34-.52.37-1,.29-1.74.96-2.61,1.31-.18.07-.35,0-.51.08s-.56.49-.76.57-.46.02-.56.07c-.03.02-.07.17-.16.24-.6.44-1.57.54-2.26.85-2.74,1.21-4.9,1.73-7.99,1.56-.71-.04-1.08-.24-1.64-.36-.66-.13-1.11-.17-1.77-.44-.62-.26-1.18-.66-1.8-.9-.1-.69-.15-1.31-.22-2-.03-.27-.11-.1-.15-.15,0,0,0-.18,0-.22.01-.12.04-.01,0-.22-.09-.44-.26-.89-.37-1.33-.4-1.53-.84-2.96-1.7-4.33-.11-.18-.7-1.01-.81-1.11-.1-.09-.15-.14-.3-.11.33.77.92,1.41,1.28,2.16.49,1.02.96,2.36,1.21,3.45.03.13-.04.28.17.23-.03.61.15,1.95.29,2.54.02.08.15.04.15.05v1.07c0,.34.19,1.22.22,1.66.02.22-.01.45,0,.67h.15c.03,1.46.31,3.4.67,4.81.04.16.12.27.15.37.02.06-.02.17,0,.22.02.06,0,.14.07.19.05.09.18.08.23.11.67.44,1.55.35,2.36.71.24.11,1.34.7,1.4.89.14.46-.1.42-.19.56-.07.12.02.32-.17.54-.33.4-1.28,1.22-1.78,1.29.09-.1.28-.28.37-.37.5-.49.74-.8,1.18-1.33.03-.03.29,0,.22-.26-.1-.36-.27.08-.3.11-.07.09-.15.22-.22.3l-.94-.95c-.38.08-.54-.13-.81-.22-.84-.28-1.8-.69-2.68-.75-.05-.31.6,0,.36-.36-.12-.18-.99-.13-1.21-.16-.15-.02-.29-.11-.49-.14.33-2.44.1-4.99-.23-7.43-.07-.51-.2-1.06-.29-1.56-.43-2.36-.33-4.48-1.93-6.5-1.44-1.82-2.89-1.63-4.95-1.15-.04.01-.13-.01-.15,0h-.15s0,.15,0,.15c-1.94,1.03-4.23,5.13-4.66,7.25-.18-.05-.2.15-.22.3-.02.13.02.3,0,.44h-.15c-.03.07.07.14.07.15-.01.13-.06.29-.07.44h-.15c0,.1,0,.2,0,.3-.01.24.02.5,0,.74h-.15c-.05.18,0,.39,0,.52,0,.24.02.5,0,.74h-.15c-.03.07.07.14.07.15-.07.84-.12,1.51,0,2.37-.12.08-.07.28-.08.41-.01,1.03-.02,2.39.34,3.36.05.14.77,1.45.84,1.53.24.26,1.36.87,1.73,1.01.45.17,1.13.24,1.51.4.19.08.05.25.46.32.21.03.44.04.67.07v.15s.3-.07.3-.07c.2.04.38.06.59.07v.15c.11.05.2-.07.22-.07.21-.02.45.05.67.07v.15c.12,0,.25,0,.37,0,.14,0,.78-.02.81,0,.06.04-.16.12.22.15.49.03.99.06,1.48.07v.15c.12.06.26-.07.3-.07.47-.03.89.07,1.33.07-.04.22.11.14.26.15.71.02,1.51.03,2.23,0,.14,0,.3.08.26-.15.43-.02.74-.12,1.11-.15,0,0,.08.1.15.07v-.15c.16-.02.36.03.52,0,.22-.04.43-.17.66-.15v-.14c.07-.01.15,0,.23,0,.14-.02.17.06.15-.15.05,0,.1,0,.15,0s.1,0,.15,0c-.32.37-1.48.87-2.04.95-3.39.51-6.97-.08-10.27-.5-1.18-.15-2.46-.16-3.61-.53-.71-.22-1.23-.5-1.55-1.19-.21-.47-.49-1.21-.56-1.69-.02-.12-.04-.23-.15-.3,0-.07,0-.15,0-.22-.02-.18-.03-.59-.22-.52-.15-.63-.27-1.28-.3-1.92,0-.2,0-.4,0-.59h-.15c-.01-.47-.03-1.02,0-1.48,0,0,.1-.07.07-.15h-.15c0-.17,0-.35,0-.52h.15c.05-.1-.07-.2-.07-.22-.05-.66-.02-1.47,0-2.14.38,0,.16-.5.15-.67,0-.17,0-.35,0-.52.17.04.18-.08.2-.2.42-1.99.81-3.25,1.88-5,.16-.27.5-.49.5-.86-.23-.23-.73.81-.81.92-.14.21-.43.49-.55.71-.26.46-.46,1.17-.75,1.62-.03.05-.8.6-.9.65-3.29,1.9-7.85,1.95-11.31.48-.72-.31-1.4-.51-2.07-.81-.39-.18-1.35-.92-1.48-.96-.21-.06-.38.03-.64-.1-.19-.1-.35-.4-.53-.51s-.4-.13-.58-.23c-.53-.3-1.61-1.23-2.12-1.65-.82-.67-1.64-1.38-2.4-2.18-.23-.24-.47-.46-.67-.66-.25-.27-.21-1.02-.77-1.04-.11-.62-.14-.9-.15-1.55,0-.22,0-.44,0-.67h-.15c-.04-.9.03-1.63.07-2.51,0-.06,0-.13,0-.15.03-.44.05-.89.07-1.33h.15c0-.2,0-.39,0-.59,0-.22-.01-.45,0-.67h.15c0-.1,0-.2,0-.3,0-.12,0-.25,0-.37.16.01.22-.08.31.1.16.34.14.62.23.88,1.12,3.24,3.62,7.7,7.7,7,2.3-.39,6.23-3.59,7.66-5.51,2.28-3.06,3.02-6.94,3.73-10.61.17-.87.52-1.74.68-2.64,1.02-5.72,1.72-11.62,3.23-17.25.1-.37.63-1.6.55-1.87-.02-.06-.09-.14-.16-.11-1.12.54-2.4,1.06-3.6,1.39l.22-.3c-.66,0-1.3.09-1.96.08-2.8-.04-5.81-.97-8.04-2.64-.2-.15-.67-.29-.72-.58-.03-.16.07-.13.17-.09.63.22,1.23.54,1.88.7,1.99.51,4.58.57,6.57.1.26-.06,1.85-.43,1.88-.56l-.12-.18c-1.81.27-3.78.29-5.61.22-1.93-.08-4.21-.29-6.03-.96-.02,0-.07-.09-.22-.15-.02,0-.05,0-.07,0,.08-.26-.3-.3-.52-.44-.11-.07-.21-.21-.37-.3-.07-.04-.14-.06-.22-.07-.04-.26-.11-.1-.15-.15-.61-.64-1.56-1.49-1.46-2.46.02-.18.18-.71.43-.72.13.24.56.14.81.15.17,0,.35,0,.52,0,.16.17.39.13.59.15.05,0,.1,0,.15,0,.13,0,.07.01.22,0,.07,0,.15,0,.22,0v.15s.1,0,.15,0c1.97.32,3.66,1.41,5.8,1.18.15-.02,1.36-.31,1.41-.36s.07-.14,0-.15c-.39-.02-.8.03-1.18,0-1.7-.15-3.32-.93-5.03-1.18-.14-.02-.3.09-.26-.15,1.11-.03,2.44.07,3.49-.39.17-.08.61-.35.58-.53-.04-.17-.86-.66-1.07-.78-.46-.27-.96-.48-1.43-.71-.1-.05-.2.03-.16-.17.91.13,1.72.7,2.51,1.15.14.08.3.37.52.24.05-.03.22-.43.08-.54-.26-.21-1.52-.68-1.91-.83-.16-.06-.33-.07-.52-.15-.11-.05-.2.04-.16-.17,1.01.08,1.9.69,2.88.88l.15-.51c1.18.47,2.06.93,3.15,1.54.07.04.9.51.66.16-.08-.11-1.8-1.16-2.04-1.28-.3-.15-1.31-.6-1.59-.63-.14-.02-.29-.08-.25.14-.82-.32-1.66-.6-2.51-.81-.11-.1,0-.14.11-.15.22-.02,1.05.23,1.32.3.38.11.74.36,1.15.29.33-1.24-1.67-2.85-2.72-3.01-.79-.12-1.05.15-1.7.26-.5.09-1.07.02-1.57.24.02-.19-.01-.4,0-.59.07,0,.15,0,.22,0,.2,0,.46.05.59-.15.06,0,.28.01.3,0h.22s0-.15,0-.15c.06,0,.21.01.22,0h.15s0-.15,0-.15c.16-.05.27-.07.44-.07,0,0,.08.12.15.04l.07-.19c.09-.02.55-.11.59-.15h.15s0-.15,0-.15c.22-.07.42-.29.44-.3ZM69.85,31.76s.36-.45.37-.48c.2-.68-.27-.84-.5-.13-.07.21-.2.79.13.6ZM59.85,33.14c-.07-.03-1.02-.43-.75-.1.22.26.84.45,1.14.64.45.28,1.12.74,1.53,1.06.35.29.74.82,1.07,1.08.1.08.15.13.3.11l-.52-.7c-.89-.68-1.75-1.59-2.76-2.08ZM51.5,35.57c-.09.03-.38.32-.41.41-.16.54.26,1.08.61,1.43.59.59,2.33,1.41,3.18,1.32.99-.11,1.64-1.15.96-1.98-.45-.55-1.14-.48-1.75-.62-.54-.12-1.11-.23-1.63-.36-.32-.08-.46-.34-.96-.19ZM69.93,39.25c-.11-.12-1.09.55-1.25.63-3.14,1.6-5.55,1.68-8.99,1.82-.15,0-.29-.07-.44-.08l-.15.07-.03.22c.3.07.58.26.87.35,2.05.65,4.9.2,6.89-.46.92-.31,2.16-1.16,2.79-1.91.16-.19.37-.39.32-.64ZM104.12,84.46c.22-.13.52-.24.75-.4,1.07-.7,2.56-2.14,3.79-2.35s2.74,1.15,3.74.85c.13-.04.52-.5.55-.63.05-.21.05-1,.01-1.23-.09-.6-.73-2-1.06-2.56-1.25-2.15-3.47-4.17-5.65-5.3-4.28-2.21-8.6-2.73-13.33-1.76-6.31,1.3-12.41,9.23-7.1,14.94,2.36,2.54,6.19,2.1,9.3,1.53s6.23-1.46,8.99-3.1ZM110.03,91.15c.54.25.99.26,1.58.23,1.53-.07,5.02-1.01,6.03-2.26.2-.25.67-1.06.17-1.2-.35-.1-1.45.21-1.87.32-1.49.36-4.02,1.05-5.28,1.89-.36.24-.76.54-.62,1.03ZM109.87,93.68c-.03-.42-.54.09-.65.13-.81.31-1.9.51-2.68.87-2.06.93-4.12,1.61-6.21,2.44-.18.07-.77.3-.88.38-.15.1-.1.17-.15.25-.03.05-.34.26-.03.36.46.14,2.12-.22,2.66-.35,2.24-.52,4.66-1.54,6.68-2.64.33-.18,2.01-1.26,2.15-1.47.39-.58-.71-.06-.89.03Z"/>
      <path class="st8" d="M74.81,33.78c.05.22.24.67.32.98,1.01,3.92,1.27,7.97,1.61,12,.17,2.05.43,3.76.77,5.76.05.31-.2.16.21.21,0,.1.04,1.29.05,1.39l.16.3c.02.09-.12.13-.08.15.02,0,.05.06.07.07,0,.05,0,.1,0,.15,0,.3.05.5.07.74s.07.43.07.67c0,.1,0,.2,0,.3,0,.04-.14.17-.07.3h.15s0,.1,0,.15l-.3.12c.25,1.84.5,3.6,1.57,5.16.27.39,1.17,1.58,1.5,1.83.26.19,2.08.87,2.48.99,1.65.51,3.47.39,5.17.41-.04.23.12.13.25.15.81.13,1.69.22,2.48.29-.29.12-.56.08-.88.19-1.01.38-2.28,1.51-3,2.32-.25.27-.54.63-.7.96-.02,0-.05,0-.07,0-.73.18-1.52.26-2.21.64-1.71.93-3.61,3.16-5.59,3.21-.72.02-1.32-.35-1.73-.94-.51-.72-.3-1.58-.53-2.39,0,0,.05-.1.13-.13,2.55-1.02,3.51-3.38,1.86-5.74-.56-.8-1.57-1.24-2.54-1.23-.53,0-1.3,1.03-1.55,1.48-1.05,1.85-.69,2.89.04,4.73-.48-.33-.6-1-.79-1.54-.32-.91-.74-2.04-.83-3.01-.37-4-.03-7.96.53-11.9.78-5.52,1.54-10.49,1.03-16.14-.04-.48-.17-1.31-.08-1.73.05-.22.17-.46.26-.67.05-.11,0-.26.19-.22Z"/>
      <path class="st5" d="M65.79,23.57c9.68,1.84,11.06,11.35,11.54,19.71.16.96,1.05,12.73.06,9.56-2.82-8.95.65-22.34-8.56-27.12-2.48-1.55-7.25-2.25-10.06-.59.14-.91-2.99,1.72-3.03,1.33,2.05-2.7,6.5-3.43,10.06-2.88Z"/>
      <path class="st3" d="M107.43,70.09c0,.17.36.38.52.37.02.02.06.07.07.07l.22.15c.03.05.1.05.15.07-.03.14.01.17.15.15.15.18.34.26.52.37,0,.15.07.22.22.22.11.09.24.18.37.3.16.14.09.19.37.3.02,0,.05,0,.07,0-.03.13.02.17.15.15.11.21.22.19.37.3.11.29.45.63.74.74.18.23.18.17.37.3-.05.19.13.13.15.15,0,0,.14.14.15.15.02.02-.04.2.15.15l.22.22c-.05.19.13.13.15.15,0,0,.14.14.15.15.03.03.02.2.15.22.05.09.13.12.15.15.25.38.35.45.67.74.03.02.05.05.07.07.03.23.19.48.44.52.06.1,0,.1.15.22,0,.15.07.23.22.22.03.05.05.1.07.15.09.16.12.44.37.44.01.02-.01.07,0,.07v.15s.15,0,.15,0c0,.02-.01.07,0,.07v.15s.15,0,.15,0c.02.06.05.1.07.15.09.21.15.24.22.37s.15.25.22.37c.13.2.23.63.52.67.01.04-.02.13,0,.15v.15s.15,0,.15,0c0,.02,0,.05,0,.07.04.16,0,.29.22.37,0,.02-.01.07,0,.07v.15s.15,0,.15,0c0,.04-.01.14,0,.15v.15s.15,0,.15,0c0,.04-.01.14,0,.15v.15s.15,0,.15,0c0,.04-.01.14,0,.15v.15s.15,0,.15,0c0,.04-.01.14,0,.15v.15s.15,0,.15,0c0,.05-.01.11,0,.15.15.6.58,1.57.83,2.16.05.11.01.24.2.2,0,.05,0,.1,0,.15,0,.03-.12.25.07.37,0,.05,0,.1,0,.15.02.21.1.57.22.74,0,.07,0,.15,0,.22,0,.15.03.33.15.44,0,.07,0,.15,0,.22,0,.23.09.44.08.66h.15c0,.07,0,.15,0,.22-.04-.05-.2-.05-.26-.15s-.02-.23-.06-.31c-.28-.58-.45-1.09-.68-1.69-1.64-4.21-3.98-7.65-7.28-10.76-.7-.66-1.57-1.24-2.22-1.96-.06-.07.13-.07-.15-.15-.1-.03-.12-.03-.22-.07-.01-.21-.17-.32-.37-.3-.04-.06-.11-.1-.15-.15-.05-.07-.01-.2-.2-.36-.24-.21-.53-.2-.77-.31-.05-.02-.1-.05-.15-.07-.04-.38.39-.53.37-.96.17.13.29.14.44.22Z"/>
      <path class="st15" d="M91.82,64.91v.15c.27-.06.53.08.78.08.17,0,.17-.08.18-.08.05,0,.1,0,.15,0v.15c.24-.05.48.08.71.08.14,0,.23-.08.25-.08.09,0,.21,0,.3,0v.15c.08.03.14-.07.15-.07.12,0,.25,0,.37,0,.05,0,.1,0,.15,0-.04.3.16.08.22.07.12,0,.25,0,.37,0-.04.21.11.14.23.17.49.13.63.14,1.1.13.05,0,.1,0,.15,0v.15c.15.07.29-.06.37-.07.05,0,.1,0,.15,0v.15c.08.03.14-.07.15-.07.06,0,.16,0,.22,0-.04.18.31.23.43.27.32.1.45.07.68.1.07,0,.15,0,.22,0l1.07.52c.57.14,1.1.44,1.67.59.04.01.1-.01.15,0-.05.19.35.26.52.3.04,0,.1,0,.15,0-.04.13.36.32.43.35.2.08.22.06.39.02.04,0,.1,0,.15,0,.11.11.2.13.22.15.05.05-.06.13.22.22.17.05.35.1.52.15,0,.23.14.17.22.22.04.02.08.02.15.07.02.03.04.06.07.07.19.08.4.14.59.22.02.29.27.32.52.3.03.02.05.05.07.07.01.01,0,.12.12.21.07.05.38.23.4.08.07.05.15.1.22.15.02.43-.41.58-.37.96-.34-.16-.81-.6-1.19-.84-2.18-1.38-4.71-2.28-7.17-3v-.15s-.15.07-.15.07c-.17-.05-.27-.07-.44-.15v-.15s-.15,0-.15,0c0,0-.12,0-.15,0l-.15-.07c-.24-.01-.5.02-.74,0v-.15s-.15.07-.15.07c-.1-.01-.2,0-.3,0v-.15s-.22,0-.22,0c-.01,0-.17,0-.22,0l-.11-.07-.04.07c-.13,0-.26-.07-.37-.07-.07-.1-.25-.12-.3,0-.12,0-.25,0-.37,0v-.15c-.15,0-.3,0-.44,0-.05,0-.1,0-.15,0-.29-.15-.68-.23-1-.22-.12,0-.1.07-.11.07-.51,0-.91-.03-1.41-.07-.8-.07-1.68-.16-2.48-.29-.14-.02-.3.08-.25-.15,1.14.01,1.46.18,2.61-.24.16-.06.38-.25.5-.28.04,0,.1,0,.15,0Z"/>
      <path class="st20" d="M78.29,57.22c0,.07,0,.15,0,.22,0,.16.04.39.15.52,0,.07,0,.15,0,.22l.07.15c0,.06,0,.16,0,.22.02.26.22.75.37.96,0,.05,0,.1,0,.15.01.14.05.35.22.3.01.06-.02.2,0,.22v.15s.15,0,.15,0c.15.53.63,1.47.96,1.85v.15s.15,0,.15,0c.1.15.21.34.37.44.04.1.11.15.22.15.19.19.56.36.81.44v.15s.15-.07.15-.07c.04.01.11-.01.15,0l.64.36c.78.28,1.57.51,2.39.6.16.02.35,0,.52,0,.22,0,.4,0,.59,0,.22,0,.44,0,.67,0-.04.22.11.14.26.15,1.28.05,2.59.28,3.81.3.25,0,.49,0,.74,0v.07c-.12.03-.34.22-.5.28-1.15.42-1.47.25-2.61.24-1.71-.02-3.53.1-5.17-.41-.4-.13-2.23-.8-2.48-.99-.34-.25-1.23-1.43-1.5-1.83-1.07-1.55-1.32-3.32-1.57-5.16l.3-.12c.01.07.11.23.15.3Z"/>
      <path class="st3" d="M128.58,88.65c-.17-.26-.29-.46-.63-.51-2.16-.32-4.5-.07-6.65-.22-.61-.04-1.62-.23-2.09-.61-.03-.03,0-.12-.02-.13,1.73.84,3.77.52,5.66.59.85.03,1.97.05,2.8.16.29.04.9.18,1,.49.05.15-.06.22-.07.24Z"/>
      <path class="st20" d="M101.73,67.05s.1-.01.15,0v.22c-.57-.15-1.09-.44-1.67-.59l-1.07-.52c.6.04,1.89.68,2.59.89Z"/>
      <path class="st20" d="M95.67,65.35c.07,0,.15,0,.22,0,.23.03.67.18.89.3-.47.01-.61,0-1.1-.13-.13-.03-.28.05-.23-.17.07,0,.15,0,.22,0Z"/>
      <path class="st20" d="M93.15,65.06c.1,0,.2-.01.3,0,.08,0,.36.1.44.15-.02,0-.11.08-.25.08-.23,0-.46-.13-.71-.08v-.15c.07,0,.15,0,.22,0Z"/>
      <path class="st20" d="M102.84,67.57c.1.02.2.05.3.07v.14s.37.16.37.16c-.17.04-.18.06-.39-.02-.07-.03-.47-.22-.43-.35.05,0,.1,0,.15,0Z"/>
      <path class="st20" d="M106.39,69.42c.11.06.34.15.36.16.04.03,0,.13.01.13-.02.14-.33-.03-.4-.08-.12-.1-.1-.2-.12-.21.04,0,.12-.01.15,0Z"/>
      <path class="st20" d="M102.33,67.35c.07.01.16-.01.22,0v.22c-.17-.04-.56-.1-.52-.3.1.02.2.05.3.07Z"/>
      <path class="st20" d="M105.8,69.05s.18.12.22.15c.05.04.1.1.15.15-.25.03-.49,0-.52-.3.04.02.11-.02.15,0Z"/>
      <path class="st20" d="M78.14,56.48s0,.1,0,.15,0,.1,0,.15h-.15c-.06-.12.07-.26.07-.3h.07Z"/>
      <path class="st20" d="M104.77,68.46s.05,0,.07,0v.22c-.08-.05-.23,0-.22-.22.04.01.11-.01.15,0Z"/>
      <path class="st20" d="M104.1,68.09v.22c-.29-.09-.17-.18-.22-.22.07,0,.15,0,.22,0Z"/>
      <path class="st20" d="M95.08,65.28v.07c-.06,0-.26.23-.22-.07.07,0,.15,0,.22,0Z"/>
      <path class="st11" d="M44.86,80.22c.57.01.52.77.77,1.04.19.21.44.42.67.66.76.81,1.58,1.51,2.4,2.18.51.42,1.6,1.35,2.12,1.65.18.1.4.12.58.23s.34.41.53.51c.26.13.43.04.64.1.13.04,1.09.78,1.48.96.67.31,1.36.51,2.07.81,3.46,1.48,8.02,1.43,11.31-.48.1-.06.87-.61.9-.65.29-.45.49-1.15.75-1.62.12-.22.41-.5.55-.71.08-.12.58-1.15.81-.92,0,.38-.34.6-.5.86-1.07,1.75-1.46,3.01-1.88,5-.03.13-.03.24-.2.2,0-.05,0-.1,0-.15l-.3.04c-.18.32.06.64,0,.95-.03.14-.16.22-.18.34-.41,1.56,0,6.05.35,7.71.05.24.24.45.2.72-.01,0-.14.09-.25.08-.84-.09-1.67-.33-2.48-.3-.05,0-.1,0-.15,0,0-.23-.1-.19-.26-.22-3.21-.69-6.8-2.43-9.73-3.92-.02,0-.05,0-.07,0,.01-.17-.11-.19-.21-.27-3.2-2.43-6.22-5.64-8.12-9.18-.07-.12-.29-.73-.32-.76v-.15s-.15,0-.15,0c-.08-.18-.37-.89-.37-1.04,0,0,.11.01.07-.11l-.22-.11c-.02-.11-.13-.78-.15-.81v-.22s-.15,0-.15,0c0-.08.02-.35,0-.37v-.22s-.15,0-.15,0c-.03-.14-.05-.25-.07-.37l.07-.15h-.15c-.05-.27-.05-.48-.07-.74,0-.05,0-.1,0-.15h-.15c-.01-.14.02-.31,0-.44Z"/>
      <path class="st11" d="M108.32,86.13c-.23.06-.17-.25-.23-.29-.32-.22-.98.81-1.18.98s-.46.23-.64.36c-.15.12-.45.57-.62.68-.38.24-1.31.57-1.75.76-.26.11-.81.73-1.13.87-.16.07-.34.02-.5.09-.14.06-.16.23-.29.3-.32.16-1.19.3-1.62.45-.64.24-1.24.46-1.9.69-.19.07-.69.44-.85.48-.18.05-.58-.04-.69.14-.05.08-.05.3-.07.31-.08.07-.59-.13-.83-.05-.12.04-.34.31-.56.41-.13.06-.36.1-.51.15-.82.26-1.79.45-2.61.79-.27.11-.65.47-.81.52-.21.06-.41,0-.61.05-.81.22-1.61.75-2.33,1.08-.67.3-1.1.24-1.57.82-.15.18-.34.25-.37.44-.09.04-.21.04-.3.07-.16.07-.61.37-.67.37-.02,0-.14-.16-.37-.04s-.03.46-.29.41c-.28-.54-.21-1.07-.31-1.65-.28-1.72-.56-3.43-.8-5.15.62.25,1.18.65,1.8.9.66.27,1.11.31,1.77.44.56.11.93.32,1.64.36,3.08.17,5.25-.35,7.99-1.56.69-.3,1.66-.41,2.26-.85.1-.07.13-.23.16-.24.1-.06.36.01.56-.07s.6-.5.76-.57c.16-.07.34,0,.51-.08.87-.34,1.61-1.02,2.61-1.31.1-.03.36-.28.52-.37.99-.51,2.21-1.14,3.21-1.52.11-.04.26,0,.39-.05.17-.08.44-.78.44-1,.5.09-.04.75-.13,1.02s-.08.55-.1.83Z"/>
      <path class="st3" d="M45.01,72.08c0,.12,0,.25,0,.37-.22-.05-.14.11-.15.3-.01.22,0,.44,0,.67h-.15c0,.2.01.4,0,.59-.03.44-.05.89-.07,1.33l-.07.11.07.04c-.04.89-.11,1.61-.07,2.51,0,.22,0,.45,0,.67h.15c.01.66.04.93.15,1.55.02.13-.01.3,0,.44,0,.05,0,.1,0,.15h.15c.02.26.03.47.07.74.02.12.07.14.07.15.03.12.04.23.07.37.1.39.08.14.15.22.02.02,0,.29,0,.37.03.39.11.16.15.22.02.03.13.7.15.81s.03.18.15.22c0,.15.29.86.37,1.04.12.26.1.09.15.15.03.03.25.64.32.76,1.9,3.54,4.92,6.75,8.12,9.18.1.08.22.1.21.27-.25-.12-.53-.22-.78-.37-.31-.18-1.37-1.05-1.62-1.04l-3.59,2.29s-.11-.01-.15,0l2.44-1.7c.18-.03.91-.49,1.03-.63.07-.08.11-.14.07-.25-3.15-2.3-5.76-5.34-7.28-8.96-.03-.06-.1-.07-.11-.08-.06-.16.13-.49-.3-.44,0-.02,0-.05,0-.07.15-.05.17-.19.15-.33-.07-.46-.51-1.34-.65-1.87-.08-.29-.12-.73-.2-1.06-.03-.12,0-.26-.19-.22,0-.07,0-.15,0-.22,0,0,.08-.08.08-.18,0-.23-.13-.46-.08-.71h-.15s0-.1,0-.15c.02-1.82-.13-3.65.08-5.51.16-1.48.92-3.9.89-5.14,0-.05,0-.1,0-.15.21,0,.19-.11.23-.25.19-.55,1.15-3.6,1.17-3.97,0-.05,0-.1,0-.15.15-.05.13-.19.17-.31.24-.75,1.28-3.07,1.31-3.61,0-.05,0-.1,0-.15.15-.09.21-.35.27-.51,2.25-5.92,5.37-12.65,5.65-19.02,0-.12-.02-.26,0-.37,0-.06.11-.23.15-.3.5,4.87-1.19,9.65-2.77,14.13-1.98,5.61-4.18,10.95-5.57,16.77-.1.43-.21.84-.24,1.28Z"/>
      <path class="st1" d="M87.02,95.75c.47-.58.9-.52,1.57-.82.73-.33,1.52-.86,2.33-1.08.2-.05.4.01.61-.05.16-.05.54-.41.81-.52.82-.34,1.79-.54,2.61-.79.16-.05.38-.09.51-.15.22-.1.44-.37.56-.41.24-.07.75.12.83.05.02-.02.02-.23.07-.31.11-.18.51-.09.69-.14.16-.05.66-.42.85-.48.66-.24,1.26-.45,1.9-.69.42-.16,1.29-.29,1.62-.45.13-.07.15-.24.29-.3.16-.07.34-.02.5-.09.32-.14.87-.75,1.13-.87.44-.19,1.38-.52,1.75-.76.17-.11.46-.56.62-.68.17-.13.44-.19.64-.36s.86-1.2,1.18-.98c.06.04,0,.35.23.29-.02.37,0,.74,0,1.11h-.15s0,.47,0,.47l.15.05c-.02,1.38.22,3.49-.67,4.62-.33.42-.76.53-1.18.78-.02-.33.12-.89-.3-.96-.02-.05-.05-.1-.07-.15-.06-.12-.05-.18-.18-.3-.33-.3-.79-.42-1.23-.44-.17,0-.35,0-.52,0-.45-.24-1.05-.14-1.55-.15-.82,0-1.88-.08-2.66.07-.33-.24-.7.09-1.02.2-1.18.4-2.18.83-3.38,1.2-.16.05-.22-.1-.18.22-.05,0-.1,0-.15,0-.04,0-.14-.12-.32-.07s-.87.45-1.14.52c-.15.04-.44-.11-.39.15-.02,0-.05,0-.07,0-.12,0-.25,0-.37,0v.15s-.05,0-.07,0c-.28.02-.59.24-.9.23l-.43.36s-.1,0-.15,0c-.04,0-.24-.14-.37-.07v.15s-.05,0-.07,0c-.33.02-.68.2-.91.35-.1.06-.31-.02-.35.17-.04,0-.1,0-.15,0-.53.06-1.43.52-1.91.8l-.61.17Z"/>
      <path class="st19" d="M83.17,86.28c.11.44.28.89.37,1.33-.11.01-.11.21,0,.22,0,.04,0,.21,0,.22v.15s.15,0,.15,0c.07.69.12,1.31.22,2,.25,1.72.52,3.43.8,5.15.1.58.03,1.11.31,1.65.27.05.06-.29.29-.41s.35.04.37.04v.15s-.05,0-.07,0c-.21.08-.29.2-.37.44-.26.14-.22.15-.29.47.2.26.38.39.74.41.07,0,.15,0,.22,0l1.85.59c.1.03.2.04.3.07.06.31.58.38.81.52.04.02.13.05.15.07.02.02-.02.13,0,.15s.13-.02.15,0c.03.03.07.17.07.22.1.74-.22,1.01-.63,1.55l-1,1.03s-.05,0-.07,0c-.48.24-.88.56-1.39.79-.46.21-.95.34-1.42.54-.07,0-.15,0-.22,0-.36,0-.77.01-1.11.15-.07,0-.15,0-.22,0-.91-.02-1.83-.01-2.74,0-.18,0-.42.07-.67.07.04-.24-.12-.13-.26-.14-.48-.06-.88-.08-1.37-.08-.12,0-.27.07-.44.07.04-.22-.11-.13-.24-.16-1.14-.19-2.71-.38-3.82-.36-.05,0-.1,0-.15,0v-.14c-.3-.06-.58-.08-.89-.08-.07,0-.15,0-.22,0-.18-.18-.44-.14-.67-.15-.05,0-.1,0-.15,0l-1.28-.39-1.09-.5c-.11-.13-.13-.15-.22-.3-.11-.18-.27-.5-.37-.7-.12-.26-.39-1.25-.67-1.29.04-.27-.15-.47-.2-.72-.35-1.66-.76-6.15-.35-7.71.03-.11.16-.19.18-.34.06-.31-.18-.63,0-.95l.3-.04s0,.1,0,.15c0,.17,0,.35,0,.52-.23.09-.14.44-.15.67-.02.67-.05,1.48,0,2.14-.1.04-.07.14-.07.22,0,.17,0,.35,0,.52l.07.15c-.03.46-.01,1.01,0,1.48,0,.2,0,.4,0,.59h.15c.02.65.15,1.29.3,1.92.04.17.05.34.08.51h.14c0,.08,0,.15,0,.23,0,.06-.15.33.15.3.08.48.35,1.22.56,1.69.32.69.84.96,1.55,1.19,1.15.36,2.43.37,3.61.53,3.3.43,6.89,1.01,10.27.5.56-.08,1.73-.58,2.04-.95.49-.08,1.44-.89,1.78-1.29.19-.22.09-.42.17-.54.08-.14.33-.09.19-.56-.06-.19-1.16-.78-1.4-.89-.81-.36-1.69-.27-2.36-.71,0-.18-.12-.29-.3-.3-.02-.06.02-.16,0-.22.31.04.11-.37-.15-.37-.35-1.41-.64-3.35-.67-4.81,0-.22,0-.44,0-.67h-.15c-.04-.45-.22-1.33-.22-1.66v-1.07s-.13.03-.15-.05c-.15-.59-.32-1.93-.29-2.54,0-.1,0-.2,0-.3h.15Z"/>
      <path class="st19" d="M45.01,84.58c-.13.1-.03.37-.08.43-.02.02-.18.02-.25.08-.24.19,0,.48-.07.6-.09.14-.58.28-.49.67-.09.08-.39.47-.48.6-.14.21-.24.38-.41.62-1.4,1.95-3.75,3.75-5.9,4.83-1.59.8-3.3,1.07-4.83,2.04-.36.23-1.2.98-1.4,1.34-.03.05-.22.63-.22.66,0,.04.36.73.39.76.34.34,1.66.7,2.16.76,2.66.31,5.68.16,8.35.07.67-.02,1.41.06,2.07,0,.87-.07,1.67-.38,2.4-.81.26.08.21-.14.22-.15.43-.25,1.11-.55,1.58-.82.16-.09.31-.35.42-.39.23-.1.6-.06.82-.37.08-.12.04-.28.08-.32.08-.09.88-.2,1.07-.29.43-.2.23-.3.83-.39l-2.44,1.7c-.28.07-1.28.68-1.48.89h-.3c-.01.06.02.2,0,.22-.01.02-.13-.02-.15,0s.02.14,0,.15c-.02.02-.41.05-.52.07-.15.04-.34.03-.3.22-.05,0-.1,0-.15,0-.14.02-.17-.06-.15.15h-.07c-.2,0-.75.15-.74.37-.05,0-.1,0-.15,0s-.1,0-.15,0c-.14.02-.17-.06-.15.15-.05,0-.1,0-.15,0-.05,0-.1,0-.15,0-.22,0-.44,0-.67,0-.4,0-.84-.03-1.22,0-.23.02-.19-.04-.18.22-.25,0-.49,0-.74,0v-.15c-.27.03-.59-.08-.81.07-.1,0-.2,0-.3,0-.91,0-1.83,0-2.74,0-.47,0-.94,0-1.41,0-.5,0-1.02.06-1.48.07-.1,0-.2,0-.3,0l-.04-.15h-.26s0,.15,0,.15c-.05,0-.1,0-.15,0v-.22c-.22,0-.44,0-.67,0-.12,0-.25,0-.37,0-.1,0-.2,0-.3,0,.04-.27-.26-.15-.37-.15-.05,0-.1,0-.15,0,.05-.2-.15-.18-.3-.22-.04-.01-.1,0-.15,0v-.15c-.08-.03-.14.07-.15.07-.04,0-.13,0-.15,0,0,0-.03-.07-.07-.11-.05-.04-.14-.03-.15-.04-.01-.01.01-.06,0-.07-.02-.02.02-.13-.07-.19-.08-.05-.19-.02-.22-.04-.08-.04-.15-.12-.22-.15,0-.05,0-.1,0-.15,0-.22-.1-.17-.3-.22-.02-.17-.02-1.18.02-1.24.02-.03.18-.07.25-.16.35-.44.73-.87,1.07-1.26.03-.03.06-.06.07-.07.3-.13.83-.35.96-.67.02,0,.05,0,.07,0,.49-.22,1.05-.42,1.57-.62.12-.04.24,0,.21-.2.05,0,.1,0,.15,0,1.24-.17,2.33-.88,3.4-1.48.27-.15.54-.3.81-.44.2-.11.69-.18.74-.52.05-.03.11-.05.15-.07.15,0,.23-.07.22-.22.02,0,.05,0,.07,0,.32-.13.92-.57,1.04-.89.03-.01.1.02.15,0v-.15c.05-.02.1-.05.15-.07.29-.15.48-.27.59-.59.03-.01.12.02.14,0s0-.11,0-.14c.32-.11.23-.13.37-.37.03-.05.05-.1.07-.15.3-.01.28-.27.37-.44.25-.13.11-.06.22-.22.15-.2.22-.26.3-.52.01-.04,0-.1,0-.15h.15s0-.15,0-.15c.01,0-.01-.05,0-.07.34.03.42-.52.44-.74.03-.02.05-.06.07-.07s.11.03.14,0c.04-.05,0-.21.01-.29,0-.05,0-.1,0-.15.24-.03.24-.12.22-.3,0-.05.01-.11,0-.15l.07-.15c.1-.05.07-.04.07-.15.42-.05.23.28.3.44Z"/>
      <path class="st3" d="M65.05,99.45c-.91.03-4.56-1.46-5.62-1.89-1.32-.54-2.97-1.2-4.15-1.98-.11-.07-.22-.11-.21-.27,2.93,1.49,6.51,3.22,9.73,3.92.16.03.26,0,.26.22Z"/>
      <path class="st3" d="M100.48,94.79c0,.23-.1.19-.26.22-1.19.26-2.38.64-3.51.89-.31.07-.67.24-.96.37.02-.24.61-.46.79-.5.98-.22,3.09-.99,3.94-.98Z"/>
      <path class="st3" d="M67.94,99.67c.27.04.54,1.03.67,1.29.1.21.26.53.37.7-.17,0-.2-.09-.28-.2-.29-.42-.43-.99-.61-1.46-.95-.22-1.97-.22-2.89-.55.81-.04,1.64.21,2.48.3.11.01.24-.08.25-.08Z"/>
      <path class="st3" d="M99.96,91.24c-1.33.26-3.4,1.52-4.59,1.63-.03-.32.03-.17.18-.22,1.2-.37,2.21-.8,3.38-1.2.32-.11.69-.44,1.02-.2Z"/>
      <path class="st3" d="M107.8,99.37c.04.22-.11.14-.26.15-1.28.04-2.73.05-4,0-.14,0-.3.08-.26-.15,1.5-.02,3.01-.01,4.51,0Z"/>
      <path class="st3" d="M73.63,103.22c1.11-.02,2.68.17,3.82.36.14.02.29-.06.24.16-.53,0-.83-.09-1.3-.14-.92-.1-1.86-.15-2.76-.38Z"/>
      <path class="st3" d="M125.4,95.45c0,.16-.1.2-.21.27-.57.37-3.04,1.52-3.63,1.58-.03-.31,0-.18.18-.22,1.39-.35,2.41-1.13,3.66-1.63Z"/>
      <path class="st3" d="M103.73,94.12c0,.34-.39.19-.61.24-.88.19-1.6.44-2.49.43.09-.11.22-.11.34-.14.69-.14,2.16-.55,2.76-.53Z"/>
      <path class="st3" d="M89.53,94.79c.01.22-.12.18-.25.23-.88.39-1.76.79-2.64,1.17.03-.2.22-.26.37-.44l.61-.17c.47-.28,1.37-.73,1.91-.8Z"/>
      <path class="st3" d="M87.61,102.33l1-1.03c.41-.54.73-.82.63-1.55.45.06.14.65.03.88-.29.6-1.06,1.43-1.66,1.71Z"/>
      <path class="st3" d="M87.53,102.33c-.02.19-.28.33-.42.43-.7.46-1.6.91-2.39.9.47-.2.96-.33,1.42-.54.51-.23.91-.55,1.39-.79Z"/>
      <path class="st3" d="M83.17,103.81c.04.22-.11.14-.26.15-.71.02-1.51.03-2.23,0-.14,0-.3.08-.26-.15.91-.01,1.83-.02,2.74,0Z"/>
      <path class="st3" d="M71.56,102.85s-.07.07-.23.06c-.65-.04-1.71-.46-2.13-.95l1.09.5,1.28.39Z"/>
      <path class="st3" d="M106.47,93.16c-.07.04-.28.14-.3.15-.01,0-.05.06-.15.15,0,0,.01.12-.07.18-.45.35-1.53.51-2.07.48.59-.29,1.62-.27,2.14-.67.01,0-.02-.12,0-.14s.13,0,.14,0c.02-.02.15-.42.15-.48,0-.17-.09-.46-.15-.63.42.07.27.63.3.96Z"/>
      <path class="st3" d="M110.68,99.22c.04.24-.12.13-.26.14-.6.08-1.13.08-1.74.08v-.15c.57.04,1.37-.07,2-.07Z"/>
      <path class="st3" d="M95.89,97.89c.57.27,1.25.61,1.81.67.22.02.2-.05.18.22-.35,0-1.45-.43-1.78-.63-.12-.07-.23-.09-.22-.26Z"/>
      <path class="st3" d="M95.23,92.86c-.14.13-.39.21-.57.28-.43.15-.85.31-1.28.31-.05-.26.24-.11.39-.15.27-.07.96-.47,1.14-.52s.28.07.32.07Z"/>
      <path class="st3" d="M85.91,98.11c.62,0,1.04.13,1.64.39.11.05.25.02.21.2l-1.85-.59Z"/>
      <path class="st10" d="M37.62,98.56v.15c-.44,0-.93.07-1.41.07v-.22c.47,0,.94,0,1.41,0Z"/>
      <path class="st3" d="M78.14,103.66c.49,0,.89.01,1.37.08.14.02.3-.09.26.14-.48,0-.89.01-1.37-.07-.14-.02-.3.08-.25-.15Z"/>
      <path class="st3" d="M99.74,99.08s-.06.07-.17.07c-.44-.01-1.11-.2-1.53-.37.43,0,.89.06,1.36.16.12.03.26.03.34.14Z"/>
      <path class="st3" d="M104.17,91.31c-.45,0-.79.04-1.3,0-.14-.01-.3.08-.26-.15.51,0,1.1-.09,1.55.15Z"/>
      <path class="st3" d="M114.38,98.93c-.5.15-1.2.31-1.7.15.6-.06,1.08-.13,1.7-.15Z"/>
      <path class="st3" d="M104.69,91.31c.44.02.9.13,1.23.44.13.12.12.18.18.3-.45-.29-.64-.45-1.17-.57-.13-.03-.28.04-.23-.17Z"/>
      <path class="st3" d="M121.41,97.3l-1.32.51c-.07.04-.15-.06-.16-.06l1.32-.51c.07-.04.15.06.16.06Z"/>
      <path class="st3" d="M92.86,93.6c.01.21-.11.18-.25.23-.21.08-.93.34-1.08.36l.43-.36c.31.01.63-.2.9-.23Z"/>
      <path class="st3" d="M90.94,94.27c.01.22-.12.18-.25.23-.35.15-.68.22-1.01.29.04-.19.25-.11.35-.17.23-.14.58-.33.91-.35Z"/>
      <path class="st3" d="M102.47,99.3v.07c-.2,0-.47.1-.78.07-.1,0-.55-.02-.48-.22.43,0,.87.1,1.26.07Z"/>
      <path class="st10" d="M43.61,98.41v.15c-.5-.02-.96.07-1.41.07,0-.26-.05-.2.18-.22.39-.03.83,0,1.22,0Z"/>
      <path class="st3" d="M112.53,99.08c.04.24-.12.13-.26.14-.44.06-.64,0-1,0,.38-.22.85-.11,1.26-.15Z"/>
      <path class="st3" d="M118.59,98.04c.04.18-.08.16-.2.2-.41.11-.74.16-1.13.17.36-.12.98-.38,1.33-.37Z"/>
      <path class="st3" d="M84.5,103.66c-.02.34-.77.23-1,.22-.12,0-.1-.07-.11-.07.34-.14.75-.14,1.11-.15Z"/>
      <path class="st3" d="M85.61,96.78c-.03.31-.15.33-.37.44-.05.16-.12.35-.04.52.11.24.5.11.48.37-.36-.02-.54-.15-.74-.41.07-.33.04-.33.29-.47.08-.25.16-.36.37-.44Z"/>
      <path class="st3" d="M95.67,96.27s.02.13,0,.15-.11-.01-.15,0c-.17.4-.29.7-.07,1.11-.16.04-.17-.08-.21-.19-.14-.37-.12-.77.29-.92.03-.08-.08-.19.15-.15Z"/>
      <path class="st3" d="M100.77,99.22s-.09.08-.18.08c-.19,0-.78-.01-.71-.23.29,0,.63-.04.89.15Z"/>
      <path class="st3" d="M72.6,103c.31,0,.58.02.88.08v.14c-.23,0-.92.03-.88-.22Z"/>
      <path class="st10" d="M33.33,98.41c.22,0,.44,0,.67,0v.22c-.22,0-.45,0-.67,0v-.22Z"/>
      <path class="st3" d="M88.87,99.3c-.24-.13-.75-.21-.81-.52.26.09.76.23.81.52Z"/>
      <path class="st3" d="M126.73,94.56c-.06.29-.48.48-.74.59.07-.26.5-.46.74-.59Z"/>
      <path class="st3" d="M115.27,98.78c-.18.17-.44.15-.67.15,0-.38.52-.15.67-.15Z"/>
      <path class="st3" d="M116.23,98.63c-.18.17-.44.15-.67.15,0-.38.52-.15.67-.15Z"/>
      <path class="st10" d="M40.65,98.56c.23-.15.55-.05.81-.07v.15c-.28,0-.63-.07-.81-.07Z"/>
      <path class="st3" d="M72.37,103s-.06.07-.12.07c-.18,0-.61,0-.55-.22.23,0,.49-.03.67.15Z"/>
      <path class="st3" d="M86.35,96.27c-.04.27-.44.41-.67.52v-.15c.06,0,.5-.3.67-.37Z"/>
      <path class="st10" d="M45.75,97.89v.07h-.15s0,.15,0,.15c-.14.03-.14,0-.3.07-.05.02-.11.01-.15.07-.04,0-.1,0-.15,0-.01-.22.54-.36.74-.37Z"/>
      <path class="st3" d="M117.04,98.41c.04.25-.34.22-.52.22v-.22c.17,0,.35,0,.52,0Z"/>
      <path class="st3" d="M119.19,97.89c.02.35-.36.15-.44.15.1-.16.28-.14.44-.15Z"/>
      <path class="st3" d="M91.38,94.19c-.12.23-.3.07-.37.07v-.15c.13-.07.33.07.37.07Z"/>
      <path class="st3" d="M93.3,93.46c.03.32-.3.14-.37.15v-.15c.12,0,.25,0,.37,0Z"/>
      <path class="st3" d="M119.7,97.74c.02.32-.3.15-.37.15.09-.14.22-.14.37-.15Z"/>
      <path class="st3" d="M125.92,95.16c.04.19-.22.24-.37.3,0-.25.21-.23.37-.3Z"/>
      <path class="st10" d="M31.85,98.04c.15.04.34.02.3.22-.1,0-.2,0-.3,0v-.22Z"/>
      <path class="st10" d="M46.42,97.52c0,.24-.13.2-.3.22-.05-.19.14-.18.3-.22Z"/>
      <path class="st10" d="M32.29,98.26c.11,0,.41-.13.37.15-.05,0-.1,0-.15,0l-.22-.07v-.07Z"/>
      <path class="st10" d="M34.14,98.63v-.15s.25,0,.25,0l.04.15c-.1,0-.2,0-.3,0Z"/>
      <path class="st10" d="M47.38,97.08c-.06.07-.16.09-.15.22-.04.01-.1,0-.15,0,.02-.02-.01-.16,0-.22h.3Z"/>
      <path class="st10" d="M31.18,97.74c-.15,0-.24-.09-.3-.22.03.02.15-.02.22.04.09.06.06.17.07.19Z"/>
      <path class="st2" d="M108.69,99.3v.15c-.08,0-.18-.07-.22-.07-.04-.3.16-.08.22-.07Z"/>
      <path class="st10" d="M31.55,97.97s.06-.1.15-.07v.15s-.15-.07-.15-.07Z"/>
      <path class="st10" d="M45.97,97.74v.15s-.15,0-.15,0c-.02-.2,0-.13.15-.15Z"/>
      <path class="st3" d="M95.52,97.67s.13-.02.15,0-.02.13,0,.15c-.13.02-.17-.01-.15-.15Z"/>
      <path class="st10" d="M44.72,98.26v.15s-.1,0-.15,0c-.02-.21.01-.13.15-.15Z"/>
      <path class="st10" d="M44.42,98.41s-.07.05-.07.07l-.07-.07s.09,0,.15,0Z"/>
      <path class="st2" d="M102.47,99.3s.07-.1.15-.07v.15s-.1,0-.15,0v-.07Z"/>
      <path class="st3" d="M89.01,99.37c.13-.02.17.01.15.15-.02-.02-.13.02-.15,0s.02-.13,0-.15Z"/>
      <path class="st10" d="M30.37,97.01c.2.05.29,0,.3.22-.22-.06-.27,0-.3-.22Z"/>
      <path class="st10" d="M116.08,93.01c.08-.05.57-.29.52-.04-.03.18-.44.59-.59.74-2.19,2.17-5.84,3.92-8.84,4.55-.13.03-.3-.1-.26.14-.07,0-.15,0-.22,0l-.04-.07-.11.07c-.07,0-.15,0-.22,0-.16-.36.02-.33.3-.44.44-.18,1.87-.63,2.14-.81.15,0,.23-.07.22-.22,1.95-.66,4.16-1.95,5.93-3.06.38-.24.81-.65,1.17-.86Z"/>
      <path class="st10" d="M121.41,92.35c.28-.07.51-.51.77-.44.23.06-.05.43-.12.54-.76,1.18-3.7,3.39-4.98,4.12-.79.45-1.63.72-2.41,1.18-.12,0-.25-.01-.37,0-.05,0-.1,0-.15,0v.15c-.18.03-.85.05-.89.07l-.07-.04c-.03-.19.22-.38.37-.47.1-.07.5-.18.66-.27,2.46-1.35,4.81-2.79,7-4.54.1-.08.18-.16.18-.3Z"/>
      <path class="st18" d="M96.19,96.34l-.3.96c-.14-.08-.36.05-.27-.45.07-.39.32-.38.56-.52Z"/>
      <path class="st2" d="M114.31,97.74v.15s-.1,0-.15,0v-.15s.1,0,.15,0Z"/>
      <polygon class="st2" points="106.69 98.41 106.6 98.46 106.54 98.41 106.65 98.34 106.69 98.41"/>
      <path class="st8" d="M53.66,39.54c-.09.41.17.27.36.41s.41.27.6.4c.48.33.81.69,1.26,1.04v.15s.15,0,.15,0c2.84,2.23,5.79,2.89,9.32,1.92,1.21-.33,2.48-.85,3.6-1.39.07-.03.14.05.16.11.08.27-.45,1.5-.55,1.87-1.52,5.63-2.21,11.53-3.23,17.25-.16.9-.51,1.77-.68,2.64-.71,3.68-1.45,7.55-3.73,10.61-1.43,1.91-5.36,5.11-7.66,5.51-4.09.7-6.58-3.77-7.7-7-.09-.26-.08-.54-.23-.88-.08-.18-.14-.09-.31-.1.03-.44.14-.85.24-1.28,1.39-5.81,3.58-11.15,5.57-16.77,1.58-4.48,3.28-9.26,2.77-14.13-.01-.12,0-.25,0-.37h.07ZM49.5,73.66c.42.33.65.61,1.23.8,1.68.56,3.43-1.48,3.91-2.92,1.65-4.9,1.45-10.36,1.69-15.47.14-2.88.53-6.28,0-9.1-.04-.23.07-.74-.28-.84-.28-.08-.53.37-.65.59-1.47,2.71-2.43,5.87-3.32,8.81-.8,2.66-1.6,5.31-2.52,7.91-.37,1.03-.54,1.62-.79,2.67-.02.07-.16.09-.22.17-.16.26-.05.71-.09,1.02-.04.33-.29.6-.35.91s-.16,1.31-.17,1.61c-.03,1.08.28,2.55.95,3.42.17.22.39.26.59.41Z"/>
      <path class="st8" d="M104.12,84.46c-2.75,1.64-5.85,2.53-8.99,3.1s-6.94,1.01-9.3-1.53c-5.31-5.72.79-13.65,7.1-14.94,4.74-.97,9.06-.45,13.33,1.76,2.18,1.13,4.4,3.14,5.65,5.3.33.56.97,1.97,1.06,2.56.03.23.04,1.03-.01,1.23-.03.14-.42.59-.55.63-1,.29-2.47-1.07-3.74-.85s-2.72,1.65-3.79,2.35c-.23.15-.53.27-.75.4Z"/>
      <path class="st10" d="M74.67,81.47c2.06-.48,3.51-.67,4.95,1.15,1.6,2.02,1.5,4.15,1.93,6.5.09.5.22,1.05.29,1.56.32,2.44.56,4.99.23,7.43-.07-.01-.15,0-.22,0-.21-.02-.24,0-.37,0-.63,0-1.06-.11-1.63-.15-.07,0-.14,0-.15,0-.54-.04-1.08-.07-1.63-.07-.25-.15-.72-.23-.96-.07-1.23-.12-2.69-.14-3.92,0-.06-.12-.25-.07-.37-.07v.15c-.2.03-.39.05-.59.07-.27.04-.1.09-.15.15-.01.01-.1,0-.15,0-.27.04-.1.09-.15.15-.13.14-.41.32-.44.52v.15c0,.17-.01.35,0,.52.03.38.11.16.15.22,0,.01-.01.18.04.29.54,1.07,1.84.86,2.88.74.62-.07,1.25-.26,1.89-.29.19,0,.34.07.3-.15.17,0,.36.02.52,0,.15-.02.44-.05.37-.22.14-.01.3,0,.44,0,.04,0,.19.2.22-.15.19-.02.4.02.59,0,.27-.03.1-.11.15-.15.03-.02.35,0,.44,0,.39-.03.16-.11.22-.15.03-.02.41.01.52,0,.13-.01.25.01.3-.15.1,0,.2.01.3,0,.12-.01.23-.04.3-.15.13-.01.3-.05.44-.07.39-.06.15-.1.22-.15.03-.02.41,0,.52,0,.38-.03.16-.1.22-.15.03-.02.28,0,.37,0,.14-.02.17.05.15-.15.15-.01.36-.01.52,0,.88.06,1.85.47,2.68.75.27.09.43.3.81.22l.94.95c-.17.19-.57.51-.79.65-3.06,2.08-9.55.52-13.15.38-.05,0-.1,0-.15,0l.04.3c-.42-.07-.28-.24-.46-.32-.39-.17-1.06-.23-1.51-.4-.37-.14-1.49-.75-1.73-1.01-.07-.07-.79-1.39-.84-1.53-.36-.97-.35-2.33-.34-3.36,0-.12-.05-.33.08-.41.02.18.05.48.08.62.03.11.33,1,.36,1.05.08.1.21.13.33.1.17-.05.43-.81.48-1.01.88-3.78,1.43-6.67,3-10.31.35-.8,1.51-2.85,1.53-3.57,0-.14-.05-.27-.08-.41Z"/>
      <path class="st4" d="M76.59,69.86c-.06.02-.21-.01-.3,0,.04-.23-.12-.13-.26-.15-.46-.04-.76-.12-1.15-.37-.2-.13-.26-.1-.37-.37-.73-1.84-1.09-2.88-.04-4.73.26-.45,1.02-1.47,1.55-1.48.97-.01,1.98.44,2.54,1.23,1.65,2.36.7,4.72-1.86,5.74-.08.03-.12.12-.13.13Z"/>
      <path class="st4" d="M53.37,29.26c.5-.22,1.07-.15,1.57-.24.65-.11.91-.38,1.7-.26,1.05.16,3.04,1.77,2.72,3.01-.41.07-.77-.18-1.15-.29-.28-.08-1.1-.33-1.32-.3-.1.01-.22.05-.11.15.86.22,1.69.49,2.51.81.03.01.05.06.07.07l-.15.51c-.98-.19-1.86-.8-2.88-.88-.04.21.05.12.16.17.19.08.36.09.52.15.39.15,1.65.62,1.91.83.14.11-.03.51-.08.54-.21.13-.38-.16-.52-.24-.78-.45-1.6-1.02-2.51-1.15-.04.21.05.12.16.17.47.24.98.45,1.43.71.21.12,1.04.61,1.07.78.04.18-.41.46-.58.53-1.05.46-2.38.36-3.49.39-.05,0-.1,0-.15,0-.15-.24-.46-.09-.67-.18-.09-.04-.17-.25-.25-.34-.07-.08-.23-.13-.25-.16-.06-.1,0-.62-.02-.8-.01-.22,0-.45,0-.67.12-.07.12-.37,0-.44,0-.2,0-.4,0-.59.22.05.14-.11.15-.3.03-.72.08-1.29.15-2Z"/>
      <path class="st10" d="M55.88,26.53l.97-.7c.43-.3.92-.48,1.38-.69.14-.07.6-.51.54-.01-.05.05-.05.16-.07.22-.34.03-.15.17-.15.22,0,.09-.02.22,0,.3l-.07.14h.14c.11.28.13.14.36.28.34.2.21.21.67.25-.05.23.12.13.3.15.53.07,1.09.12,1.63.07.13-.01.25,0,.3-.15.04,0,.21,0,.22,0,.11,0,.19-.04.22-.15.02,0,.14-.07.15-.07h.14s0-.15,0-.15c.05,0,.1,0,.15,0,.11-.02.19-.02.22-.15.39-.05.85-.38,1.24-.5,1.53-.44,2.64-.18,4.13.12.12.02.44-.02.47,0,.01,0,0,.17.12.21.79.25,1.02.23,1.72.79.53.42,1.15,1.05,1.56,1.51-.27.02-.29.3-.49.43-.13.08-1.11.48-1.26.51-.4.08-1.06.05-1.43-.13-.51-1.06-1.5-1.63-2.69-1.47-.22.03-.45.18-.68.19-.21.01-.33-.09-.62-.01-.27.07-.79.57-.81.85-.15.08-.2.04-.33,0-1.21-.29-2.27-.75-3.51-1.04-.04-.01-.13.01-.15,0-.05-.05.08-.11-.22-.22-.04-.01-.11.01-.15,0-.07-.02-.16-.05-.22-.07-1.33-.5-1.96-.66-3.4-.78-.13-.01-.26-.13-.22.11-.07-.01-.14-.07-.15-.07Z"/>
      <path class="st15" d="M74.67,81.47c.03.13.08.27.08.41-.02.73-1.19,2.77-1.53,3.57-1.57,3.65-2.11,6.54-3,10.31-.05.19-.31.95-.48,1.01-.12.03-.25,0-.33-.1-.03-.04-.33-.94-.36-1.05-.03-.14-.05-.45-.08-.62-.12-.85-.07-1.52,0-2.37.07-.02.07-.09.07-.15.02-.24,0-.5,0-.74.15-.13.14-.34.15-.52.02-.24-.01-.49,0-.74.23.05.13-.12.15-.3.02-.15.06-.32.07-.44l.07-.15c.02-.14-.02-.31,0-.44.18.05.19-.14.22-.3.43-2.11,2.71-6.22,4.66-7.25.22-.12.12-.12.15-.15.02-.01.1.01.15,0Z"/>
      <path class="st1" d="M77.11,97.82c.4.04.56.07.96.07.54,0,1.09.03,1.63.07l.11.07.04-.07c.57.04,1,.14,1.63.15.05.12.32.12.37,0,.07,0,.16-.01.22,0,.2.03.33.12.49.14.22.03,1.09-.03,1.21.16.24.37-.41.05-.36.36-.15-.01-.37-.01-.52,0s-.17-.05-.15.15c-.09,0-.34-.02-.37,0h-.22s0,.15,0,.15c-.11,0-.49-.02-.52,0h-.22s0,.15,0,.15c-.15.02-.32.06-.44.07,0,0-.08-.1-.17-.07l-.12.22c-.1.01-.2,0-.3,0-.06,0-.33-.15-.3.15-.11.01-.49-.02-.52,0h-.22s0,.15,0,.15c-.1,0-.42-.02-.44,0h-.15s0,.15,0,.15c-.19.02-.4-.02-.59,0-.11.01-.19.03-.22.15-.14,0-.31-.01-.44,0-.12.01-.24.07-.36.09v.14c-.17.02-.36,0-.53,0-.1,0-.2,0-.3,0v.15c-.63.03-1.27.22-1.89.29-1.03.12-2.34.33-2.88-.74-.05-.11-.03-.28-.04-.29v-.22s-.15,0-.15,0c-.01-.17,0-.35,0-.52l.07-.11-.07-.04c.03-.2.32-.37.44-.52.14.02.17,0,.15-.15.04,0,.14.01.15,0h.15s0-.15,0-.15c.2-.03.39-.04.59-.07.11-.02.3-.07.37-.07,1.23-.14,2.69-.12,3.92,0Z"/>
      <path class="st8" d="M68.53,31.63c0,.07.01.15,0,.22-.17,0-.59.07-.51.33.52.34,1.9,1.77,1.51,2.41-.01.02-.36.29-.42.32-.67.39-1.98.22-2.67-.12-1.02-.51-3.44-2.86-3.64-3.99-.05-.27,0-.57.3-.64.75-.16,1.29.28,1.94.47.15.04.29.04.45.03l-.22-.52h.15c.03.18.23.17.3.22.11.09.2.19.3.3.02.02.01.13.07.19.25.28.96.68,1.34.77.04.01.1,0,.15,0,.12.01.14,0,.15,0,.1,0,.2,0,.3,0,.08,0,.05.02.22,0,.05,0,.1,0,.15,0h.15Z"/>
      <path class="st1" d="M86.72,69.35c.42-.1.99-.23,1.44-.22.81.03,1.87,1.49,1.79,2.29-.06.08-.81.05-1.03.08-2.09.3-3.49,2.24-4.71,3.8l-1.22,1.37c-.18.05-.12-.31-.11-.41.09-1.45,1.08-3.01,1.92-4.14.55-.96,1.24-1.84,1.85-2.77.02,0,.05,0,.07,0Z"/>
      <path class="st1" d="M53.59,39.25c1.82.68,4.09.88,6.03.96,1.83.07,3.81.06,5.61-.22l.12.18c-.03.13-1.62.5-1.88.56-1.99.48-4.58.42-6.57-.1-.65-.17-1.26-.48-1.88-.7-.1-.03-.19-.06-.17.09.05.29.52.43.72.58,2.23,1.67,5.24,2.6,8.04,2.64.66,0,1.3-.08,1.96-.08l-.22.3c-3.53.97-6.47.31-9.32-1.92-.01,0-.03-.05-.15-.15-.44-.35-.78-.71-1.26-1.04-.12-.23-.15-.33-.1-.59l-.82-.37-.04.15h-.07v-.3Z"/>
      <path class="st1" d="M110.03,91.15c-.14-.48.26-.79.62-1.03,1.27-.84,3.8-1.53,5.28-1.89.42-.1,1.52-.42,1.87-.32.5.15.03.96-.17,1.2-1.01,1.24-4.49,2.18-6.03,2.26-.59.03-1.04.02-1.58-.23Z"/>
      <path class="st4" d="M51.5,35.57c.5-.15.64.11.96.19.52.14,1.09.24,1.63.36.6.14,1.3.06,1.75.62.68.83.03,1.87-.96,1.98-.84.09-2.59-.73-3.18-1.32-.35-.36-.77-.89-.61-1.43.03-.09.32-.38.41-.41Z"/>
      <path class="st8" d="M69.93,39.25c.05.25-.16.45-.32.64-.63.74-1.87,1.6-2.79,1.91-2,.66-4.84,1.11-6.89.46-.28-.09-.57-.29-.87-.35l.03-.22.15-.07c.15.01.29.09.44.08,3.44-.13,5.84-.21,8.99-1.82.17-.08,1.14-.75,1.25-.63Z"/>
      <path class="st10" d="M109.87,93.68c.18-.1,1.28-.61.89-.03-.14.21-1.83,1.29-2.15,1.47-2.02,1.1-4.44,2.12-6.68,2.64-.54.13-2.2.49-2.66.35-.32-.1,0-.3.03-.36.07,0,.15,0,.22,0,.38-.02.17-.11.22-.15.02-.02.29,0,.37,0,.17-.01.26.07.22-.15,2.86-.38,6.95-2.43,9.54-3.77Z"/>
      <path class="st1" d="M73.56,30.37c.3.46.56.57.74,1.18.06.22.15.43.15.66h.14c.03.2.05.4.07.6.01.12-.01.25,0,.37h.15c0,.17-.03.45,0,.59-.2-.04-.14.1-.19.22-.09.21-.21.45-.26.67-.8.52-1.57.76-2.18-.15-.35-.53-.71-2.5-.64-3.14.02-.13.02-.25.19-.26.06.02.61.99.66,1.12.16.38.4,1.85.9,1.84.56-.01.35-1.36.33-1.66-.02-.29.03-.6,0-.88-.04-.31-.26-.64-.29-.97-.02-.24.02-.19.22-.18Z"/>
      <path class="st20" d="M88.13,100.55c-.44.54-.68.84-1.18,1.33-.18.08-.52.13-.52.37-.05,0-.1,0-.15,0-.14.02-.17-.06-.15.15-.07,0-.15-.01-.22,0-.23.04-.44.11-.66.16v.14c-.16.03-.36-.02-.53,0l-.15.07c-.37.03-.68.13-1.11.15-.89.03-1.85.02-2.74,0-.45,0-.86-.11-1.33-.07-.05-.11-.2-.07-.3-.07-.49-.01-.99-.04-1.48-.07v-.15s-.22,0-.22,0c-.03-.02-.67,0-.81,0v-.15c-.12-.01-.25.01-.37,0-.22-.02-.46-.09-.67-.07-.03-.1-.14-.07-.22-.07-.21-.02-.39-.04-.59-.07-.07-.01-.17-.05-.3-.07-.23-.04-.46-.04-.67-.07l-.04-.3s.1,0,.15,0c3.6.14,10.09,1.7,13.15-.38.21-.15.62-.46.79-.65.07-.08.15-.2.22-.3l.07.15Z"/>
      <path class="st18" d="M52.48,26.68v.22s-.13-.01-.15,0c-1.04.24-1.74,1-2.15,1.96-.11.26-.49,1.41-.52,1.63-.16,1.76.43,2.89,1.33,4.32.02.03-.02.12,0,.15-.25.01-.41.54-.43.72-.09.97.85,1.82,1.46,2.46-.34-.06-.78-.55-1-.81-.46-.55-.73-1.07-.63-1.82.04-.28.32-.44.3-.66-.01-.14-.65-1.17-.77-1.46-.07-.18-.28-1.05-.35-1.1-.73.13-1.38.52-2,.89-.27.16-.65.5-.92.65-.11.06-.2.11-.32.08-.21-.19,1.08-1.02,1.22-1.11.31-.19.98-.61,1.3-.7.12-.04.24.05.28.03s.03-.18.13-.2c.07-.02.16.08.25.03s.01-.4,0-.41c-.06-.05-.78.25-.93.29-.85.25-2.07.66-2.84,1.12l-.07-.22c.63-.38,2.18-1.22,2.86-1.32.11-.02.26.08.3.05.03-.02.03-.17.13-.2.13-.05.36.04.48-.04l.07-.49c-.09,0-.17,0-.26,0-.43.04-1.38.33-1.83.47-.1.03-1.12.58-1.02.16.33-.2.68-.38,1.04-.52.7-.27,1.42-.39,2.13-.57.13-.61.25-1.1.52-1.66.53-1.1,1.19-1.68,2.38-1.95Z"/>
      <path class="st7" d="M53.15,26.53c.71,0,1.44-.03,2.14,0,.14,0,.4,0,.44,0,.05,0,.1,0,.15,0,0,0,.08.06.15.07.51.09.98.15.89.81-.03,0-.23.22-.44.3-.28.1-.08.09-.15.15-.04.04-.5.12-.59.15-.1.03-.19.02-.22.15-.17,0-.28.03-.44.07-.28.08-.09.09-.15.15-.01.01-.16,0-.22,0-.39.03-.16.1-.22.15-.01.01-.23,0-.3,0-.18,0-.39-.03-.59,0v.15c-.07,0-.15,0-.22,0-.15,0-.3-.02-.44-.07.02-.17-.91-1.45-.59-1.7.02-.01.1.02.15,0v-.22s.05,0,.08,0c.13-.02.25.02.3-.15.1,0,.2,0,.3,0ZM52.76,27.06c-.38.11-.17.95.13.95.44,0,.53-1.15-.13-.95ZM53.86,27.21c-.35.1-.42.79-.01.87.98.19.75-1.09.01-.87Z"/>
      <path class="st14" d="M69.05,29.04c.32.66.45,1.05.2,1.8-.04.12-.03.24-.2.2.03-1.04-.62-2.24-1.74-2.37-.43-.05-2.68-.1-2.26.82-.17-.06-.13.15-.19.15-.2,0-.64-.82-.63-1.04.02-.28.54-.78.81-.85.29-.08.41.03.62.01.23-.01.46-.16.68-.19,1.2-.15,2.18.41,2.69,1.47Z"/>
      <path class="st7" d="M52.41,34.74c.13,0,.41.08.52.07.44,0,.92-.07,1.33-.07.05,0,.1,0,.15,0-.04.24.12.12.26.15,1.71.26,3.33,1.04,5.03,1.18.38.03.8-.02,1.18,0,.07,0,.06.1,0,.15s-1.26.35-1.41.36c-2.14.23-3.83-.85-5.8-1.18v-.15s-.15,0-.15,0c-.07,0-.15,0-.22,0-.01-.11-.21-.11-.22,0-.05,0-.1,0-.15,0v-.15c-.07-.05-.51,0-.59,0-.17,0-.35,0-.52,0v-.3c.22,0,.41-.08.59-.07Z"/>
      <path class="st19" d="M99.29,97.74c.05-.08,0-.15.15-.25.11-.08.7-.31.88-.38,2.09-.83,4.15-1.51,6.21-2.44.79-.36,1.87-.56,2.68-.87.11-.04.62-.55.65-.13-2.59,1.34-6.68,3.39-9.54,3.77-.11.01-.19.03-.22.15-.08,0-.35-.02-.37,0h-.22s0,.15,0,.15c-.07,0-.15,0-.22,0Z"/>
      <path class="st19" d="M106.61,97.97c-.01-.15.02-.24.15-.33.34-.23.9-.41,1.25-.6.86-.47,1.61-.85,2.5-1.27,1.78-.85,3.49-2.14,5.38-2.83.13-.05.21-.18.19.08-.36.21-.79.62-1.17.86-1.77,1.11-3.98,2.4-5.93,3.06-.29.1-.2.21-.22.22-.28.18-1.71.64-2.14.81Z"/>
      <path class="st16" d="M69.05,31.04c-.01.32-.24.37-.52.44-.04,0-.1,0-.15,0v.15s-.1,0-.15,0c-.07-.09-.15-.09-.22,0-.1,0-.2,0-.3,0l-.09-.05-.06.05s-.11.01-.15,0c.04-.18-.09-.15-.19-.21-.31-.16-.43-.26-.69-.46.03.03.77.14.85.13.73-.03,1.36-.89,1.01-1.59-.21-.42-1.17-.96-1.35-.32-.25-.19-.93-.24-.89.18,0,.02.13.33.15.34-.22-.04-.15.1-.14.25.01.11.11.76.14.79,0,.01.11,0,.14.04.07.07.07.17.08.18-.19-.14-.16-.16-.22-.22-.03-.03-.23-.04-.3-.07-.09-.1-.18-.21-.3-.3,0-.17-.12-.29-.3-.3-.08-.17-.14-.38-.23-.53-.04-.08-.14-.05-.14-.06-.42-.91,1.83-.87,2.26-.82,1.12.13,1.77,1.33,1.74,2.37Z"/>
      <path class="st19" d="M121.41,92.35c0,.13-.09.22-.18.3-2.19,1.75-4.54,3.19-7,4.54-.16.09-.55.2-.66.27-.01-.16.02-.23.15-.33,1.9-1.37,3.98-2.6,5.98-3.86.73-.46.77-.67,1.71-.92Z"/>
      <path class="st1" d="M59.65,27.27c.05.12.14.2.22.07.04.01.11-.01.15,0,0,.15.07.23.22.22.01.01.1-.01.15,0l1.55,1.22c.1.07.27.28.04.26l-2.02-.94c-.39-.07-.77-.15-1.15-.25-.32-.08-1.65-.49-1.89-.44.09-.67-.37-.73-.89-.81-.03-.25.09-.12.22-.11,1.44.12,2.07.28,3.4.78Z"/>
      <path class="st1" d="M53.37,28.67c-.01.19.02.4,0,.59-.07.71-.12,1.27-.15,2h-.15c0,.1,0,.2,0,.3,0,.2,0,.4,0,.59,0,.15,0,.3,0,.44,0,.22-.01.45,0,.67-.22-.04-.14.11-.15.26-.01.43.01.87,0,1.3-.11,0-.39-.07-.52-.07.28-.35.1-.86.07-1.29,0-.06-.07-.11-.07-.12-.02-.42,0-.9,0-1.33.23.04.13-.12.15-.26.04-.37.07-.7.08-1.07.01-.44-.1-.83,0-1.26.03-.14.1-.31.15-.55.03-.12.14-.22.14-.26.15.05.29.06.44.07Z"/>
      <path class="st11" d="M83.17,86.28h-.15c0,.1,0,.2,0,.3-.21.04-.14-.1-.17-.23-.25-1.09-.72-2.44-1.21-3.45-.36-.75-.95-1.39-1.28-2.16.15-.03.2.02.3.11.11.11.7.93.81,1.11.86,1.37,1.31,2.8,1.7,4.33Z"/>
      <path class="st1" d="M59.85,33.14c1.01.49,1.88,1.4,2.76,2.08l.52.7c-.14.03-.2-.03-.3-.11-.33-.25-.72-.79-1.07-1.08-.4-.33-1.08-.78-1.53-1.06-.3-.19-.92-.38-1.14-.64-.27-.33.68.07.75.1Z"/>
      <path class="st1" d="M59.28,32.15c-.04-.22.11-.16.25-.14.29.03,1.29.48,1.59.63.24.12,1.97,1.17,2.04,1.28.25.35-.59-.12-.66-.16-1.09-.61-1.98-1.07-3.15-1.54-.02,0-.05-.06-.07-.07Z"/>
      <path class="st14" d="M69.85,31.76c-.33.19-.19-.4-.13-.6.23-.71.7-.55.5.13,0,.03-.34.46-.37.48Z"/>
      <path class="st10" d="M83.47,102.92c.04.22-.11.14-.26.15-.71.03-1.51.02-2.23,0-.14,0-.3.08-.26-.15.89.02,1.85.03,2.74,0Z"/>
      <path class="st1" d="M51.82,34.81v.3c-.25,0-.68.09-.81-.15-.02-.03.02-.12,0-.15.22.05.44-.06.63-.06.09,0,.16.06.18.06Z"/>
      <path class="st15" d="M107.72,71.57c-.28-.07-.49-.27-.73-.42-.1-.07-.25-.05-.23-.25.24.1.52.1.77.31.18.16.14.29.2.36Z"/>
      <path class="st8" d="M74.89,69.35c.38.26.69.33,1.15.37.14.01.3-.09.26.15-.05,0-.1.08-.25.08-.32,0-.71-.21-.97-.37-.1-.06-.22-.06-.18-.22Z"/>
      <path class="st18" d="M53.37,39.1c.15.06.2.14.22.15v.3c0,.12-.01.25,0,.37-.04.07-.14.24-.15.3-.13-.24-.15-.74.07-.92l-.15-.18Z"/>
      <path class="st8" d="M93.82,66.09s-.06.08-.17.07c-.25-.01-.68-.15-.94-.22,0,0,0-.07.11-.07.32-.01.71.08,1,.22Z"/>
      <path class="st11" d="M67.86,90.57c0,.16.23.66-.15.67,0-.22-.08-.57.15-.67Z"/>
      <path class="st18" d="M52.78,38.66c.22.15.6.18.52.44-.25-.11-.37-.27-.59-.3l.07-.15Z"/>
      <path class="st11" d="M83.69,91.9h.15c0,.22,0,.44,0,.67h-.15c-.01-.22.02-.45,0-.67Z"/>
      <path class="st8" d="M44.57,78h.15c0,.22,0,.44,0,.67h-.15c0-.22,0-.44,0-.67Z"/>
      <path class="st11" d="M67.71,95.75h.15c0,.2,0,.4,0,.59h-.15c0-.2,0-.39,0-.59Z"/>
      <path class="st4" d="M85.91,102.4v.14c-.24-.01-.44.12-.67.15v-.14c.23-.05.44-.12.67-.16Z"/>
      <path class="st1" d="M54.18,28.52c-.14.19-.39.14-.59.15v-.15c.2-.03.42,0,.59,0Z"/>
      <path class="st8" d="M44.86,73.41c0,.2,0,.4,0,.59h-.15c.01-.2,0-.4,0-.59h.15Z"/>
      <path class="st10" d="M88.13,100.55l-.07-.15s.19-.47.3-.11c.07.25-.2.23-.22.26Z"/>
      <path class="st1" d="M52.33,35.11c.09,0,.53-.05.59,0v.15c-.2-.02-.44.02-.59-.15Z"/>
      <path class="st4" d="M86.94,101.89c-.09.09-.28.27-.37.37-.05,0-.1,0-.15,0,0-.24.33-.29.52-.37Z"/>
      <path class="st11" d="M84.5,97.37c.26,0,.46.41.15.37-.03-.1-.11-.21-.15-.37Z"/>
      <path class="st11" d="M108.32,87.24c0,.17,0,.35,0,.52l-.15-.05v-.47s.15,0,.15,0Z"/>
      <path class="st10" d="M69.19,91.24c-.01.18,0,.38-.15.52,0-.13-.05-.34,0-.52h.15Z"/>
      <path class="st11" d="M68.16,98.26c.19-.08.21.34.22.52h-.14c-.03-.17-.04-.35-.08-.52Z"/>
      <path class="st8" d="M93.97,66.09c.15,0,.3,0,.44,0v.15c-.15-.01-.3,0-.44,0v-.15Z"/>
      <path class="st15" d="M108.24,72.01c-.24-.1-.21-.1-.37-.3.2-.02.36.09.37.3Z"/>
      <path class="st11" d="M84.95,98.26s-.18-.02-.23-.11c-.06-.05-.05-.13-.07-.19.17,0,.29.12.3.3Z"/>
      <path class="st14" d="M65.72,30.37c-.07-.05-.26-.04-.3-.22v-.07c.18,0,.29.12.3.3Z"/>
      <path class="st10" d="M76.22,102.4c.12.01.25-.01.37,0v.15c-.12,0-.25,0-.37,0v-.15Z"/>
      <path class="st8" d="M45.01,72.45c0,.1,0,.2,0,.3h-.15c0-.19-.07-.34.15-.3Z"/>
      <path class="st8" d="M95.08,66.24s-.17,0-.3,0c.04-.12.23-.1.3,0Z"/>
      <path class="st11" d="M68.53,99.3c-.29.03-.14-.24-.15-.3.11.07.13.18.15.3Z"/>
      <path class="st10" d="M69.34,90.2c-.02.18.09.34-.15.3,0-.1,0-.2,0-.3h.15Z"/>
      <path class="st10" d="M79.4,102.85s-.18.14-.3.07v-.15c.1,0,.24-.04.3.07Z"/>
      <path class="st10" d="M74.74,102.18l-.3.07v-.15c.12.02.22.06.3.07Z"/>
      <path class="st10" d="M69.71,88.87c-.03.15-.04.34-.22.3.02-.15.04-.34.22-.3Z"/>
      <path class="st1" d="M55.73,28.01l-.07.19c-.07.08-.14-.04-.15-.04.04-.13.12-.12.22-.15Z"/>
      <path class="st10" d="M77.4,102.55h.22s0,.15,0,.15c-.38-.02-.16-.1-.22-.15Z"/>
      <path class="st8" d="M95.82,66.31h.22s0,.15,0,.15c-.39-.04-.16-.09-.22-.15Z"/>
      <path class="st10" d="M75.55,102.33s-.12.12-.22.07v-.15c.08,0,.19-.02.22.07Z"/>
      <path class="st1" d="M53.29,35.25c-.15.01-.09,0-.22,0,.01-.11.21-.11.22,0Z"/>
      <path class="st11" d="M67.71,93.38s.12.12.07.22h-.15c0-.08-.02-.19.07-.22Z"/>
      <path class="st1" d="M54.7,28.38v.15s-.22,0-.22,0c.06-.05-.16-.12.22-.15Z"/>
      <path class="st11" d="M83.54,87.83c-.11-.01-.11-.21,0-.22.04.21.01.1,0,.22Z"/>
      <path class="st18" d="M52.41,38.36l-.04.07c-.24.02-.16,0-.18-.15.08,0,.15.04.22.07Z"/>
      <path class="st11" d="M67.64,94.12h.15c.03.08-.07.14-.07.15l-.07-.15Z"/>
      <path class="st1" d="M56.47,27.71v.15s-.15,0-.15,0c.06-.06-.13-.05.15-.15Z"/>
      <path class="st10" d="M69.05,92.49c0,.06,0,.13-.07.15,0,0-.1-.08-.07-.15h.15Z"/>
      <path class="st1" d="M55.07,28.23v.15s-.15,0-.15,0c.06-.05-.14-.07.15-.15Z"/>
      <path class="st10" d="M69.49,89.61l-.07.15s-.1-.08-.07-.15h.15Z"/>
      <path class="st11" d="M83.54,88.06s.12-.13.15.15h-.15s0-.15,0-.15Z"/>
      <path class="st14" d="M68.53,31.48s0,.1,0,.15h-.15v-.15s.11,0,.15,0Z"/>
      <path class="st10" d="M74.52,81.47s.07.03-.15.15v-.15s.15,0,.15,0Z"/>
      <path class="st8" d="M44.64,75.48l-.07-.04.07-.11s0,.08,0,.15Z"/>
      <path class="st15" d="M108.46,72.08c.28.08.09.08.15.15-.14.02-.17,0-.15-.15Z"/>
      <path class="st8" d="M98.11,66.91l.15-.07v.15c-.1-.03-.14-.07-.15-.07Z"/>
      <path class="st4" d="M86.28,102.26c.02.2,0,.13-.15.15-.02-.21.01-.13.15-.15Z"/>
      <path class="st8" d="M97.52,66.61h.15s0,.15,0,.15c-.25-.12-.09-.08-.15-.15Z"/>
      <path class="st8" d="M97.37,66.61s-.06.1-.15.07v-.15s.15.07.15.07Z"/>
      <path class="st8" d="M96.33,66.46l.15-.07v.15c-.13-.01-.14-.07-.15-.07Z"/>
      <path class="st8" d="M95.6,66.31c-.06,0-.05,0-.15,0l.04-.07.11.07Z"/>
      <path class="st10" d="M84.72,102.7v.15c-.07.03-.14-.07-.15-.07l.15-.07Z"/>
      <path class="st1" d="M53.52,35.25h.15s0,.15,0,.15c-.05,0-.1,0-.15,0v-.15Z"/>
      <path class="st5" d="M77.85,54.56s-.13.04-.15-.05l.08-.4c0,.06.15.28.07.44Z"/>
      <path class="st20" d="M58.77,25.12c.58-.56.99-.46,1.65-.61.14-.03.23-.17.39-.2.64-.12,2.48-.12,3.18-.08,1.5.09,3.22.7,4.62,1.22.07.03.45.12.22.26-.04-.02-.36.02-.47,0-1.49-.3-2.6-.56-4.13-.12-.39.11-.85.45-1.24.5-.02,0-.19-.2-.22.15-.04,0-.1,0-.15,0-.28.04-.1.1-.15.15,0,0-.13.07-.15.07-.37.12-.09.03-.22.15,0,0-.18,0-.22,0-.09-.01-.26-.22-.3.15-.53.04-1.1,0-1.63-.07v-.15c-.1,0-.2,0-.3,0-.46-.04-.33-.06-.67-.25-.23-.13-.25,0-.36-.27-.02-.06-.07-.14-.07-.15-.02-.07,0-.21,0-.3.14-.03.11-.14.15-.22.03-.06.02-.17.07-.22Z"/>
      <path class="st8" d="M74.59,32.22h-.14c0-.23-.09-.45-.15-.67.28-.01.26.44.3.67Z"/>
      <path class="st10" d="M55.73,26.45v.07s-.3,0-.44,0c.08-.13.3-.06.44-.07Z"/>
      <path class="st8" d="M74.67,32.81h.15c0,.12,0,.25,0,.37h-.15c-.01-.12.01-.25,0-.37Z"/>
      <path class="st20" d="M98.92,66.17c-.23-.02-.36,0-.68-.1-.12-.04-.47-.09-.43-.27.3.03.82.24,1.11.37Z"/>
      <path class="st20" d="M92.79,65.06s-.02.08-.18.08c-.25,0-.51-.14-.78-.08v-.15c.29-.02.68.05.96.15Z"/>
      <path class="st20" d="M97.3,65.72c-.08.01-.22.14-.37.07v-.15c.11,0,.31-.04.37.07Z"/>
      <path class="st20" d="M97.59,65.8s-.07.1-.15.07v-.15s.15.07.15.07Z"/>
      <path class="st20" d="M94.34,65.28s-.07.1-.15.07v-.15c.06,0,.13,0,.15.07Z"/>
      <path class="st20" d="M105.06,68.83s-.05-.05-.07-.07c.03.02.05.05.07.07Z"/>
      <path class="st2" d="M45.82,83.92c-.12-.05-.13-.11-.15-.22l.22.11c.03.12-.07.1-.07.11Z"/>
      <path class="st2" d="M45.23,82.07h.15s0,.22,0,.22c-.06-.08-.05.17-.15-.22Z"/>
      <path class="st2" d="M45.38,82.66h.15s0,.22,0,.22c-.04-.06-.12.16-.15-.22Z"/>
      <path class="st2" d="M46.19,84.95h.15s0,.15,0,.15c-.05-.06-.03.11-.15-.15Z"/>
      <path class="st2" d="M45.09,81.55h.15s-.07.15-.07.15c0,0-.05-.03-.07-.15Z"/>
      <path class="st2" d="M44.86,80.66h.15s0,.1,0,.15h-.15s0-.1,0-.15Z"/>
      <path class="st11" d="M45.01,84.58s.08.02.11.08c1.52,3.61,4.13,6.66,7.28,8.96.05.11,0,.17-.07.25-.12.14-.85.6-1.03.63-.6.09-.41.19-.83.39-.2.09-1,.2-1.07.29-.04.05,0,.21-.08.32-.21.3-.59.27-.82.37-.11.05-.26.3-.42.39-.46.27-1.15.57-1.58.82-.01,0,.04.23-.22.15,0,0-.02-.1.02-.13.06-.05.18,0,.2-.02.03-.02.25-.51.28-.57.25-.77.17-4.29,0-5.14-.25-1.27-.77-2.49-1.4-3.63-.22-.4-.69-1.87-1.24-1.38-.09-.38.4-.53.49-.67.07-.12-.18-.4.07-.6.07-.06.23-.05.25-.08.05-.06-.05-.34.08-.43Z"/>
      <path class="st18" d="M53.44,40.58c-.28,6.36-3.4,13.1-5.65,19.02-.06.16-.12.42-.27.51,0,0-.11-.08-.06-.16,2.31-6.13,5.25-12.31,5.76-18.87,0-.09.02-.56.21-.49Z"/>
      <path class="st18" d="M43.68,79.33c-.09-.11-.13-.35-.14-.49-.3-3.22.15-6.31.84-9.42.05-.21.09-.61.26-.74.03,1.24-.73,3.66-.89,5.14-.2,1.86-.05,3.69-.08,5.51Z"/>
      <path class="st18" d="M46.05,64.32c-.02.37-.98,3.42-1.17,3.97-.05.14-.03.26-.23.25-.02-.52.92-3.34,1.17-3.97.05-.13.02-.26.23-.25Z"/>
      <path class="st18" d="M47.53,60.25c-.03.54-1.07,2.86-1.31,3.61-.04.12-.02.26-.17.31,0-.62.51-1.86.77-2.52.14-.36.31-.82.47-1.16.06-.12.05-.25.25-.24Z"/>
      <path class="st18" d="M43.83,80.59c.19-.04.16.09.19.22.08.33.12.77.2,1.06.14.53.58,1.41.65,1.87.02.14,0,.28-.15.33-.13-1.08-.91-2.37-.89-3.48Z"/>
      <path class="st18" d="M43.68,79.48h.15c-.05.24.08.48.08.71,0,.1-.08.17-.08.18-.17-.25-.16-.6-.15-.89Z"/>
      <path class="st2" d="M46.49,97.08s-.14-.03-.2.02c-.04.03-.01.13-.02.13-.73.44-1.53.74-2.4.81-.66.05-1.4-.02-2.07,0-2.68.08-5.69.24-8.35-.07-.5-.06-1.82-.42-2.16-.76-.03-.03-.39-.72-.39-.76,0-.03.19-.61.22-.66.2-.35,1.04-1.11,1.4-1.34,1.53-.97,3.24-1.24,4.83-2.04,2.14-1.08,4.5-2.87,5.9-4.83.17-.24.27-.41.41-.62.09-.12.38-.52.48-.6.55-.49,1.02.98,1.24,1.38.63,1.14,1.16,2.35,1.4,3.63.16.85.25,4.37,0,5.14-.02.07-.25.56-.28.57ZM31.97,95.79c-.15.17-.36.22-.26.57.02.08.48.53.56.56.13.04.82.08,1.02.09,1.14.06,2.41-.09,3.55-.23,1.58-.2,3.15-.38,4.4-1.52,1.72-1.57,3.93-4.67,3.71-7.1-.12-1.28-1.65.32-2,.74-.63.76-1.12,1.6-1.85,2.37-.79.84-2.5,1.92-3.58,2.33-1.58.6-4.4.85-5.54,2.19Z"/>
      <path class="st3" d="M41.31,89.02v.15s-.12-.01-.15,0c-.11.32-.72.76-1.04.89.06-.19.36-.44.52-.56.19-.14.3-.23.52-.33.01-.03-.02-.11,0-.14s.11,0,.14,0Z"/>
      <path class="st18" d="M44.12,85.39c-.02.22-.1.77-.44.74.12-.23.24-.47.32-.72.04-.04.11,0,.13-.02Z"/>
      <path class="st3" d="M39.69,90.35c-.05.33-.53.41-.74.52.16-.31.49-.37.74-.52Z"/>
      <path class="st3" d="M42.57,87.83c-.14.24-.05.26-.37.37-.01.03.02.12,0,.14s-.11,0-.14,0c-.11.32-.31.44-.59.59.07-.26.35-.5.59-.59.01-.03-.02-.12,0-.14s.11,0,.14,0c.07-.2.13-.34.37-.37Z"/>
      <path class="st18" d="M43.53,86.5c-.07.26-.15.31-.3.52h-.07c.08-.15.06-.51.37-.52Z"/>
      <path class="st3" d="M43.24,87.02c-.11.16.03.09-.22.22-.09.17-.07.43-.37.44.16-.26.09-.3.37-.44.06-.12.13-.19.15-.22h.07Z"/>
      <path class="st18" d="M44.35,85.02c0,.08.03.24-.01.29-.03.03-.11,0-.14,0-.13-.16-.07-.29.15-.3Z"/>
      <path class="st18" d="M44.35,84.88c0-.06-.03-.15.02-.21.02-.03.17-.03.21-.09.02.17.02.27-.22.3Z"/>
      <path class="st3" d="M40.06,90.05c0,.15-.07.22-.22.22.04-.03-.08-.11.22-.22Z"/>
      <path class="st18" d="M43.68,86.21v.15s-.15,0-.15,0c.04-.26.04-.08.15-.15Z"/>
      <path class="st18" d="M44.64,84.29l-.07.15s-.12-.1-.07-.15c.02-.02.12.02.15,0Z"/>
      <path class="st2" d="M108.98,96.93c0,.15-.07.23-.22.22.02-.01-.07-.12.22-.22Z"/>
      <path class="st4" d="M49.5,73.66c-.2-.16-.42-.19-.59-.41-.66-.87-.98-2.34-.95-3.42,0-.3.12-1.31.17-1.61s.3-.58.35-.91-.07-.77.09-1.02c.05-.08.2-.1.22-.17.25-1.06.42-1.64.79-2.67.92-2.6,1.72-5.25,2.52-7.91.88-2.94,1.85-6.1,3.32-8.81.12-.22.36-.67.65-.59.34.1.23.61.28.84.53,2.82.13,6.22,0,9.1-.24,5.11-.04,10.57-1.69,15.47-.48,1.44-2.23,3.48-3.91,2.92-.58-.19-.81-.47-1.23-.8Z"/>
      <path class="st2" d="M54.63,40.36c-.19-.13-.39-.26-.6-.4s-.45,0-.36-.41l.04-.15.82.37c-.05.26-.01.36.1.59Z"/>
      <path class="st2" d="M55.88,41.39c.12.09.14.14.15.15h-.15s0-.15,0-.15Z"/>
      <path class="st2" d="M78.07,97.89c-.41,0-.56-.03-.96-.07.24-.16.71-.08.96.07Z"/>
      <path class="st2" d="M73.19,97.82c-.07,0-.26.05-.37.07v-.15c.12,0,.31-.05.37.07Z"/>
      <path class="st2" d="M81.84,98.11c-.05.12-.32.12-.37,0,.13,0,.16-.02.37,0Z"/>
      <path class="st2" d="M80.95,99.3c-.07.11-.18.13-.3.15l.12-.22c.09-.03.16.07.17.07Z"/>
      <path class="st2" d="M80.36,99.45c-.05.16-.16.13-.3.15-.03-.29.24-.14.3-.15Z"/>
      <path class="st2" d="M77.48,100.04c.07.17-.22.2-.37.22v-.14c.13-.02.25-.07.37-.09Z"/>
      <path class="st2" d="M76.59,100.26c.05.22-.11.14-.3.15v-.15c.1,0,.2,0,.3,0Z"/>
      <path class="st2" d="M78.14,99.89c-.03.34-.18.15-.22.15.04-.12.11-.14.22-.15Z"/>
      <path class="st2" d="M71.34,99.45h.15s0,.22,0,.22c-.04-.06-.12.16-.15-.22Z"/>
      <path class="st2" d="M79.55,99.59c-.06.04.16.12-.22.15v-.15s.22,0,.22,0Z"/>
      <path class="st2" d="M82.36,98.93c-.06.04.16.12-.22.15v-.15s.22,0,.22,0Z"/>
      <path class="st2" d="M81.62,99.08c-.07.05.17.09-.22.15v-.15s.22,0,.22,0Z"/>
      <path class="st2" d="M79.84,97.97l-.04.07-.11-.07s.08,0,.15,0Z"/>
      <path class="st2" d="M72.23,97.97v.15s-.15,0-.15,0c.05-.05-.13-.11.15-.15Z"/>
      <path class="st2" d="M71.93,98.11c.03.14,0,.17-.15.15.05-.06-.13-.11.15-.15Z"/>
      <polygon class="st2" points="71.34 98.93 71.34 98.78 71.41 98.82 71.34 98.93"/>
      <path class="st2" d="M82.88,98.78c.02.2,0,.13-.15.15-.02-.2,0-.13.15-.15Z"/>
      <path class="st2" d="M78.88,99.74s.13.12-.15.15v-.15s.15,0,.15,0Z"/>
      <path class="st2" d="M53.07,33.26c0,.18-.04.7.02.8.02.03.18.08.25.16.08.09.16.29.25.34.2.1.51-.05.67.18-.41,0-.89.07-1.33.07.01-.43-.01-.87,0-1.3,0-.14-.08-.3.15-.26Z"/>
      <path class="st2" d="M53.07,32.59c0-.14,0-.29,0-.44.12.07.12.37,0,.44Z"/>
      <path class="st2" d="M53.22,31.26c0,.19.07.34-.15.3,0-.1,0-.2,0-.3h.15Z"/>
      <path class="st5" d="M61.87,26.6c-.05.16-.16.14-.3.15.04-.36.2-.16.3-.15Z"/>
      <path class="st5" d="M59.65,26.53c.1,0,.2,0,.3,0v.15c-.18-.02-.34.09-.3-.15Z"/>
      <path class="st5" d="M62.98,26.08c-.04.13-.11.13-.22.15.03-.35.2-.15.22-.15Z"/>
      <path class="st5" d="M58.69,25.34c-.03.09,0,.19-.15.22,0-.05-.2-.19.15-.22Z"/>
      <path class="st2" d="M60.25,27.56c-.15,0-.23-.07-.22-.22.3.12.17.17.22.22Z"/>
      <path class="st5" d="M62.32,26.45c-.03.11-.11.15-.22.15.13-.12-.15-.03.22-.15Z"/>
      <path class="st2" d="M59.88,27.34c-.09.12-.17.05-.22-.07.07.02.15.05.22.07Z"/>
      <path class="st5" d="M62.61,26.23v.14s-.15,0-.15,0c.05-.05-.13-.1.15-.15Z"/>
      <path class="st5" d="M58.62,26.01h-.14s.07-.15.07-.15c0,0,.05.09.07.15Z"/>
      <path class="st14" d="M66.31,30.74c.06.06.03.08.22.22.27.2.39.29.69.46.1.06.23.03.19.21-.37-.09-1.08-.49-1.34-.77-.05-.06-.05-.17-.07-.19.07.03.26.04.3.07Z"/>
      <path class="st14" d="M68.23,31.63c-.17.02-.15,0-.22,0,.07-.09.15-.09.22,0Z"/>
      <path class="st14" d="M67.71,31.63s-.03.01-.15,0l.06-.05.09.05Z"/>
      <path class="st2" d="M99.74,97.6c-.06.04.16.13-.22.15v-.15s.22,0,.22,0Z"/>
      <path class="st2" d="M100.33,97.45c.03.21-.05.14-.22.15.04-.12.11-.13.22-.15Z"/>
      <path class="st2" d="M52.33,26.9c-.32.25.62,1.53.59,1.7,0,.04-.12.14-.14.26-.05.24-.12.42-.15.55-.86-2.19-2.48-.91-2.59.84l.45.16-.44.11-.08.55.3.04c-.06.26-.31.34-.22.67l.81-.07v.22s-.66.08-.66.08c-.02.02-.02.46,0,.55.06.36.86,1.33,1.21,1.38.64.09.74-.07,1-.6,0,.01.06.06.07.12.03.43.21.94-.07,1.29-.18,0-.38.07-.59.07-.02,0-.09-.06-.18-.06-.19,0-.42.11-.63.06-.9-1.44-1.49-2.56-1.33-4.32.02-.23.4-1.37.52-1.63.4-.96,1.1-1.72,2.15-1.96Z"/>
      <path class="st16" d="M53.86,27.21c.73-.22.96,1.06-.01.87-.41-.08-.34-.77.01-.87Z"/>
      <path class="st16" d="M52.76,27.06c.67-.2.57.95.13.95-.3,0-.51-.84-.13-.95Z"/>
      <path class="st17" d="M66.53,30.96s0-.1-.08-.18c-.04-.04-.14-.03-.14-.04-.02-.03-.13-.68-.14-.79-.01-.14-.08-.29.14-.25.02.01.1,0,.15,0v.15c.4.1.34-.12.37-.15.02-.01.12.03.17-.09.07-.16.02-.32.05-.43.18-.65,1.14-.11,1.35.32.35.7-.29,1.57-1.01,1.59-.08,0-.82-.11-.85-.13Z"/>
      <path class="st3" d="M67.05,29.19c-.03.11.02.27-.05.43-.05.12-.16.07-.17.09-.12,0-.25.01-.37,0-.05,0-.13.01-.15,0-.01-.01-.15-.32-.15-.34-.04-.42.64-.37.89-.18Z"/>
      <path class="st4" d="M52.63,29.41c-.1.43.01.82,0,1.26-.24-.04-.13.12-.15.26-.04.37-.07.7-.08,1.07,0,.43-.02.91,0,1.33-.26.52-.36.68-1,.6-.35-.05-1.15-1.01-1.21-1.38-.02-.09-.02-.53,0-.55l.66-.08v-.22s-.81.07-.81.07c-.09-.32.16-.41.22-.67l-.3-.04.08-.55.44-.11-.45-.16c.11-1.75,1.74-3.04,2.59-.84Z"/>
      <path class="st2" d="M52.63,30.67c0,.37-.04.7-.08,1.07-.01.14.09.3-.15.26,0-.37.04-.71.08-1.07.02-.14-.09-.3.15-.26Z"/>
      <path class="st8" d="M31.97,95.79c1.14-1.33,3.97-1.59,5.54-2.19,1.08-.41,2.79-1.49,3.58-2.33.72-.77,1.22-1.6,1.85-2.37.35-.42,1.89-2.03,2-.74.22,2.43-1.98,5.52-3.71,7.1-1.25,1.14-2.81,1.32-4.4,1.52-1.14.14-2.4.29-3.55.23-.2-.01-.89-.05-1.02-.09-.08-.02-.53-.48-.56-.56-.1-.35.11-.4.26-.57Z"/>
      <path class="st16" d="M66.83,29.71s.03.25-.37.15v-.15c.12.01.25,0,.37,0Z"/>
    </g>
  </g>
</svg>