<?xml version="1.0" encoding="UTF-8"?>
<svg id="Layer_1" xmlns="http://www.w3.org/2000/svg" xmlns:xlink="http://www.w3.org/1999/xlink" version="1.1" viewBox="0 0 159.2 221.8">
  <!-- Generator: Adobe Illustrator 29.0.0, SVG Export Plug-In . SVG Version: 2.1.0 Build 186)  -->
  <defs>
    <style>
      .st0 {
        fill: none;
      }

      .st1 {
        fill: #6d7071;
      }

      .st2 {
        fill: #58595b;
      }

      .st3 {
        fill: #009b65;
      }

      .st4 {
        fill: #e8997a;
      }

      .st5 {
        fill: #056e50;
      }

      .st6 {
        fill: #5eb157;
      }

      .st7 {
        fill: #f8e4c4;
      }

      .st8 {
        fill: #fbefe2;
      }

      .st9 {
        fill: #ac4641;
      }

      .st10 {
        fill: #912b61;
      }

      .st11 {
        fill: #f6e7d5;
      }

      .st12 {
        fill: #f1cb90;
      }

      .st13 {
        fill: #bc9b72;
      }

      .st14 {
        fill: #edae91;
      }

      .st15 {
        fill: #cc9443;
      }

      .st16 {
        fill: #98c455;
      }

      .st17 {
        fill: #dff0ee;
      }

      .st18 {
        fill: #4ca87c;
      }

      .st19 {
        fill: #bfb49d;
      }

      .st20 {
        clip-path: url(#clippath-1);
      }

      .st21 {
        clip-path: url(#clippath-3);
      }

      .st22 {
        clip-path: url(#clippath-2);
      }

      .st23 {
        font-family: Barlow-Italic, Barlow;
        font-style: italic;
      }

      .st24 {
        fill: #c0b29b;
      }

      .st25 {
        fill: #3c404a;
      }

      .st26 {
        fill: #fff;
      }

      .st27 {
        fill: #377a64;
      }

      .st28 {
        fill: #d3dab7;
      }

      .st29 {
        fill: #eba998;
      }

      .st30 {
        fill: #e06e62;
      }

      .st31 {
        fill: #efb256;
      }

      .st32 {
        fill: #e9973e;
      }

      .st33, .st34 {
        fill: #221f20;
      }

      .st35 {
        fill: #f2d870;
      }

      .st36 {
        fill: #e4943e;
      }

      .st37 {
        fill: #28663d;
      }

      .st38 {
        fill: #732550;
      }

      .st39 {
        font-family: Barlow-Regular, Barlow;
        letter-spacing: 0em;
      }

      .st40 {
        fill: #da4347;
      }

      .st41 {
        fill: #936b2b;
      }

      .st42 {
        fill: #f1cb8f;
      }

      .st43 {
        fill: #8d8c89;
      }

      .st44 {
        fill: #d93832;
      }

      .st45 {
        clip-path: url(#clippath);
      }

      .st34 {
        font-size: 7.8px;
      }

      .st46 {
        fill: #ecddbc;
      }
    </style>
    <clipPath id="clippath">
      <rect class="st0" x="0" y="31" width="30.2" height="20.9"/>
    </clipPath>
    <clipPath id="clippath-1">
      <polygon class="st0" points="71.3 65.6 .3 64.9 .3 121.8 71.3 122.6 71.3 65.6"/>
    </clipPath>
    <clipPath id="clippath-2">
      <rect class="st0" x="132.7" y="77.4" width="26.5" height="47.2"/>
    </clipPath>
    <clipPath id="clippath-3">
      <rect class="st0" x="184.9" y="3.7" width="158.8" height="126.9"/>
    </clipPath>
  </defs>
  <g>
    <rect class="st28" x=".4" width="158.8" height="221.8"/>
    <g>
      <path class="st5" d="M21.8,139.2v-1h.6c0,0,2.8-7.6,2.8-7.6h1.6l2.7,7.5h.6v1h-2.8v-1h.6c0-.1-.4-1.4-.4-1.4h-3.1l-.4,1.3h.6v1.1h-2.8ZM24.8,135.7h2.3l-1-3v-.2h-.1v.3c0,0-1.1,3-1.1,3Z"/>
      <path class="st5" d="M30.6,139.2v-1l.9-.2v-4.1l-.9-.2v-1h2.4v.8c.3-.3.5-.5.8-.7s.7-.2,1.1-.2.8,0,1.1.3.5.5.7.8c.2-.3.5-.6.8-.8s.7-.3,1.1-.3c.6,0,1.1.2,1.5.6s.5,1.1.5,2v2.7l.9.2v1h-3.2v-1l.8-.2v-2.7c0-.5,0-.9-.2-1.1s-.4-.3-.7-.3-.5,0-.7.3-.3.4-.4.7v3.1l.7.2v1h-3.1v-1l.7-.2v-2.7c0-.5,0-.8-.3-1s-.4-.3-.7-.3-.5,0-.7.2-.3.3-.5.5v3.5l.8.2v1h-3.2Z"/>
      <path class="st5" d="M44.1,139.3c-.6,0-1.1-.2-1.5-.5s-.5-.8-.5-1.4.1-.7.3-1.1.5-.5,1-.7.9-.3,1.5-.3h.9v-.5c0-.3,0-.6-.3-.8s-.5-.3-.8-.3-.4,0-.5,0-.3.1-.4.2v.8h-1.3v-1.6c.3-.2.7-.4,1-.5s.8-.2,1.3-.2c.8,0,1.5.2,1.9.6s.7.9.7,1.6v2.7c0,0,0,.2,0,.3s0,.2,0,.2h.7v1.1h-2c0-.1,0-.2-.1-.4s0-.3,0-.4c-.2.3-.5.5-.7.6s-.6.2-1,.2ZM44.5,138.1c.3,0,.5,0,.8-.2s.4-.3.5-.5v-1h-.9c-.4,0-.7,0-.9.3s-.3.4-.3.7,0,.4.2.5.4.2.6.2Z"/>
      <path class="st5" d="M48.7,139.2v-1l.8-.2v-4.1l-.9-.2v-1h2.4v.9c.3-.3.5-.6.9-.8s.7-.3,1.1-.3c.6,0,1.1.2,1.5.6s.5,1,.5,1.9v2.8l.8.2v1h-3.2v-1l.8-.2v-2.8c0-.5,0-.8-.3-1s-.4-.3-.8-.3-.5,0-.7.2-.4.3-.5.5v3.4l.8.2v1h-3.2Z"/>
      <path class="st5" d="M58.7,139.3c-.6,0-1-.2-1.3-.5s-.5-.8-.5-1.5v-3.4h-.9v-1.1h.9v-1.5h1.6v1.5h1.2v1.1h-1.2v3.4c0,.3,0,.4.2.6s.3.2.4.2.2,0,.3,0,.2,0,.3,0l.2,1.1c-.2,0-.4,0-.6.1s-.4,0-.6,0Z"/>
      <path class="st5" d="M63.4,139.3c-.6,0-1.1-.1-1.6-.4s-.8-.6-1-1.1-.4-1-.4-1.6v-.2c0-.6.1-1.2.4-1.7s.6-.9,1-1.1.9-.4,1.5-.4,1.1.1,1.4.3.7.6.9,1,.3.9.3,1.5v.9h-3.8c0,.3,0,.6.2.8s.3.4.5.6.5.2.8.2.6,0,.9-.1.5-.2.8-.4l.5,1c-.3.2-.6.4-1,.5s-.8.2-1.4.2ZM62.1,135.4h2.3v-.2c0-.3,0-.5-.1-.7s-.2-.4-.4-.5-.4-.2-.6-.2-.4,0-.6.2-.3.3-.4.5-.2.5-.2.7h0Z"/>
      <path class="st5" d="M72.1,139.3c-.5,0-.9-.1-1.3-.4s-.6-.6-.8-1.1-.3-1-.3-1.6h0c0-.8,0-1.4.3-1.9s.5-.9.8-1.2.8-.4,1.3-.4.7,0,.9.2.5.3.7.6v-2.3l-.9-.2v-1h2.5v8l.8.2v1h-2.2v-.8c-.3.3-.6.5-.8.7s-.6.2-1,.2ZM72.6,138.1c.3,0,.5,0,.7-.2s.3-.3.5-.5v-2.7c-.1-.2-.3-.4-.5-.5s-.4-.2-.7-.2-.5,0-.7.3-.3.4-.4.7-.1.7-.1,1.1h0c0,.7.1,1.2.3,1.5s.5.5,1,.5Z"/>
      <path class="st5" d="M78.9,139.3c-.6,0-1.1-.2-1.5-.5s-.5-.8-.5-1.4.1-.7.3-1.1.5-.5,1-.7.9-.3,1.5-.3h.9v-.5c0-.3,0-.6-.3-.8s-.5-.3-.8-.3-.4,0-.5,0-.3.1-.4.2v.8h-1.3v-1.6c.3-.2.7-.4,1-.5s.8-.2,1.3-.2c.8,0,1.5.2,1.9.6s.7.9.7,1.6v2.7c0,0,0,.2,0,.3s0,.2,0,.2h.7v1.1h-2c0-.1,0-.2-.1-.4s0-.3,0-.4c-.2.3-.5.5-.7.6s-.6.2-1,.2ZM79.3,138.1c.3,0,.5,0,.8-.2s.4-.3.5-.5v-1h-.9c-.4,0-.7,0-.9.3s-.3.4-.3.7,0,.4.2.5.4.2.6.2Z"/>
      <path class="st5" d="M86.4,139.2v-1l.9-.2v-6.3l-.9-.2v-1h2.5l3.8,6.1h0v-4.9l-1.1-.2v-1h3.4v1l-.9.2v7.4h-1.5l-3.9-6h0v4.9l1.1.2v1h-3.4Z"/>
      <path class="st5" d="M97.9,139.3c-.6,0-1.1-.2-1.5-.5s-.5-.8-.5-1.4.1-.7.3-1.1.5-.5,1-.7.9-.3,1.5-.3h.9v-.5c0-.3,0-.6-.3-.8s-.5-.3-.8-.3-.4,0-.5,0-.3.1-.4.2v.8h-1.3v-1.6c.3-.2.7-.4,1-.5s.8-.2,1.3-.2c.8,0,1.5.2,1.9.6s.7.9.7,1.6v2.7c0,0,0,.2,0,.3s0,.2,0,.2h.7v1.1h-2c0-.1,0-.2-.1-.4s0-.3,0-.4c-.2.3-.5.5-.7.6s-.6.2-1,.2ZM98.3,138.1c.3,0,.5,0,.8-.2s.4-.3.5-.5v-1h-.9c-.4,0-.7,0-.9.3s-.3.4-.3.7,0,.4.2.5.4.2.6.2Z"/>
      <path class="st5" d="M104.8,139.3c-.6,0-1-.2-1.3-.5s-.5-.8-.5-1.5v-3.4h-.9v-1.1h.9v-1.5h1.6v1.5h1.2v1.1h-1.2v3.4c0,.3,0,.4.2.6s.3.2.4.2.2,0,.3,0,.2,0,.3,0l.2,1.1c-.2,0-.4,0-.6.1s-.4,0-.6,0Z"/>
      <path class="st5" d="M109.4,139.3c-.7,0-1.2-.2-1.6-.6s-.6-1.1-.6-2v-2.7l-.7-.2v-1h2.3v3.8c0,.5,0,.9.2,1.1s.4.3.8.3.5,0,.7-.2.4-.3.5-.5v-3.4l-.8-.2v-1h2.4v5.2l.8.2v1h-2.2v-.8c-.3.3-.6.5-.9.7s-.6.2-1,.2Z"/>
      <path class="st5" d="M114.2,139.2v-1l.8-.2v-4.1l-.9-.2v-1h2.4v.8c0,0,0,.1,0,.1.2-.3.4-.6.6-.8s.5-.3.8-.3.2,0,.3,0,.2,0,.3,0l-.2,1.5h-.8c-.3,0-.5,0-.6,0s-.3.3-.4.5v3.2l.8.2v1h-3.3Z"/>
      <path class="st5" d="M122.2,139.3c-.6,0-1.1-.1-1.6-.4s-.8-.6-1-1.1-.4-1-.4-1.6v-.2c0-.6.1-1.2.4-1.7s.6-.9,1-1.1.9-.4,1.5-.4,1.1.1,1.4.3.7.6.9,1,.3.9.3,1.5v.9h-3.8c0,.3,0,.6.2.8s.3.4.5.6.5.2.8.2.6,0,.9-.1.5-.2.8-.4l.5,1c-.3.2-.6.4-1,.5s-.8.2-1.4.2ZM120.8,135.4h2.3v-.2c0-.3,0-.5-.1-.7s-.2-.4-.4-.5-.4-.2-.6-.2-.4,0-.6.2-.3.3-.4.5-.2.5-.2.7h0Z"/>
      <path class="st5" d="M125.6,139.2v-1l3.3-4.2h-1.9l-.2,1.1h-1.2v-2.2h5.1v1l-3.2,4.2h2l.2-1.1h1.1v2.3h-5.4Z"/>
      <path class="st5" d="M133.9,139.3c-.6,0-1.1-.2-1.5-.5s-.5-.8-.5-1.4.1-.7.3-1.1.5-.5,1-.7.9-.3,1.5-.3h.9v-.5c0-.3,0-.6-.3-.8s-.5-.3-.8-.3-.4,0-.5,0-.3.1-.4.2v.8h-1.3v-1.6c.3-.2.7-.4,1-.5s.8-.2,1.3-.2c.8,0,1.5.2,1.9.6s.7.9.7,1.6v2.7c0,0,0,.2,0,.3s0,.2,0,.2h.7v1.1h-2c0-.1,0-.2-.1-.4s0-.3,0-.4c-.2.3-.5.5-.7.6s-.6.2-1,.2ZM134.3,138.1c.3,0,.5,0,.8-.2s.4-.3.5-.5v-1h-.9c-.4,0-.7,0-.9.3s-.3.4-.3.7,0,.4.2.5.4.2.6.2Z"/>
    </g>
    <text class="st34" transform="translate(11.3 151.4)"><tspan class="st39"><tspan x="0" y="0">Escreve a tua história pela perspectiva de </tspan></tspan><tspan class="st39"><tspan x=".4" y="9.4">um amante da natureza ou ativista. Qual é </tspan></tspan><tspan class="st39"><tspan x="3" y="18.7">a tua paixão? O que te trouxe à Madeira?</tspan></tspan><tspan class="st23"><tspan x="13.4" y="37.4">Vê as coisas de um ponto de vista </tspan></tspan><tspan class="st23"><tspan x=".8" y="46.8">conservacionista. Como protegerias esta </tspan></tspan><tspan class="st23"><tspan x="23.7" y="56.2">natureza de ser estragada?</tspan></tspan></text>
    <g>
      <g>
        <path class="st8" d="M134.8,11.3c3.7.4,7.3.7,11,1.1.6,0,1.2.1,1.8.4.7.5,1.1,1.3,1.4,2.1.2.5.4,1,.2,1.5-.3.6-1,.9-1.7.9-9.8-.2-35.7,1.2-38.8-.5l-.6-.6c-.7-.7-.5-1.9.2-2.6s1.7-.9,2.7-1,2,0,2.9-.2c2.5-.6,4.1-3.2,6.2-4.6,2-1.3,4.5-1.7,6.8-1.1,1.8.5,3.4,1.7,5,2.7,2.3,1.4,4.9,2.6,7.6,3.1"/>
        <path class="st8" d="M134.5,11.9c2.1.2,4.3.4,6.4.6l3.1.3c1.2.1,2.6,0,3.4,1s.5.8.6,1.2.2.4.2.5c0,.5-.2,1.1-.8,1.3s-1.1,0-1.4,0c-1.1,0-2.1,0-3.2,0-5.4,0-10.8.2-16.3.3s-9.7.2-14.6-.2-1.4-.1-2.1-.2-.8-.2-1.2-.6c-.6-.6-.7-1.4-.1-2.1s2-.8,3.1-.8c1.7,0,3.1-.4,4.5-1.4s2.6-2.5,4.1-3.6,4.5-1.6,6.7-.7,3.7,2.2,5.6,3.3,4,1.9,6.2,2.3,1.9-.8.9-1c-2.4-.5-4.6-1.4-6.7-2.6s-3.5-2.4-5.5-3.1c-3.9-1.4-7.6.3-10.4,3s-1.4,1.4-2.1,1.9-2.3.8-3.6.9-3.6.3-4.4,1.8.6,3.5,2.4,3.8c4.9.9,10.2.5,15.1.4s12.7-.3,19.1-.3,2.7.2,4,0,1.6-.5,2-1.2,0-2-.4-2.8c-1.1-2.2-3.3-2-5.5-2.3s-5.9-.6-8.8-.9-1.7,1-.6,1.1h0Z"/>
      </g>
      <g>
        <path class="st11" d="M115.9,17.1c4-1.4,8.4-.9,12.7-1.2,3-.2,6-.9,9-1.2,3-.3,6.1-.2,8.9,1-2.2,1.2-4.9,1.1-7.4,1-3.3,0-6.7,0-10,.2-3.7.1-7.4.3-11.1.4"/>
        <path class="st11" d="M116.5,17.6c2.3-.8,4.9-.8,7.3-.8s4.8-.1,7.1-.5c4.7-.6,9.6-1.8,14.2.1l.3-1c-1.9.9-4.3.6-6.3.6s-4.5,0-6.7.1c-4.6.2-9.3.4-13.9.5s-1.8.2-2.1.8.3.7.8.7c5.3-.2,10.6-.5,15.8-.6s9.9.7,14.3-1.5,1-.7.3-1c-5.1-2.1-10.6-1-15.8-.3s-11.2,0-16.6,1.8-1.3.6-.9,1.1,1.7,0,2.1,0h0Z"/>
      </g>
    </g>
    <g class="st45">
      <g>
        <g>
          <path class="st8" d="M17.5,38.3c2.9.3,5.7.6,8.6.9.5,0,1,.1,1.4.3.6.4.9,1,1.1,1.7.2.4.3.8.1,1.2-.2.5-.8.7-1.3.7-7.6-.1-28,.9-30.4-.4l-.5-.5c-.6-.5-.4-1.5.1-2s1.3-.7,2.1-.8,1.5,0,2.3-.2c2-.5,3.2-2.5,4.9-3.6,1.5-1,3.5-1.4,5.3-.8,1.4.4,2.7,1.3,3.9,2.1,1.8,1.1,3.8,2,5.9,2.4"/>
          <path class="st8" d="M17.3,38.7l4.8.5,2.4.2c.9,0,2.3,0,3,.8s.5.8.6,1.1v.4c0,.3-.3.6-.5.9-.2.1-.8,0-1,0-.8,0-1.7,0-2.5,0-4.2,0-8.3.2-12.5.2s-7.6.2-11.3-.1-2.1,0-2.7-.5-.7-.8-.6-1.3c.3-1.3,1.9-1.1,2.8-1.2s2.4-.3,3.4-1.1,1.9-1.9,3-2.7c1.7-1.3,3.9-1.4,5.9-.5s2.8,1.8,4.3,2.5,3,1.3,4.6,1.6,1.5-.6.7-.8c-1.9-.4-3.7-1.2-5.4-2.2s-2.8-1.9-4.4-2.4c-2.9-.9-5.6.3-7.7,2.4s-1.1,1.1-1.8,1.6c-1.1.7-2.2.6-3.4.7s-2.4.5-2.9,1.7.7,2.5,2,2.7c4,.7,8.2.4,12.2.3s10.1-.2,15.1-.3,2.3.2,3.2-.2c1.5-.5,1.3-1.8.7-3s-2.4-1.6-4-1.7c-2.4-.2-4.8-.5-7.2-.7s-1.3.8-.5.8h0Z"/>
        </g>
        <g>
          <path class="st11" d="M2.7,42.8c3.2-1.1,6.6-.7,10-1,2.4-.2,4.7-.7,7-.9s4.8-.1,7,.8c-1.7.9-3.8.9-5.8.8-2.6,0-5.2,0-7.8.2-2.9.1-5.8.2-8.7.3"/>
          <path class="st11" d="M3.2,43.2c1.9-.6,3.9-.6,5.9-.6s3.6-.1,5.4-.4c3.7-.5,7.6-1.4,11.2,0l.3-.8c-1.5.7-3.4.5-5,.5s-3.5,0-5.3,0c-3.6.1-7.2.3-10.8.4s-1.4.2-1.7.6.2.6.6.6c4.2-.2,8.4-.4,12.6-.5s7.6.5,11-1.2.8-.6.3-.8c-4-1.7-8.3-.8-12.4-.2s-8.8,0-13,1.4-1,.4-.7.9,1.3,0,1.6,0h0Z"/>
        </g>
      </g>
    </g>
    <g>
      <path class="st19" d="M71.4,26.3c0,.2,0,.5,0,.7s0,.5,0,.7.2.2.3.3.2.2.4.3c.5.5,1,1,1.5,1.5s.4,0,.5,0,.3-.1.2-.2c-.5-.5-1-1-1.5-1.5s-.2-.2-.4-.3-.2-.2-.3-.2c-.1-.2,0-.5,0-.7s0-.5,0-.7-.8,0-.8.2h0Z"/>
      <path class="st36" d="M126.7,70.6c1.3,0,2.5.4,3.7,1,.9.5,1.8,1,2.5,1.8.7.7,1.1,1.6,1.6,2.5,1.2,2.4,2.5,4.9,3.7,7.3.3.6.6,1.2.6,1.8,0,.7-.6,1.4-1.3,1.6.6.3.8,1,.5,1.6s-.7,1-1.3,1.4c-2.7,1.9-5.9,3-9.2,3-.6,0-1.2,0-1.7-.3-.7-.4-1-1.1-1.3-1.8-1.5-3.3-3-6.6-4.3-10-.2-.6-2.1-5-1.9-5.4.5-.8,3-2.4,3.9-2.7,0,0,3.3-1.8,4.6-1.9Z"/>
      <path class="st29" d="M62.1,90.1c-.5,1.3-1,2.6-1.4,4,0,.2,0,.4,0,.6,0,.2.2.3.4.4,1.6,1.3,3.4,2.4,5.3,3.2,1-1.6,1.6-3.5,1.8-5.4,0-.1,0-.3,0-.4,0-.1-.2-.2-.4-.3-1.9-.9-3.8-1.6-5.8-2.3"/>
      <path class="st29" d="M82.3,93c-.9,2.1-1.9,4.3-2.8,6.4,0,.2-.2.4-.1.6,0,.2.2.3.3.5,1.1,1.1,2.3,2.1,3.7,3,.1,0,.3.2.5.1.2,0,.3-.2.3-.3,1.1-1.9,2.2-3.7,3.3-5.6.3-.4.5-1,.4-1.5-.1-.5-.7-.9-1.2-1.1-1.3-.7-2.7-1.4-4-2"/>
      <path class="st4" d="M96,41.8c-.2.4.8,2.6.6,3-.4.7-1.1,1.5-.6,2.1.2.3.6.4,1,.5.7.2,1.5.5,2.3.3.4-.1.8-.4,1.2-.6,1.8-1.3,3.4-2.9,4.6-4.8.2-.2.3-.5.3-.8,0-.4-.2-.7-.4-1-.8-1.1-1.6-2.2-2.4-3.3-.3-.4-.9-1-1.3-.7"/>
      <g>
        <path class="st35" d="M98.4,28.4c.8,2.2,1.3,6.1,3,7.8.9.9,1.2,1.9,1.9,2.9s1,4.4.5,5c-1.8,2.1-2.4,5.1-1.5,7.7.5-3.8,3.3-6.8,6-9.4.1,1,1.3,1.5,2.3,1.8,3.9,1.3,6.9,5.1,7.4,9.2.2,1.5,0,3.2.7,4.6.7,1.4,2.1,2.6,2.2,4.2.3-2.4,0-4.8-.9-7.1,1.5,1,3.8.3,4.5-1.3-1.4.5-2.9-.6-3.7-1.8-1.2-1.6-1.7-3.6-2.6-5.5-.8-1.8-2.1-3.7-3.9-4.4-1-.4-2-.4-2.9-1-1.7-1-1.9-6.7-2-8.6l-10.9-4.1Z"/>
        <path class="st35" d="M98,28.5c.7,2,1,4.2,1.9,6.2s2.7,3.3,3.4,5.3.4,1.8.4,2.7-.5,1.6-1.1,2.5c-1.2,2-1.4,4.4-.7,6.6s.7,0,.8-.2c.6-3.8,3.3-6.7,6-9.4h-.7c.4,1.8,3,2.1,4.3,2.9,1.9,1.1,3.5,2.9,4.4,4.9s.9,4.1,1.2,6.4.6,2,1.2,2.8,1.3,1.8,1.4,3,.8,0,.8-.2c.3-2.4,0-4.8-.9-7.1l-.7.3c1.8,1,4.3.3,5.2-1.6s-.4-.1-.4-.1c-3.4.9-4.9-5-5.9-7.2s-2.4-4-4.8-4.7-2.2-.4-2.8-1.5-.6-1.6-.8-2.4c-.4-1.8-.5-3.6-.6-5.4,0,0,0,0,0,0-3.6-1.4-7.2-2.7-10.9-4.1s-.9.2-.6.4l4.6,1.7,3.5,1.3c.7.3,1.8.5,2.4.9s.2,0,.2.2c.2.4,0,1.5.1,2,.1,1.5.3,3,.7,4.4s.9,2.1,2.3,2.5,1.9.4,2.8,1,1.7,1.6,2.3,2.6c1.6,2.7,2.8,9.7,7.3,8.5h-.4c-.8,1.3-2.4,1.8-3.8,1s-.8,0-.7.3c.9,2.3,1.2,4.6.9,7l.8-.2c-.2-2.1-2.2-3.5-2.6-5.6s-.2-4.4-1.2-6.6-2.1-3.3-3.6-4.4-1.6-1-2.5-1.4-2.3-.6-2.6-1.8-.7,0-.7.1c-2.7,2.7-5.4,5.6-6,9.5l.8-.2c-.8-2.7-.2-5.2,1.4-7.4s.4-3.1,0-4.4c-.6-2-2.4-3.3-3.3-5.2s-1.3-4.2-2-6.3-.9,0-.8.2Z"/>
      </g>
      <path class="st29" d="M76.6,39.8c-1-2.2-.7-5,.9-6.8.8-.9,2-1.5,3.1-2.1.9-.5,1.8-.9,2.6-1.4.4.7-.2,1.6-.7,2.3-.6.8-1,1.8-1.2,2.8,0,.2,0,.4,0,.5.2.2.6,0,.9,0,.5,0,.6.8.3,1.3s-.7.7-1,1.2c-.3.6-.2,1.3-.3,1.9s-.7,1.4-1.3,1.2c-1.7,4-2.7,8.2-3,12.5,1-.4,2-.9,3-1.3.2,0,.4-.1.5,0,.1,0,.2.2.3.3,1.2,1.7,2.2,3.6,2.9,5.6,0,.2.1.4,0,.6-.1.4-.5.5-.9.5-3.9.8-7.8,1.5-11.6,2.3-.2,0-.5,0-.7,0-.2-.1-.3-.3-.4-.5-1.2-3.3-.1-7,1.3-10.3,1.7-4,5.2-10.7,5.2-10.7Z"/>
      <path class="st4" d="M76.6,53.6c-.3.8-.7,1.5-1.1,2.2s-1,1.6-1.6,2.3.3,0,.3,0c.2,0,.3,0,.5-.2.6-.7,1.2-1.5,1.6-2.3s.8-1.4,1.1-2.2-.3,0-.3,0c-.1,0-.4,0-.5.2h0Z"/>
      <path class="st14" d="M90,27c-1.6,3-1.2,6.6-.4,9.9.3,1.5.8,3,1.6,4.3s2.2,2.3,3.7,2.4c1.6,0,3-.9,4.1-2,1.1-1.2,1.8-2.6,2.8-3.8.2-.2.3-.4.6-.5.3-.1.5-.1.8-.2,1.1-.2,1.7-1.3,2-2.3.3-.9.4-1.9,0-2.7s-1.4-1.5-2.2-1.2"/>
      <path class="st4" d="M103.2,33.2s0,0,.1,0,0,0,0,0c0,0,0,0,0,0s.1,0,.1.1,0,0,0,.2,0,.1,0,.2,0,.1,0,.2,0,0,0,.1,0,0,0,0,0,0,0,0c0,0,0,0,0,0,0,0,0,0,0,0,0,0,0,0,0,0h0s0,0,0,0c0,0,0,0,0,0h0c0,0,0,0,0,0s0,0,0,0h.4c0,0,0-.3,0-.5s0,0-.1,0c0,0-.2,0-.3,0s-.2,0-.2.1,0,0,0,.1c0,.2,0,.4,0,.5s.3.1.4.1c.4-.1.8-.4.8-.9s-.2-.7-.6-.8-.4,0-.5,0-.1,0-.1.1,0,0,0,.1h0Z"/>
      <g>
        <path class="st10" d="M92.9,43.3c-4.6,3.6-9.2,6.3-14.6,8.5,2.2,4,3.9,6.9,6.3,10.7,1.2-.8,2.8-2.1,3.1-2.2.3,0,.5,0,.8.2,3.4,1.5,4.5,5.4,7.5,7.5,1.7,1.2,4.1,2.8,5.4,4.4,2.7,3.1,5.7,4.9,9.1,7.2,1.3-1.8,4.4-2.2,6.5-2.9,1.2-.4,1.1-1.6,2.3-2.1,1-.4,1.8-1.1,2.7-1.8.3-.2.6-.5.6-.9,0-.3-.1-.6-.3-.8-3.4-5.5-2.2-12.6-3.5-18.9-.3-1.3-.7-2.7-1.4-3.8-1.8-3-5.1-4.5-8.2-6-.5-.2-1.1-.5-1.7-.4-.5.1-.9.5-1.2.8-2.2,2-3.4,3-6.4,3.3-2.8.3-4-1.1-3.7-2.6-1.4.6-3.2-.3-3.2-.3Z"/>
        <path class="st10" d="M92.7,43.1c-4.5,3.5-9.3,6.3-14.5,8.4s-.3.2-.2.3c2,3.7,4.1,7.2,6.3,10.8s.5,0,.6,0c.5-.4,1.1-.8,1.6-1.2s.9-.8,1.3-.9c.6-.1,1.8,1,2.2,1.3s.9.9,1.3,1.4c1.6,1.9,2.9,4,5,5.5s2.6,1.8,3.7,2.9,2,2.2,3.1,3.2c2.2,1.9,4.7,3.5,7,5.2s.5,0,.7-.2c1.5-1.9,4.2-1.9,6.2-2.7s.9-.5,1.3-.9c.5-.7.7-.9,1.5-1.4s1.1-.7,1.6-1,1.5-.9,1.6-1.7-.9-1.9-1.2-2.7c-.9-2.2-1.3-4.6-1.6-6.9-.4-4.6,0-10-2.5-14.1s-2.8-3.2-4.6-4.2-1.9-1-2.9-1.5-1.7-.9-2.7-.7-1.5.9-2.2,1.5-1.8,1.6-3,2c-1.7.7-6.3,1.3-5.8-1.8s-.3-.2-.4-.2c-.9.3-2,.1-2.8-.3s-1,.2-.6.4c1.1.5,2.4.7,3.6.3l-.4-.2c-.5,3.6,4.8,2.9,6.8,2.2s2.8-2.1,4.3-3.1,3.1.4,4.3,1,2,1.1,3,1.8c4.4,3.2,4.7,8.5,5,13.5s.3,4.8.8,7.2.6,2.2,1,3.3.3.8.6,1.2.3.5.4.7c.4.7,0,1.2-.6,1.7-.9.9-2.3,1.2-3.1,2.2s-.6,1-1.5,1.4-1.1.3-1.6.4c-1.8.5-3.7,1-4.9,2.5l.7-.2c-2.9-2-5.9-3.8-8.3-6.4s-2.1-2.2-3.4-3.2-2.7-1.8-3.9-2.9c-1.9-1.9-3.1-4.4-5.3-6s-1.6-1.1-2.5-.8-2.1,1.5-3.1,2.2h.6c-2.2-3.5-4.3-7.1-6.3-10.7l-.2.3c5.3-2.2,10.2-5,14.7-8.5s-.2-.5-.5-.3Z"/>
      </g>
      <g>
        <path class="st33" d="M92.7,43.3c-1.6,1.8-1.6,4.6-.9,6.9.7,2.3,3.6,7.7,3.9,7.9s.9-.2,1.1-.6c-.8-2.3-2.2-4.6-3.1-6.9-.8-2.3-1.1-7.4-1.1-7.4Z"/>
        <path class="st33" d="M92.3,43.3c-3.3,3.9,0,9.6,2,13.3s.6,1.3,1,1.7,1.7,0,1.9-.7-.5-1.4-.7-1.8c-.4-.9-.8-1.7-1.3-2.6-.6-1.3-1.2-2.6-1.5-3.9s-.6-4-.7-6-.8,0-.8.2c0,1.4.2,2.9.4,4.3s.3,1.9.6,2.9c.5,1.4,1.2,2.8,1.9,4.1s.6,1.3.9,2,.4.8.3,1-.3.3-.4.2-.3-.4-.4-.6c-.2-.3-.4-.7-.6-1.1-.9-1.7-1.8-3.5-2.5-5.3s-1.2-5.5.6-7.6-.6-.2-.7,0Z"/>
      </g>
      <g>
        <path class="st33" d="M98.9,65.2c4.9,4.4,11.2,7,17.3,9.4.7.3,1.4.5,2.1.5s1.5-.5,1.6-1.2c-4-.9-17.5-9.5-18.1-10.3l-2.9,1.6Z"/>
        <path class="st33" d="M98.5,65.3c3.5,3.1,7.6,5.3,11.9,7.2s4.1,1.9,6.3,2.6,3.2.3,3.6-1.3,0-.2-.2-.2c-1.6-.4-3-1.2-4.5-1.9s-3.9-2.1-5.8-3.3-3.5-2.1-5.2-3.2-1.9-1.1-2.5-1.8-.5,0-.6,0l-2.9,1.6c-.5.3.2.4.5.3l2.9-1.6h-.6c.8,1,2.3,1.7,3.3,2.4,2.2,1.4,4.4,2.8,6.6,4.1s4.3,2.4,6.5,3.4.7.3,1.1.4.4,0,.5.2c.1.1.8-.3-.2.4s-1.3.4-1.9.2c-2-.6-4-1.6-6-2.4-4.3-1.9-8.5-4.1-12.1-7.3s-1,.1-.7.3Z"/>
      </g>
      <g>
        <path class="st33" d="M120.7,65.5c1.2,2,3.3,3.3,4.3,5.4,0,.1.1.3.1.5,0,.2-.2.4-.4.5-.3.3-.7.5-1,.7-.1,0-.3.2-.4.1-.1,0-.2-.1-.3-.2-1.4-1.7-2.3-7-2.3-7Z"/>
        <path class="st33" d="M120.3,65.6c.7,1.2,1.7,2.1,2.7,3.2s.9,1,1.2,1.6.5.7.4,1-.7.6-1,.8-.2.2-.4,0-.1-.1-.2-.2c-.1-.2-.2-.4-.3-.6-.2-.5-.4-.9-.6-1.4-.3-1-.6-2-.8-3s-.2-1.1-.3-1.7-.8-.1-.8.2c.3,1.7.7,3.5,1.3,5.1s.4,1,.7,1.5.7,1,1.4.7.8-.5,1.1-.7.7-.5.7-.9-.2-.7-.4-1-.4-.7-.7-1c-1.1-1.4-2.5-2.5-3.4-4s-.9,0-.7.3Z"/>
      </g>
      <path class="st33" d="M117,75.8c1,1.2,2,2.4,3,3.5s.9,1.2,1.4,1.7.4.1.6,0,.6-.1.9-.2c1.1-.3,2.1-1,2.7-1.9s.1-1-.3-1.4-1-.9-1.5-1.3c-1.2-1-2.6-1.8-4-2.4s-.8,0-.8.2c.1,2.4,2.1,4.1,2.7,6.4l.8-.2c-1.7-1.4-3.2-3.1-4.3-5l-.5.2c.6-.1,1.2.4,1.7.6s1,.5,1.6.8c1,.5,2.1.9,3.2,1.3s.3,0,.5,0,.4-.2.2-.2c-1.3-.5-2.5-1-3.7-1.6s-2.1-1.4-3.3-1.2-.5.1-.5.2c1.2,1.9,2.6,3.6,4.4,5s.8,0,.8-.2c-.6-2.3-2.6-4-2.7-6.4l-.8.2c1.8.8,3.4,1.9,4.9,3.2s.8.6,1,1-.2,1-.5,1.3c-.7.7-1.5,1.2-2.5,1.3h.2c-1.5-1.8-3-3.6-4.5-5.3s-.8.1-.7.3h0Z"/>
      <path class="st33" d="M127.2,91.3c.3-.9,1.3-1.3,2.2-1.6s2.4-.5,3.6-.7.4,0,.4-.2-.2-.1-.3-.1c-1.4.2-2.8.4-4.2.8s-2.1.8-2.4,1.9.7.1.8-.1h0Z"/>
      <path class="st33" d="M121.5,73.8c3.8,2,6.4,5.5,8.8,9s1.2,1.7,1.8,2.6.9,1.5,1.8,1.5c1.9,0,3.6-1.5,5-2.7s-.4-.4-.6-.2c-.8.7-1.6,1.4-2.5,1.9s-1.2.6-1.8.3-.8-.7-1.1-1.2c-1-1.5-2-3-3-4.4-2.1-2.8-4.4-5.5-7.6-7.1s-1,.2-.6.4h0Z"/>
      <path class="st33" d="M133.7,82.6c.3.5.7,1,1.3,1.2s.6,0,.6-.3c.1-.6-.1-1.2-.6-1.5l-.4.5c.4,0,.7.1,1,.3s.3,0,.4,0,.3-.1.3-.3c0-.2,0-.5,0-.7l-.5.3c.1,0,.3,0,.4.2s.2.3.2.4l.8-.2c0-.2-.2-.4-.2-.5s-.3-.2-.5-.1-.4.2-.3.3.2.4.2.5c.1.3.9.1.8-.2-.1-.5-.6-.9-1.2-.9s-.5,0-.5.3,0,.5,0,.7l.7-.2c-.4-.3-.8-.4-1.3-.4s-.3,0-.5.2,0,.2,0,.3c.3.3.5.8.4,1.2l.6-.3c-.4-.2-.8-.5-1-.9s-.3-.2-.5-.1-.4.2-.3.3h0Z"/>
      <path class="st33" d="M122.7,73.2c1.1-.4,2.3-.5,3.5-.3s.9.2,1.4,0,.5-.2.7-.3.2-.1.2-.2c0,0,0,0,.1-.1,0,0,0,0,0,0,.2,0,.4,0,.5-.2s0-.2-.2-.2c-.5,0-.8.3-1.2.6s-.4.1-.6,0-.6,0-.9-.1c-1.2-.1-2.5,0-3.6.4s-.4.1-.3.3.3.1.4.1h0Z"/>
      <g>
        <path class="st15" d="M87.3,68.5c-2.8-2.1-5.6-4.2-8.5-6.2-2.2-1.6-5.2-3.2-7.5-1.7-1,.6-1.5,1.7-2.1,2.7-2.4,4.8-4.5,9.8-6.2,15-.5,1.5-1,3.1-2.2,4.1-.4.4-1,.7-1.3,1.2-1.4,2.3,2.7,5.3,1.2,7.5,2.7.5,5.3,1.6,7.6,3,.3-1.7,2.3-2.3,4-2.7s3.6-1.3,3.6-3c0-.7-.4-1.3-.4-2,0-.5.2-1,.4-1.5.6-1.3,1.1-2.6,1.7-3.9,0,1.6,2.3,2.2,2.6,3.7.2.7-.1,1.5-.2,2.2-.5,2.8,1.7,6.1,0,8.4,2.9-1.1,6.6.8,7.3,3.9,1-.8,2-1.5,3-2.3.3-.2.6-.4.9-.5.3,0,.7.1,1,.3,2,.9,4.2,1.7,6.4,1.5,1.4,0,3-.9,2.9-2.3,1.6-.9,3.5-.5,5.3,0,2.6.6,5.3,1.3,7.9,1.9,1.9.5,4,.9,5.7,0,.6-.4,1.2-.9,1.6-1.5,1.8-2.6,1.5-6.1.5-9.1-1-3-2.6-5.8-3.3-8.8,0-.4-.2-.9-.5-1.2-.3-.4-.9-.5-1.4-.6-2-.2-4.1.4-5.7,1.7-.3.2-.5.5-.9.5-.6.1-1.2-.4-1.7-.9-2.8-3.1-5.8-6.1-9-8.8-1.7-1.4-3.7-2.9-5.9-2.8-.9,0-1.9.3-2.6-.2-.3-.2-.5-.6-.9-.7-.4-.1-.8.2-1.1.5-.9.9-1.7,1.9-2.4,2.9"/>
        <path class="st15" d="M87.6,68.4c-1.8-1.3-3.6-2.7-5.4-4s-3.3-2.5-5.2-3.5-5.4-1.6-7.2.8-1.9,3.5-2.7,5.2-1.8,4-2.5,6-1.5,4.1-2.2,6.2-.6,1.6-1,2.3-1.6,1.3-2.1,2.2c-1.6,2.5,2.7,5,1.1,7.5s0,0,0,0c2.7.5,5.2,1.6,7.5,3s.7,0,.7-.2c.8-2.9,5-2.2,6.9-4.1s.5-2,.3-3.3.4-1.9.7-2.8.9-2,1.3-3.1l-.8.2c0,1,.8,1.6,1.5,2.2s1,.9,1.1,1.5-.2,1.7-.3,2.5c-.2,2.6,1.7,5.6,0,8s.5,0,.5,0c2.9-.9,6,1.1,6.8,3.9s.6,0,.7,0c.8-.6,1.5-1.1,2.3-1.7s1.1-.9,1.7-.8,1,.4,1.3.6c1.6.6,3.3,1.1,5,1.1s2-.2,2.8-.7.7-.5.9-.9,0-.5.2-.6c.3-.3,1.2-.5,1.6-.6s.7,0,1.1,0c3.9.5,7.6,2,11.5,2.7s5,0,6.5-2.3,1.3-6.3.3-9.2-1.5-3.6-2.2-5.4-.6-1.7-.8-2.5-.2-1.4-.7-1.9c-.8-.8-2.4-.7-3.5-.6s-2.6.7-3.7,1.5-.5.4-1.1.5-.7,0-1.2-.5c-.7-.7-1.3-1.5-2-2.2-1.3-1.4-2.7-2.8-4.1-4.1-2.6-2.4-5.6-5.6-9.5-5.4s-1.5.1-2.2-.4-.4-.5-.8-.6-.8,0-1.1.2c-1.3.6-2.3,2.3-3.1,3.5s.6,0,.8-.1c.5-.7,2-3.4,3.1-3.1s.6.6.9.7.8.2,1.3.2c1.7,0,3,0,4.5.9s2.1,1.5,3.1,2.4c2.1,1.8,4.2,3.8,6.1,5.8s1.6,1.9,2.6,2.8,1,.7,1.7.5,1.4-.9,2.1-1.3c1.4-.8,4.8-1.8,5.7.2s.5,2.2.9,3.2,1.1,2.6,1.6,3.9c1,2.3,1.8,4.7,1.7,7.2s-.3,2.4-.9,3.5-.8,1.2-1.4,1.7c-1.3,1-2.8.9-4.2.6-3.1-.6-6.1-1.5-9.2-2.2s-4.1-.9-6.1.1-.2,0-.2.2c0,2.5-3.6,2.1-5.2,1.7s-2.5-1-3.8-1.4-1.1,0-1.7.3c-1.2.7-2.3,1.7-3.4,2.5h.7c-1-3.4-4.7-5-7.9-3.9h.5c1.6-2.4-.3-5.3,0-8s.7-2.4-.3-3.5-2-1.5-2.1-2.8-.7,0-.8.2c-.4.9-.8,1.9-1.2,2.8s-.7,1.5-.8,2.2.4,1.6.4,2.4-.6,1.6-1.3,2.1c-2,1.2-5.5.9-6.3,3.6l.7-.2c-1.6-1-3.3-1.8-5.1-2.4s-1-.3-1.5-.4-.8,0-.8-.6.2-.9,0-1.4c-.3-1.3-1.1-2.3-1.5-3.5s-.3-1.3,0-1.9,1.3-1.3,1.9-2c1.1-1.4,1.5-3.3,2.1-4.9s1.5-4.1,2.3-6.1,1.7-4,2.7-5.9.9-1.8,1.4-2.7c1-1.6,2.5-2.4,4.4-1.9s4.3,2.3,6.2,3.7,4.1,3,6.1,4.5.9-.2.7-.3h0Z"/>
      </g>
      <g>
        <path class="st33" d="M74.6,30.5c-.4-.8-1.2-1.4-2-1.6s-1.8,0-2.5.6c-.4.3-.7.8-.9,1.2-.9,1.8-.5,4.2.8,5.7.2.2.4.4.7.5.2,0,.5.1.7.1,3.1.1,6.2,0,9.3-.2.4,0,.9,0,1.3-.3.4-.2.5-.3.8-.6.7-1,8.7.9,10.8-.1s.2-4.3.2-4.9c0-.1,0-.3,0-.3,0-.1-.2-.2-.4-.2-2.2-.5-13.8-1.4-16.1-1.3-.6,0-1.1,0-1.6.3-.4.2-.8.6-.9,1.1,0-.1,0-.3.2-.3"/>
        <path class="st33" d="M75,30.4c-1.1-2-3.8-2.3-5.4-.7s-1.8,5.9.4,7.3.8.3,1.2.3c1.1,0,2.2,0,3.3,0,1.9,0,3.9,0,5.8-.2s1.8-.3,2.7-.9,1.6-.3,2.5-.3c2.1.2,4.3.6,6.5.4s2.5-.5,2.5-2.2-.1-2.1-.3-3.1-.5-.8-1.2-1c-1.9-.3-3.9-.5-5.9-.6s-5.1-.4-7.6-.5-4.3-.4-5.2,1.6l.8-.2h0c.5-.3-.2-.3-.5-.2h-.2c0,.1-.2.2-.2.3v.2c0,.2.7,0,.8-.2.7-1.7,3.6-1.2,5.1-1.1s3.5.2,5.2.4,3.4.3,5.1.5,1.2.1,1.8.2,1.1.2,1.3,1,.8,3.8-.2,4.4-1.6.2-2.2.2c-.9,0-1.8-.1-2.8-.2-1.4-.1-2.8-.4-4.3-.3s-.8,0-1.1.2-.2.1-.3.2c-.2.1-.3.3-.5.5-.6.4-1.4.3-2.1.4-1.7.1-3.4.2-5.1.2s-3.7.4-4.7-.9-1.2-2.9-.9-4.3.4-1.4,1-1.9c1.6-1.5,3.3-.6,4.1.8s.9,0,.8-.2h0Z"/>
      </g>
      <g>
        <path class="st33" d="M92.6,31.1s1.4.2,2.4.2c0,0,.2,0,.2,0,0,0,0,0,0,.1.2.6.3,1.1.3,1.7s-.2,1.2-.6,1.6c0,0-.2.2-.3.2,0,0-.3,0-.3,0h-2"/>
        <path class="st33" d="M92.3,31.3c.5,0,.9.1,1.4.2s.3,0,.5,0,.2,0,.3,0,.3,0,.3,0c0,0,.1.4.2.5,0,.2.1.5.2.7,0,.4,0,.9,0,1.3s-.1.4-.2.5,0,.1-.1.2,0,0-.1.1c0,0,0,0,0,0,.2,0,.2,0,.1,0,0,0-.2,0-.3,0h-.6c-.4,0-.8,0-1.2,0s-.4,0-.5.1-.1.2,0,.2h1.2c.2,0,.5,0,.7,0s.4,0,.6,0c1-.1,1.4-1.2,1.4-2s-.1-1-.3-1.5,0-.4-.3-.4-.4,0-.6,0c-.7,0-1.3-.1-2-.2s-.4,0-.5.1,0,.2,0,.2h0Z"/>
      </g>
      <g>
        <path class="st17" d="M74.9,31.2c-.3.5-.3,1.1-.3,1.7,0,.6,0,1.2.2,1.8s.6,1.1,1.2,1.3c.5.2,1,0,1.5-.2s.8-.7,1-1.1c.6-1.2.6-2.6,0-3.8-.2-.3-.4-.6-.7-.7-.7-.4-2-.2-2.4.2s-.2.3-.5.8Z"/>
        <path class="st33" d="M74.5,31.3c-.3.7-.3,1.4-.3,2.2s.1,1.4.5,1.9.9.9,1.5.9,1.3-.2,1.9-.6c1-.8,1.5-2.2,1.3-3.4s-.3-1.3-.8-1.8-.9-.6-1.4-.6-1.3,0-1.8.4-.4.3-.6.5-.2.4-.3.6.3.1.3,0c.1,0,.4,0,.5-.2.1-.3.2-.6.5-.8s.7-.2,1-.2c1.1,0,1.6,1.1,1.8,2.1s0,2.2-.7,3-.8.8-1.4.6-.9-.5-1.1-1-.4-1.2-.4-1.8,0-1.4.3-2-.3-.1-.3,0c-.1,0-.4,0-.5.2Z"/>
      </g>
      <path class="st33" d="M76.3,31.2c-.5.4-.8,1-.8,1.7s.3,1.3.8,1.8.4,0,.4,0,0-.2.1-.4c0-.2-.4-.2-.4,0s0,.2-.1.4h.4c-.5-.5-.7-1.1-.7-1.7s.3-1.2.7-1.5,0-.2,0-.2-.2,0-.3,0h0Z"/>
      <g>
        <path class="st17" d="M70.4,30.2c-.7,0-1.2.6-1.5,1.2s-.3,1.3-.3,1.9c0,.7.2,1.4.6,2s1.1,1,1.8.8c.5-.1.9-.5,1.3-.9.3-.4.6-.8.7-1.3,0-.4,0-.8,0-1.1,0-.9-.2-1.9-1-2.3-.5-.3-1-.3-1.6-.3"/>
        <path class="st33" d="M70.5,30c-1.3.2-2,1.2-2.2,2.4s0,2.6,1,3.4,2.3.5,3.1-.3.8-.9,1-1.5,0-1.3,0-1.9-.2-1.2-.7-1.6-1.3-.5-1.9-.5-.4,0-.5.1-.1.2,0,.2c.5,0,1.1,0,1.5.3s.6.6.7,1.1.2.9.2,1.3,0,1.1-.3,1.6-.6.9-1,1.2-.8.2-1.3,0c-.9-.6-1.1-1.7-1.2-2.6s0-1.2.3-1.8.6-.9,1-1,.4,0,.5-.2-.2-.1-.3,0h0Z"/>
      </g>
      <path class="st33" d="M70.7,31.1c-.7.5-1.1,1.3-1.1,2.2s.1.9.3,1.3.2.4.4.3.4-.2.3-.4-.6,0-.4.2h0c0-.1.1-.2.2-.2h0c0,0,.1,0,.2,0,0,0-.2-.3-.2-.4,0-.1-.1-.3-.1-.4,0-.3,0-.6,0-.9,0-.6.4-1.1.9-1.5s.1-.2,0-.2-.2,0-.3,0h0Z"/>
      <path class="st33" d="M71,32.8c-.2.3-.1.7,0,.9s.2,0,.3,0,.2-.1.1-.2,0,0-.1-.2h0c0,0,0-.1,0-.2h0s0,0,0-.1,0,0,0,0c0,0,0,0,0,0s0,0,0,0c0,0,0,0,0,0,0,0,0-.2-.1-.2s-.2,0-.3.1h0Z"/>
      <path class="st33" d="M76.6,32.4v.4c0,0,0,0,0,.1s.1,0,.2,0,.1,0,.2,0,0,0,0-.1v-.4c0,0,0,0,0-.1s-.1,0-.2,0-.1,0-.2,0,0,0,0,.1h0Z"/>
      <g>
        <path class="st19" d="M66.3,106.4c0-1.8,0-3.6.3-5.4.1-.8.3-1.6.8-2.3.5-.6,1.3-1.2,1.2-2-1.2,0-2.3-.6-3.3-1.2-1.7-1-3.3-2.2-4.6-3.6-.3.5-.4,1-.5,1.6-.9,3.1-3.6,5.5-6.7,6.2-1.8.4-3.6.2-5.5.4-.3,0-.5,0-.7.2-.2.1-.3.3-.4.4-.5.9-.9,1.9-1.1,2.9,0,.6-.1,1.2.2,1.7.3.4.7.7,1.1.9,1.6.8,3.3,1.1,5,1.4,3.7.5,7.5.3,11.2.2.5,0,1,0,1.5-.2s.9-.5,1-1"/>
        <path class="st19" d="M66.7,106.3c0-2,0-4,.4-5.9s.5-1.5,1-2.2.8-.9.8-1.6,0-.1-.1-.1c-3-.3-5.8-2.6-7.8-4.7s-.7,0-.7.2c-.4.8-.5,1.7-.9,2.5s-.9,1.7-1.6,2.4c-1.7,1.8-3.9,2.7-6.4,2.9s-2.3,0-3.4.1-1,.2-1.4.5c-.9,1-1.6,3.2-1.3,4.5s2.8,2.1,4.1,2.4c2.1.5,4.3.7,6.5.7s4.8,0,7.2-.1,2.5-.2,3-1.5-.7-.1-.8.1c-.5,1.3-3,1-4.2,1.1s-1.8,0-2.7,0c-2.1,0-4.1,0-6.2-.3s-4.1-.5-5.5-1.7-.8-1.9-.5-2.9.7-2.3,2.1-2.5,3.3,0,5-.4,2.3-.7,3.3-1.4,2-1.7,2.7-2.8,1-2.6,1.6-3.9l-.7.2c1.2,1.2,2.5,2.3,4,3.2s1.3.8,2.1,1.1.8.3,1.2.4.6,0,.5.5-1,1.2-1.3,1.7-.5,1.3-.6,2c-.3,1.8-.4,3.7-.3,5.5s.8,0,.8-.2h0Z"/>
      </g>
      <g>
        <path class="st33" d="M45.9,105.3c-.4.6-.8,1-.6,1.7,0,0,0,.2.1.3,0,0,.2.1.3.2,2.3.7,4.6,1.4,7,2,.8.2,1.5.4,2.3.4,1.1,0,2.1-.5,3-1,.2,0,.4-.2.6-.2.5,0,.8.6,1,1.1,0,0,0,.2.2.2.1,0,.2,0,.3,0,.5-.3,1.1-.7,1.6-.3.1,0,.2.2.3.3.2.1.4,0,.7,0,.8-.3,1.7-.6,2.5-1,.2,0,.3-.1.5-.3.2-.2.2-.5.2-.8,0-.4,0-.9,0-1.3,0,0-2.4,1.5-9.5,1.4s-10.5-2.7-10.5-2.7Z"/>
        <path class="st33" d="M45.6,105.3c-.4.6-1.2,1.7-.3,2.3s1.3.4,1.8.5c.8.2,1.5.5,2.3.7,1.5.4,3.1,1,4.6,1.3s2.3,0,3.4-.6.7-.4,1.2-.3.4.5.7.8.2.3.5.3.6-.2.9-.3c.6-.2.9.2,1.5.2s.9-.2,1.3-.3c.7-.3,1.5-.5,2.1-.8,1-.5.8-1.5.8-2.5s-.5-.2-.6,0c-.5.3-1.3.5-2,.7-2.5.6-5.1.7-7.7.6s-7.3-.8-9.8-2.6-.9.1-.7.3c2.9,2.1,7.1,2.7,10.6,2.8s5.2,0,7.7-.7,1.7-.4,2.4-.8h-.6c0,.4.1,1.1,0,1.5-.2.7-1.1.8-1.7,1s-.6.3-.9.3-.5,0-.8,0-.4-.2-.7-.2-.5,0-.7.2c-.6.2-.5.4-.8-.1s-.6-.9-1.2-.8c-.9,0-1.8.8-2.7,1-1.5.4-3-.3-4.4-.7s-2.5-.7-3.7-1.1-1.5-.3-1.9-.6c-.7-.5,0-1.4.3-1.9s-.6-.3-.7,0Z"/>
      </g>
      <path class="st33" d="M53.3,100.2c-.1,1.3.3,2.6,1.1,3.5s.5,0,.7,0,.2-.3,0-.4-.4,0-.6,0-.2.2,0,.3c0,0,0,0,0,0h0c0-.1,0-.1,0,0h.7c-.8-1-1.2-2.2-1.1-3.4s-.7-.2-.8,0h0Z"/>
      <path class="st33" d="M54.9,101.1c0,.3.3.4.6.5s.7-.2.5-.5c-.4-.5-.6-1.1-.6-1.7l-.4.3c.8,0,1.6,0,2.4,0l-.2-.4c-.3.4-.5.7-.6,1.2h.8c0-.6-.7-.5-.9-.2s-.1.2,0,.3c.1.2.3.3.5.3s.5,0,.5-.3c0-.4,0-.9.1-1.3s0-.4,0-.6,0-.5,0-.6l-.3.2c0,0,.3,0,.4,0,.2,0,.3,0,.5.1.3,0,.7.2,1,.2s.5,0,.5-.3c0-.7,0-1.4.2-2l-.6.3,1.8.8c.2,0,.7,0,.6-.4-.4-1.1-1.1-2.1-1.8-3.1s-.8,0-.7.3v.2c.1.4.9.2.8-.2v-.2c-.3,0-.5.2-.8.3.7.9,1.3,1.9,1.8,2.9l.6-.4-1.8-.8c-.2-.1-.6,0-.6.3-.2.7-.2,1.4-.2,2l.5-.3c-.5-.1-1-.2-1.5-.3s-.8-.2-1.1.1-.2.9-.2,1.2c0,.5-.1,1-.2,1.6l.5-.3h0s0,.1,0,.2h0c0,0-.2,0-.3.1h-.3c0,.3.7,0,.8-.2s.2-.6.5-.9,0-.4-.2-.4c-.9,0-1.8,0-2.6,0s-.4.1-.4.3c0,.7.2,1.4.7,2l.5-.5c0,0,0,0,0-.1,0-.4-.9-.2-.8.2h0Z"/>
      <path class="st33" d="M59.9,94.6c-.4,0-.8-.2-1.2-.4s-.7-.5-.8-.9,0-.4,0-.6,0-.2,0-.3,0-.3,0-.3c0,0-.2,0-.2,0s0,0,0,0c0,0,.2.1.2.2.1.2.3.3.4.5.2.4.4.9.4,1.4s.2.2.3.2.4-.1.4-.3c0-.6-.2-1.1-.4-1.6s-.7-1-1.3-.9-.6.2-.7.6,0,.5,0,.8,0,.5.2.8.3.4.5.6c.5.4,1.2.6,1.8.7s.4,0,.5-.2,0-.3-.2-.3h0Z"/>
      <g>
        <path class="st19" d="M63.9,111.4c-.4-.6-.5-1.4-.3-2.1s.8-1.3,1.5-1.6c1-.4,2.2-.2,3.2-.4,1.1-.2,2-.7,3-1.3,2.2-1.3,4.5-2.7,5.8-4.9.3-.5.6-1.1,1-1.6.3-.3.6-.5.9-.7.6-.3,1.2-.5,1.8-.4.6.1,1.2.5,1.5,1.1s.3,1.2,0,1.8c.9-.4,2.1.1,2.7,1s.7,2,.7,3c0,.6,0,1.1,0,1.7,0,.5-.2,1-.4,1.5-.3,1-.6,2.1-1.4,2.9-.9,1-2.2,1.4-3.5,1.7-1.2.4-2.5.7-3.7.9-.8,0-1.5.1-2.3.2-1.1.1-2.2.3-3.4.5-.9.1-1.9.2-2.8,0-.7-.2-1.3-.7-1.8-1.2-.6-.5-1.2-1-1.7-1.5-.6-.6-1.3-1.3-1.1-2.1"/>
        <path class="st19" d="M64.2,111.2c-.7-1.3-.2-2.9,1.2-3.5s2,0,2.9-.2c1.7-.3,3.3-1.5,4.8-2.4s2.8-2,3.8-3.3,1-2,2-2.7,2.1-.7,2.8,0,.5,1.3.3,2,.2.3.4.3c1.8-.6,2.7,1.5,2.9,2.9s0,2.8-.3,4.2-.9,2.7-2.2,3.5-2.5,1-3.8,1.3-2.7.5-4.1.6-2.8.4-4.1.6-1.9.1-2.8-.4-1.2-.9-1.7-1.3c-.9-.8-2.3-1.7-2.2-3s-.8-.2-.8,0c0,1.6,1.5,2.6,2.6,3.5s2.3,1.8,3.9,1.7,3.9-.5,5.8-.7,3.6-.6,5.4-1.1,2.6-.9,3.5-2,1.4-3,1.6-4.5c.2-2.3-.5-6.9-3.8-5.7l.4.3c.8-2.1-1.1-3.6-3.1-3s-1.8,1-2.4,2c-.9,1.4-1.7,2.6-3.1,3.6s-2.2,1.5-3.4,2.2-1.7,1-2.7,1.1-1.5,0-2.2.1c-2.1.4-3.3,2.4-2.3,4.4s.9,0,.7-.3h0Z"/>
      </g>
      <g>
        <path class="st19" d="M85.1,102c.7-.7,1.6-1.3,2.6-1.1.3,0,.7.2.8.6.2.4,0,.8-.1,1.1-.7,1.4-2.4,2.1-3.1,3.6,0,0,.1-.1.2-.2"/>
        <path class="st19" d="M85.4,102c.5-.5,1.3-1.2,2.1-1s.7.4.7.9-.2.7-.4,1c-.8,1.2-2.2,1.9-2.8,3.2s.2.2.3.2c.2,0,.3,0,.5-.2s.1-.1.2-.2c.1-.1-.1-.2-.2-.2-.2,0-.4,0-.5.2s-.1.1-.2.2h.7c.6-1.2,1.8-1.9,2.7-2.9s.8-1.3.5-1.9-1.2-.7-1.8-.6-1.6.7-2.3,1.3,0,.2,0,.3.4,0,.5-.1h0Z"/>
      </g>
      <path class="st33" d="M72.3,110.5c0-.6-.1-1.4.2-1.9s.9-.7,1.4-.9c1.1-.4,2.1-.8,3-1.4,2-1.1,3.7-2.7,4.9-4.6s-.6-.2-.7,0c-1.4,2-3.3,3.7-5.5,4.8s-2.2.7-3.1,1.3-1.2,1.7-1.1,2.8.8,0,.8-.2h0Z"/>
      <path class="st33" d="M72,104.7c.5,1.3.9,2.7,1.3,4s.8,0,.8-.2c-.4-1.4-.8-2.7-1.3-4s-.8,0-.8.2h0Z"/>
      <path class="st33" d="M70.4,105.9c2.2.1,4.4.8,5.8,2.6s.8,0,.7-.3c-.4-1.9-.5-3.9-.3-5.9s-.7-.3-.8,0c-.2,2-.1,4.1.3,6l.7-.3c-1.5-1.9-3.9-2.7-6.3-2.8s-.4,0-.5.2,0,.3.2.3h0Z"/>
      <path class="st33" d="M74.6,104.4c1.8,0,3.4,1,4.4,2.4l.7-.3c-.6-.7-.8-1.6-1.3-2.4s-1-1.6-1.6-2.4-.9,0-.7.3c.6.8,1.1,1.6,1.6,2.4s.7,1.7,1.3,2.4,1,0,.7-.3c-1.2-1.7-3.1-2.6-5.1-2.6s-.4.1-.4.3.2.3.4.3h0Z"/>
      <path class="st33" d="M76.1,103.2c.9.2,1.7.5,2.6.8s1.6.7,2,1.4.6,0,.7,0,.2-.2.2-.4-.8,0-.8.2,0,0,0,.1h.7c-.4-.8-1.2-1.2-1.9-1.5s-1.8-.7-2.7-.9-.4,0-.5,0-.3.2,0,.3h0Z"/>
      <path class="st33" d="M80.6,105.2c0,0-.1,0-.1.1s0,0,0,0,0,0,0,0c0,0,0,0,0,0,0,0,0,0,0,.1s0,0,0,0c0,0,0,0,0,0,0,0,.1,0,.2,0,.1,0,.2,0,.3,0s.2,0,.3-.2,0,0,0,0,0,0,0,0c0,0,0,0,0-.1s0,0,0-.1c0,0-.1,0-.2,0,0,0,0,0-.1,0,0,0-.1,0-.2,0,0,0,0,0-.1,0,0,0,0,0-.1,0h0c0,0,0,.1,0,.1h0c0,0,0,0,.1,0,0,0,0,0,0,0h0s0,0,0,0h0s0,0,0,0h0s0,0,0,0h0s0,0,0,0h0s0,0,0,0h0s0,0,0,0h0s0,0,0,0h0s0,0,0,0h.1s0,0,0,0h.1s0,0,0,0h0s0,0,0,0h0s0,0,0,0h0s0,0,0,0h0s0,0,0,0h0s0,0,0,0h0s0,0,0,0h0s0,0,0,0h0s0,0,0,0h0s0,0,0,0c0,0,0,0,0,0,0,0,0,0,0,0,0,0,0,0,0,0,0,0,0,0,0,0h0c0,0-.1,0-.2,0h-.1c0,0-.1,0-.2,0h0Z"/>
      <path class="st33" d="M78.6,107.3h0s0,0,0,0c0,0,0,0,0,0h0s0,0,0,0h0s0,0-.1.1c0,0-.2,0-.2,0,0,0,0,0-.1,0,0,0,0,0,0,0h0s0,0,0,0h0c0,0,0,0,.1,0,.1,0,.3,0,.4,0,.3,0,.5-.2.7-.4s0-.1,0-.2,0-.1,0-.2,0-.1-.1-.1c0,0-.2,0-.3,0s-.2,0-.3,0-.2,0-.3.1,0,0-.1.1,0,0,0,0,.1,0,.1,0c0,0,.2,0,.3,0s.2,0,.3-.1h0c0,0,0,0,0-.1h0s0,0,0,0c0,0,0,0,0,0h0s0,0,0,0h0s0,0,0,0c0,0,0,0,0,0h0s0,0,0,0c0,0,0,0,0,0,0,0,0,0,0,0,0,0,0,0,0,0s0,0,0,0,0,0,0,0h0s0,0,0,0h0s0,0,0,0h0s0,.1,0,.2h0s0,.1,0,.2h0s0,0,0,0h0s0,0,0,0h0s0,0,0,0c0,0,0,0,0,0,0,0,0,0,.1,0,0,0,0,0,.1,0,0,0,0,0,0,0h0s0,0,0,0h0s0,0-.1,0c0,0-.1,0-.2,0s-.1,0-.2,0c-.1,0-.2,0-.3.1s-.1,0-.2.1,0,0,0,.1.1,0,.1,0c0,0,.2,0,.3,0s.2,0,.3-.1h0c0,0,0,0,0-.1h0Z"/>
      <path class="st33" d="M76.2,108.3v.2c.1,0,.2,0,.2,0,0,0,0,0,.1,0h0c0,0,.1,0,.2,0,0,0,.1,0,.2,0s0,0,.1-.1,0,0,0,0c0,0,0,0,0,0s0,0,0,0c0,0,0,0,0-.1s0,0,0,0c0,0,0,0,0,0s0,0,0,0c0,0,0,0,0,0s0,0,0,0c0,0,0,0,0,0s0,0,0,0c0,0,0,0,0,0,0,0-.1,0-.2,0,0,0-.1,0-.2,0,0,0,0,0-.1,0,0,0,0,0,0,0h0c0,.1,0,.1,0,.2h0c0,0,.1,0,.2,0,0,0,0,0,0,0h0s0,0,0,0h0s0,0,0,0h0s0,0,0,0h0s0,0,0,0h0s0,0,0,0h0s0,0,0,0h0c0,0,0,0,0,0h0c0,0,0,0,0,0h0s0,0,0,0h.5s0-.1-.1-.2c0,0,0,0,0,0,0,0,0,0-.1,0,0,0-.1,0-.2,0,0,0-.1,0-.2,0h0c0,0,0,.1-.1.2h0c0,.1,0,.1,0,.2h0Z"/>
      <path class="st33" d="M73.3,109.6h.3c0,0,0,0,.1,0,0,0,.1,0,.2,0,0,0,0,0,.1,0,0,0,0,0,.1,0h0c0,0,0-.1,0-.2h0c0,0,0,0-.1,0h-.3c0,0,0,0-.1,0,0,0-.1,0-.2,0,0,0,0,0-.1,0,0,0,0,0-.1,0h0c0,0,0,.1,0,.2h0c0,0,0,0,.1,0h0Z"/>
      <g>
        <path class="st33" d="M62.8,109.7c-.9,1.2-.5,3,.5,4,1,1.1,2.5,1.6,3.9,2,1.7.5,3.4.8,5.2,1.1,1.4.2,3.1.2,4.2-.7.3-.3.5-.6.8-.8s.7-.4,1.1-.3c.2,0,.5.3.7.3.6.1,1-.7,1.6-1.1.9-.6,2.3.3,3.2-.2.5-.3.7-.8.8-1.3s0-1-.2-1.6c-.2,0-.4.1-.6.3-1.1,1-2.5,1.6-4,2-1.4.3-2.9.5-4.4.8-1.2.3-2.5.2-3.8.3s-2.3.6-3.5,0c-.7-.3-1.3-.9-2-1.4s-1.1-1-1.7-1.4c-.3-.3-.6-.5-.9-.9-.4-.7-.3-1.7-.2-2.5"/>
        <path class="st33" d="M62.4,109.8c-.8,1.2-.6,2.7.3,3.9s2.4,1.8,3.8,2.2,3.7.9,5.5,1.2,2.3.2,3.5-.2.8-.3,1.1-.5.5-.6.9-.8.6-.2,1.1,0c.8.2,1.3,0,2-.6s1.4-.4,2.3-.4.7,0,1-.1c1.4-.5,1.4-1.9,1.1-3.1s-.1,0-.1,0c-.4,0-.7,0-1,.3-1,.7-1.8,1.4-2.9,1.7-2.5.8-5.3,1.1-7.8,1.2s-1.9.3-2.8.4c-1.4.1-2.3-.6-3.3-1.5s-1.8-1.3-2.5-2.2-.5-1.8-.4-2.8-.7,0-.8.2c-.1.8-.2,1.8.2,2.5s1.3,1.3,2,1.9c1.2,1,2.4,2.2,4.1,2.1s2.1-.4,3.2-.4,1.9,0,2.8-.2c1.9-.3,3.8-.5,5.6-1.1s1.4-.5,2-.9.6-.4.9-.6c.6-.4,0-.2.2,0s.1.9,0,1.2c-.2,1.9-2.6.7-3.9,1.4s-.7.9-1.4.7-.8-.2-1.3,0-.8.5-1.2.8c-1.2,1.2-2.6,1.1-4.1.9-2.4-.3-5-.8-7.2-1.9s-3.4-3.2-2.1-5.2-.6,0-.8.1h0Z"/>
      </g>
      <path class="st46" d="M114.8,116.8l2.8.6c.3,0,.5.1.8,0,.2,0,.4-.2.6-.4,1.2-1,1.9-2.5,1.9-4.1,1,0,1.9,0,2.9,0,1.8,0,3.9-.1,5.1-1.6-2.2-.6-3.9-2.4-5-4.5-1-2-1.5-4.3-1.8-6.6-1.2.7-2.4,1.3-3.6,2,1.3,2.2,1.2,5,.4,7.4-.8,2.4-2.3,4.6-3.8,6.6"/>
      <path class="st19" d="M120.6,103.7c0,3,.7,6.1.1,9.1.2-3-.4-6-.1-9.1h0Z"/>
      <path class="st19" d="M120,104.2c.4,3.9,0,8-1,11.8.7-3.9,1-7.8,1-11.8h0Z"/>
      <path class="st19" d="M120.6,102.4c.4,3.7,1.8,7.4,4.4,10.1-2.9-2.5-4.4-6.4-4.4-10.1h0Z"/>
      <path class="st19" d="M122.2,105.8c1.1,2.5,2.7,4.7,4.7,6.5-2.2-1.6-3.9-3.9-4.7-6.5h0Z"/>
      <path class="st29" d="M83.8,49.7c-.5-2.1-1-4.1-1.5-6.2-.5-2.2-.9-4.5-.2-6.5.4-1.2,1.3-2.3,1.8-3.5s.9-2.6.4-3.8c1.1,1.3,1.5,3.1,1.1,4.7.3-2,.2-4-.2-6,1.9,1.1,2.8,3.8,1.9,5.9.7-2,.6-4.2-.3-6.1,1.1.5,1.7,1.7,1.9,2.9s-.1,2.4-.4,3.6c.8-1.7,1-3.7.4-5.6,1.6.5,2,2.6,1.7,4.2-.5,2.2-1.8,4.2-3.4,5.8-.5.6-1.1,1.1-1.3,1.9,0,.5,0,1.1.2,1.6,2,5.9,5.6,11,9.2,16,1.4-.8,1.5-1,2.9-1.8.2-.1.5-.3.7-.2.3,0,.5.3.7.6,1.4,1.9,2.6,3.9,3.7,6-3.6,1.1-5.9,1.9-9.3,3.6-.3.1-.6.3-.9.2-.2,0-.3-.2-.5-.3-4.9-4.5-8.7-16.9-8.7-16.9Z"/>
      <g>
        <path class="st35" d="M90.3,25.7c-.2.7.1,1.5.5,2.2.2.4.5.9,1,1.2.4.2.9.3,1.3.4,1.1.2,2.3.4,3.3,1,1.1.7,1.9,1.8,2.6,2.9.9,1.3,1.1.6,1.9,1.9-.3-1.4.3-2.9,1.7-3.3,3.9-1.3-3.3-2.7-4.9-4.2,0,0,.3,0,.3.1"/>
        <path class="st35" d="M90,25.8c-.3,1.2.5,2.8,1.5,3.4s1.1.4,1.6.4c.8.1,1.6.3,2.3.6,1.4.6,2.3,1.8,3.1,3s.5.8.9,1.1.8.5,1.1,1,.8,0,.8-.2c-.2-.9,0-1.8.6-2.5s1.2-.6,1.8-1,.6-.9,0-1.3c-.8-.6-1.9-1-2.8-1.3s-2-.7-2.8-1.4l-.3.3h.1c-.1,0-.2,0-.4,0h0c.1.3.9,0,.8-.1-.1-.3-.4-.2-.7-.2s-.5.2-.3.3c.7.7,1.7,1,2.6,1.4s2,.7,2.9,1.3.5.4.5.6c0,.4-.7.5-1,.6-1.4.6-2.1,2-1.8,3.5l.8-.2c-.2-.4-.5-.7-.9-1s-.7-.5-.9-.8c-.8-1.1-1.5-2.3-2.6-3s-2.5-.9-3.8-1.1-1.4-.6-1.8-1.3-.7-1.4-.5-2.2-.7,0-.8.1h0Z"/>
      </g>
      <g>
        <path class="st33" d="M100.2,30.5c-.2,3,.1,6.1,0,9.1s.8.1.8-.1c0-3-.2-6.1,0-9.1s-.8-.1-.8.1h0Z"/>
        <g>
          <path class="st33" d="M100.2,39.7c-.1,3-.6,6.1-2.2,8.7s.3,0,.3,0c.1,0,.4,0,.5-.2,1.6-2.6,2.1-5.7,2.2-8.8s-.8,0-.8.2h0Z"/>
          <path class="st33" d="M96.7,48.9c-.5,0-1.5.3-1.2,1s1.1.4,1.5,0,.8-1.2,0-1.3-1.3.7-1.5,1.4,0,0,.1,0c.6,0,1.4-.2,1.5-.9s-.2,0-.2,0c-.4,0-.8.2-.9.6s.1,1.4.2,2c.2,1.4.3,2.8,0,4.2l.8-.2c.3-2.3.1-4.6-.5-6.8s-.7,0-.8.2c-.3,1-.3,2.1-.3,3.1s0,1.1-.1,1.7,0,.6-.2.8,0,.6-.2.8l.2-.2h0c.2,0,.3,0,.5,0h0c-.2,0-.5,0-.7.1h0c.1,0,.4,0,.5,0s.4-.2.2-.2h0c-.2,0-.6,0-.7.1s0,.2,0,.3.5,0,.7-.2c.2-.2.2-.6.3-.9s.1-.7.2-1c.2-1.5,0-3.1.4-4.5l-.8.2c.6,2.2.8,4.5.5,6.8s.7,0,.8-.2c.2-1.1.2-2.2,0-3.3s-.1-1.1-.2-1.7,0-.5,0-.8,0-.6,0-.7h-.4c0,.1,0,.1,0,0h-.2s-.1.3-.2.3h.1c0-.2.2-.4.3-.7,0,0,.1-.2.2-.2-.2,0-.3,0-.2.2,0,.1,0,.2,0,.3s0,.2-.1.3c-.1.1-.1.1,0,0,0,0,0,0-.1,0,0-.1-.1-.2-.2-.3,0,0,0-.2,0-.2.1-.1.1-.2,0,0,.2,0,.4,0,.5-.1s.1-.2,0-.2h0Z"/>
          <path class="st33" d="M98,48.2c-.2.4-.6.8-1,.9h.3c-1.8-1.4-2.9-3.4-3.3-5.6s-.8-.2-.8.2c.3,1.6.9,3.2,1.9,4.4s.5.6.8.9.6.7.9.7c.8,0,1.4-.7,1.8-1.3s0-.3-.2-.3-.4,0-.5.2h0Z"/>
        </g>
      </g>
      <g>
        <path class="st7" d="M89.1,27.8c-2.4-.2-4.7-1.1-6.5-2.6-.5-.4-.9-1.2-.3-1.4.2,0,.4,0,.6,0,2.1.5,4.4.6,6.6.2.3,0,.6-.1.8-.3.3-.2.5-.6.6-1,.6-1.5,1.5-2.8,2.7-3.9.2-.2.5-.4.8-.5.3-.1.7-.1,1.1,0,3.6.2,7.1,1.3,10.1,3.2,1.7,1,3.3,2.5,3.5,4.4.2,1.3-.4,2.8.3,4,.2.4.6.7,1,1.1,1.4,1.2,2.7,2.3,4.1,3.5-1.3.6-2.6,1.1-3.9,1.4-.4,0-.7.2-1.1,0-.3-.1-.5-.4-.7-.7-.9-1.3-2.2-2.3-3.5-3.3-.3-.2-5.3-1.8-6.8-2.6-2.6-1.4-5.4-2.6-8.2-3.5,0,0-1.1,2-1.1,2"/>
        <path class="st7" d="M89.2,27.5c-1.2-.1-2.4-.4-3.6-.9s-2.3-1-3-1.8.4-.6.9-.6,1.2.2,1.9.2c1,0,2,0,2.9,0,1.7-.2,2.2-.5,2.9-2s1-1.9,1.8-2.8,1-1.1,2.1-1.2,1.2,0,1.7.2c2.3.3,4.6,1.1,6.8,2.1s3.9,2.1,4.7,4.1-.4,3.8.8,5.4,1.3,1.2,1.9,1.8c1,.9,2,1.7,3,2.6v-.4c-1.1.5-3.8,2.1-4.9.9s-1.3-1.6-2.2-2.4c-1.3-1.1-2.2-1.5-3.8-2-4.4-1.5-8.3-3.8-12.7-5.3s-.5,0-.6.2c-.4.7-.8,1.3-1.1,2s.6.4.7,0c.3-.7.7-1.4,1.1-2l-.6.2c3,1,5.7,2.4,8.5,3.7s3.4,1.3,5,1.9,3.5,2.1,4.7,3.7,1,1,2,.8c1.4-.3,2.9-.9,4.2-1.5s.3-.3.1-.4c-.9-.7-1.7-1.5-2.6-2.2s-2.1-1.5-2.5-2.6c-.6-1.6.3-3.4-.6-5.1-1.6-3.1-5.8-4.8-8.9-5.6s-3.5-.9-5.2-.7-2.3,1.3-3,2.3-.9,1.5-1.3,2.3-.4,1-.9,1.2-1.5.2-2.1.2c-1.1,0-2.3,0-3.4-.2s-1.4-.5-2-.2c-1.4.7.4,2,1,2.4,1.8,1.1,3.8,1.8,5.9,2s.8-.5.3-.5h0Z"/>
      </g>
      <g>
        <path class="st24" d="M100.1,19.5c.9,2.8.9,5.7-.1,8.5s.7.2.8,0c1-2.7,1.1-5.8.1-8.6s-.9,0-.8.2h0Z"/>
        <path class="st24" d="M90.6,24.8c6.1,1.5,12.2,3.1,18,5.3s.9-.2.6-.3c-5.9-2.2-12-3.8-18-5.3s-.9.3-.6.3h0Z"/>
      </g>
      <g>
        <path class="st12" d="M84.8,26.5c-1-.5-2-1.1-2.6-2,0-.1-.2-.3,0-.4,0,0,.2-.1.3-.1,2.4-.5,7.7,2.1,7.7,2.1,0,0-.8,1.5-1.1,1.7s-3.1-.7-4.2-1.2Z"/>
        <path class="st42" d="M85.1,26.3c-.5-.3-1-.5-1.5-.9s-.4-.4-.6-.6-.5-.5-.5-.7,0,0,0,0,.2,0,.3,0c.2,0,.3,0,.5,0,.4,0,.8,0,1.1.2,1.5.3,3,.9,4.4,1.5s.6.3,1,.4v-.2c-.3.4-.5.8-.7,1.1s-.4.5-.3.5c0,0,.3-.1.3-.1,0,0,0,0,0,0,0,0-.2,0-.3,0-1.2-.2-2.3-.6-3.4-1.1s-.9.2-.6.4c.6.3,1.3.5,1.9.7s1.3.4,2,.5.8-.1,1.1-.6.6-.9.8-1.4,0-.2,0-.2c-1.1-.5-2.2-1-3.4-1.4s-1.8-.6-2.7-.7-.9,0-1.3,0-.9,0-1.2.4c-.4.5.6,1.2.9,1.5.6.5,1.2.9,1.9,1.2s.9-.2.6-.4Z"/>
      </g>
      <g>
        <path class="st12" d="M104.5,31.8c1.2,1.1,3.7,3.6,5.1,4.6.2.2.5.3.8.3.3,0,.5-.1.7-.3.6-.3,1.2-.7,1.7-1,.1,0,.2-.1.3-.3.2-.3-.1-.8-.5-1-.7-.4-1.6-.6-2.4-.9-1.2-.3-5.7-1.5-5.7-1.5Z"/>
        <path class="st42" d="M104.2,31.9c1.2,1.1,2.3,2.2,3.5,3.2s1,1,1.6,1.4c.8.6,1.5.3,2.3-.2s1-.6,1.4-.9.6-.5.5-.9c-.3-.8-1.6-1.1-2.3-1.3-1.2-.3-2.3-.6-3.5-.9s-2-.5-2.9-.8-.9.3-.5.4c1.7.4,3.4.9,5.1,1.4s1.1.3,1.7.5.9.3,1.2.5.4.3.4.5c.1.4-.2.5-.5.7-.4.3-.9.5-1.3.8s-.5.3-.8.2-.3-.2-.5-.3c-.5-.4-1-.8-1.5-1.3-1.1-1-2.3-2.1-3.4-3.2s-.9.1-.7.3Z"/>
      </g>
      <path class="st38" d="M109.5,45.1c-1.6-.3-2.9.7-3.9,1.9-1.7,2-3.2,4.1-4.8,6.1s-.7.9-1.1,1.4-.9.9-1,1.4c-.2.7.7,1.7,1,2.3,1,1.8,2,3.5,3.1,5.2s.8-.1.8-.2c-.8-1.3-1.7-2.6-2.4-3.9s-.8-1.4-1.2-2.1-.4-.6-.5-1c-.2-.6.5-1.1.8-1.6,1.3-1.6,2.5-3.2,3.8-4.8s1.2-1.6,1.9-2.4,1.7-2.3,2.9-2,.9-.3.6-.3h0Z"/>
      <path class="st38" d="M108.7,76.3c0-1.1.7-2.1,1.6-2.6s.2-.2,0-.3-.4,0-.6,0c-1,.6-1.8,1.8-1.9,3s.8.2.8,0h0Z"/>
      <path class="st38" d="M107.8,61.6l2.6-2,1.3-1,.6-.5c.1,0,.2-.2.3-.3,0,0,0,0,.1-.1,0,0,0,0-.1,0,.1.3.9,0,.8-.2-.2-.5-.9-.2-1.2,0-.6.4-1.1.9-1.7,1.3-1.1.8-2.2,1.7-3.3,2.5s-.2.2,0,.3.4,0,.6,0h0Z"/>
      <path class="st38" d="M111.5,62.3c0,2.2,1.2,4.3,3.1,5.5s.4,0,.5,0,.4-.2.2-.3c-1.9-1.1-3-3.2-3-5.4s-.8,0-.8.2h0Z"/>
      <g>
        <path class="st41" d="M68.9,91.1c-.1.1,0,0,.2,0,0,0-.1,0-.2,0-.1,0-.2,0-.3-.1-.2-.1-.5-.3-.7-.4-.5-.4-1.1-.7-1.6-1.1s-.4,0-.5,0-.3.1-.2.2c.7.5,1.4.9,2.1,1.4s.5.3.9.3.8,0,1.1-.3-.1-.1-.2-.1c-.2,0-.4,0-.5.2h0Z"/>
        <path class="st41" d="M73.8,73.2c0,1.2.5,2.4.9,3.5s.8,2.3.6,3.5.3.2.5.2c.5-.1.9-.4,1.1-.9s-.2-.2-.3-.2c-.2,0-.4.1-.4.3s-.2.4-.5.4l.5.2c.5-2.5-1.4-4.6-1.5-7s-.8-.2-.8,0h0Z"/>
        <path class="st41" d="M76.4,76.8c1.6-2,1.2-4.6.8-7l-.8.2c.2,1.1.5,2.3,1.4,3s2,.7,2.7,0l-.6-.2c-.5,1.8-1.1,3.5-1.8,5.2s.6.4.7,0c.7-1.7,1.3-3.4,1.8-5.2s-.4-.4-.6-.2c-.6.5-1.5.1-2-.4s-.7-1.6-.9-2.4-.8-.2-.8.2c.4,2.2.8,4.7-.7,6.5s.4.5.6.2h0Z"/>
        <path class="st41" d="M79.3,76.4c.7,1.2,1.6,2.3,2.7,3.2s.9-.2.6-.4c-1-.9-1.9-1.9-2.6-3.1s-.4-.1-.5,0-.3.2-.2.4h0Z"/>
        <path class="st41" d="M80.3,88.7c0-1,0-2.1.5-3s.7-1,1-1.5c1-1.5,1.7-3.4,2.5-5.1,1.6-3.7,3.1-7.6,4.2-11.5s-.7-.1-.8.1c-1.1,4-2.6,8-4.3,11.8s-1.5,3.6-2.6,5.1-1.3,2.7-1.3,4.4.8,0,.8-.2h0Z"/>
        <path class="st41" d="M96.2,74.7c-.3,4,1.5,7.9.7,11.9s-1.3,3.4-1.3,5.1.1.9.2,1.4c0,.2.1.4.2.7-.2.8-.6,1.3-1.4,1.4-1,.3-2.1.6-3.2.7s-.6.5-.1.4c1.1-.2,2.2-.4,3.2-.7s1.6-.4,2-1,0-1.7-.1-2.4c-.2-1.2.2-2.5.6-3.6.7-2.2.9-4.2.6-6.5s-1-5-.8-7.5-.8-.2-.8,0h0Z"/>
        <path class="st41" d="M83.4,91.5c1.9.3,3.7.8,5.1,2.2s1.1,1.3,1.4,2,.1.7.5.8.7-.2.5-.4-.5,0-.7,0h0c-.1.1,0,.2,0,.3s.4,0,.5-.1h0c-.2,0-.4,0-.7,0h0s0,0,0-.1h0c.2,0,.4,0,.6-.1,0,0-.1-.4-.2-.5,0-.2-.1-.3-.2-.5-.1-.3-.3-.6-.5-.9-.4-.6-1-1.1-1.5-1.5-1.3-.9-3-1.4-4.6-1.6s-.4,0-.5.1-.1.2,0,.2h0Z"/>
        <path class="st41" d="M97.6,72.1c.9,2,1.5,4.2,1.7,6.4s.1,2.1,0,3.2-.2,2.1-1.1,2.6h.7c.3-1.5,2.3.1,2.9.5s.8-.2.7-.3c-.8-.5-1.7-1.3-2.8-1.3s-1.5.4-1.7,1.1.6,0,.7,0c.8-.4,1.1-1.2,1.2-2.1s.2-2.2.1-3.3c-.1-2.4-.7-4.8-1.8-7s-.8,0-.8.2h0Z"/>
        <path class="st41" d="M111.5,80.7h1.6c.4.2.9.3,1.3,0s.2-.7.2-1.1c0-.6,0-1.1,0-1.7l-.8.2c.5,1.1,1,2.3,1.5,3.4s.6,0,.7-.1c.4-.6.9-1.1.8-2s-.6-1.4-1-2-.8,0-.7.3c.2.5.4.9.6,1.4s.4,1,.6,1.4.6.3,1,.2,1-.2,1.5-.3.4,0,.4-.3-.2-.2-.3-.1c-.4,0-.8.1-1.2.2s-.5.1-.6,0-.2-.4-.3-.5c-.3-.7-.7-1.5-1-2.2l-.7.3c.4.6.8,1.2,1,1.8s0,.7,0,1-.4.6-.6.9h.7c-.5-1.2-1-2.4-1.5-3.5s-.8,0-.8.2c0,.4,0,.8,0,1.1s0,.4,0,.6,0,.5,0,.6c0,0,0,.1.1,0,.2,0,.2,0,0,0,0,0-.2,0-.3,0h-.6c-.4,0-.8-.1-1.2-.2s-.4,0-.5.1-.1.2,0,.2h0Z"/>
        <path class="st41" d="M112.2,82.5c2.9,1.2,5.5,2.9,7.9,4.9s.9-.2.6-.4c-2.4-2.1-5.1-3.8-8-5s-.9.3-.4.5h0Z"/>
        <path class="st41" d="M103.9,81.4l-2.5,4.6-1.2,2.2c-.4.7-.9,1.5-1.2,2.3-.4,1.4,1.3,2.3,2.2,3s1.3.9,2,1.4.9.4,1.4.2.4-.5,0-.3-1.4-.7-1.9-1-1.1-.8-1.7-1.2-1.2-.8-1.4-1.4.4-1.5.7-2.1c1.4-2.6,2.8-5.2,4.2-7.8s-.7-.1-.8.1h0Z"/>
        <path class="st41" d="M104.5,80.4c3.3,2,6.6,3.9,9.9,5.8v-.2c-3.2,2.2-6.3,5.4-6.8,9.5s.7.1.8-.1c0-.2,0-.4,0-.6,0-.2-.7-.1-.8.1,0,.2,0,.4,0,.6h.8c.5-4.1,3.5-7.2,6.7-9.4s.1-.1,0-.2c-3.3-1.9-6.6-3.8-9.9-5.8s-.9.2-.7.3h0Z"/>
        <path class="st41" d="M114.8,85.1c-.4.8-.5,1.6-.3,2.4s.2.8.5,1.1.4.4.4.7-.3.7-.5.9c-1.2,2.1-2.4,4.2-3.7,6.3h.8c0-.2,0-.3,0-.4.2-.4-.6-.3-.7,0s-.1.4-.1.6.7,0,.8,0c1.3-2.1,2.5-4.1,3.7-6.3s.6-.8.5-1.2-.4-.7-.6-1c-.4-.9-.4-2,0-2.9s-.6-.3-.7,0h0Z"/>
        <path class="st41" d="M110.1,91c0,.2,0,.4,0,.6s.3.3.6.3c.6,0,1.2-.3,1.3-.9s0-.5-.2-.7-.2,0-.2,0c0,0-.2,0-.3,0s-.2,0-.2.1,0,0,0,.1,0,0,0,0h0c0,0,.1.3.1.4h0c0,0,0,.2,0,.3h0s0,0,0,0,0,0,0,0c0,0,0,0,0,0s0,0,0,0c0,0,0,0,0,0,0,0,0,0,0,0,0,0,0,0,0,0,0,0,0,0,0,0,0,0,.1,0,0,0s.1,0,0,0,0,0,0,0,0,0,0,0c0,0,0,0,0,0s0,0,0,0c0,0,0,0,0,0h0c0,0-.2,0-.2-.2h0s0-.1,0-.2h0s0,0,0-.1,0-.1,0-.1c0,0-.2,0-.3,0-.2,0-.4,0-.4.3h0Z"/>
        <path class="st41" d="M109.7,88.7c-1.2-.8-2.3-1.6-3.4-2.6s-1-1-1.5-1.5-.5-.5-.9-.3-.4.4-.2.6.9-.2.6-.4h0s0,0,0,0h0s0,0,0,0h-.1c-.1,0-.3.1-.4.1.1,0,.2.2.3.3s.2.2.3.3c.2.2.4.4.6.6.4.4.8.8,1.3,1.2.9.8,1.8,1.4,2.7,2.1s1-.2.6-.4h0Z"/>
        <path class="st41" d="M108.9,90.4c-1.6-1.1-3-2.6-4.1-4.2s-.9,0-.7.3c1.1,1.7,2.5,3.1,4.1,4.2s.4,0,.5,0,.4-.2.2-.3h0Z"/>
        <path class="st41" d="M61.2,88.8c1.7-.3,3.5-.8,5.2-.8s3.3.7,4.8,1.4,1-.2.6-.4c-1.6-.7-3.2-1.4-5-1.5s-3.8.4-5.6.8-.4,0-.4.3.2.2.3.2h0Z"/>
      </g>
      <path class="st33" d="M51.3,105.7c-.2-1.3,1.3-1.4,2.2-1.4s1.1,0,1.7-.2c1.2-.4,2.1-1.1,3-1.9s2-2.3,3.1-3.3,2.6-1.8,4.2-2.3.4-.4,0-.3c-1.5.4-2.9,1.1-4.2,2.1s-2.3,2.4-3.4,3.6-1.3,1.2-2,1.6-2,.4-3,.5-2.4.7-2.2,1.9.8,0,.8-.2h0Z"/>
      <path class="st33" d="M69.2,96.3c0-.1.1-.2.2-.3s0,0,0,0c0,0,0,0,0,0,0,0,0,0,0,0,0,0,0,0,.1-.1s0,0,0,0,0,0,0,0,0,0,0,0c0,0,.1,0,.2-.1s0,0,0,0c0,0,0,0,0,0,0,0,0,0,0,0s0,0,0,0c0,0,0,0,0,0,0,0,0,0,0,0s0,0,0,0,0,0,0,0c0,0,0,0,0,0,0,0,0,0,0,0,0,0,0,.1,0,.2s0,0,0,0,0,0,0,0c0,0,0,0,0,0,0,0,0,.1,0,.2s0,.1,0,.2,0,0,0,0,0,0,0,0c0,0,0,0,0,.1s0,0,0,0c0,0,0,0,0,0,0,0,0,.1-.1.1s0,0,0,0,0,0,0,0c0,0,0,0,0,0s0,0,0,0,0,0,0,0c0,0,0,0,0,0,0,0,0,0,0,0s0,0,0,0c0,0,0,0-.1,0-.1,0-.4.2-.3.3s.3.2.5.1c.6-.1,1.2-.7,1.3-1.3s0-.7-.2-.9-.6-.1-.8,0-.3.2-.5.3c-.3.2-.6.5-.7.9s.6.4.7,0h0Z"/>
      <path class="st33" d="M86.9,102.6c.1-.4.3-.7.6-.9s.3-.2.5-.3c0,0,0,0,0,0,0,0-.1,0,0,0s0,0,0,0c0,0,0,0,0,.1-.1.2-.3.4-.4.6s-.3.4-.4.7c-.3.5-.6.9-.9,1.4s0,.3.2.3c.2,0,.4,0,.5-.2.3-.4.6-.9.9-1.3s.6-.8.9-1.3.2-.4.1-.5c0-.3-.4-.3-.6-.3-.4,0-.9.3-1.2.6s-.6.7-.8,1.1.6.4.7,0h0Z"/>
      <g>
        <path class="st30" d="M100.9,96.7c2.1-1.1,4.7-1.1,7-.6s4.6,1.4,6.8,2.3c2.2.8,4.4,1.5,6.7,2.1-1,.7-2,1.3-3,1.8,1.1,2.6.8,5.7-.2,8.4s-2.7,5-4.4,7.3c-6.5-1.5-12.8-3.8-18.7-6.8,0,0,6.3-6.4,5.8-14.5Z"/>
        <path class="st30" d="M101,96.9c3.4-1.6,7.1-.6,10.5.6s6.3,2.3,9.6,3.2v-.4c-1,.6-1.9,1.2-2.9,1.7s-.3.2-.2.3c2.2,5.7-1.2,11.1-4.5,15.5h.5c-6.5-1.6-12.7-3.9-18.6-6.9v.3c3.7-3.8,6.2-9.3,5.9-14.6s-.8-.3-.8,0c.3,5.2-2.1,10.6-5.7,14.3s-.1.3,0,.3c6,3,12.2,5.3,18.8,6.8s.4,0,.5-.1c3.4-4.5,6.9-10.1,4.6-15.9l-.2.3c1.1-.6,2.1-1.2,3.1-1.8s.2-.4,0-.4c-3.9-1-7.5-2.6-11.3-3.8s-6.5-1.4-9.6,0,0,.6.3.5Z"/>
      </g>
      <path class="st9" d="M101.4,97c4.8,1.6,9.5,3.2,14.3,4.8l2,.7c.3.1.9-.4.4-.5-4.8-1.6-9.5-3.2-14.3-4.8l-2-.7c-.3-.1-.9.4-.4.5h0Z"/>
      <path class="st35" d="M114.4,104.5c0,3.5-1.3,6.9-2.8,10.1s.7.1.8-.1c1.5-3.2,2.7-6.6,2.8-10.2s-.8,0-.8.2h0Z"/>
      <g>
        <path class="st5" d="M108.3,103.1c-.7,0-1.3,0-2,.2s-1.2.6-1.4,1.3c-.1.3-.1.7,0,1.1,0,.8.2,1.6.8,2.2.3.3.7.6,1,.9.2.3.3.8.3,1.2.2,1.3.3,2.6.5,3.9.8-.9,1-2.4.3-3.5-.2-.3-.5-.6-.6-1-.5-.8-.4-1.9-.3-2.8.1,1.1.4,2.3.7,3.3.1.5.5,1.1,1,.8.2-.1.3-.4.3-.7.2-1.5.3-2.9.5-4.4,0,0,0-.2,0-.3,0-.1.2-.1.3-.2.6-.2,1.1-.6,1.2-1.2s0-1.3-.6-1.6-1.3-.2-1.6.3"/>
        <path class="st5" d="M108.4,102.9c-1.1,0-2.4,0-3.3.8s-.8,1.9-.6,3,.4,1.1.8,1.5.9.7,1.1,1.4c.3,1.4.4,3,.6,4.4s.6.1.7,0c.8-.9,1-2.1.6-3.3s-.8-1.1-1-1.8-.2-1.6-.2-2.4h-.8c.1,1.2.3,2.3.6,3.3s.5,1.2,1.1,1.2.9-.5,1-1.1c.2-1.1.3-2.1.4-3.2s0-1.2.3-1.4.6-.3.9-.5c.5-.4.7-1.1.6-1.8-.4-1.4-2.2-1.4-3-.4s.6.3.7,0c.5-.7,1.3,0,1.5.6s-.1,1.2-.6,1.5-.8.2-1,.6-.2,1.2-.2,1.7-.1,1.2-.2,1.9,0,.7-.1,1-.2.5-.4.1c-.3-.5-.4-1.2-.5-1.7s-.3-1.3-.3-2-.8-.1-.8.1c0,.6,0,1.3,0,1.9s.4,1.1.8,1.7c.8,1.1.8,2.5,0,3.6h.7c-.1-1.2-.3-2.4-.4-3.6s0-.9-.3-1.4-.6-.7-1-1c-.7-.7-1-2-.9-2.9.2-1.5,1.8-1.5,2.9-1.5s.8-.5.3-.5h0Z"/>
      </g>
      <path class="st32" d="M108.9,102.3c.1-.4.3-.8.5-1.2h-.5c0,.3,0,.6.1.9h0c-.2,0-.4.1-.6.3s-.1.1,0,.2.2,0,.3,0l.6-.4s.1,0,0-.1c-.1-.2-.2-.5-.1-.7s-.1,0-.2,0c0,0-.2,0-.3.2-.2.4-.3.8-.5,1.2s.1,0,.2,0c0,0,.2,0,.3-.2Z"/>
      <path class="st13" d="M105,104.7c-.4-1-.8-2.2-.3-3.2s-.3-.1-.3-.1c-.2,0-.4,0-.4.2-.3.5-.4.9-.4,1.5l.8-.2c-.2-.2-.5-.3-.7-.5s-.4,0-.5,0-.4.2-.2.3c.2.2.5.3.7.5s.7,0,.8-.2c0-.5.2-.9.4-1.4h-.8c-.6,1.1-.1,2.4.3,3.4s.9,0,.8-.2h0Z"/>
      <path class="st13" d="M104.7,106.7c-.2,0-.5-.2-.6-.4s-.2-.6-.2-.9-.2-.5-.5-.6-.8,0-1.1.2-.1.1,0,.2c.2.1.4.2.6.2s.5,0,.7-.2.2-.3.1-.5-.2-.4-.3-.6-.9,0-.8.2.2.4.3.6,0,.1,0,.1c0,0,0,0,.2,0s0,0,0,0-.1,0-.2,0v.2c0-.1-.3.1-.3,0,0,0,.1,0,.1,0,0,0,.2.1.2.2.1.2.1.5.2.8.1.6.7.9,1.2.9s.4,0,.5-.2,0-.2-.2-.2h0Z"/>
      <path class="st33" d="M92.5,39.4s0,0,0,0h0s0,0,0,0h0s0,0,0,0c0,0,0,0,0,0s0,0,0,0c0,0,0,0,0,0s0,0,.1,0,0,0,.1,0c0,0,.2,0,.3,0s.2,0,.2-.1,0,0,0,0c0,0,0,0,0,0h0s0,0-.1,0c0,0-.2,0-.3,0s-.1,0-.2,0c0,0,0,0,0,0,0,0,0,0,0,0,0,0,0,.1,0,.2,0,0,0,0,0,0,0,0,0,0,0,0,0,0,0,0,.1,0,0,0,.1,0,.2,0,0,0,.2,0,.3-.1h0c0,0,0,0,0-.1,0,0,0-.1,0-.2l-.7.2h0s0,0,0,0c0,0,0,0,0,0h0s0,0,0,0h0s0,0,0,0h0s0,0,0,0h0s0,0,0,0h0s0,0,0,0h0s0,0,0,0h.1s0,0,0,0h.1s0,0,0,0h0s0,0,0,0h0s0,0,0,0h0s0,0,0,0h0s0,0,0,0h0s0,0,0,0h0s0,0,0,0,0,0,0,0,0,0,0,0c0,0,0,0,0,0,0,0,0,0-.1,0,0,0,0,0-.1,0,0,0-.1,0-.2,0h0c0,0,0,0-.1.1h0c0,0,0,0,0,0h0Z"/>
      <path class="st26" d="M109.2,103s0,0,0,0c0,0,0,0,0,0s0,0,0,0,0,0,0,0c0,0,0,0,0,0s0,0,0,0,0,0,0,0c0,0,0,0,0,0s0,0,0,0c0,0,0,0,0,0,0,0,.1,0,.2,0,0,0,0,0,.1,0,0,0,0,0,0,0,0,0,0,0,0,0,0,0,0,0,.1,0,0,0,.1,0,.2-.1s0,0,0,0,0,0,0,0,0,0,0,0c0,0,0,0,0,0,0,0,0,0,0,0,0,0,0,0,0,0,0,0,0,0,0,0h0c0,0,0,0,0,0h0s0,0-.1,0c0,0,0,0-.1,0,0,0,0,0-.1,0,0,0,0,0,0,0,0,0,0,0-.1,0,0,0,0,0,0,0h0c0,0,0,0,0,0,0,0,0,0,0,0s0,0,0,0h0c0,0,0,0,0,0,0,0,0,0,0,0,0,0,0,0,0,0s0,0,0,0c0,0,.1,0,.2,0,0,0,.1,0,.2,0,0,0,.1,0,.2,0h0c0,0,0-.1.1-.2,0,0,0,0,0,0s0,0,0,0c0,0,0,0,0,0s0,0,0,0,0,0,0,0,0,0,0,0c0,0,0,0,0,0,0,0,0,0-.1,0,0,0,0,0-.1,0,0,0-.1,0-.2,0,0,0,0,0-.1,0h0c0,0,0,.1,0,.2h0c0,.1,0,.1,0,.2,0,0,0,0,0,0h0s0,0,0,0h0s0,0,0,0h0s0,0,0,0h0c0,0,0,0,0,0l.5-.2s0,0,0,0h0s0,0,0,0h0s0,0,0,0h0s0,0,0,0h0s0,0,0,0h0c0,0,0,0,0,0h0c0,0,0,0,0,0h0c0,0,0,0,0,0h-.7s0,0,0,0h0c0,0,0,0,0,0h0c0,0,0,0,0,0h0c0,0,0,0,0,0h0c0,0,0,0,0,0h0s0,0,0,0h.1s0,0,0,0h.1s0,0,0,0h0s0,0,0,0h.2c0,.1,0,.1,0,.1h0s0,0,0,0h0c0,0,0,0,0,0h0c0,0,0,0,0,0,0,0,0,0,0,0,0,0,0,0,0,0,0,0,0,0,0,0,0,0,0,0,0,0h0c0,0-.1,0-.2,0h-.1c0,0-.1,0-.2.1h0Z"/>
      <g>
        <path class="st35" d="M103.3,39.1c.7,1,1,4.4.5,5-1.8,2.1-2.4,5.1-1.5,7.7.5-3.8,3.3-6.8,6-9.4.1,1,1.3,1.5,2.3,1.8,3.9,1.3,6.9,5.1,7.4,9.2.2,1.5,0,3.2.7,4.6.7,1.4,2.1,2.6,2.2,4.2.3-2.4,0-4.8-.9-7.1,1.5,1,1.6-1.9.8-3.1-1.2-1.6-1.7-3.6-2.6-5.5-.8-1.8-2.1-3.7-3.9-4.4-1-.4-11.6-4-10.9-3Z"/>
        <path class="st35" d="M102.9,39.2c.9,1.4,1.2,4,.2,5.3-1.6,2.1-2,4.8-1.2,7.3s.7,0,.8-.2c.6-3.8,3.3-6.8,5.9-9.4h-.7c.2,1,.8,1.3,1.5,1.7s2,.7,2.9,1.3c1.9,1.1,3.4,2.8,4.3,4.8s.9,4.1,1.2,6.4.6,2.1,1.3,3,1.2,1.7,1.3,2.8.8,0,.8-.2c.3-2.4,0-4.8-.9-7.1l-.8.2c1.9,1,2.3-1.5,1.8-2.8s-.7-1.2-1.1-1.9c-.5-.9-.8-1.8-1.2-2.8-.6-1.5-1.2-3-2.3-4.2s-3.1-2-4.9-2.5-4.1-1.3-6.1-1.9-3.3-.7-2.9,0,.8,0,.8-.2c0-.2-.4,0-.3,0s.3,0,.4,0c.3.1.7.1,1,.2.9.2,1.9.5,2.8.8,1.8.6,3.7,1.2,5.5,1.8,2.6.9,4,3,5.1,5.5s1.4,3.2,2.3,4.7.4,1,.5,1.5,0,.6,0,.9,0,.6-.5.3-.8,0-.8.2c.9,2.3,1.2,4.6.9,7.1l.8-.2c-.1-2.1-2.2-3.5-2.6-5.7s-.2-4.4-1.3-6.6-2.1-3.3-3.7-4.4-1.6-1-2.5-1.3-2.3-.6-2.6-1.9-.7,0-.7.1c-2.7,2.7-5.4,5.6-6,9.5l.8-.2c-.4-1.4-.5-2.9-.2-4.3s.4-1.2.6-1.8.8-1,1.1-1.6c.7-1.3.2-3.8-.5-4.9s-.8.1-.8.2Z"/>
      </g>
      <path class="st24" d="M86.5,24.1c4.3,2.2,8.7,4.2,13.2,5.9s4.4,1.6,6.6,2.3,4.9,1.2,7,2.5.9-.2.7-.3c-1.9-1.2-4.1-1.7-6.2-2.3s-4.7-1.5-7.1-2.4c-4.7-1.7-9.2-3.8-13.7-6s-.9.2-.6.3h0Z"/>
      <path class="st33" d="M91.5,35.1c0,.6-.1,1.3-.2,1.9s0,.3,0,.4.4.2.6.2c.3,0,.7,0,1-.2s.3-.3.2-.4-.4-.1-.5,0,0,0,0,0c0,0,0,0,0,0,0,0-.1,0-.2,0,0,0,0,0,0,0s0,0,0,0c0,0-.1,0-.2,0,0,0,0,0,0,0h0s0,0,0,0l.2.2s0-.1,0-.2v-.4c0-.5.1-1,.2-1.5s-.8-.3-.8,0h0Z"/>
      <path class="st19" d="M70.1,26.1v1.1c-.2.2-.2.3-.2.5s0,.1.2.2c.4.1.8.5,1.1.8s.2.2.3.3c0,0,0,0,0,0s0,0,0,0c.3,0,.6.2.9.3s.4.1.5.2.3.1.3.2l.8-.2c-.3-.1-.7-.3-1-.4s-.7-.3-1-.2-.5,0-.5.3.1.2.2.3c.2.3.4.6.6.9s.8-.1.8-.2c-.2-.3-.4-.6-.5-.8s-.1-.3-.3-.4-.3,0-.4,0c-.3,0-.5.2-.7.4s-.4.5-.6.8.3,0,.3,0c.1,0,.4,0,.5-.2s.3-.3.4-.5.1-.2.2-.2.1-.2.2-.2h-.3c0,.1,0,0,0,0h-.3c0,0,.2.3.2.3l.2.3c.1.2.3.4.4.6l.8-.2c-.2-.2-.3-.5-.5-.7s-.1-.2-.2-.4,0,0,0-.1c-.1-.2-.8.1-.6.2.5.1,1,.4,1.6.6s.3,0,.4,0,.4-.1.3-.2c0-.1-.2-.2-.4-.2-.2,0-.4-.2-.7-.2s-.6-.2-.9-.3h0c-.3-.3-.6-.6-.9-.8s-.3-.2-.4-.2-.2,0-.2,0c0,0,0-.2,0-.3l.2-1.4c0,0-.7,0-.8.2h0Z"/>
      <g>
        <path class="st19" d="M79.7,15.5c0-.4.1-.8.2-1.1.1,0,.2.2.2.3,0,.4,0,.8,0,1.3.2-.7.5-1.4,1-2,.3,0,.3.4.3.7,0,.7-.2,1.5-.4,2.2.3-.9.9-1.7,1.5-2.4,0,0,.1-.1.2-.1.2,0,.2.3.2.5-.2,1.1-.7,2.2-1.2,3.2.3-.5.7-.9,1.1-1.2,0,0,0,0,.1,0,.1,0,.2.1.1.2,0,.6-.6,1-1.1,1.3,0,0,0,0-.1,0s0,0,0,0"/>
        <path class="st19" d="M80.1,15.5c0-.4.1-.8.2-1.1l-.5.3c-.2,0,0,0,0,0s0,0,0,0c0,.1,0,.3,0,.4,0,.3,0,.6,0,.9s.3.1.4.1c.1,0,.3-.1.4-.3.2-.7.5-1.4,1-2l-.7.2c.4.1.2.8.2,1.1,0,.5-.2,1.1-.4,1.6s.2.2.3.2c.2,0,.4-.1.4-.3.2-.5.5-1,.8-1.5s.3-.4.5-.6,0,0,.1-.1c0,0,0,0,0,0-.3,0-.4,0-.4,0,0,0,0,.1,0,.2,0,.3-.1.5-.2.8s-.2.6-.3.8c-.2.6-.5,1.1-.7,1.6s0,.2.2.2.4,0,.5-.2.3-.4.5-.6.2-.2.3-.3,0,0,.1-.1.2-.1,0,0h-.3s0,0,0,0c0,0,0,0,0,0,0,0,0,.1,0,.2,0,.1-.1.3-.2.4s-.2.2-.3.3-.1,0-.2.1c0,0,0,0-.1,0-.1,0,0,0,0,0h.3s0,0,0,0h0c0,0,0,0,0,0v.2c0,0,0,0,0,0l-.4.2h0c-.1,0-.2,0-.3-.1h0c0,.3.8.1.8-.2h0c0-.1-.2-.2-.3-.1-.2,0-.7.3-.4.5s.6,0,.8-.2c.4-.3.9-.6,1-1.1s.1-.4,0-.6c-.2-.2-.6-.1-.8,0-.5.3-.9.8-1.2,1.3h.7c.4-.6.7-1.3.9-2s.2-.7.3-1.1.1-.5,0-.7-.7-.1-.9,0-.5.5-.7.8c-.4.6-.7,1.2-1,1.8h.8c.2-.7.3-1.3.4-1.9s.1-1-.4-1.2-.5,0-.7.2c-.5.6-.8,1.3-1,2.1h.8c0-.5,0-.9,0-1.3s-.1-.5-.5-.5-.5,0-.5.3c-.1.4-.2.7-.2,1.1s.7.2.8,0h0Z"/>
      </g>
      <path class="st2" d="M79.9,15.2c0,0,0-.1,0-.2h0s0,0,0-.1h0s0,0,0,0,0,0,0,0,0,0,0,0c0,0,0,0,0,0,0,0,0,0,0,0s0,0,0,0,0,0,0,0c0,0,0,0,0,0,0,0,0,0,.1-.1s0,0,0-.1c0,0-.2,0-.3,0-.3.1-.6.5-.5.8s0,0,0,.1.1,0,.2,0,.1,0,.2,0,0,0,0-.1h0Z"/>
      <path class="st2" d="M80.6,15.6c0-.3.2-.6.3-.9s.1-.3.2-.4,0-.1.2-.2,0,0,0,0h-.2s0,0,0,0c0,0,0,0,0,0,0,.1.5,0,.5-.1-.1-.2-.5-.1-.7,0s-.3.3-.4.5c-.2.4-.3.8-.4,1.2s.4,0,.5,0h0Z"/>
      <path class="st2" d="M81.6,16.6c.2-.6.4-1.1.7-1.6s.2-.4.4-.5.2.2.2.4c0,.2.4.1.5,0s0-.3,0-.4-.2-.2-.4-.2c-.4,0-.7.2-.9.5s-.4.6-.5.9-.3.7-.4,1.1.1.1.2.1c.1,0,.2,0,.3-.2h0Z"/>
      <path class="st2" d="M82.1,18c.2-.3.4-.6.7-.9s.1-.1.2-.2,0,0,.1,0,0,0,.1,0c0,0-.2,0-.1,0s0,0,0,0,0,0,0,0c0,0,0,.2,0,.3s.1.1.2.1c.1,0,.2,0,.3-.2s0-.2,0-.3-.1-.2-.2-.2c-.3,0-.6.2-.8.4-.3.3-.6.7-.9,1.1s0,.1.1.1.2,0,.3-.1h0Z"/>
      <g>
        <path class="st31" d="M79.8,20.5s.8,1.2,1.3,1.8c0-.7-.1-1.4-.2-2.2,0,0-.4.4-1.1.4Z"/>
        <path class="st31" d="M79.4,20.7c.4.6.8,1.2,1.3,1.8s.3,0,.5,0,.3-.1.3-.3c0-.7-.1-1.4-.2-2.2s-.2-.1-.3-.1c-.1,0-.3,0-.4.2s0,0,0,0,0,0,0,0,0,0,0,0c0,0,0,0,0,0,0,0,0,0-.1,0,0,0,0,0,0,0,0,0,0,0,0,0,0,0,0,0,0,0s0,0,0,0c0,0,0,0,0,0,0,0,0,0-.1,0,0,0,0,0,0,0,0,0,0,0,0,0-.2,0-.4,0-.5.2s0,.2.2.2c.4,0,.8,0,1.1-.2s.3-.2.4-.3h-.7c0,.8.1,1.5.2,2.2l.7-.3c-.5-.6-.9-1.2-1.3-1.8s-.2,0-.2,0c0,0-.2,0-.3,0s-.3.2-.2.3Z"/>
      </g>
      <g>
        <path class="st18" d="M75,18.6c.9-.7,1.7-1.5,2.6-2.2.7-.5,1.5-1,2.3-.7.3.1.6.4.8.6.5.7.9,1.5.8,2.4-.1.9-.9,1.6-1.7,1.6-.4,0-.9,0-1.1.3,0,0,0,.2,0,.3,0,2.2-1.6,4.2-3.6,5-2,.8-4.4.4-6.3-.6-.4-.2-6.5-3.3-7.7-4,.5-.4,1,0,1.6.2-1.8-1-3-1.5-3.9-3.3,1.8.3,3.5,1.2,4.7,2.5-.4-.2-.8-.6-1.1-1-.1-.1-.2-.3-.2-.5,0-.3.5-.4.8-.4,1.6.2,2.8,1.5,3.9,2.8.1,0,.2-.2.3-.3"/>
        <path class="st18" d="M75.4,18.6c.8-.7,1.7-1.6,2.6-2.1s1.6-.6,2.3-.2.7.9.8,1.4c.4,1.1,0,2.3-1.2,2.6s-.6,0-1,.1-.4.3-.5.7c-.2.8-.1,1.4-.5,2.2-1,2-3.2,3.2-5.4,3s-4-1.4-5.9-2.4-3.4-1.7-5-2.6v.2c.1-.1.7.2.9.3s.8-.2.7-.3c-1.6-.8-3-1.6-3.9-3.2l-.7.3c1.8.4,3.4,1.2,4.7,2.4l.7-.3c-.3-.2-1.3-.8-1.3-1.2.1-.8,1.6.2,1.9.4.8.5,1.4,1.3,2,2s.6,0,.7-.1l.3-.3c.3-.2-.5-.2-.6,0l-.3.3h.7c-1-1.4-2.5-3-4.3-2.9s-.8.1-1,.4c-.5.7.8,1.5,1.2,1.8s.9-.1.7-.3c-1.4-1.3-3-2.1-4.8-2.5s-.8,0-.7.3c.9,1.7,2.3,2.5,4,3.3l.7-.3c-.8-.3-1.3-.5-2.1,0s-.2.1-.1.2c1.8,1,3.6,1.9,5.4,2.8s3.7,2.1,5.8,2.3,5.2-.9,6.5-3.1.4-1.2.6-1.9.3-.8.7-1,.4,0,.6-.1c1.1-.4,1.7-1.5,1.5-2.7s-1.4-2.5-2.8-2.2-3.2,2-4.4,3.1.6,0,.7,0h0Z"/>
      </g>
      <path class="st33" d="M79.5,18s0,0,0,0,0,0,0,0c0,0,0,0,0,.1s0,.1,0,.2,0,0,0,0c0,0,0,0,0,0s0,0,0,0,0,0,0,0c0,0,0,0,0,0s0,0,0,0c0,0,0,0,0,0,0,0,.2,0,.2,0s0,0,0,0c0,0,0,0,.1,0s0,0,0,0c0,0,0,0,.1,0s0,0,.1,0,0,0,0,0,0,0,0,0,0,0,0,0c0,0,0,0,0,0s0,0,0,0,0,0,0-.1,0,0,0,0,0,0,0,0h0c0,0,0,0,0,0,0,0,0,0,0,0s0,0,0,0,0,0,0,0c0,0,0,0,0,0s0,0,0,0c0,0,0,0,0,0s0,0,0,0,0,0,0,0c0,0,0,0,0,0s0,0,0,0c0,0,0,0,0,0s0,0,0,0,0,0,0,0c0,0-.1,0-.2,0s0,0,0,0c0,0,0,0,0,0s0,0,0,0c0,0,0,0,0,0s0,0,0,0c0,0,0,0,0,0s0,0,0,0c0,0,0,0,0,.1,0,0,0,0,0,.1,0,0,0,0,0,0,0,0,0,0,.1,0h.1c0,0,.1,0,.2,0,0,0,.2-.1.2-.2s0,0,0,0h0c0,0,0,0,0,0h0c0,0,0,0,0,0h0c0,0,0,0,0,0h-.1s0,0,0,0h-.1s0,0,0,0h-.1s0,0,0,0h0s0,0,0,0h0s0,0,0,0h0c0,0,0,0,0,0h0c0,0,0,0,0,0h0c0,0,0,0,0,0,0,0,0,0,0,0h0c0,0,0,0,0,0h0c0,0,0,0,0,0h0c0,0,0,0,0,0h0c0,0,0,0,0,0h0c0,0,0,0,0,0h0s0,0,0,0h.1s0,0,0,0h.1s0,0,0,0h.1s0,0,0,0h0s0,0,0,0h0s0,0,0,0h0s0,0,0,0h0c0,0,0,0,0,0h0s0,0,0,0h0s0,0,0,0c0,0,0,0,0-.1,0,0,0,0,0-.1,0,0,0,0,0,0,0,0,0,0-.1,0h-.1c0,0-.1,0-.2,0h0c0,0,0,.1-.1.2h0Z"/>
      <g>
        <path class="st5" d="M59.2,18.5c.4-.3,1,0,1.3.2s.9.5,1.3.9c.8.7,1.5,1.6,2.4,2.4s.9-.1.7-.3c-1-.9-1.8-2-2.9-2.8s-2.3-1.4-3.3-.6-.2.2,0,.3.4,0,.6,0h0Z"/>
        <path class="st5" d="M62.9,19.3c-.1-.6.8-.2,1,0,.4.2.8.5,1.1.8.7.5,1.4,1.1,2,1.7s.4.1.5,0,.3-.3.2-.4c-.8-.8-1.6-1.5-2.5-2.1s-1.2-.8-1.9-.8-1.4.4-1.3,1.1.9.2.8-.2h0Z"/>
        <path class="st5" d="M61.2,21.6c.5-.1.9,0,1.3.2s.9.5,1.3.7.4,0,.5-.1,0-.3-.1-.4c-.3,0-.5-.2-.7-.3s-.5-.3-.7-.4c-.6-.3-1.2-.3-1.8-.2s-.4.2-.3.4.3.2.5.2h0Z"/>
      </g>
      <g>
        <path class="st30" d="M76.9,19.4c-1.3-.6-2.9-.7-4.4-.4-1.5.3-2.8.9-4.2,1.5,0,0-.2,0-.2.2-.1.2,0,.4.1.6.5.6,1.3,1,2.1,1.2-1-.1-1.9-1-2.9-1.1-.2,0-.5,0-.6.2-.2.2-.2.6,0,.8s.4.4.7.6c2.3,1.2,5.1,1.4,7.4.5.6-.2,1.2-.6,1.7-1.1s.7-1.2.6-1.8c0-.4-.3-.8-.6-1"/>
        <path class="st30" d="M77.2,19.2c-2.2-1-4.7-.6-6.9.2s-1.2.5-1.8.7-.9.3-.9.7.6.9.9,1.1.9.5,1.5.6l.5-.4c-1.2-.2-2.3-1.5-3.6-1.1s-.9.6-.7,1.1.9.9,1.5,1.2c2.6,1.1,5.9,1.2,8.4-.4s2.1-2.6.8-3.7-.9.1-.7.3c.6.5.7,1.2.5,1.9s-.9,1.2-1.6,1.5c-1.3.6-2.7.8-4.1.7s-1.4-.2-2-.5-1.4-.5-1.8-1-.2-.4-.2-.5c.1-.3.4-.2.6-.1.3,0,.6.3.9.4.5.3,1,.5,1.6.6s.4,0,.5-.1.1-.3,0-.3c-.4,0-.8-.2-1.2-.5s-1.1-.7-.8-1,.4-.2.5-.2c.2-.1.5-.2.7-.3.4-.2.9-.4,1.3-.5,1.8-.6,3.7-.8,5.5,0s.9-.2.6-.4h0Z"/>
      </g>
      <path class="st40" d="M71.2,19.3c-.8.3-1.6.5-2.4.9s-1.5.8-1.8,1.4.9.6,1.3.5c1-.2,2-.4,3-.6l-.4-.4c-.3.5-.9.8-1,1.3s.2.8.7.8,1.3-.3,1.9-.5,1.4-.5,2-.8l-.5-.3c-.1.3-.2.6,0,.9s.6.3.9.1c.7-.3,1.3-.9,1.7-1.5s-.4-.5-.7-.2-.4.6-.7.8-.3.2-.4.3c-.3.2-.1-.1,0-.3.2-.3-.4-.4-.5-.3-.9.4-1.8.8-2.7,1s-.5.2-.7.2-.1-.3,0-.5c.2-.3.5-.5.8-.8s-.1-.5-.4-.4c-.7.1-1.3.3-2,.4s-.7.1-1,.2-.5,0-.5,0c0,0,.4-.3.4-.3.9-.8,2.1-1.2,3.2-1.5s.3-.7-.1-.6h0Z"/>
    </g>
    <g class="st20">
      <g>
        <path class="st18" d="M24.8,120.2c-9.2-.7-57.9.3-62.5.6-1.1-3.4-1.5-7-1.8-10.6-.4-4.5-.7-9-1-13.5l-.9-6.9c1.5-2.1,2.4-4.5,3.5-6.7,1.2-2.3,2.7-4.5,4.9-5.7.9-.5,2-.8,2.8-1.5,1.2-1,1.8-2.6,2.7-3.8,1.4-2,3.9-3.3,6.2-2.8.9.2,1.7.6,2.6.7,2.7.3,5.1-1.9,7.8-1.7,2.6.2,4.5,2.4,6.9,3.2,1.2.4,2.6.4,3.8,1,1.8,1,2.6,3.2,4.2,4.6,1.7,1.6,4.4,2,5.9,3.9,1.3,1.7,1.3,4.3,2.7,6,1.5,1.8,4.4,2.2,5.9,4,1,1.1,1.3,2.7,1.8,4.1.7,2.1,1.2,2,7.5,8.5,6.3,6.4-2.9,17-2.9,17Z"/>
        <g>
          <g>
            <path class="st6" d="M35.3,97c4.1-5.7,6-13,5.1-20-1.1,3.1-3.1,5.8-4.9,8.6-1.8,2.8-3.4,5.8-3.5,9.1,0-5.2,0-10.4,1.5-15.3-3.9,3.4-6.2,8.6-6.1,13.8,0,3.4,1.1,6.8.4,10.1"/>
            <path class="st6" d="M36,96.9c4.1-5.8,6-13,5.1-20.1s-1.4,0-1.5.3c-2.3,6.2-8.1,10.9-8.5,17.7l1.5-.4c0-5.1,0-10.3,1.5-15.3s-1.3,0-1.4.2c-3,2.7-5.1,6.2-5.9,10.2s1,9.2,0,13.8,1.4,0,1.5-.3c.9-4.4-.8-8.7-.2-13.1s2.7-8,5.9-10.8l-1.4.2c-1.5,5-1.5,10.2-1.5,15.4s1.5,0,1.5-.4c.3-6.8,6.1-11.5,8.4-17.6l-1.5.3c.9,7-.9,14.2-5.1,20s1.2,0,1.5-.3h0Z"/>
          </g>
          <g>
            <path class="st16" d="M28.7,101.9c0-7.2-5.2-13.2-6.3-18.1-.3,2.5-.4,5,0,7.5.4,2.4,1.2,4.7,1.8,7.1.9,4.1,1.8,9.1,1.9,13.3"/>
            <path class="st16" d="M29.5,101.7c0-3.5-1.3-6.8-2.7-9.9s-2.9-5.3-3.6-8.2-1.4,0-1.5.3c-.3,2.4-.4,4.8,0,7.1s1.2,4.7,1.7,7.1c1,4.5,1.9,9.1,2,13.8s1.5,0,1.5-.4c0-4.5-.9-9-1.9-13.3s-1.3-4.4-1.7-6.6-.4-5.3,0-7.9l-1.5.3c.7,2.9,2.3,5.5,3.6,8.2s2.7,6.4,2.7,9.9,1.5,0,1.5-.4h0Z"/>
          </g>
          <path class="st37" d="M39.9,78.8c1.5,7.8-6.4,12.9-8.1,20,.3-7.5,8.1-12.4,8.1-20h0Z"/>
          <path class="st37" d="M32.2,81c-2.2,6.3-2,13-1.3,19.6-2.1-6.2-2.2-13.8,1.3-19.6h0Z"/>
          <path class="st37" d="M22.4,83.8c1.5,7,5.5,13.6,4.9,21-.8-7.2-4.8-13.7-4.9-21h0Z"/>
          <g>
            <path class="st1" d="M55.9,111.5c-1.9-5.3-5.6-9.9-10.3-12.8-1.4-.9-2.9-1.6-4.6-1.8-1.5-.1-3.1.3-4.6.7-2.5.7-5,1.5-6.8,3.3-1.9,1.9-2.6,4.6-3.1,7.2-.8,3.7-1.2,7.5-1.6,11.3,0,.2,0,.5,0,.7.2.3.6.3.9.3,9.4,0,18.8.2,28.3.3"/>
            <path class="st1" d="M56.6,111.3c-1.8-4.8-4.9-9-9-12s-4.5-2.9-7.2-2.9-5.4.9-7.7,1.9-4.2,2.5-5.3,4.7-1.7,5.2-2.1,7.9-.5,3.1-.7,4.7-.2,1.6-.3,2.4-.3,1.3-.2,1.9c.2,1,1.2.9,2,.9,1.7,0,3.3,0,5,0,7.6,0,15.2.1,22.8.2s1.6-.9.6-.9c-5.6,0-11.2-.1-16.9-.2s-5.6,0-8.4,0-1.3,0-2,0c-1.1,0-1.6-.2-1.5-1.3s.3-2.7.5-4c.3-2.6.7-5.2,1.3-7.8s1.5-4.9,3.5-6.5,4.7-2.2,7.1-2.8,5.3.4,7.7,2c4.3,2.9,7.6,7.2,9.4,12.1s1.7.2,1.5-.4h0Z"/>
          </g>
          <g>
            <path class="st43" d="M37.8,99.9c-2.2-.4-4.5.8-5.8,2.7-1.3,1.8-1.8,4.2-1.9,6.4.1-1.1,2.8-5.3,3.8-6.1,1-.9,2.8-2.1,3.8-2.9h0Z"/>
            <path class="st43" d="M38.2,99.5c-2.4-.4-4.9.7-6.5,2.5s-2.3,4.6-2.4,7.1,1.4.3,1.5-.2c0-.7.5-1.4.9-2,.5-.9,1.1-1.8,1.7-2.6s1-1.3,1.7-1.8c1.1-.9,2.2-1.6,3.3-2.5s.1-.4-.1-.5-.8,0-1.1.3c-1.1.9-2.3,1.7-3.4,2.5s-1.2,1.2-1.8,2-1.2,1.8-1.8,2.7-.8,1.4-.9,2.1l1.5-.2c0-2.2.5-4.4,1.8-6.3s2.8-2.7,4.7-2.4.8,0,1.1-.3.2-.4-.1-.5Z"/>
          </g>
          <g>
            <path class="st25" d="M67.1,120.9c0-4.1-2.4-8-6.2-10.2-1.5-.8-3.3-1.4-4.9-.7-1.6.6-2.4,2.2-2.8,3.8-.6,2-.9,4-.9,6,0,.3,0,.6.3.8.1,0,.3,0,.5.1,4.2.3,10,.9,14.1.3"/>
            <path class="st25" d="M67.9,120.7c0-2.9-1.2-5.7-3.2-7.8s-5.1-4-8.2-3.3-4.2,3.9-4.7,6.9-.2,1.6-.3,2.4-.3,1.6.3,1.9,1.4.2,2,.2c.9,0,1.7.1,2.6.2,3.5.3,7.1.5,10.6,0s.9-.2.9-.4-.5-.2-.6-.1c-2.7.4-5.4.3-8.1.1s-2.7-.2-4.1-.3-1.4,0-1.8-.2-.3-1.5-.2-2c.1-1.6.4-3.2.9-4.8s.9-2.3,1.9-3,3.1,0,4.3.6,2.2,1.4,3,2.4c1.9,2.1,3.1,4.9,3.1,7.7s1.6,0,1.6-.4h0Z"/>
          </g>
        </g>
        <g>
          <path class="st44" d="M1.3,91.7c.2.1.3.3.3.5s-.2.4-.4.4-.3-.4-.1-.5"/>
          <path class="st44" d="M.6,92c0,0,.1.1.2.2h0c0,0,.1.2.1.3h0s0,0,0,.1h0c0,0,0,0,0,0h.1c0,0,0,0,0,0h.1c0,0,0,0,0,0h.2c0,0,0,0,0,0h.2c0,0,0,0,0,0h.2s0,0,0,0h.2s0,0,0,0h.2s0,0,0,0h.1s0,0,0,0h0s0,0-.1,0h0s0,0,0-.1h0s0,0,0,0h0c0,0,0,0,0,0h-.1c0,0,0,0,0,0,0,0,.2-.2.2-.3s-.2-.1-.3-.1c-.2,0-.4,0-.5,0h-.2c-.1.1-.2.2-.3.2,0,0,0,0,0,0s0,0,0,0c0,0,0,0,0,.1s0,.2,0,.2,0,.1.1.2.1.1.2.1c.3,0,.6,0,.8,0s.3,0,.4-.2.2,0,.2-.1c.1,0,.2-.2.3-.3s0-.2,0-.3,0-.2,0-.2-.1-.2-.2-.3-.3,0-.4,0c0,0-.2,0-.3,0-.1,0-.2,0-.3,0h-.2c0,.1-.2.2-.2.2,0,0-.1.2,0,.2h0Z"/>
        </g>
        <g>
          <path class="st44" d="M19.4,97.5c.2.6.2,1.3-.1,1.9-.1.3-.4.7-.8.7-.5,0-.8-.6-.9-1.1,0-.4-.1-.9,0-1.3s.7-.6,1.1-.4"/>
          <path class="st44" d="M18.6,97.7c.1.4.1.8,0,1.1h0c0,.1,0,.4-.2.6s0,.2-.1.3,0,0,0,.1c0,0,0,0,0,0,0,0-.1.1,0,0,0,0-.1,0,0,0,.2,0,.3-.1.5-.1,0,0,.1,0,0,0,0,0,0,0,0,0s0,0,0,0,0,0-.1,0c0,0-.1-.1-.2-.2h0c-.3-.4-.4-1-.4-1.5h0c0,0,0-.2.1-.3s0,0,0,0c0,0,0,0,0,0s0-.1.1-.1h0s0,0,0,0h0s0,0,0,0c0,0,0,0,0,0,0,0,0,0-.1,0,0,0-.2,0-.3,0s-.2,0-.1,0c0,0,0,0,0,0s0,0,0,0,0,0,0,0c.1,0,.3,0,.4,0,.2,0,.4,0,.6-.1s.7-.3.4-.4c-.4-.2-.9-.2-1.2,0s-.8.3-1.1.6c-.4.4-.4,1.1-.2,1.7s.4,1,.9,1.1,1.2,0,1.6-.3.5-.4.6-.7c.3-.6.3-1.4.1-2s-.2-.1-.3-.1c-.2,0-.4,0-.5,0s-.4.1-.5.2-.2.1-.2.2h0Z"/>
        </g>
        <g>
          <path class="st44" d="M.8,86.6c0,.3.2.6,0,.9s-.4.5-.7.4c-.4-.2-.2-.8,0-1.1"/>
          <path class="st44" d="M0,86.8c0,.2.1.4.1.6h0s0,.2,0,.3h0s0,0-.1,0h0c0,0,0,0-.1,0h.1c0,0,0,0,0,0h.2c0,0,0,0,0,0h.2c0,0,0,0,0,0h.2s0,0,0,0h.2s0,0,0,0h.2s0,0,0,0h.1s0,0-.1,0h0c0,0,0,0-.1,0h0c0,0,0-.1,0-.2h0c0,0,0-.2.1-.3h0s0,0,.2-.1,0-.2,0-.3-.3-.1-.4-.1c-.3,0-.7.1-1,.4s-.5.9-.2,1.3.3.2.4.2.2,0,.3,0c.2,0,.4,0,.6-.1.4-.1.8-.4.9-.8s0-.4,0-.5,0-.3,0-.5-.2-.2-.3-.2c-.2,0-.4,0-.6,0s-.4.1-.5.2-.2.2-.2.3H0Z"/>
        </g>
        <path class="st3" d="M21,113.1c1.9-2.6,2.1-6.6-1.5-7.8s-4.2-.1-5.9.8-2.5,2.1-3.4,3.6l5.4-.8c1-2.4,1.9-6.1-1.3-7.4s-7.1.6-9.1,3l5.2-.5c1.1-2.3,1.9-5.7-1.3-6.8s-3.8,0-5.3.7-2.2,1.7-3,3l5.4-.8c1.7-3,0-7.1-3.2-8.1s-9.1.6-10.9,4.2,1.9.8,2.2.8c1.1-.2,2.6-.6,3.1-1.6s.5-.7.8-1,.3,0,0-.1c.5.2,1.3.4,1.9,1,1.5,1.5,1.8,3.9.7,5.7s1.9.8,2.2.8c1.1-.2,2.5-.6,3.1-1.6s.3-.5.5-.7c0-.1.2-.2.3-.3l-2.1.5c0,.1.5.4.6.5.2.2.3.5.4.8.4,1.4-.3,2.8-.9,4s1.6.9,1.9.8c1.1-.1,2.5-.5,3.3-1.3s.5-.5.7-.7c.4-.7-.1,2.4-1.1.1,0,.1.5.3.6.4.2.2.4.5.5.9.6,1.6,0,3.2-.7,4.7s1.8.9,2.2.8c1.1-.2,2.5-.6,3.1-1.6s.9-1,1.2-1.6c-1,2-2.2-.3-1.3.6s.5.4.8.7c1.1,1.4.7,3.4-.3,4.8s.6,1.2,1.4,1.2c1.1,0,2.9-.4,3.6-1.4h0Z"/>
      </g>
    </g>
    <g class="st22">
      <g>
        <g>
          <path class="st6" d="M159.5,104.3c-2.2-9.1-8-17.4-15.8-22.5,2.2,3.8,3.1,8.2,4.4,12.4,1.2,4.2,2.9,8.5,6.2,11.5-5.2-4.5-10.6-9-14.2-14.9,0,6.9,3.3,13.8,8.6,18.2,3.5,2.9,7.9,4.8,10.6,8.5"/>
          <path class="st6" d="M160.5,104.1c-2.2-9.2-8-17.4-15.9-22.6s-2.1.3-1.9.6c4.2,7.7,3.9,17.7,10.6,24l1.9-.7c-5.2-4.4-10.5-9-14.1-14.8s-2,0-2,.5c0,5.7,2.2,11.2,5.9,15.5s9.8,6.4,13.3,11.1,2.1-.4,2-.5c-3.4-4.5-9.1-6.5-12.9-10.7s-6.2-10.1-6.3-16l-2,.5c3.7,5.9,9,10.5,14.2,14.9s2.1-.4,1.9-.7c-6.6-6.2-6.3-16.3-10.5-23.8l-1.9.6c7.9,5.2,13.5,13.3,15.8,22.5s2.1-.1,2-.5h0Z"/>
        </g>
        <g>
          <path class="st16" d="M158.7,115.2c-7.2-6.2-17.9-6.2-23.8-9.4,2.2,2.5,4.8,4.8,7.6,6.5,2.7,1.7,5.9,2.9,8.7,4.4,5,2.7,10.8,6.1,15.1,9.7"/>
          <path class="st16" d="M159.6,114.8c-3.6-3-7.9-4.6-12.4-5.9s-8-1.7-11.6-3.6-2.2.3-1.7.8c2.2,2.4,4.5,4.6,7.2,6.3s5.5,2.8,8.2,4.2c5.6,2.8,11.1,6.1,15.9,10.1s2.3-.4,1.9-.7c-4.7-3.9-10-7-15.4-9.9s-6-2.7-8.7-4.5-5.1-3.9-7.2-6.3l-1.7.8c3.5,1.8,7.5,2.5,11.2,3.5s8.9,2.8,12.4,5.8,2.3-.4,1.9-.7h0Z"/>
        </g>
        <path class="st37" d="M145.1,83.8c9.2,5.3,7.5,17.7,13.2,25.5-7.3-6.8-5.5-18.9-13.2-25.5h0Z"/>
        <path class="st37" d="M140.6,93.5c4.5,7.7,11.4,13.3,18.6,18.4-8.1-3.3-15.9-9.8-18.6-18.4h0Z"/>
        <path class="st37" d="M134.9,105.8c8.4,4.6,18.6,6.2,25.5,13.3-7.9-5.5-18-7.1-25.5-13.3h0Z"/>
      </g>
    </g>
  </g>
  <g class="st21">
    <g>
      <path class="st18" d="M211.6,56c-7.6,3.9-15.3-.7-21.3-5.3s-6.2-5-9.6-7-7.2-3.4-10.9-4.5-7.6-2.4-10.7.4-.2,1,.3,1.2,1.5,0,2-.5c1.1-1,3-.3,4.2,0,1.9.5,3.8,1.1,5.6,1.8,3.8,1.3,7.3,3.1,10.5,5.4,6,4.3,11.5,9.8,18.9,11.5s8.3.4,12.1-1.5.2-2.2-1.2-1.5h0Z"/>
      <path class="st18" d="M212.5,57.5c-2.2.8-4.5,1.6-6.9,1.7s-4.5-.6-6.5-1.7c-4-2.2-7.7-5.1-11.1-8.2s-3.2-2.9-5-4.2-3.8-2.2-5.8-3c-4.2-1.8-8.5-3.4-12.9-4.8s-9.2-2.4-13.5,0-.8.8-.3,1.1,1.6,0,2.1-.3c1.8-1.1,4-.8,6-.4s4.4,1.2,6.5,1.9c4.2,1.5,8.5,3,12.5,5s7.2,5.5,10.7,8.3,6.9,5.5,10.9,6.9,9.7.3,14.3-1.3,1.2-.7.8-1.2-1.5-.2-1.9,0h0Z"/>
      <path class="st27" d="M215.2,84c-1.8,1.7-4.5,2.3-6.8,1.6s-3.8-2.7-6-1.3-2.2,4.1-2.3,6,0,5.1-.7,7.5c-1.9,5.6-9.5,5.3-14,3.6s-8.2-7-12.7-10-5.1-2.5-8-2.1-5.5,1.8-7.6,3.7.6,1.8,1.4,1c2.1-1.9,4.8-3.4,7.7-3.2s5.1,1.9,7.2,3.7,3.8,3.9,6,5.6,4.6,2.9,7.2,3.5c4.5,1,10.8.6,13.8-3.4s.8-9.5,2.8-13.9,1.1-.6,1.9-.2,1.1.6,1.6.8c1.1.4,2.4.6,3.6.6,2.6,0,5-1.1,6.8-2.8s.1-.9-.3-1.1-1.2,0-1.5.4h0Z"/>
      <path class="st18" d="M189.1,107.4c-5.1-1.1-12.2-1.5-14.7,4.3s-.8,2.6-1.6,3.8-.7,1-1.4.9-1.4-.4-2.1-.6c-2.8-1-5.3-2.6-7.6-4.5s-3.4.5-2.7,1.1c2.2,1.9,4.7,3.5,7.3,4.5s5.4,1.7,7.8,0,2.2-4.7,3.9-6.8,6.3-1.7,9.2-1.1,3.4-1.1,1.8-1.4h0Z"/>
      <path class="st18" d="M230.7,51.1c-5-7.1-17.1-4.4-18.9,4s.7,8.5,1.3,12.7-.2,9.4-4,12.2.3.3,0,0-.4-.3-.6-.5c-.5-.4-.9-.9-1.3-1.3-1-.9-2-1.9-2.9-2.8-1.6-1.5-3.1-3.4-5.5-3.5s-3.8,1-4.4,3.1-.5,2.4-.5,3.7.1,2.5,0,3.7-.3,1-.4,1.5-.3.1,0,.2c-.2,0-.5-.3-.7-.5-.8-.7-1.5-1.5-2.4-2-1.7-1-3.9-1.2-5.8-.8s-3.9,1.3-4.7,3.1-.3,4.2-1.1,6.1-.4,1-.9.9-1.1-.7-1.4-1.1c-.8-1-1.3-2.3-1.9-3.4-1.1-1.8-2.5-3.4-4.2-4.7-3.6-2.8-8-4.4-12.4-5.9s-1.5,0-2,.3-.9.8-.3,1c3.8,1.3,7.8,2.7,11.1,5s3.1,2.4,4.2,4,1.7,3.9,3.3,5.3,3.6,1.4,5.3.5,2.4-2.6,2.6-4.3,0-4.9,2.4-5.5,3.9,1.2,5.5,2.5,3.5,1.2,5.1.2,1.7-3.2,1.6-5.1,0-2.7.3-4,.2-1.1.4-1.6.2-.6.2-.6c.2-.1.9.3,1.1.4.9.6,1.7,1.5,2.5,2.2s2.1,2,3.1,3c1.5,1.4,2.8,3,5,2.4s3.7-2.3,4.8-4c2.5-3.7,2.5-7.9,1.7-12.1s-2.6-10,.4-14.1,3.5-3.1,5.8-2.9,4.6,1.7,6,3.7,3.3-.2,2.7-1.1h0Z"/>
    </g>
  </g>
</svg>