<?xml version="1.0" encoding="UTF-8"?>
<svg id="Layer_1" xmlns="http://www.w3.org/2000/svg" xmlns:xlink="http://www.w3.org/1999/xlink" version="1.1" viewBox="0 0 159.2 221.8">
  <!-- Generator: Adobe Illustrator 29.0.0, SVG Export Plug-In . SVG Version: 2.1.0 Build 186)  -->
  <defs>
    <style>
      .st0 {
        fill: none;
      }

      .st1 {
        fill: #6d7071;
      }

      .st2 {
        fill: #80be87;
      }

      .st3 {
        fill: #a5cfa7;
      }

      .st4 {
        fill: #009b65;
      }

      .st5 {
        fill: #a3c9e9;
      }

      .st6 {
        fill: #056e50;
      }

      .st7 {
        fill: gray;
      }

      .st8 {
        fill: #67ad7c;
      }

      .st9 {
        fill: #5eb157;
      }

      .st10 {
        fill: #f2c8ba;
      }

      .st11 {
        fill: #293138;
      }

      .st12 {
        fill: #e6e7e7;
      }

      .st13 {
        fill: #98c455;
      }

      .st14 {
        fill: #4ca87c;
      }

      .st15 {
        clip-path: url(#clippath-1);
      }

      .st16 {
        font-family: Barlow-Italic, Barlow;
        font-style: italic;
      }

      .st17 {
        fill: #3c404a;
      }

      .st18 {
        fill: #fff;
      }

      .st19 {
        fill: #eba998;
      }

      .st20 {
        fill: #2f6f5a;
      }

      .st21 {
        fill: #efb256;
      }

      .st22, .st23 {
        fill: #221f20;
      }

      .st24 {
        opacity: .4;
      }

      .st25 {
        fill: #d0d2d3;
      }

      .st26 {
        fill: #676a6a;
      }

      .st27 {
        fill: #28663d;
      }

      .st28 {
        font-family: Barlow-Regular, Barlow;
        letter-spacing: 0em;
      }

      .st29 {
        fill: #88c28e;
      }

      .st30 {
        fill: #8d8c89;
      }

      .st31 {
        fill: #382417;
      }

      .st32 {
        fill: #e6d3c3;
      }

      .st33 {
        clip-path: url(#clippath);
      }

      .st23 {
        font-size: 7.8px;
      }

      .st34 {
        fill: #eeb8a8;
      }
    </style>
    <clipPath id="clippath">
      <rect class="st0" x="0" y="69.6" width="49.1" height="54.8"/>
    </clipPath>
    <clipPath id="clippath-1">
      <rect class="st0" x="74.6" y="0" width="84.6" height="124.4"/>
    </clipPath>
  </defs>
  <rect class="st32" x="0" y="0" width="158.8" height="221.8"/>
  <text class="st23" transform="translate(15.9 152)"><tspan class="st28"><tspan x="0" y="0">Escreve a história pela perspectiva de </tspan></tspan><tspan class="st28"><tspan x="-4" y="9.4">um cientista. Qual é a tua especialidade? </tspan></tspan><tspan class="st28"><tspan x="19.1" y="18.7">O que te trouxe à Madeira?</tspan></tspan><tspan class="st16"><tspan x=".7" y="35">O que procuras e porquê? Como é que </tspan></tspan><tspan class="st16"><tspan x="6.6" y="44.3">a lente de especialista muda a tua </tspan></tspan><tspan class="st16"><tspan x="14.1" y="53.7">experiência do que te rodeia?</tspan></tspan></text>
  <g>
    <path class="st6" d="M58.6,139.3c-.8,0-1.6-.2-2.2-.5s-1.1-.8-1.4-1.5-.5-1.4-.5-2.2v-.3c0-.8.2-1.6.5-2.2s.8-1.1,1.4-1.5,1.3-.6,2.1-.6,1.1,0,1.6.2.9.4,1.3.7v2h-1.2l-.2-1.3c-.1,0-.3-.2-.4-.2s-.3-.1-.5-.2-.4,0-.6,0c-.5,0-.9.1-1.3.4s-.6.6-.8,1-.3,1-.3,1.6v.3c0,.6,0,1.2.3,1.6s.5.8.9,1,.8.4,1.3.4.5,0,.8,0,.5-.1.7-.2l.2-1.2h1.2v2c-.3.2-.7.4-1.2.5s-1,.2-1.6.2Z"/>
    <path class="st6" d="M62.2,139.2v-1l.8-.2v-4.1l-.9-.2v-1h2.5v5.2l.8.2v1h-3.3ZM63,131.5v-1.4h1.7v1.4h-1.7Z"/>
    <path class="st6" d="M69.2,139.3c-.6,0-1.1-.1-1.6-.4s-.8-.6-1-1.1-.4-1-.4-1.6v-.2c0-.6.1-1.2.4-1.7s.6-.9,1-1.1.9-.4,1.5-.4,1.1.1,1.4.3.7.6.9,1,.3.9.3,1.5v.9h-3.8c0,.3,0,.6.2.8s.3.4.5.6.5.2.8.2.6,0,.9-.1.5-.2.8-.4l.5,1c-.3.2-.6.4-1,.5s-.8.2-1.4.2ZM67.8,135.4h2.3v-.2c0-.3,0-.5-.1-.7s-.2-.4-.4-.5-.4-.2-.6-.2-.4,0-.6.2-.3.3-.4.5-.2.5-.2.7h0Z"/>
    <path class="st6" d="M72.4,139.2v-1l.8-.2v-4.1l-.9-.2v-1h2.4v.9c.3-.3.5-.6.9-.8s.7-.3,1.1-.3c.6,0,1.1.2,1.5.6s.5,1,.5,1.9v2.8l.8.2v1h-3.2v-1l.8-.2v-2.8c0-.5,0-.8-.3-1s-.4-.3-.8-.3-.5,0-.7.2-.4.3-.5.5v3.4l.8.2v1h-3.2Z"/>
    <path class="st6" d="M82.4,139.3c-.6,0-1-.2-1.3-.5s-.5-.8-.5-1.5v-3.4h-.9v-1.1h.9v-1.5h1.6v1.5h1.2v1.1h-1.2v3.4c0,.3,0,.4.2.6s.3.2.4.2.2,0,.3,0,.2,0,.3,0l.2,1.1c-.2,0-.4,0-.6.1s-.4,0-.6,0Z"/>
    <path class="st6" d="M84.3,139.2v-1l.8-.2v-4.1l-.9-.2v-1h2.5v5.2l.8.2v1h-3.3ZM85.1,131.5v-1.4h1.7v1.4h-1.7Z"/>
    <path class="st6" d="M90.9,139.3c-.5,0-.9,0-1.3-.1s-.8-.2-1.2-.4v-1.7s1.1,0,1.1,0l.2.9c.2,0,.3.1.5.2s.4,0,.6,0c.4,0,.7,0,.9-.2s.2-.3.2-.5,0-.4-.3-.5-.5-.3-1-.4c-.8-.2-1.3-.4-1.7-.7s-.5-.7-.5-1.2,0-.7.3-1,.5-.5.8-.7.8-.3,1.4-.3.9,0,1.3.1.7.2,1,.4v1.7s-1.1,0-1.1,0l-.2-.8c-.1,0-.2-.1-.4-.2s-.3,0-.5,0c-.3,0-.6,0-.7.2s-.3.3-.3.5,0,.2,0,.3.2.2.3.3.4.2.7.2c.8.2,1.4.4,1.7.7s.5.7.5,1.2-.2,1-.6,1.4-1.1.5-1.9.5Z"/>
    <path class="st6" d="M96.7,139.3c-.6,0-1-.2-1.3-.5s-.5-.8-.5-1.5v-3.4h-.9v-1.1h.9v-1.5h1.6v1.5h1.2v1.1h-1.2v3.4c0,.3,0,.4.2.6s.3.2.4.2.2,0,.3,0,.2,0,.3,0l.2,1.1c-.2,0-.4,0-.6.1s-.4,0-.6,0Z"/>
    <path class="st6" d="M100.7,139.3c-.6,0-1.1-.2-1.5-.5s-.5-.8-.5-1.4.1-.7.3-1.1.5-.5,1-.7.9-.3,1.5-.3h.9v-.5c0-.3,0-.6-.3-.8s-.5-.3-.8-.3-.4,0-.5,0-.3.1-.4.2v.8h-1.3v-1.6c.3-.2.7-.4,1-.5s.8-.2,1.3-.2c.8,0,1.5.2,1.9.6s.7.9.7,1.6v2.7c0,0,0,.2,0,.3s0,.2,0,.2h.7v1.1h-2c0-.1,0-.2-.1-.4s0-.3,0-.4c-.2.3-.5.5-.7.6s-.6.2-1,.2ZM101.1,138.1c.3,0,.5,0,.8-.2s.4-.3.5-.5v-1h-.9c-.4,0-.7,0-.9.3s-.3.4-.3.7,0,.4.2.5.4.2.6.2Z"/>
  </g>
  <g>
    <g class="st33">
      <g>
        <path class="st8" d="M-13.4,103.5c1.3-3.2,3-6.2,5-9,.5-.7,1-1.3,1.7-1.8s1.6-.6,2.3-.1c-.8-.7-.3-1.9.4-2.7,2-2.6,5-4.4,8.3-4.9,3.2-.5,6.7.2,9.4,2,.8-1.1,2-2.2,3.2-1.8.3,0,.5.2.8.3.4,0,.8-.3,1.1-.5,1.8-1.3,4.1-1.6,6.2-1.5s4.3.8,6.3,1.5c.7.2,1.4.5,1.9.9.9.8,1.1,2.2,1.1,3.5,0,2.9-.3,5.9-1,8.7,1.6,0,3.1,1,4,2.3,1.2-.8,2.7-.2,4,.3,1.6.7,3.3,1.4,4.4,2.8-4.5,1.6-9.3,2.6-14.1,2.8,2.1.4,4.2.8,6.2,1.2.6.1,1.3.3,1.5.9.2.7-.4,1.3-.9,1.7-2.5,1.8-5.6,2.8-8.7,2.8-.5,0-1.1,0-1.6-.2-.8-.2-1.5-.6-2.2-.9-2.1-.9-4.4-1.3-6.7-1.7-2.3-.4-8.4,8.1-10.8,8.2-5.4.4-10.8-.5-16.1-1.7-2.6-.6-1.5-6.9-4-5.8.3.4.8.6,1.3.5"/>
        <path class="st8" d="M-12,103.3c.8-1.9,1.7-3.7,2.7-5.4s2.8-5.2,3.7-4.8,3.2-.3,2.6-1c-1.1-1.3.9-3.1,1.8-3.9s2.6-1.9,4.1-2.4c3.2-1,6.8,0,9.5,1.7s2.1,0,2.6-.6.4-.5.6-.7.5-.5.3-.4.9.3,1.2.3c1.2,0,2.1-.6,3.1-1.2,2.4-1.5,5.7-.6,8.2.2s2.5.6,3.4,1.3,1.1,2.1,1.1,3.3c.1,2.9-.3,5.9-1,8.7s.3.3.5.4c1.4.1,2.7.9,3.5,2.1s1.7,0,2.2-.2,1.2.3,1.5.4c.6.2,1.3.5,1.9.8,1.1.5,2.1,1.2,2.9,2.1l.8-.8c-4.2,1.5-8.6,2.4-13,2.6s-1.3.2-1.7.5-.5.5,0,.6c1.6.3,3.2.6,4.8.9s3.9.6,2,2.2-5.9,2.8-8.5,2-2.5-1.1-3.8-1.5-3.2-.8-4.8-1-2.9.4-4,1.2c-2.7,1.9-4.7,4.8-7.4,6.7s-.6.3-.6.4l.8-.2c-.2,0-.5,0-.7,0-.5,0-.9,0-1.4,0-1.6,0-3.2,0-4.8-.2s-3.3-.4-5-.7-1.4-.3-2.1-.4-1.4-.1-2-.5c-1.3-.8-1.3-3-1.7-4.2s-1.9-1.9-3.6-1.3-1.2.5-.8.8c.6.6,1.2.6,2,.6s1.6-.2,1.8-.7-.2-.5-.7-.5c-.2,0-.4-.2-.6-.4l-.8.8c-1.1.4-.9-.1-.5.6s.3.6.4.9c.2.8.4,1.6.6,2.4s.5,1.2.9,1.7c.8.7,2.3.8,3.3,1,3.2.6,6.4,1.1,9.7,1.3s5,.4,7-.8c3.1-1.8,5.1-5,8-7.1s.7-.5.7-.5c.1.2-.8-.2-.4.2s.7.1.9.2c1.8.3,3.6.7,5.2,1.4s2.4,1,3.8,1.1,3,0,4.4-.4,3.2-.9,4.6-1.6,2.9-1.4,3.3-2.6-1-1.7-1.9-1.9c-2-.4-4-.8-6-1.2l-1.7,1.1c5.2-.3,10.3-1.3,15.2-3.1s1.2-.4.8-.8c-1.3-1.5-3.3-2.4-5.1-3.1s-3.7-.7-5.4.2l2.2-.2c-1.1-1.5-2.7-2.3-4.5-2.5l.5.4c.8-3.2,1.5-7.1.9-10.3s-1.1-2.3-2.5-2.8-3.4-1.2-5.2-1.5c-3.1-.6-6.5-.4-9.3,1.1s-1,.5-.9.6h.7c-.2-.2-.5-.3-.7-.3-.6,0-1.2,0-1.7.1-1.5.4-2.6,1.2-3.6,2.4l2.6-.6c-3.9-2.5-8.7-2.9-13.1-1.4s-3.9,1.7-5.5,3.1-3.4,3.2-2,4.8l2.6-1c-2.6-1.2-5.2.6-6.7,2.6s-3.7,5.8-5,9,2.4.3,2.7-.5h0Z"/>
      </g>
      <g>
        <path class="st1" d="M18.4,104.2c6.6-.2,8.2,1.9,9.9,4,1.9,2.4,3.2,6.3,4.2,9.3-8.5.6-15.4.9-24,1,0,0,3.2-14.1,9.9-14.3Z"/>
        <path class="st1" d="M18.1,104.6c3.3,0,6.5.3,8.7,2.9s3.7,6.6,4.9,10.2l.8-.6c-7.9.5-15.9.9-23.8,1l.4.3c.5-2.2,1.2-4.3,2.1-6.3s3.4-7.3,6.9-7.5,1.5-.9.6-.8c-4,.2-6.6,3.7-8.2,7.1s-2.1,5.1-2.7,7.7.3.3.4.3c8.1-.1,16.1-.5,24.2-1s.9-.2.8-.6c-1.3-3.7-2.6-7.7-5.3-10.6s-5.9-2.9-9.2-2.8-1.5.8-.6.8Z"/>
      </g>
      <g>
        <path class="st30" d="M19.4,106.4c-2.1-.4-4.3.8-5.6,2.6-1.2,1.8-1.7,4-1.8,6.1.1-1,2.7-5,3.7-5.9,1-.9,2.6-2,3.7-2.8h0Z"/>
        <path class="st30" d="M19.8,106.1c-2.3-.4-4.7.6-6.2,2.4s-2.2,4.4-2.3,6.8,1.4.3,1.4-.2c0-.7.5-1.3.8-1.9.5-.9,1-1.7,1.6-2.5s1-1.2,1.6-1.8c1-.8,2.1-1.5,3.1-2.3s.1-.4-.1-.5-.7,0-1,.3c-1.1.8-2.2,1.6-3.2,2.4s-1.2,1.2-1.7,1.9-1.2,1.7-1.7,2.6-.8,1.3-.9,2l1.4-.2c0-2.1.5-4.2,1.7-6s2.7-2.6,4.5-2.3.8,0,1-.3.2-.4-.1-.5Z"/>
      </g>
      <g>
        <path class="st17" d="M28.9,115.7c.8,0,1.5,0,2.3.1,1.9.3,3.5,2.2,3.4,4.2-3.4.1-6.9.2-10.3.2,0,0,.3-4.5,4.6-4.5Z"/>
        <path class="st17" d="M28.6,116.2c1.3,0,2.7,0,3.8.8s1.5,1.9,1.4,3l.8-.6c-3.4.1-6.8.2-10.1.2l.5.4c0-.7.3-1.4.6-2,.7-1.3,1.8-2,3.2-2s.8-.2.8-.6-.4-.4-.7-.4c-1.9,0-3.6.9-4.6,2.5s-.8,1.7-.8,2.5.2.4.5.4c3.5,0,7,0,10.5-.2s.8-.2.8-.6c0-1.4-.6-2.7-1.7-3.6s-2.9-1.1-4.5-1.1-.8,0-1,.4.1.6.4.6Z"/>
      </g>
      <path class="st4" d="M2.1,106.7c.3-.5.5-1.1,1-1.5s.5-.3.4-.3c.3-.1.8,0,1.4,0,1,0,1.9-.1,2.8-.5s2-1.5,3.1-2.3,1.7-.9,2.7-.8c1.5.2,2.7,0,4-.8s3.9-.9,5.6.4,5.1-1,3.2-2.4-5.8-2.3-8.7-1.3-1.6.6-2.3,1.1.2,0,.2,0c0,0-.9-.1-.9-.1-1.7-.1-3.4.2-4.9,1s-2.2,1.8-3.4,2.6.3,0-.1,0-.6,0-.2,0c-.5,0-1,0-1.6,0-2.9.1-4.9,1.9-6.2,4.4s3.1,2.1,4,.5h0Z"/>
      <path class="st4" d="M23.7,93.5c0,0,0,0,.1-.1.1-.1,0,0-.2.1,0,0,0,0,.1,0,.1,0,0,0-.3.2,0,0,.5-.2,0,0s0,0,0,0,.7-.2.7-.1-.7.1-.1,0,.3,0,.4,0c.3,0,.5,0,.8,0,0,0,.2,0,.2,0-.3,0-.4,0-.2,0,.1,0,.2,0,.4,0,.4,0-.3-.1,0,0s.5.3,0,0c.2.1.4.2.5.4l-.3-.3c.2.2.4.4.5.7l-.2-.4c0,.2.1.4.2.6v-.4s0,0,0,0c0,.4.1.8.5,1s1,.4,1.4.3,1.1-.2,1.6-.6.7-.7.7-1.1-.1-1-.4-1.5-.6-.7-.9-1c-.9-.7-2.2-.9-3.3-.9s-2,.2-2.9.4-2.2.8-2.9,1.7-.5.7-.3,1.2.5.7.9.8c.9.3,2.3,0,2.9-.8h0Z"/>
      <path class="st4" d="M-5.3,101c.3-.8.6-1.7,1.1-2.4s.5-.4.3-.3c.4,0,.9.1,1.4,0,1.2-.1,2.2-.8,2.9-1.8s.8-.9,1.5-1.2c2.1-.7,4.2-.7,6.1-1.7s1.7-1.2,2.6-1.7.7-.3,1,0c.7.7,1.9.6,2.8.2s1.7-1.2,1-2c-2-2.1-5.3-1.3-7.5,0s-1.9,1.5-3,1.8-2.7.4-4,.9-2.5,1-3.5,2-.8.9-.9,1.3c1.6-.3,2-.6,1.2-.6h-.3c-.5,0-.9,0-1.4.1-3.1.6-4.4,3-5.3,5.8s1.3,1.2,1.9,1.2c1,0,2-.6,2.3-1.6h0Z"/>
      <g>
        <path class="st27" d="M12.6,107.5c-.4-1.3-.7-2.7-.7-4.1s0-1.7.2-2.5.2-.8.3-1.2.1-.4.2-.6.3-.5,0-.5c.4,0,.7-.4.2-.5-.9-.1-1,1.1-1.2,1.7-.3,1-.4,2-.4,3,0,1.7.3,3.4.7,5s.8.1.7-.2h0Z"/>
        <path class="st27" d="M12.4,99.3c0-.3.2-.6.3-.8s.1-.3.2-.4,0,0,0,0c0,0-.2,0-.2,0s0,0,0,0c0,0,0,0,0,0,0,.1,0,.3-.2.4s-.1.1-.2.2c-.1.2-.3.4-.4.6s-.2.2-.3.3,0,0-.1.1,0,0,0,0c0,0,0,0,0,0,0,0,0,.2,0,.2s.4,0,.5-.1c.2-.2.3-.4.5-.6s.3-.5.5-.7.5-.6.2-.9-.5-.2-.8,0-.4.3-.5.5c-.2.4-.3.7-.4,1.1s.6.1.7,0h0Z"/>
        <path class="st27" d="M11.9,100.5c-.2-.3-.3-.6-.5-.8s-.5-.5-.8-.5-.9.2-.8.7.1.3.2.4.2.2.3.3c.2.2.5.5.8.6s.5,0,.6-.2,0-.2,0-.3c0-.1-.3-.1-.5,0s-.3.2-.2.4c0,0,0,0,0,0l.6-.2c-.2-.1-.4-.3-.6-.4s0,0,0,0,0,0,0,0c0,0,0,0-.1-.1,0,0-.2-.2-.2-.3s0,0-.1-.1,0,0,0,0c0,0,0,0,0,0s0,0,0,0,0,0,0,0,0,0,0,0,0,0,0,0c0,0,0,0,0,0,0,0,0,0,0,0,0,0,0,0,0,0s0,0,0,0h0s0,0,0,0c0,0,0,0,0,0,0,0,0,0,0,0s0,0,0,0c0,0,0,0,0,0,0,0,0,0,0,0s0,0,0,0,0,0,0,0c0,0,0,0,0,0,0,0,0,.1.1.2.2.3.3.5.5.8s.1,0,.2.1.2,0,.3,0c.1,0,.3-.2.2-.4h0Z"/>
        <path class="st27" d="M11.9,101c0-.2.2-.4.3-.5s.2-.2.2-.2,0,0,0,0,0,0,0,0,0,0,0,0c0,0,0,0,0,0,0,0,0,0,0,0,0,0,0,0-.1,0,0,0,0,0,0,0,0,0,0,0,0,0,0,0,.2,0,.2.2s0,0,0,.1,0,0,0,0,0,0,0,0c0,0,0,0,0,0-.1,0-.2.1-.3.2-.2.2-.5.3-.7.5s0,0,0,.1,0,0,.1,0c.2,0,.3,0,.5-.1.3-.2.5-.3.8-.5s.3-.2.4-.3.2-.2.2-.3-.2-.2-.3-.2c-.2,0-.4,0-.6,0-.3,0-.6.3-.9.5s-.4.5-.5.8.2,0,.3,0c0,0,.2,0,.3,0s.1,0,.1-.1h0Z"/>
        <path class="st27" d="M11.5,102.7c-.2-.2-.5-.4-.7-.6s-.3-.1-.4-.2-.2,0-.3,0-.3,0-.5.1-.3.3-.2.5.1.3.2.4c.2.2.5.4.8.5s.9.2,1.2,0,.1,0,.1-.2,0-.1,0-.2c-.1,0-.4,0-.5,0s0,0,0,0c0,0,0,0,0,0s0,0,0,0,0,0,0,0c0,0,0,0,0,0s0,0,0,0,0,0,0,0,0,0,0,0c0,0,0,0,0,0,0,0-.1,0-.2,0s0,0,0,0,0,0,0,0c0,0,0,0,0,0,0,0,0,0-.1,0s0,0-.1,0,0,0,0,0,0,0,0,0c0,0,0,0,0,0,0,0-.1-.1-.2-.2s0,0,0-.1,0,0,0,0,0,0,0,0,0,0,0,0c0,0,0,0,0,0,0,0-.1,0-.2,0-.2,0-.1,0,0,0,0,0,0,0,0,0,0,0,.1,0,.1,0,.1,0,.2.1.3.2.2.1.4.3.6.5s.3.1.5,0,.3-.2.2-.3h0Z"/>
        <path class="st27" d="M11.9,103.1c0-.1,0-.2.1-.3s0,0,0,0c0,0,0,0,0,0,0,0,0,0,0-.1,0,0,.1-.2.2-.2s0,0,0,0c0,0,0,0,0,0s0,0,0,0c0,0,0,0,.1-.1s0,0,0,0,0,0,0,0c0,0,0,0,0,0s0,0,0,0c0,0,0,0,0,0,0,0,0,0,0,0,0,0,0,0,0,0s0,0,0,0,0,0,0,0,0,0,0,0c0,0,0,0,0,0h0s0,0,0,0c0,0,0,0,0,.1,0,0,0,0,0,0s0,0,0,0c0,0,0,0,0,0,0,0,0,0,0,0,0,0-.2.2-.3.3-.3.2-.6.4-.8.6s0,0,0,.1,0,0,.1,0c.2,0,.4,0,.5-.1.3-.2.6-.4.9-.7s.3-.2.4-.3.2-.3,0-.4-.3-.2-.5-.2-.5,0-.7.2-.5.4-.7.6-.3.5-.4.8,0,0,0,.1c0,0,.2,0,.2,0,.1,0,.3,0,.4-.2h0Z"/>
        <path class="st27" d="M11.8,104.7c-.2-.2-.4-.4-.6-.5s-.5-.3-.7-.3-.5,0-.7.2-.2.2-.2.3.2.2.3.2.3.1.4.2c.3.1.7.3,1,.4s.2,0,.2,0,.2,0,.3,0,.2-.1,0-.2c-.3-.1-.6-.2-.9-.3s-.3-.1-.5-.2-.3,0-.3-.2,0,0,0,0c0,0,0,0,0,0,0,0-.2,0-.3,0,0,0,0,0,0,0,0,0,0,0,.1,0,.1,0,.2,0,.3.1.2.1.4.3.6.5s.1,0,.2,0c0,0,.2,0,.3,0s.3-.1.2-.2h0Z"/>
        <path class="st27" d="M12.2,105c.1-.2.2-.4.4-.6s0,0,0,0c0,0,0,0,0,0,0,0,0,0,.1-.1s0,0,0,0c0,0,0,0,0,0s0,0,0,0c0,0,.1,0,.2,0s0,0,0,0c0,0,0,0,0,0,0,0,0,0,0,0-.1,0,0,0,0,0,0,0,0,0,0,0s0,0,0,0,0,0,0,0c0,0,0,0,0,0,0,0,0,0,0,.1,0,0,0,.1-.1.1s0,0-.1.1,0,0,0,0,0,0,0,0c0,0,0,0,0,0-.1,0-.2.2-.3.3s-.2.2-.3.2,0,0,0,0c0,0,0,0,0,0s-.2,0,0,0c0,0-.3.1-.2.2s.4,0,.4,0c.2-.1.5-.3.7-.4s.5-.4.7-.6.3-.3.2-.4-.4-.1-.6,0-.4.1-.5.2-.3.2-.4.3c-.3.2-.5.5-.6.8s0,0,0,0c0,0,.2,0,.2,0,.1,0,.3,0,.4-.2h0Z"/>
        <path class="st27" d="M12.4,107c-.4-.4-.9-.8-1.5-.8s-.5,0-.6.2-.2.2-.1.4.2.2.3.3.2.2.4.2c.3.2.6.3.9.4s.4,0,.5-.1,0-.2,0-.3-.1,0-.2,0,0,0,0,0c0,0,0,0,0,0s0,0,0,0c-.1,0-.2,0-.3-.1-.2,0-.4-.2-.6-.3s0,0,0,0,0,0,0,0,0,0,0,0,0,0,0,0c0,0,0,0,0,0,0,0,0,0-.1,0s0,0,0,0c0,0,0,0,0,0,0,0,0,0,0,0,0,0,0,0,0,0,0,0,0,0,0,0s0,0,0,0c0,0,0,0,0,0s0,0,0,0c.1,0,.2.1.3.2.2.1.4.3.5.5s.3,0,.5,0,.3-.2.2-.3h0Z"/>
        <path class="st27" d="M12.6,107.3l.2-.7c0-.2,0-.3.2-.5s0-.1,0-.2,0,0,0-.1c0,0,0,0,0,0,0,0,0,0,0,0,0,0,0,0,0,0,0,0,0,0,0,0,0,0,0,0,0,0,0,0,0,0,0,0,0,0,0,0,0,0,0,0,0,0,0,0,0,0,0,0,0,0h-.2s0,0,0,0h-.1c0,0,0,0,0,0,0,0,0,0,0,0,0,0,0,0,0,.1s0,0,0,0c0,0,0,0,0,0,0,0,0,0,0,.1,0,.2-.2.4-.3.6s-.1.2-.2.3,0,0,0,0c0,0,0,0,0,0,0,0,0,0,0,.1-.1.2-.2.3-.3.5s0,.3.2.3.4,0,.5-.2,0,0,0-.1,0,0,0,0,0,0,0,0c0,0,0,0,0,0,0-.1.2-.3.3-.4.2-.3.4-.6.5-.9s.3-.6.1-.8-.6,0-.9,0-.3.3-.4.5-.2.4-.2.6-.2.6-.3.9,0,.1,0,.2.2,0,.2,0c.2,0,.3-.1.4-.3h0Z"/>
        <path class="st27" d="M10.7,106.8c.1,0,.2.1.3.2h0c0,0,0,0,.1,0s.1,0,.2,0c0,0,0,0,.1,0,0,0,0,0,.1,0,0,0,.1,0,.2-.1s0-.1,0-.2c-.2-.1-.3-.3-.5-.4s-.2,0-.2,0c0,0,0,0-.1,0,0,0,0,0-.1,0h0c0,0,0,.1,0,.2h0c0,0,0,.1,0,.1h0Z"/>
        <path class="st27" d="M12.4,105c.1-.2.3-.3.4-.4s0,0,0,0c0,0,0,0,0,0,0,0,0,0,0,0,0,0,0,0,.1,0,0,0,.2-.1.2-.2s0,0,0-.1,0,0-.1,0c-.2,0-.4,0-.5.1-.3.2-.7.5-.9.9s0,0,0,.1.1,0,.2,0c0,0,.2,0,.3,0s.1,0,.2-.1h0Z"/>
        <path class="st27" d="M12.3,102.1c-.2.2-.4.5-.6.6s0,0,0,.1.1,0,.2,0c.2,0,.3,0,.5-.2.2-.2.4-.4.6-.6s0,0,0-.1-.1,0-.2,0c0,0-.2,0-.3,0h0c0,0,0,0-.1.1h0Z"/>
        <path class="st27" d="M9.9,102.6c0,.1.2.2.3.2s.3.1.4.2.2,0,.2,0,.2,0,.3,0,.1,0,.1-.1,0,0,0-.1c-.1,0-.2,0-.3-.1s-.2,0-.3-.1h0c0,0,0,0-.1,0s-.1,0-.2,0c0,0-.2,0-.3,0s-.3.1-.2.2h0Z"/>
        <path class="st27" d="M12.8,100c-.2,0-.3.1-.5.2s-.2.1-.2.2,0,.1-.1.2h0s0,0,0,0c0,0,0,0,0,0,0,0,0,0,0,0,0,0-.2.1-.2.2s0,0,0,.1.1,0,.2,0c0,0,.2,0,.3,0s.1,0,.2-.1,0,0,0,0h0s0,0,0,0c0,0,0,0,0,0s0,0,0,0c0,0,.1,0,.2-.1,0,0,.1-.2.2-.3h0s0,0,0,0c0,0,0,0,0,0,0,0,0,0,0,0,0,0,0,0,0,0,0,0,0,0,0,0s0,0,0,0,.2,0,0,0c0,0,.2,0,.2-.1s0,0,0-.1,0,0-.1,0c0,0-.2,0-.3,0h0Z"/>
        <path class="st27" d="M10.3,99.9c.2.3.4.6.7.8s.1,0,.2,0,.2,0,.3,0,.1,0,.2-.2,0-.1,0-.2c-.2-.3-.5-.5-.7-.8s-.1,0-.2,0-.2,0-.3,0c-.1,0-.3.2-.2.3h0Z"/>
        <path class="st27" d="M12.4,98.5s0,0,0,0h0s0,0,0,0h0s0,0,0,0h0s0,0,0,0c0,0,0,0,0,0,0,0,0,0,0,0,0,0,0,0,0,0,0,0,0,0,0,0h0c0,0,.1,0,.2,0h0c0,0,0,0,.1-.1,0,0,0,0,0,0s0,0,0,0c0,0,0,0,0-.1,0,0,0,0,0,0,0,0,0,0,0,0,0,0,0,0-.1,0,0,0,0,0-.1,0h0c0,0,0,0-.1.1h0c0,0,0,.1,0,.1h0Z"/>
      </g>
      <g>
        <path class="st27" d="M27.6,115.8c-.8-1.1-1.5-2.4-2-3.7s-.4-1.3-.6-2-.1-.7-.2-1-.2-.9,0-1.2.4-.4.6-.7.3-.5.3-.8c0-.5-.1-.9-.6-1s-.7.3-.7.7-.2,1.1-.2,1.7.7.2.7,0c0-.4,0-.9.1-1.3s0-.3,0-.4c0-.2,0,0,0,0,0,.4,0,.6-.2,1s-.7.6-.7,1.2.1,1.1.2,1.7c.4,2.3,1.4,4.4,2.7,6.2s.8,0,.6-.3h0Z"/>
        <path class="st27" d="M24.5,108.8c-.2-.2-.3-.4-.5-.6s-.6-.3-.9-.3-.4,0-.5.2-.1.3,0,.4.3.3.5.4.3.2.4.3l.5-.4h0c-.2.2-.4.3-.6.4.3.2.5.3.8.5s.3,0,.5,0,.2-.2.1-.3,0,0,0,0c-.1,0-.4,0-.5,0s-.2.3,0,.4h0c.2-.2.4-.3.6-.4-.3-.2-.5-.3-.8-.5s-.3,0-.5,0-.2.2-.1.3,0,0,0,0c.1,0,.4,0,.5,0s.2-.3,0-.4-.3-.2-.4-.3-.2-.1-.2-.2,0,0,0,0c0,0,0,0,0,0,0,0,0,0,0,0,0,0,0,0,0,0,0,0,0,0,0,0,0,0,0,0,0,0,0,0,0,0,0,0,0,0,0,0,0,0,0,0,0,0,0,0,0,0,0,0-.1,0,0,0,0,0,0,0,0,0,0,0,0,0,0,0,0,0,0,0s.1,0,0,0c0,0,0,0,0,0s0,0,0,0c0,0,0,0,0,0,.1,0,.2.1.3.2s.2.2.3.3.3.1.5,0,.3-.2.2-.4h0Z"/>
        <path class="st27" d="M24.8,109s0,0,0,0,0,0,0,0c0,0,0,0,0,0,0,0,0-.1,0-.2s0,0,0,0,0,0,0,0c0,0,0,0,0,0,0,0,0-.1.1-.2s0,0,.1-.1,0,0,0,0c0,0,0,0,0,0,0,0,0,0,0,0s0,0,0,0,0,0,0,0,0,0,0,0,0,0,0,0c0,0,0,0,0,0s0,0,0,0c0,0,0,0,0,0,0,0,0,0,0,0h-.2c0-.2,0-.2-.1-.1,0,0,0,0,0,0,0,0,0,0,0,0,0,0,0,.1,0,.2,0,.1-.1.2-.2.3s-.1.2-.2.3,0,.1,0,.2,0,0,0,0c0,0,0,0,0,0,0,0,.2-.1.3-.1h.1c0,0,0,0,0,0-.1-.1-.3-.1-.5,0s-.3.2-.2.4c.2.2.6.1.7,0s.2-.3.2-.4c.1-.3.3-.5.4-.8s0-.1,0-.2c0-.1,0-.2-.2-.3-.2,0-.4,0-.6.1-.2.1-.5.3-.6.5s-.3.5-.4.8,0,.1,0,.2.2,0,.2,0c.2,0,.3-.1.4-.3h0Z"/>
        <path class="st27" d="M24.5,110.7c-.3-.1-.5-.3-.8-.4s-.1,0-.2,0c-.1,0-.3,0-.4,0-.2,0-.4.1-.5.3s0,.5.1.6.5.2.8.3c.4,0,.8,0,1.1-.1s.2,0,.3-.2,0-.1-.1-.1c-.1,0-.3,0-.4-.1s-.3-.1-.4-.2-.2,0-.2-.1,0,0,0,0c0,0,0,0,0,0,0,0,0,0,0,0,0,0,0,.1,0,0h-.1c0,.1,0,.1,0,.1h-.3c0,0-.2.1-.2,0,0,0,0,0,0,0,0,0,0,0,0,0,0,0,0,0,0,0,0,0,.2,0,.2,0,.1,0,.3.1.5.1s.4,0,.5-.2,0-.1-.2-.1c0,0,0,0,.1,0,0,0,0,0,0,0,0,0,0,0,0,0,0,0-.1,0-.2,0-.1,0-.2,0-.3-.1s0,0-.1,0c0,0,0,0-.2,0,0,0-.2,0-.3,0s-.2,0-.2.2,0,0,0,.1c0,0,.1,0,.2,0,.1,0,.3.1.4.2s.4.2.6.2l.2-.3s0,0,0,0c0,0,0,0,0,0s0,0-.2,0,0,0,0,0,0,0,0,0c0,0-.1,0-.2,0s0,0,0,0c0,0,0,0,0,0,0,0,0,0-.1,0,0,0-.1,0-.2,0-.1,0-.3-.1-.3-.3s0-.1,0-.2,0,0,0,0,0,0,0,0h0s0,0,0,0h-.2c0,0,0,0,0,0,0,0,0,0,0,0,0,0,0,0,.1,0,0,0,.2,0,.3.1.2,0,.3.2.5.2s.2,0,.2,0c0,0,.2,0,.3,0s.2-.1,0-.2h0Z"/>
        <path class="st27" d="M25.4,111.2c0-.3.2-.6.3-.9s0,0,0,0,0,0,0,0c0,0,0,0,0,0,0,0,0-.1,0-.2s0,0,0,0,0,0,0,0,0,0,0,0c0,0,0,0,0,0s0,0,0,0c0,0,0,0,0,0,0,0-.1,0-.2,0h-.1s0,0,0,0c0,0,0,0,0,0,0,0,0,0,0,.1,0,0,0,.2,0,.2s0,0,0,0,0,0,0,0c0,0,0,0,0,.1,0,0,0,.1-.1.2s0,.1-.1.2,0,0,0,.1,0,0,0,0,0,0,0,0c0,.1-.2.2-.3.4s0,.1,0,.2,0,.1.1.1c.2,0,.4,0,.5-.1.2-.2.4-.5.6-.7s.3-.5.3-.8,0-.4-.2-.5c-.2-.2-.6,0-.8.2s-.4.5-.5.8-.2.6-.3.9,0,.1,0,.1c0,0,.2,0,.2,0,.2,0,.3,0,.4-.3h0Z"/>
        <path class="st27" d="M25.7,112.6c-.4-.5-1.1-.5-1.6-.5s-1,.1-.9.6.5.4.8.5c.4.1.9.1,1.3,0s.4,0,.4-.2-.2-.1-.3-.1,0,0,0,0c0,0,0,0,0,0,0,0-.2,0-.2,0,0,0,0,0,0,0,0,0,0,0,0,0,0,0-.1,0-.2,0-.1,0-.2,0-.4,0s-.2,0-.3-.2,0,0,0-.1,0,0,0-.2,0,0,0,0c0,0-.1,0-.1,0,0,0,0,0,0,0,0,0,0,0,0,0,0,0,0,0,0,0s0,0,0,0c0,0,0,0,0,0,.2,0,.5,0,.6,0s.4.2.6.4.1,0,.2,0c0,0,.2,0,.3,0s.3-.1.2-.2h0Z"/>
        <path class="st27" d="M26.1,113.2c0-.3,0-.7.1-1s.1-.3.2-.5.2-.2.3-.4c-.4,0-.5,0-.4.1,0,0,0,0,0,0,0,0,0,0,0,.1,0,0,0,.2,0,.3,0,.2-.1.3-.2.5-.2.3-.3.6-.6.9s0,.1.2.1.2,0,.3,0,.1,0,.2-.1c.2-.3.4-.5.6-.9s.1-.3.2-.5.1-.3.1-.5-.2-.3-.4-.3c-.3,0-.5.1-.7.3s-.4.5-.5.8-.2.7-.2,1.1.7,0,.7-.2h0Z"/>
        <path class="st27" d="M26.2,114.5c-.3-.1-.7-.2-1-.3s-1,0-1.1.4.2.6.5.7.4,0,.5,0,.4,0,.5,0,.4,0,.6,0,.3,0,.4-.2,0-.2,0-.3-.4,0-.5,0-.2.2,0,.3v-.2s0,0,.1,0c.2,0,.2,0,.1,0h0s0,0-.1,0c0,0-.2,0-.2,0-.2,0-.3,0-.5,0s-.2,0-.2,0-.2,0-.2,0c0,0-.2,0-.2-.1s0,0,0-.1c0,0,0,0,0,0,0,0-.2.1-.2.1,0,0,0,0,0,0,0,0,0,0,0,0,0,0,0,0,0,0,0,0,0,0,0,0,0,0,.2,0,.2,0,.3,0,.5.1.8.2s.4,0,.5-.1,0-.2,0-.3h0Z"/>
        <path class="st27" d="M26.8,115.1c0-.4,0-.8.2-1.1s.3-.7.6-.9h-.1c0,0,0,.1-.1.1h-.3s0,0,0,0,0,0,0,0c0,0,0,0,0,.1,0,.1,0,.2,0,.4,0,.2,0,.4-.1.6-.1.4-.3.7-.5,1.1s.2,0,.3,0c.1,0,.3,0,.4-.2.2-.3.3-.6.5-.9s.2-.7.2-1,0-.3-.2-.4-.3,0-.5,0-.2.1-.3.2c-.2.3-.4.6-.6.9s-.2.8-.2,1.2.7,0,.7-.2h0Z"/>
        <path class="st27" d="M27,115.3c-.3,0-.6,0-.9,0s-.3,0-.4.1-.3.1-.4.3,0,.2,0,.3.1.1.2.2c.2,0,.5,0,.7,0,.3,0,.7,0,.9-.3s0,0,0-.1,0,0-.1,0c-.2,0-.4,0-.5.1s0,0,0,0c0,0,0,0,0,0s0,0,0,0,0,0,0,0,0,0,0,0,0,0,0,0,0,0,0,0c0,0,0,0,0,0,0,0,0,0,0,0,0,0,0,0,0,0s0,0,0,0,0,0,0,0,0,0,0,0c0,0,0,0,0,0,0,0,0,0,0,0s0,0,0,0,0,0,0,0c0,0,0,0,0,0s0,0-.1,0c0,0,0,0,0,0s0,0,0,0h0s0,0,0,0h0s0,0,0,0c0,0,0,0,0,0,0,0,0,0,0,0,0,0,0,0,0,0,0,0,0,0,0,0,0,0,0,0,0,0h0s0,0,0,0h0s0,0,0,0c0,0,0,0,.1,0s0,0,.2,0c0,0,0,0,0,0,0,0,0,0,0,0,0,0,0,0,0,0,0,0,0,0,0,0h0s0,0,0,0c0,0,0,0,0,0,0,0,0,0,0,0,0,0,0,0,0,0,.2,0,.4,0,.5-.1s0,0,0-.1,0,0-.1,0h0Z"/>
        <path class="st27" d="M23.6,112.9l1,.3c0,0,.2,0,.2,0,0,0,.2,0,.3,0,0,0,.2,0,.3-.1,0,0,.1,0,.2-.1,0,0,.2-.2.1-.3s-.2-.2-.3-.2l-1-.3c0,0-.2,0-.2,0,0,0-.2,0-.3,0,0,0-.2,0-.3.1,0,0-.1,0-.2.1,0,0-.2.2-.1.3s.2.2.3.2h0Z"/>
        <path class="st27" d="M24.3,115c.5.1,1,.2,1.6.3s.4,0,.5,0,.3-.1.5-.2.2-.2.1-.3-.2-.1-.3-.2c-.5,0-1-.2-1.6-.3s-.4,0-.5,0-.3.1-.5.2-.2.2-.1.3.2.1.3.2h0Z"/>
        <path class="st27" d="M27,115.1c.3-.2.5-.5.6-.8s.2-.5.3-.7h0c0,0,0,0,0,0,0,0,0,0,0-.2,0,0,0-.1,0-.1,0,0-.3-.1-.4-.1-.2,0-.4,0-.5.1h-.2c0,.1-.2.2-.2.3,0,.2-.2.4-.2.6s0,.3-.2.5h0s0,0-.1,0h0c0,0,0,0,0,0h.1c0,0,0,0,0,0,0,0-.2.2-.3.3s0,.2.1.3c.3.1.7,0,1-.1h0Z"/>
        <path class="st27" d="M26.7,115.3s0,0,0,0c0,0-.1,0-.2,0s0,0,0,0c0,0,0,0,0,0,0,0-.2,0-.2,0,0,0-.2,0-.3.1,0,0-.1,0-.2.1,0,0,0,.1-.1.2,0,0,0,.1,0,.2h0c0,.2.1.2.2.2h.2c.1,0,.2,0,.4,0h0c0,0-.1,0-.2,0,0,0,0,0,0,0h-.2s0,0,0,0c0,0,.2,0,.3,0,0,0,.2,0,.3,0,0,0,.2,0,.2-.1,0,0,.1,0,.1-.2h0c0-.2,0-.3,0-.3h0c0-.1-.2-.2-.3-.2h0Z"/>
        <path class="st27" d="M24.5,106.6s0,0,0,0h0s0,0,0,.1c0,0,0,0,0,0,0,0,0,0,0,0,0,0,0,0,0,0,0,0,0,0,.1,0,0,0,.2,0,.3,0h0c0,0,0,0,0-.1,0,0,0,0,0-.1s0,0,0-.1c0,0,0,0,0,0,0,0,0,0,0,0,0,0,0,0-.1,0,0,0,0,0-.1,0h0c0,0,0,0-.1.1h0c0,0,0,0,0,.1h0Z"/>
      </g>
      <g>
        <g>
          <path class="st27" d="M30,115.5c0-2.2.6-4.4,1.9-6.2s.7-.9,1-1.3.9-.6.9-1-.5-.4-.8-.3c-.4.2-.6.8-.8,1.2s.5.3.7,0,.3-.8.6-1h-.3c0,0-.3.4-.3.4-.2.1-.3.3-.4.4-.3.3-.5.6-.8.9-.5.7-.9,1.4-1.3,2.1-.7,1.5-1,3.1-1,4.7s.7.2.7,0h0Z"/>
          <path class="st27" d="M31.6,109.6c0-.5-.1-1-.5-1.4s-.1,0-.2-.1c-.1,0-.3-.1-.4,0s-.4.2-.4.4,0,.3,0,.4,0,.3,0,.4c0,.3.3.6.5.8s.3,0,.5,0,.3-.2.2-.3c-.2-.2-.3-.5-.4-.7s0-.3,0-.4,0-.1,0-.2,0,0,0,0,0,0,0,0c0,0,0,0,0,0,0,0,0,0,0,0h-.4c.1,0,.2.1.3.2s.2.2.2.3c.1.2.2.5.1.7s.2.2.3.2.4,0,.4-.3h0Z"/>
          <path class="st27" d="M31.6,109.9s0,0,0,0,0,0,0,0c0,0,0,0,0,0,0,0,.1-.1.2-.2s0,0,0,0,0,0,0,0,0,0,0,0c0,0,0,0,.1,0s0,0,0,0,0,0,0,0c0,0,0,0,0,0,0,0,0,0,0,0,0,0,0,0,.1,0,0,0,0,0,0,0,0,0,0,0,0,0,0,0,.1,0,0,0,0,0,0,0,0,0s0,0,0,0,0,0,0,0c0,0,0,0,0,0s0,0,0,0,0,0,0,0v-.2s0,0,0,0c0,0,0,0,0,0,0,0,0,0,0,0,0,0-.1,0-.2.1s-.1,0-.2.1,0,0,0,0,0,0-.1,0c0,0-.1,0-.2,0s-.1,0,0,0c0,0,0,0,0,0,0,0-.1,0-.2,0s0,0-.1,0c0,0,0,0,0,0-.1,0-.4,0-.4.3s.2.2.3.2c.7,0,1.4-.4,1.9-.9s0-.2,0-.2c-.3-.3-.8-.4-1.2-.3s-.8.4-1.1.7,0,.3,0,.3.4,0,.5-.1h0Z"/>
          <path class="st27" d="M30.8,110.9c-.1-.3-.3-.7-.4-1s-.3-.6-.7-.6-.8.2-.9.6.2.7.4.9.5.6.8.8.8-.1.5-.4-.5-.4-.7-.7-.2-.3-.3-.4,0-.1,0-.2,0,0,0-.1c0,0,0,0,0,0,0,0,0,0,0,0,0,0,0,0,0,0,0,0,0,0,0,0,0,0,0,0-.1,0,0,0,0,0,0,0,0,0,0,0,0,0,0,0,0,0,0,0,0,0,0,0,0,0,0,0,0,.1.1.2.2.3.3.6.4,1s.3.2.4.1.3-.2.3-.3h0Z"/>
          <path class="st27" d="M30.2,111.7c.8.2,1.6.1,2.3-.2s.3-.3.1-.4c-.6-.5-1.6-.4-2.2,0s-.2.3,0,.4.4,0,.5,0,0,0,0,0c0,0,0,0,0,0,0,0,0,0,.1,0,0,0,0,0,0,0s.1,0,.2,0c0,0,0,0,0,0,0,0,0,0,.1,0,0,0,0,0,0,0,0,0,0,0,0,0,0,0,0,0,0,0s0,0,0,0c0,0,0,0,0,0,0,0,.1,0,.2,0,0,0,0,0,0,0,0,0,0,0,0,0,0,0,0,0,0,0v-.4s0,0,0,.1-.1,0,0,0c0,0,0,0,0,0,0,0-.1,0-.2,0s-.1,0,0,0c0,0,0,0-.1,0-.3,0-.6,0-.8,0s-.4,0-.5.1,0,.3,0,.3h0Z"/>
          <path class="st27" d="M30.2,113c-.3-.5-.6-1.1-1.1-1.4s-.6-.1-.8,0-.1.2,0,.4.1.3.2.4.2.2.3.4c.2.3.5.5.8.6s.4,0,.5,0,.2-.2,0-.3c-.4-.2-.8-.6-1-1s-.1-.2-.1-.3,0,0,0,0c0,0,0,0,0,0,0,0,0,0,0,0-.2.3-.6,0-.4.2s0,0,0,0,0,0,0,0,0,0,0,0c0,0,0,0,.1.1,0,0,.2.2.2.3.2.2.3.5.4.7s.3.1.4,0,.2,0,.2-.1,0,0,0-.2h0Z"/>
          <path class="st27" d="M29.7,113.6c.7.2,1.4.1,2-.1s.3-.2.4-.3,0-.3-.1-.4c-.3-.2-.8-.2-1.1,0s-.7.3-1,.5-.3.2-.2.3.3,0,.5,0c.3-.1.6-.3.9-.4s.1,0,0,0c0,0,0,0,0,0,0,0,0,0,0,0,0,0,0,0,0,0,0,0,0,0,0,0,0,0,0,0,0,0,0,0,0,0,0,0,0,0,0,0,0,0,0,0,0,0,0,0,0,0,0,0,0,0,0,0,0,0,0,0,0,0,0,0,0,0s0,0-.1,0c0,0,0,0,0,0,0,0,0,0,0,0,0,0-.1,0-.2,0s0,0,0,0,0,0-.1,0,0,0-.1,0-.1,0,0,0c0,0-.2,0-.2,0s0,0,0,0c0,0,0,0,0,0,0,0,0,0,0,0,0,0-.2,0-.2,0-.2,0-.4,0-.5.1s0,.2,0,.3h0Z"/>
          <path class="st27" d="M29.7,115c-.1-.2-.3-.4-.4-.6s-.2-.2-.3-.3-.2-.1-.4-.1-.3,0-.4.1-.2,0-.2.2c0,.1,0,.2,0,.3.1.2.3.4.4.6s.4.4.6.5.1,0,.2,0c0,0,.2,0,.3,0s.3-.1.2-.2c-.3-.2-.5-.4-.7-.6s-.2-.2-.3-.4,0-.1-.1-.2,0,0,0-.1,0,0,0,0h0c0,0,0,0-.1,0h-.2c-.2,0-.2,0-.1,0,0,0,0,0,0,0,0,0,0,0,0,0,0,0,0,0,.1,0,0,0,.2.2.2.3.1.2.3.4.4.6s0,0,.1,0c0,0,.2,0,.3,0s.4-.1.3-.2h0Z"/>
          <path class="st27" d="M29.8,115.6c0-.1.1-.2.2-.3s0,0,0-.1,0,0,0,0,0,0,0,0c0,0,0,0,0,0,0,0,.1-.2.2-.2s0,0,0,0c0,0,0,0,0,0,0,0,0,0,0,0s0,0,0,0,0,0,0,0,0,0,0,0c0,0,0,0,0,0,0,0,0,0,0,0s0,0,0,0c0,0,0,0,0,0,0,0,0,0,0,0,0,0,0,0,0,0,0,0,0,0,0,0h0s0,0,0,0h0s0,0,0,0h0s0,0,0,0c0,0,0,0,0,0s0,0,0,0c0,0,0,0,0,0,0,0,0,0,0,0,0,0-.1.1-.2.2s0,0,0,0c0,0,0,0,0,0s0,0,0,0c0,0,0,0-.1.1s-.1,0-.2.1c0,0,0,0,0,0s0,0,0,0c0,0,0,0,0,0s0,0,0,0,0,0,0,0c0,0,0,0,0,0s-.1,0-.2,0-.2,0-.2.1,0,.1,0,.2c0,.2.3.1.4.1.3,0,.6-.2.9-.4s.4-.3.6-.5.2-.3,0-.5-.4-.1-.6,0c-.3,0-.6.3-.8.5s-.4.5-.5.8,0,.2.2.2.4,0,.5-.2h0Z"/>
        </g>
        <path class="st27" d="M30.6,111c0-.2-.1-.4-.2-.6s-.2-.4-.3-.6-.2-.2-.3-.2c-.2,0-.4,0-.6.2s0,.4.2.6.1,0,.2,0,.2,0,.3,0c.1,0,.3-.2.2-.3s-.1-.2-.2-.3h0s0,0,0,0h0c0,0,0,0,0,0-.1.2-.3.3-.5.2,0,0,0,0,0,0,0,0,0,0,0,0,0,0,0,0,0,.1h0c.2.3.3.6.4.9s.3.2.4.1.3-.2.3-.3h0Z"/>
        <path class="st27" d="M30.8,111.5c.3,0,.6,0,.9,0s.2,0,.2-.1,0-.1,0-.2c0-.2-.3-.2-.4-.2s-.1,0-.2,0h0c-.1,0-.2,0-.3,0h0s0,0-.1,0c0,0-.2,0-.3,0s-.1,0-.2.2,0,.1,0,.2.1,0,.2.1h0Z"/>
        <path class="st27" d="M30.5,114.6l-.5.2s0,0-.1,0c0,0,0,0,0,0,0,0,0,.1,0,.1s.1,0,.2,0c0,0,.2,0,.3,0l.5-.2s0,0,.1,0c0,0,0,0,0,0,0,0,0-.1,0-.1s-.1,0-.2,0c0,0-.2,0-.3,0h0Z"/>
        <path class="st27" d="M30.2,113.5c.4,0,.7,0,1-.2s.2,0,.3-.1.1,0,.2-.1.1,0,.1-.1,0,0,0,0c-.3,0-.5,0-.8,0s-.5.2-.7.3,0,0,0,0c.2,0,.5,0,.7,0s.2,0,.2,0,0,0,0,0,0,0-.1,0c0,0-.2,0-.3,0s0,0,0,0c0,0,0,0,.1,0,0,0,0,0,0,0h0s0,0,0,0c0,0,0,0,0,0s0,0,0,0c0,0,0,0,0,0h0c0,.1,0,0,0,0,0,0,0,0,0,0s0,0,0,0c0,0,0,0,0,0,0,0,0,0,0,0,0,0,0,0,0,0s0,0,0,0c0,0,0,0,0,0s0,0,0,0c0,0,0,0,0,0s0,0,0,0c0,0,0,0,0,0,0,0,0,0,0,0,0,0,0,0,0,0s0,0,0,0c0,0,0,0,0,0h0c0,0,0,0,0,0,0,0,0,0,0,0,0,0,0,0,0,0,0,0,0,0,0,0,0,0,0,0-.1,0,0,0-.2,0-.2.1s0,0,0,0,0,0,0,0c0,0,0,0,0,0,0,0,0,0,0,0,0,0,0,0,0,0,0,0,0,0,0,0h0s0,0,0,0h0s0,0,0,0c-.2,0-.3,0-.5,0s-.1,0-.1.1,0,0,0,0h0Z"/>
        <path class="st27" d="M31.5,110.2c.2,0,.4,0,.6-.1s.2,0,.3-.1.3,0,.3-.2,0-.2,0-.2-.2-.1-.3-.1c-.2,0-.4,0-.5,0s-.2,0-.3.1c-.2,0-.4.2-.5.4s0,0,0,0c0,0,0,0,0,0,.1,0,.3,0,.4,0,.3-.1.6-.3.8-.4s0,0,0-.1,0,0-.1,0c-.2,0-.4,0-.5.1s0,0-.1.1,0,0,0,0c0,0,0,0,0,0s0,0,0,0c0,0-.1,0-.2,0s0,0,0,0c0,0,0,0,0,0,0,0,0,0,0,0h.4c0,0,0,0,0,0,0,0,0,0,0,0,0,0,0,0,0,0,0,0,0,0,0,0,0,0,0,0,0,0s0,0,0,0,0,0,0,0c0,0,0,0,0,0-.1,0,0,0,0,0,0,0,0,0,0,0,0,0,0,0,0,0,0,0,0,0,0,0h0s0,0,0,0c0,0,0,0,0,0h0s0,0,0,0h0s0,0,0,0h0s0,0,0,0h0s0,0,0,0c0,0,0,0,0,0,0,0,0,0,0,0,0,0,0,0,0,0,0,0,0,0,0,0,0,0,0,0,0,0s-.2,0-.2,0,0,0-.1,0,0,0,0,0c0,0,0,0,0,0s-.2,0-.2,0-.2,0-.3,0-.1,0-.1.1c0,.1.2.1.3,0h0Z"/>
        <path class="st27" d="M32.9,107.8s0,0,0,0h0s0,0,0-.2,0,0,0,0,0,0,0,0,0,0,0,0c0,0,0,0,0,0,0,0,0-.1,0-.2s0,0,0,0c0,0,0,0,0,0s0,0,0,0c0,0,0,0,0,0s0,0,0,0c0,0,0,0,0,0s0,0,0,0,0,0,0,0,0,0,0,0c0,0,0,0,0,0,0,0,0,0,0,0,0,0,0,0,0,0,0,0,0,0,0,0,0,0,0,0,0,0,0,0,0,0,0,0,0,0,0,0,0,0s0,0,0,0c0,0,0,0,0,0,0,0,0,0,0,0h0s0,0,0,0h0s0,0,0,0h0c0,0,0,0,0,0,0,0,0,0,0,0,0,0,0,0,0,0,0,0,0,0,0,0,0,0,0,0,0,0,0,0,0,.1-.1.2s0,0-.1.1,0,0,0,0c0,0,0,0,0,0s0,0,0,0c-.2.2-.4.3-.6.4s-.2.3,0,.4.4,0,.5,0,.4-.2.6-.4.3-.3.5-.5.3-.3.2-.5-.3-.3-.5-.3c-.4,0-.8.2-1,.5s-.4.7-.3,1.1,0,.1.1.1.2,0,.3,0c.1,0,.3-.2.3-.3h0Z"/>
      </g>
    </g>
    <path class="st34" d="M37.5,24.5c.3,4.1,1.5,7.8,4.7,10.5,1.9-1.4,2.1-4.4,3.8-6,.1-.1.3-.3.3-.4,0-.1,0-.2-.2-.3-.6-.6-1.4-.8-2.2-1.1-2.3-.9-4.5-2.6-6.3-4.3v1.5Z"/>
    <path class="st10" d="M38.7,20.3c0-.7-.6-1-1.2-1.4-.1-.1-.5.4-.7.4-.2,0-.3.3-.4.5-.3.7-.6,1.4-.4,2.1s.9,1.3,1.6,1c.8,2.3,2.3,4.4,4.1,6,.8.7,1.9,1.4,3,1.1.7-.2,1.2-.7,1.6-1.2.4-.5.8-1,1.1-1.5.3-.6.4-1.2.6-1.9.3-1.4.6-2.9.9-4.3.2-1.2.4-2.5.4-3.7,0-.7-.2-1.5-.7-2.1-.5-.5-1.2-.7-1.9-.9-1.5-.4-3-.6-4.5-.7-1.1,0-2.2-.1-3.2.3s-1.9,1.3-1.9,2.4"/>
    <g>
      <path class="st21" d="M35,12.9c-.4.8-.5,1.3-.5,2,0,.9.2,1.9.4,2.8.3,1.2.6,2.5.8,3.7.2-.9.5-1.9,1.3-2.1.4-.1.9,0,1.2.4s.4.8.2,1.2c.6-.5,1.2-1,1.3-1.7.1-.9-.5-1.7-.6-2.5,0-.3,0-.7.4-.8.3-.1.6,0,.8.2,1.7,1,3.4,1.9,5.1,2.9.3.2.7.4,1.1.4s.8-.2.9-.5c0-.2,0-.5,0-.8s.2-.6.5-.5c.2,0,.3.1.4.3.4.4.9.7,1.5.8.2,0,.4,0,.5,0,.1,0,.2-.2.3-.3.4-1.1-.8-2.5-.2-3.5.2-.3.4-.5.6-.7.3-.6.1-1.3-.2-1.8-.5-.8-1.2-1.4-2-1.8-.9-.4-2-.5-3-.6-1.6-.1-3.3-.2-4.9,0s-3.2.8-4.5,1.7c0,0-1.1.7-1.5,1.4Z"/>
      <path class="st21" d="M34.7,13c-.6,1.3-.5,2.5-.3,3.9s.7,3.1,1,4.6.7,0,.7-.2c0-.5.2-1.1.5-1.5.9-1.1,1.8.3,1.5,1.1s.6,0,.7,0c.5-.4,1.1-.9,1.3-1.6s-.4-1.6-.5-2.4-.1-.8.3-.8,1.1.6,1.3.8l2.8,1.6c1,.6,2.2,1.5,3.4.9s.4-.3.5-.5,0-1,0-1c0,0,.6.5.7.6.3.2.8.4,1.2.4,1.1,0,1.4-.9,1.1-1.9s-.5-1.4-.3-2,1-1,.8-2c-.3-1.5-1.8-2.5-3.1-2.9s-3.6-.5-5.3-.4-3.5.3-5.1,1-2.6,1.3-3.2,2.4.6,0,.7-.1c.6-1.1,2.1-1.9,3.2-2.3,1.8-.7,3.7-.8,5.6-.7s3.5,0,5,1,1.1.9,1.5,1.6.2.5.3.8c0,.6-.2.9-.6,1.4-.7,1,0,2,0,3s0,.7-.2.8-.9-.4-1-.5c-.4-.3-.6-.7-1.2-.5s-.5.2-.6.5,0,.5,0,.7c-.3.9-1.1.3-1.6,0-1.6-.9-3.2-1.9-4.8-2.8s-1.7-.3-1.9.6.3,1.3.5,2c.2,1.1-.4,1.8-1.2,2.4h.7c.4-1.2-.6-2-1.7-1.8s-1.5,1.3-1.7,2.3l.7-.2c-.3-1.4-.7-2.9-1-4.3s-.4-2.8.2-4.1-.6,0-.7.1Z"/>
    </g>
    <path class="st19" d="M37.8,21c0-.1,0-.2-.1-.3s-.3,0-.5,0-.3.1-.4.2c-.2.2-.2.6,0,.8s.2,0,.3,0,.2,0,.4,0,.2,0,.3-.1,0,0,0,0-.1,0-.2,0c0,0-.2,0-.3,0s-.1,0-.2.1,0,0,0,0c0,0,.1,0,.2,0,0,0,.1,0,.2,0,0,0,0,0,0,0s0,0,0,0h0s0,0-.1,0h0c-.1-.1-.1-.3-.1-.5h0s0-.1,0-.2h0s0,0,0,0c0,0,0,0,0,0,0,0,0,0,0,0,0,0-.2,0-.3,0,0,0,0,0,0,0h0s0,0,0,0h0c0,0,0,.1,0,.2s.1,0,.1,0c0,0,.2,0,.3,0s.2,0,.2,0,0,0,0,0h0Z"/>
    <g>
      <path class="st22" d="M45.9,21.8c0,1,0,2,0,3.1s0,.5,0,.7,0,.2,0,.3-.1.4,0,.3c0,0-.3,0-.3,0,0,0-.2,0-.3-.1-.2-.1-.4-.2-.6-.4s-.5,0-.4.2c.4.3.8.6,1.4.7s.4,0,.5-.2.2-.6.2-.8c0-.6,0-1.2,0-1.8s0-1.3,0-2-.4,0-.4.1h0Z"/>
      <path class="st22" d="M45.1,27.7c-1,.2-2-.2-2.7-.9s-.5,0-.4.2c.8.9,2,1.2,3.2,1s.2,0,.2-.2-.2,0-.2,0h0Z"/>
    </g>
    <g>
      <path class="st6" d="M39,31c1.2.6,2.6.7,3.9.7.7,0,1.3,0,2,0,0,.5,0,1.1,0,1.6,0,.4,0,.9-.2,1.3-.2.6-.8,1.1-1.3,1.5-.5.4-1.1.7-1.7.7-.6,0-1.3-.4-1.7-.9s-.6-1.1-.8-1.7c-.3-.8-.5-1.6-.6-2.4"/>
      <path class="st6" d="M38.8,31.2c.9.4,1.8.6,2.8.7s2.1,0,3.2.1h-.1c0,.5,0,1.1,0,1.7s0,1-.3,1.4-.6.8-1,1-.9.7-1.4.6c-1,0-1.7-1.1-2-1.9s-.7-2.1-.9-3.1-.7,0-.7.2c.2,1,.5,2,.8,2.9s.7,1.6,1.5,2,1.7.2,2.4-.2,1.5-.9,1.9-1.7.3-.9.3-1.4,0-1.2,0-1.8-.1,0-.1,0c-1,0-2.1,0-3.1-.1s-1.9-.2-2.8-.7-.8.2-.6.3h0Z"/>
    </g>
    <g>
      <g>
        <path class="st7" d="M30.5,68.3c.4,2.2.8,4.3,1.2,6.5.6,3.3,1.2,6.6,1.4,9.9,0,.9,0,1.9,0,2.8,0,.4,0,.8-.2,1.2-.2.4-.5.7-.7,1-.9,1.3-.4,3.1.7,4.2s2.7,1.5,4.2,1.7c.7.1,1.4.2,2.1,0,.6-.2,1.2-.6,1.6-1.1,1-1,1.7-2.3,2-3.6.1-.4.2-.9,0-1.2-.2-.3-.6-.5-.8-.8-.2-.3-.2-.7-.2-1.1,0-5.8.2-11.6.3-17.4-3.7-.4-7.3-1.2-10.8-2.4"/>
        <path class="st7" d="M30.1,68.4c.9,4.6,1.9,9.2,2.4,13.8s.2,2.2.3,3.3.2,2.6-.5,3.7-1.2,2.5-.3,4c1.4,2.3,5.8,3.6,8.2,2.2s2.3-2.3,2.9-3.8.5-1.4.2-2-.4-.4-.5-.6c-.5-.7-.5-1.3-.5-2.1,0-5.5.2-11.1.3-16.6s0-.1-.1-.1c-3.7-.5-7.2-1.2-10.7-2.4s-.8.2-.6.3c2.1.7,4.2,1.3,6.3,1.7s2.1.4,3.2.6,1.1,0,1.2.8,0,1.6,0,2.2c0,4.8-.3,9.6-.2,14.4s.3,1.1.9,1.8,0,2.4-.6,3.3-1.5,2.2-2.9,2.5-3,0-4.3-.6c-2-.9-3.3-3.2-1.9-5.2s.7-1.2.8-2.2,0-2.1,0-3.1c-.3-5.4-1.6-10.7-2.6-16s-.7,0-.7.2h0Z"/>
      </g>
      <path class="st26" d="M39.9,89.6c-1.3.4-2.6.8-3.8,1.1s-2.2.8-3.2,1.5-.1.1,0,.1c1.3.2,2.6.4,3.9.5s.7,0,1,.1.3,0,.4,0,.4,0,.5,0c.1,0,.1,0,0,.2,0,0-.2,0-.2.1-.1,0-.2,0-.4.1-.3,0-.6,0-1,0s-.4,0-.5.1-.1.1,0,.2c.7,0,1.4,0,2.1-.3s.7-.3.7-.5-.5-.3-.7-.3c-1.8-.2-3.6-.5-5.3-.7h0c.9-.5,2-.9,3-1.2s2.3-.7,3.5-1,.3,0,.3-.2-.3,0-.4,0h0Z"/>
      <path class="st26" d="M54.5,84.4c-.9-.1-1.8,0-2.7.4s-.9.3-1.3.5-.7.3-.8.6.3.5.6.5c.5,0,1,0,1.5,0,1,0,2-.2,3-.3s.4,0,.4-.2-.2-.1-.3-.1c-.8,0-1.5.2-2.3.2s-.7,0-1.1,0-.4,0-.6,0-.4,0-.5,0c-.2-.3.4-.5.6-.6.3-.1.6-.3,1-.4.7-.2,1.4-.4,2.1-.3s.4,0,.5-.1,0-.2,0-.2h0Z"/>
      <g>
        <path class="st11" d="M32.9,93.8c.8,5,1.7,10,2.5,14.9.2.9.3,1.8.1,2.7s-3.5,1.8-3.5,1.8l.5,2.4s1.8,1,1.8,1.3c.8,0,5,0,5.5-.9.3-.5.6-1,.7-1.6.2-.7.2-4.1.2-4.8.1-5.2.3-10.4.4-15.5-1.2.8-2.7,1.2-4.2,1.1s-2.9-.5-4.2-1.2c0,0,0,.1,0,.1"/>
        <path class="st11" d="M32.5,93.9c.7,4.3,1.5,8.6,2.2,12.9s1.3,4.4-.1,5.3-1.8.8-2.6,1-.3,0-.3.2c.1.6.2,1.8.5,2.3s1.5.6,1.8,1.3,0,0,.1,0c1.6,0,3.3,0,4.9-.4s2-2,2.1-3.5c.4-6.3.4-12.7.5-19.1s-.6,0-.6,0c-2.4,1.6-5.3,1-7.8-.2s-.4,0-.5.1h0c0,0-.1.1,0,.2h0c.1.2.8,0,.6-.2h0c-.2,0-.4.1-.5.2,2.9,1.4,6.1,1.7,8.9,0h-.6c-.1,4.3-.2,8.6-.4,12.9s0,2.8-.1,4.2,0,2.2-.2,3.2-.5,1.5-1,1.8-1.4.3-2,.4-1.9.3-2.6,0-.8-.6-1.1-.8-.5-.3-.7-.5c-.3-.5-.4-1.6-.5-2.3l-.3.2c.9-.2,1.8-.5,2.6-1,1.4-.7,1.4-1.7,1.2-3.2-.8-5.2-1.7-10.3-2.6-15.5s-.7,0-.7.2h0Z"/>
      </g>
      <g>
        <path class="st11" d="M49.8,91.6c.6,3.3,1.6,6.2,2.2,9.5.3,1.6.6,3.1.7,4.7,0,1.3,0,2.6-.3,3.9,0,.4-.1.8,0,1.1.1.2.3.3.4.4,1.9,1.2,4,2,6.2,2.4.6,0,1.2.1,1.6-.3.4-.4.3-1.1,0-1.6s-.8-.9-1.2-1.3c-.8-.8-1.3-1.7-1.8-2.7-.4-.7-.8-1.5-1-2.3-.2-.8-.2-1.7,0-2.6.2-1.9.6-3.8.9-5.7.3-1.5.6-3.4.9-4.5-2.9-.3-8.8-1.1-8.8-1.1Z"/>
        <path class="st11" d="M49.4,91.7c.7,3.8,2,7.6,2.6,11.4s.4,3.9.2,5.9-.4,1.4,0,2,1.1.9,1.6,1.2c1.4.8,2.9,1.3,4.5,1.6s2.3.5,2.9-.6-.8-2.3-1.5-3.1c-1.1-1.2-2.2-3-2.5-4.6s.2-4.7.6-6.8.7-4,1.2-5.9-.1-.2-.2-.2c-2.9-.3-5.8-.7-8.8-1.1s-.7.4-.2.5c2.9.4,5.8.8,8.8,1.1l-.2-.2c-.5,1.9-.8,3.8-1.1,5.7s-.9,4.3-.7,6.4,1,3.1,1.9,4.4,1.2,1.4,1.8,2.2,1.3,1.8-.5,2.1-1.2-.2-1.7-.3c-1-.2-1.9-.6-2.8-1s-1.1-.5-1.6-.8c-.7-.5-.8-.7-.7-1.5.2-1.9.4-3.7.1-5.6-.6-4.3-2-8.4-2.8-12.6s-.8-.1-.7.2Z"/>
      </g>
    </g>
    <g>
      <path class="st7" d="M44.1,71.5l3.6,8.1c.6,1.4,1.2,2.8,1.7,4.2.3.9.6,1.9.2,2.7l1.2.9c-.4.7-.9,1.4-1,2.2s0,1.7.7,2.2c.3.2.7.3,1.1.4,1.8.4,3.6.7,5.4.9.8,0,1.6,0,2.2-.4.8-.7.8-1.9.6-3-.7-5-1.6-9.9-2.5-14.8-.4-2.2-.8-4.4-1.6-6.5,0-.2-.2-.5-.4-.5-.2,0-.3,0-.5,0-3.1.9-6.2,1.9-9.3,2.8"/>
      <path class="st7" d="M43.8,71.6c1.1,2.6,2.2,5.1,3.4,7.7s1,2.3,1.4,3.4,1.1,2.6.7,4c0,0,0,0,0,0,.4.3,1,.6.9,1.2s-.4.7-.5.9c-.3.6-.5,1.4-.3,2.1.4,1.6,2.2,1.7,3.5,2s6.5,1.7,7.2-1.1-.2-3.4-.4-4.9c-.3-2.2-.7-4.3-1.1-6.4s-.7-4.1-1.1-6.1-.6-4.1-1.5-5.8-2.3-.3-3.4,0c-2.4.7-4.8,1.4-7.2,2.2s-.3.5,0,.3c1.9-.6,3.9-1.2,5.8-1.7s1.9-.6,2.8-.8.9-.3,1.3.4.3.9.4,1.3c1.1,3.6,1.6,7.5,2.2,11.2s.7,3.8,1,5.7,1,3.7.3,5.1-2.8.9-4,.7-1.8-.3-2.7-.5-2.4-.4-2.6-1.8.5-2.1,1-3,0-.1,0-.1c-.7-.6-.9-.8-1-1.7s-.1-1.2-.3-1.8c-.4-1.4-1-2.7-1.6-4-1.2-2.9-2.5-5.7-3.8-8.6s-.8,0-.7.2h0Z"/>
    </g>
    <g>
      <path class="st18" d="M37.4,23.9l-3.3-.4c-.3,0-.6,0-.8,0-.2.2-.3.5-.4.7-.4,1.2-1.4,2.1-2,3.2-.4.7-.6,1.5-1,2.1-1.1,1.4-3.2,1.6-4.6,2.9-.9.8-1.3,2.1-1.7,3.2-.9,2.7-1.7,5.4-2.2,8.1-.2,1-.3,2.1-.6,3.1-.4,1.4-1.2,2.6-1.6,4s-.3,3,.7,4c.7.6,1.6.8,2.4,1.1,1.3.5,2.6,1.1,3.8,1.8-.1.9,1.1,1.6,1.8,1.1,0,3,0,6.1,0,9.1,0,.2,0,.4.1.6.1.2.3.2.5.3,5.5,1.9,11.2,3.8,17,3.3,4-.4,7.9-2,11.6-3.6.3-.1.6-.3.7-.6,0-.2,0-.5-.1-.7-1-2.5-1.9-5.2-1.5-7.8,1,0,2,0,3,0,.2-1,.2-2,0-3,0-.3,0-.6-.3-.8-.2-.2-.4-.2-.6-.4-.4-.3-.4-1-.2-1.5s.6-.9.8-1.4c.5-1.3-.4-2.8.1-4,.1-.3.3-.6.4-1,.1-.5,0-1-.2-1.4-1.5-4.4-3.1-8.7-4.6-13.1-.1-.4-.3-.8-.5-1-.9-.9-2.5-.1-3.7-.7-.6-.3-.9-.9-1.3-1.4-.6-1-1.1-2-1.6-3-.5,1.4-1.1,3.1-2.6,3.5-.5.1-1.5,5.5-2.7,5.5-.3,0-2.9-5.3-3.2-5.5-.3-.2-.4-.5-.5-.8-.6-1.8-1.1-5.4-1.1-5.4Z"/>
      <path class="st18" d="M37.6,23.7c-1.1-.1-2.2-.3-3.3-.4s-.8,0-1.2.2-.5.8-.7,1.2c-.4.8-1,1.4-1.4,2.2s-.7,1.6-1.2,2.4-1.6,1.4-2.6,1.9-2.4,1.2-3.1,2.5-1.4,3.8-1.9,5.7-1,4.2-1.4,6.3-4.1,7.3-.9,9.6,4.7,1.1,6,3.1,1.5,1,2.3.5h-.5c0,2.6,0,5.2,0,7.7s-.3,1.7.3,2.2,2.2.8,3,1.1c4.2,1.4,8.6,2.6,13.1,2.4s8.2-1.6,12-3.2,1.6-.5,2-1,0-1.3-.3-1.9c-.9-2.2-1.4-4.6-1.2-7l-.6.2c1,0,2,0,3,0s.5,0,.6-.2c.1-1,.5-3-.2-3.8s-.8-.3-.9-.8,0-.9.3-1.3c.3-.6.7-1.1.7-1.8s-.2-1.5-.2-2.2.4-1.3.6-2.1-.3-1.6-.6-2.4-.7-1.9-1-2.8c-.7-1.9-1.3-3.7-2-5.6s-.7-1.9-1-2.8-.4-1.5-.9-2c-.8-.8-2.1-.3-3.1-.6-1.7-.4-2.7-3.1-3.4-4.6s-.6,0-.7.2c-.2.7-.5,1.4-.8,2s-.8.7-1.5,1.4-.1,0-.2,0c-.4.4-.5,1-.7,1.5-.3,1-.6,2.1-1.1,3s-.2.5-.4.6c-.2.2,0,.1,0,0-.2,0-.5-.8-.6-1-.8-1.4-1.5-3-2.4-4.4s-1.3-4.2-1.6-6.2-.7,0-.7.2c.3,2.2.5,4.7,1.8,6.6s1.1,2,1.6,2.9.8,1.9,1.3,2.2c1.4.8,2.3-2.5,2.5-3.2s.3-1,.5-1.6.3-.7.9-1c1.2-.8,1.7-2.1,2.1-3.4l-.7.2c.7,1.3,1.3,3,2.3,4s2,.6,3.1.7c1.9.2,2.3,3.2,2.8,4.7s1.3,3.7,2,5.6.7,1.9,1,2.8.7,1.5.7,2.3-.5,1.4-.6,2.2,0,1.3.1,1.9c0,1.1-.2,1.6-.7,2.5s-.5,1.1-.2,1.7,1,.5,1.1,1.3,0,2,0,3l.6-.2c-1,0-2,0-3,0s-.5,0-.6.2c-.2,1.9,0,3.7.7,5.5s.3,1,.5,1.5.5.9.5,1.2c-.2.6-1.2,1.1-1.7,1.3s-.8.3-1.3.5c-3.9,1.6-8,2.8-12.3,2.5s-7.9-1.4-11.7-2.7-2.1-.5-2.4-1.5,0-2,0-2.9c0-2.1,0-4.2,0-6.3s-.5,0-.5,0c-.7.4-1.3-.5-1.3-1.1h0c-.8-.5-1.7-.9-2.6-1.3s-2.1-.6-3.1-1.2c-1.9-1.1-1.7-3.4-1-5.2s.9-1.8,1.2-2.8.5-2,.7-3c.4-2.2.9-4.3,1.6-6.3s1-4.1,2.4-5.4,2.9-1.3,4.1-2.4.9-1.2,1.2-1.9.8-1.5,1.4-2.3.7-1.7,1.3-2.1,2.7.1,3.6.2.8-.3.4-.3Z"/>
    </g>
    <path class="st34" d="M33.5,50.4l-.9,3.2c0,0,0,.2,0,.2,0,.1.2.2.4.2,1,0,1.9,0,2.9,0,0,0,.2,0,.2,0,0,0,.1-.2.2-.3.3-1,.5-2,.6-3-1.2-.1-2.4-.2-3.6-.2"/>
    <g>
      <path class="st12" d="M29.3,30.4c.9.4,1.6,1,2.4,1.4s1.7.7,2.6,1c2.1.7,4.2,1.4,6.3,2.2s1,.4,1.1.9.1,1,.1,1.4c0,1.1.1,2.1.2,3.2.1,2.3.2,4.7.3,7s.7.2.7,0c0-2.3-.2-4.5-.3-6.8s-.1-2.3-.2-3.5,0-1.7-.7-2.2-1.7-.7-2.5-1c-1.1-.4-2.2-.8-3.4-1.2s-2.2-.8-3.3-1.2-1.9-1.1-2.9-1.6-.9.2-.5.4h0Z"/>
      <path class="st12" d="M42.4,48.6v.8c0,0,0,.1,0,.2s.2,0,.2,0,.2,0,.3,0,.1-.1.1-.2v-.8c0,0,0-.1,0-.2s-.2,0-.2,0-.2,0-.3,0-.1.1-.1.2h0Z"/>
      <path class="st12" d="M42.6,36.1c2.1-1.8,4.5-3.2,7-4.5s.2-.2,0-.3-.4,0-.5,0c-2.5,1.4-5,2.7-7.1,4.6s0,.2,0,.3.4,0,.5-.1h0Z"/>
      <path class="st12" d="M53,34.8c0,.7.1,1.3.2,2s.3,0,.4,0,.3,0,.3-.2c-.1-.6-.2-1.3-.2-2s-.7,0-.7.2h0Z"/>
      <path class="st12" d="M53.1,38.2c-.2,4.1,0,8.2.7,12.2s.7,0,.7-.2c-.6-4-.9-8.1-.7-12.2s-.7,0-.7.2h0Z"/>
      <path class="st12" d="M54.9,47c.9,0,1.9,0,2.8,0l-.2-.3c-.8,1-1.6,1.9-2.5,2.8s0,.2,0,.3.4,0,.5-.1c.9-.9,1.7-1.8,2.5-2.8s0-.3-.2-.3c-.9,0-1.8,0-2.6,0s-.4,0-.5.2,0,.2.2.2h0Z"/>
      <path class="st12" d="M54.8,54.8c-.2,1.1-.1,2.2.2,3.2s.4,1,.7,1.4.3.4.5.6.4.2.7.2.6,0,.9,0,.5,0,.7-.1c.5-.3.2-.9.2-1.4-.2-1.3-.3-2.6-.3-3.9s0-.5-.1-.7-.5-.1-.8-.1c-.7,0-1.4.3-2.1.1s-.4,0-.5.1,0,.3,0,.3c.5.1.9.1,1.4,0s.5,0,.7-.1.2,0,.4,0,.1,0,.2,0c0,.2,0,.5,0,.7s0,.6,0,.8c0,.5,0,1,0,1.5s.1,1,.2,1.5,0,.3,0,.4,0,0,0,.1c0,0,0,0,0,0-.2,0-.5,0-.7,0s-.5,0-.7,0-.3-.4-.4-.6c-.2-.4-.4-.8-.6-1.2-.3-1-.4-2-.2-3.1s-.6-.2-.7,0h0Z"/>
      <g>
        <path class="st18" d="M28.8,49.4c-1.2,2.2-2,4.6-2.7,7-.2.6-.3,1.5.2,1.9.3.3.7.3,1,.4,1.2.2,2.5.4,3.7.5.1,0,.3,0,.4,0,0,0,0-.2.1-.2.8-3,1.4-6,1.8-9,0-.1,0-.3,0-.4,0,0-.2,0-.3,0-1.3-.1-2.6-.2-3.9-.1"/>
        <path class="st12" d="M28.5,49.3c-1,1.8-1.7,3.8-2.3,5.8s-.7,1.8-.5,2.6,1,1,1.7,1.1c1.1.2,2.2.3,3.4.4s.6,0,.9-.1.3-.8.4-1.1c.5-2.2,1-4.4,1.4-6.6s.3-1.3.3-1.8-.4-.5-.8-.5c-1.3-.1-2.5-.1-3.8,0s-.6.5,0,.4c1,0,1.9,0,2.9,0s.5,0,.7,0,.3,0,.4.2,0,.2,0,.3c0,.5-.1,1-.2,1.4-.3,1.8-.7,3.6-1.1,5.4s-.2.8-.3,1.2-.1.4-.2.7,0,.2,0,.2c0,0-.3,0-.4,0-.9,0-1.7-.2-2.6-.3s-1.9-.2-1.9-1.3.3-1.5.5-2.2c.6-1.9,1.3-3.8,2.3-5.6s-.5-.3-.7,0h0Z"/>
      </g>
      <path class="st12" d="M28.4,38.9c0,.2,0,.3,0,.5h0c0,.1,0,.4,0,.6s.2.3.3.2.4-.1.4-.3c0-.4,0-.8,0-1.2s-.3-.2-.4-.2-.3.2-.3.3h0Z"/>
      <path class="st12" d="M28.3,42.1c-.3,1.1-.5,2.3,0,3.3s.4.4.4.6,0,.6,0,.9c0,.7-.1,1.3-.2,2s.7.3.7,0c0-.7.1-1.3.2-2s0-.6,0-.8-.1-.4-.3-.6c-.8-1-.5-2.2-.2-3.4s-.6-.3-.7,0h0Z"/>
      <path class="st12" d="M29.1,48c-.3-.5-.8-.7-1.3-.9s-1-.5-1.5-.9c-1-.6-1.9-1.4-3.1-1.6v.4c-.2,0-.3,0-.3,0,.1.3.8,0,.7-.2s-.4-.3-.6-.2-.5.4-.1.4c1.1.3,2,.9,2.9,1.6s.9.6,1.4.8,1,.4,1.3.9.8,0,.6-.3h0Z"/>
      <path class="st12" d="M22.4,48.4c2,.2,4,.5,5.9,1s.4,0,.5-.1,0-.2,0-.2c-2-.5-4-.8-6.1-1s-.7.3-.3.4h0Z"/>
    </g>
    <g>
      <path class="st3" d="M36.8,50.4c-.4,1.2-.7,2.4-.9,3.6.7.4,1.5.6,2.3.7,0,0,.1,0,.2,0,0,0,0-.1,0-.2,0-.3.2-.7.3-1,0,0,0-.2,0-.2,0,0-.1,0-.2,0-.2,0-.3-.2-.3-.3s0-.4,0-.5c.2-.6.6-1.2,1.1-1.7-.8-.1-1.5-.2-2.3-.2"/>
      <path class="st29" d="M36.4,50.5c-.4,1.2-.7,2.4-.9,3.6s0,0,0,.1c.6.3,1.3.5,2,.6s.7.1,1-.1.2-.2.2-.3,0-.4.1-.6.3-.7,0-.8-.3,0-.4-.2,0-.4,0-.5c.2-.6.6-1.2,1.1-1.7s0-.2-.1-.2c-.8-.1-1.6-.2-2.4-.2s-.4,0-.5.2,0,.2.2.2c.8,0,1.5.1,2.3.2v-.2c-.5.4-.8.9-1.1,1.4s-.3.6-.2.9.2.4.5.4.1,0,.1,0,0,.2,0,.2c0,.2,0,.3-.1.5s0,.2,0,.2,0,.2,0,.2c.3,0,.3,0,.2,0h0c0,0-.1,0-.2,0-.6,0-1.2-.3-1.8-.6h0c.2-1.1.5-2.3.9-3.5s-.6-.1-.7.1h0Z"/>
    </g>
    <g>
      <path class="st22" d="M39.1,54.6l6.8-2.9c.8-.3,1.6-.7,2.4-.8.7,0,10-.3,14-.8-.7,1.1-1.4,2.1-2.2,3.2-.2.3-.4.6-.7.7-.3.2-.6.2-1,.2-1.6.2-19.3.3-19.3.3Z"/>
      <path class="st22" d="M39.2,54.8l4.3-1.8c1.4-.6,2.9-1.4,4.4-1.8s2.3-.1,3.4-.2c3.6-.1,7.3-.2,10.9-.6l-.3-.3c-.9,1.5-2,3.8-3.9,4s-1.3,0-1.9,0c-2.3,0-4.5,0-6.8.1-3.4,0-6.9,0-10.3,0s-.5.5,0,.5c6.2,0,12.4,0,18.6-.2s1.3,0,1.9-.3,1-1,1.4-1.5c.6-.8,1.2-1.7,1.7-2.5s-.2-.3-.3-.3c-3.8.4-7.6.5-11.4.6s-2.3,0-3.3.3-2.7,1-4,1.6l-4.7,2c-.4.2,0,.5.3.4Z"/>
    </g>
    <g>
      <path class="st18" d="M41.2,54.2c1.6-.8,7.2-3.1,7.2-3.1,0,0,10.1-.3,13.3-.5-.5.6-2.9,3-3.6,3.2-.3,0-16.9.4-16.9.4Z"/>
      <path class="st18" d="M41.3,54.4c1.8-.9,3.8-1.7,5.7-2.5s1-.5,1.5-.6c-.4,0,0,0,.2,0,.3,0,.5,0,.8,0,4.1-.1,8.2-.3,12.2-.5l-.3-.4c-.7.7-1.4,1.4-2.1,2.1s-1,.9-1.4,1c-1,.2-2.2,0-3.2,0-3.6,0-7.2.2-10.7.2s-1.8,0-2.8,0-.5.5,0,.5c2.6,0,5.3-.1,7.9-.2s3.8,0,5.6-.1,2.2,0,3.2-.1,1.1-.6,1.6-1c.8-.7,1.6-1.6,2.4-2.4s0-.4-.3-.4c-4.1.2-8.3.3-12.4.5s-1.6.3-2.5.7c-1.9.8-3.9,1.6-5.7,2.5s0,.6.3.4Z"/>
    </g>
    <g>
      <path class="st3" d="M59.4,59.4c0-1.4.2-2.8.4-4.2-.3,0,.3-.2.9-.2.4,0,.9,0,1.3-.3.5-.4.6-1.1.6-1.7,0,.4,2.5-1.2,3-1.6s0-1-.2-1.7c0,0,0-.2-.1-.2,0,0-.2,0-.2,0-.9,0-1.7,0-2.6,0,.2.3.6.6,1,.6-.6-.1-1.3,0-1.8.4.4.3.9.6,1.4.7-.7-.2-1.4-.1-2.1,0,.4.3.9.5,1.4.6-.8-.2-1.9-.5-2.3,0-.4.8,1.6,1,1.2,1.4s-1.5,1.3-1.9,1.5c-.4.1-.5.2-.6.2,0,0,.2,4.7.2,4.7,0,0,.5,0,.7,0"/>
      <path class="st29" d="M59.7,59.3c0-1.4.2-2.8.4-4.2s0,0-.1-.1h0s0,0,.1,0h0s0,0,0,.1c0,0,.5,0,.6,0s.4,0,.6,0c.3,0,.7-.1,1-.3.6-.4.7-1.2.7-1.9l-.7.2c.3.7,2.9-1.2,3.2-1.4s.5-.3.6-.5c.3-.5,0-1-.2-1.5s-.1-.4-.3-.5-.5,0-.7,0c-.7,0-1.5,0-2.2,0s-.6.1-.5.3c.3.4.6.6,1,.7l.5-.3c-.8-.1-1.6,0-2.3.5s-.2.1-.1.2c.4.4.9.6,1.4.7l.5-.3c-.8-.2-1.6-.1-2.4,0s-.4.2-.3.3c.5.3,1,.5,1.5.6s.7-.2.5-.3c-.6-.2-1.3-.4-1.9-.3s-1,.2-1.1.6.4.6.7.8.4.1.5.2c.2.2,0,.2-.1.4-.4.4-1,.9-1.5,1.1s-.7.1-.8.5,0,.6,0,.8c0,.5,0,1,0,1.5,0,.8,0,1.6,0,2.4s0,0,.1,0c.3,0,.5,0,.8,0s.7-.4.3-.3-.4,0-.6,0h.1c0-1.3-.1-2.7-.2-4.1s0-.5,0-.5c0,0,.2,0,.3,0,.1,0,.2,0,.3-.1.2-.1.4-.3.6-.4.4-.3.9-.6,1.2-1s.1-.3-.1-.5-.8-.3-1-.6.3-.4.5-.3c.4,0,.8.2,1.2.3l.5-.3c-.5,0-.9-.3-1.3-.5l-.3.3c.6-.1,1.2-.1,1.9,0s.7-.3.5-.3c-.5-.1-.9-.3-1.3-.7v.2c.3-.3.8-.4,1.3-.3s.7-.3.5-.3c-.4,0-.7-.3-.9-.6l-.5.3c.5,0,1,0,1.5,0s.4,0,.6,0c.4,0,.6,0,.8.4s.3.7.3,1-.2.5-.4.6c-.4.3-.8.6-1.2.8s-.4.2-.6.4-.2,0-.3.1c-.2.2,0,0,0,0,0-.2-.7,0-.7.2,0,.3,0,.7-.1,1-.2.5-.5.7-1.1.7s-1.1,0-1.5.3,0,0,0,.1c0,0,.1,0,.2,0h-.1c-.2,1.3-.4,2.7-.4,4.2s.7,0,.7-.2h0Z"/>
    </g>
    <g>
      <path class="st3" d="M38.9,51c2.3,0,4.5-.9,6.8-.7,1,0,2,.4,3,.7.9.3,1.8.5,2.6.8.2,0,.5.3.4.5,0,.2-.3.1-.5,0-1.4-.5-2.8-.9-4.2-1.4,1.3.3,2.7.6,3.6,1.6-1.5-.1-3-.3-4.4-.7,1.1,0,2.2.3,3.2.8-3.3.7-6.8.6-10.2.5-.2,0-.5,0-.6-.2-.2-.1-.2-.3-.3-.5,0-.5.2-1.1.6-1.4"/>
      <path class="st29" d="M38.8,51.1c1.3,0,2.6-.3,3.8-.5s3-.3,4.5,0,1.4.4,2.1.6,2.1.5,2.1.7-1.7-.5-1.8-.5c-.7-.2-1.5-.5-2.2-.7l-.5.3c1.3.3,2.6.5,3.5,1.6l.5-.3c-1.5-.1-3-.4-4.4-.7l-.4.4c1.1,0,2.1.3,3,.8l.2-.3c-2,.4-4.1.6-6.1.6s-1.9,0-2.8,0-1.4.2-1.7-.4.1-1.1.5-1.4-.4-.2-.5,0c-.5.4-1.1,1.6-.4,2.1s.9.2,1.3.2c.7,0,1.4,0,2,0,2.6,0,5.2,0,7.8-.6s.5-.2.2-.3c-1-.5-2.2-.8-3.3-.8s-.7.3-.4.4c1.5.4,2.9.6,4.4.7s.7-.1.5-.3c-.9-1.1-2.4-1.4-3.7-1.6s-.8.2-.5.3c1,.3,1.9.6,2.9.9s1.3.6,1.9.5.8-.3.5-.7-.6-.3-.9-.4c-.5-.1-1-.3-1.4-.4-1.7-.5-3.3-1-5-.9s-3.7.7-5.6.7-.7.4-.3.4h0Z"/>
    </g>
  </g>
  <g>
    <path class="st12" d="M37.1,23.9c-1.1-.2-2.2-.4-3.4-.6,0,0-.1,0-.2,0,0,0,0,.2,0,.2.4.7,1,1.2,1.5,1.8.6.6,1.2,1.2,1.8,1.8.8.8,1.4,1.5,2,2.4-.6-1.6-1.1-3.2-1.4-4.9,0-.3,0-.6-.2-.9"/>
    <path class="st12" d="M37.3,23.7c-.6-.1-1.2-.2-1.7-.3s-1.1-.2-1.7-.3-.8.1-.6.6.6.8.9,1.2c.8.8,1.6,1.6,2.4,2.4s1.5,1.6,2.1,2.5.8,0,.7-.2c-.3-.9-.7-1.9-.9-2.9s-.3-.9-.3-1.4-.1-1-.3-1.5-.8,0-.7.2c.2.5.2,1,.3,1.5s.2,1,.3,1.4c.3,1,.6,1.9.9,2.9l.7-.2c-.8-1.1-1.7-2.1-2.7-3.1s-1-1-1.5-1.5-.4-.5-.7-.7-.7-.7-.6-.9v.2c-.1,0,0,0,0,0h-.3c.2,0,.6.2.8.2s.6,0,.8.1c.6.1,1.1.2,1.7.3s.4,0,.5-.1,0-.2,0-.3h0Z"/>
  </g>
  <g class="st15">
    <g>
      <path class="st11" d="M108,109.9c1.2-1.5,1.9-3.4,1.9-5.3,1.9.1,3.9.3,5.3,1.6.6.6,1,1.3,1.4,2,.6,1.1,1.3,2.2,1.9,3.3.2.3.3.6.3.9,0,.4-.3.8-.6,1.1-1.1,1.4-2.5,2.8-4.3,2.9,1-1.5,1.5-3.2,1.7-4.9,0-.3,0-.6-.2-.7-.1-.1-.4-.2-.6-.2-2.1-.2-4.9-.5-7-.7"/>
      <path class="st11" d="M108.3,110c1.2-1.6,1.9-3.5,1.9-5.5l-.5.3c1.4.1,2.9.2,4.2.9s2.2,2.3,3,3.7.8,1.4,1.3,2.1.5.8.2,1.3-.5.7-.7.9c-.9,1.1-2.1,2.2-3.6,2.4l.3.4c.7-1,1.1-2.1,1.4-3.3s.7-2.5-.3-2.9-1.1-.1-1.6-.2-1.3-.1-1.9-.2c-1.3-.1-2.6-.3-3.9-.4s-.7.5-.2.6c2.1.2,4.2.5,6.3.6s.5,0,.7,0c.4.1.5.3.5.7s-.1,1.1-.2,1.6c-.3,1.1-.7,2.2-1.4,3.2s0,.4.3.4c1.6-.1,2.8-1.1,3.9-2.3s1.2-1.2,1.3-1.9-.7-1.8-1.1-2.5c-.9-1.6-1.8-3.5-3.3-4.6s-3.2-1.1-4.8-1.2-.5,0-.5.3c0,1.9-.6,3.7-1.8,5.2s.4.5.6.2h0Z"/>
    </g>
    <path class="st22" d="M114.2,116.8c1.2-.3,2.2-1.1,3.1-1.9s.9-.8,1.3-1.3.5-1.1.7-1.7-.6-.4-.7,0c-.2.5-.4,1-.6,1.5s-.7.9-1.2,1.2c-.8.7-1.7,1.4-2.8,1.7s-.3.2-.3.4.3.2.4.2h0Z"/>
    <path class="st34" d="M102.9,73.2c.1,1.5-2,2-1.5,3.4.1.3,2.7,1.7,3,1.8.3,0,.6-.2.9-.5.8-.9,1.6-1.8,2.1-2.9s.7-2.3.4-3.5c0-.1,0-.3-.2-.4-.2-.2-.6,0-.9.1-1.3.7-2.6,1.4-3.9,2.2"/>
    <g>
      <path class="st11" d="M93.4,100.3c1.9,2.3,3,5.1,4,7.9.3.8.6,1.7,0,2.4-.2.3-.6.5-.9.7-1.5.8-3.1,1.6-4.6,2.4.4.9,1.6,1.1,2.7,1.2,2.7.1,5.4.2,8.1.3.5,0,1.2,0,1.5-.4.3-.4.2-1,.1-1.5-.2-1.1-.5-2.2-.7-3.3,0-.3-.1-.6-.3-.8-.2-.3-.5-.5-.8-.7-1.1-.8-1.8-2.2-1.7-3.6s.9-2.7,2.1-3.4c.4-.2,1-.7.7-1.1,0,0-.2-.1-.3-.2-.5-.2-1-.5-1.5-.7-.3-.1-.5-.2-.8-.3-.4,0-.8.1-1.1.3-1.9.8-4,1.1-6,.9"/>
      <path class="st11" d="M93.1,100.4c1.8,2.2,2.8,4.7,3.8,7.3s.4,1.1.5,1.6c.2,1.1-.6,1.5-1.5,2-1.3.7-2.7,1.4-4,2.1s-.3.1-.2.3c.5.9,1.5,1.2,2.5,1.3,1.6.1,3.3.1,4.9.2s1.7,0,2.5.1,1.4.1,2.1,0c1-.2,1.4-1,1.2-2s-.3-1.6-.5-2.4-.2-1.5-.6-2-.9-.7-1.3-1.1-.9-1.2-1.1-2c-.3-1.4.2-3,1.3-3.9s2-1.1,1.1-1.8-.8-.4-1.2-.5-.7-.4-1.1-.5c-.6-.2-1.2,0-1.8.3-1.9.7-3.8,1-5.8.9s-.8.4-.3.4c1.2.1,2.5,0,3.7-.2s1.1-.2,1.6-.4c.8-.3,1.5-.7,2.4-.4s.6.3.9.4.6.2.8.4.2,0,.1.4-.2.4-.4.5-.4.2-.5.4c-.8.6-1.4,1.4-1.6,2.3s-.2,2.1.3,3,.5.8.8,1.1,1,.7,1.3,1.1.4,1.1.5,1.7.3,1.4.5,2.1.4,1.7-.7,1.9-1.5,0-2.2,0c-1.6,0-3.1-.1-4.7-.2s-3.3.2-4-1.1l-.2.3c1.6-.8,3.1-1.6,4.7-2.4s1.6-1.5,1.1-2.9c-.9-2.9-2.2-6-4.2-8.4s-.9,0-.7.3h0Z"/>
    </g>
    <g>
      <path class="st22" d="M91.9,113.9c-.2.7,0,.5.7.9.2.1.5.1.7.2,3.4.2,6.8.2,10.1,0,.1,0,.2,0,.3,0,.3-.2.8-.4.7-.8l-12.6-.2Z"/>
      <path class="st22" d="M91.5,114c0,.3-.1.6.2.8s.8.4,1.3.4c1.6.2,3.3.2,4.9.2s3.1,0,4.7,0,2.4-.1,2.3-1.2-.2-.1-.2-.1c-3.7,0-7.3-.1-11-.2h-1.6c-.3,0-.8.4-.3.4,3.7,0,7.3.1,11,.2h1.6c0,0-.2,0-.2-.1,0,.8-2.9.6-3.4.6-1.1,0-2.2,0-3.4,0s-2.1,0-3.2-.1-1,0-1.6-.3-.4-.2-.3-.6-.7-.2-.7,0Z"/>
    </g>
    <g>
      <path class="st18" d="M93,99.7c-.9-1.7-1.6-3.6-2.1-5.5-.3-1.4-.5-2.9,0-4.3s2.2-2.3,3.5-1.7c.5.2.9.3,1.5.4.6,0,1.2.2,1.8-.1,2.1-1,4.8-.7,6.6.7.8.6,1.4,1.4,2.3,1.9.8.6,1.8.9,2.7,1.2,2.4.8,4.8,1.6,7.1,2.3.7-2.6,1.7-5.4,4.2-6.5.4,1,.8,2,1,3,.3-.7,1.3-.7,1.9-.3s.9,1.2,1.1,1.9.3,1.5.7,2.1c.7,1.2,2.1,1.6,3.3,2.3s2.2,2.1,1.6,3.3c-.2.4-.6.7-.9.9-1.4,1.2-2.7,2.7-3.6,4.4-.6,1.1-1.3,2.3-2.5,2.5-1.2.2-2.2-.8-3.3-1.2-1.8-.6-3.8.6-5.7.2-.5-.1-.9-.3-1.4-.2-.4,0-.7.3-.9.6-2.8,2.2-7.2,2.1-9.8-.3-.4-.4-.8-.8-1-1.4-.4-1,0-2.1.5-3s1.4-1.5,2.2-2.2c-2.8-1.3-6.7-1-9.6.2l-1.1-1.5Z"/>
      <path class="st18" d="M93.4,99.6c-.7-1.4-1.3-2.9-1.8-4.4s-.9-3.3-.4-4.9,1.4-2.1,3-1.8,1,.3,1.5.4c1.1.2,1.8,0,2.8-.4,1.8-.6,3.8-.2,5.3.9s2,1.9,3.2,2.5,2.8,1,4.2,1.5,3.3,1.1,4.9,1.6.6,0,.7-.2c.7-2.4,1.6-5.2,4-6.4h-.6c.4,1,.8,2,1,3s.6,0,.7-.1c.1-.2,1.2-.1,1.4,0,.2.1.4.5.5.7.2.3.3.7.4,1.1.2.7.3,1.5.7,2.1.8,1.4,2.5,1.7,3.7,2.6s1.2,1.2,1.3,2.1-1,1.6-1.6,2.3c-1.2,1.1-2.1,2.3-2.9,3.7s-.4.8-.7,1.2c-.4.6-.5.7-1.4.9s-1,.3-1.7,0-.7-.4-1.1-.6c-1.4-.5-2.8-.2-4.2,0s-1.9-.2-2.9-.2-.8,0-1.1.3c-.6.3-1.1.9-1.8,1.2-1,.5-2.2.7-3.4.7-1.9,0-4-.8-5.2-2.3-1.9-2.2.4-4.5,2.1-5.8s.1-.2,0-.2c-3.2-1.3-6.9-1-10,.3h.5c-.4-.5-.7-1-1.1-1.5s-.8,0-.7.3l1.1,1.5c0,.1.4,0,.5,0,1.5-.6,3.1-1,4.7-1s4.2,0,4.1.9-.9.8-1.1.9c-.4.4-.8.9-1.1,1.4-.5.9-.7,2.1-.2,3,.9,1.8,3.3,2.7,5.2,3s3.8-.2,5.4-1.1.7-.6,1.1-.8c.7-.3,1.6,0,2.3,0,1.3,0,2.5-.4,3.8-.4,2,0,3.6,2.1,5.6.9s1.1-1.1,1.5-1.8c.7-1.2,1.5-2.4,2.4-3.5s3.7-2.7,1.9-4.9-2.2-1.4-3.3-2.2-1.3-2.2-1.8-3.6-2.4-2.5-3.5-1h.7c-.2-1.1-.6-2.1-1-3.1s-.5,0-.6,0c-2.6,1.3-3.6,4-4.3,6.6l.7-.2c-1.9-.6-3.9-1.3-5.8-1.9s-3.7-1.2-5.3-2.7c-2.3-2.1-4.8-2.5-7.7-1.7s-2,.2-3.2-.2-.9-.3-1.5-.2c-1,.2-2,.8-2.5,1.7-.8,1.4-.6,3.2-.2,4.6s1.2,3.8,2.1,5.5.8,0,.7-.2Z"/>
    </g>
    <g>
      <path class="st8" d="M131.3,109.6c-1.2-1.6-2.3-3.2-3.4-4.9-.3-.5-.7-1.1-.8-1.7s0-1.3.6-1.7c-1.4.9-3.5.1-4.4-1.3-1-1.4-1.1-3.2-1-4.9,0-1.2.3-2.4,1.1-3.3.8-1,2.1-1.5,3.3-1.4s2.4.6,3.4,1.3c.2-1.8,1.4-3.6,3.1-4.3s3.8-.5,5.3.5c-.8-.4-.7-1.5-.3-2.3.8-1.9,2.1-3.6,3.7-4.9.5-.4,1-.7,1.5-.9,1.1-.3,2.3,0,3.3.4,1.8,1,3.2,2.9,3,5,.6-1,1.8-1.4,2.9-1.3s2.1.9,2.6,1.9c.1.3.3.6.6.7.2,0,.5,0,.7,0,1.7-.5,3.5,1,3.9,2.7.5,1.7,0,3.5-.4,5.2"/>
      <path class="st8" d="M132.8,109.2c-1-1.3-2-2.7-2.9-4.1s-2.1-2.7-.8-3.8-.1-.5-.4-.5c-.6,0-1.3.1-1.8.4.4-.2-.2,0-.4-.2s-.6-.2-.8-.4c-.5-.3-.9-.8-1.2-1.3-.6-1.1-.7-2.4-.7-3.6s.2-2.6.9-3.7c1.1-1.6,2.9-.6,4.2.3s2.7-.1,2.8-.9c.2-1.3.8-2.5,1.8-3.3s2.7-.3,3.8.4l2.7-1c-2.1-1.4,2-5.7,3.1-6.5s.6-.5,1.1-.5.9.2,1.3.4c.5.3,1,.7,1.5,1.1,1,1,1.5,2.4,1.5,3.8s2.6-.3,2.9-.6c1-1.4,2.3,1.2,2.9,1.8s1.9,0,2.8.3c3.1,1,2.3,5.2,1.7,7.5s2.7.2,2.9-.5c.5-2.1,1.1-4.6-.1-6.5s-2.7-2-4.6-1.7,0,.1,0-.1-.3-.5-.3-.6c-.2-.3-.5-.7-.8-.9-.7-.6-1.5-.9-2.4-.9-1.8,0-3.8.7-4.9,2.2l2.9-.6c.2-4.6-5-6.9-8.8-5.2s-3.4,2.4-4.5,4-2.3,3.6-.7,4.6,3.2-.7,2.7-1c-4-2.7-10.5-.3-11.2,4.7l2.8-.9c-1.9-1.5-4.3-1.8-6.6-1s-3.7,2.3-4,4.7-.1,4.8,1.7,6.3,4.1,1.2,5.9.2h-2.2c-1.2,1-.7,2.3,0,3.5,1.1,1.7,2.2,3.3,3.4,4.9s3.1-.5,2.9-.8h0Z"/>
    </g>
    <g>
      <path class="st4" d="M142.3,89.6c-.6.3-1.2.5-1.8.4h.1c-.2,0-.2,0,0,0h.1c-.2,0,.1.2.1.2.1.1.2.2.3.3.3.5.4,1.2.5,1.8s.7.5,1.1.6c.6,0,1.4,0,1.9-.3s.2,0,.3-.1c.3-.1,0,0-.2,0-.2,0-.4,0-.6,0,0,0-.4,0-.4,0,0,0,.3.6.4.8.7.7,2.2.3,2.9,0s1.1-.5,1.4-1,.3-.6.5-.8.2-.3.4-.5.2-.3,0-.1c0,0,.2-.1.2-.2.2-.1.1,0,0,0,0,0,.2-.1.3-.2.2-.1,0,0,0,0,.3-.2-.1,0-.1,0,0,0,.6-.1.1,0s0,0,0,0c.3,0-.4,0,0,0s.3,0,.4,0c.9,0,2.3-.4,2.9-1.2s-.5-1.1-1.2-1.2c-1.8-.1-3.8.5-5.2,1.5s-1.2,1-1.6,1.6-.3.5-.4.7-.1.2-.1.3c-.1.2-.3.2.1,0l.9-.5h0c.7,0,1.5-.2,2.2-.3.6.6.8.7.7.4,0,0,0-.2-.1-.3,0-.2-.2-.4-.3-.5-.3-.4-.8-.6-1.3-.7-1.2-.2-2.5.1-3.6.6l3,.2c-.2-1-.4-2.2-1.3-2.9-1.5-1.1-3.5-.7-5,0s-1.3,1.2-.4,1.6,2.2,0,3.1-.4h0Z"/>
      <path class="st4" d="M135,94.6c-1-.6-2.5-.2-3.5.1s-1.5.7-2.1,1.2c-1,.7-2,1.5-2.6,2.6-1.2,2-1.4,4.5-.2,6.5s1.7.6,2.4.4,1.1-.3,1.5-.7.6-.6.5-.9c-.9-1.5-1-3.2-.4-4.8s.2-.5.5-.9.3-.3.4-.5c.3-.3-.1,0,0,0s.2-.2.3-.2c.3-.3.7-.6,1.1-.8s-.2.1,0,0,.2-.1.3-.2c.2-.1,0,0-.1,0-.5.2-.9.3-1.4.2-.3,0-.3,0-.1,0,.4.2,1,.1,1.4,0,.5,0,1.2-.3,1.6-.5s1.3-1,.4-1.5h0Z"/>
      <path class="st4" d="M130.6,99.2c-1.3,1.3-2.1,3.1-2,5s.9,3.5,2.2,4.7.9.2,1.1.1c.6,0,1.2-.2,1.7-.4s1.9-.7,1.3-1.3c-2.4-2.2-2.6-6.2-.3-8.5s-.6-.8-1-.7-1.2.2-1.7.4-.9.3-1.2.7h0Z"/>
      <path class="st4" d="M133.9,92.1c0-.1.1-.2.2-.3l-.2.2c.1-.2.2-.3.4-.5s.1-.1.2-.2c.1,0-.3.2,0,0s.2-.1.3-.2c.3-.2-.4.2,0,0h0c.2-.1.1,0-.2,0h0c.2-.1.1,0-.3,0,.2,0,.5,0-.2,0,.2,0,.4,0-.2,0,.2,0,.4,0,0,0,0,0,.2,0,.3,0,.4,0,0,0,0,0s.2,0,.3,0c.2,0,.4.1.6.2h-.3c.4,0,.7.3,1,.5s.8.2,1.1.2c.6,0,1.2-.2,1.7-.4s1.9-.8,1.3-1.3c-1.4-1.2-3.4-1.4-5.1-1s-4.1,1.3-5.2,3.1.2.5.4.5c.4.1,1,0,1.4,0s1.1-.3,1.7-.5.7-.4.9-.7h0Z"/>
      <path class="st4" d="M150.7,88.5c.1,0,.3.2.4.3l-.3-.2c.4.3.6.6.9,1l-.2-.3c.2.4.4.9.4,1.4v-.3c0,0,0,.1,0,.2,0,.4,0,.6.5.8s1,.2,1.4.2,1.2-.2,1.6-.6.8-.5.8-1,0-.2,0-.3v.3c-.1,0,0-.2-.1,0-.3.3.2-.1-.2.1-.2.1-.2.1,0,0l-.3.2h-.4c-.4.2-.6.2-.4.2.1,0,0,0-.1,0-.1,0-.2,0-.3,0-.2,0-.2,0,0,0h-.2c.1,0,.3,0,.4.2l-.3-.2c.4.3.7.7.9,1.1l-.2-.3c.4.7.6,1.4.6,2.2v-.3c0,.4,0,.9-.2,1.3s.2.7.5.8,1,.2,1.4.2,1.2-.2,1.6-.6.7-.5.8-1c.4-1.7,0-3.7-1.2-4.9s-2.1-1.2-3.3-1-1.9.5-2.6,1.1-.8.8-.8,1.4l4.4-.5c0-.8-.1-1.5-.6-2.2s-.9-1.1-1.6-1.4-2.3-.2-3.1.4-.8.5-.8,1,.1.7.5.8h0Z"/>
    </g>
    <g>
      <path class="st11" d="M102.5,73.9c-.5,1.1-1,2.3-2,2.4s-2.2-.4-2.9-1.2c.4-.4,1.2.1,1.4-.4.2-.3-.2-.6-.4-.8-.9-.8-1.6-2-1.7-3.3s.3-2.6,1-3.6c0,0,0-.1.1,0,0,0,.1.1.1.2.4,2.7,2,5.2,4.2,6.8"/>
      <path class="st11" d="M102.2,73.8c-.3.7-.7,1.9-1.5,2.2s-2.2-.4-2.8-1.1v.3c.1-.2.6,0,.8,0s.5-.2.6-.5c.1-.4-.2-.7-.4-1s-.6-.7-.9-1c-.5-.8-.8-1.8-.8-2.8s.1-1,.3-1.5.2-.5.3-.7.1-.2.2-.3.3-.3.1-.3h-.3c.1,0,.2.9.2,1.1,0,.3.2.6.3,1,.2.7.5,1.3.9,1.9.7,1.2,1.7,2.2,2.9,3s.9-.2.6-.4c-1.1-.8-2.1-1.8-2.8-2.9s-.7-1.2-.9-1.9-.2-.6-.3-1,0-.7-.2-.9c-.2-.5-.8-.2-1,.1-.4.5-.7,1.1-.8,1.8-.4,1.3-.2,2.7.5,3.9s.4.7.7,1,.6.5.8.8-.3.2-.5.3-.5,0-.8.2-.2.2,0,.3c.8,1,2.2,1.6,3.4,1.3s1.7-1.6,2.1-2.6-.6-.3-.7,0h0Z"/>
    </g>
    <g>
      <path class="st3" d="M92.4,79.1c2.1-1.8,4-3.8,5.6-6.1.4,2.3,3.1,3.8,5.2,3,1.3-.5,2.6-1.7,3.8-1.1.4.2.7.6,1,.9,1.2,1.1,2.9,1.5,4.5,1.3s3.1-.9,4.4-1.9c.3-.2.6-.4.9-.3.3,0,.5.4.7.8,1.1,2.7,2.2,5.3,2.7,8.2.2,1,.3,2,0,3s-1.3,1.7-2.3,1.6c.3-.5,0-1.2-.4-1.5s-1.1-.4-1.7-.4c-1.1,0-.6.2-1.8,0,0,.7-1.5,2.1-1.7,2.8-.6-.2-11.1-2.4-11.7-2.4-.4-1.8,7.8-1,7.4-2.8-2.2-.2-5.7-.4-8-.7-1.6-.2-1.4-1.5-2.9-2.2-.6-.3-1.1-.5-1.8-.4-.5,0-.7-.4-1.1-.5-.9,0-1.8-1.3-2.5-.7"/>
      <path class="st3" d="M92.7,79.2c2.1-1.8,4-3.9,5.7-6.1h-.7c.5,2.2,2.7,3.7,5,3.3s3.3-2.2,4.8-.7,1.9,1.5,3.2,1.7,2.7,0,3.9-.5,1.3-.6,1.9-1,.9-.8,1.4-.5.5,1,.6,1.3c.7,1.8,4.9,11.7.4,11.5l.2.3c.4-.9-.2-1.7-1-2s-2,0-3.1-.1-.4,0-.5.3c-.2,1-1.3,1.8-1.7,2.7l.6-.2c-1.5-.5-3.2-.7-4.8-1.1s-4.3-.9-6.4-1.3-.6,0-.6,0c0,0,.8-.4,1-.4,1.1-.3,2.2-.4,3.3-.5s3.5-.3,3.3-1.7-.1-.2-.2-.2c-1.7-.2-3.4-.3-5.2-.4s-1.7,0-2.5-.2-1.4-.7-2.1-1.5-2.4-1.1-3.6-1.5-2.2-1.3-3.2-.8,0,.6.3.4,1.8.6,2.3.8c.8.4,1.2.3,2.1.5,1.4.4,1.7,1.7,2.9,2.3s2.8.4,4,.5,1.6.1,2.3.2,2.1,0,2.2.2c.2.5-4.3,1-4.8,1.1-.8.1-2.7.4-2.6,1.6s.1.2.2.2c1.9.1,3.9.7,5.8,1.1s4,.6,5.9,1.3.5,0,.6-.2c.4-1,1.5-1.7,1.7-2.9l-.5.3c1,0,4.6-.5,3.6,1.6s0,.3.2.3c3.7.2,3.1-4.3,2.5-6.7s-1.3-4-2.1-6-.8-1.7-1.9-1.2-1.5,1-2.3,1.4-2.3.8-3.5.6-2.1-.7-3-1.5-.7-.7-1.3-.9c-1.6-.4-2.9,1.2-4.4,1.4s-3.6-1.2-4-3-.5-.2-.7,0c-1.6,2.2-3.4,4.2-5.5,6s.2.6.5.3h0Z"/>
    </g>
    <g>
      <path class="st22" d="M99.3,75.6c0,1.8-.2,4.2-.2,5.9.5-.1,1.1.2,1.5-.2.2-.2.2-.5.2-.7,0-1.6,0-3.1,0-4.7l-1.4-.4Z"/>
      <path class="st22" d="M98.9,75.7c-.1,2-.2,4-.2,6s.4,0,.4,0c.2,0,.5,0,.7,0s.5,0,.8-.2c.5-.3.5-.8.5-1.3,0-1.4,0-2.9,0-4.3,0,0,0,0,0,0l-1.4-.4c-.2,0-.4,0-.5,0s-.2.2,0,.2l1,.3c0,0,.3,0,.4.1,0,0,0,.3,0,.3,0,.1,0,.2,0,.4,0,.3,0,.5,0,.8,0,1,0,1.9,0,2.9s0,.4,0,.6,0,.2,0,.3c0,.1,0,0-.1,0-.2,0-.3,0-.5,0s-.4,0-.6,0h.4c0-1.9,0-3.9.2-5.8s-.7-.1-.7.1Z"/>
    </g>
    <g>
      <path class="st22" d="M109.8,77.1c-.8,1.9-1.6,3.7-2.4,5.6,0,.2-.2.5,0,.7,0,.1.2.2.4.3.3.2.6.3.9.5,0,0,.1,0,.2,0,.2,0,.2-.2.3-.4.5-2.1,1.1-4.8,1.6-6.8h-.8Z"/>
      <path class="st22" d="M109.4,77.1c-.5,1.2-1,2.4-1.6,3.6s-.5,1.2-.7,1.8-.4,1,0,1.4.4.3.6.4.5.3.7.4c.4.1.8-.2.9-.6.3-1.1.5-2.1.8-3.2s.6-2.4.9-3.7-.2-.2-.3-.2h-.8c-.4,0-.6.5,0,.5h.8l-.3-.2c-.3,1.1-.5,2.3-.8,3.4s-.3,1.2-.4,1.8-.1.5-.2.8,0,.3-.1.4-.1.3,0,.4c0,0,0,0,0,0,0,0-.1,0-.2-.1-.1,0-.3-.2-.4-.2-.3-.2-.5-.3-.4-.7.2-.6.5-1.3.8-1.9.5-1.3,1.1-2.6,1.7-3.9s-.6-.4-.7,0Z"/>
    </g>
    <g>
      <path class="st18" d="M99.7,82.1c1.9-.1,7.5,1.1,8.5,1,.1,0,.3,0,.4,0,0,0,.1.2.2.3.5,1.4,1.1,3.4,1.6,4.8-3-.4-6.4-1.3-9.4-2.1-.1,0-.3,0-.3-.2,0-.1,0-.7,0-.8,0-.9-.2-1.8-.5-2.7"/>
      <path class="st18" d="M99.7,82.4c1,0,2.1.1,3.1.3s2.3.4,3.5.5.9.1,1.3.2.3,0,.4,0,0,0,.1,0c.1,0,.2,0,.3.1,0,0,0,.2,0,.3.5,1.5,1,3,1.5,4.5l.5-.4c-2.3-.3-4.6-.9-6.9-1.5s-1.1-.3-1.7-.4-.6,0-.8-.2,0-.3,0-.4c.2-1-.2-2.1-.5-3.1s-.8-.2-.7.2c.2.6.4,1.2.4,1.9s0,.6,0,.8,0,.4,0,.6c0,.4.3.5.6.6.6.2,1.2.3,1.8.5,2.5.6,5,1.3,7.6,1.6s.6-.1.5-.4c-.5-1.6-1-3.2-1.6-4.8s-.6-.5-1.1-.5-.8,0-1.2-.1c-1.3-.2-2.5-.4-3.8-.6s-2.2-.3-3.3-.3-.5.6,0,.6h0Z"/>
    </g>
    <path class="st10" d="M100.3,85.5c-.4.8-.8,1.6-1.2,2.4,4.7,3,10.6,5.3,16,6.6.6.2,1.3.3,1.8,0,.4-.3.6-.8.7-1.3.5-1.7.7-3.5.7-5.3,0-.2,0-.3-.1-.5,0-.1-.2-.2-.3-.2-.8-.3-2,0-2.8-.4-.2,0-.5-.2-.8-.1-.7.1-.6.6-1,1.2-.8,1.1-2.5.8-3.8.4-2.9-.9-9.3-2.6-9.3-2.6Z"/>
    <path class="st10" d="M82.7,85.9c2.2,1.8,4.5,3.5,6.7,5.3s.3.2.5.1c0,0,.1-.2.2-.3.3-.9.8-1.9,1.7-2.3.5-.2,1.1-.2,1.7-.4s1-.8.8-1.3c0-.2-.2-.3-.3-.4-1.1-1.1-2.2-2.2-3.3-3.3,0,0-.2-.2-.3-.2-.2,0-2.1,3-2.3,3-1.1-.1-2.2-1.9-3.2-2.4-.2-.1-.5-.3-.8-.3-.7,0-1.2,1.3-1.9,1.6"/>
    <path class="st12" d="M94.2,93.1c2,2.2,5,2.9,7,4.9s.9,0,.7-.3c-2-2.1-5.1-2.8-7-4.9s-.9,0-.7.3h0Z"/>
    <path class="st12" d="M107.5,93.1c.7,1,1.3,2.1,2,3.1s.9,0,.7-.3c-.7-1-1.3-2.1-2-3.1s-.9,0-.7.3h0Z"/>
    <path class="st12" d="M106.2,99.3c.9-.7,1.9-1.4,3-1.8s2.3-.6,3.5-.8c2.3-.3,4.6-.6,6.9-.8s.6-.4.1-.4c-2.6.2-5.3.5-7.9,1s-4.3,1.3-6.2,2.7.4.2.6.1h0Z"/>
    <path class="st12" d="M117.1,95.9c1.1-1.8,2.6-3.4,4.4-4.5s0-.2,0-.2-.4,0-.5.1c-1.9,1.1-3.4,2.7-4.5,4.6s.3,0,.3,0c.1,0,.3,0,.4-.2h0Z"/>
    <path class="st12" d="M118.5,95.6c1.6-1.2,3.1-2.6,4.2-4.2s-.3,0-.3,0c-.1,0-.3,0-.4.2-1.1,1.6-2.5,3-4.1,4.1s0,.2,0,.2.4,0,.5-.1h0Z"/>
    <g>
      <g>
        <path class="st8" d="M160.5,62.9c-4,.5-29.6,1.2-31.3.3-.2,0-.3-.2-.4-.4-.3-.6.7-1,1.4-1.1,2.4-.1,4.8-1.6,6.6-3.3-.6-.3-.5-1.2,0-1.6s1.2-.4,1.9-.6,1.4-.5,1.5-1.1c.1-.5-.2-1-.2-1.5,0-1.2,1.3-2,2.5-2s2.4.4,3.6.5c1.2,0,2.4-.4,3.6-.2,1,.1,1.9.6,2.8.9,2.1.7,4.5.5,6.4-.6.8-.5,1.8-1.1,2.6-.5.4.3.6.7.7,1.2.4,1.4.8,2.8,1,4.2"/>
        <path class="st8" d="M160.7,62.2c-1.4.2-3.4.2-5.2.3-2.9.1-5.8.2-8.7.3-5,.1-10.4.4-15.4,0s-.6,0-.9-.1.2,0,0,0-.7-.5-.5,0,.9-.1,1-.1c2.6-.5,5-1.9,7-3.7s.5-.5.2-.7-.5-.6-.2-.9.4,0,.5,0c.7,0,1.3-.3,1.9-.6,1.2-.7,1.3-1.4,1.1-2.7-.3-2,2-1,3.2-.9s3.2-.5,4.8,0,2.5,1,3.9,1.1,2.8,0,4.1-.4,1.3-.4,1.9-.7.7-.4.8-.5c.2-.2.2-.1.2.1l.2.5c.6,1.4.9,3.1,1.1,4.6s3,.2,2.9-.8-.3-2-.6-3-.4-1.8-.9-2.3c-1-1.1-3-.6-4.1,0-1.8.9-3.3,1.5-5.3.8s-1.7-.7-2.7-.9-1.8-.1-2.7,0-2,.1-3.1,0-1.8-.3-2.8-.2-2.9.8-3.6,2-.2.6-.2.9.3,1.1.2,1.5c-.2.5-1.6.5-2.1.8-1,.4-2.5,1.9-1.2,2.9l.2-.7c-1,.9-2,1.7-3.2,2.2s-2.4.4-3.6.9-2.3,1.9-.6,2.5,3.9.4,5.7.4c6.3.1,12.7,0,19-.3s4.9-.1,7.3-.4,1.6-.4,1.7-.9-.8-.6-1.2-.5h0Z"/>
      </g>
      <path class="st4" d="M152.3,59.9c.2-.2.4-.5.6-.7s.2-.3.4-.4c-.1.1-.1,0,0,0,.2-.2.5-.4.7-.5-.4.3,0,0,.1,0s.3-.1.4-.2c.3-.1-.5.1,0,0s.6-.1.2,0,.2,0,.2,0c.4,0-.2,0,0,0s.3,0,.4,0c-.3,0,0,0,.1,0s.3,0,.4.2c-.3-.1.2.1.2.1l2.4-2.8c-2.9-.1-5.8.3-8.3,1.9s-3.6,3.3-3.9,5.7.8,1.3,1.4,1.4c1,0,2.1-.2,2.8-1s.6-1.3.2-1.9c-.7-1-2.4-.9-3.5-1.1s-2.4.4-2.8,1.3.4,1.7,1.3,1.8.6,0,.9.1.3,0,.4,0c0,0,.1,0,.2,0,.6.1.5-.4-.4-1.5l.9-.6h0c.6,0,1.1-.2,1.7-.3h0c.5.5,1,.9,1.4,1.4,0-.6,0-.6.3-1s.2-.4.3-.5.3-.5.1-.2c.3-.4.6-.7.9-1-.3.2,0,0,.1,0,.2-.1.4-.3.5-.4-.5.3.2,0,.3-.2.2,0,.4-.2.5-.2.2,0,.2,0,0,0,.1,0,.2,0,.4-.1.2,0,.5-.1.8-.2.5-.1-.3,0,.2,0s.5,0,.8,0,.5,0,.8,0c.3,0,.3,0,0,0,.1,0,.3,0,.4,0,.9,0,2-.2,2.6-.9s.6-1.4-.1-1.9c-3.7-2.5-8.5-.4-10.9,2.8s-.4,1.8.6,2.1,2.4,0,3.1-.8h0Z"/>
      <path class="st4" d="M140.5,61.6l.5-1.3c.2-.4.3-.8.5-1.1l-.3.4c0,0,.1-.2.2-.3l-.4.4c0,0,.1-.1.2-.2l-.5.3s0,0,.1,0l-.6.2s0,0,.1,0h-.6c0,0,.1,0,.2,0h-.6c0,0,.1,0,.2,0h-.5c0-.1.1,0,.2,0l-.4-.2s0,0,.1,0l-.3-.3s0,0,0,.1l-.2-.4h0c1-.7,1.9-1.4,2.9-2.1,0,0,0,0-.1,0h.5c0,.1,0,0-.1,0l.4.2s0,0,0,0l.2,1.9c.2-.3.5-.6.7-.9s.5-.8.3-1.2-.5-.8-.9-.9-1.1-.2-1.7,0-1.1.4-1.4.9-.5.6-.7.9l-.3.4c-.1.2-.1.4-.1.6,0,.1,0,.3.1.4,0,.2.2.4.4.5.3.2.8.4,1.2.4.8,0,1.6-.1,2.2-.6.3-.2.5-.5.6-.8.1-.3.2-.6,0-.8-.2-.4-.4-.7-.7-.9s-1.2-.4-1.8-.4c-1,0-2.1.5-2.7,1.3s-.6,1-.8,1.5l-.6,1.4c-.2.4-.2.9,0,1.2s.8.6,1.2.6,1.2,0,1.7-.3.9-.6,1.1-1h0Z"/>
    </g>
    <g>
      <path class="st5" d="M77.6,83.6c0,.1-.2.2-.1.4,0,.1,0,.2.2.3.8.9,1.6,1.7,2.4,2.5.2.2.4.3.6.3.1,0,.2-.1.3-.2,2-2,6.3-5.3,5.9-6s-2.6-2.4-2.9-2.5c-.5,0-6,4.9-6.2,5.3Z"/>
      <path class="st5" d="M77.3,83.7c-.2.2-.2.4,0,.7.3.4.6.7.9,1s.6.6.8.9.6.7,1,.9,1,0,1.4-.4.8-.8,1.2-1.1c.9-.8,1.8-1.6,2.8-2.5s1.4-1.2,1.8-1.9.2-.3,0-.5c-.2-.3-.6-.6-.9-.9s-.8-.7-1.3-1.1-.5-.5-.8-.5c-.5-.1-1,.3-1.3.5-.7.5-1.3,1-1.9,1.6s-1.6,1.4-2.4,2.2-.9.8-1.3,1.2.3,0,.3,0c.1,0,.3,0,.4-.2.2-.2.6-.6.8-.8.6-.5,1.1-1,1.7-1.6,1.1-.9,2.1-1.9,3.3-2.7s0,0,0,0c0,0,0,0,0,0s-.3,0-.3,0,0,0,0,0c0,0,.1,0,.2.1.3.2.6.5.9.7s.7.6,1,.9.6.5.6.7c0,.4-.7,1.1-.9,1.3-.7.7-1.5,1.4-2.2,2s-1.7,1.5-2.5,2.3-.2.2-.2.2c-.1,0-.3-.3-.4-.4-.3-.3-.6-.6-.9-.9s-.6-.6-.8-.9-.8-.6-.5-1.1-.3,0-.3,0c-.1,0-.3,0-.4.2Z"/>
    </g>
    <g>
      <path class="st14" d="M81.1,83c0-1,.3-2,1-2.7.9.7,1.2,1.9.8,3-.2.4-.4.8-.7,1.2-.3.5-1,1.1-1.3,1.6,0,0,.1-2.1.2-3Z"/>
      <path class="st14" d="M81.5,83c0-.9.2-2,.9-2.6h-.6c.8.8,1.2,1.9.8,3s-1.3,1.9-2,2.8h.7c0-1.1.1-2.1.2-3.1s-.7-.1-.7.1c0,1-.1,2-.2,3s.6,0,.7,0c.7-.9,1.7-1.8,2.1-2.9s0-2.3-.9-2.9-.5,0-.6,0c-.8.7-1,1.8-1.1,2.8s.7.1.7-.1Z"/>
    </g>
    <path class="st13" d="M81.9,80.6c0,.8-.1,1.7-.3,2.5s-.4,1.8-.8,2.7.3.3.4,0c.4-.9.6-1.8.8-2.7s.4-1.7.3-2.6-.4-.2-.4,0h0Z"/>
    <path class="st22" d="M84.7,78.8s0,0,0,0c0,0,0,0,0,0s0,0,0,0,0,0,0,0c0,0,0,0,0,0,0,0,0,0,.1-.1s0,0,0,0c0,0,0,0,0,0,0,0,0,0,.1,0s0,0,0,0,0,0,0,0,0,0,0,0c0,0,0,0,0,0,0,0,0,0,0,0,0,0,0,0,0,0s0,0,0,0c0,0,0,0,0,0,.1,0,.2.1.3.2s.1.1.2.2.2.3.4.4.3.3.4.5,0,0,0,0,0,0,0,0c0,0,0,0,0,0s0,0,0,0c0,0,0,0,0,0,0,0,0,0,0,0s0,0,0,0,0,0,0,0c0,0,0,0,0,0,0,0,0,0-.1,0s-.1,0,0,0h.4c-.5-.5-1-.9-1.6-1.4l-.2-.2c-.2-.2-.9.1-.6.4.5.5,1,.9,1.6,1.4l.2.2c0,0,.3,0,.4,0,.2-.1.4-.2.5-.4s.3-.3.3-.5-.2-.5-.3-.6-.3-.4-.5-.6-.5-.5-.8-.6-.7,0-1,.2-.7.5-.4.9.9,0,.7-.3Z"/>
    <g>
      <path class="st12" d="M91,81.9c-.5.1-.7.7-.5,1.2s.4.8.8,1.2c.8.8,1.5,1.7,2.3,2.5.4.5.9,1,1.5,1.3.9.5,2.1.5,3.1.1.9-.3,1.7-1,1.9-1.9.3-1.3-.6-2.5-1.6-3.4-1.3-1.2-2.7-2.2-4.3-3-.3-.2-.7-.3-1-.3"/>
      <path class="st25" d="M90.8,81.9c-.6.2-.9.9-.7,1.5s1.1,1.5,1.7,2.2c1.2,1.4,2.4,3.1,4.4,3.2s3.1-.5,3.9-1.7-.3-3.2-1.4-4.3-1.6-1.4-2.5-2-1.8-1.3-2.7-1.3-.4,0-.5.1-.1.1,0,.1c.7,0,1.6.6,2.2,1s1.3.8,1.9,1.3c1.1.9,2.5,2,2.7,3.5s-1.1,2.7-2.6,2.9-2.8-1.1-3.9-2.3-1.3-1.4-1.9-2.1-.5-.6-.6-1,0-.9.4-1.1.2,0,0-.2-.4,0-.5,0h0Z"/>
    </g>
    <path class="st10" d="M95.5,80.2c-.8,0-.7,1.5-.8,2.3,0,.2,0,.4.2.4,0,0,.1,0,.2,0,.4-.4.9-.7,1.3-1.1-.3.5-.6,1.1-.8,1.7,0,.2,0,.4,0,.4,0,0,.2,0,.3,0,.6-.3,1.2-.7,1.7-1.3-.3.4-.5.9-.8,1.3,0,.1-.1.2-.1.3,0,.2.3.3.4.3s.4-.2.5-.3c.3-.2.9-.3,1.2-.6,0,.3-.9.8-.9,1,.2,1,1.4.3,2.4,0,.3-.7.1-1.4-.2-2.1-.2-.4-.5-.9-.9-1.1-.3-.2-.9-.5-1.2-.7-1.1-.4-1.8-.5-2.7-.5Z"/>
    <path class="st10" d="M101.5,60.1c-1.7,1.7-3,3.8-3.1,6.2,0,2.4,1,4.9,2.6,6.7.4.4.8.9,1.4.9.4,0,.7,0,1.1-.2,1.7-.7,3.2-1.7,4.4-3s2.1-10.3,2.2-10.5"/>
    <g>
      <path class="st11" d="M98.7,64.3c-.5-.8-1-1.6-1.3-2.5s-.2-2,.4-2.7c.5-.6,1.2-.9,1.9-1.2,2.7-1.2,5.5-2.3,8.5-2.2,2.9,0,6,1.7,6.9,4.5.6,2.1,0,4.3.5,6.4.6,2.4,2.6,4.7,1.8,7.1-.6,1.7-2.4,2.6-4.1,2.9-2.3.5-4.8.3-6.8-1,1.2-.6,1.8-2.1,1.6-3.4-.2-1.1-1-2-1.5-2.9-1.1-1.9-1.2-4.4-.4-6.4-1.9-.4-3.6-1.7-4.6-3.4l-2.9,4.9Z"/>
      <path class="st11" d="M99,64.2c-1.1-1.7-2.4-4.3-.2-5.7s2.3-1.1,3.5-1.5,2.7-.9,4.2-1.1c4-.4,8.2,1.8,8.5,6.1s-.1,4.2.8,6.3,1.9,3.6,1.3,5.5-3.8,3-6,3-2.3-.3-3.3-.8-.7-.3-.6-.6.7-.7.8-.8c1.3-1.8.1-3.5-.8-5.1s-1.4-4.5-.5-6.7,0,0,0,0c-1.9-.5-3.5-1.7-4.5-3.4s-.6,0-.7.2c-1,1.6-1.9,3.2-2.9,4.9s.6,0,.7-.1c1-1.6,1.9-3.2,2.9-4.9l-.7.2c.8,1.3,2,2.4,3.4,3s.8.2.9.3c.2.3,0,.7,0,1-.2.8-.3,1.6-.2,2.3.1,1.8.9,3.1,1.8,4.6s1,3.7-.8,4.8-.1,0,0,.1c2.7,1.7,6.5,1.7,9.3.3s2.3-1.7,2.4-3.1-1.1-3.6-1.7-5.4-.3-4.2-.6-6.3-1.2-3.3-2.7-4.3c-2.9-1.9-6.5-1.6-9.6-.6s-2.1.8-3.2,1.2-1.8.7-2.5,1.3c-1.7,1.6-.4,4,.7,5.5s.8-.1.7-.2Z"/>
    </g>
    <path class="st22" d="M101,65.3c0,.5,0,.9,0,1.4s-.2.9-.3,1.3,0,.7.2,1,.5.3.8.2.1,0,0-.1-.2,0-.2,0c-.1,0-.3-.1-.4-.2s-.1-.2-.2-.4c0-.4.1-.7.2-1.1.2-.7.3-1.4.2-2.1s-.4,0-.3,0h0Z"/>
    <path class="st22" d="M101.6,70.8c.9.1,1.9-.1,2.6-.7s0-.1,0-.1-.2,0-.3,0c-.6.5-1.3.6-2,.5s-.2,0-.3,0,0,.1,0,.1h0Z"/>
    <path class="st2" d="M112.3,77.5c-.2,1.9-.3,3.8-.5,5.7s0,.9-.1,1.4-.2,1-.1,1.5.4.4.7.5c1.9.4,3.8.7,5.7.9s1.6.3,2.4.1.3-.6-.1-.5c0,0,0,0-.2,0-.1,0-.3,0-.4,0-.4,0-.8,0-1.2-.1-1-.1-2-.3-3-.4s-1.7-.3-2.6-.4-.3,0-.4,0-.2,0-.2,0c-.2-.2,0-.9,0-1.1,0-.5,0-.9.1-1.4.2-2,.4-4,.5-6s-.7-.3-.7,0h0Z"/>
    <g>
      <g>
        <path class="st13" d="M121.9,112.1c-1.3-.5-2.7-1-3.4-2.2-.2-.3-.3-.7,0-.9.1-.1.3-.1.5-.1,1.2,0,2.4,0,3.5.4-1.2-.2-2.4-.5-3.5-1s-2-1.5-2.3-2.6c0-.3,0-.7.2-.8.2-.1.5,0,.7,0,.8.2,1.5.5,2.3.7-1.1-.2-2-.9-2.6-1.8s-.9-1.9-1.3-2.9c0-.2-.1-.4,0-.6.2-.5,1-.4,1.5,0,1.6,1,2.9,2.2,4.1,3.7.5-.8-.2-2,.5-2.6.5-.5,1.4-.2,2,.2,2,1.4,3.1,3.6,4.1,5.8-.4-.6-.6-1.4-.2-2s1.3-.9,1.8-.4c.3.3.4.7.5,1.1.3,1.7.8,3.5,1.3,5.2"/>
        <path class="st13" d="M122.5,111.7c-.7-.2-1.4-.5-2-.9s-1.7-1.2-1.3-1.8l-.4.3c.4-.2,1.2,0,1.5,0,.6,0,1.1.2,1.6.3l.9-.9c-1.6-.3-3.4-.6-4.6-1.9s-.5-.6-.7-.9-.1-.7-.3-.9c0-.2,0-.2-.2,0-.2,0-.2.2,0,.2.1.1.5.2.7.2.5.2.9.3,1.4.5l.9-.9c-1-.2-1.8-.8-2.3-1.6s-.6-1-.8-1.6-.2-.5-.3-.8-.1-.6-.2-.7h-.5c.1,0,.3,0,.4,0,.2,0,.4.2.6.4.5.3.9.7,1.4,1,.8.7,1.5,1.4,2.2,2.3s1.2,0,1.4-.3c.4-.7.1-1.3.3-2.1s0-.3.2-.4.5.3.7.3c.4.3.7.6,1.1.9,1.3,1.3,2.1,3.1,2.9,4.7l1.5-.5c-.2-.3-.4-.7-.3-1.1s0-.8.3-.8c.6,0,.7,1.4.7,1.7.3,1.6.7,3.1,1.2,4.6s1.7.1,1.5-.4c-.4-1.4-.8-2.9-1.1-4.3s-.2-2.1-1.3-2.4-1.8,0-2.4.6-.6,1.9,0,2.7,1.7,0,1.5-.5c-1-2.2-2.1-4.6-4.2-6s-2.1-.8-3,0-.2,1.9-.8,2.9l1.4-.3c-1-1.2-2.1-2.3-3.4-3.2s-2.2-1.3-3.3-.4-.4.9-.2,1.4.5,1.5.9,2.2c.7,1.2,1.7,2.2,3.1,2.4s1.8-.6.9-.9-2.4-1.1-3.5-.7-1,1.3-.5,2.2c1.1,2.1,3.6,2.7,5.8,3.1s.8,0,1.1-.3.2-.5-.2-.6c-1.1-.3-2.2-.5-3.4-.4s-1.9.1-2,1,.7,1.5,1.2,1.8c.8.5,1.6.9,2.5,1.2s.8,0,1.1-.1.5-.5.1-.6h0Z"/>
      </g>
      <path class="st9" d="M122.7,102.1c0,0,0,0,0-.1,0,0,0,0,0,0,0,0,0,0,0,0,0,0,0,0,0,0,0,0,0,0,.1,0,.2,0,.5.3.7.5.5.6,1.1,1.2,1.6,1.8s.3.2.5,0,.3-.3.2-.4c-.3-.4-.7-.7-1-1.1s-.6-.7-1-1-.7-.4-1.1-.4-.8.3-.9.7.6.5.7.1h0Z"/>
      <path class="st9" d="M116.4,100.7c.3,0,.6,0,.9.1s.6.4.9.6c.6.5,1,1.2,1.5,1.7s.8-.1.7-.2c-.6-.6-1-1.4-1.7-1.9s-1.5-.7-2.3-.5-.4,0-.3.2.4,0,.4,0h0Z"/>
      <path class="st9" d="M117.4,105.5s0,0,0,0c0,0,0,0,0,0,0,0,0,0,0,0,0,0,.2,0,.2,0,.2,0,.4.1.6.2.4.2.8.5,1.2.7s.4,0,.5,0,.3-.2.2-.3c-.5-.4-1.1-.7-1.7-.9s-1.3-.2-1.8.2.1.2.2.2c.2,0,.4,0,.5-.2h0Z"/>
      <path class="st9" d="M128.1,105.1h0c.2,0,.4,0,.6,0h0s0,0,0,0c0,0,0,0,0,0h-.4c0,.1,0,.1,0,.1h-.2s0,0,.1,0,0,0,0,0c0,0,0,0,0,0,0,0,.2,0,.3,0,.2,0,.3.2.5.3.2.2.4.6.3.9s.2.1.3.1.2,0,.3,0,.1,0,.1-.1c0-.5-.1-1-.5-1.2s-.4-.3-.7-.3-.3,0-.5,0-.3,0-.5.2-.1.1,0,.2.2,0,.2,0c.1,0,.2,0,.3,0h0c0,0,.2-.2,0-.3s-.4,0-.5,0h0Z"/>
    </g>
    <g>
      <path class="st8" d="M118.9,114.5c0-.5-.1-.9-.1-1.4,0-.4,0-.8.4-1.1.5-.5,1.4-.2,2.1.1-.2-1.8,1.4-3.4,3.2-3.5s3.5,1.2,4.2,2.8c0,.1.1.3,0,.4,0,.2-.1.3-.3.4-.5.4-1.1.6-1.7.8-2.5.7-5.2.8-7.8.9"/>
      <path class="st8" d="M120.4,114.1c0-.3,0-.6,0-.9s0-.6,0-.6c0,0-.3.2-.4.2-.2,0-.3,0-.1,0-.2,0,.2,0,.2,0,.1,0,.3.1.4.2,1,.5,2.4-.3,2.3-1.4s.2-1,.5-1.4c.1-.1.1-.1,0,0,0,0,.1-.1.2-.2,0,0,.4-.2.2-.1,0,0,.6-.2.3-.1.1,0,.3,0,.4-.1-.4,0,.4,0,0,0,.2,0,.4,0,.6,0-.2,0,.2,0,.2,0,0,0,.4.2.4.2.6.3,1,.8,1.4,1.3s.2.3.3.4c0,.1.1.2,0,.1,0,0,0-.2,0-.3,0,0,0,0,0,0,0,0,0,0,0,0,0,0-.2,0-.3.1.1,0,.1,0,0,0-.8.2-1.7.4-2.4.5-1.8.3-3.7.4-5.5.5s-1.5.5-1.6,1.2.7,1.1,1.4,1c1.9,0,3.8-.2,5.6-.5s2-.3,3-.6,2-.7,2.5-1.6c.9-1.4-1-3.4-2.2-4s-3.5-1.1-5.2-.3-3,2.6-2.8,4.5l2.3-1.4c-1.2-.6-2.7-.8-3.8.2s-1,2.4-.8,3.7,1.2.9,1.7.7,1.3-.7,1.2-1.5h0Z"/>
    </g>
    <g>
      <g>
        <path class="st1" d="M114,118.8c1.6-1.9,3.3-3.9,5.7-4.5,1.8-.5,3.7,0,5.5-.3,2.9-.5,5.1-3,7-5.3,1.8-2.2,3.6-4.4,5.3-6.7.5-.7,1-1.3,1.5-2,.2-.3.4-.6.7-.8,5-6.6,14.4-4.5,17.8-4.6.4,0,.8,0,1,.3.2.2.2.5.2.7.2,9.1.6,27.4.6,27.4h-52.4s5.4-2.3,7.1-4.1Z"/>
        <path class="st1" d="M114.7,118.8c1.1-1.2,2.1-2.5,3.5-3.4s3.9-.8,6-.9c3.1-.2,5.4-2.1,7.4-4.3s4.9-5.9,7.2-9,3.8-4.8,7.1-5.8,4.9-.7,7.4-.6,1.8.1,2.8.2.7,0,1.1,0c1.1.2.9,1,.9,1.8.1,5.3.2,10.5.3,15.8s.1,7,.2,10.6l1-.6h-52.4v.7c2.5-1.1,5.5-2.3,7.4-4.3s-.9-.6-1.2-.2c-1.7,1.9-4.4,3-6.8,3.9s-.7.7,0,.7h52.4c.3,0,1-.2,1-.6-.2-8.9-.4-17.8-.6-26.7s-.4-1.9-1.8-1.9-1.8,0-2.7-.1c-2.5-.1-5-.2-7.4.2s-5.2,1.5-7.1,3.4-2.2,2.6-3.2,3.9-2.6,3.2-3.8,4.9-2.8,3.6-4.5,5.1-1.8,1.5-2.9,1.8-2.5.2-3.8.3c-4,0-6.3,2.4-8.8,5.2s1.1.4,1.4,0Z"/>
      </g>
      <g>
        <path class="st17" d="M144.8,122.7c.8-.5,1.4-1,2.1-1.6,1.1-.9,2.6-1.4,4.1-1.2.2,0,.5,0,.7,0,.3-.1.4-.5.5-.8.3-1,1.1-2,2.1-1.8.2,0,.4.1.6,0,.2,0,.3-.2.4-.4.3-.5.6-1,1.1-1.4s1.2-.5,1.7-.2c.6.4.6,1.2.6,1.9,0,1.5,0,3.1,0,4.6,0,.3,0,.6-.3.8-.1.1-.3.1-.5.1-2.9.1-13,0-13,0Z"/>
        <path class="st17" d="M145.3,123c1.4-.9,2.5-2.2,4.1-2.5s1.4,0,2.1,0,1.2-.6,1.4-1.3.5-1.4,1.1-1.4.6.1,1,0,.7-.4.9-.7.7-1.5,1.3-1.5.7,1.5.7,1.9c0,.9,0,1.8,0,2.7s0,.9,0,1.4,0,.3,0,.4c0,.2,0,.2,0,.1,0,0,0,0-.1,0-.3,0-.7,0-1,0-.5,0-.9,0-1.4,0-2.1,0-4.2,0-6.3,0s-2.7,0-4,0-.9,0-1,.5.1.6.5.6c3.9,0,7.8.1,11.6.1s2.4.2,3-.7.2-1.7.2-2.4c0-1,0-2.1,0-3.2s0-1.4-.6-1.9-1.4-.6-2.1-.4-1.4.8-1.9,1.5-.3.4-.3.6c0-.2.4,0,0-.1s-1,0-1.3.2c-.8.3-1.3,1-1.6,1.8s-.2.4-.2.5c-.2.2-.1.3.1.3-.1,0-.3,0-.4,0-.5,0-1,0-1.5,0-.9.1-1.8.5-2.6,1s-1.7,1.4-2.7,2-.4.5,0,.8.8,0,1.1-.1Z"/>
      </g>
    </g>
    <g>
      <path class="st31" d="M130.9,47.1c1.6,1.4,3.4,2.4,5.2,3.3s3.9,2,6.1,2.2.4,0,.5-.1.1-.2,0-.2c-2.1-.2-4.1-1.3-5.9-2.2s-3.6-1.9-5.1-3.2-.8.1-.7.3h0Z"/>
      <path class="st31" d="M137.8,45.8c.8,1.7,1.8,3.3,2.8,4.8s1.1,1.5,1.7,2.2,1.1,1.1,1.9,1.4.9-.3.4-.4c-.8-.2-1.4-.8-1.9-1.5s-1.1-1.4-1.6-2.1c-1-1.4-1.9-3-2.7-4.6s-.8,0-.7.2h0Z"/>
      <path class="st31" d="M121,28.5c0,2.1,2.2,3.7,4,4.5s4.7,1.2,7.1,1.2.8-.5.3-.5c-2.2,0-4.6-.2-6.6-1.1s-4-2.2-3.9-4.2-.7-.2-.7,0h0Z"/>
      <path class="st31" d="M127,28.2c2,4.5,6.3,8,11.1,9.2s1.4-.9.5-1.1c-4.3-1-8.3-4.5-10.1-8.5s-1.7-.2-1.4.4h0Z"/>
      <path class="st31" d="M129.6,17.4c2.9,2.1,5.9,4.3,7.8,7.4s2.7,6.7,3.5,10.1,1.6.3,1.4-.4c-.8-3.6-1.7-7.2-3.6-10.4s-5-5.5-8-7.6-1.8.3-1.1.8h0Z"/>
      <path class="st31" d="M136.3,21.1c-.2-2.3,0-4.6.3-6.8s-.7,0-.7.1c-.4,2.3-.5,4.6-.3,6.9s.7,0,.7-.2h0Z"/>
      <path class="st31" d="M144.6,15.1c.9,6.3,1.3,12.7,1.3,19s1.5.6,1.5-.1c0-6.5-.4-12.9-1.3-19.3s-1.5-.3-1.4.4h0Z"/>
      <path class="st31" d="M150.3,23.4c0,3.3-.3,6.7-.7,10l.7-.2c0,0-.2-.2-.3-.3-.1-.1-.8.1-.7.3,0,0,.2.2.3.3.1.1.7,0,.7-.2.4-3.3.6-6.7.7-10s-.7,0-.7.2h0Z"/>
      <path class="st31" d="M151.2,27.9l3.1-2.6c.9-.7,1.9-1.4,2.4-2.5s-.2,0-.3,0c-.1,0-.4,0-.4.2-.5,1.1-1.5,1.8-2.4,2.5s-2,1.7-3,2.5.1.1.2.1c.2,0,.4,0,.5-.2h0Z"/>
      <path class="st31" d="M157.4,31.6c1.5-2.4,2.9-4.9,4-7.5s-.5-.1-.6-.1c-.2,0-.7.1-.9.4-1.1,2.6-2.5,5.1-4,7.5s.5.1.6.1c.3,0,.7-.1.9-.4h0Z"/>
      <path class="st31" d="M148.5,50.9c1.3-5.3,6.3-8.9,6.9-14.4s-1.4,0-1.4.4c-.6,5.4-5.6,9.1-6.9,14.3s1.3,0,1.4-.3h0Z"/>
      <path class="st31" d="M149.6,47.7c.8-.7,1.7-1.5,2.5-2.2s1.3-1.1,2-1.5,1.4-.6,2.2-.9c2.6-1.1,3.8-3.5,4.9-5.9s-.6-.3-.7,0c-.5,1.2-1,2.4-1.8,3.5s-2.2,1.9-3.6,2.5c-2.4.9-4.1,2.7-6,4.4s.4.3.6.2h0Z"/>
      <g>
        <path class="st31" d="M142.3,37.3c2.9,6.8,2.7,14.5,1.9,21.8-.2,2.3-.7,5.6-2.9,6.4,3.1-.2,6.2-.3,9.3-.2-1.6-2.5-2-6.1-2.1-9.1-.2-5.9-.3-11.9-.4-17.8,0-.4,0-.8-.3-1-.2-.2-.4-.3-.7-.4-1.1-.3-2.2-.3-3.3,0"/>
        <path class="st31" d="M141.9,37.4c2,4.8,2.6,10.1,2.4,15.3s-.3,4.8-.5,7.2-.6,4.6-2.6,5.4-.2.5.1.5c3.1-.2,6.2-.3,9.3-.2s.5-.2.4-.4c-1.4-2.4-1.8-5.3-2-8s-.2-6.2-.3-9.4,0-6.3-.2-9.4-3-2.1-4.7-1.7-.3.6.1.5c.8-.2,1.5-.3,2.3-.1,1.4.2,1.5,1.4,1.5,2.6s0,2.8,0,4.2c0,2.8.1,5.6.2,8.4.1,4.4,0,9.3,2.3,13.2l.4-.4c-3.1,0-6.2,0-9.3.2v.5c1.8-.7,2.5-2.4,2.9-4.1.5-2.5.6-5.1.8-7.6.3-5.7-.1-11.5-2.4-16.8s-.9-.1-.7.2h0Z"/>
      </g>
    </g>
    <g>
      <path class="st20" d="M112,26c.7-.1,1.5-.2,2.2-.4.8-.3,1.6-.9,2.3-1.4,3.8-2.5,8.7-2.6,13.2-1.6,1.1.2,2.1.5,3,1.2.6.5,1.1,1.1,1.8,1.4,1,.6,2.3.5,3.4.6,2.5.3,4.8,1.7,6.2,3.8-1.9.3-3.8.2-5.8,0-8.3-.4-30.9.3-32.6.5-1.1,0,2.9-3.5,6.3-4.1Z"/>
      <path class="st20" d="M111.9,26.3c1.3-.2,2.4-.4,3.5-1.1s2.5-1.7,4-2.2c2.9-1,6.1-1,9.1-.4s3.1.7,4.4,1.8,1.8,1.3,3,1.5,2.8.2,4.2.8,2.6,1.7,3.5,3l.4-.4c-3.5.5-7.1,0-10.6,0s-6.6,0-9.9,0c-5.6,0-11.2.2-16.7.5s-.6,0-.9,0-.2,0-.2,0c.1.2.7-.5.8-.6,1.5-1.4,3.5-2.5,5.6-2.9s.3-.6-.1-.5c-1.9.4-3.6,1.3-5.1,2.5s-2,1.4-1.6,2,1.1.1,1.4,0c1,0,2.1,0,3.1-.1,7.1-.3,14.3-.4,21.4-.4s3.5,0,5.3,0c2.6,0,5.1.4,7.7,0s.5-.2.4-.4c-1.5-2.1-3.8-3.6-6.4-3.9s-1.6,0-2.4-.2-1.7-.9-2.4-1.5-2.3-1.2-3.7-1.5c-2.8-.6-5.8-.7-8.6-.2s-2.7.8-4,1.5-1.1.7-1.7,1.1c-1,.7-2,.9-3.3,1.1s-.6.6,0,.5Z"/>
    </g>
    <g>
      <path class="st20" d="M125.5,11c3.2-.5,6.3-1.2,9.5-1.7,2.5-.4,5-.9,7.6-.9s5.2.6,7.2,2.2c.4.3.8.7,1.3.8.6.1,1.2,0,1.8-.2,2.5-.3,4.6,1.8,6,3.9.2.3.3.6.2.9-.1.2-.4.2-.6.3-1.4.2-2.9.3-4.3.4-6.3.3-12.6.5-18.9.8-5.7.2-11.4.5-17,.7-.4,0-.9,0-1.2-.2s2.6-6,8.5-6.9Z"/>
      <path class="st20" d="M125.4,11.2c3.2-.5,6.3-1.2,9.5-1.7s6.5-1.3,9.8-.8,2.6.6,3.7,1.3,1.7,1.6,3,1.6,1.5-.3,2.3-.2,1.6.5,2.2,1,1,.8,1.4,1.3,1.3,1.3,1.3,1.8c0,1.1-4.6.9-5.4,1-1.7,0-3.3.1-5,.2-3.3.1-6.6.3-9.9.4-6.3.3-12.7.6-19,.8s-1.9.2-1.9-.3.1-.4.2-.5c.3-.7.8-1.3,1.2-1.9,1.7-2.1,4-3.6,6.7-4s.6-.5.1-.4c-2.3.4-4.5,1.4-6.2,3s-2.4,2.3-2.7,3.7-.1.5.3.7,1,0,1.5,0c1.1,0,2.3,0,3.4-.1,3.9-.2,7.8-.3,11.7-.5s8.3-.4,12.4-.5,7.6-.1,11.4-.6,1.9,0,2-.9-.5-1-.7-1.3c-.5-.7-1.1-1.4-1.8-2s-2-1.3-3.2-1.3-1.1.2-1.7.2c-1.3,0-2-.9-3-1.5-3.1-1.8-6.8-1.7-10.2-1.2s-8.8,1.6-13.3,2.3-.6.4-.1.4Z"/>
    </g>
    <g>
      <path class="st20" d="M131,40.3c.3-.7,1.3-2,2.3-2.6-.5-.5-.4-1.4,0-2s1.9-2.3,2.6-2.6c2.8-1.1,5-.7,7.8-1.8.2,0,.5-.2.7-.2.3,0,.6.2.9.3,1.4.5,2.9-.1,4.3-.4,3.1-.8,6.6-.2,9.3,1.5s5.9,2.9,5.5,7.7c-1.7,1.7-4.1.3-6.1.4-.8,0-1.8,0-2.4-.5-.3-.2-.4-.5-.7-.7-.7-.4-8.8,1.7-10.8,1.2-.6-.2-1.2-.5-1.9-.5-.6,0-1.3,0-1.9.3-2.7.7-5.5,1.2-8.2,1.4-.8,0-1.6-.7-1.3-1.4Z"/>
      <path class="st20" d="M131.3,40.2c.5-1,1.3-1.8,2.2-2.4s.2-.1.1-.2c-.9-1.1.3-2.2,1-3s.7-.8,1.2-1.1c.8-.5,2-.7,2.9-.9s2.5-.3,3.7-.7,1.2-.5,1.8-.4,1.1.3,1.7.3c1.2,0,2.3-.3,3.4-.6,1.8-.4,3.6-.5,5.4-.1s4.6,1.8,6.6,3.2,2.9,3,2.7,5.1-3.1,1.2-4.5,1-1,0-1.5,0c-1.1,0-1.5-.3-2.3-.9s-1.9-.2-2.7,0c-1.8.3-3.6.6-5.4.9s-1.8.3-2.7.2-1.9-.7-2.9-.6c-1.7,0-3.4.8-5.1,1.1s-6,1.4-5.6-.6-.7-.1-.7.1c-.2,1,.7,1.6,1.6,1.6,2,0,4-.5,6-.9s1.6-.4,2.4-.5,1.8-.2,2.7,0,.6.2.9.3c.7.1,1.5,0,2.3,0,2.3-.2,4.5-.7,6.7-1s.8-.2,1.2-.2c.6,0,.7.3,1.2.7,1.1.9,2.6.4,3.9.6s2.5.6,3.8.2.8-.3,1.2-.6.4-.8.4-1.4c0-2.6-1.5-4.3-3.7-5.6s-5-2.9-8-3-3.2.3-4.8.7-1.8.3-2.7,0-.4-.2-.6-.2c-.5-.1-.9,0-1.4.2-3,1-6.9.6-9.3,3s-1.9,1.8-1.7,3.1.2.3.1.6-.7.6-.9.8c-.5.5-.9,1.1-1.2,1.7s.6.1.7-.1Z"/>
    </g>
    <g>
      <path class="st20" d="M125.9,45.7c.4.2.8.4,1.2.4.3,0,.6-.1.8-.2,2.8-1.1,5.7-2.1,8.6-2.3,3-.2,6.1.4,8.6,2.1.3.2.7.7.5,1-7.6.7-15.2.7-22.8,0,0,0,1.4-1.6,3-1Z"/>
      <path class="st20" d="M125.6,46c1.3.6,1.9.4,3.2-.2,1.8-.7,3.8-1.3,5.7-1.7s3.6-.4,5.4,0,1.8.4,2.6.7,2.8,1.1,2.7,2l.4-.3c-7.6.7-15.2.7-22.7,0l.2.4c.6-.7,1.5-1.1,2.5-.8s.9-.3.4-.5c-1.3-.4-2.7.1-3.6,1.1s0,.3.2.4c7.6.8,15.3.8,22.9,0s.4-.1.4-.3c.2-1.3-2-2.1-3-2.5-1.7-.7-3.5-.9-5.3-.9s-3.7.3-5.5.8-1.8.5-2.6.8-2.3,1.1-3.6.5-.9.3-.4.5Z"/>
    </g>
    <g>
      <path class="st20" d="M142.4,22.5c1.3-.9,2.7-1.7,4.1-2.4.8-.3,1.6-.6,2.4-.3.2.1.4.3.7.3.3,0,.5-.1.7-.2,1-.6,2-1.1,3.1-1.2,1.9-.3,3.8.4,5.6,1.1,1.8.7,3.8,1.4,5,2.9.1.2.3.4.3.6,0,.2-.2.3-.3.4-.7.5-1.6.6-2.4.6-4.1.3-8.3.6-12.4.9-2.8.2-5.7.3-8.1-1,.3-1.3,1.3-1.8,1.3-1.8Z"/>
      <path class="st20" d="M142.6,22.6c.9-.6,1.9-1.2,2.9-1.7s.9-.5,1.3-.6c1-.4,1.1-.3,2.2,0s2.5-.8,3.8-1.2c2.2-.6,4.4.3,6.4,1.1s1.8.7,2.6,1.2.6.4.9.6c.3.2.5.4.8.7.4.2.3.5-.1.8-.5.7-1,.6-1.8.7s-.9,0-1.4.1c-1.1,0-2.1.2-3.2.2-2.1.2-4.1.3-6.2.4s-3.9.3-5.9.2-1-.1-1.5-.2-1.6-.3-1.8-.6c-.4-.6.4-1.4.8-1.6s0-.6-.3-.4c-.8.4-1.3,1.2-1.5,2s0,.1,0,.2c3.1,1.6,6.6,1.2,10,.9s4.1-.3,6.2-.4,3.9-.1,5.7-.5,2.3-.5,2-1.6-.8-.9-1.2-1.2c-.7-.6-1.5-1-2.4-1.4-2.8-1.3-6.1-2.6-9.2-1.4s-1.7,1-2.8.8-1-.3-1.7-.1c-1.9.4-3.8,1.7-5.3,2.8s.2.5.5.3Z"/>
    </g>
    <g class="st24">
      <path class="st14" d="M144.7,23.2c.5-.5,1-.9,1.7-1.2s.6-.3.9-.3.3,0,.5-.1h.2c.3,0,.3,0,0,0l-.4-.2c.2.2.2.5.4.7s.6.4.9.4c.9.2,1.8-.1,2.6-.5s.5-.4.9-.4.7,0,1,0c.9.2,1.7.4,2.6.4s1.2-.1,1.4-.6-.2-.8-.6-.7c-1.4,0-2.7-.6-4.1-.5s-1.4.4-2,.7-.3.2-.4.3-.2,0-.1,0,0,0,0,0c0,0-.1-.1-.1-.2-.1-.2-.2-.4-.4-.6s-.7-.2-1.1-.2c-.7,0-1.4.3-2.1.5-1.3.5-2.4,1.2-3.4,2.2s-.2.7.2.9,1.2,0,1.5-.4h0Z"/>
      <path class="st14" d="M122.9,16.2c1.3-1.5,3.1-2,5-2.5s2.5-.5,3.8,0,1.7.9,2.5,1.4,1.4,0,1.7-.3c4.3-4.2,11.7-2.8,16.8-1.3s2.6-.9,1.3-1.2c-6.3-1.8-14.8-2.9-19.9,2.2l1.7-.3c-1.1-.8-2.3-1.5-3.6-1.8s-2.9,0-4.3.3c-2.5.5-5,1.4-6.8,3.3s1.2,1,1.8.4h0Z"/>
      <path class="st14" d="M114.3,27c2-1.6,3.9-2.7,6.4-3.2s2.4-.5,3.6-.3,2.3.7,3.3,1.4,1.4,1.3,2.2,1.5,1.6-.3,2.3-.2c2.2,0,4.7.7,6.6,1.7s1,0,1.4,0,1-.5.6-.7c-2.2-1.2-5-1.7-7.5-1.9s-1,0-1.5,0-.9.3-1,.3l.3-.3-.3-.3c-.7-.9-2.2-1.5-3.3-1.9-2.4-1-5.1-.4-7.6.2s-5.1,2-7.3,3.7,1.3.5,1.7.1h0Z"/>
      <path class="st14" d="M128.9,46.4c.9-.1,1.8-.4,2.7-.8s1.4-.6,2.1-.7,1.8,0,2.7,0,2,.2,3,.3,1.1-.1,1.5-.4.3-.4-.1-.5c-2-.2-4.2-.5-6.2-.3s-1.9.4-2.8.8-1.6.7-2.4.8-1.2.2-1.3.6.7.2.9.2h0Z"/>
      <path class="st14" d="M135.9,38.7c.6-1.4,1.5-2.6,2.8-3.5s1.3-.7,2.2-.4,1.4.2,1.8.7,1.1.2,1.4,0c2.5-1.4,5.4-2.2,8.3-2.2s5.3,1.7,7.4,3.8,2.6-.3,2-.9c-2.4-2.4-5.1-4.2-8.6-4.3s-6.9.9-10,2.5h1.4c-.6-.8-2-.9-2.9-1.2s-2.1-.1-3,.3c-2.2,1-3.9,2.8-4.9,4.9s1.7.8,2,.1h0Z"/>
    </g>
    <path class="st22" d="M86.8,79.4c.2-.3.5-.6.8-.8s.4-.3.6-.2.4.2.5.3c.6.5,1.1,1,1.6,1.6v-.2c-.2.2-.8.4-.8.8s.2.4.3.5l.6.8c.1.2.5,0,.6,0,.8-.7,1.6-1.3,2.4-2s.1-.1,0-.2l-1.1-.9c-.1-.1-.4,0-.6,0-.5.3-1,.6-1.4,1s0,.2,0,.3.4,0,.5-.1c.4-.3.9-.6,1.3-.9h-.6c.4.3.8.6,1.1,1v-.2c-.7.7-1.5,1.4-2.3,2h.6c-.1-.3-.3-.5-.4-.7s-.3-.4-.4-.6c0-.3.4-.5.6-.7s0-.1,0-.2c-.3-.5-.7-.9-1.1-1.3s-.8-.7-1.2-.8c-1-.3-2,.8-2.5,1.5s0,.2.2.2c.2,0,.4,0,.5-.2h0Z"/>
    <path class="st22" d="M90.9,80.1l-.6.5s-.1,0-.1.1c0,0,0,0,0,0,.2.2.3.9.6,1.1.7-.4,1.7-1.3,2.3-1.8,0,0,0,0,0,0-.2,0-.4-.1-.6-.3,0,0-.8-.5-.8-.4"/>
    <path class="st22" d="M85.9,78.9l-.5-.4s0,0-.1,0c0,0-.3-.1-.3,0-.2.2-.4.5-.5.7.4.5,1.2,1.1,1.6,1.6s0,0,0,0c0-.2,0-.3.1-.5,0,0,.3-.6.2-.7"/>
    <path class="st13" d="M80.8,84.4s0,0,0,0h0c0,0,.1.2.2.3s0,.2,0,.3,0,0,0,0c0,0,.1,0,.2,0s.1,0,.1,0,0,0,0,0c0-.1,0-.3-.1-.4s-.1-.2-.2-.4,0,0-.1,0c0,0-.1,0-.2,0s0,0-.1,0,0,0,0,0h0Z"/>
    <path class="st13" d="M80.9,83.2c.1,0,.2.2.3.3h0c.1.1.2.3.3.4s0,0,0,0c0,0,.1,0,.2,0s.1,0,.1,0,0,0,0,0c-.2-.3-.4-.5-.6-.7s0,0-.1,0c0,0-.1,0-.2,0s-.2,0-.1.1h0Z"/>
    <path class="st13" d="M81.1,81.7c.2.2.3.4.5.6s0,0,.1,0c0,0,.1,0,.2,0s.2,0,.1-.2c-.2-.2-.3-.4-.5-.6s0,0-.1,0c0,0-.1,0-.2,0s-.2,0-.1.2h0Z"/>
    <path class="st13" d="M82.2,82.2s0,0,.1,0c0,0,0,0,0,0s0,0,0,0c0,0,0,0,0,0,0,0,.2-.1.2-.1s.2,0,.2-.1.2-.1.2-.2,0,0,0,0,0,0,0,0c0,0-.2,0-.3,0s0,0,0,0,0,0,0,0c0,0,0,0,0,0,0,0,0,0-.1,0,0,0-.2,0-.2.1-.2.1-.3.2-.5.3s0,0,0,0,0,0,0,0c.1,0,.2,0,.3,0h0Z"/>
    <path class="st13" d="M82.2,83c.3-.1.5-.3.8-.4s0,0,0,0,0,0,0,0c-.1,0-.2,0-.3,0s-.1,0-.2.1,0,0,0,0,0,0,0,0c0,0,0,0,0,0-.1,0-.2.1-.4.2s-.1,0,0,.1.2,0,.3,0h0Z"/>
    <path class="st13" d="M81.7,84.1c.4-.2.9-.4,1.3-.6s.1,0,0-.1-.2,0-.3,0c-.4.2-.9.4-1.3.6s-.1,0,0,.1.2,0,.3,0h0Z"/>
    <path class="st13" d="M81.6,84.8c.2-.1.4-.2.7-.3s0,0,.1,0,0,0,0,0c0,0-.2,0-.3,0-.2,0-.4.2-.7.3s0,0-.1,0,0,0,0,0c0,0,.2,0,.3,0h0Z"/>
    <path class="st10" d="M78.1,81.8c-.3.5,1.2,2,1.7,1.9.2-.2-.9-1.8-.8-1.8.5.5,1,1.5,1.6,1.2.1-.2-.4-1.1-.9-1.6.6.6,1,.9,1.7,1.4,0,0,.2.1.3.1.2,0,.3-.2.2-.4s-.1-.3-.2-.4c-.5-.5-.8-.9-1.2-1.5.7.7,2.1,1.7,2.4,1.4s-1.4-2.4-2-2.4c-1.5,0-2.4,1.6-2.7,2.1Z"/>
  </g>
</svg>