<?xml version="1.0" encoding="UTF-8"?>
<svg xmlns="http://www.w3.org/2000/svg" xmlns:xlink="http://www.w3.org/1999/xlink" version="1.1" viewBox="0 0 159.23 221.82">
  <!-- Generator: Adobe Illustrator 29.0.0, SVG Export Plug-In . SVG Version: 2.1.0 Build 186)  -->
  <defs>
    <style>
      .st0 {
        fill: none;
      }

      .st1 {
        fill: #151312;
      }

      .st2 {
        fill: #1a1512;
      }

      .st3 {
        fill: #009b65;
      }

      .st4 {
        fill: #efb58e;
      }

      .st5 {
        fill: #3b605a;
      }

      .st6 {
        fill: #6d6f77;
      }

      .st7 {
        mix-blend-mode: multiply;
        opacity: .44;
      }

      .st8 {
        fill: #ae3034;
      }

      .st9 {
        fill: #e3e4e2;
      }

      .st10 {
        fill: #545559;
      }

      .st11 {
        fill: #e48152;
      }

      .st12 {
        fill: #565559;
      }

      .st13, .st14 {
        opacity: .2;
      }

      .st13, .st15 {
        fill: #dc7d3b;
      }

      .st16 {
        isolation: isolate;
      }

      .st17 {
        fill: #4ca87c;
      }

      .st18 {
        clip-path: url(#clippath-1);
      }

      .st19 {
        clip-path: url(#clippath-2);
      }

      .st20 {
        fill: #cea552;
      }

      .st21 {
        fill: #181717;
      }

      .st22 {
        fill: #3d3f42;
      }

      .st23 {
        fill: #708185;
      }

      .st24 {
        fill: #221f20;
      }

      .st25 {
        fill: #3e776e;
      }

      .st26 {
        fill: #822a2a;
      }

      .st27 {
        fill: #383535;
      }

      .st28 {
        fill: #141518;
      }

      .st29 {
        fill: #225c7a;
      }

      .st30 {
        fill: #363332;
      }

      .st31 {
        fill: #d93832;
      }

      .st32 {
        clip-path: url(#clippath);
      }
    </style>
    <clipPath id="clippath">
      <polygon class="st0" points="258.5 65.61 187.46 64.86 187.46 121.84 258.5 122.59 258.5 65.61"/>
    </clipPath>
    <clipPath id="clippath-1">
      <rect class="st0" x="-.77" y="20.27" width="42.08" height="56.43"/>
    </clipPath>
    <clipPath id="clippath-2">
      <rect class="st0" x="122.38" y="49.92" width="36.85" height="59.65" transform="translate(281.61 159.48) rotate(-180)"/>
    </clipPath>
  </defs>
  <g class="st16">
    <g id="Layer_1">
      <g class="st32">
        <g>
          <path class="st17" d="M211.95,120.25c-9.17-.7-57.94.33-62.49.59-1.12-3.42-1.47-7.04-1.78-10.63-.39-4.51-.74-9.02-1.03-13.53l-.92-6.87c1.46-2.07,2.36-4.48,3.51-6.74,1.15-2.26,2.65-4.47,4.88-5.68.93-.5,1.97-.82,2.79-1.49,1.22-.98,1.78-2.55,2.69-3.84,1.39-1.97,3.86-3.3,6.23-2.85.89.17,1.73.57,2.63.69,2.66.33,5.1-1.89,7.78-1.72,2.55.17,4.47,2.43,6.92,3.17,1.25.38,2.62.36,3.77.95,1.85.96,2.62,3.19,4.16,4.58,1.75,1.58,4.41,2.02,5.85,3.88,1.35,1.74,1.29,4.28,2.69,5.97,1.53,1.85,4.37,2.16,5.93,3.98.97,1.13,1.29,2.66,1.78,4.06.74,2.13,1.23,2.03,7.5,8.48,6.27,6.45-2.9,16.97-2.9,16.97Z"/>
          <path class="st3" d="M181.18,78.1c-.98-1.02-1.93-2.24-3.07-3.1-1.35-1.02-3.26-.9-4.75-.25-1.3.57-2.46,1.65-2.83,3.05-.35,1.33.16,2.67.71,3.86l4.32-2.44c-3.03-1.2-6.25-3.01-9.53-1.56-2.93,1.29-4.23,4.3-4.03,7.36l5.22-1.88c-1.98-3.11-6.34-4.74-9.73-3.01-1.77.9-2.52,2.61-2.59,4.53-.03.86.04,1.75.26,2.59.29,1.12.65,1.81,1.76,2.26s3.11-.08,3.84-1.03c.37-.48.71-.98.51-1.61-.32-.98-1.55-1.16-2.43-1.09h-.08c-1.12.09-2.85.8-3.03,2.08s1.5,1.64,2.46,1.57h.08c-.81-.37-1.62-.74-2.43-1.1l.04.12.48-1.41-.07.09,3.84-1.03-.18-.07.9.56c-.39-.63-.46-1.7-.45-2.42,0-.46.19-.96.18-1.41,0-.13.03-.23.1-.31-.37.38-.8.59-1.29.63-.14.1-.23.11-.27.02.21.05.41.11.61.18.33.12.61.28.91.48.67.44,1.16,1.04,1.59,1.71.62.98,2.44.73,3.31.41,1.04-.39,1.99-1.09,1.91-2.29-.04-.68.09-1.44.35-2.07.04-.11.54-.87.53-.92-.02-.07-.96.06-.9.19.02.06.94.29,1.05.33.41.15.81.32,1.22.48.89.35,1.78.71,2.68,1.06s2.26.03,3.06-.45c.55-.33,1.63-1.19,1.26-1.99-.28-.6-.59-1.22-.7-1.88-.05-.26,0-.51-.03-.77-.05-.39.51-.23-.13-.03l-2.17.27c.06.03.1.07.14.12.13.25.46.48.67.69l1.71,1.78c.92.96,2.55.8,3.66.28.78-.36,2.27-1.62,1.34-2.59h0Z"/>
          <path class="st3" d="M171.24,101.14c-1.49-.42-2.74-1.02-4.35-.83-1.73.21-3.8,1.18-4.26,3.03-.31,1.23.2,2.44.62,3.57.53,1.45,1.07,2.91,1.6,4.36l5.22-1.86c-1.27-1.2-2.63-2.31-4.1-3.25-1.55-.99-3.27-1.98-5.14-2.14-2.11-.17-4.58.72-5.61,2.68-.82,1.55-.41,3.2.18,4.74l5.22-1.86c-1.39-1.36-3.02-2.98-4.82-3.77-2.63-1.17-5.36.35-6.91,2.48-1.1,1.51-1.94,3.53-.9,5.29,1.25,2.12,4.02,2.12,6.05,1.29.87-.36,2.16-1.51,1.36-2.51s-2.64-.66-3.65-.24c2.13-.88,1.87.36,1.37-.59-.18-.35-.15-.74-.06-1.11.11-.45.35-.84.59-1.22.09-.14.22-.27.29-.41.3-.55.39.13-.92.19l-1.31-.1c.72.13,1.42.84,1.99,1.28.67.53,1.29,1.11,1.9,1.7.86.84,2.25.76,3.29.37.76-.28,2.34-1.16,1.93-2.23-.19-.5-.39-.99-.51-1.51-.11-.48,0-.8-.03-1.25,0-.03.12-.23.11-.25.08.11-1.51.55-1.53.57-.3-.03-.27-.01.11.07l.3.1c.18.07.34.16.51.25,1.92.99,3.69,2.24,5.25,3.72.87.83,2.23.76,3.29.37.77-.28,2.33-1.15,1.93-2.23-.66-1.79-1.35-3.56-1.97-5.36-.1-.3-.23-.62-.26-.94-.05-.11-.05-.23-.03-.34.09-.33.05-.34-.11-.01-.61.63-1.24.85-1.89.64.23.06.45.13.66.21.44.15.87.33,1.32.46,1.27.36,2.93-.06,3.84-1.03.82-.87.56-1.97-.62-2.3h0Z"/>
        </g>
      </g>
      <g>
        <g class="st14">
          <path class="st15" d="M79.37,21.53c13.17-.54,25.04,9.61,32.3,20.61s9.94,24.73,8.39,37.82c-.99,8.33-4.08,17.07-11.05,21.72-6.22,4.15-14.25,4.25-21.7,3.63-10.02-.83-20.14-2.74-28.98-7.53s-16.31-12.79-18.68-22.56c-1.33-5.49-1.02-11.26.02-16.81,1.79-9.61,5.87-18.98,12.75-25.93,0,0,9.91-10.27,26.96-10.96Z"/>
        </g>
        <rect class="st13" x=".43" width="158.8" height="221.82"/>
        <g>
          <g class="st18">
            <g>
              <g>
                <path class="st5" d="M-5.22,28.69c3.98-3.79,10.91-7.49,16.39-7.98,1.41-.13,3.31.28,3.39,1.69.03.57-.28,1.09-.58,1.58-.96,1.54-1.91,3.07-2.87,4.61,6.78-.33,13.6.32,20.2,1.92,1.89.46,3.84,1.04,5.27,2.36s2.14,3.61,1.14,5.27c-.81,1.34-2.44,1.91-3.94,2.37-4.13,1.28-8.26,2.57-12.39,3.85,4.21.1,8.38,1.37,11.93,3.63.79.5,1.58,1.09,1.96,1.95.59,1.35-.08,2.99-1.18,3.97-1.11.98-2.56,1.44-3.97,1.88,1.05,1.71,2.59,3.08,3.69,4.76,1.1,1.68,1.7,3.95.68,5.68-.89,1.51-2.81,2.16-4.56,2.04-1.75-.12-3.38-.87-4.97-1.61-4.92-2.29-9.85-4.58-14.77-6.87,3.05,2.51,5.24,6.05,6.13,9.89.29,1.23.44,2.54.03,3.73-.91,2.65-4.37,3.7-7.04,2.82-2.66-.88-4.63-3.13-6.25-5.42-7.45-10.56-10.32-24.23-7.76-36.89"/>
                <path class="st5" d="M-4.89,28.65c3.41-3.2,7.71-5.69,12.19-7.05,1.68-.51,5.35-1.69,6.63.16.7,1.02-.32,2.26-.85,3.12-.78,1.26-1.57,2.51-2.35,3.77-.06.09.18.08.2.07,4.37-.2,8.75,0,13.08.59,2.03.28,4.05.65,6.05,1.11,1.85.42,3.8.86,5.39,1.96,1.34.93,2.34,2.42,2.34,4.09,0,2.31-2.07,3.29-3.99,3.9-4.18,1.33-8.37,2.61-12.56,3.91-.11.03-.4.21-.12.22,4.04.14,8,1.27,11.45,3.38,1.56.96,3.01,2.24,2.36,4.25-.71,2.18-2.98,2.96-4.96,3.58-.03,0-.29.11-.25.18,1.48,2.31,3.87,4.12,4.65,6.84.35,1.23.35,2.61-.38,3.71-1.26,1.89-3.74,1.92-5.71,1.32-3.04-.93-5.95-2.59-8.83-3.93s-5.97-2.78-8.95-4.17c-.14-.06-.83.14-.71.25,3.31,2.79,6.1,7.1,6.38,11.54.17,2.64-1.57,4.71-4.24,4.92-2.29.19-4.36-1.05-5.96-2.58-3.18-3.05-5.46-7.33-7.2-11.33s-3.03-8.57-3.63-13.06c-.68-5.17-.52-10.43.5-15.55.03-.15-.7-.04-.74.14-2.02,10.21-.64,20.98,3.89,30.36,1.13,2.34,2.46,4.6,3.97,6.72,1.36,1.91,2.96,3.8,5.1,4.86,2.71,1.34,7.02.94,8.57-2.02,1.22-2.32.07-5.48-.93-7.68-1.15-2.54-2.88-4.76-5.01-6.56l-.71.25c3.73,1.74,7.46,3.47,11.19,5.21,2.91,1.35,6.28,3.56,9.62,3.29,2.21-.18,4.46-1.43,4.71-3.84.38-3.65-3.1-6.13-4.86-8.87l-.25.18c2.41-.76,6.43-2.37,5.53-5.69-.42-1.53-2.14-2.4-3.41-3.09-1.6-.88-3.31-1.56-5.08-2.05-.98-.27-1.98-.47-2.98-.61-.35-.05-2.19-.02-2.31-.14.16.16,2.82-.88,3.1-.96,1.11-.35,2.22-.69,3.33-1.04,2.06-.64,4.14-1.23,6.18-1.93,1.16-.4,2.37-.9,3.17-1.86,2.22-2.67-.41-5.97-2.94-7.11-3.45-1.56-7.63-2.05-11.36-2.51-1.98-.24-3.97-.4-5.96-.48-1.03-.04-2.05-.06-3.08-.05-.44,0-2.58.25-2.69-.1-.15-.49,1.27-2.21,1.56-2.68.53-.84,1.39-1.84,1.59-2.84.25-1.25-.86-1.91-1.92-2.12-2.87-.56-6.34.83-8.92,1.93-3.49,1.49-6.82,3.55-9.6,6.16-.15.14.54.06.67-.06h0Z"/>
              </g>
              <path class="st25" d="M-2.42,32.72c4.04-4.47,8.84-8.17,14.2-10.93.29-.15.14-.25-.08-.29-.32-.06-.78.14-1.06.28-5.42,2.8-10.31,6.55-14.41,11.08-.21.24.19.22.34.21.29-.02.79-.12,1-.35h0Z"/>
              <path class="st25" d="M-1.23,38.35c12.25-2.59,24.81-3.77,37.23-1.72.45.07,1.75-.64.93-.77-12.8-2.11-25.72-.86-38.34,1.8-.91.19-.71.88.19.69h0Z"/>
              <path class="st25" d="M-4.55,43.71c5.57.75,11.2.93,16.74,1.8,7.14,1.12,13.9,3.65,20.37,6.82.51.25,1.85-.46,1.17-.8-6.49-3.19-13.24-5.72-20.39-6.9-5.74-.95-11.58-1.12-17.34-1.89-.66-.09-1.55.84-.55.98h0Z"/>
              <path class="st25" d="M-4.88,45.35c12.5,6.01,25.39,11.77,35.88,21.06.34.3,1.72-.26,1.4-.55-10.54-9.34-23.5-15.12-36.07-21.16-.37-.18-1.74.39-1.21.65h0Z"/>
              <path class="st25" d="M-.55,59.34c5.29,4.12,8.73,9.98,12.93,15.1.35.42,1.78-.11,1.38-.6-4.2-5.12-7.64-10.98-12.93-15.1-.44-.34-1.82.26-1.38.6h0Z"/>
            </g>
          </g>
          <g class="st7">
            <path class="st25" d="M132.18,63.62c-3.31-.41-8.39,1.28-8.39,5.28,0,1.95,1.35,3.39,2.98,4.27,1.83.99,4.04,1.2,6.07,1.42,1.11.12,2.22.22,3.34.3.82.06,1.64.11,2.46.15.21.01.99.12.09,0,.66.09-.48-.06-.63-.41l.92-1.67c-.55.41.48-.25.08-.04-.15.07-.29.16-.43.24-.44.26.89-.36.2-.11-.15.06-.32.11-.47.18,1.32-.6.11-.05-.31.06-.37.1-.74.18-1.12.27-1.82.42-3.66.85-5.38,1.62-2.06.92-4.29,2.17-5.33,4.28-.85,1.74-.19,3.68.92,5.11.42.54,1.75.59,2.3.59,1.11,0,2.39-.27,3.4-.71s3.54-1.67,2.42-3.13c-.34-.44-.58-1.06-.66-1.67-.05-.36-.04-.53.05-.87.01-.04.17-.49.08-.29s.16-.19.17-.23c.17-.33-.35.26-.06.03.13-.1.27-.2.39-.31.35-.31-.6.32-.18.12.13-.06.67-.33.05-.06s.35-.13.54-.2c.52-.22-.97.28-.42.14.2-.05.4-.12.61-.17,3.52-.95,7.01-1.61,10.01-3.86.35-.26,1.17-1.09.92-1.67-.46-1.04-1.45-1.38-2.52-1.56-.64-.11-1.3-.09-1.95-.12-.22-.01-.45-.02-.67-.04.37.02.26.02-.05,0-1.87-.14-3.75-.29-5.6-.59-.18-.03-.35-.06-.53-.09-.06-.01-.62-.13-.26-.05s-.19-.06-.25-.08c-.21-.07-.42-.14-.62-.23-.16-.07-.32-.14-.47-.22.23.13-.03-.02-.11-.08-.28-.23-.56-.45-.78-.74s.1.2-.08-.11c-.07-.13-.13-.27-.19-.41-.12-.32-.2-.64-.23-.97-.01-.09,0-.33-.02-.11,0-.14.04-.28.07-.42.03-.11.07-.52.08-.29-.08.13-.08.13,0,.02.29-.36.03-.17-.78.58l-5.35,1.12.23.03c2.01.25,4.59-.29,6.15-1.65.46-.4,1.1-.98.92-1.67-.18-.66-1.06-.92-1.63-.99h0Z"/>
          </g>
          <g class="st7">
            <path class="st25" d="M132.79,56.55c-2.43,3.19-6,8.97-1.65,12.21.7.52,1.77.67,2.6.61.95-.07,2.12-.44,2.86-1.05.61-.5,1.29-1.21,1.33-2.05.04-.8-.28-1.45-.93-1.94-.1-.08-.2-.16-.29-.24l.55.53c-.22-.21-.4-.46-.53-.73l.32.67c-.17-.36-.26-.74-.29-1.13l.05.74c-.04-.59.06-1.17.22-1.74l-.21.74c.35-1.18.94-2.27,1.6-3.3l-.45.7c.38-.58.78-1.15,1.21-1.7.47-.61.83-1.38.61-2.17-.2-.74-.91-1.34-1.62-1.57-.93-.3-1.97-.34-2.9-.05s-1.89.72-2.49,1.5h0Z"/>
          </g>
          <g class="st19">
            <g>
              <g>
                <path class="st5" d="M167.77,60.56c-3.86-3.68-10.58-7.26-15.89-7.74-1.37-.12-3.21.27-3.29,1.64-.03.55.27,1.06.57,1.53.93,1.49,1.86,2.98,2.78,4.47-6.57-.32-13.19.31-19.59,1.87-1.83.45-3.72,1.01-5.11,2.29s-2.08,3.5-1.1,5.11c.79,1.3,2.37,1.85,3.82,2.3,4,1.25,8.01,2.49,12.01,3.74-4.08.1-8.13,1.33-11.57,3.52-.76.49-1.53,1.06-1.9,1.89-.57,1.31.07,2.9,1.15,3.85,1.07.95,2.49,1.4,3.85,1.83-1.02,1.66-2.51,2.99-3.58,4.62-1.06,1.63-1.65,3.83-.66,5.5.87,1.46,2.72,2.09,4.42,1.98s3.28-.84,4.82-1.56c4.78-2.22,9.55-4.44,14.33-6.67-2.96,2.44-5.08,5.86-5.95,9.59-.28,1.19-.43,2.46-.03,3.62.88,2.57,4.24,3.59,6.83,2.74,2.58-.85,4.49-3.03,6.06-5.26,7.22-10.24,10.01-23.49,7.52-35.77"/>
                <path class="st5" d="M168.11,60.44c-3.89-3.66-9.1-6.54-14.37-7.53-1.52-.29-3.48-.52-4.82.47-1,.74-.68,1.77-.12,2.71.89,1.51,1.86,2.98,2.78,4.47l.6-.24c-4.55-.2-9.11.01-13.61.68-2.23.33-4.45.76-6.63,1.32-1.6.41-3.23.92-4.55,1.94-1.25.96-2.15,2.48-2.05,4.09.12,1.79,1.56,2.8,3.11,3.4,4.29,1.64,8.85,2.79,13.24,4.15l.54-.28c-3.98.14-7.89,1.19-11.34,3.2-1.43.84-3.12,1.92-2.93,3.82.22,2.08,2.14,3.25,3.91,3.9.24.09.86.15.98.33.3.47-.38,1.06-.65,1.4-.74.93-1.55,1.79-2.25,2.75-1.11,1.54-2,3.64-1.27,5.53,1.32,3.36,5.67,2.72,8.3,1.66,5.46-2.2,10.75-4.96,16.08-7.44h-.53c-1.79,1.5-3.28,3.3-4.38,5.37s-2.14,4.68-1.84,7.01c.49,3.74,4.97,4.61,7.96,3.44,4.14-1.63,6.77-6.25,8.76-9.97,2.3-4.32,3.9-9.01,4.77-13.83,1.02-5.7.97-11.55-.16-17.23-.03-.14-.76.03-.72.19,1.71,8.65.9,17.71-2.28,25.94-1.52,3.92-3.55,7.77-6.17,11.06-1.64,2.06-3.89,4.2-6.72,4.08-1.84-.08-3.75-1.06-4.45-2.84-.91-2.33.26-5.33,1.3-7.45,1.1-2.25,2.67-4.22,4.59-5.84.18-.15-.47-.04-.53,0-2.98,1.39-5.97,2.78-8.95,4.17-1.42.66-2.84,1.32-4.25,1.98-1.7.79-3.44,1.75-5.33,1.94-3.15.32-5.61-2.03-4.79-5.21.7-2.71,3.09-4.5,4.55-6.78.03-.04-.03-.06-.06-.07-1.64-.51-3.49-1.1-4.5-2.6s-.77-3.16.63-4.29c3.2-2.6,7.77-3.78,11.81-3.91.09,0,.77-.2.54-.28-3.85-1.2-7.7-2.39-11.55-3.59-1.5-.47-3.35-.95-4.22-2.41s-.42-3.18.5-4.41c1.36-1.82,3.74-2.41,5.84-2.9s4.28-.9,6.44-1.19c4.12-.55,8.27-.72,12.41-.53.07,0,.67-.12.6-.24-.68-1.08-1.35-2.17-2.03-3.25-.52-.84-1.73-2.18-1.2-3.25.46-.91,1.93-.97,2.84-.88.47.05.93.13,1.4.22,1.16.23,2.3.57,3.41.97,3.92,1.42,7.66,3.64,10.7,6.5.13.13.78-.15.68-.24h0Z"/>
              </g>
              <path class="st25" d="M166.39,64.29c-3.94-4.36-8.64-7.98-13.87-10.67-.26-.13-.68,0-.93.1-.06.02-.65.28-.44.38,5.22,2.7,9.93,6.31,13.87,10.67.23.25,1.56-.27,1.37-.48h0Z"/>
              <path class="st25" d="M164.44,69.24c-12.17-2.57-24.64-3.73-36.98-1.7-.65.11-1.23.87-.23.7,12.12-2,24.35-.81,36.3,1.71.4.09,1.69-.55.91-.71h0Z"/>
              <path class="st25" d="M166.99,74.37c-5.64.76-11.36.91-16.97,1.86-6.96,1.17-13.55,3.66-19.87,6.76-.86.42.48.39.84.22,6.25-3.07,12.75-5.49,19.66-6.55,5.33-.82,10.74-1,16.08-1.72.6-.08,1.28-.7.26-.56h0Z"/>
              <path class="st25" d="M166.53,75.97c-12.21,5.87-24.8,11.5-35.04,20.57-.73.65.41,1.18.97.69,10.15-8.99,22.62-14.56,34.72-20.38.89-.43.1-1.24-.65-.88h0Z"/>
              <path class="st25" d="M161.98,89.86c-5.17,4.03-8.53,9.75-12.63,14.75-.23.28.19.45.4.46.36.03.73-.13.95-.41,4.04-4.93,7.35-10.57,12.45-14.54.27-.21.11-.46-.15-.55-.34-.12-.76.07-1.02.27h0Z"/>
              <g>
                <path class="st11" d="M131.23,62.86c.8,0,.81-1.25,0-1.25s-.81,1.25,0,1.25h0Z"/>
                <path class="st24" d="M135.67,62.72c.07.44,0,.87-.16,1.29h1.21c-.15-1.01-1.09-1.92-2.13-1.92-.57,0-1.03.36-1.18.91-.06.22-.08.46-.09.69,0,.09,0,.3-.08.35l.94.54c0-.89-.51-1.84-1.51-1.87-.89-.03-1.35.78-1.64,1.49l1.23.17c.04-.8-.24-1.74-1.19-1.79s-1.34.87-1.78,1.55l1.16.32c0-.73-.43-1.51-1.25-1.51s-1.23.83-.89,1.51c.37.72,1.45.08,1.08-.63.07.23,0,.36-.22.37-.03-.02-.04-.02-.01,0,0,0,.04.25.04.25,0,.64.83.83,1.16.32.21-.32.34-.67.63-.93.04-.03-.01-.04-.01,0,.01.18.04.34.03.52-.02.31.25.58.54.61.33.04.56-.15.69-.45.06-.14.21-.56.4-.58.27-.02.3.46.3.62,0,.49.52.76.94.54.62-.33.75-1.15.74-1.79,0-.14.09.04-.04,0,.04.01.09,0,.13.02.13.05.25.09.37.18.27.2.39.49.43.81.04.27.35.46.6.46.29,0,.51-.2.6-.46.23-.64.26-1.29.16-1.95-.05-.33-.47-.52-.77-.44-.36.1-.49.43-.44.77h0Z"/>
                <g>
                  <path class="st31" d="M131.9,58.83c-3.11.37-3.4,2.36-3.73,3.22-.04.11-.08.25-.02.35.04.08.13.13.21.17,1.35.66,2.9.84,4.38.66,1.49-.17,2.92-.68,4.27-1.33,0,0-.59-3.62-5.11-3.08Z"/>
                  <path class="st31" d="M131.9,58.46c-1,.13-1.98.41-2.75,1.09-.52.46-.86,1.06-1.1,1.7-.08.23-.16.46-.24.69-.2.63.18.9.73,1.13,1.27.54,2.68.7,4.05.56,1.62-.16,3.15-.7,4.62-1.39.16-.08.2-.27.17-.42-.12-.71-.52-1.4-.98-1.93-1.12-1.29-2.87-1.6-4.5-1.42-.47.05-.48.8,0,.75,1.46-.16,3.02.06,4.01,1.25.36.44.65.99.74,1.55l.17-.42c-1.38.66-2.86,1.18-4.39,1.31-.74.06-1.49.04-2.22-.1-.35-.07-.7-.16-1.04-.28-.25-.09-.67-.14-.61-.44.11-.54.39-1.14.72-1.57.62-.81,1.63-1.16,2.62-1.29.47-.06.48-.81,0-.75Z"/>
                </g>
                <path class="st8" d="M136.89,61.6c-1.09-.8-2.44-1.18-3.76-1.35s-2.75-.1-4.02.36c-.45.16-.26.89.2.72,1.18-.43,2.47-.49,3.71-.35s2.48.52,3.5,1.26c.39.29.76-.37.38-.65h0Z"/>
                <path class="st24" d="M132.57,62.51c.57,0,.58-.89,0-.89s-.58.89,0,.89h0Z"/>
                <path class="st24" d="M131.12,63c.57,0,.58-.89,0-.89s-.58.89,0,.89h0Z"/>
                <path class="st24" d="M134.46,62.68c.57,0,.58-.89,0-.89s-.58.89,0,.89h0Z"/>
                <path class="st24" d="M132.81,59.91c.46,0,.46-.72,0-.72s-.46.72,0,.72h0Z"/>
                <path class="st24" d="M131.57,59.51h.09s.1,0,.14-.03c.04-.01.08-.04.12-.07.03-.03.06-.07.07-.12.02-.04.03-.09.03-.14v-.1c-.03-.06-.06-.11-.1-.16l-.07-.06c-.06-.03-.12-.05-.18-.05h-.09s-.1,0-.14.03c-.04.01-.08.04-.12.07-.03.03-.06.07-.07.12-.02.04-.03.09-.03.14v.1c.03.06.06.11.1.16l.07.06c.06.03.12.05.18.05h0Z"/>
                <path class="st24" d="M134.63,59.91c.46,0,.46-.72,0-.72s-.46.72,0,.72h0Z"/>
                <g>
                  <path class="st24" d="M127.79,60.88c.2-.12.48-.08.66.07s.27.39.27.63-.08.47-.2.67c-.08.14-.19.28-.33.37s-.33.12-.48.04c-.12-.06-.21-.18-.26-.3-.17-.36-.14-.81.07-1.15.03-.05.06-.1.12-.12s.12-.02.15.03"/>
                  <path class="st24" d="M128.04,61.31c.08-.05-.12.04-.01,0,.03,0,.06-.01.09-.02l-.13.02c.05,0,.1,0,.16,0l-.13-.02s.07.02.1.02c.05.02.03.01-.05-.02.02,0,.03.02.05.02.02,0,.03.02.04.03-.07-.05-.08-.06-.04-.03.02.02.04.05.07.07.02.03.01.01-.04-.05.01.01.02.03.03.05,0,.02.02.03.03.05.02.05.02.03-.02-.05,0,.07.04.14.05.21l-.02-.13c0,.09,0,.17,0,.26l.02-.13c-.02.1-.06.2-.08.3.03-.12.02-.05,0,0,0,.02-.02.04-.03.06-.02.05-.05.09-.08.14,0,.01-.03.05-.04.06.02-.02.07-.09.02-.03-.02.02-.03.03-.05.05-.01.01-.08.07-.01.02s0,0-.02,0c-.02.01-.09.05-.01.01s0,0-.02,0c-.03,0-.05.01-.08.02l.13-.02s-.07,0-.11,0l.13.02s-.04,0-.05,0c-.05-.02-.04,0,.04.02-.02,0-.03-.02-.05-.03l.06.05s-.03-.02-.04-.04c-.03-.04-.03-.03.03.04-.01-.03-.04-.05-.05-.08,0-.01-.01-.02-.02-.04-.02-.05-.02-.03.02.04,0-.03-.02-.06-.03-.09-.02-.07-.04-.14-.05-.21l.02.13c-.01-.11-.01-.21,0-.31l-.02.13c0-.05.02-.1.03-.15.01-.04.02-.11.05-.15-.02.03-.05.1,0,.03.01-.02.02-.04.03-.06.02-.04.08-.09-.01,0,.08-.09-.23.09-.12.07l-.13.02s.03,0,.04,0l-.13-.02c-.06-.02-.11-.05-.15-.09.17.2.54.19.71,0,.2-.22.18-.49,0-.71-.14-.16-.4-.23-.6-.17s-.35.19-.46.36c-.14.23-.21.49-.24.75-.05.49.14,1.12.59,1.38.3.17.65.15.95,0,.23-.11.41-.32.54-.53.26-.42.4-.98.21-1.45-.11-.29-.31-.55-.59-.68-.33-.15-.69-.16-1.01.02-.23.13-.33.46-.18.69s.44.32.69.18h0Z"/>
                </g>
                <path class="st24" d="M128.14,60.83c-.14-.38-.36-.72-.66-1s-.65-.48-1.04-.6c-.22-.07-.5.08-.55.31s.07.48.31.55c.07.02.14.05.21.08l-.11-.04c.17.07.33.17.48.28l-.09-.07c.15.11.28.25.39.39l-.07-.09c.11.14.2.3.27.46l-.04-.11s.02.05.03.08c.04.11.1.2.21.27.1.06.24.08.34.04.21-.07.4-.32.31-.55h0Z"/>
                <path class="st24" d="M128.36,60.89c.04-.45.01-.92-.08-1.36-.08-.39-.25-.81-.57-1.07-.1-.08-.19-.13-.32-.13-.11,0-.24.05-.32.13-.15.16-.2.48,0,.63.03.03.07.05.1.09.01.02.03.03.04.05-.04-.05-.04-.05-.01-.01.03.05.1.13.11.2-.02-.06-.03-.06,0-.02,0,.02.02.04.02.06.01.03.02.06.03.09.02.08.04.17.06.26,0,.05.02.09.03.14,0,.03,0,.05.01.08,0-.05,0-.05,0,0,.01.09.02.18.02.28,0,.2,0,.4-.02.59-.02.23.22.46.45.45.26-.01.42-.2.45-.45h0Z"/>
              </g>
            </g>
          </g>
          <path class="st4" d="M82,98.24c-8.58,1.04-17.16,2.07-25.74,3.11-1.57.19-3.6.87-3.54,2.45,3.44.59,6.88,1.17,10.32,1.76,6.86,1.17,13.79,2.35,20.74,2.09,8.28-.31,16.47-2.71,23.62-6.9.62-.36,1.3-.84,1.37-1.55.11-1.02-1.05-1.68-2.04-1.97-7.55-2.28-15.65-.6-23.35,1.08"/>
          <g>
            <path class="st6" d="M98.11,76.77c-1.06,1.86-3.19,4.02-4.88,5.35-.55.43-1.24.76-1.68,1.3-.15-.02-.25.04-.38.1-1.07.44-2.4,1.46-3.5,2.02-.37.19-1.57.82-1.88.88-.19.04-.41-.13-.62-.15-.2-.02-.41.01-.6,0v-.17c-.09,0-.17,0-.26,0-1.13-.1-2.43-.49-3.52-.84-6.6-2.11-13.06-7.26-14.44-14.35,5.37-3.84,12.12-9.18,15.8-14.76,6.68-3.37,14.5.21,16.94,7.1,1.64,4.62,1.47,9.23-.97,13.53Z"/>
            <path class="st10" d="M109.42,34.91c-.92.17-1.57-.36-2.29.52-1.05,1.28.14,1.98,1.25,2.42-.13.02-.74.34-.77.48.09.28.43.36.34.72-1.84.09-3.47,2.35-3.91,3.99-.74,2.77.02,4.46.28,7.06-.26-.05-.18.12-.16.29.41,4.6.59,9.43-.4,13.96-.93,4.29-2.7,8.17-5.05,11.87l-.61.56c2.45-4.3,2.61-8.91.97-13.53-2.44-6.89-10.26-10.46-16.94-7.1,2.02-3.07,4.04-6.6,5.33-10.08,2.25-6.07,1.25-14.49,8.11-17.71,4.1-1.93,10.1-1.32,12.53,2.9.69,1.19.8,2.46,1.31,3.65ZM100.77,31.13c-1.91.28-2.76,2.58-1.69,4.15,1.19,1.75,4.5,1.16,4.81-.85s-1.07-3.6-3.12-3.3Z"/>
            <path class="st22" d="M91.55,83.42c.14.02.85.41,1.1.5,3.16,1.12,6.55,1.45,9.91,1.32.71-.03,1.48-.17,2.2-.18-3.8,4.16-7.84,6.83-13.38,8.29-.94.25-2.13.49-3.09.67s-2.03.24-3.03.46c-.05.29.02.57.08.85-.34-.02-.22-.03-.26.21-.19,1.33-.34,2.13-1.39,3.02-.07.06-.07.21-.08.22-.04.03-.94.42-1,.43-.44.08-1.04-.05-1.51,0-.18-.3-.66-.42-.95-.65-.32-.25-.72-.8-.92-1.16-.46-.83-.62-1.83-1.07-2.64-1.73-.25-3.47-.43-5.19-.76-4.37-.85-9.09-2.45-13.05-4.47-.12-.06-.26-.1-.31-.25,1.93.29,4.59.59,6.52.52.17,0,.35.09.3-.17,1.74.46,5.64.25,7.47-.09.23-.04.24.09.21-.26,1.81.19,4.2-.52,6-.95.21-.05.24.09.21-.26.94.04,2.4-.47,3.3-.8.57-.21,1.12-.51,1.7-.67l-.17-.34c.21.02.43.19.62.15.31-.06,1.51-.7,1.88-.88,1.11-.56,2.43-1.58,3.5-2.02.13-.05.23-.11.38-.1Z"/>
            <path class="st22" d="M104.33,50.1c0,.08,0,.17,0,.26,0,.06,0,.12,0,.17h.17c1.2,5.63,4.5,10.12,5.5,15.78,1.28,7.26-.33,13.38-5.24,18.75-.72,0-1.49.15-2.2.18-3.35.13-6.75-.2-9.91-1.32-.26-.09-.96-.48-1.1-.5.44-.54,1.14-.87,1.68-1.3,1.68-1.33,3.82-3.49,4.88-5.35l.61-.56c2.36-3.69,4.12-7.58,5.05-11.87.98-4.53.81-9.35.4-13.96-.01-.17-.1-.33.16-.29Z"/>
            <path class="st6" d="M66.34,70.9c1.38,7.09,7.83,12.24,14.44,14.35,1.09.35,2.39.74,3.52.84v.17c.09,0,.17,0,.26,0,.2.01.41-.02.6,0l.17.34c-.59.16-1.14.47-1.7.67-.91.33-2.37.83-3.3.8-1-.04-2.03-.42-3.02-.52v-.17c-.06,0-.12,0-.17,0-2.39-.3-5.9-2.08-7.88-3.47-3.53-2.47-5.91-5.89-6.71-10.17.02-.02.14-.31.35-.47,1.12-.84,2.35-1.6,3.45-2.38Z"/>
            <path class="st6" d="M62.55,73.75c.8,4.28,3.18,7.7,6.71,10.17,1.98,1.39,5.49,3.17,7.88,3.47v.17c.06,0,.12,0,.17,0,.99.1,2.02.48,3.02.52.03.35,0,.21-.21.26-1.8.43-4.19,1.13-6,.95-1.43-.15-3.46-.88-4.81-1.45-4.91-2.07-9.46-6.06-10.3-11.58,1.17-.84,2.4-1.65,3.54-2.5Z"/>
            <path class="st6" d="M59.01,76.26c.84,5.52,5.39,9.51,10.3,11.58,1.34.57,3.38,1.31,4.81,1.45.03.35.01.21-.21.26-1.83.34-5.73.55-7.47.09-3.26-.86-7.03-2.71-9.06-5.49-1.1-1.5-1.73-3.25-2.16-5.05,1.23-1.05,2.47-1.9,3.8-2.85Z"/>
            <path class="st6" d="M66.43,89.64c.05.26-.13.17-.3.17-1.93.08-4.59-.23-6.52-.52-.25-.04-.59-.12-.86-.17-1.24-.24-2.5-.62-3.62-1.26-2.2-1.26-3.73-3.3-4.41-5.73,1.34-.9,3.32-2.02,4.49-3.02.43,1.8,1.06,3.54,2.16,5.05,2.03,2.77,5.8,4.62,9.06,5.49Z"/>
            <path class="st6" d="M50.72,82.13c.68,2.44,2.21,4.48,4.41,5.73,1.11.64,2.38,1.02,3.62,1.26v.17c-.1.02-.26-.02-.35,0l-1.51-.18-10.8-.26c-.15.12-.26.18-.39.26.01-.3.05-.24-.21-.26-1.07-.09-2.57.4-3.54.25-.28-.04-.63-.24-.65-.56,0-.23.34-.54.52-.68,1.07-.84,2.83-1.72,4.04-2.52,1.62-1.07,3.23-2.15,4.84-3.23Z"/>
            <path class="st30" d="M58.4,89.29c-.21.06-.31.18-.49.24-3.66,1.31-7.56,2.61-11.27,3.75-1.05.32-3.72,1.24-4.69,1.19-.86-.04-1.04-.71-.6-1.38.41-.62,3.67-3.56,4.35-3.98.13-.08.24-.15.39-.26l10.8.26,1.51.18Z"/>
            <path class="st1" d="M89.57,97.75c-.01.57,1.17,2.97,1.68,3.28.62.38,1.5.05,2.15.09,1.56.09,3.1,1.3,3.77,2.67v.26c-.22-.17-.45-.08-.6-.09-.11,0-.23.01-.35,0v-.17s-.35.09-.35.09c-.2-.02-.4-.06-.6-.09v-.17c-.16.01-.42-.07-.52.09-.31-.04-.63-.06-.95-.09v-.17c-.2-.09-.52.08-.6.09-.37.03-.66-.08-.95-.09-.08-.11-.3-.14-.35,0-.11,0-.23,0-.35,0,.05-.26-.13-.17-.3-.17-.42-.02-.84.08-1.17.09-.22,0-.48.02-.69,0-.48-.05-1.01-.3-1.51-.34-.6-.05-1.25.04-1.85,0-.14-.14-.44-.06-.26-.43,1.03-.11,2.41-1.02,2.33-2.19-.03-.45-.65-1.78-.94-2.13.44-.15.94-.08,1.4-.2.33-.09.64-.36,1.02-.32Z"/>
            <path class="st12" d="M83.61,98.79c.27,1.03.58,2.06,1.11,2.99.28.5.44.87,1.05.81-.18.37.12.3.26.43,0,0-.02.11.06.18.49.37.57.28,1.11.34.12.01.15-.04.13.13-.5.72-1.39,1.18-2.24,1.34-1.12.21-2.42.1-3.59.17-.29.02-2.02.26-2.11.18-.04-.15.06-.17.13-.26.5-.65,1.59-1.35,2.16-2.07.37-.47.43-.63.39-1.25s-.63-2.03-.95-2.55c.46-.05,1.06.07,1.51,0,.05,0,.95-.39,1-.43Z"/>
            <path class="st28" d="M91.38,93.35c-.05,1.33-.41,2.52-1.21,3.58-.22.29-.59.42-.6.82-.37-.03-.68.24-1.02.32-.46.12-.96.04-1.4.2-.18-.21-.58-.41-.82-.69-.5-.57-.85-1.5-.99-2.25-.05-.28-.12-.57-.08-.85,1-.22,2.03-.27,3.03-.46s2.15-.42,3.09-.67Z"/>
            <path class="st21" d="M109.42,34.91c.26.6,1.43,1.52,1.99,1.99-.24.9-.88,1.15-1.77,1.13-.4-.01-.89-.23-1.25-.18-1.11-.44-2.3-1.14-1.25-2.42.72-.88,1.37-.34,2.29-.52Z"/>
            <path class="st26" d="M107.95,39.05c.09-.37-.25-.45-.34-.72.03-.14.64-.47.77-.48.36-.05.84.17,1.25.18.89.02,1.53-.23,1.77-1.13.73.61,1.21,1.02,1.44,2.05.56,2.52-.58,1.49-1.94.99-.64-.23-2.38-.91-2.96-.89Z"/>
            <path class="st27" d="M89.39,103.36c-.05.25.03.21.16.31.72.59,1.7,1.12,1.91,2.1-1.82-.41-3.67-.52-5.52-.6v-.17c-.11,0-.23,0-.35,0-.17,0-.35,0-.52,0,.85-.16,1.74-.62,2.24-1.34.02-.17,0-.11-.13-.13-.54-.06-.62.03-1.11-.34-.08-.06-.05-.17-.06-.18.6.04,1.26-.05,1.85,0,.5.05,1.03.3,1.51.34Z"/>
            <path class="st27" d="M90.08,103.36c.33,0,.75-.1,1.17-.09.17,0,.35-.09.3.17-.48-.02-1.04.09-1.47-.09Z"/>
            <path class="st27" d="M97.16,103.79s.26.12.17.34l-.78-.17c.15,0,.39-.09.6.09v-.26Z"/>
            <path class="st27" d="M93.19,103.54c.08,0,.4-.17.6-.09v.17c-.2-.01-.44.06-.6-.09Z"/>
            <path class="st27" d="M94.75,103.71c.1-.15.36-.07.52-.09v.17c-.2-.02-.37-.07-.52-.09Z"/>
            <path class="st27" d="M92.24,103.45c-.08,0-.24,0-.35,0,.05-.14.27-.11.35,0Z"/>
            <path class="st27" d="M95.87,103.88l.34-.09v.17c-.16-.02-.29-.08-.34-.09Z"/>
            <path class="st12" d="M85.6,105c.11,0,.23,0,.35,0v.17c-.12,0-.23,0-.35,0v-.17Z"/>
            <path class="st29" d="M104.33,50.36h.17c.01.06,0,.12,0,.17h-.17c0-.06,0-.12,0-.17Z"/>
            <path class="st23" d="M84.3,86.1c.09,0,.17,0,.26,0v.17c-.09,0-.17,0-.26,0v-.17Z"/>
            <path class="st20" d="M100.77,31.13c2.05-.3,3.44,1.31,3.12,3.3s-3.63,2.6-4.81.85c-1.06-1.57-.22-3.87,1.69-4.15ZM100.77,31.99c-1.11.21-1.64,1.66-1.1,2.62,1.18,2.12,4.56.22,3.1-1.89-.47-.68-1.19-.88-1.99-.73Z"/>
            <path class="st23" d="M77.14,87.39c.06,0,.12,0,.17,0v.17c-.06,0-.12,0-.17,0v-.17Z"/>
            <path class="st2" d="M100.77,31.99c.81-.15,1.52.05,1.99.73,1.46,2.11-1.91,4.01-3.1,1.89-.53-.96,0-2.41,1.1-2.62ZM101.11,32.42c-.72.13-.57,1.36.3,1.18.73-.15.55-1.33-.3-1.18Z"/>
            <path class="st9" d="M101.11,32.42c.86-.15,1.04,1.03.3,1.18-.87.18-1.02-1.05-.3-1.18Z"/>
          </g>
        </g>
      </g>
    </g>
  </g>
</svg>