<?xml version="1.0" encoding="UTF-8"?>
<svg xmlns="http://www.w3.org/2000/svg" xmlns:xlink="http://www.w3.org/1999/xlink" version="1.1" viewBox="0 0 159.23 221.82">
  <!-- Generator: Adobe Illustrator 29.0.0, SVG Export Plug-In . SVG Version: 2.1.0 Build 186)  -->
  <defs>
    <style>
      .st0 {
        fill: none;
      }

      .st1 {
        fill: #a5a0a4;
      }

      .st2 {
        fill: #056e50;
      }

      .st3 {
        fill: #3b605a;
      }

      .st4 {
        fill: #67ad7c;
      }

      .st5 {
        fill: #5eb157;
      }

      .st6 {
        mix-blend-mode: multiply;
        opacity: .48;
      }

      .st7 {
        fill: #fbefe2;
      }

      .st8 {
        fill: #f6e7d5;
      }

      .st9 {
        isolation: isolate;
      }

      .st10 {
        fill: #98c455;
      }

      .st11 {
        fill: #bcb7bb;
      }

      .st12 {
        fill: #6d696d;
      }

      .st13 {
        clip-path: url(#clippath-1);
      }

      .st14 {
        clip-path: url(#clippath-3);
      }

      .st15 {
        clip-path: url(#clippath-2);
      }

      .st16 {
        fill: #999698;
      }

      .st17 {
        fill: #377a64;
      }

      .st18 {
        fill: #b1be80;
      }

      .st19 {
        fill: #3e776e;
      }

      .st20 {
        fill: #28663d;
      }

      .st21 {
        clip-path: url(#clippath);
      }

      .st22 {
        fill: #878286;
      }

      .st23 {
        fill: #90a24a;
      }
    </style>
    <clipPath id="clippath">
      <rect class="st0" x="173.74" y="9.5" width="49.14" height="54.82"/>
    </clipPath>
    <clipPath id="clippath-1">
      <rect class="st0" x="121.68" y="21.49" width="36.57" height="65.14"/>
    </clipPath>
    <clipPath id="clippath-2">
      <rect class="st0" x=".21" y="3.71" width="37.23" height="130.95" transform="translate(37.66 138.38) rotate(-180)"/>
    </clipPath>
    <clipPath id="clippath-3">
      <rect class="st0" x="114.27" y="67.3" width="44.48" height="59.65" transform="translate(273.02 194.26) rotate(-180)"/>
    </clipPath>
  </defs>
  <g class="st9">
    <g id="Layer_1">
      <g class="st21">
        <path class="st4" d="M161.66,43.2c.78-1.85,1.67-3.66,2.68-5.39.39-.68,2.8-5.16,3.66-4.76.47.22,3.16-.29,2.6-.96-1.08-1.28.93-3.13,1.8-3.91,1.18-1.08,2.6-1.94,4.14-2.41,3.2-.97,6.76-.07,9.51,1.69.58.37,2.14-.04,2.56-.57.19-.25.39-.49.61-.71.04-.04.49-.5.33-.43-.02,0,.87.27,1.23.26,1.23-.05,2.09-.63,3.09-1.25,2.44-1.49,5.71-.57,8.24.19,1.1.33,2.5.58,3.4,1.33.96.79,1.1,2.11,1.14,3.28.1,2.94-.28,5.89-.99,8.74-.07.29.26.33.48.35,1.44.13,2.7.9,3.55,2.06.4.55,1.72.09,2.19-.16.27-.15,1.22.34,1.5.45.63.24,1.25.53,1.85.82,1.1.54,2.1,1.2,2.92,2.12l.81-.83c-4.21,1.5-8.58,2.35-13.04,2.6-.5.03-1.26.18-1.66.52-.19.16-.55.52-.07.62,1.6.31,3.19.62,4.79.92,1.2.23,3.86.64,2.04,2.24-2.04,1.8-5.93,2.84-8.55,2.02-1.29-.4-2.47-1.08-3.77-1.47-1.53-.45-3.17-.82-4.76-.99-1.47-.16-2.86.39-4.05,1.23-2.73,1.93-4.7,4.76-7.38,6.74-.06.04-.63.33-.64.42l.77-.19c-.24.02-.48.03-.72.04-.46.02-.92.04-1.38.04-1.59,0-3.18-.09-4.76-.25-1.66-.17-3.31-.42-4.96-.71-.71-.13-1.42-.26-2.12-.41-.62-.13-1.43-.14-1.99-.47-1.29-.76-1.33-2.96-1.73-4.23-.56-1.79-1.89-1.86-3.55-1.26-.22.08-1.17.46-.81.83.58.59,1.2.64,1.99.61.49-.02,1.57-.2,1.85-.67s-.24-.52-.66-.5c-.24-.06-.43-.19-.57-.4l-.81.83c-1.11.4-.91-.12-.48.56.18.28.26.63.35.95.23.78.35,1.58.61,2.36.2.6.47,1.24.95,1.68.82.75,2.3.78,3.32.98,3.2.62,6.44,1.12,9.71,1.26,2.3.1,4.96.35,7.04-.83,3.1-1.75,5.13-4.99,7.96-7.1.05-.04.69-.5.71-.47.11.18-.8-.15-.43.17.1.09.73.12.91.16,1.78.32,3.55.7,5.22,1.41,1.27.54,2.38,1.05,3.77,1.11,1.47.07,2.97-.1,4.41-.41,1.6-.35,3.17-.88,4.62-1.63,1.06-.55,2.86-1.37,3.29-2.61s-1-1.7-1.93-1.88c-1.99-.4-3.99-.77-5.99-1.15l-1.72,1.14c5.19-.29,10.29-1.34,15.19-3.08.24-.09,1.15-.45.81-.83-1.35-1.51-3.26-2.37-5.12-3.09s-3.66-.69-5.37.23l2.19-.16c-1.12-1.53-2.65-2.33-4.53-2.5l.48.35c.79-3.19,1.52-7.06.89-10.34-.28-1.44-1.1-2.33-2.45-2.84-1.66-.64-3.43-1.15-5.18-1.49-3.12-.61-6.47-.4-9.31,1.12-.14.08-.97.55-.95.58l.71-.09c-.23-.12-.47-.19-.72-.23-.57-.1-1.17-.03-1.73.11-1.5.35-2.61,1.23-3.55,2.42l2.56-.57c-3.92-2.5-8.72-2.87-13.1-1.42-2.03.67-3.92,1.73-5.52,3.14-1.19,1.05-3.42,3.18-2.03,4.83l2.6-.96c-2.56-1.21-5.23.6-6.69,2.62-2,2.78-3.65,5.8-4.98,8.96-.22.51,2.42.27,2.73-.47h0Z"/>
      </g>
      <g>
        <rect class="st18" x=".21" y="0" width="158.8" height="221.82"/>
        <g class="st13">
          <g>
            <g>
              <path class="st5" d="M158.6,58.7c-3-12.61-10.98-23.97-21.83-31.08,3,5.28,4.29,11.32,6.01,17.14,1.72,5.82,4.04,11.74,8.52,15.84-7.22-6.16-14.57-12.46-19.58-20.52.03,9.56,4.52,19.02,11.92,25.08,4.83,3.96,10.89,6.61,14.57,11.66"/>
              <path class="st5" d="M159.96,58.33c-3.08-12.69-11.01-23.97-21.9-31.17-.39-.26-2.91.37-2.66.82,5.88,10.55,5.33,24.41,14.6,33.07l2.58-.91c-7.18-6.12-14.44-12.37-19.51-20.43-.33-.52-2.74.11-2.73.73.07,7.87,3.03,15.55,8.2,21.47,2.62,3,5.78,5.26,9.07,7.46s6.77,4.52,9.22,7.8c.47.63,2.9-.51,2.73-.73-4.72-6.33-12.63-9.07-17.91-14.85-5.42-5.93-8.5-13.86-8.57-21.88l-2.73.73c5.11,8.13,12.42,14.44,19.66,20.61.51.43,2.94-.57,2.58-.91-9.17-8.57-8.62-22.45-14.45-32.9l-2.66.82c10.84,7.17,18.69,18.36,21.75,30.99.13.54,2.87-.15,2.73-.73h0Z"/>
            </g>
            <g>
              <path class="st10" d="M157.54,73.65c-9.97-8.58-24.7-8.62-32.86-12.91,3.1,3.43,6.56,6.57,10.49,9.02,3.75,2.34,8.1,3.94,11.98,6.06,6.83,3.73,14.84,8.36,20.8,13.37"/>
              <path class="st10" d="M158.82,73.15c-4.91-4.16-10.97-6.43-17.11-8.11-5.31-1.45-10.99-2.34-15.92-4.89-.49-.25-3,.41-2.38,1.09,2.92,3.21,6.12,6.17,9.76,8.56s7.66,3.95,11.51,5.9c7.69,3.9,15.38,8.47,22.01,14,.64.53,3.13-.51,2.56-1-6.53-5.45-14.05-9.82-21.56-13.78-3.96-2.09-8.19-3.65-11.95-6.12s-6.84-5.35-9.76-8.56l-2.38,1.09c4.83,2.49,10.38,3.39,15.58,4.8,6.14,1.66,12.2,3.85,17.11,8.02.64.54,3.13-.5,2.56-1h0Z"/>
            </g>
            <path class="st20" d="M138.83,30.37c12.63,7.24,10.38,24.43,18.18,35.18-10.13-9.38-7.54-26.12-18.18-35.18h0Z"/>
            <path class="st20" d="M132.59,43.71c6.17,10.59,15.76,18.44,25.7,25.36-10.95-4.31-22.18-13.84-25.7-25.36h0Z"/>
            <path class="st20" d="M124.68,60.74c11.56,6.29,25.64,8.62,35.11,18.33-5.53-3.69-11.58-6.17-17.66-8.78-6.01-2.69-12.46-5.09-17.45-9.56h0Z"/>
          </g>
        </g>
        <g class="st15">
          <g>
            <g>
              <g>
                <path class="st2" d="M24.15,72.19c-2.06,4.77-3.51,9.81-4.69,14.87-1.04,4.47-1.77,9.01-3.05,13.41-1.28,4.4-3.15,8.73-6.19,12.16-4.33,4.9-10.6,7.56-16.7,9.9-.13-3.21-.27-6.41-.4-9.62-.08-2.04-.17-4.11.28-6.11.46-2.05,1.47-3.93,2.46-5.78,2.67-4.97,5.33-9.95,8-14.92.99-1.84,1.98-3.69,3.08-5.46,1.36-2.2,2.89-4.29,4.42-6.38,5.25-7.17,10.53-14.39,17-20.48,0,0-1.17,11.38-4.2,18.4Z"/>
                <path class="st2" d="M23.47,72.09c-3.38,7.89-4.85,16.22-6.77,24.53-.91,3.97-2.1,7.92-4.07,11.5s-4.54,6.22-7.78,8.39c-3.59,2.41-7.64,4.04-11.65,5.58l1.05.41c-.11-2.65-.22-5.29-.33-7.94-.1-2.5-.35-5.08.17-7.56s1.94-4.89,3.17-7.19,2.51-4.68,3.76-7.02c2.53-4.71,4.88-9.58,7.89-14.01,2.76-4.06,5.73-8,8.72-11.89,3.45-4.49,7.09-8.84,11.21-12.74l-1.2-.31c-.64,6.14-1.74,12.56-4.17,18.26-.33.77,1.1.83,1.37.2,2.46-5.79,3.6-12.31,4.24-18.55.06-.6-.89-.61-1.2-.31-7.31,6.93-13.32,15.18-19.12,23.38-3.04,4.3-5.44,8.96-7.92,13.59-1.33,2.49-2.67,4.97-4,7.46-1.25,2.33-2.67,4.65-3.59,7.14-.98,2.66-.94,5.41-.83,8.21.13,3.13.26,6.25.39,9.38.02.56.64.56,1.05.41,7.07-2.71,14.36-5.94,18.76-12.42,4.7-6.91,5.68-15.38,7.52-23.33,1.18-5.1,2.64-10.14,4.7-14.96.33-.77-1.1-.83-1.37-.2Z"/>
              </g>
              <g>
                <path class="st17" d="M28.02,53.75c-5.41,9.11-10.56,18.38-15.54,27.73S2.57,100.44-1.73,110.22c-1.67,3.81-3.31,7.68-4.45,11.68-.09.31.65.22.73-.07,2.35-8.26,6.37-16.14,10.15-23.82,4.92-10.01,10.18-19.86,15.61-29.6,2.73-4.9,5.52-9.78,8.39-14.61.19-.33-.54-.3-.69-.06h0Z"/>
                <g>
                  <path class="st2" d="M16.53,74.39c-.18-1.87-.07-4.82,0-6.7"/>
                  <path class="st17" d="M16.9,74.29c-.21-2.22-.09-4.48,0-6.7,0-.13-.72-.03-.72.19-.09,2.22-.21,4.48,0,6.7.01.16.74.02.72-.19h0Z"/>
                </g>
                <g>
                  <path class="st2" d="M14.67,77.36c-.17-2.2-.34-4.39-.51-6.59"/>
                  <path class="st17" d="M15.03,77.26l-.51-6.59c-.01-.14-.74-.01-.72.19l.51,6.59c.01.14.74.01.72-.19h0Z"/>
                </g>
                <g>
                  <path class="st2" d="M26.95,63.57c-1.61.7-4.3,1.79-5.8,2.7"/>
                  <path class="st17" d="M26.79,63.38c-1.98.86-4.03,1.63-5.88,2.74-.13.08-.18.24-.05.34.15.11.38.03.52-.05,1.8-1.08,3.8-1.81,5.72-2.65.12-.05.28-.2.18-.34s-.36-.09-.49-.04h0Z"/>
                </g>
                <g>
                  <path class="st2" d="M26.17,66.18c-1.68.68-5.77,2.97-7.2,4.08"/>
                  <path class="st17" d="M26.02,66.01c-1.29.53-2.52,1.22-3.73,1.9s-2.45,1.38-3.55,2.23c-.39.3.22.44.46.25,1.08-.83,2.28-1.51,3.46-2.18s2.39-1.35,3.66-1.86c.12-.05.28-.18.19-.32s-.37-.07-.48-.02h0Z"/>
                </g>
                <g>
                  <path class="st2" d="M18.44,89.36c-2.6,1.54-11.44,5.47-12.92,6.35"/>
                  <path class="st17" d="M18.29,89.16c-2.23,1.31-4.62,2.35-6.95,3.45-2.01.95-4.12,1.81-6.04,2.94-.42.25.19.48.48.31,1.91-1.12,4.03-1.97,6.03-2.91,2.28-1.08,4.63-2.11,6.81-3.39.42-.25.04-.61-.32-.41h0Z"/>
                </g>
                <g>
                  <path class="st2" d="M18.41,91.7c-3.93,1.64-10.9,5.35-14.36,7.39"/>
                  <path class="st17" d="M18.26,91.55c-4.97,2.09-9.8,4.7-14.44,7.44-.42.25.21.35.45.21,4.59-2.7,9.36-5.29,14.28-7.35.47-.2.04-.43-.29-.3h0Z"/>
                </g>
                <g>
                  <path class="st2" d="M11.52,109.63c-4.62.86-10.67,2.01-14.03,3.34-.05.02-.12.02-.16-.01"/>
                  <path class="st17" d="M11.45,109.38c-2.54.47-5.08.95-7.6,1.52-1.2.27-2.39.56-3.57.89-.51.14-1.02.29-1.53.46-.26.08-.52.17-.78.26-.1.04-.52.17-.44.2-.32-.13-.84.33-.41.5.36.14.74-.1,1.07-.22.51-.18,1.02-.34,1.53-.49,1.25-.37,2.53-.69,3.8-.98,2.67-.61,5.36-1.12,8.05-1.62.46-.09.31-.6-.14-.51h0Z"/>
                </g>
              </g>
            </g>
            <g>
              <path class="st17" d="M13.51,123.77c1.31-.82,2.6-1.69,3.71-2.78,1.47-1.45,2.57-3.23,3.65-4.99,2.08-3.4,4.17-6.8,6.25-10.2,2.48-4.05,5.04-8.18,8.74-11.15-8.36-.51-16.35,3.82-22.64,9.35-8.14,7.16-14.5,17.2-14.42,28.04,0,0,10.79-5.82,14.72-8.28Z"/>
              <path class="st17" d="M14.03,123.82c2.55-1.61,4.59-3.44,6.27-5.97s3.35-5.41,5.01-8.12c3.22-5.26,6.22-11.06,11.07-15.03.18-.15.2-.35-.1-.36-7.72-.4-15.02,2.88-21.04,7.5S3.86,112.66.77,119.77c-1.71,3.94-2.66,8.16-2.66,12.46,0,.33.97,0,1.08-.05,4.99-2.69,10.03-5.36,14.85-8.35.59-.37-.77-.28-1.05-.11-4.73,2.94-9.69,5.55-14.59,8.2l1.08-.05c0-7.12,2.72-13.9,6.83-19.63s9.89-11.06,16.36-14.34c3.96-2,8.3-3.17,12.76-2.94l-.1-.36c-4.48,3.67-7.33,8.78-10.31,13.65-1.76,2.87-3.51,5.76-5.29,8.62s-3.86,5.04-6.74,6.86c-.59.37.77.29,1.05.11Z"/>
            </g>
            <g>
              <path class="st2" d="M35.3,94.71c-12.29,6.14-23.48,15.31-31.17,26.77-2.14,3.19-3.97,6.57-5.41,10.13-.06.15.64.08.72-.12,5.1-12.61,15.01-23.01,26.1-30.64,3.25-2.24,6.66-4.25,10.19-6.01.43-.21-.24-.22-.42-.12h0Z"/>
              <path class="st2" d="M4.54,121.85c2.11-1.38,4.53-2.28,6.95-2.93s4.96-1.09,7.46-.88c.31.03.76-.41.27-.45-2.63-.22-5.31.24-7.84.92s-5.08,1.64-7.3,3.09c-.41.27.21.42.46.26h0Z"/>
              <path class="st2" d="M6.73,118.76c2.02-1.08,4.35-1.56,6.59-1.91s4.48-.54,6.73-.63c.42-.02.55-.58.06-.56-2.39.1-4.77.31-7.13.69s-4.56.86-6.57,1.95c-.43.23-.04.66.33.46h0Z"/>
              <path class="st2" d="M20.95,103.99c.22-1.78.21-3.57.21-5.35,0-.16-.72-.04-.72.19,0,1.76,0,3.52-.21,5.27-.03.22.69.08.72-.11h0Z"/>
              <path class="st2" d="M23.19,102.19c.11-1.33-.01-2.67.03-4,.01-.38-.72-.27-.73.06-.04,1.33.08,2.67-.03,4-.03.37.71.27.73-.06h0Z"/>
            </g>
          </g>
          <g>
            <g>
              <path class="st7" d="M20.38,17.5c3.66.37,7.32.73,10.98,1.1.61.06,1.23.13,1.75.45.75.45,1.11,1.32,1.44,2.13.19.48.38,1.02.19,1.5-.26.62-1.02.93-1.7.92-9.76-.16-35.73,1.15-38.85-.46l-.6-.61c-.71-.66-.53-1.92.16-2.6s1.71-.9,2.68-.96,1.96.01,2.9-.22c2.54-.62,4.06-3.17,6.23-4.64,1.96-1.33,4.53-1.73,6.8-1.06,1.83.54,3.4,1.71,5.03,2.72,2.33,1.45,4.87,2.6,7.57,3.12"/>
              <path class="st7" d="M20.09,18.04c2.15.22,4.3.43,6.45.65l3.1.31c1.17.12,2.6.02,3.4,1.02.28.35.47.79.64,1.21.07.16.18.37.21.54.07.46-.24,1.08-.75,1.29-.34.14-1.06,0-1.42-.01-1.05,0-2.1,0-3.16.02-5.42.06-10.84.22-16.26.3-4.84.07-9.73.21-14.57-.18-.69-.06-1.38-.11-2.06-.24s-.8-.17-1.19-.59c-.59-.62-.72-1.38-.15-2.08.71-.87,2.03-.77,3.06-.8,1.66-.05,3.12-.4,4.49-1.38,1.47-1.05,2.58-2.52,4.06-3.56,1.98-1.39,4.5-1.6,6.73-.71,2,.8,3.71,2.23,5.61,3.26s4.04,1.87,6.22,2.32c.63.13,1.89-.81.94-1.01-2.36-.49-4.59-1.4-6.67-2.61-1.83-1.06-3.52-2.41-5.53-3.11-3.92-1.36-7.55.28-10.37,2.99-.68.66-1.36,1.35-2.15,1.88-1.12.74-2.26.82-3.56.86-1.58.05-3.56.34-4.44,1.84-1.18,2.02.64,3.46,2.43,3.77,4.92.85,10.18.5,15.14.44,6.37-.07,12.74-.28,19.12-.33,1.3-.01,2.73.16,4.02-.03.76-.12,1.62-.5,2-1.21.49-.9-.02-1.95-.44-2.79-1.1-2.17-3.32-2.04-5.47-2.25-2.95-.3-5.89-.59-8.84-.89-.73-.07-1.65.97-.57,1.08h0Z"/>
            </g>
            <g>
              <path class="st8" d="M1.46,23.32c4.03-1.43,8.45-.91,12.71-1.23,3-.23,5.96-.89,8.96-1.18,3-.29,6.12-.19,8.88,1.03-2.23,1.2-4.9,1.09-7.44,1.05-3.34-.05-6.68.08-10.01.2-3.69.14-7.38.29-11.07.43"/>
              <path class="st8" d="M2.04,23.82c2.34-.79,4.88-.78,7.32-.82s4.76-.15,7.14-.47c4.74-.65,9.6-1.83,14.2.11l.34-1.03c-1.88.94-4.27.63-6.3.61-2.23-.02-4.45.03-6.67.1-4.64.16-9.29.36-13.93.54-.6.02-1.8.22-2.12.81s.28.74.81.72c5.28-.21,10.56-.46,15.84-.6,4.74-.12,9.91.69,14.29-1.52.38-.19,1.01-.75.34-1.03-5.06-2.13-10.57-1-15.8-.25-5.56.8-11.23,0-16.63,1.82-.37.12-1.3.59-.9,1.09s1.66.06,2.08-.08h0Z"/>
            </g>
          </g>
        </g>
        <g class="st14">
          <g>
            <g>
              <path class="st3" d="M159.67,77.95c-3.86-3.68-10.58-7.26-15.89-7.74-1.37-.12-3.21.27-3.29,1.64-.03.55.27,1.06.57,1.53.93,1.49,1.86,2.98,2.78,4.47-6.57-.32-13.19.31-19.59,1.87-1.83.45-3.72,1.01-5.11,2.29s-2.08,3.5-1.1,5.11c.79,1.3,2.37,1.85,3.82,2.3,4,1.25,8.01,2.49,12.01,3.74-4.08.1-8.13,1.33-11.57,3.52-.76.49-1.53,1.06-1.9,1.89-.57,1.31.07,2.9,1.15,3.85s2.49,1.4,3.85,1.83c-1.02,1.66-2.51,2.99-3.58,4.62s-1.65,3.83-.66,5.5c.87,1.46,2.72,2.09,4.42,1.98,1.7-.12,3.28-.84,4.82-1.56,4.78-2.22,9.55-4.44,14.33-6.67-2.96,2.44-5.08,5.86-5.95,9.59-.28,1.19-.43,2.46-.03,3.62.88,2.57,4.24,3.59,6.83,2.74s4.49-3.03,6.06-5.26c7.22-10.24,10.01-23.49,7.52-35.77"/>
              <path class="st3" d="M160.01,77.83c-3.89-3.66-9.1-6.54-14.37-7.53-1.52-.29-3.48-.52-4.82.47-1,.74-.68,1.77-.12,2.71.89,1.51,1.86,2.98,2.78,4.47l.6-.24c-4.55-.2-9.11.01-13.61.68-2.23.33-4.45.76-6.63,1.32-1.6.41-3.23.92-4.55,1.94-1.25.96-2.15,2.48-2.05,4.09.12,1.79,1.56,2.8,3.11,3.4,4.29,1.64,8.85,2.79,13.24,4.15l.54-.28c-3.98.14-7.89,1.19-11.34,3.2-1.43.84-3.12,1.92-2.93,3.82.22,2.08,2.14,3.25,3.91,3.9.24.09.86.15.98.33.3.47-.38,1.06-.65,1.4-.74.93-1.55,1.79-2.25,2.75-1.11,1.54-2,3.64-1.27,5.53,1.32,3.36,5.67,2.72,8.3,1.66,5.46-2.2,10.75-4.96,16.08-7.44h-.53c-1.79,1.5-3.28,3.3-4.38,5.37s-2.14,4.68-1.84,7.01c.49,3.74,4.97,4.61,7.96,3.44,4.14-1.63,6.77-6.25,8.76-9.97,2.3-4.32,3.9-9.01,4.77-13.83,1.02-5.7.97-11.55-.16-17.23-.03-.14-.76.03-.72.19,1.71,8.65.9,17.71-2.28,25.94-1.52,3.92-3.55,7.77-6.17,11.06-1.64,2.06-3.89,4.2-6.72,4.08-1.84-.08-3.75-1.06-4.45-2.84-.91-2.33.26-5.33,1.3-7.45,1.1-2.25,2.67-4.22,4.59-5.84.18-.15-.47-.04-.53,0-2.98,1.39-5.97,2.78-8.95,4.17-1.42.66-2.84,1.32-4.25,1.98-1.7.79-3.44,1.75-5.33,1.94-3.15.32-5.61-2.03-4.79-5.21.7-2.71,3.09-4.5,4.55-6.78.03-.04-.03-.06-.06-.07-1.64-.51-3.49-1.1-4.5-2.6s-.77-3.16.63-4.29c3.2-2.6,7.77-3.78,11.81-3.91.09,0,.77-.2.54-.28-3.85-1.2-7.7-2.39-11.55-3.59-1.5-.47-3.35-.95-4.22-2.41s-.42-3.18.5-4.41c1.36-1.82,3.74-2.41,5.84-2.9s4.28-.9,6.44-1.19c4.12-.55,8.27-.72,12.41-.53.07,0,.67-.12.6-.24-.68-1.08-1.35-2.17-2.03-3.25-.52-.84-1.73-2.18-1.2-3.25.46-.91,1.93-.97,2.84-.88.47.05.93.13,1.4.22,1.16.23,2.3.57,3.41.97,3.92,1.42,7.66,3.64,10.7,6.5.13.13.78-.15.68-.24h0Z"/>
            </g>
            <path class="st19" d="M158.29,81.68c-3.94-4.36-8.64-7.98-13.87-10.67-.26-.13-.68,0-.93.1-.06.02-.65.28-.44.38,5.22,2.7,9.93,6.31,13.87,10.67.23.25,1.56-.27,1.37-.48h0Z"/>
            <path class="st19" d="M156.34,86.62c-12.17-2.57-24.64-3.73-36.98-1.7-.65.11-1.23.87-.23.7,12.12-2,24.35-.81,36.3,1.71.4.09,1.69-.55.91-.71h0Z"/>
            <path class="st19" d="M158.88,91.76c-5.64.76-11.36.91-16.97,1.86-6.96,1.17-13.55,3.66-19.87,6.76-.86.42.48.39.84.22,6.25-3.07,12.75-5.49,19.66-6.55,5.33-.82,10.74-1,16.08-1.72.6-.08,1.28-.7.26-.56h0Z"/>
            <path class="st19" d="M158.43,93.35c-12.21,5.87-24.8,11.5-35.04,20.57-.73.65.41,1.18.97.69,10.15-8.99,22.62-14.56,34.72-20.38.89-.43.1-1.24-.65-.88h0Z"/>
            <path class="st19" d="M153.88,107.25c-5.17,4.03-8.53,9.75-12.63,14.75-.23.28.19.45.4.46.36.03.73-.13.95-.41,4.04-4.93,7.35-10.57,12.45-14.54.27-.21.11-.46-.15-.55-.34-.12-.76.07-1.02.27h0Z"/>
          </g>
        </g>
        <g>
          <path class="st23" d="M46.02,90.12c-2.16.31-4.31,1.19-5.72,2.85s-1.9,4.19-.82,6.08c1.18,2.06,3.74,2.81,6.07,3.3,6.72,1.42,13.58,2.16,20.45,2.19,2.74.01,5.52-.08,8.19.52,3.66.82,7.03,2.9,10.77,3.17,3.9.29,7.63-1.42,11.39-2.5,8.1-2.33,18-2.45,22.8-9.37,1.05-1.51,1.75-3.44,1.14-5.17-.88-2.51-3.94-3.36-6.56-3.8-21.91-3.64-44.51-3.05-66.2,1.72"/>
          <g>
            <g>
              <path class="st1" d="M99.65,71.99c1.72,1.04,2.78,2.85,4.04,4.71,7.14,10.57,17.79-2.77,24.32-8.88-.79-2.55-2.2-4.81-4-6.82-4.79-2.11-9.75-3.72-15.14-4.1-6.14-.43-8.36,8.19-9.21,15.08Z"/>
              <path class="st1" d="M71.16,62.07c-.65-5.84-2.34-12.17-6.32-16.67-2.97-3.35-6.61-4.53-10.49-4.64-6.71,3.68-15.64,11.4-20.8,17.41-1.03,1.2-1.65,2.57-1.99,4.04,7.76,6.37,15.91,12.14,24.91,16.7,3.79,1.92,7.83,3.74,12.05,4.57,2.49-6.8,3.44-14.15,2.64-21.41Z"/>
              <path class="st16" d="M103.75,48.64c-14.19-6.13-29.27-10.67-44.88-9.8-1.3.32-2.85.99-4.52,1.91,3.88.12,7.52,1.3,10.49,4.64,3.98,4.49,5.67,10.83,6.32,16.67.81,7.27-.15,14.61-2.64,21.41,1.19.24,2.4.4,3.62.46,6.78.33,10.48-3.08,14.82-7.72,2.57-2.75,5.93-5.39,9.94-5.07,1.1.09,1.99.39,2.75.85.84-6.9,3.06-15.52,9.21-15.08,5.39.38,10.35,1.99,15.14,4.1-5.15-5.73-13.56-9.48-20.25-12.37Z"/>
            </g>
            <path class="st22" d="M77.05,83.42c-1.46.41-3.07.61-4.91.52-5.53-.27-10.8-2.57-15.67-5.03-9-4.56-17.15-10.32-24.91-16.7-.75,3.27-.05,7.01.83,10.24,1.16,4.23,2.49,8.52,4.71,12.32,5.48,9.41,15.73,10.52,25.69,11.69,2.99.35,8.85.91,15.83.97-.2-2.37-.43-4.73-.66-7.09-.21-2.15-.02-4.88-.9-6.91Z"/>
            <g>
              <path class="st16" d="M86.72,82.37c.1-2.04.19-4.2.42-6.34-.06.06-.12.12-.18.19-3.16,3.38-5.99,6.1-9.91,7.2.88,2.03.69,4.77.9,6.91.23,2.36.47,4.73.66,7.09,2.65.02,5.47-.04,8.36-.21-.02-.07-.04-.13-.05-.2-1.01-4.65-.43-9.95-.2-14.66Z"/>
              <path class="st12" d="M128,67.83c-5.79,5.41-14.79,16.47-21.74,11.6-.43,1.29-.86,2.58-1.29,3.87-1.33,3.94-2.45,8.08-3.88,12.04,5.28-1.19,10.25-2.99,14.29-5.68,4.11-2.74,11.63-7.58,12.81-13.36.12-.15.21-.33.24-.51.52-2.94.32-5.58-.42-7.96Z"/>
            </g>
            <g>
              <path class="st22" d="M93.86,86.77c.1-2.19.56-4.5.45-6.69-.15-2.99-1.3-4.12-2.92-5.92-.03,0-.05.01-.08.02-.68.2-1.1-.39-1.04-.92-1.14.81-2.19,1.78-3.13,2.77-.23,2.14-.32,4.3-.42,6.34-.23,4.71-.81,10,.2,14.66.01.07.03.13.05.2,2.17-.13,4.38-.32,6.58-.59-.42-3.13.18-7.06.32-9.86Z"/>
              <path class="st22" d="M103.43,78.62c.58,1.62,1.05,3.4,1.35,5.26.06-.19.12-.39.19-.58.43-1.29.86-2.58,1.29-3.87-.9-.63-1.76-1.51-2.58-2.72-1.81-2.68-3.21-5.28-6.79-5.57-1.75-.14-3.37.29-4.86,1.04,5.49-1.46,9.31.65,11.39,6.45Z"/>
              <path class="st22" d="M104.78,83.88c-.31-1.85-.77-3.64-1.35-5.26-2.07-5.79-5.9-7.91-11.39-6.45-.62.31-1.21.67-1.78,1.08-.06.54.36,1.12,1.04.92.03,0,.05-.01.08-.02,1.62,1.8,2.77,2.93,2.92,5.92.11,2.18-.35,4.49-.45,6.69-.13,2.8-.73,6.73-.32,9.86,2.54-.31,5.07-.73,7.54-1.29,1.36-3.77,2.45-7.69,3.7-11.46Z"/>
            </g>
            <path class="st11" d="M116.85,75.34c-1.48,1-2.89,2.09-4.36,3.1-2.45,1.68-5.02,2.23-6.62-.64-.51-.92-1.92-5.01-4.44-6.94-1.22-.94-3.2-.64-4.7-.44-3.07.4-5.88,2.03-8.32,3.84-1.46,1.09-5.7,5.12-10.03,6.59-4.33,1.47-8.74.88-10.62.65-3.87-.48-8.78-3.07-12.86-5.27-4.34-2.34-7.52-5.24-8.8-5.82-2.3-1.03-9.16-3.76-12.24-6.84-1.74-1.74-.79-4.78-.8-4.76-2.25,2.42-2.36,4.74.76,7.57,3.44,3.12,7.96,4.82,10.36,6.78,1.42,1.16,3.08,3.87,5.54,4.82,1.88.72,5.17.48,6.65.86.37.27.75.42,1.22.47,1.1.6,2.31,1.29,2.67,1.94.3.54,1.85,5.68,2.64,7.8.13.44.28.88.47,1.33.38.92.05-5.57.06-6.64.48.25,1.07.41,1.56.54,3.57.95,7.39.31,10.8-.96.71,2.77,2.48,10.02,2.49,10.01.5-4.04.87-7.25.29-9.07,1.63-2.24,4.44-3.79,6.05-5.01,2.94-2.25,5.99-5.97,11.62-5.61,3.43.22,6.7,3.49,7.38,6.78.75,3.69-.83,8.31-1.17,11.02,2.41-2.56,6.59-7.18,9.18-9.56,3.28-3.02,10.26-6.05,13.25-10.92.59-.95-6.34,3.12-7.99,4.4Z"/>
            <path class="st12" d="M63.94,94.24c-1.26-.56-1.48-2-2.75-2.47-1.89-.71-3.89-.8-5.87-1.02-1.85-.2-1.86-1.42-2.39-2.27-1.17-1.86-2.59-4.03-4.47-4.04-.69,0-.93.81-.52,1.29.96,1.11,2.67,4.47,1.13,4.46-.76,0-2.59-1.48-3.26-1.64-1.93-.62-5.23-.98-8.76-6.04-1.02-1.47-1.79-4.73-3.41-5.83,1.22,3.65,2,5.89,3.11,7.81.31.76.72,1.48,1.36,2.08,1.3,1.75,3.28,3.54,5.21,4.74,4.56,2.84,7.15,3.36,8.37,3.71,2.79.8,16.37,2.15,19.34,2.2-.7-1.68-5-2.05-7.09-2.97Z"/>
            <path class="st11" d="M103.75,48.64c-7.69-4.64-18.04-8.14-26.91-9.61-4.22-.7-8.59-.87-12.86-.55-3.83.28-9.1.18-12.12,2.69-1.9,1.59-4.74,3.9-7,6.18,4.31-1.4,5.46-2.87,8.12-3.91,1.34.05,2.71-1.42,4.12-1.34,2.78.15,5.05,3.45,6.84,5.28,4.57,4.69,6.97,11.29,7.49,17.81,1.5-3.24,1.05-7.95.37-11.46-.46-2.41-1.37-5.48.67-7.41.97-.92,3.36-1.44,4.66-1.7,8.25-1.67,22.69,5.09,26.62,4.02Z"/>
          </g>
          <path class="st6" d="M127.28,67.83c-.79-2.55-2.2-4.81-4-6.82-5.15-5.73-13.56-9.48-20.25-12.37-7.69-4.64-18.04-8.14-26.91-9.61-4.22-.7-8.59-.87-12.86-.55-3.83.28-9.1.18-12.12,2.69-1.9,1.59-4.74,3.9-7,6.18,0,0,0,0,0,0-4.26,3.46-8.39,7.41-11.32,10.82-.19.22-.36.44-.52.66-1.2,1.3-1.79,2.58-1.58,3.92-.56,3.14.11,6.64.94,9.69.39,1.41.79,2.83,1.24,4.23,0,0,0,0,0,0,0,.02.02.05.02.07.16.48.32.96.48,1.44.95,2.79,1.66,4.66,2.61,6.3.31.76.72,1.48,1.36,2.08,1.3,1.75,3.28,3.54,5.21,4.74.01,0,.03.02.04.03.34.22.68.42,1.02.62,3.9,2.28,6.18,2.74,7.3,3.06,2.79.8,16.37,2.15,19.34,2.2,0-.01-.01-.03-.02-.04,2.29.14,4.86.24,7.61.26,2.65.02,5.47-.04,8.36-.21,2.17-.13,4.37-.32,6.58-.59,2.54-.31,5.07-.73,7.54-1.29,5.28-1.19,10.25-2.99,14.29-5.68,4.11-2.74,11.63-7.58,12.81-13.36.12-.15.21-.33.24-.51.52-2.94.32-5.58-.42-7.96ZM56.31,79.19s.05.03.08.04c-.03-.01-.05-.03-.08-.04,0,0,0,0,0,0ZM58.34,80.17s0,0,0,0c-.62-.29-1.23-.59-1.84-.89.6.3,1.21.6,1.83.88ZM126.98,68.11s-.06.06-.09.09c.03-.03.06-.06.09-.09ZM126.68,68.4s-.06.06-.1.09c.03-.03.06-.06.1-.09ZM126.36,68.7s-.06.06-.09.08c.03-.03.06-.06.09-.08ZM126.03,69.03s-.03.03-.05.04c.02-.01.03-.03.05-.04ZM100.93,93.69c-.02.06-.04.12-.06.18.02-.06.04-.12.06-.18Z"/>
        </g>
      </g>
    </g>
  </g>
</svg>