<?xml version="1.0" encoding="UTF-8"?>
<svg xmlns="http://www.w3.org/2000/svg" xmlns:xlink="http://www.w3.org/1999/xlink" version="1.1" viewBox="0 0 159.23 221.82">
  <!-- Generator: Adobe Illustrator 29.0.0, SVG Export Plug-In . SVG Version: 2.1.0 Build 186)  -->
  <defs>
    <style>
      .st0 {
        fill: none;
      }

      .st1 {
        fill: #6d7071;
      }

      .st2 {
        fill: #b8d3d5;
      }

      .st3 {
        fill: #009b65;
      }

      .st4 {
        fill: #cbdee0;
      }

      .st5 {
        fill: #3b605a;
      }

      .st6 {
        fill: #5eb157;
      }

      .st7 {
        mix-blend-mode: multiply;
        opacity: .43;
      }

      .st8 {
        fill: #fbefe2;
      }

      .st9 {
        fill: #8dc4cc;
      }

      .st10 {
        fill: #f6e7d5;
      }

      .st11 {
        fill: #f4f3f0;
      }

      .st12 {
        fill: #6da4a9;
      }

      .st13 {
        isolation: isolate;
      }

      .st14 {
        fill: #98c455;
      }

      .st15 {
        fill: #4ca87c;
      }

      .st16 {
        clip-path: url(#clippath-1);
      }

      .st17 {
        clip-path: url(#clippath-3);
      }

      .st18 {
        clip-path: url(#clippath-4);
      }

      .st19 {
        clip-path: url(#clippath-2);
      }

      .st20 {
        fill: #e7e7df;
      }

      .st21 {
        fill: #3c404a;
      }

      .st22 {
        fill: #3e776e;
      }

      .st23 {
        fill: #28663d;
      }

      .st24 {
        fill: #8d8c89;
      }

      .st25 {
        fill: #d93832;
      }

      .st26 {
        clip-path: url(#clippath);
      }
    </style>
    <clipPath id="clippath">
      <rect class="st0" x=".02" y="17.32" width="16.57" height="13.74"/>
    </clipPath>
    <clipPath id="clippath-1">
      <polygon class="st0" points="64.53 117.79 122.43 109.18 145.07 66.82 155.78 39.21 158.4 34.03 163.31 24.32 162.61 -23.27 67.38 -14.5 22.5 24.67 8.91 95.73 19.55 142.86 54.68 146.29 64.53 117.79"/>
    </clipPath>
    <clipPath id="clippath-2">
      <polygon class="st0" points="65.59 90.96 123.93 90.55 123.93 121.95 65.59 122.37 65.59 90.96"/>
    </clipPath>
    <clipPath id="clippath-3">
      <rect class="st0" x="134.61" y="95.62" width="23.87" height="27.32" transform="translate(255.83 -37.27) rotate(90)"/>
    </clipPath>
    <clipPath id="clippath-4">
      <rect class="st0" x="111.52" y="87.56" width="29.03" height="38.93" transform="translate(19 233.06) rotate(-90)"/>
    </clipPath>
  </defs>
  <g class="st13">
    <g id="Layer_1">
      <g>
        <rect class="st4" x=".33" y="0" width="158.8" height="221.82"/>
        <path class="st2" d="M130.66,87.72c4.46-7.46,5.38-16.83,3.19-25.24-1.53-5.88-4.61-11.27-8.43-16-4.88-6.05-10.93-11.05-17.3-15.5-8.06-5.63-17.07-10.54-26.87-11.18-7.37-.48-14.67,1.5-21.68,3.84-9.98,3.33-20.24,7.87-26.22,16.53-4.95,7.17-6.27,16.27-6,24.97.37,11.81,3.54,23.75,10.43,33.35,6.89,9.6,17.75,16.63,29.54,17.5,0,0,41.59,8.07,63.33-28.27Z"/>
        <g>
          <g>
            <g>
              <path class="st8" d="M141.12,14.57c3.33.33,6.65.67,9.98,1,.55.06,1.12.12,1.59.4.68.41,1.01,1.2,1.31,1.94.17.44.35.93.17,1.36-.23.57-.93.85-1.54.84-8.87-.14-32.45,1.05-35.28-.42l-.55-.55c-.65-.6-.48-1.74.15-2.36s1.56-.82,2.44-.87,1.78.01,2.63-.2c2.31-.56,3.69-2.88,5.66-4.21,1.78-1.21,4.11-1.57,6.18-.96,1.67.49,3.09,1.56,4.57,2.47,2.12,1.31,4.43,2.36,6.87,2.84"/>
              <path class="st8" d="M140.86,15.06c1.9.19,3.8.38,5.7.57l2.85.29c1.16.12,2.58.02,3.32,1.07.48.69,1.33,2.24-.04,2.63-.28.08-.71,0-1.01,0-1,0-2,0-2.99.01-4.88.05-9.76.19-14.65.27-4.33.07-8.69.17-13.02-.13-.95-.07-2.59-.08-3.21-.58-.55-.44-.89-1.1-.57-1.8.43-.93,1.62-.97,2.49-1.01,1.59-.07,2.96-.19,4.32-1.08s2.43-2.31,3.79-3.3c1.74-1.27,3.95-1.59,5.98-.87s3.68,2.16,5.54,3.15c1.73.92,3.56,1.62,5.49,2.02.57.12,1.71-.74.85-.92-2.19-.46-4.24-1.3-6.17-2.44-1.78-1.04-3.44-2.39-5.46-2.92-3.56-.94-6.55.65-9.05,3.06-.66.64-1.32,1.29-2.12,1.75-1.09.62-2.25.5-3.45.58-1.44.11-3.21.62-3.69,2.16-.57,1.82,1.13,2.7,2.59,2.94,4.61.74,9.49.43,14.14.37,5.76-.07,11.52-.26,17.28-.3,1.16,0,2.57.22,3.69-.15,1.86-.61,1.63-2.21.84-3.67-.99-1.83-3-1.7-4.84-1.89-2.69-.27-5.38-.54-8.08-.81-.66-.07-1.5.88-.52.98h0Z"/>
            </g>
            <g>
              <path class="st10" d="M123.93,19.85c3.66-1.29,7.67-.82,11.54-1.12,2.73-.21,5.41-.81,8.13-1.07s5.56-.17,8.06.94c-2.02,1.09-4.45.99-6.75.95-3.03-.05-6.06.07-9.09.19-3.35.13-6.7.26-10.06.39"/>
              <path class="st10" d="M124.47,20.31c2.04-.68,4.23-.7,6.36-.74s4.38-.11,6.57-.41c4.37-.58,8.85-1.71,13.1.07l.31-.93c-1.73.86-3.9.57-5.77.55-2.07-.02-4.15.03-6.22.1-4.15.15-8.3.32-12.45.48-.55.02-1.63.2-1.93.74s.25.67.73.66c4.79-.19,9.57-.41,14.36-.54,4.32-.11,9,.62,13-1.38.35-.17.91-.68.31-.93-4.66-1.95-9.69-.89-14.5-.21s-10.09,0-14.95,1.63c-.39.13-1.12.51-.82.99s1.57.04,1.89-.07h0Z"/>
            </g>
          </g>
          <g class="st26">
            <g>
              <path class="st8" d="M-20.75,27.65c-.75-.83-.37-2.37.68-2.75.8-.3,1.69.04,2.54.1,1.63.12,3.16-.76,4.47-1.74,1.31-.97,2.58-2.09,4.14-2.58,1.78-.55,3.71-.2,5.47.41,1.76.61,3.42,1.48,5.21,1.99,3.55,1.02,7.45.61,10.83,2.09.5.22,1.05.56,1.11,1.11.06.48-.31.92-.74,1.12s-.93.21-1.41.21c-1.68.01-3.36.03-5.03.04-7.35.06-14.72.11-22.05.69-1.72.14-3.49.29-5.12-.25"/>
              <path class="st8" d="M-20.08,27.33c-.26-.35-.37-.72-.29-1.16.15-.81,1.05-.84,1.73-.8,1,.06,1.84.19,2.83-.09,1.87-.53,3.32-1.85,4.87-2.95,2.25-1.61,4.5-1.65,7.07-.77,2.1.72,4.06,1.77,6.24,2.25,2.01.44,4.07.54,6.09.84,1.06.16,2.11.38,3.11.76.28.1.73.17.9.41.1.14.1,1.07-.14,1.25-.27.21-1.57.04-1.87.04-4.73.04-9.46.05-14.19.16-2.78.06-5.55.16-8.33.33s-5.6.79-8.19.02c-.59-.17-1.71.69-.85.94,2.57.76,5.29.28,7.92.11,3.18-.2,6.36-.32,9.55-.39s6.21-.1,9.32-.12c1.39-.01,2.78-.02,4.17-.03,1.11,0,2.45.17,3.48-.37.71-.37,1.32-1.15.98-1.97s-1.53-1.2-2.31-1.46c-2.56-.85-5.29-.86-7.93-1.3-5.04-.83-9.87-5.02-14.96-1.99-1.24.74-2.29,1.73-3.51,2.5-.87.55-1.83,1-2.89.95-.64-.03-1.26-.23-1.9-.22-1.89.03-3.54,1.94-2.24,3.69.37.5,1.76-.05,1.33-.63h0Z"/>
            </g>
            <g>
              <path class="st10" d="M.93,23.63c1.34.98,5.08,2.21,6.72,2.42.73.09,1.5.17,2.15-.17.08-.04.16-.1.17-.18.02-.12-.09-.22-.2-.27-.48-.27-1.05-.34-1.6-.41-2.44-.32-4.86-.78-7.25-1.38"/>
              <path class="st10" d="M-.03,23.97c.84.61,1.86,1,2.83,1.35,1.08.4,2.2.75,3.33.98,1.45.3,3.11.35,4.44-.42.25-.14.55-.36.33-.65-.19-.25-.62-.34-.9-.41-.79-.21-1.64-.25-2.45-.38-1.94-.3-3.87-.69-5.77-1.17-.43-.11-1.02.1-1.41.28-.17.08-.69.36-.27.46,1.82.46,3.66.84,5.51,1.13.87.14,1.79.18,2.64.4.21.05.38.16.58.23.1.13.22.15.38.05.25-.05.3-.07.15-.06-.14-.05-.41-.02-.57-.03-.14-.01-.27-.03-.41-.05-1.14-.17-2.27-.52-3.36-.91s-2.2-.79-3.13-1.46c-.3-.21-1,.04-1.3.15-.11.04-.88.33-.62.52H-.03Z"/>
            </g>
          </g>
          <g class="st16">
            <g>
              <g>
                <path class="st9" d="M142.43,174.85c3.9,3.56,9.42,5.26,14.65,4.5,5.22-.76,10.04-3.97,12.75-8.5.34-.57.66-1.18.91-1.8.72-.42,1.31-1.01,1.62-1.79.89-2.23-.48-5.52,1.6-6.72.41-.24.92-.34,1.25-.68.75-.77.15-2.02,0-3.08-.44-3.27,3.87-5.6,3.76-8.9-.04-1.19-.67-2.34-.51-3.52.14-1.07.92-1.98,1.05-3.05.13-1-.32-1.97-.65-2.92-2.22-6.37.37-14-3.04-19.82-1.64-2.79-4.41-4.69-6.61-7.05-1.81-1.95-3.24-4.22-4.6-6.5-2.23-3.76-4.37-7.84-4.3-12.21.06-3.52,1.54-6.83,2.61-10.18,1.01-3.17,1.67-6.47,3.13-9.46,1.46-2.99,3.92-5.71,7.16-6.46,1.2-.28,2.58-.35,3.7-.78,5.04.1,10.3,1.22,13.73,4.84,5.22,5.51,4.22,14.32,7.06,21.37,1.48,3.67,4,6.81,6.63,9.77,3.99,4.49,8.34,8.72,13.43,11.92,5.08,3.2,10.95,5.33,16.96,5.36l-3.57-12.61c-3.81-.7-7.66-2.03-10.4-4.77-2.84-2.85-4.16-6.9-4.66-10.89-.5-3.99-.27-8.04-.51-12.06-.39-6.57-2.15-13.26-6.23-18.42-1.07-1.35-2.37-2.82-2.18-4.53.05-.43.18-.92-.07-1.27-.31-.44-.96-.38-1.5-.36-2.07.07-4.09-1.41-4.65-3.4-.17-.59-.22-1.23-.56-1.74-.93-1.39-3.08-.86-4.65-1.42-3.53-1.26,1.31-8.02-1.61-10.37-1.82-1.46-8.51-.05-10.66.87-2.15.92-4.14,2.31-6.44,2.71-.48-1.27-.71-2.63-.7-3.99-.78-.45-1.79.19-2.21.99-.42.8-2.38-.56-2.77.25-1.1,2.31-2.4,3.61-4.95,3.77-1.1.07-2.05,1.59-3.15,1.65-.45.03-.93.06-1.31.32-.87.6-.84,2.13-1.84,2.5-.65.25-1.4-.18-2.07,0-.8.21-1.14,1.14-1.33,1.94-.45,1.98-.63,4-.58,6.02-.59.58-.94,1.41-.9,2.24l.91-.32c-1.87,3.22-1.87,7.18-1.4,10.87s1.34,7.38,1,11.09c-.49,5.43-3.53,10.52-3.27,15.96.28,5.76,4.19,10.81,4.78,16.54.19,1.84.02,3.7-.05,5.56-.5,13.24-1.73,23.32-2.46,36.54-.13,2.36-.45,4.8-1.74,6.78-.46.7-1.05,1.41-1.3,2.17-.66.68-1.6,1.13-2.55,1.26-1.5.21,2.51,2.79,1.11,2.22-4.82-1.97-8.9-5.58-13.9-7.01-1.6-.46-3.31-.7-4.73-1.58-2.03-1.26-3.09-3.57-4.14-5.71-3.2-6.48-7.35-12.49-12.28-17.77-.62-.66-1.25-1.33-1.65-2.14-.94-1.95-.29-4.24.14-6.36.28-1.39.38-2.97-.06-4.27,2.68-5.55,1.54-12.16.88-18.33-.28-2.62-.46-5.25-.54-7.88-.12-3.93.03-8.01,1.79-11.53,1.61-3.21,4.43-5.64,6.55-8.55,2.42-3.32,4-7.35,7.22-9.9.61-.49,1.31-.95,1.61-1.67.08-.18.12-.37.14-.56.36-.33.66-.74.93-1.15,1.63-2.45,2.96-5.09,3.96-7.85.99-2.72,1.65-5.56,2.67-8.27,1.83-4.82,4.83-9.37,5.04-14.52.13-3.22-.87-6.37-2.06-9.37-1.27-3.21-2.79-6.35-4.84-9.14-3.15-4.28-7.48-7.59-12.13-10.16-2.02-1.12-4.12-2.11-6.33-2.76-5.44-1.6-11.44-1.04-16.58,1.36-5.13,2.4-9.38,6.58-12.03,11.59-3.25,6.14-4.23,13.52-8.69,18.85-3.99,4.78-10.19,7.15-16.31,8.32-6.11,1.17-12.4,1.34-18.47,2.71-.12.03-.25.06-.37.09-1.5-.03-3.02.29-4.43.83-2.51.97-4.7,2.59-6.86,4.19-2.25,1.67-4.52,3.36-6.36,5.48-.62.71-1.18,1.46-1.69,2.23-4.03,3.22-6.42,8.27-7.17,13.4-.8,5.52.13,11.16,1.59,16.55.22.81.45,1.63.43,2.47-.03.8-.29,1.57-.4,2.36-.21,1.53.17,3.07.6,4.56.98,3.45,2.2,6.83,3.64,10.12,1.05,2.4,2.24,4.78,3.98,6.75,1.74,1.96,5.09,5.77,7.7,6.06.26.03-.46-2.23-.26-2.39.28-.21.28-.63.26-.98-.25-3.9-.51-7.83-1.47-11.62-.99-3.9-2.75-7.73-2.49-11.75.05-.78.18-1.59-.02-2.35-.31-1.19-1.39-2.19-1.26-3.41,1.46.03,2.26-1.67,2.59-3.09.95-4.04,3.92-5.67,5.68-9.31,3.39-4.02,6.13-5.99,11.08-7.52,2.08-.64,2.87-5.25,4.96-5.86.42-.12.84-.26,1.25-.42,1.68-.23,3.32-.88,4.96-1.37,8.03-2.37,17.19-.85,24.42-5.06,10.01-5.83,12.52-20.47,22.86-25.64,2.7-.8,5.82,1.06,7.17,3.63,1.47,2.8,1.41,6.12,1.31,9.28-.11,3.46-.24,7.02-1.6,10.21-.34.8-.77,1.59-.84,2.46-4.84,4.25-8.1,10.49-13.98,13.09-3.46,1.53-7.51,1.62-10.72,3.64-3.25,2.04-5.11,5.72-8.06,8.17-1.33,1.1-2.92,2.01-3.7,3.54-.86,1.69-.52,3.71-.35,5.61.3,3.34,1.26,5.93.67,9.21-.69,3.84-3.04,8.36-4.06,12.19-1.29,4.79-1.48,21.03,3.48,28.57,2.44,3.71,5.66,10.8,8.56,14.16.21.51.5.99.81,1.45,6.52,9.98,17.58,12.88,29.37,14.62,7.15,1.05,15.15.5,20.72,5.1,1.45,1.2,2.64,2.69,4.03,3.96ZM108.94,26.24c.18-.09.37-.17.55-.23l-.55.23Z"/>
                <g>
                  <path class="st9" d="M142.03,175.3c5.63,5.03,13.95,6.24,20.71,2.83,3.15-1.58,5.86-4.03,7.66-7.07.46-.77.72-1.49,1.41-2.08.61-.53,1.04-1.18,1.27-1.95.45-1.47.07-3.02.34-4.51.19-1.06.66-1.38,1.58-1.86.62-.33,1.06-.77,1.18-1.48.13-.79-.18-1.55-.3-2.31-.13-.86.04-1.62.43-2.39.69-1.38,1.79-2.52,2.53-3.87.8-1.46.86-2.78.49-4.39-.29-1.21-.25-2.03.24-3.18.35-.81.65-1.56.58-2.46s-.47-1.76-.75-2.62c-.36-1.08-.57-2.2-.71-3.34-.47-3.91.03-7.89-.68-11.78s-2.82-6.53-5.62-9.13c-1.62-1.5-3.18-3.01-4.49-4.79s-2.48-3.73-3.57-5.67c-2.28-4.05-4.01-8.39-3.08-13.1.44-2.24,1.27-4.37,1.99-6.52s1.24-4.27,1.9-6.39c1.19-3.85,3.2-8.17,7.24-9.71.96-.37,1.97-.47,2.98-.65s1.93-.41,2.99-.35c1.94.13,3.89.41,5.75,1,3.8,1.19,6.82,3.64,8.49,7.29,1.57,3.43,2.01,7.24,2.71,10.91.7,3.66,1.72,7.11,3.7,10.3,2.22,3.58,5.15,6.75,8.09,9.75,5.84,5.96,12.76,11.12,20.99,13.13,2.14.52,4.31.79,6.51.82.47,0,.84-.3.7-.79-1.19-4.2-2.38-8.41-3.57-12.61-.06-.2-.3-.31-.49-.35-4.08-.77-8.24-2.26-10.92-5.6s-3.56-7.77-3.83-11.97c-.29-4.55-.02-9.11-.7-13.64-.6-3.99-1.76-7.94-3.76-11.46-.96-1.69-2.2-3.12-3.3-4.7-.72-1.04-.98-1.88-.89-3.15.04-.59-.05-1.16-.58-1.52-.59-.4-1.34-.24-2-.28-1.08-.07-2.1-.58-2.82-1.38-1.1-1.22-.81-3.18-2.19-4.15-1.31-.92-2.99-.37-4.37-1.02-1.09-.51-.92-1.87-.78-2.87.29-2.06,1.35-4.81.03-6.72-1.53-2.22-5.49-1.42-7.68-1.02-1.37.25-2.77.56-4.07,1.08-2.18.87-4.11,2.27-6.44,2.74l.66.35c-.44-1.26-.65-2.51-.66-3.84,0-.21-.19-.39-.37-.46-.65-.25-1.26-.24-1.88.1-.58.31-.88,1.04-1.53,1.05-.95.02-1.71-.57-2.41.4-.48.67-.73,1.45-1.32,2.07-.66.7-1.48,1.12-2.42,1.28-.66.11-1.22.13-1.81.47-.7.4-1.23,1.08-2.04,1.26-.71.16-1.26.1-1.84.62-.47.42-.64.98-.92,1.52-.6,1.13-1.27.52-2.29.66-.6.09-1.05.38-1.41.86-1.02,1.38-1.08,3.64-1.19,5.28-.06.9.1,1.83-.35,2.61-.4.69-.58,1.31-.6,2.11,0,.42.56.57.86.46l.91-.32-.81-.76c-4.13,7.42.67,15.78-.64,23.59-.66,3.91-2.36,7.56-2.91,11.49-.51,3.64.37,7.03,1.69,10.4,1.45,3.72,3.04,7.28,3.01,11.35-.03,4.4-.36,8.82-.65,13.21-.54,8.16-1.31,16.29-1.81,24.45-.13,2.18-.14,4.43-.77,6.54-.36,1.2-.97,2.15-1.65,3.18-.33.49-.58,1.14-1.03,1.53-.49.42-1.11.52-1.7.68-.73.2-1.12.65-.74,1.39.2.39.57.7.88.99.14.13.28.27.43.4.18.14.29.4.28.15l.4-.6c.36-.15.32-.01-.18-.23-.38-.16-.75-.33-1.12-.51-.88-.43-1.73-.9-2.58-1.39-1.49-.86-2.94-1.77-4.45-2.6s-2.99-1.57-4.59-2.11-3.5-.75-5.07-1.59c-3.04-1.63-4.22-5.73-5.78-8.58-1.77-3.21-3.77-6.29-5.98-9.21-1.11-1.47-2.28-2.9-3.5-4.28-1.19-1.35-2.9-2.69-3.25-4.54s.35-3.79.63-5.64c.12-.77.17-1.56.11-2.34-.03-.37-.18-.77-.18-1.12,0-.44.2-.79.36-1.2,2.62-6.86.53-14.57.06-21.63-.26-3.91-.5-7.98.43-11.82.91-3.73,3.33-6.43,5.76-9.26,2.21-2.58,3.78-5.49,5.65-8.3,1-1.5,2.13-2.85,3.54-3.97.48-.38.97-.75,1.31-1.27s.52-1.04.9-1.55c4.51-5.99,5.51-13.6,8.56-20.28,1.44-3.14,3.01-6.34,3.45-9.81.47-3.7-.56-7.31-1.9-10.73-1.33-3.4-2.94-6.72-5.13-9.65-2.04-2.73-4.57-5.07-7.32-7.07C124.26-.03,117.54-3.14,110.26-2.59c-6.66.51-12.84,3.78-17.23,8.77-4.52,5.13-6.03,11.56-8.62,17.71-1.35,3.21-3.12,6.22-5.79,8.51-2.63,2.25-5.81,3.76-9.09,4.79-3.6,1.14-7.34,1.67-11.08,2.12-4.06.49-8.06,1.04-12.08,1.76-1.78.32-3.45.35-5.17,1.04s-3.17,1.59-4.62,2.6c-2.93,2.04-5.96,4.19-8.37,6.83-.65.71-1.18,1.48-1.77,2.24-.47.61-1.11,1.07-1.65,1.61-1.08,1.09-2.01,2.32-2.8,3.63-1.65,2.73-2.67,5.84-3.1,8.99-.53,3.93-.23,7.92.52,11.8.37,1.92.94,3.78,1.36,5.69.39,1.77-.38,3.41-.28,5.19.11,1.81.75,3.62,1.29,5.35.61,1.93,1.29,3.85,2.04,5.73,1.32,3.3,2.78,6.65,5.14,9.35,1.75,2,3.65,4.16,6.01,5.47.57.32,1.98,1.11,2.59.53.54-.52-.02-1.54-.07-2.15-.04-.47.17-.69.23-1.16.1-.84-.08-1.78-.14-2.63-.14-1.95-.31-3.9-.6-5.84-.58-3.86-2.08-7.44-2.87-11.24-.38-1.82-.3-3.52-.28-5.36.01-.79-.14-1.47-.49-2.18-.4-.8-.88-1.48-.87-2.4l-.57.64c2.58-.17,2.81-3.01,3.57-4.88.92-2.26,2.72-3.95,4.08-5.94.77-1.12,1.39-2.24,2.32-3.24s1.93-1.95,3.03-2.76c.97-.71,2-1.33,3.09-1.84,1.18-.55,2.45-.84,3.62-1.37,1.59-.71,2.29-2.65,3.12-4.05.6-1.02,1.12-1.59,2.27-1.94,1.63-.49,3.28-.87,4.91-1.38,5.75-1.81,11.83-1.54,17.7-2.67,5.03-.97,9.33-3.22,12.76-7.04,3.1-3.46,5.36-7.56,7.89-11.43,1.27-1.93,2.61-3.83,4.18-5.53,1.44-1.57,3.54-3.74,5.67-4.29,2.95-.76,5.71,2.04,6.62,4.54,1.11,3.03.83,6.46.69,9.62-.07,1.58-.19,3.17-.47,4.73-.33,1.83-1.12,3.39-1.68,5.13-.39,1.2-1.37,1.89-2.23,2.8-.95,1-1.84,2.05-2.74,3.1-1.73,2.02-3.47,4.08-5.57,5.72-2.38,1.86-5.04,2.73-7.94,3.45-2.65.66-5.29,1.39-7.44,3.17-2.03,1.68-3.51,3.87-5.29,5.78s-4.6,3.16-5.62,5.63c-1.02,2.48-.28,5.71.13,8.25.23,1.41.48,2.82.49,4.25,0,1.71-.41,3.36-.93,4.98-.93,2.89-2.22,5.64-3.1,8.55-1.02,3.38-1.05,7.1-.98,10.6.08,4.51.57,9.09,1.84,13.43s4.06,8.28,6.27,12.29c1.23,2.22,2.46,4.48,3.97,6.53,1.56,2.12,2.8,4.37,4.64,6.3,3.39,3.56,7.69,6.05,12.29,7.71,4.9,1.77,10.11,2.76,15.26,3.45,5.52.73,11.45.52,16.6,2.94,2.86,1.35,4.72,3.68,6.98,5.79.53.49,1.6-.16,1.03-.7-2.18-2.04-3.99-4.31-6.67-5.74-2.28-1.22-4.81-1.87-7.35-2.29-5.52-.9-11.09-1.1-16.59-2.17s-10.55-2.54-15.14-5.37c-2.17-1.34-4.17-2.96-5.88-4.86-.87-.97-1.67-2-2.39-3.09-.4-.6-.68-1.25-1.1-1.83-.37-.51-.77-.99-1.13-1.51-1.53-2.21-2.79-4.6-4.08-6.96-1.16-2.12-2.46-4.16-3.64-6.28-2.23-3.99-3-8.76-3.4-13.25-.37-4.08-.44-8.3.17-12.37.78-5.13,4.01-9.63,4.53-14.82.3-3.03-.56-6.05-.85-9.06-.15-1.54-.39-3.27.35-4.7.7-1.35,2.06-2.16,3.21-3.08,2.11-1.69,3.65-3.9,5.46-5.89,2.13-2.34,4.59-3.55,7.62-4.34,2.76-.72,5.49-1.31,7.93-2.85,2.12-1.34,3.9-3.14,5.56-5,1.83-2.05,3.54-4.22,5.51-6.15.36-.35.94-.7,1.18-1.14.31-.57.4-1.44.67-2.06.61-1.43,1.06-2.89,1.33-4.43.54-3.09.62-6.38.54-9.52-.07-2.67-.51-5.55-2.24-7.69-1.42-1.76-3.68-3.02-5.99-2.86-1.98.14-3.88,1.78-5.31,3.05-7.06,6.25-9.62,16.35-17.37,21.92-4.95,3.56-11.16,3.87-17.02,4.45-2.81.28-5.62.63-8.34,1.38-1.67.46-3.28,1.02-4.96,1.4-1,.23-2.07.51-2.83,1.25-1.36,1.33-1.73,3.42-3.12,4.7-.81.74-2.29.94-3.29,1.35-1.12.47-2.22,1.03-3.24,1.69-1.97,1.28-3.71,2.96-5.21,4.76-.85,1.02-1.4,2.29-2.23,3.35-.73.93-1.5,1.82-2.16,2.8-.63.93-1.14,1.91-1.47,2.98-.38,1.2-.64,3.25-2.24,3.35-.35.02-.57.32-.57.64-.02,1.61,1.32,2.74,1.37,4.34.03.92-.14,1.83-.1,2.75.04,1.03.2,2.06.42,3.07.77,3.57,2.16,6.94,2.75,10.56.3,1.85.48,3.73.62,5.6.07.9.28,1.92.19,2.81-.05.5-.31.79-.29,1.29.02.35.13.72.2,1.07.02.11.04.55.12.63l.02.16c.58-.34.6-.53.07-.56-.54-.36-1.21-.56-1.76-.95-.73-.51-1.4-1.1-2.05-1.71-2.25-2.15-4.24-4.5-5.65-7.28-1.74-3.41-3.09-7.06-4.22-10.7-.53-1.69-1.17-3.49-1.15-5.29,0-.94.32-1.8.42-2.72.1-.9-.05-1.75-.28-2.62-.95-3.7-1.79-7.41-1.96-11.25-.16-3.76.31-7.57,1.74-11.06.57-1.39,1.28-2.74,2.14-3.97.99-1.42,2.23-2.43,3.41-3.66.63-.65,1.09-1.54,1.69-2.23s1.21-1.29,1.86-1.89c1.44-1.31,3.01-2.46,4.57-3.62,3.2-2.37,6.29-4.41,10.34-4.78,1.84-.17,3.69-.67,5.53-.94s3.8-.49,5.7-.71c3.68-.43,7.36-.87,10.96-1.79,5.92-1.51,11.64-4.41,15.12-9.61,3.68-5.48,4.63-12.23,7.86-17.93S99.72.93,106.26-.77c3.54-.92,7.31-1,10.88-.17,3.78.88,7.32,2.81,10.54,4.93,2.87,1.9,5.54,4.13,7.75,6.79,2.35,2.83,4.06,6.1,5.46,9.49,1.51,3.67,2.81,7.58,2.19,11.59-.54,3.51-2.22,6.69-3.65,9.89s-2.35,6.56-3.45,9.9c-.59,1.78-1.29,3.52-2.14,5.2-.4.79-.82,1.56-1.27,2.32-.23.38-.46.75-.7,1.12-.3.46-.82.93-1.08,1.4-.36.65-.48,1.19-1.1,1.71-.42.35-.85.66-1.26,1.03-1.21,1.1-2.18,2.41-3.07,3.77-1.84,2.81-3.44,5.65-5.64,8.2-2.18,2.53-4.36,5-5.41,8.24-1.06,3.27-1.08,6.77-.96,10.17.13,3.94.6,7.83,1.01,11.74.36,3.52.6,7.14-.23,10.62-.22.92-.53,1.8-.9,2.67-.32.77-.07,1.06.03,1.92.22,1.86-.44,3.65-.7,5.47-.21,1.51-.19,3.05.58,4.41.83,1.46,2.22,2.64,3.32,3.9,2.32,2.67,4.45,5.51,6.36,8.49,1.91,2.97,3.4,6.13,5.09,9.22.65,1.19,1.39,2.34,2.41,3.24,1.23,1.08,2.74,1.55,4.29,1.95,3.44.87,6.37,2.44,9.41,4.24,1.34.8,2.69,1.6,4.09,2.3.61.31,1.91,1.25,2.66.93.25-.11.42-.32.4-.6-.03-.52-.82-.97-1.14-1.29-.12-.12-.28-.36-.42-.44-.06-.03-.08-.14-.13-.17-.14-.07-.22.3-.29.25.39.24,1.66-.5,2.02-.71.66-.4.96-.79,1.3-1.46.45-.88,1.12-1.62,1.56-2.51.79-1.61,1.09-3.41,1.23-5.19.64-8.12,1.18-16.25,1.77-24.37.3-4.17.55-8.34.72-12.51.08-1.98.26-3.99.09-5.97-.15-1.77-.63-3.49-1.22-5.16-1.25-3.56-3.12-6.99-3.52-10.79-.42-3.99,1.08-7.8,2.16-11.56.58-2.02,1.04-4.07,1.11-6.18.08-2.43-.28-4.84-.65-7.23-.69-4.49-1.38-9.3.93-13.46.28-.51-.37-.91-.81-.76l-.91.32.86.46c.02-.97.66-1.29.89-2.08s0-1.95.08-2.8c.08-.93.21-1.86.4-2.77.23-1.1.41-1.85,1.73-1.89,1.14-.03,1.86-.03,2.48-1.13.43-.77.52-1.5,1.52-1.69.62-.12,1.03-.16,1.59-.5s1.03-.88,1.66-1.1,1.27-.18,1.89-.38c1.05-.34,1.94-.98,2.63-1.84.38-.47.61-1.01.96-1.5.41-.58.79-.25,1.39-.17.37.05.75.09,1.1-.08.68-.33.87-1.57,1.88-1.18l-.37-.46c.01,1.43.27,2.79.74,4.14.08.24.42.4.66.35,3.28-.66,5.99-2.8,9.27-3.56,1.46-.34,2.96-.58,4.45-.64,1.16-.04,2.77-.09,3.39,1.1,1.06,2.02-.45,4.9-.44,7.04,0,.93.25,1.87,1.03,2.45,1.13.83,2.65.58,3.94.9,1.2.3,1.3,1.21,1.61,2.24.22.74.58,1.41,1.09,1.99.99,1.11,2.41,1.79,3.89,1.83.69.02,1.14-.15,1.25.81.04.36-.06.73-.01,1.09.11.82.5,1.56.94,2.25,1.14,1.77,2.55,3.29,3.57,5.15,2.03,3.71,3.15,7.87,3.65,12.06.55,4.59.2,9.23.65,13.83.41,4.17,1.59,8.52,4.47,11.69,2.9,3.19,7.09,4.65,11.22,5.43l-.49-.35c1.19,4.2,2.38,8.41,3.57,12.61l.7-.79c-9.01-.11-17.08-4.66-23.62-10.57-6.15-5.55-12.32-12.12-14.19-20.41-1.49-6.6-1.69-14.43-7.67-18.81-2.93-2.15-6.61-3.06-10.18-3.35-.77-.06-1.63-.2-2.39-.09-1.05.14-2.16.46-3.21.67-1.64.33-3.13,1.03-4.41,2.1-2.94,2.45-4.38,6.02-5.45,9.59-.66,2.21-1.25,4.43-2.01,6.62-.69,2-1.42,4-1.78,6.09-.72,4.2.55,8.2,2.49,11.9,1.93,3.69,4.16,7.45,7.15,10.38,2.93,2.88,6.07,5.31,7.04,9.52.89,3.85.41,7.84.76,11.74.17,1.9.63,3.63,1.22,5.44.46,1.4.23,2.23-.32,3.55-.36.86-.52,1.69-.36,2.62s.54,1.82.43,2.78c-.08.79-.46,1.51-.87,2.18-.77,1.27-1.82,2.38-2.43,3.74-.25.57-.44,1.17-.47,1.8-.04.84.5,1.78.37,2.57-.18,1.13-1.26,1.16-1.92,1.85-.42.43-.66.99-.79,1.57-.33,1.47.06,3.03-.31,4.5-.13.51-.35.95-.7,1.34-.28.3-.7.46-.96.76-.59.68-.89,1.8-1.4,2.57-4.53,6.83-13.46,9.47-21,6.33-1.85-.77-3.52-1.86-5.01-3.19-.55-.5-1.41.37-.81.91Z"/>
                  <path class="st9" d="M109.18,26.77c.18-.09.36-.16.55-.23l-.46-1.06c-.16.07-.32.13-.48.2l-.07.03c-.08.03-.15.07-.2.13-.06.05-.11.11-.15.18-.04.07-.06.14-.05.22-.01.08,0,.15.04.23l.08.13c.07.08.15.14.25.18l.16.04c.12.01.23,0,.34-.04.16-.07.32-.13.48-.2l.07-.03c.08-.03.15-.07.2-.13.06-.05.11-.11.15-.18.04-.07.06-.14.05-.22.01-.08,0-.15-.04-.23l-.08-.13c-.07-.08-.15-.14-.25-.18l-.16-.04c-.12-.01-.23,0-.34.04-.19.06-.37.14-.55.23-.08.03-.15.07-.2.13-.06.05-.11.11-.15.18-.04.07-.06.14-.05.22-.01.08,0,.15.04.23l.08.13c.07.08.15.14.25.18l.16.04c.12.01.23,0,.34-.04Z"/>
                </g>
              </g>
              <g class="st7">
                <path class="st12" d="M33.02,49.82c-4.42,3.24-8.09,7.29-9.59,12.67-.77,2.75-1.03,5.61-1.13,8.46-.11,3.04-.06,6.12,1.19,8.95.29.65,2.45-.06,2.22-.59-1.13-2.55-1.27-5.31-1.21-8.06.06-2.91.29-5.84,1.02-8.66,1.38-5.36,4.86-9.34,9.24-12.55.4-.29.21-.52-.17-.63-.46-.13-1.2.15-1.57.42h0Z"/>
                <path class="st12" d="M43.94,51.29c-6.02,2.9-11.16,7.53-14.61,13.26-.48.8,1.71.52,2.04-.03,3.31-5.49,8.13-9.93,13.91-12.7.32-.15.64-.53.22-.76-.44-.24-1.16.04-1.56.24h0Z"/>
                <path class="st12" d="M117.95,14.04c6.49,4.59,9.43,13.19,9.62,20.87.2,7.74-2.25,15.47-7.11,21.52-.88,1.1,1.21,1.49,1.86.68,7.98-9.95,9.9-24.36,4.27-35.9-1.63-3.34-3.9-6.32-6.94-8.47-.82-.58-2.75.56-1.7,1.3h0Z"/>
                <path class="st12" d="M105.17,23.4c-2.87-.27-5.84.46-8.25,2.03s-4.06,4.22-5,7.03c-.96,2.88-1.38,5.92-2.48,8.75-1.01,2.62-2.64,5.45-5.44,6.42-.24.08-.87.33-.65.67.2.3,1.21-.03,1.43-.11,5.06-1.76,6.93-6.84,8.11-11.62.68-2.78,1.32-5.66,2.87-8.11,1.76-2.78,4.67-4.43,7.98-4.12.46.04,1.21-.1,1.57-.42.29-.27.34-.48-.14-.53h0Z"/>
                <path class="st12" d="M97.66,151.04c-1.25-11.21-14.43-16.63-15.21-27.99-.03-.41-2.26-.03-2.22.59.78,11.37,13.97,16.79,15.21,27.99.05.44,2.29,0,2.22-.59h0Z"/>
                <path class="st12" d="M105.79,85.08c-1.88,4.2-.09,8.56-.12,12.91-.01,2.3-.39,4.44-.02,6.74.37,2.3,1.07,4.7.11,6.95-.49,1.13,1.74,1.07,2.11.21.85-1.98.66-3.99.3-6.06-.21-1.19-.47-2.39-.53-3.6s.16-2.37.24-3.55c.28-4.42-1.88-9.15.02-13.39.5-1.12-1.73-1.07-2.11-.21h0Z"/>
                <path class="st12" d="M136.93,162.26c-6.48-.67-11.48-4.56-14.71-10.07-2.94-5.01-4.83-10.64-9.21-14.66-.75-.69-2.66.43-1.7,1.31,4.6,4.23,6.35,10.49,9.66,15.62,3.43,5.3,8.88,8.82,15.2,9.47,1.12.12,2.25-1.51.75-1.67h0Z"/>
                <path class="st12" d="M156.45,68.76c-1.53,3.4.04,7.1-.56,10.66-.59,3.52-2.32,6.76-2.71,10.32-.77,7.01,4.31,13.09,3.8,20.06-.07,1.03,2.17.66,2.23-.22.5-6.87-4.37-12.82-3.84-19.65.27-3.51,1.93-6.7,2.63-10.12.34-1.67.34-3.32.18-5.02-.18-1.98-.49-4,.35-5.87.48-1.08-1.74-.94-2.09-.16h0Z"/>
              </g>
              <g>
                <path class="st12" d="M78.68,104.46c1.81,7.24-1.21,14.6.18,21.86.63,3.29,2.38,5.91,4.53,8.42,2.2,2.57,4.6,5.05,5.6,8.36.03.1.34.14.31.04-.93-3.08-3.07-5.46-5.13-7.85-2.31-2.66-4.31-5.39-4.99-8.93-1.39-7.25,1.63-14.62-.18-21.86-.03-.1-.33-.15-.31-.04h0Z"/>
                <path class="st12" d="M128.65,51.72c1.99-6.06,2.89-12.39,3.4-18.73.26-3.24.47-6.49.6-9.74.12-2.75.04-5.59-1.22-8.1-2.34-4.66-7.78-7.5-12.59-8.87-6-1.71-12.25-.41-18.17,1.06-2.51.62-4.98,1.5-7.09,3.02-2.28,1.64-4.05,3.86-5.78,6.05-.04.05.21-.05.26-.11,1.86-2.34,3.76-4.74,6.3-6.37,2.71-1.73,5.89-2.42,9-3.06s5.97-1.25,9.02-1.28c2.77-.03,5.5.52,8.1,1.48,4.38,1.62,9.12,4.4,11,8.91,1.09,2.62,1.01,5.52.86,8.3s-.31,5.74-.54,8.6c-.51,6.42-1.4,12.83-3.42,18.96,0,.01.25-.06.27-.14h0Z"/>
                <path class="st12" d="M128.31,50.27c-.65,2.12-1.4,4.49-3.32,5.82-1.65,1.15-3.38,1.47-4.24,3.48-1.07,2.48-1.75,5.19-2.6,7.75-.88,2.67-1.77,5.35-2.65,8.02s-1.77,5.33-2.64,7.99c-.83,2.51-1.58,5.04-1.81,7.69-.44,5.19.72,10.34.87,15.52.18,6.24-1.87,11.96-4.11,17.69-.05.12.23.28.28.13,1.91-4.89,3.84-9.88,4.09-15.18.24-5.13-.9-10.19-.95-15.31-.05-5.62,2.03-10.79,3.77-16.05,1.79-5.42,3.59-10.85,5.38-16.27.49-1.49.91-2.93,2.28-3.85.96-.64,2.08-.97,2.97-1.72,1.65-1.4,2.34-3.58,2.95-5.58.04-.12-.24-.28-.28-.13h0Z"/>
                <path class="st12" d="M106.55,128.89c.76,1.61,2.14,2.64,3.59,3.59,1.62,1.06,3.18,2.09,4.46,3.55,2.83,3.21,4.27,7.34,5.89,11.23,1.42,3.42,3.11,6.94,5.91,9.45,3.32,2.98,7.99,3.17,11.51,5.81,1.79,1.35,3.42,2.84,5.39,3.94,1.66.92,3.45,1.62,5.31,1.97,3.35.63,7.02.11,9.88-1.82,1.63-1.09,2.9-2.61,4.03-4.2s2.78-3.57,2.86-5.61c.04-.96-.39-1.67-.88-2.45-.72-1.15-.77-2.08-.21-3.34.87-1.95,1.5-3.61,1.39-5.79-.27-5.27-3.71-9.61-5.03-14.59-1.4-5.26-.71-10.79-.03-16.1,0-.05-.3-.04-.31.06-.56,4.37-1.12,8.82-.54,13.21.58,4.38,2.76,8.05,4.33,12.09.74,1.92,1.28,3.95,1.28,6.02,0,1.11-.16,2.21-.54,3.26-.35.95-.97,1.82-1.2,2.81-.45,1.91,1.5,3.03,1.42,4.89-.08,2.02-1.74,4-2.86,5.58-1.34,1.89-2.91,3.67-4.99,4.76-2.37,1.24-5.14,1.6-7.78,1.22-2.27-.33-4.43-1.18-6.39-2.35-1.75-1.04-3.23-2.41-4.85-3.63-3.27-2.46-7.58-2.7-10.81-5.22-2.96-2.31-4.76-5.76-6.22-9.15-1.63-3.77-2.93-7.75-5.42-11.07-1.23-1.64-2.71-2.92-4.42-4.03s-3.55-2.2-4.47-4.14c-.04-.08-.34,0-.31.06h0Z"/>
                <path class="st12" d="M212.31,99.78c-4.86-7.07-8.85-14.55-12.11-22.49-1.16-2.83-2.27-5.69-3.55-8.48-1.35-2.94-2.79-6-5.2-8.23-3.04-2.82-7.03-4.62-10.87-6.07-1.85-.7-3.7-1.09-5.65-.61-2.19.53-4.11,1.85-5.88,3.19-3.47,2.61-6.7,5.79-8.56,9.77-1.02,2.19-1.46,4.53-1.79,6.9-.38,2.7-.75,5.41-1.13,8.11-.43,3.1-.97,6.22-.97,9.36,0,2.64.54,5.19,1.29,7.7,1.52,5.13,3.86,10.39,2.52,15.82-.03.12.28.18.31.06,1.05-4.23-.15-8.41-1.44-12.44-.69-2.14-1.41-4.28-1.87-6.49-.54-2.56-.58-5.14-.33-7.73.49-5.18,1.3-10.38,2.11-15.52.73-4.66,2.76-8.55,6.07-11.9,1.59-1.61,3.36-3.05,5.21-4.35,2.27-1.58,4.86-2.91,7.71-2.41,2.34.41,4.69,1.61,6.81,2.63,1.95.95,3.85,2.04,5.52,3.43,2.74,2.29,4.31,5.45,5.78,8.64,1.21,2.61,2.26,5.28,3.34,7.94,3.34,8.18,7.39,15.9,12.4,23.19.06.09.37.09.29-.04h0Z"/>
                <path class="st12" d="M125.5,166.18c-8.27-2.01-17.01-5.1-22.15-12.34-2.59-3.64-3.41-8.08-5.27-12.08-1.83-3.94-4.23-7.59-6.51-11.28-2.4-3.88-5.27-7.76-6.94-12.03s-1.46-8.72-1.17-13.1c.27-3.98.82-7.98,2.08-11.78s3.46-7.09,6.21-10.17c1.32-1.48,2.47-3.04,2.68-5.06.13-1.22.08-2.41,1.06-3.31.84-.78,2.03-1.17,3.03-1.68,1.94-1.01,3.76-2.23,5.42-3.65,1.93-1.65,3.74-4.38,6.47-4.61.22-.02.03-.1-.09-.09-1.56.13-2.77.97-3.89,2.02-1.67,1.56-3.23,3.14-5.12,4.45-1.72,1.19-3.65,1.94-5.42,3.03-1.86,1.15-1.48,2.76-1.89,4.65-.45,2.04-1.97,3.6-3.33,5.09-1.38,1.52-2.6,3.13-3.57,4.94-1.91,3.56-2.93,7.53-3.48,11.52-.61,4.35-1,9-.41,13.37.62,4.66,3.12,8.48,5.55,12.4,2.53,4.08,5.18,8.1,7.49,12.31,1.19,2.17,2.22,4.41,3.04,6.75.71,2.03,1.34,4.1,2.34,6.01,4.59,8.84,14.57,12.5,23.66,14.71.06.01.37-.04.22-.07h0Z"/>
                <path class="st12" d="M102.87,20.31c4.09-.17,8.46.22,12.03,2.39s5.49,5.74,6.48,9.61c1.02,3.96,1.49,8.56.44,12.56-.57,2.18-1.78,3.98-3.02,5.83s-2.24,3.59-3.16,5.5c-1.68,3.48-2.75,8.48-6.81,9.94-.18.07,0,.33.15.27,3.42-1.23,4.7-4.93,6-7.99,1.06-2.5,2.34-4.9,3.84-7.18,1.19-1.81,2.46-3.55,3.11-5.65,1.28-4.09.82-8.83-.18-12.94-.91-3.75-2.7-7.37-5.91-9.65-3.76-2.67-8.59-3.17-13.07-2.98-.2,0-.09.29.08.29h0Z"/>
                <path class="st12" d="M103.23,20.28c-8.41.42-11.9,9.21-14.72,15.82-.97,2.28-1.95,4.56-2.92,6.84-.9,2.11-1.71,4.34-3.27,6.07-3.42,3.8-9.03,5.3-13.99,5.1-2.4-.1-4.72-.7-7.1-.95-1.76-.18-3.52-.11-5.26.2-3.81.68-7.34,2.42-10.62,4.42-3.44,2.11-6.93,4.44-9.86,7.24-1.43,1.37-2.71,2.9-3.66,4.64-1.04,1.93-1.61,4.05-2.3,6.12-.82,2.44-2.13,4.46-3.34,6.71-1.12,2.09-1.41,4.29-.84,6.61.61,2.48,1.93,4.72,3.2,6.91,1.38,2.39,2.76,4.79,4.15,7.18.04.08.33-.02.32-.04-2.23-3.86-4.83-7.68-6.56-11.79-.81-1.93-1.35-4.04-.97-6.14s1.8-3.94,2.85-5.84c2.01-3.66,2.4-7.96,4.86-11.4,2.34-3.27,5.7-5.66,8.97-7.91,3.77-2.6,7.77-5.08,12.23-6.26,2.64-.7,5.29-.79,7.99-.38,2,.3,3.98.72,6.01.78,3.43.11,6.92-.55,9.99-2.11,1.51-.76,2.95-1.73,4.1-2.97,1.47-1.58,2.27-3.58,3.11-5.54,2-4.69,3.81-9.54,6.15-14.07,2.3-4.46,6.01-8.88,11.41-9.15.12,0,.29-.1.07-.09h0Z"/>
                <path class="st12" d="M123.8,25.22c-2.31-8.61-9.93-16.33-19.41-15.07-11.03,1.47-17.06,11.98-19.55,21.8-1.16,4.59-1.99,9.76-5.25,13.42-3.95,4.45-10.26,4.25-15.58,2.96-2.8-.68-5.53-1.62-8.35-2.22-3.07-.66-6.13-.74-9.24-.35-2.63.34-5.63.7-8.07,1.82-2.2,1.01-3.29,2.98-4.04,5.18-1.02,2.99-2.09,5.74-3.83,8.41-1.75,2.7-3.78,5.23-5.36,8.04-2.46,4.38-3.84,10.03-.99,14.56.11.18.18-.02.1-.15-3.14-4.99-.85-11.22,2.03-15.75,2.73-4.3,6.07-8.17,7.66-13.09.76-2.33,1.41-4.91,3.56-6.36,2.26-1.53,5.47-1.84,8.1-2.24,2.87-.43,5.76-.55,8.63-.08s5.7,1.41,8.53,2.17c4.54,1.22,9.76,2.06,14.09-.3,3.82-2.08,5.62-6.18,6.77-10.17,1.37-4.76,2.23-9.59,4.42-14.08s5.6-8.73,10.17-11.19c4.95-2.66,10.84-3.05,15.82-.27,4.85,2.71,8.18,7.66,9.59,12.95.04.15.23.21.18,0h0Z"/>
                <path class="st12" d="M169.78,141.62c1.45-5.13,1.9-10.23.65-15.45-.57-2.37-1.1-5.18-2.36-7.3-.8-1.34-2.21-2.27-3.8-1.82-1.05.29-1.74,1.11-1.69,2.23.04.98.56,1.89.94,2.78.52,1.23.97,2.49,1.36,3.76,1.52,5,2.11,10.22,2.49,15.41.39,5.31,1.08,10.76-1.02,15.81-.98,2.36-2.3,4.57-3.55,6.79-1.24,2.21-2.44,5.34-4.62,6.8-2.53,1.69-5.73,1.32-8.54.69-2.3-.52-4.54-1.32-6.65-2.38-2.24-1.12-4.21-2.55-6.14-4.14-1.76-1.45-3.62-1.64-5.79-2.07-9.65-1.94-18.2-8.2-23.05-16.74-.04-.06-.31.1-.27.17,4.2,7.4,11.17,13.09,19.25,15.75,2.08.68,4.18,1.01,6.31,1.45,2.32.47,3.82,2.2,5.69,3.52,3.75,2.65,8.23,4.51,12.8,5.05,3.8.45,6.82-.68,8.87-3.96,1.34-2.15,2.52-4.43,3.76-6.65,1.15-2.07,2.27-4.19,2.95-6.47,1.44-4.85.56-10.37.15-15.32s-1.05-9.81-2.57-14.5c-.43-1.34-.95-2.64-1.51-3.93-.31-.72-.68-1.53-.57-2.34.15-1.18,1.41-1.76,2.5-1.58,2.64.44,3.29,3.83,3.92,5.95.92,3.11,1.69,6.27,1.67,9.53-.01,3.09-.62,6.14-1.46,9.1-.01.04.25-.05.28-.14h0Z"/>
                <path class="st12" d="M153.89,61.89c.31.59.84.95,1.49,1.11,1.57.39,2.84-.65,3.58-1.94.95-1.67,1.49-3.49,2.57-5.1,1.03-1.53,2.3-2.9,3.74-4.07,7.57-6.18,18.55-5.82,26.63-.79,8.13,5.06,10.32,14.61,11.72,23.44.72,4.54,1.41,9.07,2.81,13.46,1.29,4.03,3.06,7.92,5.41,11.44,4.44,6.67,10.99,11.9,18.74,14.08.02,0-.18-.11-.24-.13-8.73-2.46-15.68-8.94-20-16.76-2.08-3.77-3.59-7.84-4.62-12.02-1.09-4.43-1.59-8.97-2.41-13.46-1.4-7.67-4.12-15.48-11.01-19.86-5.98-3.8-13.65-5.35-20.5-3.21-3.83,1.2-7.33,3.53-9.81,6.7-1.27,1.62-2.05,3.39-2.89,5.26-.42.94-.96,1.95-1.88,2.49-.99.58-2.45.61-3.05-.53-.04-.07-.27-.09-.28-.12h0Z"/>
              </g>
              <g>
                <path class="st11" d="M213.41,65.69c.7-3.07.95-6.24.72-9.38-1.89.04-3.69-1.11-4.71-2.7-1.02-1.59-1.34-3.56-1.2-5.45.02-.22.05-.45.19-.61.3-.34.84-.15,1.29-.08,1.53.24,2.88-1.74,2.09-3.07-.13-.22-.32-.43-.57-.48-.55-.12-.93.51-1.37.86-1.08.88-2.67.1-3.83-.69-.4-.27-.84-.61-.86-1.09-.02-.4.25-.74.5-1.05,1.42-1.79,2.59-3.98,2.38-6.25-.21-2.28-2.29-4.46-4.54-4.08,1.14.99,1.26,2.95.24,4.06-1.02,1.12-2.98,1.18-4.07.13.4-2.05-1.2-4.26-3.26-4.53-1.76-.23-3.69.74-5.26-.09-.68-.36-1.15-1-1.77-1.45-1.31-.97-3.06-1-4.68-1-.55,0-1.13,0-1.63.24-1.17.53-1.46,2.35-.51,3.22s2.74.43,3.17-.78c-.1,1.11-1.47,1.72-2.54,1.46s-1.9-1.12-2.65-1.93c-.75-.81-1.57-1.67-2.64-1.95-2.87-.76-5.31,2.89-8.27,2.66-1.33-.1-2.46-.98-3.57-1.72s-2.47-1.39-3.75-.99-1.93,2.39-.79,3.09c.38.23.84.26,1.28.32,1.73.25,3.36,1.14,4.5,2.46.61.7,1.07,1.78.51,2.51-.57.74-1.69.57-2.62.57-3.13.02-5.51,2.74-7.2,5.37-.62.97-1.12,2.46-.17,3.11.77.52,1.78-.03,2.58-.51,4.47-2.7,10.35-3.5,13.45-7.71.7-.96,1.61-2.21,2.75-1.86-.45,1.55-.46,3.22-.03,4.77,2.12-.43,3.86-1.9,5.8-2.85,2.16-1.05,4.7-1.45,6.98-.72s4.22,2.7,4.56,5.07c.22,1.54-.1,3.43,1.14,4.38,1.58,1.2,4.51-.19,5.52,1.52.45.77.17,1.77.43,2.63.68,2.31,4.16,1.99,6.01,3.53-.71,1.36.33,2.95,1.31,4.13,1.62,1.96,3.25,3.91,4.87,5.87"/>
                <path class="st11" d="M213.55,65.63c.69-3.09.93-6.23.72-9.4,0,0-.02-.01-.03,0-2.37-.05-4.34-1.61-5.25-3.76-.42-1-.62-2.08-.66-3.16-.01-.34-.13-1.24.07-1.53.39-.55.98-.19,1.46-.2.85-.03,1.64-.6,2.02-1.33s.39-2.59-.87-2.39c-.19.03-.36.14-.51.24-.76.51-1.25,1.14-2.42.88-.45-.1-.88-.32-1.27-.54-.47-.26-1.24-.64-1.43-1.17-.29-.82.46-1.42.89-2.01.56-.78,1.05-1.61,1.4-2.5.65-1.65.78-3.52-.15-5.09-.83-1.41-2.27-2.32-3.92-2.13-.03,0-.3.11-.26.15.79.77,1.11,1.84.84,2.93-.5,2-3.89,2.7-4.32.48-.34-1.76-1.07-3.38-3.01-3.85-1.07-.25-2.18.04-3.25.14-.65.06-1.34.09-1.96-.13-.74-.27-1.24-.87-1.83-1.37-1.51-1.27-3.94-1.47-5.85-1.21-1.1.15-2.01.79-2.12,1.98-.14,1.49,1.21,2.37,2.56,1.95.39-.12.75-.33,1.03-.62.1-.11.12-.12.2-.24.21-.29.01,0-.13,0-.91,0-1.11,1.27-2.21,1.03-.35-.08-.69-.25-1-.44-1.72-1.06-2.67-3.39-4.9-3.54-1.34-.09-2.57.65-3.68,1.29s-2.33,1.47-3.69,1.48-2.57-.87-3.69-1.61c-1.25-.83-3-1.76-4.46-.87-.93.57-1.62,2.11-.61,2.93.63.51,1.72.42,2.48.65,1.18.36,2.29,1.03,3.14,1.93.4.43.8.94.94,1.52.26,1.05-.62,1.58-1.58,1.7-.84.11-1.63-.03-2.47.2-1.51.42-2.79,1.41-3.85,2.53s-2.97,3.17-2.8,4.91c.24,2.45,3.23.42,4.21-.1,2.23-1.19,4.64-1.98,6.92-3.04,1.74-.8,3.44-1.77,4.79-3.15.37-.38.7-.79,1.02-1.21.36-.47,2-2.4,2.21-.99.08.56-.2,1.38-.19,1.97.02.74.13,1.46.31,2.17,0,.02.05,0,.06,0,1.39-.33,2.6-.98,3.82-1.7,2.44-1.45,5-2.59,7.9-2.11,1.83.3,3.52,1.33,4.58,2.86s.92,3.11,1.18,4.87c.22,1.52,1.05,2.35,2.57,2.5,1.26.13,3.12-.31,3.9.98.48.78.18,1.78.43,2.63.16.55.52.98.98,1.32,1.07.78,2.49.95,3.7,1.45.46.19.84.31,1.05.77.19.41.03.78.08,1.23.1,1.04.77,1.95,1.4,2.75,1.62,2.04,3.33,4.01,4.99,6.02.05.06.31-.11.28-.14-1.37-1.65-2.74-3.3-4.11-4.95-1.14-1.37-2.87-3.1-2.07-5.04h0c-1.68-1.31-5.33-1.21-6.01-3.55-.37-1.27.16-2.87-1.44-3.41-1.21-.41-2.55.01-3.77-.37-1.59-.51-1.71-2.12-1.78-3.54-.09-1.6-.45-2.99-1.53-4.22-2.04-2.34-5.3-2.86-8.2-2.08-1.54.41-2.89,1.2-4.25,2-.56.34-1.13.67-1.72.95-.28.13-.74.42-1.06.44-.59.03-.73-.22-.88-.65-.41-1.14-.08-2.76.22-3.9,0-.01,0-.02-.01-.02-1.77-.34-2.7,1.73-3.68,2.8-2.14,2.33-5.21,3.45-8.07,4.62-1.02.42-2.04.85-3.03,1.34-.55.27-1.06.61-1.61.88-.74.37-1.91,1.04-2.61.27-.34-.38-.34-.91-.26-1.38.23-1.35,1.36-2.66,2.22-3.67,1.48-1.75,3.32-3.07,5.69-3.07,1.28,0,3.2-.15,2.75-2-.28-1.16-1.43-2.1-2.41-2.7-.53-.33-1.1-.59-1.7-.77-.74-.23-1.65-.17-2.32-.57-.55-.33-.72-.86-.59-1.5.24-1.18,1.46-1.7,2.61-1.46,1.62.34,2.8,1.62,4.26,2.31,1.86.87,3.51.21,5.17-.75,1.5-.86,3.16-2.05,4.96-1.37,1.54.59,2.36,2.18,3.64,3.12,1.29.94,3.73,1.02,4.12-.95.01-.05-.26.06-.29.12-.75,1.62-2.86,1.33-3.35-.07-.49-1.42.51-2.39,1.93-2.58,1.77-.23,3.97.05,5.37,1.22.49.41.9.92,1.48,1.22.75.39,1.56.37,2.37.3,1.84-.17,3.57-.56,5.01.89.5.5.87,1.13,1.06,1.82s-.12,1.33.32,1.82c.63.71,2.04.64,2.85.36,2.08-.73,2.58-3.37,1.02-4.9l-.26.15c1.82-.21,3.37.97,4.1,2.58.82,1.79.37,3.85-.51,5.52-.48.91-1.2,1.64-1.69,2.52-.37.68-.3,1.11.3,1.63.87.76,2.36,1.56,3.56,1.23.29-.08.55-.22.8-.4.44-.32.41-.51,1.05-.51.59,0,.75.16.86.73.26,1.29-.84,2.37-2.06,2.37-.38,0-.77-.19-1.13-.02-.92.41-.64,1.91-.57,2.71.17,1.78.83,3.54,2.15,4.78.6.56,1.31,1.01,2.1,1.28.35.12.78.11,1.11.24.64.26.59.8.61,1.43.08,2.68-.21,5.34-.79,7.95,0,.04.27-.04.29-.12h0Z"/>
              </g>
              <g>
                <path class="st11" d="M158.4,34.03c.8-.72.9-1.37.6-2.06-.38-.86-1.7-.83-2.4-.21-.39.35-.67.94-.4,1.39.25.43,1.21,1.66,2.21.87"/>
                <path class="st11" d="M158.51,34.07c.3-.27.58-.6.7-.99.1-.32.08-.65-.03-.97-.1-.29-.27-.53-.54-.68s-.57-.21-.87-.2c-.66.02-1.31.35-1.63.94-.17.31-.24.7-.05,1.02.13.22.29.42.47.6.24.24.53.45.87.53.38.09.76,0,1.07-.24.12-.09-.1-.16-.18-.1-.25.19-.53.28-.83.19-.26-.08-.49-.24-.68-.43-.16-.15-.3-.32-.42-.51-.17-.26-.2-.54-.09-.84.21-.57.77-.93,1.35-1,.54-.06,1.07.14,1.27.67.12.3.16.63.07.94-.11.4-.39.71-.69.99-.09.08.14.14.21.07h0Z"/>
              </g>
              <g>
                <path class="st11" d="M113.01,149.71c.42.36,1.04-.34.88-.87s-.68-.86-1.05-1.26c-1.09-1.17-.98-2.97-1.03-4.57-.08-2.46-.69-4.91-1.79-7.12-.22-.45-.49-.91-.91-1.18-.4-.26-.9-.31-1.33-.5-1.35-.6-1.8-2.35-1.56-3.81.24-1.46.96-2.8,1.27-4.24s.06-3.2-1.19-3.99c-.61-.38-1.35-.48-1.98-.83-1.86-1.02-1.97-3.66-1.44-5.71.53-2.05,1.46-4.19.81-6.21-.47,1.03-.97,2.09-1.83,2.81s-2.23.98-3.12.29c2.03-1.39,2.47-4.61.89-6.5.61-.95.76-2.11.9-3.22.4-3.19.81-6.39,1.21-9.58-.32-.31-.86-.35-1.22-.1,1.35-2.34,2.7-4.67,4.05-7.01.19-.32.38-.67.38-1.04.01-1.08-1.41-1.6-1.76-2.62-.32-.94.4-1.92,1.19-2.53s1.73-1.12,2.16-2.02c.34-.71.28-1.54.22-2.32-.1-1.21-.2-2.43-.3-3.64-.6-.14-1.18.37-1.4.95s-.2,1.21-.31,1.82c-.33,1.88-2.05,3.43-3.96,3.57-1.34.09-3.03-.3-3.78.82-.41.61-.27,1.51.3,1.97s1.48.39,1.98-.14c.6.56,1.22,1.15,1.52,1.92s.16,1.77-.53,2.22c-.39.26-.89.3-1.32.49-.56.25-.98.78-1.11,1.38-.65-.93-2.22-.67-2.93.22s-.82,2.1-.89,3.23c-.12,1.85-.23,3.7-.35,5.55-.03.49-.06,1.01.18,1.44.17.32.48.56.62.9.42.98-.75,1.97-1.81,2.02s-2.11-.38-3.17-.28c-.86.09-1.68.55-2.19,1.26-.81,1.12-.2,3.26,1.16,3.01.63.99.84,2.23.58,3.37-1.03-.23-1.58,1.28-1.22,2.28s1.16,1.86,1.13,2.92c-.03,1.18-1.08,2.05-1.48,3.16-.87,2.4,1.52,4.72,3.81,5.86s5.04,2.22,5.79,4.66c.37,1.19.16,2.48.41,3.7.26,1.22,1.33,2.47,2.54,2.16-1.14.26-.92,2.1.03,2.77s2.23.72,3.24,1.3c1.31.75,1.99,2.44,1.59,3.89-.22.79-.72,1.5-.82,2.32-.22,1.81,1.71,3.29,3.54,3.29.46,0,.93-.06,1.36.08.75.26,1.15,1.04,1.64,1.66.86,1.06,1.44,2.11,2.81,2.11"/>
                <path class="st11" d="M113.05,149.82c.8.34,1.14-.63.82-1.24-.17-.34-.5-.55-.75-.82-.89-1.01-1.11-2.08-1.16-3.37-.13-3-.34-6.68-2.25-9.19-.26-.34-.55-.58-.94-.77-1.2-.56-2.23-1.11-2.44-2.54-.28-1.92.8-3.64,1.23-5.46.26-1.09.27-2.31-.27-3.32-.53-.97-1.37-1.27-2.35-1.64-2.42-.92-2.45-3.66-1.93-5.79.51-2.09,1.39-4.06.81-6.23-.02-.06-.19-.28-.25-.16-.48,1.04-.99,2.22-1.96,2.89-.49.34-1.41.78-2.04.56-.8-.28-.1-.63.2-1.02.95-1.24,1.2-2.99.67-4.46-.11-.31-.32-.58-.43-.88-.15-.41-.02-.63.12-1.05.39-1.2.52-2.42.68-3.68.35-2.8.71-5.59,1.06-8.39,0-.07-.06-.14-.11-.17-.47-.31-.8-.38-1.34-.14l.21.23c1.27-2.2,2.55-4.39,3.81-6.6.76-1.33.72-1.82-.19-2.95-.51-.63-1.19-1.32-.91-2.2.19-.6.68-1.07,1.15-1.46.76-.63,1.71-1.08,2.16-2.02.35-.74.28-1.57.23-2.36-.08-1.22-.2-2.43-.3-3.64,0-.08-.12-.19-.2-.19-1.75-.05-1.52,1.94-1.84,3.12-.53,1.96-2.35,3.17-4.32,3.22-1.08.03-2.65-.25-3.35.83-.46.71-.22,1.68.44,2.17.32.24.71.34,1.1.31.25-.02.53-.24.75-.24.88,0,1.59,1.38,1.65,2.15.12,1.42-.97,1.57-1.96,2.05-.22.11-.44.25-.61.43-.07.07-.39.78-.52.82.05-.02-.65-.38-.65-.38-.59-.19-1.29-.02-1.8.31-1.37.91-1.32,2.92-1.41,4.36-.07,1.08-.14,2.16-.2,3.24-.05.83-.23,1.74-.08,2.57.16.87.98,1.69.54,2.61-.54,1.15-2.42.71-3.33.58-1.39-.19-3.01,0-3.73,1.42-.39.77-.29,1.89.3,2.54.21.23.43.3.69.45.58.32-.09-.3.47.29.45.47.59,1.48.5,2.12-.12.83-.54.57-.99,1.08-.36.4-.47,1.04-.41,1.55.08.7.52,1.28.81,1.91.67,1.46.19,2.35-.57,3.61-.72,1.19-.89,2.4-.25,3.67,1.68,3.33,5.8,3.62,8.25,6.08,1.82,1.82.79,4.09,1.74,6.17.47,1.02,1.36,1.82,2.53,1.65l-.19-.24c-1.47.54-.68,2.48.31,3.1,1.76,1.11,4.21.88,4.6,3.55.22,1.5-.96,2.58-.92,4.02.05,1.72,1.83,2.97,3.41,3.13.41.04.86-.06,1.26.01.95.17,1.26.75,1.73,1.37.35.46.7.94,1.09,1.37.59.66,1.19,1.04,2.08,1.11.13,0-.05-.24-.15-.24-2.34-.17-2.49-3.08-4.42-3.76-.45-.16-.93-.07-1.39-.09-1.02-.06-1.88-.4-2.59-1.15-1.42-1.5-.34-2.65.07-4.24.34-1.31-.13-2.74-1.12-3.64-.6-.55-1.33-.79-2.09-1.02-.94-.29-2.07-.57-2.34-1.71-.16-.66-.04-1.31.67-1.57.11-.04-.11-.25-.19-.24-2.95.42-2.29-3.72-2.63-5.27-.18-.81-.55-1.53-1.1-2.15-1.31-1.48-3.22-2.2-4.93-3.08-1.56-.81-3.41-2.16-3.78-4-.29-1.48.62-2.44,1.24-3.66.44-.87.41-1.64,0-2.52-.32-.71-.84-1.36-.87-2.16s.33-1.73,1.26-1.65c.02,0,.05,0,.05-.03.23-1.24.03-2.37-.6-3.45-.04-.07-.12-.14-.2-.13-1.2.09-1.43-1.32-1.25-2.09.12-.5.42-.91.81-1.24,1.2-1.01,2.51-.62,3.9-.47,1.09.12,3.05-.24,2.84-1.76-.04-.32-.17-.37-.31-.66-.5-.57-.68-1.21-.57-1.92.02-.31.04-.62.06-.93.08-1.23.15-2.47.23-3.7.07-1.05.05-2.18.41-3.18.42-1.16,2.09-2.59,3.26-1.27.03.03.17.17.2.07.43-1.35,1.42-1.18,2.4-1.84.45-.3.66-.8.7-1.33.08-1.25-.9-2.2-1.73-2.99-.03-.03-.12-.1-.17-.06-.22.22-.49.36-.79.41l-1.47-1.46c-.06-.49.48-.9.86-1.09.75-.37,1.63-.25,2.44-.26,1.16,0,2.22-.29,3.13-1.04,1.12-.93,1.45-2.1,1.64-3.49.06-.45.11-1.05.48-1.36.92-.76.93.06.98.72.07.89.18,1.78.21,2.67.04,1.06-.11,1.99-.9,2.76-.54.53-1.23.87-1.78,1.39-.84.79-1.32,1.88-.6,2.9.25.36.63.6.89.95,1.07,1.39-.08,2.56-.76,3.75-1.03,1.79-2.06,3.57-3.1,5.36-.05.08.13.27.21.23,1.4-.63.72,2.07.64,2.76-.14,1.12-.28,2.24-.42,3.35-.27,2.13-.24,4.66-1.32,6.56-.03.04,0,.1.04.13,1.53,1.98,1.05,4.89-.92,6.37-.07.05.1.19.13.21,2.4,1.53,4.2-1.23,5.06-3.11l-.25-.16c.95,3.58-2.58,7.53-.44,10.95,1.09,1.73,3.78,1.45,4.26,3.72.47,2.22-.99,4.17-1.3,6.3-.17,1.17.02,2.51.86,3.4.36.38.75.53,1.21.75,1.12.54,1.64,1.11,2.11,2.2.23.53.44,1.08.61,1.63.7,2.2.67,4.3.86,6.56.06.74.19,1.5.57,2.16.14.24.29.44.47.65.16.16.32.32.49.47.69,1.05.59,1.55-.31,1.5-.15-.07,0,.19.09.23h0Z"/>
              </g>
              <g>
                <path class="st11" d="M105.14,97.07c-.01-.73.55-1.31,1.02-1.87s.89-1.33.56-1.97c-.31-.6-1.18-.75-1.77-.4s-.88,1.05-.91,1.73.47,1.72,1.09,2.52"/>
                <path class="st11" d="M105.29,97.02c0-.9.78-1.48,1.25-2.16.41-.59.72-1.5.04-2.02-.49-.38-1.23-.31-1.74,0-.62.36-.94,1.11-.95,1.81,0,.41.15.83.32,1.2.21.45.48.88.78,1.28.05.06.31-.08.31-.09-.82-1.06-1.6-2.6-.64-3.83.24-.31.57-.52.97-.49.3.02.61.15.81.38.53.61.12,1.46-.3,2-.47.62-1.15,1.19-1.15,2.04,0,.02.31-.02.31-.09h0Z"/>
              </g>
              <g>
                <path class="st11" d="M110.16,70.64c1.15-.75,1.04-1.89.67-2.17-.36-.28-.9-.11-1.28.15-.82.55-1.4,1.45-1.56,2.43.74.08,1.5-.07,2.16-.41"/>
                <path class="st11" d="M110.25,70.77c.41-.27.76-.65.9-1.13.1-.32.1-.7-.06-1.01-.22-.42-.73-.5-1.15-.36-.54.17-1,.59-1.34,1.03-.39.5-.65,1.09-.75,1.72-.01.09.1.17.17.18.77.07,1.54-.07,2.23-.42.14-.07-.06-.31-.19-.25-.65.33-1.37.47-2.1.4l.17.18c.16-.96.74-1.89,1.58-2.4.29-.18.89-.4,1.11-.06.13.21.13.51.08.75-.11.48-.44.86-.85,1.13-.14.09.07.33.19.25h0Z"/>
              </g>
              <g>
                <path class="st11" d="M89.93,96.8c-.33-.67-.41-2.2-.27-2.94s.33-1.49.18-2.22-.75-1.45-1.5-1.42c-.76.03-1.31.81-1.41,1.57s.12,1.52.21,2.27c.11.89.08,1.85.58,2.59s1.83.96,2.2.14"/>
                <path class="st11" d="M90.08,96.79c-.51-1.08-.35-2.4-.15-3.53.13-.72.22-1.5-.13-2.17-.25-.48-.68-.87-1.23-.95-1.28-.19-1.88,1.22-1.82,2.27.04.8.23,1.6.31,2.4.06.65.14,1.33.52,1.89.52.75,2.01,1.11,2.49.14.07-.13-.25-.19-.3-.07-.21.43-.67.53-1.11.41-.51-.14-.84-.52-1.03-1-.22-.56-.24-1.18-.3-1.77-.06-.64-.22-1.26-.26-1.9-.04-.57.04-1.14.38-1.62.38-.52,1.02-.74,1.57-.32,1.08.82.62,2.28.45,3.39-.13.89-.1,2.04.29,2.87.06.12.37.1.31-.03h0Z"/>
              </g>
              <path class="st20" d="M105.13,137.47c1.78-.16,2.77,1.62,3.2,3.07.3,1.02.58,2.72-.63,3.27-.18.08,0,.33.17.26,1.38-.63,1.08-2.53.72-3.69-.5-1.61-1.65-3.37-3.56-3.19-.2.02-.08.3.09.28h0Z"/>
              <path class="st20" d="M99.42,131.15c.43-.61,1.24-1.02,1.99-.84.69.16,1.12.82,1.09,1.51-.01.36-.16.71-.45.93-.17.12.05.28.19.18.66-.47.73-1.4.35-2.08-.45-.79-1.44-.98-2.25-.7-.49.17-.91.49-1.2.91-.1.15.2.2.29.08h0Z"/>
              <path class="st20" d="M104.41,121.99c.17.76-.42,1.32-.93,1.79s-1.16.99-1.33,1.71c-.23.96.57,1.8,1.38,2.17.75.34,1.94.4,2.4-.44.37-.67.09-1.71-.76-1.79-.17-.02-.29.19-.08.21.72.07.82,1.09.5,1.59-.58.87-1.92.39-2.53-.17s-.83-1.35-.35-2.07c.35-.53.88-.92,1.32-1.36s.83-.98.69-1.63c-.03-.14-.35-.12-.32.01h0Z"/>
              <path class="st20" d="M94.67,122.99c1.48-.69,3.3-.2,4.43.93.56.56.97,1.31,1.04,2.11s-.16,1.72-.92,2.14c-.16.09.13.17.23.12,1.3-.71,1.21-2.53.55-3.65-.7-1.18-2.01-1.94-3.35-2.1-.75-.09-1.51.03-2.2.35-.16.07.13.16.23.12h0Z"/>
              <path class="st20" d="M98.79,117.57c.7.03.85.95.58,1.46-.51.95-2.37.65-3.27.42-2.08-.52-1.78-2.52-1.76-4.2.04-3.16-2.6-5.97-5.75-6.16-.09,0-.25.08-.3.08,2.98.17,5.6,2.76,5.74,5.77.06,1.37-.46,3.27.87,4.2.62.43,1.43.5,2.16.56.54.04,1.08.06,1.61-.08s1.02-.41,1.13-.97c.1-.53-.14-1.13-.73-1.16-.06,0-.3.08-.26.08h0Z"/>
              <path class="st20" d="M89.16,112.72c1.15.69,2.1,1.83,2.44,3.14.18.68.11,1.48-.48,1.94-.26.2-.59.29-.9.17-.34-.14-.59-.47-.53-.85.03-.17-.28-.26-.31-.09-.11.72.58,1.33,1.28,1.26.74-.07,1.25-.77,1.34-1.48.11-.89-.31-1.8-.8-2.53s-1.13-1.34-1.88-1.79c-.16-.1-.33.11-.15.22h0Z"/>
              <path class="st20" d="M101.27,93.42c-1.74.54-3.27,1.66-4.3,3.17-.45.67-1.19,1.76-.79,2.59.32.67,1.23.87,1.9.72.92-.21,1.45-1.24.95-2.08-.04-.06-.33-.03-.31.02.61,1.02-.42,2.42-1.6,1.92-1.24-.53-.61-1.9-.11-2.74,1-1.67,2.61-2.95,4.47-3.53.14-.04-.17-.08-.22-.06h0Z"/>
              <path class="st20" d="M99.27,105.11c-1.9-.42-2.33-2.74-3.71-3.85-.55-.44-1.21-.65-1.91-.53-.6.1-1.14.45-1.33,1.05-.05.15.27.16.31.02.21-.68.95-.94,1.61-.87.81.09,1.42.73,1.87,1.36.83,1.15,1.49,2.69,3.01,3.02.15.03.34-.17.14-.21h0Z"/>
              <path class="st20" d="M97.08,86.94c.35.57.2,1.4-.33,1.82s-1.32.21-1.71-.31c-.05-.07-.35,0-.3.07.38.5,1.05.67,1.65.55s1.07-.6,1.18-1.22c.06-.34,0-.68-.18-.98-.04-.07-.35,0-.3.07h0Z"/>
              <g>
                <path class="st11" d="M107.02,52.33c.31-.3.64-.62.76-1.03s-.01-.95-.42-1.1c-.44-.17-.92.19-1.12.62s-.2.91-.32,1.37c-.26,1.01-1.12,1.83-2.14,2.05.14.92,1.37,1.38,2.17.92s1.09-1.56.8-2.44"/>
                <path class="st11" d="M107.12,52.46c.42-.41.91-.9.8-1.54-.07-.38-.37-.81-.78-.88-.65-.1-1.03.6-1.15,1.12-.08.35-.11.71-.22,1.05-.1.3-.25.58-.44.83-.41.54-1,.92-1.66,1.08,0,0,0,.02,0,.03.16.89,1.16,1.48,2.02,1.27,1.11-.27,1.46-1.64,1.16-2.6-.02-.06-.07-.14-.13-.18-.02-.01-.1-.08-.08,0,.23.77.07,1.7-.56,2.24-.54.46-1.59.5-2.05-.12-.05-.07-.13-.2-.13-.29,0-.11.08-.11.18-.14.2-.06.4-.15.58-.25.37-.21.69-.51.93-.85s.39-.72.47-1.12c.1-.49.12-1.05.47-1.44.16-.19.39-.34.65-.35.36-.02.53.27.53.6,0,.55-.44.97-.81,1.33-.05.04.17.28.2.25h0Z"/>
              </g>
              <g>
                <path class="st11" d="M99.71,54.11c.73-.19.9-1.26.44-1.87s-1.26-.82-2.01-.92c-.58-.08-1.22-.09-1.68.27-.48.38-.6,1.11-.39,1.69s.69,1.03,1.22,1.35c.64.38,1.45.61,2.13.31s1.04-1.3.53-1.83"/>
                <path class="st11" d="M99.87,54.12c.4-.11.63-.48.69-.88.06-.44-.09-.87-.41-1.18-.39-.39-.94-.57-1.47-.68-.49-.1-1-.16-1.5-.11s-.97.26-1.2.72-.21,1.03.02,1.49c.48.98,1.68,1.61,2.75,1.62.53,0,1.04-.15,1.36-.61.28-.41.36-.99,0-1.39-.06-.07-.29.03-.32,0,.54.6.1,1.59-.58,1.85-.6.23-1.24-.01-1.76-.33-.42-.25-.8-.58-1.05-1-.45-.75-.33-1.88.57-2.23.52-.2,1.13-.1,1.66.03.46.11.93.3,1.26.66.52.55.55,1.75-.32,2-.02,0,.1.03.11.03.06,0,.13,0,.2,0h0Z"/>
              </g>
              <g>
                <path class="st11" d="M113.17,53.26c-1.25,1.94-4.29,1.91-5.72,3.72-.34.44-.58.97-1.01,1.32-.74.6-1.81.5-2.76.65s-2.02.91-1.76,1.83c-1.18.49-2.88.81-3.46-.33-.26-.52-.16-1.14-.33-1.7-.25-.82-1.17-1.37-2.01-1.2s-1.48,1.03-1.39,1.88c.07.76.63,1.39.85,2.12.42,1.42-.74,3.07-2.22,3.16-2,.12-3.83-2.17-5.69-1.43-2.26.89-1.35,4.84-3.4,6.16-.51.33-1.14.43-1.67.73-2.58,1.43-1.21,5.81-3.27,7.92-.6.61-1.43.95-2.05,1.54-1.13,1.05-1.43,2.77-1.19,4.29s.96,2.93,1.59,4.34c.52,1.15,1.01,2.37.93,3.63-.05.8-.32,1.56-.59,2.31-.6,1.68-1.2,3.35-1.8,5.03-.67,1.87-1.34,3.74-1.69,5.69-.43,2.37-.38,4.83.24,7.15,1.71-2.06,1.35-5.35,3.2-7.28.58-.6,1.34-1.03,1.83-1.7.47-.64.66-1.43.85-2.2.63-2.67,1.25-5.34,1.88-8.01.09-.37.17-.74.26-1.11.4-1.69.79-3.37,1.19-5.06-.1,1.12-1.83,1.43-2.61.61s-.71-2.13-.28-3.17c.43-1.04,1.15-1.94,1.58-2.97.52-1.25.47-2.94-.68-3.65.67.58,1.33,1.17,2,1.75,1.7-.8.32-4.04,1.94-4.98.74-.43,1.74-.08,2.52-.44.47-.21.79-.64,1.2-.94.5-.36,1.1-.52,1.67-.74,2.13-.83,3.77-2.54,5.35-4.2.08,1.31,2.16,1.37,3.08.43s1.26-2.34,2.23-3.22c1.1-1,2.76-1.15,3.92-2.08,1.75-1.41,1.85-4.16,3.49-5.69,1.21-1.13,3.39-2.02,2.94-3.62"/>
                <path class="st11" d="M113.07,53.14c-.93,1.3-2.45,1.69-3.82,2.35-.57.27-1.12.58-1.57,1.02-.55.53-.83,1.34-1.48,1.76-1.24.79-3.38.04-4.24,1.53-.29.5-.18.82-.84,1.1-.27.12-.63.16-.92.18-1.12.08-1.52-.44-1.83-1.55-.24-.84-.28-1.5-1.18-1.94-.99-.48-2.17.03-2.49,1.1-.46,1.53,1.29,2.68.69,4.28-.82,2.17-3.04,1.61-4.64.82-.96-.47-2.07-1.07-3.16-.64-1,.4-1.39,1.44-1.65,2.4-.32,1.17-.47,2.67-1.44,3.52s-2.3.81-3.02,1.99c-1.47,2.39-.35,5.65-2.93,7.47-1.22.86-2.18,1.59-2.5,3.13-.31,1.44.03,2.89.55,4.24.89,2.31,2.43,4.45,1.73,7.04-.58,2.16-1.5,4.27-2.26,6.38-1.49,4.18-2.47,8.27-1.38,12.68,0,.04.15.26.2.19,1.19-1.54,1.37-3.45,2.02-5.23.39-1.07.98-1.92,1.85-2.65.77-.64,1.36-1.21,1.71-2.17.86-2.39,1.23-5.04,1.8-7.51.61-2.61,1.22-5.22,1.83-7.82l-.22-.22c-.12.59-.54.94-1.15,1.03-.79.12-.83-.18-1.29-.88-.51-.79-.64-.98-.44-1.83.31-1.33,1.29-2.37,1.79-3.62.54-1.35.45-2.96-.78-3.87-.17-.13-.08.14,0,.2.67.58,1.33,1.17,2,1.75.02.02.07.04.1.03.99-.57.95-1.75,1.03-2.76.06-.72.11-1.58.7-2.08.71-.6,1.72-.24,2.53-.52.67-.23,1.1-.84,1.71-1.2.76-.44,1.67-.63,2.44-1.07,1.65-.93,2.97-2.32,4.26-3.68l-.2-.19c.23,1.33,1.82,1.55,2.86.94.94-.55,1.34-1.72,1.89-2.59.89-1.38,2.15-1.73,3.56-2.38,2.45-1.12,2.59-3.58,3.98-5.59,1-1.45,3.99-2.33,3.59-4.44-.02-.09-.25-.29-.22-.12.36,1.9-2.4,2.81-3.38,4.05-1.16,1.46-1.36,3.5-2.68,4.85s-3.55,1.37-4.76,2.95c-.62.8-.95,1.8-1.63,2.55-.61.66-2.73,1.43-3-.11,0-.05-.14-.26-.2-.19-1.29,1.36-2.61,2.75-4.26,3.68-.73.41-1.54.62-2.28.99-.87.43-1.36,1.2-2.37,1.37-1.33.22-2.3.06-2.65,1.61-.18.79.11,3.23-.91,3.53-.38.11-.86-.5-1.11-.73-.22-.19-.44-.39-.67-.58.37.56.55,1.17.55,1.82,0,.83-.3,1.57-.68,2.29-.71,1.33-1.77,2.67-1.49,4.27.12.68.49,1.36,1.13,1.66.87.41,2.04.07,2.24-.93.02-.1-.19-.31-.22-.22-.57,2.45-1.15,4.9-1.72,7.35-.59,2.52-1.06,5.12-1.8,7.6-.59,1.99-2.58,2.73-3.42,4.56-.88,1.92-.93,4.12-2.25,5.84l.2.19c-.89-3.61-.45-7.13.7-10.63.49-1.49,1.04-2.97,1.57-4.45.54-1.49,1.31-3.08,1.53-4.66.41-2.87-1.85-5.3-2.41-8-.31-1.48-.19-3.19.85-4.38.78-.89,1.98-1.25,2.67-2.24,1.25-1.8.77-4.2,1.69-6.13.56-1.18,1.5-1.35,2.57-1.9.87-.45,1.29-1.18,1.59-2.08.64-1.95.91-5.15,3.85-4.21,1.8.58,3.9,2.46,5.6.56.59-.67.83-1.56.6-2.43-.27-.98-1.21-1.86-.66-2.96.95-1.9,2.62-.45,3.14,1.08.23.67.3,1.17,1,1.49.89.4,1.99.04,2.84-.29.02,0,.01-.05.01-.07-.27-2.01,2.58-1.68,3.7-2.02s1.42-1.41,2.24-2.16c1.57-1.45,4-1.47,5.31-3.29.05-.08-.15-.32-.22-.22h0Z"/>
              </g>
              <path class="st20" d="M103.75,62.67c.62.02.74-.86.39-1.24-.6-.63-1.49-.03-1.87.52-.29.42-.48.92-.86,1.27-.52.49-1.03.27-1.64.14-.84-.18-1.76.11-2.34.75-.66.73-.79,1.79-.43,2.68.07.19.29.08.21-.11-.38-.96-.05-2.1.81-2.68.38-.25.83-.39,1.28-.4.49,0,.93.25,1.41.25.9,0,1.29-.94,1.7-1.58.27-.43.71-.89,1.28-.8.27.05.43.24.39.51-.04.21-.18.37-.4.36-.16,0-.07.3.08.3h0Z"/>
              <path class="st20" d="M93.49,67.57c.06-.8-.78-1.31-1.5-1.21-.86.11-1.63.81-2.12,1.49s-.71,1.53-.89,2.36-.38,1.66-1.06,2.2c-.14.11.09.33.21.23,1.11-.87,1.04-2.42,1.49-3.64.28-.75.77-1.42,1.41-1.9.36-.26.78-.5,1.24-.5.5,0,.96.37.92.89-.01.15.28.25.3.06h0Z"/>
              <path class="st20" d="M86.42,71.25c-.44-.91-1.45-1.53-2.47-1.36-1.07.18-1.85,1.24-1.78,2.32,0,.07.04.15.09.2.02.02.1.08.1,0-.06-.96.58-1.9,1.5-2.19s2.01.15,2.43,1.01c.06.12.23.21.14.02h0Z"/>
              <path class="st20" d="M78.63,102.42c-.25-.28-.48-.58-.65-.91-.16-.3-.29-.65-.24-1,.05-.3.24-.57.51-.7.26-.12.55-.12.83-.06.33.07.63.25.85.51.13.16.32-.05.19-.19-.45-.52-1.23-.82-1.9-.59-.34.12-.59.39-.71.73-.13.39-.05.8.1,1.17.19.46.49.86.82,1.23.14.15.32-.05.19-.19h0Z"/>
              <g>
                <path class="st11" d="M136.37,56.41c.22-.48.59-1.06,1.11-.95.64.13.61,1.07.34,1.67-1.05,2.33-3.27,4.1-5.78,4.59.53-3.1,1.06-6.19,1.59-9.29.3-1.75.65-3.6,1.86-4.9.28-.29.6-.57.74-.95.36-1.01-.75-1.87-1.35-2.76-1.23-1.81.13-4.73,2.3-4.96-.82-1.6-.45-3.53-.06-5.29.24-1.1.55-2.29,1.45-2.96.37-.27.82-.44,1.1-.8.25-.32.33-.74.4-1.14.23-1.41.26-3.13-.91-3.96-.28-.19-.6-.32-.85-.55-.76-.72-.4-1.96-.46-3-.11-1.84-1.7-3.45-1.45-5.28.06-.48.25-.93.27-1.41.06-1.81-2.17-2.77-2.96-4.4-.53-1.1-.44-2.58-1.4-3.34-.52-.41-1.21-.49-1.79-.8s-1.03-1.09-.62-1.61c.46-.58,1.39-.17,1.98.29,1.5,1.16,2.96,2.37,4.36,3.64-.37-.35-.77-.73-.88-1.22s.2-1.13.71-1.13c.23,0,.44.12.64.24,1.79,1.14,3.17,2.9,3.86,4.91.41,1.2.58,2.48,1.13,3.62,1.72,3.62,6.79,5.13,7.61,9.05.37,1.79-.28,3.62-.92,5.33,1.42,1.14,1.93,3.28,1.18,4.94-1.04,2.27-4.09,3.63-4.01,6.13.01.42.12.86-.02,1.26-.33.96-1.73,1-2.4,1.76-.51.58-.48,1.48-.15,2.18s.91,1.24,1.46,1.77c.2.2.41.41.47.69.12.54-.37,1-.83,1.3-1.53.98-3.33,1.46-4.87,2.43s-2.86,2.69-2.5,4.47"/>
                <path class="st11" d="M136.51,56.5c.18-.35.73-1.53,1.36-.31.16.3-.21.91-.33,1.18-.26.54-.62,1.06-1.01,1.51-.85,1-2.21,2.16-3.54,2.45-.66.14-.63.12-.63-.52,0-.45.17-1.02.25-1.47.14-.81.28-1.63.42-2.44.3-1.78.57-3.57.92-5.34.3-1.52.75-2.88,1.8-4.05.65-.73.92-1.29.39-2.19-.7-1.2-1.76-1.95-1.53-3.51.21-1.41,1.26-2.6,2.68-2.84.03,0,.05-.02.04-.06-.9-2.01-.47-5.1.5-7.06.47-.95,1.4-1.18,2-1.95.44-.57.49-1.48.52-2.17.08-1.5-.32-2.34-1.41-3.25-.89-.75-.96-1.14-.94-2.17.01-.49.06-.96-.02-1.45-.12-.81-.5-1.56-.82-2.3-.42-.98-.72-1.89-.52-2.96.14-.8.31-1.42-.06-2.18-.72-1.46-2.33-2.19-2.88-3.78-.43-1.22-.45-2.5-1.67-3.2-.65-.37-2.75-.68-1.96-2.03.55-.93,2.7.95,3.26,1.41.98.8,1.94,1.62,2.88,2.47.11.1.3.08.15-.07l-.83-1.43c.03-.59.32-.74.86-.46.66.09.86.22,1.35.63.6.5,1.13,1.1,1.58,1.74.75,1.07,1.19,2.26,1.52,3.52.52,1.96,1.21,3.49,2.68,4.91,1.38,1.34,3.04,2.4,4.3,3.86,2.11,2.45,1.53,5.17.48,7.97-.02.05.03.09.06.12,1.5,1.32,1.89,3.49.9,5.23-.67,1.17-1.77,2.02-2.63,3.03s-1.13,1.84-1.14,3.12c0,1.92-1.67,1.46-2.53,2.71-.61.89-.21,2,.37,2.79.52.7,1.94,1.58,1.19,2.59-.5.68-1.62,1.04-2.37,1.38-2.48,1.12-6,2.62-5.53,5.96.01.1.29.22.28.14-.46-3.32,3.03-4.79,5.49-5.9.79-.36,2.53-.93,2.71-1.96.13-.77-.76-1.3-1.19-1.78-1.32-1.46-1.29-2.95.46-3.84.97-.49,1.41-.8,1.4-1.94,0-2.67,2.12-3.72,3.5-5.72,1.07-1.54,1.1-3.58-.04-5.11-.47-.63-.54-.71-.35-1.51.14-.6.4-1.18.53-1.79.28-1.31.26-2.63-.3-3.86-.79-1.71-2.35-2.92-3.76-4.09-.84-.7-1.69-1.39-2.4-2.22-1.02-1.19-1.45-2.51-1.85-4-.62-2.3-1.74-4.31-3.66-5.77-.36-.27-.94-.8-1.44-.74-.89.11-.84,1.14-.48,1.72.16.25.74.72.31.23-.46-.52-1.08-.95-1.62-1.39-.88-.74-1.83-1.71-2.89-2.2-1.63-.74-2.15.97-.79,1.83.74.47,1.52.32,2.14,1.2.37.54.46,1.25.63,1.87.25.9.64,1.57,1.27,2.25.83.9,2,1.75,2.01,3.09,0,.6-.28,1.17-.29,1.78s.18,1.21.4,1.78c.52,1.31,1.11,2.4,1.07,3.85-.02.84-.12,1.73.52,2.38.56.57,1.26.72,1.62,1.62.24.61.24,1.32.19,1.96s-.08,1.44-.5,1.96c-.45.55-1.18.75-1.62,1.32-.84,1.07-1.07,2.82-1.26,4.12-.11.75-.16,1.52-.04,2.28.06.39.44,1.06.15,1.37-.24.26-.96.39-1.29.68-.44.39-.78.9-.98,1.45-.31.84-.32,1.78.09,2.59.67,1.33,2.3,2.19.98,3.7-.9,1.03-1.43,2.11-1.75,3.44-.86,3.6-1.3,7.34-1.92,10.98-.01.08.16.19.23.18,2.43-.54,5.03-2.27,5.86-4.74.55-1.62-.96-2.35-1.77-.76-.05.09.22.26.27.18h0Z"/>
              </g>
              <g>
                <path class="st11" d="M149.7,17.55c.47-.41.64-1.1.49-1.7s-.62-1.1-1.18-1.36c-.32-.15-.7-.22-1.01-.08-.53.24-.63,1.01-.35,1.52.28.51,1.31,1.69,2.06,1.61"/>
                <path class="st11" d="M149.82,17.61c.54-.49.72-1.27.47-1.95s-.9-1.25-1.62-1.38c-.34-.06-.72-.02-.99.22-.23.2-.33.49-.35.78-.03.58.34,1.04.71,1.45.41.45,1.01.99,1.67.93.19-.02.17-.21-.02-.19-.22.02-.44-.09-.62-.21-.22-.14-.41-.3-.59-.48-.31-.31-.68-.7-.79-1.13-.13-.52.08-1.23.73-1.19s1.22.56,1.49,1.11c.31.63.21,1.46-.33,1.94-.14.13.15.19.24.11h0Z"/>
              </g>
              <path class="st20" d="M148.32,29.86c-.56.52-1.13,1.03-1.68,1.55-.43.4-.88.86-1.05,1.44-.16.52-.02,1.08.42,1.42.34.26.86.36,1.25.14.5-.28.66-.93.76-1.44.01-.06-.3-.13-.31-.07-.1.5-.25,1.12-.72,1.41-.73.44-1.22-.56-1.14-1.16.09-.65.58-1.17,1.03-1.6.57-.54,1.16-1.07,1.73-1.6.03-.03-.24-.14-.3-.09h0Z"/>
              <path class="st20" d="M141.17,43.26c-.68-.07-1.12.61-1.23,1.2-.17.9.16,1.83-.4,2.65-.42.61-1.12.98-1.77,1.29s-1.36.65-1.61,1.38c-.03.08.16.24.15.28.24-.71.93-1.06,1.56-1.36.67-.32,1.38-.68,1.81-1.31.51-.73.31-1.58.38-2.42.05-.66.48-1.51,1.26-1.44-.03,0-.07-.27-.15-.28h0Z"/>
              <path class="st20" d="M139.25,37.9c.08-.2.31-.62.57-.5.17.08.3.21.39.38.19.36.18.83,0,1.19-.25.49-.81.68-1.32.74-.56.07-1.13-.06-1.69.04-.48.08-1.06.43-1.07.97,0,.06.27-.06.28-.14.01-.9,1.22-.65,1.81-.65s1.14-.12,1.62-.42c.41-.25.72-.62.78-1.11.05-.4-.06-.87-.42-1.11-.08-.05-.2-.12-.3-.12-.12,0-.27.12-.37.18-.25.17-.44.4-.55.69-.02.05.12,0,.13,0,.06-.03.13-.07.15-.13h0Z"/>
              <path class="st20" d="M139.6,31.1c2.46-1.03,4.85-2.85,5.64-5.51.62-2.09,0-4.61-1.71-6.02-1.06-.87-2.99-.89-3.59-2.17-.69-1.45.06-3.12-.41-4.62-.68-2.19-3.04-3.33-4.96-4.2-.17-.08-.23.04-.06.12,1.31.59,2.69,1.24,3.69,2.3,1.06,1.12,1.26,2.37,1.19,3.86-.05,1.02-.11,2.18.57,3.02.55.68,1.35.77,2.13,1.04,2.7.92,3.66,4.35,2.77,6.85-.9,2.5-3.14,4.18-5.51,5.17-.07.03.17.2.26.16h0Z"/>
              <path class="st20" d="M140.25,21.84c-.27-.41-.58-.91-.68-1.4-.06-.32.03-.59.4-.61.17,0,.35.02.51.07.82.26,1.48,1.04,1.83,1.79.81,1.76-.02,4.01-1.89,4.67-.07.03-.29.21-.11.14,1.57-.55,2.75-2.09,2.59-3.79-.08-.91-.53-1.79-1.21-2.39-.51-.45-1.22-.86-1.91-.58-.27.11-.52.32-.53.63,0,.27.13.55.24.78.13.29.29.57.47.83.04.06.31-.11.28-.15h0Z"/>
              <path class="st20" d="M146.68,25.42c.4,1.13.2,2.43-.56,3.37s-1.97,1.4-3.14,1.26c-.21-.02-.19.26,0,.29,1.25.15,2.55-.34,3.36-1.31s1.06-2.43.64-3.64c-.06-.16-.36-.16-.3.03h0Z"/>
              <g>
                <path class="st11" d="M41.36,138.64c.34-.67.45-1.47.21-2.18s-.87-1.29-1.61-1.41-1.55.3-1.83,1c-.21.53-.09,1.16.21,1.64s.75.86,1.24,1.17c.15.1.32.19.5.21.32.03,1.1-.17,1.28-.43"/>
                <path class="st11" d="M41.51,138.69c.43-.85.5-1.92-.03-2.74-.44-.68-1.23-1.14-2.05-1.02s-1.52.74-1.56,1.58c-.06.99.63,1.78,1.39,2.3.21.15.44.3.69.36.18.04.37.02.55-.01.32-.06.77-.17.98-.44.11-.15-.16-.28-.26-.16-.16.21-.48.29-.72.34-.12.03-.25.05-.37.05-.2,0-.38-.13-.55-.24-.68-.44-1.3-1.06-1.39-1.9-.08-.76.41-1.42,1.15-1.6s1.42.21,1.82.79c.53.78.45,1.78.05,2.59-.08.16.23.24.3.1h0Z"/>
              </g>
              <g>
                <path class="st11" d="M32.94,83.96c.72.02,1.34.57,1.67,1.22s.41,1.38.48,2.1c.14,1.26.27,2.52.41,3.78.03.32.06.68-.12.95-.17.26-.49.39-.64.66-.19.34-.01.78.28,1.04s.67.37,1.03.52c1.02.41,1.99,1.13,2.37,2.17s-.06,2.39-1.1,2.76c.59,1.09,1.18,2.2,1.41,3.41.23,1.21.04,2.57-.78,3.49-.35.39-.84.84-.64,1.32.19.46.83.48,1.25.76.39.26.56.82.38,1.26s-.69.71-1.16.63c.68.15,1.2.82,1.16,1.52-.02.33-.14.65-.18.97-.13,1.09.69,2.04,1.32,2.94s1.11,2.21.38,3.03c-.07.08-.17.16-.28.16-.12,0-.22-.1-.31-.19-.41-.44-.82-.87-1.23-1.31-.83.57-.56,1.94.18,2.62s1.78.92,2.67,1.39,1.73,1.38,1.53,2.36c-.04.21-.14.42-.31.54-.45.34-1.08-.02-1.54-.35s-1.17-.61-1.53-.18c-.26.31-.14.79.1,1.11s.59.54.84.86c.61.78.5,1.88.35,2.86-.16,1.03-.32,2.05-.48,3.08-.06.37-.15.78-.46.98-.37.24-.88.05-1.16-.29s-.36-.79-.44-1.22c-.15-.8-.3-1.6-.46-2.4-.09-.47-.19-.95-.48-1.32s-.85-.58-1.26-.33c-.1-2.8-.25-5.78-1.85-8.09-.88-1.27-2.28-2.3-3.83-2.3-.4,0-.8.07-1.19,0-1.07-.18-1.72-1.28-2-2.32-.28-1.04-.35-2.17-.9-3.1-.11-.18-.23-.35-.4-.46-.27-.18-.6-.2-.91-.26-1.91-.36-3.24-2.56-2.68-4.41.18-.61.53-1.16.71-1.77.17-.61.13-1.36-.36-1.77-.27-.23-.63-.31-.94-.48-1.22-.66-1.37-2.35-1.13-3.71s.72-2.79.22-4.09c-.24-.61-.67-1.12-.93-1.72-.77-1.77.41-4.09,2.29-4.51-.42,1.86,0,3.9,1.13,5.44.21.28.44.56.55.9.27.8-.24,1.66-.14,2.5.2,1.8,2.94,2.64,2.8,4.45-.03.44-.25.84-.31,1.27s.09.96.51,1.08c.21.06.43,0,.65.01.62.03,1.06.62,1.36,1.16.67,1.22,1.12,2.56,1.33,3.94.1.69.15,1.39.42,2.03s.8,1.22,1.49,1.3c.23.03.47,0,.7.04,1.01.21,1.09,1.6,1.59,2.51.52.95,1.77,1.43,2.8,1.08-.29-1.54-.58-3.07-.87-4.61-.04-.2-.09-.43-.27-.52-.21-.11-.46.02-.69,0-.55-.02-.77-.71-.81-1.25-.16-2.01.15-4.05.89-5.92.26-.66.58-1.38.33-2.04-.51.18-1.03.36-1.54.53-.15.05-.32.11-.47.05-.21-.08-.29-.33-.31-.55-.15-1.4.88-2.64,1.1-4.03.22-1.34-.4-2.79-1.53-3.55-.41-.28-.88-.48-1.22-.84-.79-.85-.52-2.22-.06-3.28.46-1.06,1.09-2.16.88-3.3-.12-.62-.47-1.18-.48-1.81s.64-1.31,1.18-1"/>
                <path class="st11" d="M32.97,84.09c2.37.36,2.12,4.46,2.31,6.21.04.32.15.71.1,1.04-.16,1.06-.37.55-.66,1.1-.15.28-.24.43-.15.76.2.79,1.17.97,1.79,1.28.98.49,1.95,1.3,2.03,2.47.06.89-.32,1.69-1.16,2.08-.05.03-.05.1-.03.15.58,1.07,1.18,2.17,1.4,3.38.28,1.52-.2,2.59-1.09,3.76-.25.33-.49.68-.31,1.1.09.21.21.24.36.38.12.11.31.1.42.2.27.11.39.36.36.77.62.71.43,1.08-.58,1.11-.19,0-.08.23.03.27,1.69.6.77,1.7.84,2.71.04.56.3,1.07.59,1.54.36.59.84,1.1,1.14,1.73.26.53.87,2.3-.67,1.94-.27-.06-.75-.8-.92-.98-.06-.06-.15-.11-.23-.04-1.68,1.5.61,3.21,1.89,3.76.35.15.71.28,1.04.47.4.18.71.45.95.81.73.6.43,1.18-.9,1.71-.45-.08-.78-.6-1.3-.61-.63-.01-.96.43-.8,1.04.09.34.31.54.53.8.57.66.92,1,.96,1.98.02.38-.04.76-.09,1.13-.11.8-.24,1.59-.37,2.39-.05.34-.01,1.25-.27,1.4l-1.39-.08c-.11-.24-.18-.49-.23-.75-.27-1.11-.31-5.17-2.47-4.34l.24.17c-.11-2.99-.26-6.39-2.33-8.76-.73-.84-1.71-1.53-2.82-1.74-1.26-.24-2.35.16-3.21-1.1-.55-.81-.63-1.82-.86-2.75-.26-1.06-.57-2.01-1.69-2.31-2.11-.56-3.55-2.39-2.73-4.62.36-.99,1.15-2.22.29-3.2-.41-.46-1.04-.58-1.48-1.03-.84-.86-.82-2.07-.64-3.2.28-1.72.75-3.21-.16-4.82-.57-1.02-1.01-1.9-.65-3.09.34-1.12,1.19-1.97,2.31-2.29l-.21-.21c-.29,1.53-.16,3.07.52,4.49.18.39.45.71.65,1.09.46.86.55,1.45.43,2.42-.07.52-.11.96.09,1.46.49,1.23,1.9,1.78,2.45,2.95.43.91-.19,1.61-.12,2.49.02.31.14.63.4.82.13.1.2.08.29.14.55,0,1.06.19,1.52.56.2.28.37.57.52.87.5.97.85,2.05,1.06,3.13.23,1.25.2,2.9,1.44,3.64.46.28.18.05.67.24.13.02.26.03.39.02.72.21,1.16.64,1.32,1.29.19.49.33,1.01.65,1.44.67.86,1.76,1.15,2.79.88.06-.02.08-.07.07-.13-.28-1.49-.39-3.17-.87-4.61-.27-.8-.67-.57-1.28-1.09-.73-.63-.57-1.65-.5-2.58.06-.85.2-1.69.42-2.52.32-1.17,1.07-2.3.81-3.54-.02-.08-.12-.17-.21-.14-.31.11-1.23.61-1.54.53l-.58-.7c.02-.37.09-.72.22-1.07.27-.86.76-1.65.9-2.55.18-1.15-.2-2.36-1-3.21-.56-.6-1.22-.87-1.73-1.53-.59-.77-.6-1.33-.33-2.27.11-.37.27-.71.43-1.07.35-.79.77-1.62.75-2.51,0-.36-.05-.49-.14-.82-.11-.44-1.08-2.82.65-2.32.2.06.16-.21,0-.26-.59-.17-1.09.13-1.27.74-.12.38,0,.74.09,1.11.3,1.13.44,1.99,0,3.1-.71,1.83-1.77,3.75.2,5.13.94.66,1.67,1.16,1.99,2.35.23.87.06,1.69-.24,2.51s-1.24,2.37-.69,3.31c.24.42.48.4.9.32.2-.04.55-.27.77-.27l.39-.13c.22.45.22.88,0,1.3-.23.83-.6,1.61-.78,2.46-.28,1.3-.98,4.32.42,5.24.3.2.84.12,1.09.45.35.44.33,1.73.44,2.3.08.42.64,1.94.19,2.26-.58.41-1.81-.4-2.13-.82-.29-.38-.42-.86-.59-1.3-.21-.54-.43-1.17-.99-1.44-.77-.37-1.16.2-2.03-.77-.67-.76-.62-2.04-.8-2.98-.23-1.23-.65-2.48-1.28-3.57-.42-.72-.8-.97-1.52-1.27h-.33c-.19-.43-.37-.87-.56-1.31-.03-.35.24-.75.21-1.14-.03-.33-.14-.61-.3-.9-.49-.87-1.4-1.4-1.99-2.19-.99-1.31.17-2.69-.55-4.02-.5-.93-1.13-1.66-1.42-2.71s-.29-2.11-.08-3.17c.02-.1-.09-.24-.21-.21-1.18.34-2.09,1.22-2.45,2.4-.45,1.48.26,2.36.87,3.63,1.15,2.4-1.81,6.71,1.32,8.31,2.29,1.18.02,3.26.22,5.06.12,1.11.77,2.16,1.7,2.79.42.28.81.35,1.26.52,1.84.7,1.62,2.31,2.09,3.83.3.96.9,1.98,1.94,2.26s1.99-.05,3,.44c1.19.57,2.08,1.66,2.64,2.83,1.05,2.17,1.15,4.63,1.23,6.99,0,.12.13.21.24.17.38-.15,1.19.58,1.32.85s.16.61.22.91c.09.48.18.96.27,1.44.12.64.17,1.46.61,1.99.41.5,1.17.69,1.61.13.36-.46.36-1.38.44-1.93.15-.96.36-1.94.41-2.92.03-.57,0-1.17-.28-1.68-.06-.12-.49-.58-.51-.65,0,0,.4-1.49.43-1.5.13-.02.48.32.6.38.77.43,1.66.43,1.76-.64.11-1.2-1.03-2.04-1.99-2.5s-2.11-.74-2.66-1.78c-.23-.44-.46-1.78.32-1.57.33.09.66.79.94,1,.56.42.97.06,1.14-.62.49-1.99-1.96-3.3-1.97-5.17-.01-1.27.3-2.33-1.17-2.85l.03.27c.87.03,1.63-.68,1.24-1.58-.15-.35-.4-.52-.73-.69-.63-.34-.97-.44-.57-1.36.15-.34.56-.62.75-.97.71-1.29.53-2.84.04-4.17-.2-.55-.94-1.51-.87-2.07.05-.36.7-.79.87-1.23.41-1.08-.02-2.18-.81-2.96-.5-.49-1.07-.64-1.63-1.03-2.29-1.57-.74-1.28-.45-2.35.23-.86-.16-2.16-.26-3.02-.1-.9-.12-1.86-.35-2.74-.29-1.12-.95-1.99-2.13-2.18-.19-.03-.08.25.07.27h0Z"/>
              </g>
              <path class="st20" d="M37.15,98.73c-.09.1-.21.16-.35.17-.07,0-.14,0-.21-.02,0,0-.06-.03-.03,0-.03-.02-.05-.04-.07-.07-.21-.22-.3-.57-.33-.88-.05-.64.55-.92,1.06-1.1.04-.01-.07-.08-.08-.09-.04-.02-.13-.09-.18-.07-.44.15-1.02.39-1.08.93-.03.29.05.63.19.89s.35.43.61.53.55.1.74-.11c.02-.02-.23-.21-.28-.16h0Z"/>
              <path class="st20" d="M25.08,110.29c.07-.16.27-.1.4-.07.15.04.32.11.48.07.22-.05.29-.34.35-.53.08-.26.11-.52.1-.79-.03-.5-.27-.98-.66-1.3-.34-.29-.83-.44-1.24-.24s-.68.71-.53,1.17c.02.06.07.15.13.18.05.03.07.02.05-.04-.12-.37.1-.78.41-.98.35-.23.8-.19,1.14.04.41.27.53.76.5,1.23-.02.24-.08.47-.16.69-.07.18-.16.33-.38.31-.23-.01-.66-.28-.79.02-.03.07.17.29.2.24h0Z"/>
              <g>
                <path class="st11" d="M86.65,21.33c-.74-.37-1.57-.58-2.37-.35-1,.3-1.5,1.41-1.71,2.43s-.28,2.13-.9,2.97c-1.29,1.74-4.26,1.43-5.52,3.19.5.83,1.43,1.38,2.39,1.43.33.02.71-.05.91-.32s0-.77-.33-.71c-.41,1.28-2.05,1.77-3.36,1.47s-2.41-1.15-3.58-1.8c-.31-.17-.65-.33-1-.27-.59.11-.86.84-.81,1.44s.31,1.18.3,1.78c-.01.86-.58,1.64-1.29,2.13s-1.55.74-2.38.99c-.46.14-.95.27-1.4.11-.39-.14-.67-.47-.99-.73-1.11-.89-2.98-.81-3.78.37-.8,1.18.13,3.16,1.55,3.07-2.07-1.01-4.72-.66-6.46.84-.68.59-1.24,1.34-2.04,1.76-1,.52-2.2.42-3.33.44s-2.4.27-3.03,1.21c2.88,1.14,6.26.91,8.96-.6.41-.23.93-.49,1.31-.22.33.23.35.73.64,1.01.16.15.39.22.6.26,1.95.4,4.11-.59,5.06-2.33.13-.24.25-.5.48-.64.52-.33,1.24.21,1.33.82s-.21,1.2-.47,1.76c-.15.31-.28.68-.12.99.1.19.3.31.48.41.38.22.75.43,1.13.65.27.16.56.32.88.31.61-.02,1.01-.65,1.16-1.24s.18-1.24.55-1.73c.6-.79,1.8-.77,2.77-.51s1.96.68,2.92.42c1.09-.29,1.78-1.37,2.21-2.42.32-.8.87-1.81,1.71-1.62.77.18.96,1.26,1.68,1.59.83.38,1.76-.57,1.78-1.48s-.5-1.74-.87-2.58c-.26-.58-.45-1.27-.17-1.84.5-1.04,2.04-.94,2.99-1.59,1.08-.74,1.22-2.29,1.03-3.58-.19-1.3-.59-2.64-.19-3.89.38-1.17,1.44-2.17,1.29-3.39"/>
                <path class="st11" d="M86.7,21.22c-.97-.44-2.18-.75-3.12-.04s-1.14,2.06-1.35,3.18c-.4,2.1-1.52,2.82-3.4,3.49-1.06.38-2.08.73-2.81,1.64-.04.05-.03.11,0,.16.57.82,2.13,2.02,3.24,1.38.57-.33.51-1.03-.14-1.18-.05-.01-.13,0-.16.06-.88,2.12-3.43,1.52-5,.65-.73-.4-1.93-1.54-2.87-1.31s-.92,1.27-.81,2.01c.19,1.25.28,2.23-.74,3.14-.71.63-2.01,1.21-2.96,1.28-1.4.1-2.19-1.21-3.56-1.3-.87-.06-1.82.24-2.33.99-.89,1.33.14,3.25,1.7,3.29.16,0,.15-.19.03-.25-2.26-1.01-4.92-.69-6.78.99-.73.66-1.29,1.38-2.25,1.74s-2.03.25-3.06.29c-1.14.05-2.22.32-2.96,1.24-.06.07-.01.18.07.21,2.2.82,4.58.98,6.85.33.53-.15,1.05-.34,1.54-.57.29-.13.58-.36.88-.45l.16-.08c.66-.08,1.07.14,1.22.64.56.44.84.66,1.64.69.96.04,1.92-.22,2.75-.71.36-.21.69-.48.99-.77s.57-1.01.88-1.24l1.39.68c-.04.3-.12.58-.24.85-.11.28-.3.55-.37.84s-.11.48.02.76c.28.62,1.67,1.27,2.27,1.41.51.12.91-.01,1.26-.41.26-.3.36-.68.46-1.05.31-1.23.73-2.16,2.14-2.12,1.21.03,2.31.78,3.53.65.89-.09,1.57-.62,2.07-1.33.33-.48.52-1.01.78-1.53.14-.27.29-.67.51-.85,1.35-1.13,1.29-.03,1.75.39.5.45.74,1.02,1.54.85.66-.14,1.13-.83,1.22-1.46.19-1.32-.9-2.29-1.1-3.52-.33-2.04,1.86-1.78,3.02-2.58.77-.53,1.07-1.43,1.14-2.32.12-1.48-.56-2.91-.41-4.39.16-1.55,1.5-2.66,1.45-4.24,0-.16-.31-.24-.31-.07.04,1.18-.72,1.98-1.15,3.01-.4.98-.33,1.98-.17,2.99.17,1.08.45,2.18.19,3.28-.37,1.55-1.58,1.72-2.85,2.23-1.53.62-1.39,1.89-.79,3.21.25.55.65,1.18.67,1.8.04,1.27-.98,2.39-2.13,1.21-.39-.4-.57-.95-1.18-1.06-1.58-.28-2.07,2.59-2.89,3.4-1.83,1.82-4.11-.68-6.16.26-.68.31-.89.88-1.08,1.56-.24.84-.23,2.04-1.71,1.73-.9-.19-1.82-1.37-1.6-2.19s.89-2.61-.69-2.69c-.52-.03-.67.29-.94.67-.83,1.16-1.67,2.04-3.14,2.37-.79.17-1.6.23-2.22-.32-.29-.26-.45-.66-.76-.88-.38-.27-.8-.15-1.19.01-1.18.48-2.22,1.07-3.5,1.3-1.36.25-2.78.23-4.13-.07-.58-.13-1.68-.33-.73-.9.56-.34,1.25-.46,1.9-.51,1.1-.08,2.26.1,3.33-.29.79-.29,1.34-.85,1.92-1.42.98-.95,2.06-1.62,3.43-1.84.68-.11,1.41-.1,2.09.04.06.01,1.01.27,1,.3-.05.13-.95-.82-1.02-.93-.88-1.48.4-2.98,1.96-2.94,1.2.03,1.62.97,2.61,1.31.76.26,1.64-.11,2.35-.35,1.58-.54,3.09-1.58,2.9-3.44-.03-.3-.15-.59-.19-.89l-.07-.72c-.03-.58.26-.81.87-.67.79-.12.78-.08,1.4.29.24.14.47.29.71.43.89.52,1.84,1.03,2.89,1.07.73.03,1.54-.15,2.12-.61.12-.09.65-.52.61-.72l-.31.28c-.32.44-.75.45-1.28.04-.38-.17-1.1-.56-1.08-1.01.04-.93,2.22-1.42,2.94-1.68s1.5-.56,2.07-1.13c.71-.7.91-1.64,1.09-2.59.41-2.18,1.41-3.97,4.01-2.79.18.08.29-.14.11-.23h0Z"/>
              </g>
              <g>
                <path class="st11" d="M84.69,17.35c.19-.61.35-1.27.16-1.88s-.87-1.1-1.47-.88c-.58.21-.78.99-.57,1.56s.71,1,1.21,1.35c.09.06.19.13.3.13.1,0,.33-.21.37-.29"/>
                <path class="st11" d="M84.79,17.45c.22-.68.39-1.45.09-2.14-.22-.5-.75-.98-1.33-.92-.55.05-.86.55-.92,1.05-.07.61.24,1.17.66,1.59.25.25.55.51.86.68.12.07.24.09.36.01.1-.06.21-.16.27-.26.06-.09-.11-.36-.17-.26-.09.14-.27.32-.44.25-.12-.05-.23-.15-.33-.23s-.21-.16-.31-.25c-.37-.33-.71-.76-.69-1.28.01-.41.23-.84.64-.99.46-.16.96.13,1.19.53.35.59.13,1.38-.06,1.99-.03.1.15.35.2.21h0Z"/>
              </g>
              <g>
                <path class="st11" d="M69.59,26.74c-.22-.28-.21-.7-1.44-.97-.25-.06-.53-.07-.76.06-.46.25-.5.95-.2,1.38s.82.65,1.32.82c.17.06.35.11.53.08.54-.1.61-.83.55-1.38"/>
                <path class="st11" d="M69.74,26.71c-.08-.1-.13-.22-.21-.33-.1-.15-.24-.26-.4-.35-.28-.16-.6-.25-.91-.31-.33-.07-.73-.06-1.02.13-.49.32-.43,1.05-.1,1.46.21.27.52.45.83.58.33.15.71.31,1.08.27.32-.04.56-.21.67-.51s.11-.62.08-.93c0-.07-.32-.03-.32.04.04.39.06,1.06-.35,1.28-.13.07-.3,0-.44-.05-.15-.05-.3-.11-.45-.17-.26-.11-.51-.26-.71-.47-.33-.35-.47-.96-.14-1.36.22-.26.53-.21.83-.14.24.06.49.14.71.27.14.09.27.2.36.34.07.1.12.21.19.31.05.06.34-.01.3-.06h0Z"/>
              </g>
              <path class="st20" d="M71.88,40.53c.38-.92,1.06-1.81,2.03-2.14.22-.07.63-.22.83-.07.15.11.2.34.25.51.1.36.17.71.51.91.12.07.31.03.13-.08s-.25-.37-.3-.57-.1-.41-.2-.59c-.27-.45-.84-.46-1.29-.33-1.08.29-1.84,1.24-2.25,2.23-.03.08.26.21.29.12h0Z"/>
              <path class="st20" d="M62.99,36.7c.23-.07.5.04.64.24.15.22.06.51-.07.72-.37.56-1.12.56-1.68.31-.07-.03-.07.06-.06.1.02.07.06.15.13.18.53.24,1.21.27,1.65-.17.19-.19.31-.43.31-.7s-.12-.54-.31-.72c-.2-.2-.48-.32-.77-.24-.09.03.04.31.16.28h0Z"/>
              <g>
                <path class="st11" d="M45.86,130.12c-1.04-.31-1.4.39-1.72.9s-.24,1.25.24,1.61c.57.43,1.38.18,2.02-.14.2-.1.41-.22.53-.41.31-.5-.12-1.12-.53-1.54-.16-.16-.32-.33-.54-.41"/>
                <path class="st11" d="M45.97,130.1c-.55-.16-1.17-.12-1.57.33-.16.17-.28.38-.4.58-.16.27-.23.57-.19.88s.19.59.44.77c.28.2.62.25.95.24.37-.01.73-.11,1.06-.26.3-.13.68-.29.85-.59.2-.36.03-.76-.18-1.07-.12-.18-.26-.33-.4-.49s-.31-.3-.52-.39c-.06-.03-.15-.02-.22-.01-.02,0-.12.03-.06.05.3.12.53.39.73.63s.39.52.42.84-.14.57-.4.74-.57.3-.88.39-.61.12-.9-.02c-.26-.12-.44-.35-.52-.62-.08-.25-.08-.53,0-.79.07-.21.2-.4.32-.59s.26-.36.45-.49c.26-.17.52-.16.81-.08.06.02.16.02.23,0,.05-.02.06-.04,0-.05h0Z"/>
              </g>
              <g>
                <path class="st11" d="M49,133.43c-.79,0-1.09,1.06-.91,1.49s.79.66,1.18.4c.3-.21.41-.63.32-.98s-.33-.66-.59-.91"/>
                <path class="st11" d="M49,133.3c-.39,0-.72.22-.91.55-.17.29-.25.64-.19.97.08.41.48.68.87.73.47.06.88-.25.98-.71.13-.59-.22-1.12-.64-1.51-.12-.11-.38.04-.23.17.3.28.59.65.58,1.09,0,.33-.21.7-.58.7-.29,0-.59-.21-.66-.49-.06-.23,0-.51.1-.73.12-.28.36-.52.68-.52.07,0,.16-.04.16-.12,0-.08-.08-.14-.15-.13h0Z"/>
              </g>
              <path class="st20" d="M79.68,31.68c.85.52,1.87-.15,2.39-.84.26-.35.35-.76.14-1.16-.19-.36-.6-.72-1.02-.78-.21-.03-.44.07-.55.26-.12.21-.08.46.05.65.03.05.11.14.17.13s.05-.06.02-.11c-.13-.19-.08-.45.1-.6.2-.16.45-.1.65.02.39.24.55.68.35,1.11s-.61.76-.98.99c-.4.25-.93.38-1.36.12-.04-.03-.1-.04-.11.03s.09.14.14.17h0Z"/>
              <path class="st20" d="M34.8,118.32c.8.68,1.34,1.61,1.57,2.63.1.47.14.95.1,1.43-.04.53-.25,1.01-.33,1.53-.11.66.3,1.08.89,1.27.52.16,1.07.2,1.38.72.26.45.3,1.01.33,1.51,0,.11.26.29.25.14-.05-.78-.15-1.7-.84-2.2-.34-.24-.74-.29-1.13-.41-.48-.15-.73-.47-.61-.99.06-.28.17-.54.22-.82.39-1.84-.34-3.79-1.76-5-.16-.14-.19.08-.07.18h0Z"/>
              <path class="st20" d="M39.28,136.04c-.34.27-.48.72-.39,1.14.1.48.45.85.8,1.16.07.06.33-.11.25-.19-.32-.28-.63-.61-.75-1.03-.1-.33-.06-.79.23-1.02.03-.03.11-.09.05-.13-.05-.04-.16.03-.19.06h0Z"/>
              <g>
                <path class="st11" d="M141.1,117.57c.34-.67.45-1.47.21-2.18-.25-.71-.87-1.29-1.61-1.41s-1.55.3-1.83,1c-.21.53-.09,1.16.21,1.64.3.49.75.86,1.24,1.17.15.1.32.19.5.21.32.03,1.1-.17,1.28-.43"/>
                <path class="st11" d="M141.24,117.66c.43-.85.49-1.91-.06-2.72-.42-.63-1.18-1.11-1.96-1.06-.83.05-1.55.69-1.59,1.54-.04.98.69,1.75,1.44,2.26.36.25.71.46,1.15.4.32-.04.8-.14,1.01-.42.03-.04-.23-.23-.27-.17-.16.21-.48.3-.73.36-.12.03-.24.05-.37.06-.24.02-.42-.08-.62-.2-.69-.45-1.31-1.11-1.35-1.97-.04-.75.45-1.38,1.15-1.6s1.48.09,1.89.73c.51.79.42,1.8.02,2.61-.03.06.24.22.27.17h0Z"/>
              </g>
              <g>
                <path class="st11" d="M145.61,109.05c-1.04-.31-1.4.39-1.72.9s-.24,1.25.24,1.61c.57.43,1.38.18,2.02-.14.2-.1.41-.22.53-.41.31-.5-.12-1.12-.53-1.54-.16-.16-.32-.33-.54-.41"/>
                <path class="st11" d="M145.62,108.94c-.3-.09-.63-.13-.93-.03-.24.08-.43.24-.59.44-.35.43-.64.95-.52,1.52.15.71.81,1.09,1.5,1.03.37-.03.72-.16,1.05-.32.31-.15.64-.32.75-.67.13-.39-.09-.8-.31-1.11-.24-.34-.56-.7-.95-.86-.06-.02-.15-.02-.16.05s.07.14.13.17c.28.11.52.41.7.64s.37.53.34.84c-.03.33-.3.51-.57.64s-.57.26-.87.33c-.28.06-.6.07-.87-.06-.24-.12-.39-.35-.45-.61-.11-.5.13-.91.4-1.3.13-.18.28-.34.47-.44.26-.13.56-.11.84-.03.2.06.2-.17.04-.22h0Z"/>
              </g>
              <g>
                <path class="st11" d="M148.74,112.36c-.79,0-1.09,1.06-.91,1.49s.79.66,1.18.4c.3-.21.41-.63.32-.98s-.33-.66-.59-.91"/>
                <path class="st11" d="M148.65,112.25c-.69.01-1.12.82-.98,1.45.09.4.51.7.9.76.45.08.81-.22.9-.65.12-.58-.27-1.1-.66-1.47-.03-.03-.13-.11-.18-.09s.02.1.04.13c.31.29.59.67.56,1.12-.02.37-.27.74-.67.76-.3.01-.58-.15-.64-.46-.05-.26.02-.56.13-.79.15-.3.42-.54.77-.55.07,0,.03-.07,0-.1-.04-.05-.12-.12-.19-.12h0Z"/>
              </g>
              <path class="st20" d="M139.01,114.9c-.36.28-.48.75-.39,1.19.11.49.47.88.83,1.2.13.11.35-.1.21-.23-.31-.27-.61-.59-.72-1-.09-.32-.04-.74.24-.96.16-.13-.02-.33-.17-.21h0Z"/>
              <g>
                <path class="st11" d="M135.41,2.48c.59-1.43-.75-2.91-2.27-3.21-.26-.05-.56-.05-.75.13-.27.25-.18.7-.07,1.05.23.72.48,1.48,1.05,1.98s1.55.62,2.04.04"/>
                <path class="st11" d="M135.55,2.46c.61-1.53-.83-2.97-2.24-3.27-.37-.08-.79-.08-1.06.22s-.2.7-.1,1.04c.22.77.52,1.67,1.19,2.17.63.47,1.63.53,2.18-.09.14-.16-.13-.17-.21-.07-.43.49-1.19.35-1.67.01-.59-.42-.87-1.15-1.08-1.8-.1-.31-.26-.68-.16-1.01.11-.39.58-.29.88-.21.64.18,1.25.56,1.66,1.09.44.57.62,1.29.34,1.98-.06.14.25.07.29-.04h0Z"/>
              </g>
              <g>
                <path class="st11" d="M144.99,182.08c-.24-3.34-3.2-1.45-3.27-.52-.05.72.65,1.33,1.36,1.38s1.4-.35,1.9-.86"/>
                <path class="st11" d="M145.13,182.16c-.05-.68-.22-1.4-.82-1.8-.43-.29-.9-.32-1.38-.15-.43.15-.84.44-1.12.8-.1.14-.19.29-.21.47-.04.43.22.83.53,1.09.41.34.92.53,1.45.46.6-.08,1.13-.43,1.55-.86.02-.02-.22-.22-.27-.17-.34.34-.74.63-1.2.78-.42.13-.96.15-1.33-.13-.3-.23-.53-.65-.47-1.04.02-.14.1-.28.18-.39.42-.59,1.37-1.17,2.11-.87.21.09.35.32.44.51.17.36.23.76.26,1.15,0,.07.27.17.27.15h0Z"/>
              </g>
              <path class="st11" d="M157.84,183.71c.15,0-.13-.13-.2-.13-.15,0,.13.13.2.13h0Z"/>
              <g>
                <path class="st11" d="M173.46,176.77c.34.93-.27,3.5-.77,4.36s-1.16,1.62-1.58,2.52c-.21.45-.43,1-.92,1.12-.58.14-1.09-.49-1.13-1.08s.22-1.16.36-1.74.09-1.29-.39-1.64c-1.03,1.42-2.41,2.54-3.78,3.64-.34.27-.67.54-1.01.81-.42.34-1.08.67-1.45.27-.14-.15-.18-.35-.21-.55l-.14-1.16c-1.17-.72-2.44,1.24-3.81,1.06-1.05-.13-1.5-1.61-.94-2.51s1.71-1.26,2.78-1.26c-1.36-.67-3.22.09-3.72,1.52-.28.79-.55,1.97-1.36,1.79-.37-.08-.59-.46-.88-.71-.85-.75-2.2-.32-3.14.32s-1.87,1.48-3,1.48-2.15-1.57-1.25-2.26c.45-.34,1.11-.25,1.6-.55.89-.55.56-2-.24-2.67s-1.88-.9-2.74-1.5-1.41-1.91-.69-2.66c2.55.22,4.9,2.48,7.35,1.74.93-.28,1.7-.97,2.63-1.26,1.06-.33,2.2-.11,3.3-.2,2.93-.26,5.13-2.66,7.55-4.34,1.56-1.08,3.31-1.91,4.71-3.2,1.4-1.29,1.86-2.84,1.91-5.07,0,0,.16-1.02.8-1.66s1.49-1.09,1.96-1.86c.93-1.52.04-3.44-.29-5.19-.23-1.23-.17-2.51.19-3.71.42-1.43,1.25-2.71,1.78-4.11.62-1.62.84-3.39.63-5.11-.2-1.71-.8-3.53-.05-5.09.09-.19.44-.8.44-.8.45,2.23,1.54,4.33,3.13,5.97.35.36.73.73.8,1.23.08.6-.35,1.12-.59,1.67-.47,1.07-.24,2.36.39,3.35.63.99,1.61,1.7,2.65,2.24.37.19.76.37,1.04.66.24.24.39.55.53.86.38.86.62,1.77.73,2.7.05.43-.03.86-.12,1.28-.55,2.39-3.14.24-3.14.24,0,0,.24,1.01-.21,1.69-.74,1.12.22,2.42.9,3.58s1.19,2.81.18,3.69c-1.1.95-2.82,0-4.24.32-1.16.26-1.98,1.39-2.12,2.57-.14,1.18.32,2.36.99,3.33.64.92,1.5,1.74,1.74,2.83.27,1.22-.32,2.48-1.11,3.45-.83,1-1.97,1.83-3.27,1.93s-2.7-.76-2.9-2.05c-.16-1.02.5-2.07,1.44-2.5s2.08-.28,2.96.27"/>
                <path class="st11" d="M173.33,176.8c.59,2.19-.88,4.29-1.94,6.03-.24.4-.47,1.23-.84,1.52-1.14-.24-1.55-.72-1.23-1.46.03-.15.07-.29.11-.43.05-.2.12-.39.15-.6.09-.64,0-1.18-.47-1.64-.05-.05-.14-.08-.19-.01-1.23,1.63-2.83,2.91-4.43,4.16-.44.34-1.27,1.16-1.78.09-.06-.14-.05-.39-.06-.53-.02-.16,0-.54-.11-.68-.5-.59-1.54.01-2.01.27-.96.53-2.7,1.43-2.93-.51-.2-1.62,1.64-2.2,2.88-2.24.18,0,.13-.24,0-.29-.89-.37-1.85-.32-2.69.18-.36.22-.68.51-.91.86-.55.83-.38,2.54-2.1,1.8-.32-.14-.5-.46-.87-.57-.55-.17-1.15-.05-1.68.14-1.27.47-3.6,3.11-4.9,1.46-.57-.73.06-1.42.77-1.78.42-.22.27.04.67-.24.26-.17.43-.4.52-.7.25-.8-.2-1.7-.79-2.23-.5-.44-1.15-.67-1.74-.96-.62-.3-1.21-.57-1.6-1.18l-.26-.54c.01-1.08.41-1.42,1.18-1.01,1.45.39,2.75,1.24,4.22,1.56,1.21.27,2.2.02,3.28-.55s1.86-.9,3.06-.91c.83-.01,1.64.04,2.45-.13,3.05-.66,5.3-3.3,7.86-4.9,2.24-1.4,4.71-2.68,5.39-5.44.33-1.35.03-2.73,1.03-3.84s2.33-1.65,2.4-3.43c.07-1.89-.92-3.64-.83-5.56.12-2.34,1.51-4.17,2.23-6.32.57-1.69.68-3.45.44-5.2-.27-1.94-.6-3.6.44-5.38l-.26-.1c.45,2.09,1.36,4.02,2.77,5.64.66.76,1.33,1.64.82,2.67-.2.41-.4.81-.47,1.27-.14.88.09,1.79.53,2.55.47.82,1.18,1.46,1.96,1.98.5.33,1.1.53,1.57.89.75.57,1.07,1.66,1.29,2.53.3,1.22.4,3.9-1.54,3.31-.48-.15-.94-.44-1.33-.76-.08-.07-.21,0-.19.11.24,1.15-.66,2-.4,3.14.37,1.63,2.1,2.89,1.82,4.69-.36,2.37-3.21.95-4.71,1.31-1.1.26-1.89,1.22-2.14,2.3-.81,3.44,3.88,5.37,2.36,8.7-.8,1.75-2.86,3.56-4.9,2.99-1.47-.41-2.33-1.92-1.39-3.29s2.52-1.3,3.81-.6c.18.1.26-.17.11-.25-1.67-.91-4.2-.59-4.58,1.63-.3,1.75,1.46,3.03,3.07,2.92,2.2-.14,4.42-2.52,4.53-4.69.06-1.14-.53-1.99-1.17-2.86-1.19-1.6-2.47-3.78-.97-5.64,1.21-1.51,2.78-.7,4.35-.79.85-.05,1.6-.45,1.85-1.32s-.13-1.92-.54-2.72c-.36-.69-.87-1.32-1.13-2.06-.36-1.01.3-1.7.36-2.65.01-.16.02-.4-.02-.56-.07-.29-.18-.06-.17-.05.2.08.39.28.58.39.47.27,1.06.56,1.61.46,1.99-.34,1.06-3.75.62-4.9-.57-1.47-1.56-1.72-2.81-2.59-.92-.64-1.74-1.5-2.05-2.61-.36-1.27.22-2.02.58-3.15.34-1.07-.34-1.64-1.01-2.39-1.42-1.59-2.35-3.49-2.8-5.57-.03-.12-.18-.24-.26-.1-.85,1.48-.9,2.77-.63,4.44.41,2.6.36,4.94-.74,7.38-.91,2.02-1.9,3.84-1.75,6.13.06.9.31,1.75.52,2.62.47,1.94.31,3.28-1.28,4.6-1.14.95-1.51,1.75-1.63,3.19-.2,2.39-1.3,3.97-3.26,5.3-1.72,1.17-3.49,2.2-5.14,3.48s-3.45,2.7-5.65,2.9c-1.17.11-2.36-.12-3.5.29s-2.11,1.33-3.44,1.33c-2.22,0-4.12-1.62-6.31-1.89-.03,0-.07.01-.09.04-1.84,2.45,2.67,3.46,3.65,4.58.68.77.72,1.86-.27,2.33-.31.15-.67.13-.98.28s-.55.32-.66.66c-.24.72.36,1.52.96,1.84.97.52,2.05-.07,2.87-.62.7-.47,1.35-1.04,2.18-1.25,1.17-.3,1.53.41,2.41.87.77.41,1.21-.22,1.49-.87.31-.74.45-1.46,1.14-1.98.79-.6,1.82-.71,2.74-.33v-.29c-1.1.04-2.43.35-2.95,1.46-.35.74-.2,1.75.43,2.29.75.63,1.63.24,2.38-.19.46-.26,1.59-1.08,2.01-.59.18.21.08.91.16,1.2.2.73.74.89,1.41.56.77-.38,1.46-1.1,2.12-1.64s1.37-1.14,1.99-1.78c.14-.14.71-.97.87-.98.27-.02.41.97.41,1.12,0,.1-.22.75-.24.85-.11.54-.21,1.06.08,1.57.34.59,1.01.82,1.54.36.63-.54.98-1.68,1.43-2.35.41-.61.8-1.18,1.05-1.88.39-1.12.76-2.52.44-3.7-.05-.18-.31-.15-.26.05h0Z"/>
              </g>
              <path class="st20" d="M163.32,182.22c-.55-1.7-1.25-3.69-3.1-4.36-1.43-.52-3.11.08-3.92,1.35-.05.08.25.14.3.06.82-1.27,2.52-1.88,3.88-1.11,1.47.83,2.04,2.56,2.52,4.07.03.08.34.09.31,0h0Z"/>
              <path class="st20" d="M144.06,182.21c-.18.17-.42.25-.67.24-.12,0-.24-.03-.35-.08-.03-.01-.1-.04-.11-.06-.02-.03.03.03.03.02,0,0-.02-.02-.03-.03-.02-.02-.04-.05-.05-.08-.03-.05-.09-.1-.14-.14-.02-.02-.05-.05-.08-.05,0,0-.03-.02-.02,0,.1.16.24.29.39.4.13.09.28.16.44.2.3.06.62,0,.84-.22.02-.01-.21-.23-.24-.2h0Z"/>
              <g>
                <path class="st11" d="M77.38,75.89c.09,1.04-.65,2.09-1.66,2.37-.22.06-.45.08-.67.03-.54-.14-.85-.72-.95-1.27-.11-.61-.03-1.28.3-1.81s.93-.91,1.55-.9,1.24.45,1.37,1.06c.09.4-.02.82-.22,1.17-.27.48-.7.86-1.21,1.07"/>
                <path class="st11" d="M77.29,75.78c.06.79-.34,1.58-.99,2.03-.33.23-.76.4-1.17.36-.44-.05-.72-.38-.86-.78-.29-.86-.06-1.95.66-2.53.64-.51,1.71-.58,2.2.17.31.47.08,1.12-.2,1.55s-.66.71-1.1.9c-.06.03.08.31.16.28.89-.38,1.71-1.4,1.4-2.42-.28-.92-1.3-1.41-2.18-1.03-1.01.43-1.37,1.6-1.19,2.62.07.42.26.85.56,1.16.34.35.79.42,1.25.29,1.02-.29,1.72-1.34,1.64-2.39,0-.07-.04-.15-.09-.2-.02-.02-.1-.09-.09-.01h0Z"/>
              </g>
              <g>
                <path class="st11" d="M78.43,73.12c-.05-.2-.1-.41-.07-.62s.19-.41.4-.44c.12-.02.25.03.36.1.32.19.55.54.56.92s-.25.75-.61.85c-.27.08-.57,0-.77-.2s-.27-.5-.19-.77c.03-.09.08-.19.18-.21"/>
                <path class="st11" d="M78.59,73.08c-.05-.19-.1-.4-.06-.6.03-.12.11-.27.24-.3.14-.03.32.1.41.19.12.11.21.24.27.38.11.29.07.62-.14.86s-.52.28-.77.11c-.14-.09-.24-.24-.28-.41-.02-.09-.02-.18,0-.27,0-.05.03-.18.09-.2.07-.02.13-.08.1-.15-.03-.07-.14-.1-.2-.07-.46.16-.36.84-.1,1.13.3.34.85.41,1.23.17s.54-.69.43-1.11-.5-.84-.94-.87c-.27-.02-.49.14-.6.38-.12.27-.04.57.02.84.04.15.35.09.3-.08h0Z"/>
              </g>
            </g>
          </g>
          <g class="st19">
            <g>
              <path class="st15" d="M91.24,121.07c5.05-.39,31.93.18,34.44.32.62-1.89.81-3.88.98-5.86.22-2.48.41-4.97.57-7.46l.51-3.78c-.8-1.14-1.3-2.47-1.93-3.71-.63-1.24-1.46-2.46-2.69-3.13-.51-.28-1.08-.45-1.54-.82-.67-.54-.98-1.41-1.48-2.11-.77-1.09-2.13-1.82-3.43-1.57-.49.09-.95.32-1.45.38-1.47.18-2.81-1.04-4.29-.95-1.41.09-2.46,1.34-3.81,1.75-.69.21-1.44.2-2.08.53-1.02.53-1.44,1.76-2.29,2.53-.96.87-2.43,1.11-3.23,2.14-.74.96-.71,2.36-1.48,3.29-.84,1.02-2.41,1.19-3.27,2.19-.53.62-.71,1.46-.98,2.24-.41,1.17-.68,1.12-4.14,4.67s1.6,9.35,1.6,9.35Z"/>
              <g>
                <g>
                  <path class="st6" d="M85.45,108.27c-2.28-3.15-3.3-7.18-2.79-11.03.61,1.71,1.73,3.19,2.72,4.72.99,1.53,1.88,3.21,1.93,5.03.01-2.85.02-5.74-.83-8.46,2.17,1.88,3.44,4.74,3.37,7.61-.05,1.87-.63,3.76-.2,5.59"/>
                  <path class="st6" d="M85.86,108.16c-2.27-3.2-3.27-7.14-2.79-11.03l-.82.22c1.27,3.38,4.46,5.97,4.65,9.75,0,.12.82,0,.82-.22.01-2.84,0-5.71-.83-8.46l-.8.25c1.69,1.5,2.84,3.55,3.21,5.78.42,2.47-.58,4.93-.07,7.39.03.15.86-.04.82-.22-.53-2.53.52-5.06.03-7.61-.42-2.18-1.57-4.15-3.22-5.61-.11-.1-.85.08-.8.25.83,2.75.85,5.61.83,8.46l.82-.22c-.2-3.78-3.39-6.36-4.65-9.75-.07-.18-.8.05-.82.22-.48,3.89.52,7.84,2.79,11.03.13.19.87-.15.82-.22h0Z"/>
                </g>
                <g>
                  <path class="st14" d="M89.05,110.95c0-3.94,2.87-7.3,3.49-9.99.17,1.38.21,2.78,0,4.15-.2,1.31-.69,2.61-.97,3.9-.49,2.28-1,5.01-1.03,7.34"/>
                  <path class="st14" d="M89.46,110.84c.03-1.96.72-3.78,1.56-5.52.69-1.44,1.54-2.86,1.93-4.42l-.82.17c.17,1.46.22,2.93-.04,4.38-.24,1.31-.69,2.57-.97,3.87-.5,2.35-.93,4.73-.98,7.14,0,.18.81.06.82-.22.05-2.54.51-5.1,1.09-7.57.31-1.31.77-2.58.94-3.92.17-1.3.12-2.6-.04-3.9-.03-.23-.77-.01-.82.17-.4,1.64-1.31,3.12-2.03,4.63-.81,1.71-1.44,3.49-1.47,5.4,0,.19.81.06.82-.22h0Z"/>
                </g>
                <path class="st23" d="M82.88,98.25c-.03,4.19,4.28,6.87,4.44,11.01-.91-3.87-5.26-6.72-4.44-11.01h0Z"/>
                <path class="st23" d="M87.13,99.44c1.94,3.18,1.89,7.34.74,10.79.37-3.62.47-7.31-.74-10.79h0Z"/>
                <path class="st23" d="M92.54,100.97c-.07,4.01-2.27,7.6-2.7,11.56-.35-4.05,1.87-7.7,2.7-11.56h0Z"/>
                <g>
                  <path class="st1" d="M74.1,116.26c1.04-2.91,3.08-5.44,5.7-7.08.77-.48,1.61-.89,2.51-.97.85-.08,1.7.14,2.52.37,1.36.38,2.77.81,3.76,1.82,1.03,1.04,1.44,2.53,1.74,3.96.42,2.06.66,4.15.91,6.23.01.12.03.26-.04.37-.1.16-.33.18-.52.19-5.19.05-10.38.09-15.57.14"/>
                  <path class="st1" d="M74.51,116.22c.89-2.41,2.43-4.56,4.46-6.13,1.3-1,2.71-1.84,4.41-1.55,1.29.22,2.71.62,3.85,1.28,2.43,1.41,2.74,4.59,3.11,7.1.11.71.2,1.42.29,2.14.04.33.08.66.12.99,0,.02.12.6.08.66-.13.22-.47.17-.67.19-1.49.14-3.07.03-4.57.04-3.44.03-6.88.06-10.33.09-.34,0-.86.52-.31.51,3.84-.03,7.67-.07,11.51-.1.9,0,1.81-.02,2.71-.02.6,0,1.43.14,2.01-.12.4-.18.47-.41.47-.81,0-.91-.22-1.89-.34-2.8-.39-2.87-.63-6.67-3.42-8.29-1.22-.71-2.76-1.15-4.14-1.37-1.54-.25-2.9.21-4.2,1.01-2.71,1.68-4.75,4.28-5.85,7.27-.11.31.71.21.82-.09h0Z"/>
                </g>
                <g>
                  <path class="st24" d="M84.07,109.86c1.22-.23,2.49.46,3.21,1.48s.97,2.29,1.02,3.54c-.06-.58-1.56-2.89-2.11-3.39-.56-.5-1.52-1.16-2.11-1.62h0Z"/>
                  <path class="st24" d="M84.01,110.08c1.11-.19,2.2.49,2.84,1.36.75,1.01.98,2.32,1.04,3.55l.82-.22c-.05-.4-.32-.8-.52-1.14-.29-.51-.61-1-.95-1.47-.28-.39-.57-.74-.94-1.05-.6-.49-1.24-.93-1.85-1.4-.15-.11-.38-.06-.54,0-.07.03-.37.2-.22.31.59.46,1.21.88,1.8,1.35.38.31.68.65.96,1.05.34.47.65.95.94,1.45.19.33.45.73.5,1.12.03.26.83.07.82-.22-.06-1.35-.34-2.77-1.23-3.82-.81-.97-2.08-1.51-3.34-1.29-.14.02-.44.09-.47.27s.25.18.35.16Z"/>
                </g>
                <g>
                  <path class="st21" d="M67.89,121.44c0-2.23,1.33-4.43,3.42-5.6.81-.45,1.83-.76,2.7-.41.87.35,1.31,1.24,1.57,2.07.34,1.08.52,2.2.52,3.32,0,.15-.02.33-.16.42-.08.05-.17.05-.27.06-2.29.14-5.53.51-7.79.14"/>
                  <path class="st21" d="M68.32,121.33c.01-1.39.52-2.73,1.37-3.82.85-1.07,2.56-2.58,4.02-1.89,1.31.62,1.66,2.51,1.84,3.79.06.4.09.81.11,1.22,0,.05-.05.53-.03.55-.02-.02.46-.04.11-.04-.1,0-.2.01-.3.02-.71.05-1.42.11-2.12.15-1.68.11-3.41.23-5.09-.04-.2-.03-.42.02-.6.11-.06.03-.3.19-.11.22,1.74.27,3.53.17,5.28.06.89-.06,1.78-.11,2.67-.19.31-.03.75-.09.94-.37.21-.31.08-.9.05-1.24-.08-.98-.27-2-.64-2.92-.28-.71-.73-1.38-1.47-1.68-1.57-.63-3.5.42-4.65,1.44-1.39,1.23-2.26,2.98-2.27,4.84,0,.13.85.01.86-.23h0Z"/>
                </g>
              </g>
              <g>
                <path class="st25" d="M104.19,105.34c-.09.07-.16.18-.15.3s.13.22.24.19.16-.21.06-.27"/>
                <path class="st25" d="M103.86,105.29c-.05.04-.1.09-.14.14-.04.05-.07.11-.08.17-.01.05-.02.11,0,.17s.04.11.08.15c.01.02.03.03.04.04.03.02.07.04.1.06.15.05.31.04.46,0,.08-.02.16-.05.23-.09.04-.02.08-.04.11-.07.06-.05.1-.1.13-.17.02-.04.02-.1,0-.14s-.04-.09-.08-.12c-.03-.02-.06-.04-.09-.04-.04-.01-.08-.02-.13-.01-.05,0-.11,0-.16.02-.06,0-.11.02-.16.05l-.09.04s-.09.06-.13.1l-.03.05s0,.07.03.09c.01,0,.03.02.04.03l-.03-.04s.02.05.02.08v-.05s0,.05-.02.08l.03-.05s-.02.03-.03.04l.05-.05s-.01.01-.02.02l.08-.05s-.01,0-.02.01l.09-.04s0,0-.01,0l.11-.04s-.01,0-.02,0l.11-.02s-.01,0-.02,0h.1s-.01,0-.02,0h.09s-.02,0-.03,0l.07.02s-.03-.01-.05-.02l.05.03s-.06-.05-.08-.08l.03.04s-.03-.08-.03-.13v.05s.02-.09.04-.14l-.03.05s.04-.06.07-.09l-.05.05s.03-.02.04-.03c.04-.03.1-.1.09-.16s-.1-.09-.15-.09c-.1-.01-.21,0-.3.03s-.19.07-.28.13h0Z"/>
              </g>
              <g>
                <path class="st25" d="M117.83,108.62c-.1.2-.17.44-.12.66s.27.42.49.38c.11-.01.21-.08.29-.15.17-.14.3-.33.33-.55s-.08-.46-.27-.55-.48,0-.53.22"/>
                <path class="st25" d="M117.43,108.67c-.07.15-.13.3-.14.47,0,.18.02.32.13.47.27.38.84.3,1.2.1.29-.16.58-.46.62-.8.04-.29-.09-.6-.38-.7-.25-.09-.54-.05-.78.05-.2.08-.4.22-.46.43-.02.06.03.11.08.13.08.03.19.03.27.02.11-.02.22-.05.31-.1.06-.04.14-.09.16-.16,0-.02.01-.04.02-.06l-.03.05s.02-.03.03-.05c0,0,.02-.01.02-.02,0,0-.05.05-.02.02.04-.03-.04.03-.04.02,0,0,.03-.01.03-.02,0,0-.1.04-.05.03,0,0-.12.03-.05.02.05-.01-.11.02-.06.01.04,0-.1,0-.06,0,.01,0,.05,0,0,0s-.02,0,0,0c.06.01-.06-.03,0,0,.02.01.04.02.07.03l-.05-.03c.06.04.11.09.15.16l-.03-.04c.06.1.08.2.08.32v-.05c0,.11-.04.22-.09.31l.03-.05c-.04.06-.08.12-.13.18,0,0-.05.05-.01.02s0,0-.02.01c-.03.03-.06.05-.09.07-.03.03.08-.05.01-.01-.06.03.07-.03.03-.01-.05.02.11-.03.04-.01.03-.01.07-.02.1-.02.04,0,.05,0,.02,0,.02,0,.09.01.03,0-.05,0,0,0,.02,0-.02-.02-.07-.03-.09-.04l.05.03c-.07-.05-.13-.11-.17-.18l.03.04c-.06-.1-.08-.21-.08-.32v.05c0-.17.06-.33.14-.49.03-.06-.04-.11-.08-.13-.08-.03-.19-.03-.27-.02-.18.03-.38.09-.47.26h0Z"/>
              </g>
              <g>
                <path class="st25" d="M94.21,108.55c-.11.33-.09.7.06,1.02.08.18.23.37.44.37.28,0,.43-.31.49-.58.05-.23.08-.48-.03-.7s-.4-.34-.59-.21"/>
                <path class="st25" d="M93.8,108.58c-.2.64.05,1.72.9,1.64.4-.04.72-.32.85-.69.11-.34.17-.72,0-1.05-.09-.16-.26-.28-.43-.33-.28-.09-.57-.03-.81.13-.13.09-.22.3-.05.4.18.11.42.05.59-.05-.06.04-.08.04-.04.03-.08.03-.1.03-.05.02-.08.01-.1.02-.06.01.04,0,.02,0-.05,0,0,0,.02,0,.03,0,.03,0,.01,0-.05,0,.01,0,.02,0,.04.01.03.01.02,0-.03-.01.02.02.05.03.07.04h.02s.02.03-.01,0c0,0,.09.11.09.12l-.03-.07c.04.09.07.19.07.29v-.07c0,.15-.02.31-.06.45,0,.02,0,.03-.01.05-.01.05.02-.04,0,0-.01.03-.02.06-.03.08s-.03.05-.04.08c0,.01-.02.03-.03.04,0-.02.05-.06,0-.02,0,0-.02.02-.02.03-.04.05,0-.01.02-.02,0,0-.02.02-.03.02-.05.04.07-.04.04-.02-.04.02.11-.03.05-.02,0,0,.11-.01.06-.01-.07,0,.08,0,.04,0-.04,0,.08.02.02,0-.04-.02.01,0,.02.01,0,0-.03-.02-.04-.03-.05-.03,0-.01,0,0,0,0-.03-.03-.03-.03-.05-.05-.09-.12-.12-.18l.03.07c-.08-.17-.13-.35-.14-.53v.07c0-.18.02-.36.07-.53.02-.07-.04-.16-.1-.19-.07-.05-.19-.07-.28-.06-.2.02-.39.12-.45.32h0Z"/>
              </g>
              <g>
                <path class="st25" d="M104.46,102.51c-.04.16-.09.33-.03.49s.24.28.39.21c.2-.1.12-.42-.03-.59"/>
                <path class="st25" d="M104.05,102.57c-.04.16-.09.33-.05.5.03.15.15.26.29.32.12.05.27.04.4.03s.25-.06.36-.12c.06-.03.11-.07.16-.11.05-.05.1-.11.12-.18.02-.06.02-.13.01-.19-.02-.13-.09-.26-.17-.36-.03-.02-.06-.03-.09-.04-.04-.01-.08-.01-.13-.01-.1,0-.22.03-.32.07-.08.03-.17.07-.22.14l-.03.05s0,.06.02.09c.02.02.03.04.05.06l-.03-.04c.06.1.11.21.1.33v-.05s-.01.09-.03.12l.03-.05s-.02.03-.04.05l.06-.05s-.02.02-.03.02l.08-.05s-.05.02.02,0c.04-.02.05-.02.03-.02-.03.01,0,0,.09-.03-.02,0,.13-.03.08-.02.13-.02.1,0,.07,0h.09s-.03,0-.04,0l.07.02s-.05-.02-.08-.03l.05.03c-.05-.03-.09-.07-.13-.12l.03.04c-.05-.08-.07-.18-.06-.28v.05c0-.1.03-.2.05-.29.02-.06-.02-.09-.07-.11-.08-.03-.19-.02-.26,0-.11.02-.22.05-.31.1-.06.03-.14.08-.16.15h0Z"/>
              </g>
              <g>
                <path class="st25" d="M117.47,96.22c.06.14.29.17.38.05s0-.34-.16-.35"/>
                <path class="st25" d="M117.06,96.33s.03.08.06.11.06.06.09.09c.01.01.02.02.04.03.04.02.08.04.12.06.1.03.18.04.29.04s.21-.04.3-.07c.09-.04.17-.1.23-.17s.09-.14.12-.23c.01-.05,0-.12,0-.17s-.04-.11-.06-.16c-.03-.05-.08-.1-.13-.13-.08-.06-.18-.09-.27-.1-.05,0-.11,0-.16,0-.06,0-.11.02-.16.05-.05.02-.09.05-.13.09-.04.03-.06.06-.08.11l-.02.08c0,.05,0,.1.04.15l.06.06c.05.03.11.05.17.06,0,0,.01,0,.02,0l-.09-.02s.03,0,.04.01l-.08-.04s.03.02.05.04l-.06-.06s.04.04.05.07l-.03-.07s.02.06.03.09v-.08s0,.05-.01.08l.02-.08s-.01.03-.02.05l.05-.07s-.02.02-.03.03l.07-.07s-.02.02-.03.02l.09-.05s-.02.01-.03.02l.11-.04s-.03,0-.04.01l.11-.02s-.03,0-.05,0h.11s-.03,0-.05,0l.09.02s-.04-.01-.06-.02l.08.04s-.04-.02-.05-.04l.06.06s-.03-.03-.04-.05l.03.07s0,0,0,0c0-.04-.03-.07-.06-.1-.03-.03-.07-.06-.11-.07-.05-.02-.1-.03-.15-.02-.06,0-.11,0-.16.02-.1.03-.2.08-.27.16l-.05.07s-.03.1-.02.16h0Z"/>
              </g>
              <path class="st3" d="M110.8,98.83l.87-.9c.11-.12.32-.26.39-.41.28-.25.09-.24-.57.01-.68.05-.9.09-.64.12.06.23.24.28.24.57,0,.38-.19.74-.34,1.07-.19.42-.05.78.38.97.53.23,1.14.11,1.66-.1s1.05-.42,1.57-.63c.19-.07.38-.17.57-.23.38-.12.06.05-.02-.03.58.58.88,1.28.82,2.12-.04.64.63.84,1.15.83.67-.01,1.4-.28,1.77-.87.15-.24.45-.56.6-.65.18-.11.3-.19.43-.17-.1-.02-.25-.02-.26.04-.02.06.1.3.12.36.06.23.09.48.09.72,0,.44-.05,1-.29,1.38l.78-.65-.1.04,2.01.13-.04-.05.13.48.02-.06-2.06,1.13h.05c.68.06,1.62-.22,1.96-.87s-.3-1.04-.87-1.08h-.05c-.8-.07-1.79.31-2.06,1.12-.07.22,0,.41.14.59.44.57,1.47.35,2.01.13,1.09-.44,1.38-1.71,1.36-2.77-.02-.95-.21-1.94-1.17-2.35-2.02-.87-4.58.64-5.65,2.33l2.92-.04c.09-1.49-.52-3.18-2.06-3.66-1.7-.54-3.62.59-5.17,1.2l2.04.87c.32-.69.65-1.45.5-2.23-.13-.68-.7-1.2-1.33-1.41-1.91-.64-3.25,1.05-4.41,2.26-.46.48-.29,1.08.34,1.27.69.21,1.62-.05,2.12-.57h0Z"/>
              <path class="st3" d="M96.15,116.79c-.57-.77-.96-1.89-.39-2.77.05-.08.11-.16.17-.23.47-.37.12-.3-1.05.22.11.11.35.18.48.28.37.3.62.72.86,1.12.37.62,3.2-.3,3-.8-.34-.83-.76-1.82-.38-2.71.05-.13.28-.35.29-.45l-1.39.36c.13.02.25.06.36.11.38.16.73.46.99.77.45.53,3.24-.32,3-.8-.26-.52-.51-1.05-.56-1.63-.02-.27,0-.52.11-.77.05-.12.11-.23.19-.33.24-.21.16-.19-.22.06l-1.17.27c.25-.03.78.78.93,1.03.4.68,3.21-.42,3-.8-.61-1.08-.38-2.23.35-3.17.01-.01.19-.15.19-.17,0,0-.67.16-.66.19,0,0,.57.13.64.16.58.23,1.03.65,1.31,1.2.35.69,3.21-.39,3-.8-1.1-2.14-3.91-1.96-5.82-1.14-1.75.75-3.04,2.69-1.99,4.54l3-.8c-.35-.59-.79-1.15-1.48-1.33-.92-.24-2.06.08-2.9.47-.67.32-1.24.81-1.41,1.56-.18.81.16,1.58.51,2.29l3-.8c-1.28-1.51-3.14-1.48-4.87-.68-1.84.85-1.66,2.57-1,4.2l3-.8c-.39-.66-.85-1.36-1.6-1.63-1.02-.38-2.31-.04-3.27.38-.73.32-1.49.83-1.75,1.63-.3.92,0,1.85.54,2.6.51.69,3.19-.54,3-.8h0Z"/>
              <path class="st3" d="M114.81,112.36c.32-.09.62-.22.94-.32s.01-.08-.25-.03c-.16-.12-.18-.11-.04.03-.02.02-.01.04,0,.06-.03.21-.05.4-.11.6-.29.99-.71,1.95-1.06,2.92-.21.58.1.95.7,1.06.69.12,1.44-.12,1.95-.6.79-.75,1.7-1.43,2.67-1.9.17-.08.31-.11.07-.09s-.08,0,.01.22c.19.44-.02.98-.18,1.4-.22.58.11.95.7,1.06.68.12,1.45-.11,1.95-.6.52-.51,1.28-1.27,1.87-1.5l-.8.21c-.64.12-.43-.24-.26.02.07.11.17.2.25.31.17.23.34.47.43.75s.06.44.07.7c0,.08-.08.08-.07.09l.27-.17c.92.04,1.17,0,.77-.15-.65-.27-1.66.08-2.12.57-.5.53-.26,1.02.34,1.27,1.21.5,2.81-.18,3.52-1.21.65-.96.26-2.08-.35-2.95-.82-1.17-2.16-1.51-3.48-.89-1.08.52-2.06,1.42-2.91,2.25l2.64.46c.31-.81.65-1.69.3-2.55-.44-1.06-1.61-1.36-2.66-1.22-1.13.15-2.14.73-3.09,1.33-.86.54-1.66,1.19-2.4,1.89l2.64.46c.28-.77.57-1.54.85-2.31.25-.68.59-1.37.49-2.12-.11-.82-.91-1.25-1.67-1.33-.9-.09-1.72.27-2.46.48-.52.15-1.44.62-1.26,1.3s1.24.64,1.74.5h0Z"/>
            </g>
          </g>
        </g>
        <g class="st17">
          <g>
            <g>
              <path class="st6" d="M151.11,121.44c8.23-1.96,15.64-7.17,20.28-14.24-3.45,1.95-7.39,2.8-11.19,3.92-3.8,1.12-7.66,2.64-10.34,5.56,4.02-4.71,8.13-9.51,13.39-12.78-6.24.02-12.41,2.95-16.37,7.78-2.58,3.15-4.31,7.1-7.61,9.51"/>
              <path class="st6" d="M151.18,121.69c8.57-2.1,16.2-7.29,21.09-14.66.2-.31-1.42.08-1.55.16-6.94,3.84-15.91,3.49-21.65,9.57l1.68-.24c3.95-4.64,7.99-9.32,13.19-12.61.26-.16.27-.36-.09-.35-5.17.07-10.3,1.79-14.4,4.96-2.13,1.64-3.79,3.68-5.29,5.89-1.67,2.47-3.24,5.04-5.66,6.86-.33.25.3.25.41.25.39,0,.89-.18,1.2-.42,3.84-2.9,5.57-7.59,8.91-10.95,3.63-3.65,8.51-5.84,13.67-5.91l-.09-.35c-5.36,3.39-9.52,8.17-13.59,12.95-.19.22.58.16.59.16.32-.03.85-.15,1.09-.4,5.57-5.89,14.6-5.63,21.4-9.39l-1.55.16c-4.53,6.82-11.5,11.88-19.47,13.83-1.03.25-.92.75.13.5h0Z"/>
            </g>
            <g>
              <path class="st14" d="M141.36,120.75c5.6-6.51,5.63-16.12,8.42-21.44-2.24,2.02-4.29,4.28-5.89,6.84-1.53,2.45-2.57,5.28-3.95,7.82-2.43,4.46-5.46,9.69-8.72,13.58"/>
              <path class="st14" d="M142.17,120.72c2.7-3.2,4.18-7.11,5.28-11.1.96-3.49,1.55-7.21,3.21-10.45.27-.54-1.52,0-1.7.16-2.07,1.89-3.99,3.95-5.54,6.3-1.52,2.3-2.54,4.86-3.77,7.31-2.56,5.12-5.6,10.22-9.26,14.62-.43.51,1.32.33,1.64-.05,3.55-4.27,6.41-9.17,9-14.07,1.34-2.54,2.35-5.27,3.91-7.69,1.57-2.42,3.53-4.54,5.66-6.48l-1.7.16c-1.61,3.14-2.2,6.73-3.12,10.1-1.09,4.03-2.52,8-5.24,11.23-.43.51,1.31.33,1.64-.05h0Z"/>
            </g>
            <path class="st23" d="M169.6,108.54c-4.73,8.25-15.95,6.77-22.96,11.87,6.13-6.61,17.05-4.92,22.96-11.87h0Z"/>
            <path class="st23" d="M160.89,104.47c-6.93,4.05-12,10.25-16.55,16.77,2.98-7.34,8.83-14.3,16.55-16.77h0Z"/>
            <path class="st23" d="M149.78,99.31c-4.11,7.54-5.62,16.73-11.96,22.92,4.92-7.14,6.38-16.2,11.96-22.92h0Z"/>
          </g>
        </g>
        <g class="st18">
          <g>
            <g>
              <path class="st5" d="M138.55,122.14c2.4-2.52,4.74-6.91,5.05-10.37.08-.89-.18-2.1-1.07-2.14-.36-.02-.69.18-1,.37-.97.61-1.94,1.21-2.92,1.82.21-4.29-.2-8.61-1.22-12.78-.29-1.2-.66-2.43-1.5-3.33s-2.28-1.36-3.34-.72c-.85.52-1.21,1.55-1.5,2.49-.81,2.61-1.63,5.23-2.44,7.84-.06-2.66-.87-5.3-2.3-7.55-.32-.5-.69-1-1.23-1.24-.86-.37-1.89.05-2.51.75s-.91,1.62-1.19,2.52c-1.08-.66-1.95-1.64-3.01-2.33s-2.5-1.08-3.59-.43c-.95.57-1.37,1.78-1.29,2.88.08,1.11.55,2.14,1.02,3.15,1.45,3.12,2.9,6.23,4.35,9.35-1.59-1.93-3.83-3.32-6.26-3.88-.78-.18-1.61-.28-2.36-.02-1.68.57-2.34,2.77-1.79,4.46.56,1.69,1.98,2.93,3.43,3.95,6.68,4.71,15.33,6.53,23.35,4.91"/>
              <path class="st5" d="M138.76,122.12c2.42-2.59,4.35-6.04,4.96-9.56.17-.96.36-2.94-1.06-3.03-.34-.02-.7.13-.99.27-1.12.55-2.17,1.34-3.23,2l.42-.06c.14-3.34-.05-6.69-.63-9.98-.41-2.35-.79-6.2-3.52-7.04-1.34-.42-2.66.16-3.32,1.38-.69,1.26-.98,2.81-1.41,4.17-.53,1.69-1.05,3.38-1.58,5.07l.47-.11c-.07-1.76-.4-3.48-1.06-5.12-.47-1.17-1.21-3.13-2.49-3.68-2.23-.96-3.64,1.74-4.16,3.39l.46-.12c-1.67-1.09-3.09-3.02-5.24-3.1-1.3-.05-2.45.62-2.9,1.86-.77,2.1.68,4.37,1.54,6.21,1.21,2.6,2.42,5.19,3.63,7.79l.46-.14c-1.85-2.16-4.95-4.25-7.94-4.06-2.19.14-3.45,2.21-3.04,4.3.6,3.06,4.19,5.02,6.69,6.35,2.96,1.57,6.18,2.64,9.48,3.18,3.62.59,7.32.51,10.92-.19.18-.04.42-.23.09-.16-7.32,1.43-15.08.08-21.46-3.79-2.52-1.53-6.25-4.06-5.13-7.53,1.51-4.66,8.11-.09,9.95,2.07.06.07.49-.07.46-.14-1.64-3.53-3.56-7.05-4.93-10.69-.7-1.85-.77-5.26,2.42-4.79,1.8.27,3.13,2.05,4.58,3,.08.05.42-.02.46-.12.39-1.23,1.13-3.62,2.95-3.24,1.14.24,1.77,1.66,2.25,2.6.98,1.96,1.49,4.09,1.57,6.27,0,.09.44-.02.47-.11.77-2.46,1.53-4.92,2.3-7.38.26-.84.54-2.24,1.36-2.74s1.9-.35,2.65.18c.57.4.98.99,1.28,1.61,1.03,2.12,1.32,4.77,1.62,7.07.33,2.61.42,5.23.31,7.86,0,.09.38-.04.42-.06.76-.48,1.53-.95,2.29-1.43.41-.26,1.21-.73,1.73-.5.29.13.45.71.51,1,.26,1.27-.22,2.73-.63,3.92-.91,2.7-2.42,5.26-4.36,7.35-.09.1.35.04.43-.04h0Z"/>
            </g>
            <path class="st22" d="M136.38,120.75c2.86-2.59,5.24-5.67,7.01-9.1.07-.14-.33-.08-.37-.07-.15.03-.48.09-.56.25-1.75,3.39-4.1,6.45-6.93,9.01-.16.14.14.14.22.13.2-.01.48-.08.63-.22h0Z"/>
            <path class="st22" d="M133.13,119.6c1.66-7.9,2.42-15.96,1.12-23.97-.04-.27-1-.06-.95.25,1.3,7.97.54,16-1.11,23.85-.06.3.88.15.94-.14h0Z"/>
            <path class="st22" d="M129.82,121.42c-.48-3.59-.59-7.21-1.17-10.79-.73-4.52-2.33-8.79-4.34-12.9-.12-.24-1.03.08-.95.25,2.01,4.1,3.61,8.37,4.34,12.9.58,3.57.69,7.2,1.17,10.79.03.2.98,0,.95-.25h0Z"/>
            <path class="st22" d="M128.68,121.42c-3.83-7.97-7.49-16.16-13.4-22.85-.29-.33-1.19.06-.86.42,5.87,6.64,9.52,14.77,13.32,22.68.2.42,1.14.15.95-.25h0Z"/>
            <path class="st22" d="M119.78,118.55c-2.61-3.35-6.32-5.53-9.56-8.18-.27-.22-1.15.15-.88.38,3.24,2.66,6.95,4.83,9.56,8.18.21.27,1.12-.06.88-.38h0Z"/>
          </g>
        </g>
      </g>
    </g>
  </g>
</svg>