<?xml version="1.0" encoding="UTF-8"?>
<svg id="Layer_1" xmlns="http://www.w3.org/2000/svg" xmlns:xlink="http://www.w3.org/1999/xlink" version="1.1" viewBox="0 0 159.23 221.82">
  <!-- Generator: Adobe Illustrator 29.0.0, SVG Export Plug-In . SVG Version: 2.1.0 Build 186)  -->
  <defs>
    <style>
      .st0 {
        fill: none;
      }

      .st1 {
        fill: #f1bac2;
      }

      .st2 {
        fill: #5b534d;
      }

      .st3 {
        fill: #fbefe2;
      }

      .st4 {
        fill: #827c74;
      }

      .st5 {
        fill: #f6e7d5;
      }

      .st6 {
        clip-path: url(#clippath-1);
      }

      .st7 {
        opacity: .35;
      }

      .st8 {
        fill: #fefefe;
      }

      .st9 {
        fill: #201c18;
      }

      .st10 {
        fill: #130e0c;
      }

      .st11 {
        fill: #433e3a;
      }

      .st12 {
        fill: #d73a51;
      }

      .st13 {
        fill: #c7cbcb;
      }

      .st14 {
        fill: #312c29;
      }

      .st15 {
        clip-path: url(#clippath);
      }
    </style>
    <clipPath id="clippath">
      <rect class="st0" x="180.44" y="17.32" width="16.57" height="13.74"/>
    </clipPath>
    <clipPath id="clippath-1">
      <rect class="st0" x=".35" y="11.3" width="37.23" height="130.95" transform="translate(37.92 153.54) rotate(-180)"/>
    </clipPath>
  </defs>
  <g class="st15">
    <path class="st3" d="M160.34,27.33c-.26-.35-.37-.72-.29-1.16.15-.81,1.05-.84,1.73-.8,1,.06,1.84.19,2.83-.09,1.87-.53,3.32-1.85,4.87-2.95,2.25-1.61,4.5-1.65,7.07-.77,2.1.72,4.06,1.77,6.24,2.25,2.01.44,4.07.54,6.09.84,1.06.16,2.11.38,3.11.76.28.1.73.17.9.41.1.14.1,1.07-.14,1.25-.27.21-1.57.04-1.87.04-4.73.04-9.46.05-14.19.16-2.78.06-5.55.16-8.33.33s-5.6.79-8.19.02c-.59-.17-1.71.69-.85.94,2.57.76,5.29.28,7.92.11,3.18-.2,6.36-.32,9.55-.39s6.21-.1,9.32-.12c1.39-.01,2.78-.02,4.17-.03,1.11,0,2.45.17,3.48-.37.71-.37,1.32-1.15.98-1.97s-1.53-1.2-2.31-1.46c-2.56-.85-5.29-.86-7.93-1.3-5.04-.83-9.87-5.02-14.96-1.99-1.24.74-2.29,1.73-3.51,2.5-.87.55-1.83,1-2.89.95-.64-.03-1.26-.23-1.9-.22-1.89.03-3.54,1.94-2.24,3.69.37.5,1.76-.05,1.33-.63h0Z"/>
  </g>
  <g>
    <rect class="st1" x=".21" y="0" width="158.8" height="221.82"/>
    <g class="st7">
      <path class="st12" d="M113.88,108.39c7.05-4.09,12.07-11.37,14.1-19.27,1.42-5.52,1.34-11.36.36-16.97-1.25-7.18-3.94-14.05-7.15-20.6-4.05-8.28-9.21-16.42-16.97-21.4-5.83-3.75-12.73-5.44-19.55-6.71-9.71-1.8-20.2-2.75-29.04,1.64-7.32,3.63-12.55,10.5-16.29,17.77-5.07,9.86-7.9,21.1-6.61,32.12s7.01,21.73,16.29,27.81c0,0,30.47,25.55,64.85,5.61Z"/>
    </g>
    <g class="st6">
      <g>
        <g>
          <path class="st3" d="M20.51,25.09c3.66.37,7.32.73,10.98,1.1.61.06,1.23.13,1.75.45.75.45,1.11,1.32,1.44,2.13.19.48.38,1.02.19,1.5-.26.62-1.02.93-1.7.92-9.76-.16-35.73,1.15-38.85-.46l-.6-.61c-.71-.66-.53-1.92.16-2.6s1.71-.9,2.68-.96,1.96.01,2.9-.22c2.54-.62,4.06-3.17,6.23-4.64,1.96-1.33,4.53-1.73,6.8-1.06,1.83.54,3.4,1.71,5.03,2.72,2.33,1.45,4.87,2.6,7.57,3.12"/>
          <path class="st3" d="M20.22,25.63c2.15.22,4.3.43,6.45.65l3.1.31c1.17.12,2.6.02,3.4,1.02.28.35.47.79.64,1.21.07.16.18.37.21.54.07.46-.24,1.08-.75,1.29-.34.14-1.06,0-1.42-.01-1.05,0-2.1,0-3.16.02-5.42.06-10.84.22-16.26.3-4.84.07-9.73.21-14.57-.18-.69-.06-1.38-.11-2.06-.24s-.8-.17-1.19-.59c-.59-.62-.72-1.38-.15-2.08.71-.87,2.03-.77,3.06-.8,1.66-.05,3.12-.4,4.49-1.38,1.47-1.05,2.58-2.52,4.06-3.56,1.98-1.39,4.5-1.6,6.73-.71,2,.8,3.71,2.23,5.61,3.26s4.04,1.87,6.22,2.32c.63.13,1.89-.81.94-1.01-2.36-.49-4.59-1.4-6.67-2.61-1.83-1.06-3.52-2.41-5.53-3.11-3.92-1.36-7.55.28-10.37,2.99-.68.66-1.36,1.35-2.15,1.88-1.12.74-2.26.82-3.56.86-1.58.05-3.56.34-4.44,1.84-1.18,2.02.64,3.46,2.43,3.77,4.92.85,10.18.5,15.14.44,6.37-.07,12.74-.28,19.12-.33,1.3-.01,2.73.16,4.02-.03.76-.12,1.62-.5,2-1.21.49-.9-.02-1.95-.44-2.79-1.1-2.17-3.32-2.04-5.47-2.25-2.95-.3-5.89-.59-8.84-.89-.73-.07-1.65.97-.57,1.08h0Z"/>
        </g>
        <g>
          <path class="st5" d="M1.59,30.9c4.03-1.43,8.45-.91,12.71-1.23,3-.23,5.96-.89,8.96-1.18,3-.29,6.12-.19,8.88,1.03-2.23,1.2-4.9,1.09-7.44,1.05-3.34-.05-6.68.08-10.01.2-3.69.14-7.38.29-11.07.43"/>
          <path class="st5" d="M2.18,31.4c2.34-.79,4.88-.78,7.32-.82s4.76-.15,7.14-.47c4.74-.65,9.6-1.83,14.2.11l.34-1.03c-1.88.94-4.27.63-6.3.61-2.23-.02-4.45.03-6.67.1-4.64.16-9.29.36-13.93.54-.6.02-1.8.22-2.12.81s.28.74.81.72c5.28-.21,10.56-.46,15.84-.6,4.74-.12,9.91.69,14.29-1.52.38-.19,1.01-.75.34-1.03-5.06-2.13-10.57-1-15.8-.25-5.56.8-11.23,0-16.63,1.82-.37.12-1.3.59-.9,1.09s1.66.06,2.08-.08h0Z"/>
        </g>
      </g>
    </g>
    <g>
      <g>
        <path class="st3" d="M120.66,27.74c4.4.44,8.8.88,13.2,1.32.73.07,1.48.15,2.11.54.9.55,1.34,1.59,1.73,2.56.23.58.46,1.23.22,1.8-.31.75-1.23,1.12-2.04,1.11-11.73-.19-42.93,1.39-46.67-.56l-.73-.73c-.86-.79-.64-2.3.19-3.12s2.06-1.09,3.22-1.16,2.35.01,3.48-.26c3.05-.74,4.88-3.81,7.48-5.57,2.36-1.6,5.44-2.08,8.17-1.27,2.2.65,4.09,2.06,6.04,3.27,2.8,1.74,5.86,3.13,9.09,3.75"/>
        <path class="st3" d="M120.32,28.39c2.77.28,5.54.56,8.31.83l3.67.37c1.24.12,2.69.05,3.55,1.11.51.62,1.36,2.16,1.2,3-.19.98-1.48.71-2.21.71-1.23,0-2.47,0-3.7.01-6.54.06-13.08.25-19.61.35-5.92.09-11.9.25-17.81-.19-.88-.07-1.77-.14-2.64-.3-.69-.13-1.01-.21-1.35-.55-.57-.56-.97-1.12-.74-1.98.39-1.43,1.99-1.58,3.24-1.63,2.15-.09,4.01-.23,5.86-1.44s3.27-3.1,5.1-4.43c2.29-1.66,5.25-2.02,7.89-1.06s4.72,2.78,7.11,4.06,4.81,2.22,7.41,2.76c.44.09,1.06.03,1.36-.36.23-.31.24-.75-.23-.85-2.76-.57-5.36-1.62-7.8-3.01-2.29-1.31-4.4-3.02-6.92-3.88-2.3-.78-4.84-.73-7.13.05s-3.91,2.25-5.58,3.86c-.81.78-1.63,1.59-2.6,2.18-1.34.81-2.76.76-4.27.82-2.01.08-4.61.66-5.31,2.84-.8,2.49,1.55,3.64,3.53,3.94,2.51.39,5.09.42,7.63.47,3.62.07,7.24.05,10.86,0,7.47-.09,14.94-.33,22.42-.39,1.57-.01,3.3.21,4.84-.05.91-.15,1.91-.62,2.36-1.48.55-1.05-.05-2.28-.52-3.25-1.28-2.63-3.89-2.5-6.47-2.76-3.58-.36-7.17-.72-10.75-1.08-.88-.09-1.98,1.16-.69,1.29h0Z"/>
      </g>
      <g>
        <path class="st5" d="M97.93,34.73c4.84-1.71,10.15-1.09,15.27-1.48,3.61-.28,7.16-1.07,10.76-1.41,3.6-.35,7.35-.22,10.66,1.24-2.68,1.45-5.89,1.31-8.93,1.26-4.01-.07-8.02.09-12.03.25-4.43.17-8.87.34-13.3.52"/>
        <path class="st5" d="M98.64,35.33c2.66-.9,5.54-.93,8.31-.98,3.01-.06,6-.16,8.99-.56,5.7-.78,11.6-2.23,17.14.12l.41-1.24c-2.04,1.04-4.58.78-6.79.74-2.8-.05-5.59,0-8.39.1-5.72.19-11.43.44-17.15.66-.76.03-2.1.27-2.55.98s.39.89.97.87c6.36-.25,12.72-.55,19.08-.72,5.66-.15,11.89.84,17.12-1.82.46-.23,1.21-.89.41-1.24-6.13-2.6-12.82-1.18-19.15-.28s-13.38-.02-19.8,2.16c-.44.15-1.56.71-1.09,1.3.47.58,1.99.08,2.5-.09h0Z"/>
      </g>
    </g>
    <g>
      <path class="st8" d="M124,26.67c-.23.07-.58-.09-.75.25-.08,0-.17,0-.25,0-.53,0-1.76.58-2.33.82-.39.16-.81.06-.68.69-.46-.09-.6.22-.75.25-1.7.41-2.85,1.52-4.3,2.36-1.58.92-3.29,1.9-4.79,2.73-.45.25-.69.34-.71.94-.27,0-.42.23-.5.25-1.34.32-2.24,1.31-3.77,1.76-2.93.87-6.26.98-9.35,1.83-7.06,1.94-12.9,4.87-18.08,10.07-.28.28-.66.18-.46.92-.02,0-.06.16-.25.25-.35.18-.78.01-.75.75l-2.26,3.02c-.63.13-.99.49-1.51.75-.09.05-.16.2-.25.25-.5.28-.77.44-1.26.75-.64.41-.46.48-.5.5-1.21.79-2.55,1.65-4.02,1.76.01.16-.02.34,0,.5l-5.73,1.31-.05.45c-1.17-.04-2.37.08-3.52.25-8.19,1.19-16.96,1.69-24.97,3.06-1.32.22-4.05.55-1.76,1.94,1.19.72,2.2.6,3.37.9,8.4,2.15,16.98,3.98,25.12,6.93-.03.33.04.68,0,1.01-.02.2-.24.43-.25,1.01,0,.17,0,.34,0,.5h-.5c-.1.27.24.47.25.5.06.44,0,1.04,0,1.51h-.5c-.03.24.03.51,0,.75s.03.51,0,.75c-.08.65-.68,1.85,0,2.51-.05.3.07.74,0,1.01-.43,1.66-1.44,2.12-1.88,3.03-.18.37-.08.91-.13.99-.01.02-.37-.06-.42.07l-.58,1.44c-.83.14-1.3,1.28-1.76,2.01-.57.7-.95,1.55-1.51,2.26-.04.05-.38.27-.75.75-.35.45-.89.66-.75,1.51l-.48.03c-.1.1.02.4-.02.48-1.18,2.03-2.78,3.59-3.27,6.03-.11.03-.31-.07-.44.05-.2.48-.62.83-.87,1.28-.49.89-.92,2.38-1.46,3.19-.13.2-.4.61-.5.75-.23.31-.23-.21-.75,1.01-.2.48-.6.86-.5,1.51v.25c-.3.04-1.18,1.22-1.35,1.54-.34.62-.47,1.64-.66,1.98-.09.17-.16.34-.25.5-.35.67-1.32,1.51-1.69,2.45-.24.6-.4,1.17-.32,1.82-.1.09-.14.38-.25.5-.35.4-.96,1.27-1.01,1.76-.02.2-.06.6.04.72.14.11.39,0,.47.03.14.07.25.31.5.26l-.23,1.23c.51.32.71.07.99.02,1.21-.22.58-.4.75-.5.08-.05,1.41-.03,1.97-.17,6.09-1.57,22.52-13.54,26.79-18.44,1-1.15,1.62-1.26,2.66-2.25.45.54,1.62-.94,1.9-1.24s.28-.81.43-.95c.69-.64.29.08.94-1.07.25-.44.48-.74.75-1.26.33-.17.66-.31,1.01-.5.46-.25.9-.29,1.27-.88.26-.42.16-.72.24-.88.03-.07-.03-.18,0-.25h.75c.08-.23-.06-.6,0-.75.05-.12.47-.96.5-1.01.03-.03.22-.14.5-.5.06-.08.37-.25.75-.75.11-.14.15-.37.25-.5.31-.4.68-.84,1.01-1.26.24-.31.39-.61.5-.75.03-.04.15-.04.5-.5.24-.31.52-.7.75-1.01.37-.48.64-.74,1.01-1.26.77-1.08,1.28-1.95,2.01-3.02.12-.18.61-.35.86-.77.19-.31,1.28-2.87.14-2.75,0-.08.01-.17,0-.25-.01-.08-.24-.19-.25-.25-.04-.23.06-.56,0-.75l4.89.51c8.95-.17,17.15-2.44,25.77-4.03.23-.04.52.04.75,0,.88.14,1.55,1.3,2.28,1.62.87.38,1.98.12,2.63,1.14.55.13.84-1.12.87-1.5.07-.89-.42-2.79-1.51-2.76-.14,0-.29.09-.25.25-.1-.06-.17-.2-.25-.25-.2-.12-.29-.16-.5-.25-.17-.07-.34-.17-.5-.25-1.55-.77-.77-.44-1.76-1.51-.45-.48-.4-.3-.75-.5-.17-.1-.39-.47-.5-.5.15-.85-.09-1.49-.25-2.26-1.2-5.85-7.48-5.63-12.12-7.11-2.13-.68-4-1.65-4.16-4.14-.19-3,2.18-4.49,2.45-6.09.64-.31.79-.64,1.01-1.26.62-.06.97-.45,1.51-.75.45-.25,1.39-.29,1.26-1.01.08-.02.18.02.25,0,.81-.27,1.67-.51,2.48-.79l.03-.46c.21-.05.54.05.75,0,.66-.17,1.3-.42,1.98-.54l.03-.47c1.18-.28,2.54-.47,3.77-.75.67.55,1.85-.4,2.75-.27v-.48c.32-.02.72-.03,1.02,0,.15.02.58.46,1,.25v-.5c.17,0,.34,0,.5,0,.07,0,.33.36.85.02.28-.08.1-.42.15-.52,1.16-.37,1.42-.28,2.01-1.51.69.14.73-.21,1.06-.57,1.21-1.27,4.06-4.46,4.12-6.13.04-.94-.6-3.74-1.06-4.59s-2.15-2.47-3.12-2.54v-.5c-.65-.18-1.05.12-1.51.25Z"/>
      <path class="st4" d="M93.09,47.53c2.69-.79,2.8-.33,5.39-.24.38.01.83-.24,1.27-.27.68-.04,1.14.59,1.88-.25l1.34,1,.17.76v.25c-.34.37,0,.95,0,1.01-.27,1.61-2.64,3.09-2.45,6.09.16,2.49,2.02,3.46,4.16,4.14,4.64,1.48,10.92,1.26,12.12,7.11l-1.21.19-.4-.5c-1.49-.1-2.19-.44-3.67-.2-.5.08-.71.02-1.26.25v-.5s-.77.12-.77.12c-.25.56-1.02.84-.99,1.39-.23,0-.55.04-.75,0-.04,0-.22-.37-.5-.25v.5s-.76.63-.76.63c.06.19.46.3.5.38.09.17.17.34.25.5.04.08-.1.37.03.46l.97.29c-.23.08-.13.52-1.26.5l-1.51-2.51-.49.19-.06.5-.96.32-.26-1.01-1.25.75-.25-1.51v2.26s-.51-1.51-.51-1.51l-.25,2.01-1-1.51c-.22,1.21.42,2.49.27,3.66-.05.37-.94.65-.53,1.62l-.5-.5-.13.77c-1.72-.36-2.77.42-4.15-.89-.76-.72-2.76-3.15-2.95-4.09-.12-.6-.05-1.22-.06-1.83-1.72-.19-7.4.3-8.16,2.02-.53,1.19.12,3.47.12,4.77-.5-.97-1.04-1.35-1.19-2.71-.13-1.12.7-2.74-.56-2.83l-.25.75v-1.61s-1.26-.14-1.26-.14l-.43-.08-.07-.68-.86.26c-.3-.94-.91-.58-1.33-.84s.06-.69-1.32-.68c-.08,0-.17,0-.25,0-.33-1.07-2.28-1.58-3.27-2.01-.45-.2-1.18-.21-1.26-.25-.02-.01.04-.37-.07-.42-.44-.2-1.08-.2-1.37-.41-.54-.4-.34-1.38-1.83-.68l.65-.75.85.25-.75-1,1.26.25-.25-.75c.98-.09,1.98.37,2.93.41.23,0,1.13-.01,1.09-.41l-5.78-1.01,1.76-.25c.05-.25-.94-.74-1-.75.33-.44.88-.52,1.32-.76.47-.26.64-.46,1.44-.75.21-.08.6-.11,1.01-.25,1.28-.44,1.75-.58,2.81-1.6.3-.29.65-.18.46-.92.85-.32,3.57-1.27,4.02-2.01.4-.04.87.06,1.26,0l.5.25v-.5c.25-.02.51,0,.76,0,.1,0,.38,0,.5,0,.25,0,.5-.01.75,0,.1,0,.35.23.64.24.55.02,1.07-.43,1.63-.12l.25.38-.75.5,1.51-.25v-.75s-.76-.5-.76-.5c.08,0,.17,0,.25,0,.75-.01,2.21-.39,2.26-1.26h.75s0-1.01,0-1.01c.08-.01.17.01.25,0,.16-.02.34.03.5,0v-.5c.57-.21,1.05-.55,1.76-.75ZM101.88,47.79h-.75v.5h.75v-.5Z"/>
      <polygon class="st4" points="103.14 48.54 103.65 48.66 103.14 48.79 103.14 48.54"/>
      <path class="st13" d="M57.15,60.1l-.25.5h-.75s0,1.01,0,1.01l-1.25-.75.38,1.27h1.23c.5.94,1.36.9,2.29,1.25l.38-.76.51,1.25c-.84-.15-4.22.95-4.91,1.5s-1.1,2.37-1.12,3.28l1-.5.91,1.48,1.23-.73.15.73.86.04.13-.76c1.14.5,1.6-.04,2.51-.5-.03.13,0,.34,0,.5v.5c-.18.03-.42-.11-.53.15-.26.42-.13,1-.23,1.36s-.22,1.2-.25,1.26c-.09.15-.38-.45-.5.75-8.14-2.95-16.72-4.78-25.12-6.93-1.17-.3-2.18-.19-3.37-.9-2.29-1.38.45-1.71,1.76-1.94,8.01-1.36,16.78-1.87,24.97-3.06Z"/>
      <path class="st13" d="M84.54,74.43c0-1.3-.65-3.58-.12-4.77.77-1.72,6.45-2.21,8.16-2.02,0,.61-.06,1.22.06,1.83.19.94,2.19,3.37,2.95,4.09,1.38,1.3,2.43.52,4.15.89l.13-.77.5.5c-.41-.97.48-1.25.53-1.62.15-1.16-.49-2.44-.27-3.66l1,1.51.25-2.01.5,1.51v-2.26s.26,1.51.26,1.51l1.25-.75.26,1.01.96-.32.06-.5.49-.19,1.51,2.51c-1.1-.02-.6-.33-1.15-.73-.92-.65-4.97.35-3.12,2.23l.25-.5,1.66.94,6.96-.19c-.08-.62,2.56-.46,2.68-.38.43.28-.17.33,1,.64.16.04.43.37.75.25.11.33,0,.55.5.75-8.62,1.59-16.83,3.86-25.77,4.03l-4.89-.51c-.05-.17-.19-.33-.25-.5-.38-1.03-.78-1.59-1.26-2.51Z"/>
      <path class="st13" d="M105.15,36.73c.38.32.82.06.62.75.89-.42,2.02.19,3,.23.8.04,1.91-.57,2.92.03l-.5.75c-2.4.03-6.04.12-8.29.75-.19.05-.41,0-.5.25-.27-.04-.72-.02-1.01,0-1.38.12-3.53.87-4.78,1.51-.61-.03-.79.14-1.26.25-.41.1-.82.19-1.23.29l-.03.47c-.23.04-.53-.05-.75,0-1,.21-1.51.63-2.24.86-2.74.85-7.59,1.81-9.83,3.55-.24.19-.22.59-.25.62-1.38,1.09-2.22,1.81-3.77,2.51-.19-.74.18-.63.46-.92,5.18-5.21,11.02-8.13,18.08-10.07,3.1-.85,6.42-.96,9.35-1.83Z"/>
      <path class="st11" d="M119.23,41c.42,1.47,1.48,1.09,2.51,1.51-.1.05-.18.17-.25.25-.17,0-.34,0-.5,0-.32-.02-.84-.11-1.01.25-.3-.03-.7-.02-1.01,0-1.05.06-1.87.55-2.76.75-1.23.28-2.59.47-3.77.75-.67.16-1.3.42-1.98.54l-.03.47c-.21.05-.54-.05-.75,0-.85.22-1.63.59-2.48.79l-.03.46c-.07.02-.17-.02-.25,0-.63.17-1.19.2-1.26,1.01-.54.3-.88.7-1.51.75.25-.73-.08-1.63.36-2.01.9-.17,1.39-1.2,1.86-1.49,1.73-1.1,4.16-1.55,6.08-2.28.04-.43-.99-.27-1.25-.25l-.13-.25h-.63s0,.5,0,.5c-.16.03-.35-.03-.5,0l-.13-.25-.37.25c.02.19.02.4-.18.49-1.19.54-3.06,1.14-4.34,1.52v-.25c.34-.33.75-.63,1.01-1-1.01-.01-1.68.78-2.19,1.51h-.94s-.15-.63-.15-.63c1.05-.31,1.53-1.05,2.27-1.63.6-.48,2.46-1.2,3.19-1.21.37,0,.62.46,1.18.45.67-.01,1.21-.62,1.8-.74.74-.15,2.02-.17,2.88-.26l-.5,1.01c-.08,0-.17-.01-.25,0l-.13-.25-.13.25-.25.5,2.01-.5c-.17-.02-.34.01-.5,0l.25-1.01c1.88-.2,2.88-.37,4.78,0ZM118.97,41.25l-.75-.13.38.38h.37v-.25ZM106.28,43.26v.25c.16-.08.16-.17,0-.25Z"/>
      <path class="st9" d="M75.24,95.54c-.34.19-.68.33-1.01.5-.27.52-.51.82-.75,1.26-1.37.79-2.2,2.26-3.27,3.27-1.04.99-1.66,1.1-2.66,2.25-4.27,4.9-20.7,16.87-26.79,18.44-.55.14-1.88.12-1.97.17v-.25c2.8-1.26,5.92-2.87,8.53-4.42,1.32-.78,2.7-2.16,4.04-2.87.61-.32,1.35-.72,2.1-.72.3-1.05,1-1.35,1.92-1.79s2.1-.27,2.26-1.76c.09-.06.16-.19.25-.25l.14.24c.38.22,1.24-.61,1.11-.74h-.5c.33-.22.63-.52,1.01-.76.14-.09.51-.17,1.01-.5.29-.19.32-.3.5-.5.21-.23.86-.45.99-1.34.12-.22.4-.12.51-.17.51-.22.36.02,1.01-.5,1.27-1.04,2.59-2.42,3.98-3.05.17-.19-.03-.9.04-1.22.71-.05,1.99-.66,2.37-1.27.13-.21.11-.45.15-.49,1.14-.38,1.64-.25,2.08-1.71l.65-.07.03-.99.37.5c.29-.75.54-.57.88-.75.13-.24.06-.72.32-.94.18-.15.68-.14.94-.31l-.25.75Z"/>
      <path class="st9" d="M77.25,90.76h.5s-.25.75-.25.75c-.21-.04-.51.02-.75,0-.03,0-.14-.25-.33-.21-.07.01-.82.53-1.18.71-.04.13.04.36,0,.5.32-.09.71-.14,1.01-.25.1-.26-.15-.63.5-.5l-.06.45c-.11.11-.35.02-.45.05-.8,2.05-4.23,4.19-5.67,6.02-.26.33-.28.65-.36.76-.67.23-1.32.35-2.01.75l-.5-.5c.74-.5,1.26-.59,1.51-1.51.88-.53,1.83-1.13,2.71-1.82.12-.17.02-.38.05-.44,1.12-.69,2.84-1.61,3.27-3.02-.14.04-.4-.08-.57,0-.34.14-.14.67-.94.76-.25.43-.28.94-.77,1.37-.6.53-.54-.03-.99.89-.97.59-1.53,1.43-2.76,1.76.07-.27.17-.5.25-.75l1.95-1.07.25-.61c.02-.21-.17-.28-.19-.33-.05-.17.15-.73-.37-.5-.19.08-.48.53-.79.72-1.19.7-1.33.82-2.61,1.04-.08.01-.17-.01-.25,0l-.21-.97.46-.03c.3.56.43.6,1.05.44.78-.21,2.15-1.24,2.39-1.94l2.08-1.01v-.5s.5,0,.5,0v.5s-.5,0-.5,0c.04.71-.28,1.1.5,1.01.11-.2.02-.44.36-.76.39-.38.81-.32,1.15-.49.16-.47.2-.52.58-.93.12-.14.3-.05.43-.08.25-.05.6.05.88,0,.13-.04.14-.13.13-.25ZM72.73,93.28l-1,.25v.5s1-.25,1-.25v-.5Z"/>
      <path class="st11" d="M124,27.17c.13.65,2.02,2.55,2.64,3.02.48.36.71.46.63-.25.41.56.61,1.27,1.13,1.76.15-1.34-1.26-3.16-2.35-3.94-.32-.23-.74.1-.54-.84.97.07,2.66,1.7,3.12,2.54s1.1,3.65,1.06,4.59c-.06,1.67-2.91,4.86-4.12,6.13-.34.36-.38.7-1.06.57.08-.16.21-.35.25-.5.09-.3.02-.67.25-1h-.75s-.25-.25-.25-.25l-.5-.5-.02-.48c-.07-.06-.34.15-.48.23v-.25c.11-.23.25-.5.25-.75l.25-.25c.17.03.44.36.75.25-.03-.41.05-.86,0-1.26.15.08.85.27,1.01.25l.25-.13c.09-.95-.22-1.99-1.25-2.14-.24-.03-.51.02-.75,0,.02-.23-.06-.61,0-.75.02-.04.48-.26.5-.5.26.23.52.31.51.75h.37c.19-.06.28-.44.38-.5.4-.27.91-.19.75-.75h.25c1.44.38.33-1.32-.11-1.78-.4-.41-.68-.34-.89-.49-.38-.62-.41-.9-1.26-1.26l-1.01-1.76c.08,0,.17,0,.25,0,.04,0,.67.22.75.25ZM128.78,32.7v-.5h-.25v.5h.25ZM126.01,33.46c-.07.15-.25.29-.25.5l-.14.26c.51.77.03,2.17,1.14,2.26l-1,.25.5,1.25c.29-.09.71-.77.85-1.03.21-.38.47-1.05.65-1.48.02-.04.27-.1.27-.38.05-.22-.25-.32-.27-.38-.06-.18-.23-.72-.25-.75h.5c.15.38.22.92.75.75l-.03-1.35c-.15-.46-.57-.42-.97-.41-.44,0-.54-.01-.5.5-.11-.05-.55,0-.75,0h-.25l-.13-.51c-.26,0-.05.36-.13.51ZM125.76,38.99l-.12-.5-.38.5h.5Z"/>
      <path class="st11" d="M55.89,103.33c-.44.84-.28.29-.88.75-.67.51-1.31,1.29-1.89,1.77-.99.81-1.62.73-2.6,1.29-.41.23-1.39,1.36-1.49,1.4-1.28.56-2.48,1.24-3.7,1.58-.77.21-1.05.47-1.12.47-.72-.04-1.14-.37-1.97.27l-.68,2.02-.87-.48-.89.23c.19-.34.31-1.36.66-1.98.17-.32,1.05-1.5,1.35-1.54.02,0-.05.31.32.21,4.1-1.13,7.37-2.92,11.04-5l.2-.48,2.51-.5Z"/>
      <path class="st11" d="M58.15,104.84c-2.78,2-6.6,4.59-9.55,6.28-.07.04-.37-.08-.47.03l-.03.48c-.16.03-.37-.04-.5,0-2.36.76-5.59,3.58-8.06,4.4-.32.11-.46-.06-.73-.13l.14.77c-.43.29-1.02.37-1.4.74-.08-.65.08-1.22.32-1.82.37-.94,1.34-1.79,1.69-2.45.8.18,1.37-.11,2.01-.25.95-.21.82-.33,1.26-.5,4.17-1.67,8.13-3.99,12.04-6.43.7-.44,2.91-1.49,3.04-1.61l.25.5Z"/>
      <path class="st14" d="M77,65.88c.08,0,.17,0,.25,0,.12.93,1.87,1.11,2.01,1.26.6.64-.91.34-.75.75l1.76.63-.13.63-.5-.51c-1.42-.08-.18,1.02.56,1.07l1.07,3.71c.19,0,.35-.21.5-.25.14-.04.34.02.5,0,0,.09-.02.19,0,.25.2.58.73.54,1.26.5.2.24.57.41.72.66.44.76.46,2.22,1.54,2.36.06.17.2.34.25.5.06.19-.04.53,0,.75l-.25.25h.5c.01.08,0,.17,0,.25.01.21.08.61-.05.72l-.84.55c-.63-.07-.97-.73-1.37-1.02-.05-.04-.19.04-.25,0l-.25-.25c.07-.08.09-.55.51-.68l-1.01-2.84-.4.51-.82-.04-.83-1.95-.65-.1-.56-.88c-.05-.27-.03-.55,0-.82.02-.36.6-1.14-.13-1.76l-.13,1.76h-.75s-.01-.81-.01-.81c-.68-.36-.48-.96-.75-1.7-.11-.31-.04-.65-.5-.75h-.25l-.03-.72-1.48-.29.5-.88-1.1-.61-.65,1.49c.56-.45.82-.02,1,0v.25h-.75c0,.5,0,1.01,0,1.51h-.25c-.15-1.25-.73-2.24,0-3.52-.25-.01-.5,0-.75,0-.08,0-.17,0-.25,0v-.5c.07-.1.02-.47.24-.64l.35-.08c.42.04,2.09,1.31,2.6,1.43.19.05.3-.21.32-.2ZM81.53,73.67v.37s.38.38.38.38l.37-.37-.38-.37h-.37ZM82.53,74.93v-.5h-.25v.5h.25Z"/>
      <path class="st14" d="M83.54,78.7l.25.25c.03.08-.03.18,0,.25s-.03.18,0,.25l-.75-.25s.47-.47.5-.5Z"/>
      <path class="st2" d="M111.18,42.51c.26-.02,1.29-.18,1.25.25-1.91.73-4.34,1.18-6.08,2.28-.47.3-.96,1.33-1.86,1.49-.43.38-.11,1.28-.36,2.01-.21.62-.36.95-1.01,1.26,0-.05-.34-.63,0-1.01l.51-.13-.51-.13-.17-.76-1.34-1c-.74.84-1.2.21-1.88.25-.44.02-.89.28-1.27.27-2.59-.09-2.7-.55-5.39.24l.25-1.01c.22-.05.53.05.75,0,.65-.14,1.03-.43,1.76-.5,0,.17-.1.52.13.5h.63s0-.5,0-.5l-.13-.25-.13.25c-.17.01-.34-.02-.5,0,0-.16-.02-.34,0-.5.63-.24,1.6.09,2.11,0,.41-.08.72-.5,1.03-.5.42,0,.72.69,1.45.47l3.45-2.48c.3,0,.68-.22,1.01-.25-.74.58-1.21,1.32-2.27,1.63l.15.63h.94c.5-.73,1.18-1.52,2.19-1.51-.26.37-.66.67-1.01,1-.15.14-.52.2-.5.5.45.14.46-.24.5-.25,1.28-.38,3.15-.98,4.34-1.52.21-.09.21-.3.18-.49.16-.02.35.03.5,0s.35.03.5,0c.27-.05.61-.24.75-.25ZM102.14,45.02h-.5v.25h.5v-.25Z"/>
      <path class="st14" d="M61.67,90.76l.63.5c-3.25,1.29-6.62,2.53-9.93,3.64l.51.63c-.98.37-3.47,1.32-4.26,1.89-.72.52.38.21.24.62l-1,.38.39.61,1.12-.24-.25-.75h.83c1.51-.75,3.8-1.54,5.71-2.01v.75c-.36.1-1.11.36-1.51.5-.17-.43-.86,0-1.22.04l-.03.46c-1.17.35-2.09.46-3.14,1.26l.63.5s-.48.23-.5.25l-1.73.28-.03.72c-.44.08-.83.16-1.26.25-.15.03-.37-.04-.5,0,.48-2.44,2.09-4,3.27-6.03h.5s0-.5,0-.5c-.14-.85.41-1.06.75-1.51.13.1.44.16.5.25.08.11.04.88.84.71.27-.06.47-.52.85-.65,2.66-.92,5.8-1.54,8.61-2.57ZM50.86,95.79h-.5v.5h.5v-.5Z"/>
      <path class="st11" d="M55.14,98.55l.76.38c-.96.43-1.89,1.15-2.77,1.63-.29.16-.62.29-1.01.5-.16.09-.66-.21-.5.5-.24.03-.53-.04-.75,0-1.08.22-2.21.88-2.76,1.51-.14.16-.25.41-.44.51-.26.15-.54.16-.82.24-.21.06-.68-.15-.76.13-.31.85.86.95.76.12.17,0,.34,0,.5,0,.24,1.2-.95,1.05-1.22,1.3-.14.13,0,.42-.04.46-.26.27-.46.45-.77.65l.26.6c-.72.34-1.48.67-2.26,1.01.09-.46-.05-.58-.5-.5l-.25-.25h-.25c.52-1.22.52-.69.75-1.01v.75c.15.27.94-1.14.5-1.51.54-.81.96-2.3,1.46-3.19.25-.44.67-.79.87-1.28.13-.13.34-.02.44-.05.13-.04.35.03.5,0l-.38,1c.46-.67,1.23-.43,1.9-.62,2.36-.68,4.56-1.89,6.77-2.9ZM46.59,102.83v-.5s-.5.38-.5.38l.5.12Z"/>
      <path class="st2" d="M58.66,83.22c.1.15.16.34.25.5-.33-.03-.67.01-1,0l2.26.75,9.3-.75c0,.08,0,.17,0,.25-.02.25.04.53,0,.75-1.75.2-3.24.16-5.03.64-.42.11-.89-.04-.75.62-2.25.37-4.55.62-6.79,1.01v-.5c-.35.16-.68.27-1.01,0,.05-.08-.04-.62.13-.99.44-.92,1.45-1.37,1.88-3.03.3.18.56.47.75.75Z"/>
      <path class="st4" d="M119.23,28.68c-.02.57.35.67.67.96,1.29,1.13,2.83,1.94,4.1,3.06-.02.24-.49.46-.5.5-.22.04-.59-.06-.75,0,.01-.23-.12-.34-.25-.5-.46-.55-4.97-3.1-5.28-2.76-.04.59-.14.53.31.82,1.19.74,2.92,1.07,3.71,2.45-.28.11-.62.43-.5.75-.16,0-.35.02-.5,0-.07-.58-1.24-1.22-1.84-1.56-1.05-.59-2.22-1.12-3.44-1.2l.42.77c1.56.29,3.41,1.83,4.85,1.99.02.2.09.47-.16.51l-1.43.25c-1.33-1.52-3.76-1.83-5.7-2.27-.11.58.26.57.64.74,1.24.58,3.28,1.09,4.64,1.52-.15.23-.23.48-.25.75-2.28-.42-4.42-1.69-6.78-1.51,0,.32.72.6.96.67,1.21.37,2.82.44,3.99.79.38.12.97.24.83.8-.13-.04-.36.04-.5,0-1.75-.51-5.31-1.52-7.04-1.51.02-.59.26-.69.71-.94,1.5-.84,3.21-1.82,4.79-2.73,1.45-.84,2.6-1.96,4.3-2.36ZM123.12,32.7v.25c.16-.08.16-.17,0-.25Z"/>
      <path class="st13" d="M111.69,66.63c1.48-.23,2.18.1,3.67.2l.4.5,1.21-.19c.16.77.4,1.41.25,2.26-.19-.06-.53.04-.75,0-.42-.08-.84-.16-1.26-.25l.09.69c.71.07.08.58.16,1.07-.17.09-.59.63-1.01.75-1.09.32-2.48-.16-3.61.23l-.67-1.23.25-.5c.25-.01.53.04.75,0,.3.38.34.08.5,0,.46-.22.36-.1.75-.5.67.08,1.15.02,1.28-.73l.72.22c.22-.72-.5-.49-.75-.75-.11-.11-.12-.52-.31-.68-.44-.36-1.31-.49-1.7-1.08ZM114.95,67.39h-.75v.25h.75v-.25ZM115.71,68.14l-1,.25v.25s1,0,1,0v-.5Z"/>
      <path class="st2" d="M64.69,86.49l.25,1.01c-.93.17-4.03,1.25-4.27,1.26-.15,0-.49-.31-1.06-.21-.41.08-.91.5-1.42.5l-.03.46c-.68.11-1.16.38-2.01.5-.96.13-2.1.28-3.02,0,.46-.73.93-1.87,1.76-2.01.08-.01.17,0,.25,0l.75.25c.29.08.57.18.86.26l.15-.51c2.6-.24,5.25-.89,7.79-1.51ZM57.02,89.25v.25c.16-.08.16-.17,0-.25Z"/>
      <path class="st2" d="M50.86,111.37l1.01.25c-1.28.83-1.31,1.25-3.02,1.51,0,.2.08.4-.16.52-2.58,1.5-5.21,2.93-7.88,4.26-1.44.71-2.83,1.83-4.52,1.76.05-.49.65-1.36,1.01-1.76.56.69.53-.42,1.24-.64,1.22-.39,2.12-.56,3.41-1.11,1.04-.45,5.57-3.02,5.91-3.02s.37.1,1.01,0c0-.17,0-.34,0-.5.59-.15.91-.84,1.19-1,.3-.18.67-.17.82-.25Z"/>
      <path class="st2" d="M51.37,113.63v.25c-1.34.71-2.72,2.09-4.04,2.87-2.61,1.55-5.72,3.16-8.53,4.42-.34.15-.87.19-1.26.25l.5.5c-.29.05-.48.3-.99-.02l.23-1.23c-.25.05-.36-.19-.5-.26,1.17-.39,2.43-.61,3.59-1.07.32-.13.4-.42.43-.44,3.13-1.35,7.7-3.5,10.56-5.28Z"/>
      <path class="st9" d="M47.85,112.63c.03.14-.02.34,0,.5-.34,0-4.86,2.57-5.91,3.02-1.29.55-2.19.72-3.41,1.11-.71.23-.68,1.33-1.24.64.11-.13.16-.41.25-.5.38-.37.97-.45,1.4-.74l-.14-.77c.28.07.41.24.73.13,2.48-.82,5.7-3.65,8.06-4.4-.07.39.18.7.25,1.01Z"/>
      <path class="st2" d="M81.02,47.53c.04.16.19.33.25.5l-1.76.76.26.75,2-.25c.17.84-.45.37-.75.5-.33.1-.68.15-1.01.25-.89.29-.81.5-1.26.75h.75s0,.25,0,.25l-.75.25v-.5c-.21.12-.73.16-1.01.25l.75.5c-1.42.41-2.16,1.64-3.77,1.26v.75c-.24.03-.54-.05-.75,0l2.26-3.02c.5.02.77-.25.75-.75.19-.1.24-.24.25-.25,1.55-.7,2.39-1.42,3.77-2.51.02.16-.04.36,0,.5ZM79.52,49.55h-.5v.25h.5v-.25Z"/>
      <path class="st9" d="M66.45,58.09s.31.06.25.25l-1.23.29c-.12.11,0,.38-.03.47-.03.07.04.23,0,.25h-.5s.25.25.25.25v.25c-.24-.02-.5.06-.74-.02l-.14-.73-.37.4c-.02.24.18.42.24.61.04.11.22.18.25.25.22.46.43.6.5.75.07.13-.05.54,0,.75l.65-.53c.34-.06.53.26.6.27.13.26.39.5.5.75.07.15.23.38.25.5-.09.07-.16.19-.25.25-.75-.21-1.51-.18-2.26-.25-.06-.29-.11-.57-.23-.84-.11-.26-.42-.12-.52-.16-.23-.11-.4-.35-.75-.25-.1-.35-.1-.4-.25-.75l.25-1.25-1.73.29c-.11.1,0,.33-.03.47-.01.08,0,.17,0,.25s0,.17,0,.25l-.5-.25c-.01-.25,0-.5,0-.75l.05-.45,5.73-1.31ZM63.43,60.1h-.5v.25h.5v-.25Z"/>
      <path class="st2" d="M123,26.92l1.01,1.76c-.07-.03-.17.03-.25,0-.21-.07-.6-.23-.75-.25l-.88-.51c-.25,0-.09.32-.13.51,0,.02-.39.07-.01.37l4.03,3.4c.15.56-.35.49-.75.75-.94.2-.61-.23-.83-.54-.64-.89-3.51-3.8-4.44-3.98-.13-.62.29-.53.68-.69.58-.24,1.8-.81,2.33-.82Z"/>
      <path class="st10" d="M53.38,103.58v.25l-.2.48c-3.67,2.09-6.94,3.87-11.04,5-.37.1-.3-.21-.32-.21v-.25c.69.14,1.28-.66,1.51-.75.78-.33,1.54-.67,2.26-1.01,2.54-1.18,5.3-2.19,7.79-3.52Z"/>
      <path class="st14" d="M117.22,69.4c.11.03.33.4.5.5l-1.01.25c.01.16-.02.34,0,.5-.15,0-.36-.02-.5,0,0,.2-.08.59.04.71.49.08.82.28,1.22.55.37.25.74.65,1.01.85.35.26.66.26.5-.22-.03-.08-1.26-.77-1.51-.88-.35-.14-.71-.67-.75-1.01.84.05,1,.24,1.76.5v-.75c.99,1.07.21.73,1.76,1.51l-.51.63.51.13.5,1c-.17.01-.33,0-.5,0-.22,0-.56.04-.75,0-.98-.2-2.33-.73-3.52-1.01-.15-.03-.37.04-.5,0-.47-.13-1.04-.43-1.01-1.01.42-.12.83-.67,1.01-.75.27-.13.45-.21.75-.25.02-.43.14-.84.25-1.26.23.04.56-.06.75,0Z"/>
      <path class="st14" d="M79.52,86.49l.02.74.73.27c-.86-.13-.32.73-.56,1.2-.04.07-.94.77-1.16.86-.16.25.19.37.22.46.04.12-.03.35,0,.5-.02,0-.17.18-.25.25-.05.04-.19.01-.23.12l.23.13v.25c-.29.36-.48.47-.5.5-.2.02-.41-.23-.5-.25l.25-.75h-.5s-.22-.13-.26-.25l.73-.02.02-.98-.85.21-.4-.72c.6.03,1.31-.3,1.26-1.01l-1-.12.42-.65c.66-.14,1.19-.56,1.84-.74.02,0,.15.29.22.24.02-.21.2-.34.28-.49v.25Z"/>
      <path class="st11" d="M70.22,99.06s-.02.28-.15.49c-.38.61-1.66,1.22-2.37,1.27.08-.42.25-.68.5-1.01.69-.4,1.34-.53,2.01-.75Z"/>
      <path class="st11" d="M77.51,91.52c.09.02.31.27.5.25-.03.04-.46.89-.5,1.01-.33.16-.62.4-.75.75-.03.07.03.18,0,.25-.47.29-.79.69-1.26,1.01-.26.18-.77.16-.94.31-.25.22-.19.7-.32.94-.34.18-.59,0-.88.75l-.37-.5-.03.99-.65.07c-.44,1.46-.95,1.32-2.08,1.71.08-.11.1-.44.36-.76,1.44-1.83,4.88-3.97,5.67-6.02.1-.04.33.05.45-.05l.06-.45v-.25c.24.02.54-.04.75,0Z"/>
      <path class="st9" d="M58.4,78.2c.05.02.16.18.25.25.32.26.41.51.7.75l7.1,1.01c.16.23.09-.33.5.75-.6-.09-1.15-.22-1.76-.25-2.28-.11-4.56-.09-6.79-.75h-.25c0-.33.12-.84-.25-1.01.03-.24-.03-.51,0-.75.15.03.39-.05.5,0ZM58.4,78.95l.37.25.13-.13c-.09-.17-.24-.12-.25-.13-.01,0,.03-.24-.13-.25l-.13.25Z"/>
      <path class="st11" d="M82.28,84.98v.49s1.01-.24,1.01-.24c-.37.52-.64.77-1.01,1.26.06-.06-.04-.26-.13-.25-.27.02,0,.37.13.25-.23.31-.51.69-.75,1.01l-.12-.25-.13.12-.25.63c-.11.15-.26.45-.5.75.06-.06-.04-.26-.13-.25-.27.02,0,.37.13.25-.33.42-.69.86-1.01,1.26l-.15-.23-.61.23c-.03-.09-.38-.21-.22-.46.22-.08,1.12-.79,1.16-.86.25-.47-.3-1.34.56-1.2l-.73-.27-.02-.74c.17,0,.34,0,.5,0,0,.13-.01.46.12.51h.63s0-.51,0-.51c-.25-.01-.5,0-.75,0,0-.12,0-.25,0-.37l.25-.13c.14.04.34-.02.5,0l.25-.25v-.25l.88-.75.38.25ZM81.65,85.74v.25c.16-.08.16-.17,0-.25Z"/>
      <path class="st9" d="M117.47,73.92c1.32-.2.9.08,2.06.35.63.15,1.18-.18,1.83.41l.88-.76h.25c.08.36-.06.87,0,1.26h.75c-.03.38-.32,1.63-.87,1.5-.65-1.02-1.76-.77-2.63-1.14-.73-.32-1.4-1.48-2.28-1.62ZM121.87,74.68v.25c.16-.08.16-.17,0-.25Z"/>
      <path class="st9" d="M59.66,75.18c.08.04.14.32.62.5,1.44.53,3.22.69,4.72,1.01l.44,1c-.32-.03-.71.06-1,0-1.68-.31-3.52-1.08-5.28-1.26h-.25c0-.13-.25-.38-.25-.5,0-.17,0-.34,0-.5s0-.34,0-.5c.38-.03.68.08,1.01.25ZM59.03,75.43v.25c.16-.08.16-.17,0-.25Z"/>
      <path class="st9" d="M59.66,73.17c.06.02.41.48.93.7,1.4.59,3.36,1.01,4.85,1.31.04.2.2.46.25.75l-1.61.25c-.79-1.24-3.34-1.01-4.42-1.51-.21-.1-.42-.66-.75-.75.04-.33-.03-.68,0-1.01.24.09.51.17.75.25Z"/>
      <path class="st14" d="M70.97,55.32v.5s-.5,0-.5,0l.75.37-2.76,2.14c-.31.1-.63.28-.89.49l.13,1.27c-.69-.17-.39-.56-.96-.32l-.05-.44h.5s0-.5,0-.5h-.5s0,.5,0,.5c-.24-.03-.53.04-.75,0-.09-.02-.31-.27-.5-.25.04-.09-.09-.35.03-.47l1.23-.29c.06-.19-.25-.21-.25-.25-.02-.16.01-.34,0-.5,1.48-.11,2.81-.97,4.02-1.76.04-.03-.13-.09.5-.5Z"/>
      <path class="st14" d="M119.98,28.43c.94.18,3.8,3.09,4.44,3.98.23.32-.1.74.83.54-.1.06-.19.44-.38.5h-.37c0-.44-.25-.53-.51-.75-1.27-1.12-2.81-1.93-4.1-3.06-.33-.29-.7-.39-.67-.96.15-.04.29-.34.75-.25Z"/>
      <path class="st11" d="M56.14,90.01l-.15.53-1.82.53c-.15.2.01.58-.04.7-.11.23-.47.61-.74.65-1.15-.3-.87.16-1.78.6v-.75c.55-.71.94-1.56,1.51-2.26.92.28,2.06.13,3.02,0Z"/>
      <path class="st10" d="M72.73,56.58c-.8.29-.97.49-1.44.75-.45.24-.99.32-1.32.76-.21-.03-1.26.17-1.51.25l2.76-2.14-.75-.37h.5s0-.5,0-.5c.49-.32.76-.47,1.26-.75l.5,2.01Z"/>
      <path class="st2" d="M119.48,73.67c.22.35.52.32.75,0,.17,0,.34,0,.5,0l-.5-1c.87-.04,1.6.52,2.01,1.26l-.88.76c-.66-.59-1.21-.26-1.83-.41-1.16-.27-.73-.55-2.06-.35-.24.04-.53-.04-.75,0-.5-.2-.39-.43-.5-.75-.06-.17-.18-.33-.25-.5,1.18.27,2.54.81,3.52,1.01Z"/>
      <path class="st9" d="M86.3,78.7c1.14-.12.04,2.44-.14,2.75-.25.42-.74.59-.86.77-.12-.16-.44-.35-.5-.5-.03-.07.03-.19,0-.25-.18-.32-.35-.67-.5-1.01-.16-.36-.4-.74-.5-1.01-.03-.07.03-.18,0-.25l.25-.25c.4.29.75.95,1.37,1.02l.84-.55c.12-.11.06-.51.05-.72ZM85.17,80.96v.25c.16-.08.16-.17,0-.25Z"/>
      <path class="st14" d="M109.42,34.71c1.73-.02,5.29,1,7.04,1.51.03.16-.04.38,0,.5-.43.38-.63.12-1.01,0-2.16-.68-4.42-.94-6.53-1.76.08-.02.23-.25.5-.25Z"/>
      <path class="st11" d="M73.99,53.56c.22-.05.52.03.75,0l.25.25h-.58s-.18.5-.18.5l.71.04.04.71.52-.16c.2-.84.86-.86,1.49-1.1.19.74-.16.62-.46.92-1.05,1.02-1.52,1.15-2.81,1.6l.75-.75v-.75s-1.51,0-1.51,0l-.5-.5c.52-.26.88-.62,1.51-.75Z"/>
      <path class="st10" d="M58.91,76.44c0,.08,0,.17,0,.25,0,.4-.1.66-.25,1h1.01s0-.5,0-.5c.77.29,2.36.54,3.27.75l-.25.5.5.26c-.37-.08-.9.06-1.35-.03-.97-.19-2.28-.87-3.18-.23-.09-.07-.2-.23-.25-.25v-.75c0-.47.06-1.07,0-1.51h.25c0,.12.24.37.25.5Z"/>
      <path class="st2" d="M124,26.67c.46-.13.86-.43,1.51-.25v.5c-.2.94.22.61.54.84,1.09.78,2.5,2.6,2.35,3.94-.52-.49-.72-1.2-1.13-1.76-.75-1.02-2.11-2.3-3.27-2.76-.03-.15.02-.34,0-.5Z"/>
      <path class="st9" d="M40.81,117.91c.26.33.25.68,0,1.01-.03.01-.11.31-.43.44-1.16.46-2.41.68-3.59,1.07-.08-.04-.33.08-.47-.03-.1-.11-.06-.52-.04-.72,1.69.07,3.09-1.05,4.52-1.76Z"/>
      <path class="st14" d="M85.3,82.22c-.73,1.07-1.24,1.93-2.01,3.02l-.99.24v-.49c-.19-1.02.23-.62.49-.75l.25.25v-.5c.07-.04.21.04.25,0l.25-.25c.36-.68.2-1.53,1.26-2.01.06.15.38.34.5.5Z"/>
      <path class="st14" d="M72.48,54.32l.5.5h1.51s0,.76,0,.76l-.75.75c-.41.14-.8.18-1.01.25l-.5-2.01c.09-.05.16-.2.25-.25Z"/>
      <path class="st14" d="M59.16,80.96c.03.32-.05.69,0,1.01.03.2.27.49.25.75-.38.06-.63.08-.75.5-.2-.29-.45-.57-.75-.75.07-.27-.05-.7,0-1.01.08-.48.24-1,.25-1.51h.25c-.04.38.44.87.75,1.01Z"/>
      <path class="st11" d="M55.89,86.49c.32.27.65.16,1,0v.5c-.15.03-1.01.3-1.01.38,0,.81,1.37-.19,1.76.13l-.75.5-.15.51c-.29-.08-.57-.18-.86-.26-.15-.04-.2-.23-.75-.25-.08,0-.18-.01-.25,0l.58-1.44c.06-.12.41-.05.42-.07Z"/>
      <path class="st11" d="M123.25,75.18h-.75c-.06-.39.08-.9,0-1.26-.16-.74-.81-.65-.75-1.26v-.25c1.09-.03,1.58,1.88,1.51,2.76Z"/>
      <path class="st13" d="M73.48,97.3c-.65,1.16-.25.43-.94,1.07-.15.14-.14.64-.43.95s-1.46,1.78-1.9,1.24c1.06-1.01,1.89-2.47,3.27-3.27Z"/>
      <path class="st14" d="M42.57,107.35v.5c.29.04.23-.25.25-.25.46-.08.59.04.5.5-.23.1-.82.89-1.51.75-.1-.65.3-1.03.5-1.51h.25Z"/>
      <path class="st14" d="M124.76,40.24c-.04.15-.17.34-.25.5-.59,1.23-.86,1.14-2.01,1.51.03-.07-.07-.28.05-.45.53-.09.7-.6.95-.81.16-.13.82-.03.75-.75h.5Z"/>
      <path class="st4" d="M118.98,43.01v.48c-.92-.13-2.09.82-2.76.27.89-.21,1.71-.69,2.76-.75Z"/>
      <path class="st4" d="M117.72,69.9c.35.21.31.02.75.5v.75c-.75-.26-.92-.45-1.76-.5-.02-.16.01-.34,0-.5l1.01-.25Z"/>
      <path class="st2" d="M58.15,79.95c0,.51-.17,1.03-.25,1.51-.68-.67-.08-1.86,0-2.51.37.17.26.68.25,1.01Z"/>
      <path class="st4" d="M109.68,45.52l-.03.46c-.81.28-1.67.52-2.48.79l.03-.46c.85-.2,1.63-.57,2.48-.79Z"/>
      <path class="st13" d="M75.24,95.54l.25-.75c.46-.31.79-.72,1.26-1.01-.08.17.03.46-.24.88-.37.59-.81.62-1.27.88Z"/>
      <path class="st4" d="M120.73,72.16l.5.25c.08.05.15.2.25.25h.25c-.06.6.6.52.75,1.26h-.25c-.41-.73-1.14-1.3-2.01-1.26l-.51-.13.51-.63c.17.08.33.18.5.25Z"/>
      <path class="st9" d="M39.81,112.63l.89-.23.87.48c-.64.14-1.21.43-2.01.25.09-.17.16-.33.25-.5Z"/>
      <path class="st9" d="M45.33,110.11c.26,1.19-.97.6-1.83,1.01-.13.06-.06.34-.56.51-.74.25-.38.25-.12.75-.44.17-.31.29-1.26.5l.68-2.02c.84-.64,1.25-.31,1.97-.27.07,0,.35-.26,1.12-.47Z"/>
      <path class="st4" d="M112.44,44.52l-.03.47c-.68.12-1.32.37-1.98.54l.03-.47c.68-.12,1.31-.38,1.98-.54Z"/>
      <path class="st11" d="M59.66,74.68v.5c-.33-.17-.62-.28-1.01-.25.02-.57.23-.8.25-1.01.34.09.54.66.75.75Z"/>
      <path class="st4" d="M106.91,46.78c.13.71-.81.75-1.26,1.01.07-.8.63-.83,1.26-1.01Z"/>
      <path class="st10" d="M38.8,121.17v.25c-.17.11.45.28-.75.5l-.5-.5c.38-.06.91-.1,1.26-.25Z"/>
      <path class="st4" d="M51.62,92.27v.75c-.08.04-.16.19-.25.25-.07-.09-.38-.16-.5-.25.37-.48.72-.71.75-.75Z"/>
      <path class="st2" d="M43.58,105.59c.43.37-.35,1.78-.5,1.51v-.75c.1-.14.37-.55.5-.75Z"/>
      <path class="st4" d="M122.49,42.25c-.05.1.13.44-.15.52-.53.34-.79-.02-.85-.02.07-.08.15-.2.25-.25.28-.14.49-.17.75-.25Z"/>
      <path class="st4" d="M120.99,42.76v.5c-.42.21-.86-.23-1.01-.25.16-.36.68-.27,1.01-.25Z"/>
      <path class="st10" d="M79.52,90.01c-.1.13-.15.37-.25.5-.15.03-.39-.05-.5,0-.03-.16.04-.38,0-.5l.61-.23.15.23Z"/>
      <path class="st2" d="M79.26,90.51c-.39.5-.69.68-.75.75v-.5c.08-.07.23-.24.25-.25.11-.05.35.03.5,0Z"/>
      <path class="st13" d="M77,49.79c.02.51-.26.78-.75.75-.03-.74.4-.57.75-.75Z"/>
      <path class="st9" d="M124,26.67c.02.16-.03.35,0,.5,1.16.47,2.52,1.74,3.27,2.76.08.71-.15.62-.63.25-.62-.47-2.5-2.36-2.64-3.02-.09-.03-.71-.25-.75-.25.17-.34.53-.19.75-.25Z"/>
      <path class="st13" d="M77.51,92.77c-.06.16.07.53,0,.75h-.75c.14-.35.42-.58.75-.75Z"/>
      <path class="st2" d="M58.4,77.44v.75c-.11-.05-.35.03-.5,0,.03-.24-.03-.51,0-.75h.5Z"/>
      <path class="st9" d="M81.53,87.49c-.36.47-.47.47-.5.5l.25-.63.13-.12.12.25Z"/>
      <path class="st2" d="M58.66,75.43c0,.17,0,.34,0,.5h-.25s-.35-.23-.25-.5h.5Z"/>
      <path class="st4" d="M50.11,94.53v.5s-.5,0-.5,0c.04-.07-.08-.37.02-.48l.48-.03Z"/>
      <path class="st2" d="M121.24,72.41l-.5-.25c.22.09.3.14.5.25Z"/>
      <path class="st9" d="M86.3,78.45h-.5s.25-.25.25-.25c.01.07.24.17.25.25Z"/>
      <path class="st2" d="M121.74,72.67h-.25c-.04-.16.11-.25.25-.25v.25Z"/>
      <path class="st9" d="M101.13,40.5c2.8-.5,6.01-.86,8.91-1.02.71-.04,1.44.04,2.15.01l-1,.5c.5.01,1.01,0,1.51,0,1.58.03,3.51-.1,5.03,0,.8.05,1.68.18,2.51.5.04.01.05.3.37.27l.26-.52c.16.23.42.34.63.5-.01.25.01.5,0,.75-.82-.45-1.4-.33-2.26-.5-1.89-.37-2.89-.2-4.78,0-.16.02-.34-.02-.5,0-.85.1-2.14.12-2.88.26-.59.12-1.13.73-1.8.74-.56,0-.81-.46-1.18-.45-.73,0-2.58.73-3.19,1.21-.32.04-.7.25-1.01.25-.2,0-1.65-.36-1.75-.24l-.17.75-1.19.26-.51-.53c-1.05.04-2.41,1.47-3.14,1.64-.33.08-.74-.16-1.03-.12-.41.05-4.57,1.05-4.02,1.51.46.15,2.12-.88,2.01.25-.22.05-.54-.05-.75,0s-.5-.03-.81.06c-1.25.38-2.87,2.11-4.47,1.45l.5,1c-.09.01-.33.22-.75.25.3-1.3-.94-.47-1.51-.38.33.46.78.37,1.26.38.11.94-1.28.64-1.82.82-.6.2-1.16.54-1.79.67-.25.11-.11.39-.16.52-.02.07-.2.16-.25.25-.25,0-.51-.02-.75,0-.45.04-.47.25-.5.25-.38.06-.86-.04-1.26,0,.85-1.41,2.15-2.45,3.56-3.61.37-.3.62-.19.46-.91.39-.16,1.83-.8,2.01-1.01h1s-.25-.5-.25-.5c.01-.31.43-.39.5-.5.76.74,1.57.61,2.26-.13l-.48-.14c-.04-1.2,1.79-.54,2.57-.99.29-.16.15-.55.31-.74.92-1.11,4.93-.33,5.4-2.03.25.02.5,0,.75,0,.03,0,.26.35.59.24l.42-.74c.47-.07.74-.2,1.01-.25ZM101.88,42.76c-.33-.1-1.26.38-1,.5l.61-.02.4-.48ZM91.58,46.28l-1,.25v.5s.5,0,.5,0l.51-.75ZM87.43,46.78v.25c.16-.08.16-.17,0-.25Z"/>
      <path class="st2" d="M68.21,65.13c.14.25.32.42.25.75h-.5c-.11-.26-.2-.46-.25-.75-.01-.08.01-.17,0-.25h.25c.06.1.21.17.25.25Z"/>
      <path class="st2" d="M69.97,58.09c.06,0,1.05.5,1,.75l-1.76.25,5.78,1.01c.05.39-.85.41-1.09.41-.95-.04-1.95-.49-2.93-.41l.25.75-1.26-.25.75,1-.85-.25-.65.75c1.48-.7,1.29.28,1.83.68.29.21.92.21,1.37.41.11.05.05.41.07.42l-.51.63.64-.12-.13.5-1.78,1.12.03.89c-.83-.11-1.06-.06-1.26.76-.08-.01-.17.01-.25,0l-.5-.25c-.1-.16-.15-.35-.25-.5l1.25-.75c-.68.14-.41-.59-.53-.72-.16-.18-.76.04-.98-.04-.07-.03-.15-.21-.25-.25-.05-.02-.12-.21-.25-.25-.25-.09-.55-.08-1.01-.25-.1-.36.23-.77.25-1.01l.76-.12.24-.64c.08.01.17,0,.25,0,.25.02.5,0,.75,0,.16-.39-.22-.62-.25-.75-.05-.21.03-.52,0-.75l1-.75c-.71.09-1.34-.09-2.01-.25l-.13-1.27c.26-.21.58-.39.89-.49.25-.08,1.3-.28,1.51-.25ZM70.72,62.62c-1.29-.46-.87.1-1.17.25-.33.17-.87.14-1.04.32-.09.09-.01.42-.13.6s-.52-.06-.42.33l2.26,1.26-.25-1h.83s.43-.63.43-.63l-1.01-.13.5-1Z"/>
      <path class="st8" d="M115.46,72.92c-1.17-.3-.58-.36-1-.64-.13-.08-2.76-.24-2.68.38l-6.96.19-1.66-.94-.25.5c-1.86-1.89,2.2-2.88,3.12-2.23.55.39.05.71,1.15.73s1.03-.42,1.26-.5c.12-.04.83-.03,1.01,0,.12.02.44.38.75.25l.67,1.23c1.13-.39,2.52.1,3.61-.23-.03.57.54.87,1.01,1.01v.25Z"/>
      <path class="st14" d="M85.05,47.28c.16.72-.1.61-.46.91-1.41,1.16-2.7,2.2-3.56,3.61-.45.74-3.17,1.69-4.02,2.01-.62.23-1.29.25-1.49,1.1l-.52.16-.04-.71-.71-.04.18-.51h.58s-.25-.25-.25-.25v-.75c1.61.38,2.35-.85,3.77-1.26l-.75-.5c.28-.1.79-.13,1-.25v.5s.75-.25.75-.25v-.25s-.75,0-.75,0c.44-.25.37-.47,1.26-.75.21.65.79-.16,1.01-.25.3-.13.93.34.75-.5l-2,.25-.26-.75,1.76-.76h.25l.12.5c.39-.44,1.08-.58,1.64-.75s1.08-.22,1.76-.5ZM79.89,50.55v.25c.16-.08.16-.17,0-.25Z"/>
      <path class="st9" d="M111.69,66.63c.38.59,1.26.72,1.7,1.08.19.16.2.57.31.68-.29.32-.96.56-1.2.82-.14.14-.03.41-.06.44-.4.41-.3.29-.75.5-.28-.67-.47,0-.5,0-.23.04-.51-.01-.75,0-.33.02-.68.01-1.01,0-.25,0-.5.01-.75,0v-1.01s-.42.51-.42.51h-.83c-.08-.17-.16-.34-.25-.51h1s0-.5,0-.5h-.75s0-.5,0-.5l.5-.25c.21.04.52,0,.75,0,.08,0,.17,0,.25,0,.09.32.28.52.5.75.12.12.17.4.38.5l.38-.12-.76-.63v-.75c.27-.15.38-.49,1.01-.75.55-.23.75-.17,1.26-.25ZM111.18,67.39h-1s0,.5,0,.5h.62s.38-.5.38-.5ZM109.42,69.65v-.5h-.25v.5h.25ZM110.93,69.15h-.5v.25h.5v-.25Z"/>
      <path class="st11" d="M77.25,65.88c1.39,0,.92.44,1.32.68s1.03-.1,1.33.84l.86-.26.07.68.43.08-.25,1.76h.76s0,2.26,0,2.26l.75-.25c.17.39-.23.63-.25.75h-.5s0,.75,0,.75c-.15.04-.3.25-.5.25l-1.07-3.71c-.75-.05-1.99-1.15-.56-1.07l.5.51.13-.63-1.76-.63c-.16-.41,1.35-.11.75-.75-.14-.15-1.89-.33-2.01-1.26Z"/>
      <path class="st2" d="M81.28,67.89l1.26.14v1.61s.25-.75.25-.75c1.26.08.44,1.7.56,2.83.15,1.35.69,1.74,1.19,2.71s.87,1.48,1.26,2.51c-1.08-.14-1.11-1.6-1.54-2.36-.14-.25-.51-.42-.72-.66-.03-.04.1-.31-.06-.45-.16-.15-.84.09-.7-.56l-.5.5c-.02-.06,0-.16,0-.25-.02-.22-.03-.55,0-.75.02-.13.41-.36.25-.75l-.75.25v-2.26s-.76,0-.76,0l.25-1.76Z"/>
      <path class="st11" d="M89.82,49.79c-.7-.26-.69.39-.94.49-.47.19-1.37-.27-1.32.77-.08,0-.17,0-.25,0-.02,0-.16-.23-.36-.22-.65.02-1.41.4-2.15.22v.5c-.25-.01-.5,0-.75,0l-.25-.25c.05-.13-.1-.41.16-.52.63-.13,1.19-.47,1.79-.67.54-.18,1.93.12,1.82-.82.08,0,.17,0,.25,0,.42-.03.67-.24.75-.25.51-.06.84-.18,1.26-.25v1.01Z"/>
      <path class="st14" d="M93.34,46.53l-.25,1.01c-.71.21-1.19.55-1.76.75-.17.06-.53-.04-.75,0l.25.5c-.08.01-.17-.01-.25,0-.24.03-.52-.04-.75,0-.41.07-.74.19-1.26.25l-.5-1c1.6.66,3.21-1.07,4.47-1.45.31-.09.6-.01.81-.06Z"/>
      <path class="st2" d="M87.31,51.05l.75.5v.75s-1.51.25-1.51.25l.75-.5-.25-.38c-.56-.32-1.08.14-1.63.12-.28,0-.54-.23-.64-.24v-.5c.74.18,1.5-.2,2.15-.22.2,0,.34.22.36.22Z"/>
      <path class="st14" d="M73.74,63.87c-.06.51-.5.74-.75,1.26l-.5-.5.13-.5-.64.12.51-.63c.07.04.81.05,1.26.25Z"/>
      <path class="st2" d="M90.57,48.79v1.01s-.75,0-.75,0c-.05.87-1.51,1.24-2.26,1.26-.04-1.04.85-.58,1.32-.77.25-.1.24-.75.94-.49v-1.01c.23-.04.51.03.75,0Z"/>
      <path class="st11" d="M108.67,67.89c-.03-.55.74-.83.99-1.39l.76-.12v.5c-.63.26-.74.6-1,.75-.16.09-.34.16-.5.25-.08,0-.17,0-.25,0Z"/>
      <path class="st14" d="M107.41,69.65h.83s.42-.5.42-.5v1.01c.25.01.51-.01.76,0v.25c-.18-.03-.88-.04-1.01,0l-.97-.29c-.13-.09,0-.39-.03-.46Z"/>
      <path class="st14" d="M107.41,68.14v.5s.75,0,.75,0v.5s-1.01,0-1.01,0c-.04-.08-.44-.19-.5-.38l.75-.63Z"/>
      <rect class="st2" x="101.13" y="47.79" width=".75" height=".5"/>
      <path class="st2" d="M91.33,48.29v.5c-.16.03-.34-.02-.5,0l-.25-.5c.23-.05.58.06.75,0Z"/>
      <path class="st11" d="M107.92,67.89l-.5.25v-.5c.29-.13.46.24.5.25Z"/>
      <path class="st2" d="M84.04,51.55c-.13,0-.4,0-.5,0,.05-.1.23-.18.25-.25l.25.25Z"/>
      <path class="st2" d="M82.78,51.55v.5s-.5-.25-.5-.25c.03,0,.06-.21.5-.25Z"/>
      <path class="st8" d="M59.66,63.87c.34.06.73.43,1.51.5.25.02.5-.02.75,0,.08.17.17.3.25.5.03.07-.03.18,0,.25s-.03.18,0,.25l-.63.25c-.18.26-.07.66-.12.76-.19.34-.97.68-.75,1.51-.22.24-.18.19-.25.5-.91.46-1.37,1-2.51.5l-.13.76-.86-.04-.15-.73-1.23.73-.91-1.48-1,.5c.02-.91.4-2.7,1.12-3.28s4.07-1.65,4.91-1.5Z"/>
      <path class="st4" d="M56.9,60.6l.04.47c.74-.13.78.43.96,1.04.06.22-.14.75.13.76l.38-.76,1.25.75v-.5s.5,0,.5,0c-.14.75.13.67.63,1,.1-.18-.07-.52-.13-.75h.25c.16.02.35-.03.5,0,.03.42-.03.73.38,1l.51-.52c.23-.02.49.26.61.27v1.26l-.75.25c-.08-.21-.17-.33-.25-.5-.05-.11.13-.47-.13-.51h-.63s0,.51,0,.51c-.78-.07-1.17-.44-1.51-.5l-.51-1.25-.38.76c-.93-.35-1.79-.31-2.29-1.24h-1.23s-.38-1.28-.38-1.28l1.25.75v-1.01s.76,0,.76,0Z"/>
      <path class="st9" d="M60.16,71.16c.4.29.57.73.93.95,1.01.6,2.93.9,4.1,1.32.02.16-.02.34,0,.5-1.51.42-4.02-1.19-5.28-1.01.09-.42-.19-.56-.5-.75.03-.05.15-.91.25-1.26.16.09.36.15.5.25Z"/>
      <path class="st10" d="M61.17,68.64l3.51,1.88c.06.87-2.48-.45-2.7-.56-.54-.26.02-.59-1.32-.57-.08,0-.17-.01-.25,0v-.5l.75-.25Z"/>
      <path class="st14" d="M60.41,69.4c.08-.01.17,0,.25,0,.11.47.37.77.5,1.26,0,.02-.27.29,0,.5-.22-.08-.72.06-1.01,0-.14-.1-.35-.16-.5-.25.1-.36-.03-.94.23-1.36.11-.26.35-.12.53-.15Z"/>
      <path class="st14" d="M61.17,68.14v.5l-.75.25c0-.16-.03-.38,0-.5.08-.31.03-.26.25-.5.06-.06.38-.21.5-.25v.5Z"/>
      <path class="st11" d="M59.41,72.16c.31.2.59.34.5.75-.12.02-.23.13-.25.25-.25-.08-.51-.16-.75-.25.12-1.2.41-.6.5-.75Z"/>
      <path class="st10" d="M115.96,72.67c.07.17.19.33.25.5-.33.12-.59-.21-.75-.25v-.25c.14.04.35-.03.5,0Z"/>
      <path class="st11" d="M114.2,37.98c-.17,0-.79-.54-.95-.73l-5.33-.78c-.07-.06.13-.32.25-.38.78-.38,4.59.42,5.55.75.44.15.41.32.62.64l1.12-.76c.37.12.57.38,1.01,0,.03.08.33.25.25.5l-.5.25,2.76,1.26c-.42-.08-.84-.16-1.26-.25v.75s1.11,0,1.11,0l.15-.51c.42.08.85.12,1.26.26l-.25.5.76-.25c-.03.07.03.18,0,.25-.14.35-.35.66-.5,1.01-.83-.32-1.72-.45-2.51-.5l-2.69-.69-2.34.69c-.5,0-1.01,0-1.51,0l1-.5c-.71.03-1.44-.05-2.15-.01-2.9.15-6.11.51-8.91,1.02l.25-1.01c.28-.02.74-.04,1.01,0,.04,0,.23.35.5.25v-.5c2.26-.63,5.89-.72,8.3-.75.88-.01,2.07-.09,3.02,0,.6.06,1.66.59,2.39.53l.88-.66c.02-.21-1.85-.56-2.17-.6-.42-.05-.84.24-1.1.23Z"/>
      <path class="st4" d="M93.34,42c.05.62-.38.64-.79.85-1.29.64-2.86.94-3.99,1.92l-3.27.25,1.01.75c-1.44.04-2.54.43-3.77,1.01-.12.06-.53-.12-.7.05-.13.12-.02.42-.05.45-.17.16-.52.21-.75.25-.04-.14.02-.34,0-.5.04-.03.01-.43.25-.62,2.24-1.74,7.08-2.7,9.83-3.55.73-.23,1.24-.65,2.24-.86Z"/>
      <path class="st14" d="M96.61,41c.34.02,1.15.2,1.76.25-.46,1.7-4.47.92-5.4,2.03-.16.19-.02.58-.31.74-.78.45-2.61-.21-2.57.99l.48.14c-.69.74-1.51.86-2.26.13.1-.14.17-.43.25-.5,1.12-.98,2.7-1.28,3.99-1.92.41-.21.83-.23.79-.85.22-.05.52.04.75,0,.37-.06.76-.05,1.11-.23l.15-.53c.47-.11.65-.28,1.26-.25Z"/>
      <path class="st2" d="M101.38,39.49l-.25,1.01c-.26.05-.54.18-1.01.25-.31.05-.68-.04-1.01,0v.5c-.25,0-.5.02-.75,0-.61-.05-1.42-.23-1.76-.25,1.25-.64,3.4-1.39,4.78-1.51Z"/>
      <path class="st4" d="M95.35,41.25l-.15.53c-.34.18-.74.16-1.11.23l.03-.47c.41-.09.82-.19,1.23-.29Z"/>
      <path class="st2" d="M102.89,39.24v.5c-.28.1-.47-.24-.5-.25.09-.25.31-.2.5-.25Z"/>
      <path class="st4" d="M108.92,34.97c2.12.82,4.37,1.08,6.53,1.76l-1.12.76c-.21-.33-.18-.49-.62-.64-.96-.33-4.77-1.13-5.55-.75-.11.06-.32.32-.25.38l5.33.78c.17.19.78.72.95.73v.5c-.95-.09-2.14-.01-3.02,0l.5-.75c-1.01-.6-2.12,0-2.92-.03-.98-.05-2.11-.65-3-.23.2-.68-.24-.43-.62-.75,1.53-.45,2.43-1.44,3.77-1.76Z"/>
      <path class="st2" d="M123.5,38.48c0,.17,0,.34,0,.5,0,.09-.02.18,0,.25h-.75c.24.44.24.78.25,1.26h-.25l-.29-.97c-.31-.1-.64-.04-.97-.04l.06.44c.32.13.67.46.95.56v1.01c.04.06.39-.19.5-.25.17-.09.34-.17.5-.25-.25.21-.42.72-.95.81-.13.17-.02.38-.05.45-.27.08-.48.11-.75.25-1.04-.42-2.09-.04-2.51-1.51.86.17,1.44.06,2.26.5.01-.25-.01-.5,0-.75.12.1.26.33.25.5l.25-1h-.5c0,.17,0,.33,0,.5-.21-.17-.47-.27-.63-.5l-.26.52c-.32.03-.33-.25-.37-.27.15-.34.37-.66.5-1.01.25,0,.5,0,.75,0l.04-.45c.57-.15.98-.53,1.47-.8.14-.08.41-.29.48-.23l.02.48Z"/>
      <path class="st2" d="M113.19,42c.08-.01.17,0,.25,0,.23-.02.52-.02.75,0,.16.01.34-.02.5,0l-2.01.5.25-.5c.08-.01.17.01.25,0Z"/>
      <path class="st14" d="M114.45,41l-.25,1.01c-.23-.02-.52-.02-.75,0l.5-1.01c.16-.02.34.02.5,0Z"/>
      <path class="st14" d="M111.18,42.51c-.14.01-.48.2-.75.25v-.5s.63,0,.63,0l.13.25Z"/>
      <path class="st14" d="M104.9,44.77s-.05.39-.5.25c-.01-.3.36-.36.5-.5v.25Z"/>
      <polygon class="st9" points="118.97 41.25 118.97 41.5 118.6 41.5 118.23 41.12 118.97 41.25"/>
      <path class="st14" d="M109.93,42.76c-.15.03-.34-.02-.5,0l.37-.25.13.25Z"/>
      <path class="st2" d="M106.28,43.26c.16.08.16.17,0,.25v-.25Z"/>
      <path class="st14" d="M113.19,42c-.08.01-.17-.01-.25,0l.13-.25.13.25Z"/>
      <path class="st2" d="M67.7,100.82c-.07.33.13,1.03-.04,1.22-1.39.63-2.71,2.01-3.98,3.05-.45-.05-.83.06-1.01.5-.11.05-.39-.05-.51.17-.14.89-.78,1.11-.99,1.34l-.5-.25.87-1.01c1.75-1.05,3.1-2.68,4.66-4.02.36-.31.82-.51,1.01-1.01.14.02.35.01.5,0Z"/>
      <path class="st11" d="M60.67,106.85l.5.25c-.19.2-.21.31-.5.5-.45-.05-.84.05-1.01.5-.37.24-.68.53-1.01.75-.25.17-.51.34-.75.5-.1.06-.16.19-.25.25-.54.37-1.33.83-1.94,1.08l-.32.68c-.92.44-1.62.74-1.92,1.79-.75,0-1.49.4-2.1.72v-.25c2.98-1.86,6.22-4.97,9.3-6.79Z"/>
      <path class="st14" d="M57.65,109.61c-.16,1.49-1.38,1.34-2.26,1.76l.32-.68c.61-.25,1.4-.71,1.94-1.08Z"/>
      <path class="st14" d="M58.66,108.86h.5c.13.14-.74.97-1.11.75l-.14-.24c.25-.16.51-.34.75-.5Z"/>
      <path class="st14" d="M60.67,107.6c-.5.33-.86.41-1.01.5.17-.46.55-.55,1.01-.5Z"/>
      <path class="st14" d="M63.68,105.09c-.65.53-.49.28-1.01.5.18-.45.55-.55,1.01-.5Z"/>
      <path class="st2" d="M116.71,37.23c.38.08,1.83.15,2.01.25.02.01-.06.4.17.51.4.2,1.15.45,1.59.5l.5.25c-.07.17-.19.33-.25.5l-.76.25.25-.5c-.41-.13-.84-.17-1.26-.26l-.15.51h-1.11s0-.76,0-.76c.42.09.84.17,1.26.25l-2.76-1.26.5-.25Z"/>
      <path class="st2" d="M118.22,34.71c.69.22,1.91.32,2.01.37,1.24.57.8,1.49,3.02,1.89.02.08,0,.17,0,.25,0,.25-.14.53-.25.75-.16.03-.37-.04-.5,0-.17-.07-.33-.2-.5-.25-.85-.85-1.67-1.9-3.01-1.76v.74c.78-.04,1.39.52,2.01.76l.75.75c-.18.04-.28.23-.75.25-.16,0-.35.02-.5,0,.03-.73-.98-.96-1.51-1.26-.3-.17-1.15-.71-1.26-.75.58-.43.23-.79.25-1.01.02-.27.1-.52.25-.75Z"/>
      <path class="st2" d="M124.25,33.96c.31.78,1.09,1.35,1.01,2.26-.15.02-.86-.17-1.01-.25.05.39-.04.85,0,1.26-.32.11-.59-.23-.75-.25-.08-.01-.17.01-.25,0-.25-1.25-1.79-1.69-2.51-2.51,1.46-.26,2.14.25,3.27,1,.04.02-.15.28.25.5-.04-.28-.19-.37-.25-.5-.2-.5-.32-.77-.71-1.18-.04-.19.21-.3.21-.33.24.02.52-.03.75,0Z"/>
      <path class="st14" d="M120.23,33.96c.16.02.34,0,.5,0,.43-.02.84-.14,1.26-.25.37-.1.6-.45.75-.5.17-.06.53.04.75,0-.06.15.02.53,0,.75,0,.03-.25.14-.21.33.39.41.51.68.71,1.18-1.13-.75-1.81-1.26-3.27-1,.73.82,2.26,1.27,2.51,2.51-2.22-.4-1.78-1.33-3.02-1.89-.1-.04-1.32-.15-2.01-.37-1.36-.43-3.4-.93-4.64-1.52-.37-.18-.75-.16-.64-.74,1.94.44,4.36.75,5.7,2.27l1.43-.25c.26-.04.19-.31.16-.51-1.44-.17-3.3-1.71-4.85-1.99l-.42-.77c1.22.08,2.39.61,3.44,1.2.59.33,1.77.97,1.84,1.56Z"/>
      <path class="st14" d="M124.25,35.97c-.4-.22-.22-.48-.25-.5.06.14.21.22.25.5Z"/>
      <path class="st14" d="M123.25,37.23c0-.08.02-.18,0-.25.08.01.17-.01.25,0l-.25.25Z"/>
      <path class="st2" d="M127.27,33.46c.09.16.16.34.25.5.02.03.19.57.25.75v.75c-.18.44-.44,1.1-.65,1.48-.14.26-.56.94-.85,1.03l-.5-1.25,1-.25c-1.12-.08-.63-1.49-1.14-2.26l.14-.26c.98.37-.03,2.04,1.26,2.01l-.5-2.51c.2,0,.64-.05.75,0Z"/>
      <path class="st14" d="M123,28.43c.15.02.54.18.75.25.4.59,1.01.91,1.51,1.26.38.62.93,1.58,1.01,2.26h-.25l-4.03-3.4c-.38-.3.01-.35.01-.37.32.03.7-.05,1.01,0Z"/>
      <path class="st14" d="M126.26,33.46h.25l.5,2.51c-1.28.03-.27-1.64-1.26-2.01,0-.21.18-.35.25-.5h.25Z"/>
      <path class="st4" d="M125.26,29.94c.21.15.49.08.89.49.45.46,1.55,2.16.11,1.78-.08-.68-.63-1.64-1.01-2.26-.5-.34-1.11-.67-1.51-1.26.08.03.18-.03.25,0,.85.36.88.64,1.26,1.26Z"/>
      <path class="st10" d="M123,37.98v.25c-.48.27-.9.66-1.47.8l-.04.45c-.25,0-.5,0-.75,0,.03-.07-.03-.18,0-.25.06-.17.18-.33.25-.5v-.25c.47-.02.57-.21.75-.25.34-.08.52-.18.75-.25.13-.04.34.03.5,0Z"/>
      <path class="st2" d="M127.77,32.96c.4,0,.82-.05.97.41l.03,1.35c-.53.16-.6-.37-.75-.75-.13-.31-.15-.68-.25-1.01Z"/>
      <path class="st9" d="M125.26,36.22c.08-.91-.7-1.48-1.01-2.26,1.03.15,1.35,1.19,1.25,2.14l-.25.13Z"/>
      <path class="st9" d="M124,38.99l.25.25v.75c-.66,0-.64-.26-.75-.75-.02-.07,0-.17,0-.25h.5Z"/>
      <path class="st2" d="M124.25,39.24h.75c-.23.34-.17.71-.25,1.01h-.5v-1.01Z"/>
      <path class="st9" d="M127.77,32.96c.1.32.12.69.25,1.01h-.5c-.09-.16-.16-.34-.25-.5-.04-.52.06-.5.5-.5Z"/>
      <path class="st4" d="M123.5,38.48l.5.5h-.5c0-.17,0-.34,0-.5Z"/>
      <path class="st9" d="M127.77,35.47v-.75c.02.05.32.16.27.38,0,.28-.25.33-.27.38Z"/>
      <polygon class="st2" points="125.76 38.99 125.26 38.99 125.64 38.49 125.76 38.99"/>
      <rect class="st2" x="128.53" y="32.2" width=".25" height=".5"/>
      <path class="st2" d="M126.26,33.46h-.25c.07-.15-.14-.51.13-.51l.13.51Z"/>
      <path class="st10" d="M66.2,101.32c-.02.16.01.34,0,.5-1.56,1.34-2.91,2.97-4.66,4.02l-.87,1.01c-3.08,1.81-6.32,4.93-9.3,6.79s-7.42,3.92-10.56,5.28c.25-.33.26-.67,0-1.01,2.67-1.33,5.3-2.76,7.88-4.26.24-.12.16-.32.16-.52,1.7-.26,1.73-.68,3.02-1.51,1.5-.98,2.89-2.23,4.29-3.13.95-.61.49.45,1.24-1.14,1.87-.94,5.35-3.26,6.53-5.03.14-.04.35.03.5,0,.51-.09.75-.12.75-.75.28-.06.63-.34,1.01-.25Z"/>
      <path class="st10" d="M65.94,93.78c.27-.08.78-.11.94-.31l.69-2.7,1.13,1.26-.26.34c0,.18.46.3.51.42s-.06.41,0,.5l-1.15.24-.11,1.27-.46.03.21.97-.5,1h.5c-.01.08,0,.17,0,.25,0,.17,0,.34,0,.5.44.04.84-.17,1.26-.25.16-.03.36.04.5,0-.04.14.04.36,0,.5-.65.39-1.51.5-2.01,1.38l.5.12.5.5c-.26.33-.42.58-.5,1.01-.15.01-.36.02-.5,0-.11-.02-.44-.38-.75-.25.03-.14-.02-.34,0-.5h.5s-.13-.51-.13-.51c-.27.02-.35.25-.37.26-.15.03-.36-.04-.5,0-.51.14-1,.31-1.47.55-.13.18-.02.49-.04.7-.02.16,0,.34,0,.5,0,.08,0,.17,0,.25l-.48.03c-.1.11.02.41-.02.48-.31.09-.45-.01-.88.24-.64.38-4.99,3.71-5.4,4.17-.25.29-.17.44-.26.61-2.25,1.13-4.32,2.71-6.53,4.02-.15.09-.52.07-.82.25-.28.17-.6.86-1.19,1-.27.07-.7-.05-1.01,0-.08-.31-.32-.62-.25-1.01.13-.04.35.03.5,0,.15-.03.34.03.5,0v-.5c2.95-1.69,6.77-4.28,9.55-6.28,1.46-1.05,5.35-3.87,6.03-5.03.68-.28,1.94-.29,1.76-1.51-.24-.25-1.57.88-1.69,1.07s-.04.39-.06.44c-2.21.92-4.62,2.99-6.28,4.52-.13.12-2.34,1.17-3.04,1.61-3.91,2.44-7.86,4.77-12.04,6.43-.26-.5-.62-.5.12-.75.5-.17.43-.45.56-.51.86-.41,2.09.18,1.83-1.01,1.22-.34,2.43-1.02,3.7-1.58.09-.04,1.08-1.17,1.49-1.4.99-.56,1.62-.48,2.6-1.29l1.98-.91,6.97-4.84c1.48-1.01,4.2-1.56,3.87-3.81-.37.31-.88.48-1.25.75-.08-.25-.29-.23-.5-.25-.08-.66.98-.99,1.51-1.26v.5s.75,0,.75,0v-.75c.07-.03.18.03.25,0l.5-1.26h-2.26c.33-.1.68-.16,1.01-.25Z"/>
      <path class="st14" d="M64.18,99.81c-.68,1.15-4.57,3.98-6.03,5.03l-.25-.5c1.67-1.53,4.07-3.61,6.28-4.52Z"/>
      <path class="st9" d="M48.6,111.12v.5c-.16.03-.36-.03-.5,0l.03-.48c.11-.11.4.02.47-.03Z"/>
      <path class="st10" d="M83.79,78.95l-.25-.25.25.25Z"/>
      <path class="st10" d="M83.79,79.2c-.03-.07.03-.17,0-.25.06.04.2-.04.25,0l-.25.25Z"/>
      <path class="st10" d="M76.75,80.46s.14.39.5.25c-.02.16.03.36,0,.5-.75-.03-1.51.04-2.26,0l.02-.48c.54.05,1.27-.34,1.74-.27Z"/>
      <path class="st10" d="M72.48,64.62l.5.5c-.5,1-.67,2.57-1.51,2.77l.72.91c.12.34-.01.76.03,1.1h-.5s0,.37,0,.37l.5.13c0,.08-.01.17,0,.25h-.75c-.19.71.39.47.75.75.53.41.32.34.5.75-.27-.06-.89.33-.75.5l1,.25c.14.5-.13,1.09.63,1.5-.23-.47.13-.95.12-1h1.51s0,1,0,1l-1.26.25,1.71.3.32,1.06-.52.4,1.76.25-1.49-3.47c.17-1.1-.43-.73-.52-.8-.24-1.11-.48-1.85-.5-3.02,0-.5,0-1.01,0-1.51h.75s-.26.86-.26.86l.51.33v.82s.51-.19.51-.19v-.56s1.76.25,1.76.25c.27.74.07,1.34.75,1.7v.81s.76,0,.76,0h.25c-.02.27-.04.55,0,.82l.56.88.65.1.83,1.95.82.04.4-.51,1.01,2.84c-.42.12-.44.6-.51.68-.03.03-.46.46-.5.5-.09.08-.64.04-.63.5l-.63-1v1.51s-.38-.76-.38-.76l-1.38.26v.75s2.31-.02,2.31-.02l.71-1.24.75.25c.1.27.34.65.5,1.01-.16-.02-.36.04-.5,0-.16-.04-.35-.28-.59-.2-.29.07-.36.43-.41.45-.36.16-1.9,1.01-2.01,1.01.05-.2.34-.44.25-.75-.42-.01-.84.01-1.26,0,.07.18-.03.49.24.64.23.16.51.11.76.12-.25,1.08-.37,2.17-.51,3.27l-.25-.75c-.05-.07-.79.2-1,.25,0-.17,0-.34,0-.5-.73.05-1.48.05-1.25,1,.45-.43.76-.37,1.25-.5.01.24.03.52,0,.75-.44.02-1.46.05-1.26.75.77-.07,1.16.04,1.26-.75,1.13-.05.64.42.75.5l-.75.75c-.65.18-1.17.6-1.84.74l-.42.65,1,.12c.06.71-.65,1.03-1.26,1.01l.4.72.85-.21-.02.98-.73.02c.03.12.25.21.26.25.01.11,0,.21-.13.25-.28.05-.62-.05-.88,0l-.26-2.01-1.25.25v-.5c.21,0,.59.08.71-.04l.54-1.1-1-.25.77-.29c-.04-.42.08-.72.24-1.09.38-.89.14-.51.25-1.01.04-.2.18-.51.25-.75.12-.39.22-.7.5-1.01.03,0,.16-.31.35-.24l.54.76,2.13-.62.22-1.13-.73-.02v.5c-.37.21-.54.03-.75,0l.25-.5c.17,0,.34,0,.5,0l-.04-.7c-.38,0-.67-.21-.96-.31.42,0,.84-.01,1.26,0-.04-.1.07-.36-.02-.47l-1.74-.4.5.88c-.4-.14-.97-.14-1.26-.25-.03-.01-.1-.39-.5-.25v-.58s-.63-.42-.63-.42l-.12.75h-2.26s1-1,1-1h-2.26s-.25-1.01-.25-1.01c.5.3,1.67.35,2.01-.25l-1.83-.05-.68-.58,1.25-.38-1.5-.88,1.25-1.13-1.65-.24-.36-.77c.24-.21,1.78.46,1.51-.5-.58.09-1.58-.12-1.95-.57-.12-.15-.03-.39-.06-.43.48.03,1.76.27,1.51-.5h-1.01s.25-.75.25-.75h-1.01s-.5-1.76-.5-1.76c.25,0,.5,0,.75,0l-.74-.65.24-.85.76-.13c-.14-.4-.72-.12-.76-.13-.08-.02-.19-.24-.25-.25.2-.81.43-.86,1.26-.76l-.03-.89,1.78-1.12ZM76.5,71.91v-.5h-.25v.5h.25ZM77.25,73.42v-.62s-.75-.38-.75-.38v.62s.75.38.75.38ZM78.26,72.92c-.9-.14-.76,1.13-.49,1.62l-.51.14.9.75-.15.75,1.26.76c.11-1.48-1.72-2.54-1-4.02ZM74.49,75.68c-.08-.34-.76-.95-1.01-.75l.28.72.73.03ZM75.24,76.69l-1.25-.25v.5s1.13.26,1.13.26l.13-.5ZM79.64,76.94v.25c.16-.08.16-.17,0-.25ZM75.49,77.69h-.37s-.38.5-.38.5l.88.25-.13-.75ZM76.75,78.45h-.5v.25h.5v-.25Z"/>
      <path class="st10" d="M73.23,65.88v.5s.5-.5.5-.5c.25.01.5-.01.75,0-.73,1.28-.15,2.27,0,3.52.06.5-.11,2.06,0,2.26.28.98-1.27.1-1,.88s1.15-.25,1.25-.12l.25.63-1.26.12c-.11-.49-.71-1.36-.89-2.25-.19-.93-.84-3.92.39-4.04l-.48-.27c.12-.21.13-.53.23-.73h.25ZM73.48,67.39h-.5v.5h.5v-.5ZM73.73,69.15h-.5v.25h.5v-.25ZM73.99,69.9l-1,.25v.25s1,0,1,0v-.5ZM74.24,71.16l-1,.12.38.38h.62s0-.5,0-.5Z"/>
      <path class="st9" d="M75.75,67.64l1.48.29.03.72.13.25.13-.25c.46.1.39.44.5.75l-1.75-.25v.56s-.51.19-.51.19v-.82s-.51-.33-.51-.33l.26-.86v-.25c.08.01.17-.02.25,0Z"/>
      <path class="st10" d="M75.49,67.64c-.18-.02-.44-.45-1,0l.65-1.49,1.1.61-.5.88c-.08-.02-.17.01-.25,0Z"/>
      <path class="st11" d="M79.77,71.91h-.25l.13-1.76c.73.63.15,1.4.13,1.76Z"/>
      <path class="st11" d="M75.24,72.41c-.21-.2-.21-.46-.35-.65-.11-.15-.4-.08-.41-.1-.11-.2.06-1.76,0-2.26h.25c.02,1.16.26,1.91.5,3.02Z"/>
      <path class="st11" d="M82.28,73.42l.5-.5c-.14.65.53.41.7.56.16.14.03.41.06.45-.53.04-1.06.08-1.26-.5Z"/>
      <polygon class="st11" points="81.53 73.67 81.9 73.67 82.28 74.05 81.9 74.42 81.53 74.04 81.53 73.67"/>
      <path class="st9" d="M82.28,72.41c-.03.2-.02.54,0,.75-.16.02-.37-.04-.5,0v-.75s.5,0,.5,0Z"/>
      <path class="st11" d="M73.74,65.88l-.5.5v-.5c.08,0,.17,0,.25,0s.17,0,.25,0Z"/>
      <path class="st9" d="M73.48,65.88c-.08,0-.17,0-.25,0h-.25c.16-.32.41-.38.5-.5v.5Z"/>
      <rect class="st10" x="82.28" y="74.43" width=".25" height=".5"/>
      <polygon class="st10" points="77.25 68.64 77.51 68.64 77.38 68.89 77.25 68.64"/>
      <path class="st11" d="M103.9,43.01l-3.45,2.48c-.73.22-1.03-.47-1.45-.47-.31,0-.62.43-1.03.5-.51.09-1.48-.24-2.11,0,.03-.27.11-.52.25-.75.29-.04.7.2,1.03.12.73-.17,2.09-1.6,3.14-1.64l.51.53,1.19-.26.17-.75c.1-.12,1.54.24,1.75.24ZM100.12,44.02h-.5v.25h.5v-.25ZM99.25,44.27v.25c.16-.08.16-.17,0-.25Z"/>
      <path class="st14" d="M96.1,44.77c-.14.23-.22.49-.25.75-.02.16,0,.34,0,.5-.73.07-1.11.36-1.76.5.11-1.13-1.56-.11-2.01-.25-.55-.45,3.61-1.45,4.02-1.51Z"/>
      <path class="st4" d="M96.36,46.02h.25v.5s-.63,0-.63,0c-.23.01-.12-.34-.13-.5.16-.02.34.01.5,0Z"/>
      <rect class="st14" x="101.63" y="45.02" width=".5" height=".25"/>
      <polygon class="st11" points="96.61 46.02 96.36 46.02 96.48 45.78 96.61 46.02"/>
      <path class="st9" d="M67.7,90.26l.29.47.85-.19.62.48c-.05.04-.21.98-.75,1.01l-1.13-1.26-.69,2.7c-.17.2-.67.23-.94.31l-.11-1.25c-1.48.72-2.91,1.56-4.41,2.25-1.64.75-2.82,1.21-4.52,1.76-.34.11-.84.13-1.26.25v-.75c.08-.02.17.02.25,0,.41-.09.82-.2,1.23-.29l.03-.47c.08-.01.17,0,.25,0,.32-.04.67.08.98-.03l.02-.47c1.03-.35,2.47-1.3,3.52-1.76,1.96-.85,4.08-1.4,5.78-2.76Z"/>
      <path class="st2" d="M61.92,93.02c-1.05.45-2.49,1.4-3.52,1.76-.23.08-.71-.06-1.01,0v.5c-.08,0-.17-.01-.25,0-.38.05-.75.07-1.11.23l-.15.53c-.08.02-.17-.02-.25,0-1.91.47-4.19,1.26-5.71,2h-.83s.25.76.25.76l-1.12.24-.39-.61,1-.38c.14-.41-.96-.1-.24-.62.79-.57,3.29-1.52,4.26-1.89.27-.1.89-.05,1.39-.24,1.07-.4,4.91-2.26,5.64-2.28.04,0,.24.37.48.24l.02-.49h.25l1.26.25Z"/>
      <path class="st2" d="M65.69,88.5v.5c-1.36.51-2.62,1.25-4.02,1.76-2.81,1.03-5.95,1.64-8.61,2.57-.37.13-.58.59-.85.65-.8.17-.76-.6-.84-.71.1-.06.17-.21.25-.25.91-.44.63-.91,1.78-.6.27-.05.63-.42.74-.65,4-.51,7.76-2.03,11.56-3.27Z"/>
      <path class="st9" d="M67.95,88.5c-.04.13.07.38,0,.58l-.49.29c.05.14.2.27.23.38-.16-.03-.37.04-.5,0-.07-.02-.16-.25-.37-.24-.36.02-1.8.71-1.64,1.25-1.46.57-3.39.99-4.52,2.01h-.25l-.5.25c-.73.02-4.57,1.87-5.64,2.28-.5.19-1.12.13-1.39.24l-.51-.63c3.32-1.11,6.68-2.35,9.93-3.64l-.63-.5c1.4-.51,2.66-1.25,4.02-1.76.6-.23,1.6-.47,2.26-.5ZM63.93,90.51l-1.25.25v.25c.48.04,1.1.07,1.25-.5Z"/>
      <path class="st2" d="M61.42,94.78v.75c-2.11.97-4.17,2.05-6.28,3.02-2.21,1.01-4.42,2.23-6.77,2.9-.66.19-1.44-.06-1.9.62l.38-1c.43-.09.82-.17,1.26-.25.09-.02.21.03.34,0,.16-.05.12-.44.34-.49l1.04-.06c.12-.09.01-.42.04-.45.02-.02.48-.24.5-.25,1.37-.37,2.75-1.06,4.19-1.72.74-.34,1.8-.74,2.35-1.29,1.71-.55,2.89-1.01,4.52-1.76Z"/>
      <path class="st10" d="M56.9,96.54c-.55.55-1.61.95-2.35,1.29-1.44.66-2.81,1.36-4.19,1.72l-.63-.5c1.05-.8,1.98-.91,3.14-1.26.69-.21.92-.38,1.26-.5.4-.14,1.15-.4,1.51-.5.42-.12.92-.14,1.26-.25Z"/>
      <path class="st11" d="M49.86,99.81s.08.36-.04.45l-1.04.06c-.22.05-.18.44-.34.49-.13.04-.24-.01-.34,0l.03-.72,1.73-.28Z"/>
      <path class="st9" d="M54.13,97.3c-.34.12-.56.29-1.26.5l.03-.46c.36-.03,1.06-.47,1.22-.04Z"/>
      <rect class="st2" x="50.36" y="95.79" width=".5" height=".5"/>
      <path class="st14" d="M64.69,97.05c.37-.27.89-.45,1.25-.75.33,2.25-2.39,2.79-3.87,3.81l-6.97,4.84-1.98.91c.57-.47,1.22-1.25,1.89-1.77.6-.46.44.1.88-.75.75-1.44,2.83-2.63,4.52-2.52l.13-1.01c.33-.48,3.44-1.89,4.09-2.33.13-.09.04-.41.07-.43Z"/>
      <path class="st9" d="M63.93,96.79c.08,0,.17,0,.25,0,.21.02.43,0,.5.25-.03.02.06.34-.07.43-.65.44-3.76,1.84-4.09,2.33l-.13,1.01c-1.69-.11-3.76,1.08-4.52,2.52l-2.51.5v-.25c.08-.04.25-.55.52-.6l3.88-1.91c.4-.32-.19-.26-.37-.25-.12-.54.29-.54.62-.75,1.36-.87,2.77-1.7,4.16-2.51.31.71.56-.07.75-.25.15-.14.14-.38.5-.5l.37.25.13-.25ZM59.79,100.31v.25c.16-.08.16-.17,0-.25Z"/>
      <path class="st9" d="M64.94,94.03h2.26s-.5,1.26-.5,1.26c.16-.82-.6-.5-1.02-.39-1.05.27-2.01,1.14-3,1.65-.89.46-1.75.9-2.57,1.34s-1.77,1.09-2.71,1.18l.25.5c-1.04-.06-1.5.55-2.51.76-.04,0-.26-.45-.5.25-.08.01-.17-.01-.25,0-.44.05-.93.31-1.26,0,.88-.48,1.81-1.2,2.77-1.63l-.76-.38c2.11-.96,4.17-2.05,6.28-3.02,1.3-.6,2.2-1.09,3.52-1.51Z"/>
      <path class="st14" d="M57.4,100.82c.18,0,.77-.07.37.25l-3.88,1.91c-.27.05-.44.56-.52.6-2.49,1.33-5.25,2.34-7.79,3.52l-.26-.6c.31-.2.51-.38.77-.65,3.21-.66,5.92-2.96,8.8-4.27.93-.42,1.46-.7,2.51-.75Z"/>
      <path class="st2" d="M54.89,100.56v1.01c-2.88,1.31-5.59,3.61-8.8,4.27.04-.04-.1-.33.04-.46.27-.25,1.46-.1,1.22-1.3,1.57.01,4.51-2.23,6.28-2.51h.75s0-.5,0-.5v-.5c.08-.01.17.01.25,0s.17.02.25,0Z"/>
      <path class="st10" d="M53.13,100.56c.33.31.82.05,1.26,0v.5h-.75s0,.5,0,.5c-1.78.29-4.72,2.52-6.28,2.51-.17,0-.34,0-.5,0v-.25c.28-.08.56-.09.82-.24.18-.11.29-.35.44-.51.47-.1.86-.08,1.33-.28.3-.13,1.56-.73,1.44-1.22.22-.04.51.03.75,0,.16-.02.34.02.5,0v-.5c.38-.21.72-.34,1.01-.5Z"/>
      <path class="st9" d="M50.86,101.57c.12.5-1.14,1.09-1.44,1.22-.46.2-.85.18-1.33.28.56-.63,1.68-1.29,2.76-1.51Z"/>
      <path class="st9" d="M46.84,103.83v.25c.1.83-1.07.72-.76-.12.07-.28.55-.07.76-.13Z"/>
      <path class="st9" d="M52.12,101.07v.5c-.16.03-.34-.02-.5,0-.16-.72.34-.41.5-.5Z"/>
      <polygon class="st2" points="46.59 102.83 46.09 102.7 46.59 102.32 46.59 102.83"/>
      <path class="st2" d="M42.82,107.6s.04.29-.25.25v-.5s.25.25.25.25Z"/>
      <path class="st10" d="M59.41,82.72c.29-.05.68.01,1.01,0-.17.92.23.79.93.89.5.08,1.44.12,1.96.13.82.01.65,0,.63-.77,1.08.04,2.18-.03,3.27,0,.49.01,1.05-.06,1.51,0,.1.01.45.38.75.25,0,.08,0,.17,0,.25s0,.17,0,.25l-9.3.75-.03-.47c-.4-.05-.85-.26-1.23-.29-.09-.16-.15-.35-.25-.5.12-.42.38-.44.75-.5Z"/>
      <path class="st9" d="M68.21,85.48c-1.19.21-2.35.72-3.52,1.01-2.54.62-5.19,1.26-7.79,1.51l.75-.5c-.39-.32-1.76.68-1.76-.13,0-.07.86-.35,1.01-.38,2.23-.39,4.54-.63,6.79-1.01,1.39-.23,2.78-.52,4.17-.73.43,0,.34.22.35.23Z"/>
      <path class="st14" d="M70.72,83.22l.13.51.13-.51c.15.03.34-.02.5,0,.27.04.56.22,1.01.25v.74c-1.08.26-1.94.4-3.02.52-.1.61-.04.97-.75,1.26-.16-.14-.34-.41-.5-.5-.02-.01.07-.22-.35-.23-1.39.21-2.78.5-4.17.73-.14-.66.33-.51.75-.62,1.8-.47,3.28-.44,5.03-.64.04-.23-.02-.51,0-.75h.75s0-.5,0-.5v-.25c.16.01.34-.02.5,0Z"/>
      <path class="st14" d="M58.91,83.72c.38.03.83.24,1.23.29l.03.47-2.26-.75c.33.01.67-.03,1,0Z"/>
      <path class="st9" d="M70.22,83.47v.5s-.75,0-.75,0c0-.08,0-.17,0-.25s0-.17,0-.25h.75Z"/>
      <path class="st14" d="M117.97,35.47c-.02.21.33.57-.25,1.01-.22-.09-.52-.17-.75-.25.14-.55-.45-.68-.83-.8-1.17-.35-2.78-.42-3.99-.79-.24-.07-.96-.35-.96-.67,2.37-.19,4.51,1.08,6.78,1.51Z"/>
      <path class="st9" d="M116.96,36.22c.24.08.53.16.75.25.11.04.96.59,1.26.75l-.25.25c-.18-.11-1.63-.17-2.01-.25.08-.25-.23-.42-.25-.5-.04-.13.03-.35,0-.5.14.04.37-.04.5,0Z"/>
      <path class="st4" d="M113.7,68.39c.26.26.97.03.75.75l-.72-.22c-.13.75-.61.81-1.28.73.03-.03-.08-.3.06-.44.24-.25.91-.5,1.2-.82Z"/>
      <path class="st8" d="M116.46,69.4c-.12.41-.23.82-.25,1.26-.3.05-.49.12-.75.25-.07-.49.55-.99-.16-1.07l-.09-.69c.42.09.83.17,1.26.25Z"/>
      <path class="st4" d="M110.43,70.15l-.25.5c-.31.13-.64-.23-.75-.25v-.25c.33.01.68.02,1.01,0Z"/>
      <polygon class="st4" points="115.71 68.14 115.71 68.64 114.7 68.64 114.7 68.4 115.71 68.14"/>
      <path class="st4" d="M111.69,70.15c-.16.08-.21.38-.5,0,.04,0,.22-.67.5,0Z"/>
      <rect class="st8" x="114.2" y="67.39" width=".75" height=".25"/>
      <path class="st9" d="M76.25,84.98c-.11.5.13.11-.25,1.01-.38-.08-.71.18-1.01.25-.21.05-.5-.04-.8.07-.99.36-1.56,1.27-2.71.69-.02.33.02.67,0,1-.55,0-1.17-.25-1.73-.3l-.16-.72h-.88s.15.78.15.78l-.65.24c-.66-.55-1.78.26-2.51.5-3.8,1.24-7.56,2.75-11.56,3.27.05-.12-.11-.5.04-.7l1.82-.53.15-.53c.85-.12,1.33-.39,2.01-.5s1.57-.1,2.26-.25c.93-.2,1.84-.39,2.76-.63l2.26-1.13c.23-.04.52.04.75,0,.86-.14,1.43-.44,2.26-.51l-.5-.5c.2-.04.43-.25.75-.25,1.42-.02,2.83.52,4.58-.07.57-.19,1.14-.99,1.7-.94.06,0,.28.32.6.27l.66-.52Z"/>
      <path class="st11" d="M68.21,85.48c.16.09.34.37.5.5v.25c-.32,0-.55.22-.75.25-.7.12-1.77.09-1.76,1.01-.23.04-.52-.04-.75,0-.16.03-.35-.03-.5,0l-.25-1.01c1.17-.29,2.32-.79,3.52-1.01Z"/>
      <path class="st14" d="M64.94,87.49c.16-.03.35.03.5,0l-2.26,1.13c-.92.24-1.84.43-2.76.63l.25-.5c.24-.01,3.35-1.08,4.27-1.26Z"/>
      <path class="st11" d="M60.67,88.75l-.25.5c-.69.15-1.58.14-2.26.25l.03-.46c.51,0,1-.42,1.42-.5.57-.11.91.21,1.06.21Z"/>
      <path class="st9" d="M55.89,88.25l-.75-.25c.56.02.61.21.75.25Z"/>
      <path class="st11" d="M57.02,89.25c.16.08.16.17,0,.25v-.25Z"/>
      <path class="st14" d="M122.49,32.7c-.15.11-.37.46-.5.5-.19.06-.58-.07-.75,0-.78-1.37-2.52-1.7-3.71-2.45-.46-.29-.35-.23-.31-.82.31-.34,4.82,2.21,5.28,2.76Z"/>
      <path class="st2" d="M121.99,33.21v.5c-.41.12-.82.23-1.26.25-.12-.33.22-.65.5-.75.18-.07.56.06.75,0Z"/>
      <path class="st11" d="M122.75,33.21c-.15.06-.39.4-.75.5v-.5c.13-.04.35-.39.5-.5.13.16.26.27.25.5Z"/>
      <path class="st11" d="M123.12,32.7c.16.08.16.17,0,.25v-.25Z"/>
      <path class="st2" d="M114.2,37.98c.26.01.68-.28,1.1-.23.32.04,2.19.4,2.17.6l-.88.66c-.73.06-1.79-.47-2.39-.53v-.5Z"/>
      <path class="st11" d="M48.85,112.63c0,.17,0,.34,0,.5-.64.1-.65,0-1.01,0-.02-.16.03-.36,0-.5.31-.05.73.07,1.01,0Z"/>
      <path class="st11" d="M81.78,47.28l.25.13v.37s-.5.26-.5.26h-.25c-.06-.17-.21-.34-.25-.5.23-.04.59-.09.75-.25Z"/>
      <path class="st10" d="M81.02,49.79c-.21.09-.79.9-1.01.25.33-.11.68-.16,1.01-.25Z"/>
      <rect class="st14" x="79.01" y="49.55" width=".5" height=".25"/>
      <path class="st14" d="M61.17,60.35l1.24-.24c-.05.32.16.51.26.75.15.35.16.41.25.75.36-.1.52.14.75.25v.5s-.5,0-.5,0c0-.06-.19-.53-.25-.75l-.78,1.24c-.24-.07-.47-.2-.73-.24-.06-1.01.64-.67.75-1.62l-1-.39c0-.08-.01-.17,0-.25Z"/>
      <path class="st14" d="M68.71,61.1c.03.24-.05.55,0,.75h-.5s0,.75,0,.75c-.08,0-.17.01-.25,0-.32-.04-.79-.41-1.26-.25-.12-.26-.37-.49-.5-.75.24.04.51-.03.75,0,.18.03.46.4.77.15l.24-.9.75.25Z"/>
      <path class="st14" d="M64.18,60.1c-.06-.18-.26-.37-.24-.61l.37-.4.14.73c.24.08.49,0,.74.02s.53-.04.75,0c.06,0,.86.27.75.5l-1.76-.25c-.24.44.57.73.75.75v.25h-.75c-.08-.16-.29-.3-.5-.75l-.25-.25Z"/>
      <path class="st10" d="M64.44,63.37c0,.25,0,.5,0,.75l-.75.25.5.62c-.06.08-.25.11-.25.13-.45.05-.83-.06-1.01-.5v-1.26c.08,0,.17,0,.25,0,.4.03.89-.06,1.26,0Z"/>
      <path class="st10" d="M63.68,61.86c.1.05.41-.1.52.16.12.27.18.56.23.84.75.07,1.51.04,2.26.25-.35.24-.79.36-1.01.75-.1-.05-.37.05-.5,0-.05-.02-.11-.39-.75-.5,0-.16.03-.36,0-.5-.43-.04-.84-.12-1.26-.25-.01-.08.01-.17,0-.25h.5s0-.5,0-.5Z"/>
      <path class="st2" d="M61.17,60.35c.02-.13-.08-.36.03-.47l1.73-.29-.25,1.25c-.1-.23-.31-.42-.26-.75l-1.24.24Z"/>
      <path class="st14" d="M66.95,63.37c-.02.23-.35.65-.25,1.01-.08-.03-.18.03-.25,0-.06-.1-.14-.21-.25-.25-.07-.03-.18.03-.25,0-.14-.06-.21-.23-.25-.25.22-.4.66-.51,1.01-.75.09-.06.16-.18.25-.25.02.15.01.35,0,.5Z"/>
      <path class="st10" d="M65.69,61.1h1.26v.5c-.24-.03-.52.04-.75,0-.07-.01-.26-.33-.6-.27l-.65.53c-.05-.21.07-.62,0-.75h.75Z"/>
      <path class="st10" d="M67.95,62.61l-.24.64-.76.12c.01-.15.02-.36,0-.5-.02-.12-.18-.35-.25-.5.46-.16.94.21,1.26.25Z"/>
      <path class="st10" d="M65.94,59.35v.5c-.23-.04-.51.02-.75,0v-.25l.25-.25s-.03-.18,0-.25c.19-.02.41.24.5.25Z"/>
      <path class="st14" d="M61.17,60.85c-.01.17.01.34,0,.5h-.5c-.01-.25,0-.5,0-.75l.5.25Z"/>
      <rect class="st2" x="62.93" y="60.1" width=".5" height=".25"/>
      <polygon class="st14" points="65.44 59.35 65.19 59.6 64.94 59.35 65.44 59.35"/>
      <path class="st10" d="M64.44,60.35c-.03-.07-.22-.15-.25-.25l.25.25Z"/>
      <path class="st10" d="M123,28.43c-.31-.05-.68.03-1.01,0,.04-.19-.12-.51.13-.51l.88.51Z"/>
      <path class="st2" d="M116.71,70.66c.05.33.41.87.75,1.01v.25c-.4-.27-.72-.47-1.22-.55-.12-.12-.05-.51-.04-.71.15-.02.35,0,.5,0Z"/>
      <path class="st4" d="M117.47,71.66c.25.11,1.48.8,1.51.88.16.47-.15.48-.5.22-.27-.2-.64-.6-1.01-.85v-.25Z"/>
      <path class="st4" d="M120.23,73.67c-.23.32-.54.35-.75,0,.19.04.53,0,.75,0Z"/>
      <path class="st13" d="M57.9,62.11l.38-.51.13.51-.38.76c-.27,0-.06-.54-.13-.76Z"/>
      <path class="st14" d="M60.67,62.61c-.05-.18-.26-.39-.24-.63l.49-.37v1s-.25,0-.25,0Z"/>
      <path class="st9" d="M80.27,85.99l-.25.13c0,.13,0,.25,0,.37.25,0,.5,0,.75,0v.5s-.63,0-.63,0c-.14-.05-.13-.38-.12-.51-.17,0-.34,0-.5,0v-.25c.06-.12.31-.46.25-.5.02.02.48.24.5.25Z"/>
      <path class="st11" d="M79.77,85.74c.05.05-.19.39-.25.5-.08.15-.26.27-.28.49-.07.05-.21-.24-.22-.24l.75-.75Z"/>
      <path class="st10" d="M78.51,91.01l-.23-.13c.04-.11.18-.08.23-.12v.25Z"/>
      <path class="st2" d="M76.75,91.52v.25c-.65-.13-.4.25-.5.5-.3.11-.68.16-1.01.25.04-.14-.04-.37,0-.5.36-.18,1.11-.7,1.18-.71.19-.04.3.21.33.21Z"/>
      <path class="st4" d="M66.2,69.65c.09.08.16.17.25.25l-.75,1c.15.03.44-.05.5,0,.28.21.43.78,1.01,1.01v.5c-.32-.05-.68.03-1,0v.63c.07.17,1.07.6,1.26.63v.5c-.32-.03-.68-.23-1.01-.25-.41-.03-.6-.08-.5.37.06.27.34.06.5.13.47.19,1.18.72,1.51.75v.5c-.05,0-.29.31-.5.25v-.5s-1,0-1,0v.37c.06.23.76.3,1,.38.53.17.72.18,1.26.25l.25.75c-.39-.03-.86-.02-1.26,0-.25.01-.5-.01-.75,0,.04.43.46.4.75.5.54.18.96.2,1.51.25v.5c.37.16.66-.24.75-.25.4-.05.85.04,1.26,0,0,.17,0,.34,0,.5h-3.77c1.11,1.13,3.04,1.21,4.52.75.13-.04.35.03.5,0-.23.92-3.18.75-4.02.76-.06.37.44.35.7.42.39.11,1.17.3,1.56.33v.25c-.2.03-.48.29-.75.25v.25c.51.17.96.23,1.51.25v1.26c-.16-.02-.35.03-.5,0-.08-.02-.17.01-.25,0-.16-.02-.34.01-.5,0l-.13-.51h-.63c-.02.17.01.34,0,.51-.3.13-.65-.24-.75-.25-.17-.39-.51-.67-.75-1.01-.61-.81-.19-.21-.75-.5-.02-.01-.23-.45-.25-.5-.42-1.09-.34-.53-.5-.75-.03-.05-.49-.95-.5-1.01-.03-.11,0-.34,0-.5,0-.41,0-.78.23-1.15l-.43-.23c.16-.46.04-.93-.05-1.39-.06-.29-.21-.55-.25-.75-.08-.43-.19-.82-.25-1.26-.02-.16.02-.34,0-.5-.03-.26-.21-.58-.25-1.01-.02-.16.02-.34,0-.5-.08-.81.05-1.69,0-2.51.4.06.94.25,1.26.25Z"/>
      <path class="st2" d="M63.18,78.7c.63.13,1.86,1.18,2.76.5.02.06.47.96.5,1.01l-7.1-1.01c-.28-.24-.38-.48-.7-.75.89-.65,2.2.04,3.18.23.45.09.98-.05,1.35.03Z"/>
      <path class="st2" d="M65.19,80.71v.5h-1.01c-1.13,0-2.41.09-3.52,0-.34-.03-1.26-.14-1.51-.25-.31-.13-.8-.63-.75-1.01,2.22.66,4.51.65,6.79.75Z"/>
      <path class="st11" d="M66.95,80.96c.02.06.23.49.25.5l-.25.5c-.67-.08-1.46-.47-1.76-.5v-.75c.61.03,1.16.17,1.76.25Z"/>
      <path class="st14" d="M58.66,78.95s.16-.04.25.13l-.13.13-.37-.25h.25Z"/>
      <path class="st10" d="M58.66,78.95h-.25l.13-.25c.16.01.12.24.13.25Z"/>
      <path class="st14" d="M82.78,80.71l-1.02.92c-.04.32.27.54.27.58,0,.4-.06.76-.16,1.14l.16.12c-.4.38-.55.44-1.02.68v1.33s.01.25.01.25l-.25.25c-.16-.02-.37.04-.5,0-.03,0-.48-.23-.5-.25-.11-.08.37-.56-.75-.5-.09.8-.48.68-1.26.75-.2-.71.82-.73,1.26-.75.03-.23.01-.52,0-.75-.49.13-.8.07-1.25.5-.23-.95.53-.96,1.25-1,0,.17,0,.33,0,.5.21-.06.96-.33,1-.25l.25.75c.13-1.09.26-2.18.51-3.27.11,0,1.65-.84,2.01-1.01Z"/>
      <path class="st10" d="M84.29,81.46h.5c.03.06-.03.18,0,.25-1.06.48-.89,1.33-1.26,2.01-.02.05-.18.19-.25.25-.04.04-.19-.04-.25,0-.1.06-.17.21-.25.25-.26.13-.68-.26-.5.75l-.38-.25-.88.75v-1.33c.46-.25.61-.3,1.01-.68.56-.53,1.62-1.23,1.51-2.01.16-.05.53,0,.75,0Z"/>
      <path class="st10" d="M80.52,88.75c-.12.12-.4-.23-.13-.25.09,0,.18.19.13.25Z"/>
      <path class="st10" d="M82.28,86.49c-.12.12-.4-.23-.13-.25.09,0,.18.19.13.25Z"/>
      <path class="st10" d="M81.65,85.74c.16.08.16.17,0,.25v-.25Z"/>
      <path class="st9" d="M80.77,85.99l.25-.25-.25.25Z"/>
      <path class="st2" d="M121.87,74.68c.16.08.16.17,0,.25v-.25Z"/>
      <path class="st2" d="M59.66,74.68c1.08.5,3.63.27,4.42,1.51l1.61-.25c.09.46.21.93.05,1.39l.43.23c-.22.37-.24.73-.23,1.15-.52-.11-.99-.36-1.51-.5v-.5c.3.05.68-.04,1,0l-.44-1c-1.5-.32-3.28-.48-4.72-1.01-.48-.18-.54-.46-.62-.5v-.5Z"/>
      <path class="st4" d="M64.44,77.69v.5c-.61-.17-1.05-.15-1.51-.25-.91-.21-2.5-.46-3.27-.75-.13-.05-.34-.4-.5-.5v-.25c1.76.18,3.6.95,5.28,1.26Z"/>
      <path class="st11" d="M59.16,76.69h-.25c0-.08,0-.17,0-.25h.25v.25Z"/>
      <path class="st11" d="M59.03,75.43c.16.08.16.17,0,.25v-.25Z"/>
      <path class="st2" d="M65.19,73.92c.06.44.17.83.25,1.26-1.49-.3-3.45-.72-4.85-1.31-.52-.22-.88-.68-.93-.7.02-.13.13-.23.25-.25,1.26-.19,3.77,1.43,5.28,1.01Z"/>
      <path class="st9" d="M66.7,59.35l.05.44c.57-.25.27.15.96.32s1.3.34,2.01.25l-1,.75-.75-.25-.24.9c-.3.26-.58-.12-.77-.15v-.5l.5-.25c-.56-.06-1.22.07-1.76,0-.18-.03-.99-.31-.75-.75l1.76.25c.11-.23-.69-.49-.75-.5v-.5c.23.04.51-.03.75,0Z"/>
      <rect class="st2" x="66.7" y="58.84" width=".5" height=".5" transform="translate(7.68 125.89) rotate(-89.85)"/>
      <path class="st14" d="M84.29,80.46c.15.34.32.69.5,1.01h-.5c-.46-.23-.61-.48-.5-1.01.14.04.34-.02.5,0Z"/>
      <path class="st14" d="M85.17,80.96c.16.08.16.17,0,.25v-.25Z"/>
      <path class="st9" d="M64.44,78.2c.52.14.98.39,1.51.5,0,.16-.03.39,0,.5-.91.68-2.14-.37-2.76-.5l-.5-.26.25-.5c.46.11.89.09,1.51.25Z"/>
      <path class="st14" d="M59.66,77.19v.5s-1.01,0-1.01,0c.15-.35.26-.61.25-1h.25c.16.11.37.45.5.5Z"/>
      <path class="st11" d="M83.03,83.98v.5s-.25-.25-.25-.25c.08-.04.16-.19.25-.25Z"/>
      <path class="st11" d="M83.29,83.98c.07-.06.23-.21.25-.25l-.25.25Z"/>
      <path class="st10" d="M60.67,81.21v.75c-.46-.07-1.02.05-1.51,0-.05-.31.03-.68,0-1.01.25.11,1.17.22,1.51.25Z"/>
      <path class="st2" d="M60.67,81.97c.12.02.23.13.25.25-.17,0-.34,0-.5,0l.25.25v.25c-.08,0-.17,0-.25,0-.32.01-.71-.05-1.01,0,.02-.26-.22-.56-.25-.75.48.05,1.04-.07,1.51,0Z"/>
      <path class="st11" d="M123.5,39.24c.11.49.1.76.75.75v.25c.07.73-.6.62-.75.75-.17.08-.34.16-.5.25,0-.25,0-.5,0-.75-.01-.48,0-.81-.25-1.25h.75Z"/>
      <path class="st11" d="M88.56,44.77c-.08.07-.15.36-.25.5-.08.11-.49.19-.5.5h-.75c-.04.15.05.45,0,.5-.18.2-1.62.84-2.01,1.01-.68.28-1.19.32-1.76.5l-1-.5c.69-.36,1.88.03,2.26-.75l-2.01.25c1.24-.57,2.33-.96,3.77-1.01l-1.01-.75,3.27-.25Z"/>
      <path class="st2" d="M117.72,39.99c-1.52-.1-3.45.03-5.03,0l2.34-.69,2.69.69Z"/>
      <path class="st14" d="M87.56,49.29c-.47-.01-.93.08-1.26-.38.57-.09,1.8-.92,1.51.38-.08,0-.17,0-.25,0Z"/>
      <path class="st14" d="M100.13,40.75l-.42.74c-.33.11-.56-.24-.59-.24v-.5c.32-.04.69.05,1.01,0Z"/>
      <path class="st14" d="M87.81,45.77l.25.5h-1c.05-.05-.04-.36,0-.5h.75Z"/>
      <path class="st11" d="M101.88,42.76l-.4.48-.61.02c-.26-.12.68-.6,1-.5Z"/>
      <polygon class="st14" points="91.58 46.28 91.07 47.02 90.58 47.03 90.58 46.53 91.58 46.28"/>
      <path class="st14" d="M87.43,46.78c.16.08.16.17,0,.25v-.25Z"/>
      <path class="st11" d="M67.7,65.13c.05.29.14.49.25.75.25.61.31.46.5.75.1.16.16.34.25.5l-.25.25c.28.21.72,0,.76,0,.08.01.17-.01.25,0,.07.01.17.23.25.25v.25l-.24.85.74.65c-.25,0-.5,0-.75,0-.17,0-.34,0-.5,0-.02-.18.07-.41,0-.59l-.51-.29.5-.63-2.51.25s-.5-.21-.5-.5c.46-.05,1.13-.46,1.76-.25-.09-.37-.47-.56-.75-.75-.2-.13-.3-.1-.5,0-.28-1.21.41-.91.5-1.01l.25.63.5.12-.25-.75h-.5s-.07-.33.06-.44l.7-.06Z"/>
      <path class="st14" d="M70.72,62.62l-.5,1,1.01.13-.43.64h-.83s.25.99.25.99l-2.26-1.26c-.1-.4.3-.15.42-.33s.04-.51.13-.6c.17-.17.71-.15,1.04-.32.3-.16-.12-.72,1.17-.25Z"/>
      <path class="st4" d="M66.45,64.37c.07.03.18-.03.25,0,.46.17.76.17,1.01.25v.25c.01.08-.01.17,0,.25l-.7.06c-.12.11-.02.41-.06.44-.09.09-.78-.2-.5,1.01.2-.1.3-.13.5,0-.06.21-1.17.26-1.26.25,0-.24.03-.53,0-.75l.25-.25c0-.17-.01-.34,0-.5.03-.42-.02-.84,0-1.26.07.03.18-.03.25,0,.07.08.15.21.25.25Z"/>
      <path class="st14" d="M68.21,65.13c-.04-.08-.19-.15-.25-.25.1.04.18.22.25.25Z"/>
      <path class="st14" d="M67.95,64.87h-.25v-.25c.13.04.21.23.25.25Z"/>
      <path class="st14" d="M68.21,65.13c.21.08.81-.14.98.04.12.13-.15.86.53.72l-1.25.75c-.19-.3-.25-.14-.5-.75h.5c.07-.33-.11-.5-.25-.75Z"/>
      <path class="st9" d="M68.71,61.86c.03.13.41.36.25.75-.25,0-.5.02-.75,0v-.75s.5,0,.5,0Z"/>
      <path class="st10" d="M69.21,67.39s-.48.2-.76,0l.25-.25.5.25Z"/>
      <path class="st2" d="M82.53,46.78l2.01-.25c-.38.79-1.57.4-2.26.75l1,.5c-.55.18-1.24.32-1.64.75l-.12-.5.5-.26v-.37s-.25-.13-.25-.13c.03-.03-.08-.33.05-.45.18-.17.58,0,.7-.05Z"/>
      <path class="st2" d="M79.89,50.55c.16.08.16.17,0,.25v-.25Z"/>
      <polygon class="st2" points="111.18 67.39 110.8 67.89 110.18 67.89 110.18 67.39 111.18 67.39"/>
      <path class="st2" d="M109.42,68.39v.25c-.22-.23-.42-.43-.5-.75.16-.09.34-.16.5-.25v.75Z"/>
      <rect class="st14" x="109.18" y="69.15" width=".25" height=".5"/>
      <path class="st11" d="M109.42,68.39l.76.63-.38.12c-.21-.1-.26-.38-.38-.5v-.25Z"/>
      <rect class="st11" x="110.43" y="69.15" width=".5" height=".25"/>
      <path class="st14" d="M74.49,71.66s.3-.05.41.1c.14.2.13.46.35.65.09.08.69-.3.52.8l1.49,3.47-1.76-.25.52-.4-.32-1.06-1.71-.3,1.26-.25v-1s-1.51,0-1.51,0c0-.08.02-.18,0-.25l1.26-.12-.25-.63c-.11-.13-.98.9-1.25.12s1.28.1,1-.88Z"/>
      <path class="st9" d="M72.23,70.66c.01.08.59.56,0,.75-.36-.28-.94-.05-.75-.75h.75Z"/>
      <path class="st9" d="M72.73,72.16c.12.26.17.48.25.75l-1-.25c-.13-.17.49-.56.75-.5Z"/>
      <path class="st9" d="M72.23,69.9c.02.16-.01.34,0,.5l-.5-.13v-.37s.5,0,.5,0Z"/>
      <path class="st10" d="M63.93,65.63c0,.15-.06.31.05.46.2.15.5.17.71.3.4.25.37.41,1.01.5v.75c-.15,0-.42.04-.5,0-.59-.24-.74-.48-1.76-.75-.06-.09-.14-.22-.25-.25-.08-.03-.18.02-.25,0,.03-.57-.61-.94-.75-1.26-.03-.07.03-.18,0-.25.61.08,1.15.43,1.76.5Z"/>
      <path class="st10" d="M62.93,66.63l.25.25c.07.03.17-.02.25,0l1.76,1.26v.5c-.4-.15-.72-.15-1.01-.25-.21-.07-.44-.35-1.01-.5.39.33.73.54,1.01.75s.63.34.75.75c-1.54-.22-2.36-.7-3.77-1.26v-.5s.08-.24.32-.21c.53.47,1.2.33,1.69.46-.57-.48-1.08-1.1-1.76-1.51.42.16,1.16.14,1.51.25Z"/>
      <path class="st2" d="M63.18,67.89c-.49-.13-1.16.01-1.69-.46-.24-.03-.28.2-.32.21-.12.04-.45.19-.5.25-.22-.82.56-1.17.75-1.51.68.41,1.18,1.02,1.76,1.51Z"/>
      <path class="st11" d="M62.17,65.38c.15.32.79.69.75,1.26-.35-.11-1.09-.09-1.51-.25.06-.1-.05-.49.12-.76l.63-.25Z"/>
      <path class="st11" d="M63.18,66.89l-.25-.25c.08.02.18-.03.25,0v.25Z"/>
      <path class="st11" d="M62.93,64.62c.17.45.56.55,1.01.5-.01.16,0,.34,0,.5.24.03.51-.02.75,0-.04.12.03.35,0,.5v.25c-.21-.13-.5-.15-.71-.3-.11-.14-.04-.3-.05-.46-.61-.08-1.15-.42-1.76-.5-.03-.07.03-.18,0-.25l.75-.25Z"/>
      <path class="st13" d="M61.17,64.37v-.5s.63,0,.63,0c.25.03.07.39.13.51-.25-.02-.51.02-.75,0Z"/>
      <path class="st2" d="M60.67,59.85c0,.25-.01.5,0,.75s0,.5,0,.75h.5c.01-.17-.01-.34,0-.5,0-.08,0-.17,0-.25l1,.39c-.11.94-.81.61-.75,1.62.26.04.49.17.73.24l.78-1.24c.06.23.24.7.25.75.01.08-.01.17,0,.25.04.24-.02.51,0,.75-.08,0-.17,0-.25,0-.12,0-.38-.29-.61-.27l-.51.52c-.41-.27-.35-.59-.38-1-.16-.03-.34.02-.5,0v-1s-.49.37-.49.37c-.02.24.2.45.24.63.06.23.23.57.13.75-.5-.33-.77-.25-.63-1h-.5s0,.5,0,.5l-1.25-.75-.13-.51-.38.51c-.18-.61-.22-1.17-.96-1.04l-.04-.47.25-.5c1.15-.17,2.35-.29,3.52-.25Z"/>
      <path class="st2" d="M61.17,71.16s.2.37.6.52c1.02.37,2.09.6,3.17.74.04.43.22.75.25,1.01-1.17-.42-3.09-.71-4.1-1.32-.36-.21-.52-.65-.93-.95.29.06.78-.08,1.01,0Z"/>
      <path class="st2" d="M64.94,69.4c-.13-.42-.47-.53-.75-.75v-.25c.29.1.61.1,1.01.25.49.19.91.61,1.51.5-.13-.23-.15-.52-.25-.75.66.24,1.41.36,2.01.75-.06.24-.29.24-.5.25-.56.02-1.6.25-1.76.25-.31,0-.85-.19-1.26-.25.05.82-.08,1.7,0,2.51-1.34-.2-2.34-1.3-3.77-1.26-.13-.49-.39-.79-.5-1.26,1.34-.02.78.31,1.32.57.22.1,2.75,1.43,2.7.56l-3.51-1.88v-.5c1.41.56,2.23,1.04,3.77,1.26Z"/>
      <path class="st9" d="M64.94,71.91c.02.16-.02.34,0,.5-1.08-.15-2.14-.37-3.17-.74-.4-.14-.57-.5-.6-.52-.27-.22,0-.48,0-.5,1.43-.04,2.43,1.05,3.77,1.26Z"/>
      <path class="st11" d="M121.49,39.49c.32,0,.65-.06.97.04l.29.97c-.08-.02-.18.03-.25,0-.28-.11-.63-.44-.95-.56l-.06-.44Z"/>
      <path class="st9" d="M123,40.5c0,.25,0,.5,0,.75-.11.06-.46.31-.5.25v-1.01c.07.03.17-.02.25,0h.25Z"/>
      <path class="st14" d="M121.49,40.75c0-.17,0-.34,0-.5h.5s-.25,1-.25,1c0-.17-.14-.41-.25-.5Z"/>
      <path class="st9" d="M67.2,100.82c-.19.5-.64.69-1.01,1.01.01-.17-.02-.34,0-.5.05-.44.21-.58.25-.75.31-.13.64.23.75.25Z"/>
      <path class="st9" d="M120.99,37.48c-.62-.24-1.22-.8-2-.76v-.74c1.34-.14,2.16.91,3.01,1.76-.32-.1-.7-.13-1.01-.25Z"/>
      <path class="st14" d="M120.99,38.48v.25l-.5-.25c.16.02.34,0,.5,0Z"/>
      <path class="st14" d="M118.98,37.23c.53.3,1.54.53,1.51,1.26-.44-.05-1.19-.3-1.59-.5-.22-.11-.14-.5-.17-.51l.25-.25Z"/>
      <path class="st11" d="M121.99,37.73c.17.05.33.19.5.25-.24.07-.41.17-.75.25l-.75-.75c.3.12.68.15,1.01.25Z"/>
      <path class="st14" d="M76,85.99c-.16.37-.28.68-.24,1.09l-.77.29,1,.25-.54,1.1c-.12.12-.5.05-.71.04h-.5c.17,0,.33,0,.5,0v.5s1.25-.25,1.25-.25l.26,2.01c-.13.03-.3-.06-.43.08-.38.41-.42.46-.58.93-.34.17-.75.11-1.15.49-.34.33-.25.56-.36.76-.79.09-.46-.29-.5-1.01h.5s0-.5,0-.5h-.5s0,.5,0,.5l-2.08,1.01c-.24.71-1.61,1.74-2.39,1.94-.62.17-.76.12-1.05-.44l.11-1.27,1.15-.24c.06.11.13.2.25.25l.17.23c.97.19,1.3-.93,1.59-1.24.1-.1.42-.42.5-.5.54-.51,1.28-1.2,1.85-1.67.34-.28,1.3-.24,1.17-1.1-1.13.73-2.23,1.5-3.33,2.26-.23.16-.16.49-.18.5-.23.15-1.61.53-2.01.75-.05-.12-.51-.24-.51-.42l.26-.34c.54-.03.7-.96.75-1.01.77-.6,2.22-.24,2.76-1.76.17-.01.35.03.5,0,.9-.16,1.34-1.04,0-.5-.09.04-.34-.08-.46.04s0,.36-.04.46c-.24.02-.51,0-.75,0-.02.14.07.32-.03.47l-2.23.54.04-1.48c.3-.13.69.03.96-.03v.5c.42.02.84-.02,1.26,0,.03-.23-.01-.51,0-.75,0-.17-.01-.34,0-.5,1.08,0,1.81-.73,2.9-1.01.6-.15.72.31.62-.75.3-.07.62-.33,1.01-.25ZM74.72,88.23l-.11-.73-.88.51v.5s.98-.27.98-.27ZM74.99,90.76h-.5v.5h.5v-.5ZM74.11,91.26v.25c.16-.08.16-.17,0-.25ZM68.58,94.03v.25c.16-.08.16-.17,0-.25Z"/>
      <path class="st11" d="M64.44,101.82v.5c-.16.03-.37-.04-.5,0,.04-.06-.08-.37.02-.48l.48-.03Z"/>
      <path class="st11" d="M57.4,107.35c-.75,1.59-.29.52-1.24,1.14-1.4.9-2.79,2.16-4.29,3.13l-1.01-.25c2.21-1.31,4.28-2.89,6.53-4.02Z"/>
      <path class="st11" d="M63.93,102.32c-1.18,1.76-4.66,4.09-6.53,5.03.08-.18,0-.32.26-.61.41-.47,4.75-3.8,5.4-4.17.43-.25.57-.15.88-.24Z"/>
      <path class="st11" d="M61.42,94.78c1.5-.69,2.93-1.53,4.41-2.25l.11,1.25c-.33.1-.68.15-1.01.25-1.32.42-2.22.91-3.52,1.51v-.75Z"/>
      <path class="st11" d="M75.24,92.52c-.43,1.41-2.15,2.33-3.27,3.02-.03.07.07.28-.05.44-.88.69-1.84,1.29-2.71,1.82-.25.92-.77,1.01-1.51,1.51l-.5-.12c.5-.89,1.36-1,2.01-1.38.04-.14-.04-.36,0-.5-.14.04-.35-.03-.5,0v-.5s-1.26.25-1.26.25c0-.08-.01-.17,0-.25.03-.18.45-.59.25-1.01,1.28-.22,1.42-.34,2.61-1.04.31-.18.6-.63.79-.72.52-.23.32.33.37.5-1.15.06-.87.74-1.06.93-.44.46-.5-.37-.95,1.08-.08.25-.18.49-.25.75,1.23-.33,1.8-1.16,2.76-1.76.45-.92.39-.36.99-.89.49-.43.52-.94.77-1.37.8-.09.6-.62.94-.76.17-.07.43.04.57,0Z"/>
      <path class="st14" d="M62.68,96.54c.99-.51,1.95-1.37,3-1.65.42-.11,1.17-.43,1.02.39-.07.03-.18-.03-.25,0-.19.08-.39.07-.75.25-.53.26-1.59.59-1.51,1.26-.08,0-.17,0-.25,0-.16.02-.39-.04-.5,0-.37.13-.35.37-.5.5h-.25v-.75Z"/>
      <path class="st11" d="M66.45,99.81v.25c-.02.16.03.36,0,.5-.04.18-.2.32-.25.75-.38-.08-.72.2-1.01.25-.22.04-.51-.03-.75,0,0-.16-.02-.34,0-.5.62-.17,1.49-.54,1.51-1.26.14-.04.35.03.5,0Z"/>
      <path class="st11" d="M64.18,99.81s-.06-.24.06-.44,1.45-1.32,1.69-1.07c.18,1.21-1.08,1.23-1.76,1.51Z"/>
      <path class="st9" d="M70.97,92.02s-.05-.34.18-.5c1.11-.76,2.21-1.54,3.33-2.26.13.85-.83.81-1.17,1.1-.56.47-1.3,1.16-1.85,1.67h-.5c-.03.14.05.45,0,.5-.1.12-1.63.35-1.76,1.01-.12-.05-.19-.14-.25-.25-.06-.1.05-.39,0-.5.4-.22,1.78-.6,2.01-.75Z"/>
      <path class="st9" d="M65.94,99.81c-.02.72-.89,1.09-1.51,1.26.02-.22-.09-.52.04-.7.47-.25.96-.41,1.47-.55Z"/>
      <path class="st14" d="M67.45,97.05l1.25-.25v.5c-.41.08-.81.29-1.25.25,0-.17,0-.34,0-.5Z"/>
      <path class="st14" d="M67.45,96.79h-.5s.5-1.01.5-1.01c.08-.01.17.01.25,0,.2.41-.22.83-.25,1.01Z"/>
      <path class="st9" d="M66.45,95.29v.75s-.75,0-.75,0v-.5c.36-.18.56-.17.75-.25Z"/>
      <path class="st9" d="M65.19,101.57c0,.63-.24.66-.75.75v-.5c0-.08,0-.17,0-.25.24-.03.53.04.75,0Z"/>
      <path class="st9" d="M66.45,99.81s.1-.24.37-.26l.13.51h-.5s0-.25,0-.25Z"/>
      <path class="st14" d="M72.48,79.2h2.26s-1,1-1,1h2.26s.12-.75.12-.75l.64.42v.58c-.49-.07-1.21.32-1.75.27l-.02.48c-.17,0-.34,0-.5,0v-.5s-.63,0-.63,0l-.13.25c-.14-.03-.52-.08-.51.13.03.26.37-.18.51.63-.74.26-1.49.28-2.26.25-.54-.02-.99-.08-1.51-.25v-.25c.27.04.55-.23.75-.25.42-.06.93.02,1.38,0,.34-.02,1.05.21.89-.37-.06-.21-1.95.14-2.26.12-.38-.03-1.16-.21-1.56-.33-.26-.08-.76-.06-.7-.42.84,0,3.79.17,4.02-.76v-.25Z"/>
      <path class="st14" d="M78.51,80.96c.3.1.58.3.96.31l.04.7c-.17,0-.33,0-.5,0-.41,0-.74,0-1,.38.06.26.52.1.75.12.22.03.39.2.75,0v-.5s.73.02.73.02l-.22,1.13-2.13.62-.54-.76c-.19-.06-.32.24-.35.24-.42.09-.84.14-1.25.25v-.5c.39-.15.78-.31,1.16-.48.34-.15.74.24.59-.53-.97.09-1.76.47-2.76.5-.33.01-.67,0-1.01,0-.01-.17.01-.34,0-.5l3.1-.3c.23-.07.36-.23.41-.46.03-.14-.02-.34,0-.5.29.11.85.12,1.26.25Z"/>
      <path class="st14" d="M78.51,80.96l-.5-.88,1.74.4c.1.12-.02.37.02.47-.42-.01-.84,0-1.26,0Z"/>
      <path class="st14" d="M77.25,80.71c-.36.14-.47-.25-.5-.25.4-.14.48.24.5.25Z"/>
      <path class="st11" d="M69.97,71.16h1.01s-.25.75-.25.75h1.01c.25.78-1.03.54-1.51.5.03.04-.06.28.06.43.37.45,1.37.66,1.95.57.27.97-1.27.29-1.51.5l.36.77,1.65.24-1.25,1.13,1.5.88-1.25.38.68.58,1.83.05c-.33.59-1.51.55-2.01.25l.25,1.01v.25c-.16.03-.37-.04-.5,0l-.75-.75c0-.17,0-.34,0-.5,0-.25,0-.5,0-.75-.78.25-1.75-.21-2.26-.25l-.25-.75c.88.11,1.63-.08,2.39.25l-.15-.73c-.97.17-2.11-.41-3-.27v-.5c.71.08,1.74.03,2.41-.22.35-.13.43.08.35-.53-1.08-.17-2.18-.16-3.27-.25v-.5c.61.09,1.58,0,2.16-.22.35-.13.43.08.35-.53-.93.15-1.95-.39-2.76-.5v-.5c.45.18,2.45.46,3.02.5-.18-.24-.32-.52-.5-.75l.25-.5Z"/>
      <path class="st2" d="M69.46,69.4l.5,1.76-.25.5c-.11-.14-.24-.49-.41-.5l-3.11-.26c-.06-.05-.35.03-.5,0l.75-1c.27.25.45.48.68.75h1.58s.13.25.13.25c.16-.04.1-.15.13-.25.03-.13-.01-.34,0-.5s0-.34,0-.5c0-.08,0-.17,0-.25.17,0,.34,0,.5,0Z"/>
      <path class="st9" d="M83.03,79.2l-.71,1.24-2.31.02v-.75s1.38-.26,1.38-.26l.38.76v-1.51s.63,1,.63,1c0-.46.54-.42.63-.5Z"/>
      <path class="st9" d="M78.26,72.92c-.72,1.48,1.11,2.54,1,4.02l-1.26-.76.15-.75-.9-.75.51-.14c-.26-.49-.41-1.75.49-1.62Z"/>
      <path class="st9" d="M83.79,80.46c-.1.52.04.78.5,1.01-.22,0-.6-.05-.75,0-.42.13-.89.81-1.51.75,0-.04-.31-.26-.27-.58l1.02-.92c.05-.02.12-.38.41-.45.25-.08.44.16.59.2Z"/>
      <path class="st11" d="M79.77,80.96c.42.01.84-.01,1.26,0,.09.32-.2.55-.25.75-.26,0-.53.04-.76-.12-.27-.15-.18-.46-.24-.64Z"/>
      <polygon class="st9" points="77.25 73.42 76.5 73.04 76.5 72.42 77.25 72.79 77.25 73.42"/>
      <polygon class="st14" points="75.24 76.69 75.11 77.19 73.99 76.94 73.99 76.44 75.24 76.69"/>
      <path class="st14" d="M74.49,75.68l-.73-.03-.28-.72c.24-.21.93.41,1.01.75Z"/>
      <polygon class="st14" points="75.49 77.69 75.62 78.44 74.74 78.19 75.12 77.7 75.49 77.69"/>
      <path class="st2" d="M69.71,67.64s.61-.28.76.13l-.76.13v-.25Z"/>
      <rect class="st9" x="76.25" y="71.41" width=".25" height=".5"/>
      <rect class="st14" x="76.25" y="78.45" width=".5" height=".25"/>
      <path class="st9" d="M79.64,76.94c.16.08.16.17,0,.25v-.25Z"/>
      <path class="st11" d="M77,65.88s-.13.25-.32.2c-.51-.12-2.19-1.39-2.6-1.43l-.35.08c-.22.17-.16.54-.24.64-.09.12-.34.19-.5.5-.1.2-.11.52-.23.73l.48.27c-1.23.12-.58,3.11-.39,4.04s.79,1.76.89,2.25c.02.08,0,.17,0,.25,0,.05-.35.53-.12,1-.76-.41-.49-1-.63-1.5-.08-.27-.14-.5-.25-.75-.19-.42.03-.34-.5-.75.59-.19.01-.67,0-.75s0-.17,0-.25c-.01-.16.02-.34,0-.5-.05-.33.09-.75-.03-1.1l-.72-.91c.84-.2,1.01-1.77,1.51-2.77.26-.52.69-.75.75-1.26.98.43,2.94.94,3.27,2.01Z"/>
      <polygon class="st14" points="74.24 71.16 74.24 71.66 73.61 71.66 73.23 71.28 74.24 71.16"/>
      <polygon class="st14" points="73.99 69.9 73.99 70.4 72.98 70.4 72.98 70.16 73.99 69.9"/>
      <rect class="st14" x="72.98" y="67.39" width=".5" height=".5"/>
      <rect class="st11" x="73.23" y="69.15" width=".5" height=".25"/>
      <rect class="st9" x="99.62" y="44.02" width=".5" height=".25"/>
      <path class="st9" d="M99.25,44.27c.16.08.16.17,0,.25v-.25Z"/>
      <path class="st10" d="M74.99,86.24c.1,1.06-.02.6-.62.75-1.09.28-1.82,1-2.9,1.01-.01.17,0,.34,0,.5-.52-.21-.94.18-1.26.25-.27.06-.66-.1-.96.03l-.04,1.48,2.23-.54c.09-.15,0-.33.03-.47.25,0,.51.02.75,0,.04-.1-.08-.34.04-.46s.37,0,.46-.04v.5c-.15.03-.34-.01-.5,0-.55,1.52-1.99,1.16-2.76,1.76l-.62-.48-.85.19-.29-.47c-.02-.16.04-.37,0-.5-.03-.12-.19-.25-.23-.38l.49-.29c.07-.2-.04-.45,0-.58.05-.18-.06-.42.25-.5l.65-.24-.15-.76h.88s.16.71.16.71c.56.05,1.18.3,1.73.3.02-.33-.02-.67,0-1,1.16.59,1.73-.33,2.71-.69.3-.11.59-.02.8-.07Z"/>
      <path class="st11" d="M67.7,89.76c.04.14-.02.34,0,.5-1.7,1.36-3.82,1.92-5.78,2.76l-1.26-.25c1.14-1.02,3.07-1.44,4.52-2.01.7-.27,1.48-.41,2.01-1.01.13.04.35-.03.5,0Z"/>
      <path class="st14" d="M57.15,95.29l-.03.47c-.41.09-.82.19-1.23.29l.15-.53c.35-.16.73-.18,1.11-.23Z"/>
      <path class="st14" d="M58.4,94.78l-.02.47c-.32.11-.66,0-.98.03v-.5c.29-.06.78.08,1.01,0Z"/>
      <path class="st11" d="M60.41,92.77l-.02.49c-.24.13-.45-.24-.48-.24l.5-.25Z"/>
      <path class="st11" d="M68.21,88c-.31.08-.2.32-.25.5-.66.03-1.66.28-2.26.5v-.5c.74-.24,1.86-1.05,2.51-.5Z"/>
      <path class="st10" d="M67.2,89.76c-.53.59-1.31.73-2.01,1.01-.16-.53,1.28-1.23,1.64-1.25.21-.01.31.22.37.24Z"/>
      <path class="st14" d="M63.93,90.51c-.15.57-.78.54-1.26.5v-.25s1.26-.25,1.26-.25Z"/>
      <path class="st11" d="M62.68,97.3c-.16.09-.34.16-.5.25-1.39.81-2.8,1.65-4.16,2.51-.33.21-.73.21-.62.75-1.05.05-1.59.33-2.51.75v-1.01c.12-.02.21-.14.25-.25,1.01-.21,1.47-.82,2.51-.76l-.25-.5c.94-.09,1.87-.72,2.71-1.18s1.68-.88,2.57-1.34v.75Z"/>
      <path class="st10" d="M62.93,97.3c-.2.18-.45.96-.75.25.16-.09.34-.16.5-.25h.25Z"/>
      <path class="st10" d="M63.93,96.79l-.13.25-.37-.25c.11-.04.34.02.5,0Z"/>
      <path class="st14" d="M59.79,100.31c.16.08.16.17,0,.25v-.25Z"/>
      <path class="st10" d="M55.14,100.31c-.04.11-.14.23-.25.25-.08.02-.17-.01-.25,0,.24-.7.47-.24.5-.25Z"/>
      <rect class="st11" x="53.63" y="101.07" width=".75" height=".5" transform="translate(-.13 .07) rotate(-.07)"/>
      <path class="st4" d="M60.92,82.22c2.02-.1,4.28,0,6.28.25v.5c-1.08-.03-2.18.04-3.27,0-.95-.03-1.79-.22-2.76-.25l-.5-.25-.25-.25c.17-.01.34,0,.5,0Z"/>
      <path class="st14" d="M61.17,82.72c.97.03,1.82.22,2.76.25.02.76.19.78-.63.77-.52,0-1.46-.05-1.96-.13-.7-.1-1.1.03-.93-.89.08,0,.17,0,.25,0,.17,0,.34,0,.5,0Z"/>
      <path class="st11" d="M67.95,81.97c.25.33.58.61.75,1.01-.46-.06-1.02.01-1.51,0v-1.01c.25,0,.5,0,.75,0Z"/>
      <path class="st2" d="M69.46,83.22c.01-.17-.02-.34,0-.5h.63s.13.5.13.5v.25h-.75c0-.08,0-.17,0-.25Z"/>
      <path class="st10" d="M74.74,83.47c0,.24-.03.53,0,.75-.47.05-.99-.03-1.01.63l1.01-.12.48.02-.23.48c-.56-.05-1.14.75-1.7.94-1.75.59-3.16.04-4.58.07v-.25c.71-.28.66-.65.75-1.26,1.07-.12,1.93-.25,3-.52v-.74c.76.05,1.53-.04,2.27,0ZM72.98,84.48l-1.51.25c.05,2.16,1.94.15,1.51-.25Z"/>
      <path class="st2" d="M73.74,81.71c.01.08,0,.17,0,.25.01.17-.02.34,0,.5.33,0,.67.01,1.01,0v1.01c-.75-.04-1.52.05-2.26,0-.45-.03-.73-.21-1.01-.25v-1.26c.78.03,1.52.01,2.26-.25Z"/>
      <path class="st9" d="M70.97,83.22l-.13.51-.13-.51c.08.01.17-.02.25,0Z"/>
      <path class="st14" d="M76.5,84.23c-.07.24-.21.55-.25.75l-.66.52c-.31.05-.53-.27-.6-.27l.23-.48-.48-.02c-.02-.16.02-.34,0-.5.57-.06,1.18.04,1.76,0Z"/>
      <path class="st14" d="M67.95,86.49l.5.5c-.83.07-1.4.36-2.26.51,0-.91,1.06-.88,1.76-1.01Z"/>
      <path class="st11" d="M65.69,60.85c.54.08,1.2-.06,1.76,0l-.5.25h-1.26v-.25Z"/>
      <path class="st9" d="M65.69,63.87s.11.19.25.25c-.02.42.03.84,0,1.26h-.25l-.39-.25c-.32-.01-.3.2-.37.25-.09.08-.2.11-.25.25-.25-.02-.51.03-.75,0,0-.16-.01-.34,0-.5,0-.02.19-.05.25-.13l-.5-.62.75-.25.5.5.25-.75c.14.05.4-.05.5,0Z"/>
      <path class="st14" d="M64.44,62.86c.03.14,0,.34,0,.5-.36-.06-.86.03-1.26,0-.02-.24.04-.52,0-.75.41.13.82.21,1.26.25Z"/>
      <path class="st14" d="M65.19,63.87l-.25.75-.5-.5c0-.25,0-.5,0-.75.64.11.71.49.75.5Z"/>
      <path class="st9" d="M66.45,64.37c-.1-.04-.18-.17-.25-.25.11.04.19.15.25.25Z"/>
      <path class="st9" d="M75.75,82.97v.5c.41-.11.84-.16,1.26-.25-.29.31-.38.62-.5,1.01-.57.04-1.19-.06-1.76,0,.02.16-.02.34,0,.5l-1.01.12c.02-.65.54-.58,1.01-.63-.03-.23,0-.51,0-.75v-.25c.38.05.67-.13,1.01-.25Z"/>
      <path class="st14" d="M71.22,78.7l.75.75c-1.48.46-3.41.37-4.52-.75h3.77Z"/>
      <path class="st14" d="M67.45,74.17c1.08.09,2.19.08,3.27.25.08.61,0,.4-.35.53-.67.25-1.7.3-2.41.22-.33-.04-1.04-.57-1.51-.75v-.5c.32.03.68.22,1.01.25Z"/>
      <path class="st9" d="M67.2,72.41c.81.12,1.83.65,2.76.5.08.61,0,.4-.35.53-.58.22-1.55.32-2.16.22-.18-.03-1.18-.46-1.26-.63v-.63c.32.03.69-.05,1,0Z"/>
      <path class="st14" d="M66.2,70.91l3.11.26c.16,0,.3.35.41.5.18.24.33.51.5.75-.57-.04-2.57-.33-3.02-.5-.58-.23-.73-.8-1.01-1.01Z"/>
      <path class="st9" d="M67.95,69.4c-.15.66.49.62,1.01.75-.01.16.03.38,0,.5h-1.83c-.23-.27-.41-.51-.68-.75-.09-.08-.16-.17-.25-.25.16,0,1.2-.23,1.76-.25Z"/>
      <path class="st9" d="M68.96,77.19c.51.04,1.49.5,2.26.25,0,.25,0,.5,0,.75-.41.04-.86-.05-1.26,0-.11-.34-.49-.22-.75-.25-.55-.06-.97-.07-1.51-.25v-.5c.39-.02.86-.03,1.26,0Z"/>
      <path class="st9" d="M67.95,75.68c.89-.14,2.02.44,3,.27l.15.73c-.76-.33-1.51-.14-2.39-.25-.54-.07-.72-.09-1.26-.25v-.25c.22.06.45-.24.5-.25Z"/>
      <path class="st11" d="M70.72,80.96c.32.02,2.2-.33,2.26-.12.17.59-.55.36-.89.37-.45.02-.96-.06-1.38,0v-.25Z"/>
      <path class="st11" d="M67.45,76.18c-.24-.08-.94-.15-1.01-.38v-.37s1.01,0,1.01,0v.5s0,.25,0,.25Z"/>
      <path class="st10" d="M67.2,81.46c.56.29.15-.31.75.5-.25,0-.5,0-.75,0-.08,0-.17,0-.25,0l.25-.5Z"/>
      <path class="st11" d="M69.97,78.2c-.09.01-.39.41-.75.25v-.5c.27.03.64-.09.75.25Z"/>
      <path class="st11" d="M67.7,77.19v.5c-.3-.1-.71-.07-.75-.5.25-.02.5.01.75,0Z"/>
      <path class="st11" d="M66.45,73.92v.5c-.17-.07-.45.14-.5-.13-.1-.45.09-.41.5-.37Z"/>
      <path class="st9" d="M64.18,81.21v.5c.32.13.88-.26,1.01-.25.3.03,1.09.43,1.76.5.08,0,.17,0,.25,0v.5c-2-.25-4.26-.35-6.28-.25-.02-.12-.13-.23-.25-.25v-.75c1.1.09,2.39,0,3.52,0Z"/>
      <path class="st14" d="M65.19,81.21v.25c-.12-.01-.68.38-1,.25v-.5s1,0,1,0Z"/>
      <path class="st11" d="M83.54,81.46c.11.78-.95,1.48-1.51,2.01l-.16-.12c.1-.38.17-.74.16-1.14.62.06,1.08-.63,1.51-.75Z"/>
      <path class="st9" d="M61.17,82.72c-.17,0-.34,0-.5,0v-.25l.5.25Z"/>
      <path class="st9" d="M66.45,68.14l2.51-.25-.5.63.51.29c.06.18-.02.4,0,.59,0,.08,0,.17,0,.25-.18-.13-.33-.39-.5-.5-.6-.39-1.35-.51-2.01-.75-.03-.07.03-.19,0-.25Z"/>
      <path class="st4" d="M65.69,67.64c.08,0,.17,0,.25,0,0,.29.48.46.5.5.03.07-.03.18,0,.25.1.23.12.52.25.75-.6.11-1.02-.31-1.51-.5v-1.01c.09.04.35,0,.5,0Z"/>
      <path class="st2" d="M65.69,66.13c.03.23,0,.51,0,.75.09.01,1.2-.05,1.26-.25.29.19.67.38.75.75-.63-.21-1.3.21-1.76.25-.08,0-.17,0-.25,0v-.75c-.64-.1-.6-.26-1.01-.5v-.25h1.01Z"/>
      <polygon class="st2" points="66.95 65.63 67.45 65.63 67.7 66.38 67.2 66.26 66.95 65.63"/>
      <path class="st2" d="M65.94,65.38c-.01.17,0,.34,0,.5h-.25c-.03-.14-.17-.18-.25-.25l.25-.25h.25Z"/>
      <polygon class="st11" points="65.69 66.13 65.69 65.88 65.94 65.88 65.69 66.13"/>
      <path class="st2" d="M63.43,66.89c-.08-.02-.18.03-.25,0v-.25c.11.04.19.16.25.25Z"/>
      <path class="st2" d="M65.19,67.64v.5l-1.76-1.26c1.02.27,1.16.52,1.76.75Z"/>
      <path class="st4" d="M64.18,68.39v.25c-.28-.22-.62-.43-1.01-.75.57.15.8.43,1.01.5Z"/>
      <path class="st11" d="M71.47,92.02c-.09.08-.41.41-.5.5-.3.3-.62,1.43-1.59,1.24l-.17-.23c.13-.65,1.66-.89,1.76-1.01.05-.06-.03-.36,0-.5h.5Z"/>
      <path class="st11" d="M71.47,88.5c-.01.25.03.52,0,.75-.42-.02-.84.02-1.26,0v-.5c.32-.07.74-.46,1.26-.25Z"/>
      <polygon class="st9" points="74.72 88.23 73.74 88.5 73.74 88 74.62 87.5 74.72 88.23"/>
      <path class="st9" d="M72.73,88.75c1.34-.54.9.34,0,.5v-.5Z"/>
      <rect class="st9" x="74.49" y="90.76" width=".5" height=".5"/>
      <path class="st9" d="M74.74,88.75c-.17,0-.34,0-.5,0h.5Z"/>
      <path class="st11" d="M68.58,94.03c.16.08.16.17,0,.25v-.25Z"/>
      <path class="st9" d="M74.11,91.26c.16.08.16.17,0,.25v-.25Z"/>
      <path class="st14" d="M71.47,94.53c.02.05.2.13.19.33l-.25.61-1.95,1.07c.45-1.44.51-.62.95-1.08.19-.2-.09-.87,1.06-.93Z"/>
      <path class="st11" d="M73.74,80.96c.14.02.3.23.75.25.17,0,.34,0,.5,0,.75.04,1.51-.03,2.26,0-.05.23-.18.39-.41.46l-3.1.3c0-.08.01-.17,0-.25-.13-.81-.47-.37-.51-.63-.01-.2.37-.15.51-.13Z"/>
      <path class="st10" d="M73.74,80.96l.13-.25h.63s0,.5,0,.5c-.46-.02-.62-.23-.75-.25Z"/>
      <path class="st11" d="M74.74,82.47c1.01-.04,1.79-.41,2.76-.5.15.77-.25.38-.59.53-.38.17-.77.33-1.16.48-.33.13-.62.3-1.01.25v-.75Z"/>
      <path class="st11" d="M79.01,81.97l-.25.5c-.23-.03-.69.13-.75-.12.26-.38.59-.37,1-.38Z"/>
      <path class="st14" d="M68.96,69.65c0,.16.01.34,0,.5-.51-.13-1.16-.1-1.01-.75.21,0,.44,0,.5-.25.17.11.32.37.5.5Z"/>
      <path class="st14" d="M68.71,70.66h.25c-.03.09.03.2-.13.25l-.13-.25Z"/>
      <path class="st9" d="M72.98,84.48c.43.4-1.46,2.41-1.51.25l1.51-.25Z"/>
      <path class="st10" d="M65.44,65.63c.08.07.22.11.25.25v.25h-1.01c.03-.16-.04-.38,0-.5.05-.14.16-.18.25-.25.14.1.4.15.5.25Z"/>
      <path class="st11" d="M65.69,65.38l-.25.25c-.11-.1-.36-.15-.5-.25.07-.05.04-.27.37-.25l.39.25Z"/>
      <polygon class="st11" points="72.73 93.28 72.73 93.77 71.73 94.03 71.73 93.53 72.73 93.28"/>
    </g>
  </g>
</svg>